<svg id="Layer_1" data-name="Layer 1" xmlns="http://www.w3.org/2000/svg" viewBox="0 0 80 80"><defs><style>.cls-1{fill:#fff;}</style></defs><title>Icons</title><path class="cls-1" d="M71.93,36.13a6.84,6.84,0,0,1-2.36,5.54C63.5,46.74,57.46,51.85,51.4,56.93a8.74,8.74,0,0,1-4.71,1.66l-6.12.82c-1.21.17-1.89-.64-1.49-1.79.76-2.16,1.6-4.3,2.28-6.48a8.15,8.15,0,0,1,2.81-4c1.9-1.55,3.78-3.12,5.67-4.68l11.88-9.8a6.59,6.59,0,0,1,8.82.36A4.91,4.91,0,0,1,71.93,36.13Z"/><path class="cls-1" d="M58.19,58.39l-.06-3.94L53,58.79A11.12,11.12,0,0,1,47,61l-1.91.25-4.2.57a4.54,4.54,0,0,1-.63,0,3.69,3.69,0,0,1-3.08-1.51,3.85,3.85,0,0,1-.4-3.54c.26-.74.53-1.49.8-2.21.52-1.44,1-2.8,1.46-4.19a10.44,10.44,0,0,1,3.59-5.11c1.35-1.09,2.71-2.22,4-3.32l1.63-1.34,3.69-3,5.83-4.82,0-3.86c.29-.25.41-8.6.4-12.46A8.29,8.29,0,0,0,49.67,8c-6.75,0-13.49,0-20.23,0a9.15,9.15,0,0,0-6.77,2.73C18.8,14.49,14.92,18.25,11,21.91a8.42,8.42,0,0,0-2.83,5.43,8.06,8.06,0,0,0,0,.85q0,17.68,0,35.38A8.27,8.27,0,0,0,16.23,72q16.91.06,33.82,0A8.21,8.21,0,0,0,58,65.49C58.44,63.19,58.07,60.85,58.19,58.39ZM29.66,21.1c2.45,0,4.9,0,7.35,0s4.81,0,7.21,0A2.52,2.52,0,0,1,47,24a2.43,2.43,0,0,1-2.19,2.35,5.53,5.53,0,0,1-.71,0q-7.08,0-14.17,0a2.51,2.51,0,0,1-2.74-1.72A2.59,2.59,0,0,1,29.66,21.1Zm-9.1,16.5c-1.75,0-2.82-.93-2.88-2.49a2.79,2.79,0,0,1,2.71-2.82c1.65,0,3.3,0,4.95,0H44.13A2.49,2.49,0,0,1,46.85,34a2.61,2.61,0,0,1-2.49,3.57c-.91,0-1.82,0-2.73,0Z"/></svg>