<svg id="Layer_1" data-name="Layer 1" xmlns="http://www.w3.org/2000/svg" viewBox="0 0 80 80"><defs><style>.cls-1{fill:#fff;}</style></defs><title>Icons</title><circle class="cls-1" cx="57.07" cy="16.53" r="8.53"/><path class="cls-1" d="M60.49,29.33H51.9a3,3,0,0,0-2.11.88l-9.15,9.15a.89.89,0,0,1-1.28,0l-9.15-9.15a3,3,0,0,0-2.11-.88H19.51a7.25,7.25,0,0,0-7.24,7.25V49.43a3,3,0,0,0,.87,2.11l2.52,2.52a3,3,0,0,1,.87,2.11V66.89A5.11,5.11,0,0,0,21.65,72h2.57a5.11,5.11,0,0,0,5.11-5.11V42.11a.88.88,0,0,1,1.5-.62L39,49.65a1.45,1.45,0,0,0,2,0l8.15-8.16a.88.88,0,0,1,1.5.62V66.89A5.11,5.11,0,0,0,55.78,72h2.57a5.11,5.11,0,0,0,5.12-5.11V56.17a3,3,0,0,1,.87-2.11l2.52-2.52a3,3,0,0,0,.87-2.11V36.58A7.25,7.25,0,0,0,60.49,29.33Z"/><circle class="cls-1" cx="22.93" cy="16.53" r="8.53"/></svg>