<svg id="Layer_1" data-name="Layer 1" xmlns="http://www.w3.org/2000/svg" viewBox="0 0 80 80"><defs><style>.cls-1{fill:#fff;}</style></defs><title>Icons</title><path class="cls-1" d="M72,17.67a5.27,5.27,0,0,0-3.08-4.83,7.4,7.4,0,0,0-3.64-.71H14.21a6.87,6.87,0,0,0-3.9,1.11A5.09,5.09,0,0,0,8,17.31V43c.36.29.8.19,1.21.19H71.38c.42,0,.62-.17.62-.65Q72,30.13,72,17.67ZM37.38,37.56h-.07q-9.17.09-18.33,0A1.71,1.71,0,0,1,17.34,36,1.78,1.78,0,0,1,19,33.9c.83-.07,1.67,0,2.5,0H36.83a1.87,1.87,0,0,1,2,1.3A1.82,1.82,0,0,1,37.38,37.56Zm.06-6a3.89,3.89,0,0,1-.68.05q-8.64,0-17.28,0c-1.38,0-2.23-.8-2.16-2a1.8,1.8,0,0,1,1.8-1.72c1.35,0,2.7,0,4.05,0H36.7a3.3,3.3,0,0,1,1,.09A1.88,1.88,0,0,1,39,29.85,1.84,1.84,0,0,1,37.44,31.58Zm.41-6.09a2.87,2.87,0,0,1-1.16.17H26.21c-2.27,0-4.53,0-6.8,0a1.91,1.91,0,0,1-2.05-1.46,1.85,1.85,0,0,1,1.89-2.28c3,0,5.94,0,8.92,0s5.94,0,8.92,0a1.84,1.84,0,0,1,1.85,1.53A1.89,1.89,0,0,1,37.85,25.49Zm11,14.07A1.87,1.87,0,0,1,47,37.73a1.91,1.91,0,0,1,1.9-1.9,1.88,1.88,0,0,1,1.84,1.88A1.84,1.84,0,0,1,48.85,39.56Zm5.14,0a1.83,1.83,0,0,1-1.82-1.87A1.85,1.85,0,0,1,54,35.83a1.9,1.9,0,0,1,1.87,1.92A1.86,1.86,0,0,1,54,39.56ZM62.58,25.9a2.34,2.34,0,0,1-.33.8c-1.32,2.33-2.65,4.65-4,7a2.15,2.15,0,0,1-2,1.19c-2.73,0-5.45,0-8.18,0A1.92,1.92,0,0,1,46,32.73c0-1.39,0-2.79,0-4.18h0c0-1.38,0-2.75,0-4.12,0-.56-.12-.74-.71-.72a1.83,1.83,0,0,1-2.11-1.65,1.76,1.76,0,0,1,1.58-2,15.72,15.72,0,0,1,3.36,0,1.76,1.76,0,0,1,1.6,1.77,10.44,10.44,0,0,1,0,1.37c0,.43.13.52.53.51H60.61A1.86,1.86,0,0,1,62.58,25.9Z"/><path class="cls-1" d="M71.23,46.79H8.75l-.75,0v5.75c.13.08.09.22.11.33A5.59,5.59,0,0,0,9.93,56a5.94,5.94,0,0,0,4.14,1.42H31.48c.44,0,.62.08.61.57,0,1.85,0,3.7,0,5.56,0,.49-.15.57-.6.56-1.45,0-2.91,0-4.37,0a1.89,1.89,0,1,0,0,3.75H52.86A1.92,1.92,0,0,0,54.92,66a1.9,1.9,0,0,0-2.07-1.85c-1.5,0-3,0-4.49,0-.43,0-.52-.13-.51-.52,0-1.85,0-3.71,0-5.56,0-.5.15-.61.63-.61q6.64,0,13.29,0c1.71,0,3.41.07,5.12-.05a5.57,5.57,0,0,0,5-4.68c.22-1.74,0-3.5.11-5.24C72,46.88,71.77,46.79,71.23,46.79ZM42.61,50.67a1.8,1.8,0,0,1-1.7,1.61c-.31,0-.63,0-.94,0s-.62,0-.93,0a1.81,1.81,0,0,1-1.73-1.66,1.77,1.77,0,0,1,1.35-2,6,6,0,0,1,2.6,0A1.77,1.77,0,0,1,42.61,50.67Z"/></svg>