<svg id="Layer_1" data-name="Layer 1" xmlns="http://www.w3.org/2000/svg" viewBox="0 0 80 80"><defs><style>.cls-1{fill:#fff;}</style></defs><title>Icons</title><path class="cls-1" d="M48.34,62.14H31.69A3.66,3.66,0,0,0,28,65.79v3.95A2.26,2.26,0,0,0,30.3,72H49.7A2.26,2.26,0,0,0,52,69.74V65.79A3.62,3.62,0,0,0,48.34,62.14ZM38.18,43.73A1.84,1.84,0,1,0,40,41.88,1.84,1.84,0,0,0,38.18,43.73Z"/><path class="cls-1" d="M40.87,24a.11.11,0,0,0-.2.06v16.6a3.17,3.17,0,1,1-1.34,0V24a.11.11,0,0,0-.2-.06L25,45.87a3.68,3.68,0,0,0,.88,4.88,17.44,17.44,0,0,1,6.92,10H47.22a17.44,17.44,0,0,1,6.92-10A3.64,3.64,0,0,0,55,45.87Z"/><path class="cls-1" d="M67.51,35.88A28,28,0,0,0,48.39,14l14.19,0a4.73,4.73,0,1,0,0-1.34l-17.23,0V10.72A2.71,2.71,0,0,0,42.62,8H37.37a2.73,2.73,0,0,0-2.73,2.72v1.89H17.4a4.69,4.69,0,1,0,0,1.34H31.66A28,28,0,0,0,12.47,35.88a4.79,4.79,0,1,0,1.34.13A26.66,26.66,0,0,1,34.66,14.55V16a2.73,2.73,0,0,0,2.72,2.73h5.24A2.73,2.73,0,0,0,45.34,16V14.54A26.65,26.65,0,0,1,66.19,36a4.76,4.76,0,1,0,1.32-.11Z"/></svg>