<svg id="Layer_1" data-name="Layer 1" xmlns="http://www.w3.org/2000/svg" viewBox="0 0 80 80"><defs><style>.cls-1{fill:#fff;}</style></defs><title>Icons</title><path class="cls-1" d="M56.74,10a18.26,18.26,0,0,0-10.51,3.18,9.92,9.92,0,0,0-4.56,8.12A9.87,9.87,0,0,0,45.84,29a17.61,17.61,0,0,0,7.92,3.18L50.2,37.57c-.4.79.59,2,1.38,1.58a40.39,40.39,0,0,0,11.7-7.93.19.19,0,0,0,.2-.19C68.23,29.24,72,25.67,72,21.11A9.91,9.91,0,0,0,67.44,13a21,21,0,0,0-10.7-3ZM61.69,17a1.54,1.54,0,0,1,1.39.6,2.21,2.21,0,0,1,.59,1.58v.2H62.49v-.4a.86.86,0,0,0-.2-.59c-.2-.2-.2-.2-.6-.2a.71.71,0,0,0-.59.2.72.72,0,0,0-.2.59,1.2,1.2,0,0,0,.2.8c.2.2.2.39.39.59l.6.6.59.59a1,1,0,0,1,.4.79,1.5,1.5,0,0,1,.2,1,2.24,2.24,0,0,1-.6,1.58,1.77,1.77,0,0,1-1.38.6,1.54,1.54,0,0,1-1.39-.6,2.24,2.24,0,0,1-.6-1.58v-.4H60.5v.59a2,2,0,0,0,.2.6c.2.2.2.2.6.2.19,0,.39-.2.59-.2a.73.73,0,0,0,.2-.6c0-.39,0-.59-.2-.79l-.59-.59-.6-.6-.59-.59a2.76,2.76,0,0,1-.6-.8c.2-.19.2-.59.2-1a2.22,2.22,0,0,1,.6-1.58,1.78,1.78,0,0,1,1.38-.6Zm-10.7.2h2l1.39,8.52H53l-.2-1.58H51.19L51,25.67H49.6L51,17.15Zm4,0h2a2.24,2.24,0,0,1,1.58.6,1.92,1.92,0,0,1,.6,1.58v4.16a2,2,0,0,1-2.18,2.18H55V17.15Zm1.39,1.19v5.95h.6a.72.72,0,0,0,.59-.2.73.73,0,0,0,.2-.6V19.13a.86.86,0,0,0-.2-.59c-.2-.2-.2-.2-.59-.2Zm-4.36.2-.59,4.36h1.38L52,18.54ZM38.7,29.84a.73.73,0,0,0-.59.19,3.33,3.33,0,0,0-2,4.17l-22,16a3.24,3.24,0,0,0-4-1.58,3.32,3.32,0,0,0-2,4.16l3.57,10.7a3.2,3.2,0,0,0,4,2,3.24,3.24,0,0,0,2.18-3.18h3a8,8,0,0,0,.2,2.18A7.38,7.38,0,0,0,35.53,62l9.71-.2h0a3.31,3.31,0,0,0,4,2.18,3.17,3.17,0,0,0,2-4.16L42.27,32a3.24,3.24,0,0,0-3.57-2.18ZM33.15,61.75a5,5,0,0,1-3.57,5.55,5.09,5.09,0,0,1-6.34-3.57A5.42,5.42,0,0,1,23,62l10.11-.2Z"/></svg>