<svg id="Layer_1" data-name="Layer 1" xmlns="http://www.w3.org/2000/svg" viewBox="0 0 80 80"><defs><style>.cls-1{fill:#fff;}</style></defs><title>Icons</title><rect class="cls-1" x="57.45" y="31.27" width="8.73" height="8.73" rx="1.45"/><rect class="cls-1" x="57.45" y="42.91" width="8.73" height="8.73" rx="1.45"/><rect class="cls-1" x="13.82" y="31.27" width="40.73" height="17.45" rx="1.45"/><path class="cls-1" d="M15.27,53.09H38.55a1.46,1.46,0,0,0,0-2.91H15.27a1.46,1.46,0,0,0,0,2.91Zm0,4.36H53.09a1.45,1.45,0,1,0,0-2.9H15.27a1.45,1.45,0,1,0,0,2.9Z"/><path class="cls-1" d="M70.55,16.73H9.45A1.45,1.45,0,0,0,8,18.18V61.82a1.45,1.45,0,0,0,1.45,1.45h61.1A1.45,1.45,0,0,0,72,61.82V18.18A1.45,1.45,0,0,0,70.55,16.73Zm-48,4.36h0a1.46,1.46,0,1,1-1.46,1.46A1.45,1.45,0,0,1,22.55,21.09Zm-4.37,0h0a1.46,1.46,0,1,1-1.45,1.46A1.46,1.46,0,0,1,18.18,21.09Zm-4.36,0h0a1.46,1.46,0,1,1-1.46,1.46A1.45,1.45,0,0,1,13.82,21.09ZM69.09,60.36H66.18V56a1.45,1.45,0,0,0-1.45-1.45H58.91A1.46,1.46,0,0,0,57.45,56v4.36H10.91v-32H69.09Z"/></svg>