<svg id="Layer_1" data-name="Layer 1" xmlns="http://www.w3.org/2000/svg" viewBox="0 0 80 80"><defs><style>.cls-1{fill:#fff;}</style></defs><title>Icons</title><path class="cls-1" d="M56.67,66.67h-8l-1.2-4.54H32.8l-1.33,4.54h-8a1.33,1.33,0,1,0,0,2.66h33.2A1.25,1.25,0,0,0,58,68,1.33,1.33,0,0,0,56.67,66.67Z"/><path class="cls-1" d="M65.33,10.67H14.67A6.6,6.6,0,0,0,8,17.33V52.8a6.61,6.61,0,0,0,6.67,6.67H65.33A6.61,6.61,0,0,0,72,52.8V17.33A6.6,6.6,0,0,0,65.33,10.67Zm0,38.13H14.67V17.33H65.33Z"/><path class="cls-1" d="M27.73,36l1.87.4a4.84,4.84,0,0,0,.53,1.2l-.93,1.6a1.39,1.39,0,0,0,.13,1.6L32,43.47a1.49,1.49,0,0,0,.93.4c.27,0,.54,0,.67-.14l1.6-.93c.4.13.8.4,1.2.53l.4,1.74a1.3,1.3,0,0,0,1.33,1.06H42a1.29,1.29,0,0,0,1.33-1.06l.4-1.74a4.5,4.5,0,0,0,1.2-.53l1.6.93c.27.14.4.27.67.27a1.18,1.18,0,0,0,.93-.4l2.67-2.67a1.21,1.21,0,0,0,.13-1.6L50,37.73a3.86,3.86,0,0,0,.53-1.33l1.74-.4a1.43,1.43,0,0,0,1.06-1.33V30.8a1.29,1.29,0,0,0-1.06-1.33l-1.74-.4c-.13-.4-.4-.8-.53-1.2l.93-1.6a1.21,1.21,0,0,0-.13-1.6L48.13,22a1.21,1.21,0,0,0-1.6-.13l-1.73.8c-.4-.14-.8-.4-1.2-.54l-.4-1.73a1.44,1.44,0,0,0-1.33-1.07H38a1.29,1.29,0,0,0-1.33,1.07l-.4,1.87a4.5,4.5,0,0,0-1.2.53l-1.6-.93a1.21,1.21,0,0,0-1.6.13L29.2,24.67a1.21,1.21,0,0,0-.13,1.6l.93,1.6c-.13.4-.4.8-.53,1.2l-1.74.4a1.42,1.42,0,0,0-1.06,1.33v3.87A1.3,1.3,0,0,0,27.73,36ZM40,27.73a5.07,5.07,0,1,1-5.07,5.07A5.07,5.07,0,0,1,40,27.73Z"/></svg>