<svg id="Layer_1" data-name="Layer 1" xmlns="http://www.w3.org/2000/svg" viewBox="0 0 80 80"><defs><style>.cls-1{fill:#fff;}</style></defs><title>Icons</title><path class="cls-1" d="M51.07,48.9a6.93,6.93,0,0,1,3.6-3c.49-.18.46-.34.18-.7A12.42,12.42,0,0,0,44.71,40Q32.62,40,20.53,40A12.64,12.64,0,0,0,8.47,49.23,11.35,11.35,0,0,1,8,51.12V63.87a2.55,2.55,0,0,0,2.66,1.48c7.5,0,15,0,22.49,0h.71c-.15-.29-.25-.47-.35-.65A7.21,7.21,0,0,1,34.93,56c2.25-2.1,4.55-4.16,6.87-6.18a7.15,7.15,0,0,1,8.63-.78C50.78,49.28,50.89,49.22,51.07,48.9Z"/><path class="cls-1" d="M56.55,50.66a2.08,2.08,0,0,0-1.9,1.77q-1.95,8.43-3.89,16.86a2.33,2.33,0,0,0,.08,1.52A2.76,2.76,0,0,0,52.12,72h1a2.41,2.41,0,0,0,1.56-1.84c1.29-5.65,2.6-11.28,3.9-16.93a2,2,0,0,0-.07-1.28A2,2,0,0,0,56.55,50.66Z"/><path class="cls-1" d="M32,34.66A13.33,13.33,0,1,0,18.66,21.3,13.35,13.35,0,0,0,32,34.66Z"/><path class="cls-1" d="M71.25,59.77c-.58-.54-1.18-1.06-1.76-1.59-1.6-1.43-3.19-2.87-4.79-4.29a2,2,0,0,0-2.32-.33,2,2,0,0,0-1,2.1A2.17,2.17,0,0,0,62.15,57L67,61.3a.92.92,0,0,1-.09.13l-4.73,4.26a2,2,0,0,0-.35,2.93,2,2,0,0,0,3,.07q3.24-2.88,6.46-5.81A2,2,0,0,0,71.25,59.77Z"/><path class="cls-1" d="M42.68,61c1.52-1.33,3-2.69,4.51-4a2,2,0,1,0-2.64-3c-2.18,1.94-4.34,3.9-6.51,5.85a2,2,0,0,0-.7,1.53,1.91,1.91,0,0,0,.66,1.5l6.63,6a2,2,0,0,0,3.27-.9,1.91,1.91,0,0,0-.61-2.08q-2.3-2.09-4.6-4.14C42.38,61.41,42.36,61.27,42.68,61Z"/></svg>