<svg id="Layer_1" data-name="Layer 1" xmlns="http://www.w3.org/2000/svg" viewBox="0 0 80 80"><defs><style>.cls-1{fill:#fff;}</style></defs><title>Icons</title><path class="cls-1" d="M61,27.37h7.78a1.45,1.45,0,1,0,0-2.9H61a1.45,1.45,0,0,0,0,2.9Z"/><path class="cls-1" d="M61,23.18h7.78a1.45,1.45,0,1,0,0-2.9H61a1.45,1.45,0,0,0,0,2.9Z"/><path class="cls-1" d="M61,31.56h7.78a1.45,1.45,0,1,0,0-2.9H61a1.45,1.45,0,0,0,0,2.9Z"/><path class="cls-1" d="M61,19h7.78a1.45,1.45,0,1,0,0-2.9H61A1.45,1.45,0,0,0,61,19Z"/><path class="cls-1" d="M71,34.82H57.43V12.31a4.19,4.19,0,0,0-4.18-4.18H27.39a4.17,4.17,0,0,0-4.16,4.18v18H9.45a1.45,1.45,0,0,0,0,2.9H23.23V67.7a4.17,4.17,0,0,0,4.16,4.17H53.24a4.18,4.18,0,0,0,4.18-4.17V45.18H71a1,1,0,0,0,1-1V35.77A1,1,0,0,0,71,34.82Zm-32.89-23H42.5a1,1,0,0,1,0,1.94H38.14a1,1,0,1,1,0-1.94Zm3.21,56.36H39.3a1,1,0,1,1,0-1.94h2.05a1,1,0,0,1,0,1.94Zm13.18-5.59H26.13V33.18H48.78a1.45,1.45,0,0,0,0-2.9H26.12V17.48h28.4V34.82H34.32a1,1,0,0,0-1,1v8.44a1,1,0,0,0,1,1H54.53ZM54.16,41H37.77a1,1,0,1,1,0-1.94H54.16a1,1,0,0,1,0,1.94Zm12.72,0H57.73a1,1,0,1,1,0-1.94h9.15a1,1,0,0,1,0,1.94Z"/><path class="cls-1" d="M14.53,35a4,4,0,1,0,4,4A4,4,0,0,0,14.53,35Z"/></svg>