<svg id="Layer_1" data-name="Layer 1" xmlns="http://www.w3.org/2000/svg" viewBox="0 0 80 80"><defs><style>.cls-1{fill:#fff;}</style></defs><title>Icons</title><path class="cls-1" d="M14.11,47.57a8.11,8.11,0,1,1,16.21,0c0,4.64-3.63,10.26-8.11,10.26S14.11,52.21,14.11,47.57Zm22.17,21.3a12.37,12.37,0,0,1,.15,1.8A1.34,1.34,0,0,1,35.09,72H9.33A1.34,1.34,0,0,1,8,70.67a12.21,12.21,0,0,1,.13-1.8A12,12,0,0,1,19.92,58.72h4.57A12,12,0,0,1,36.28,68.87Zm13.4-21.3a8.11,8.11,0,1,1,16.21,0c0,4.64-3.61,10.26-8.1,10.26S49.68,52.21,49.68,47.57ZM72,70.67A1.34,1.34,0,0,1,70.67,72H44.91a1.34,1.34,0,0,1-1.34-1.33,12.25,12.25,0,0,1,.15-1.8A12,12,0,0,1,55.51,58.72h4.56A12,12,0,0,1,71.85,68.87,11,11,0,0,1,72,70.67ZM44.09,11.13v2h-8.8A5.8,5.8,0,0,0,29.51,19v9.14L25.2,31.57a1.33,1.33,0,0,1-2.16-1V26.39H22.4a3.14,3.14,0,0,1-3.12-3.14V11.13A3.13,3.13,0,0,1,22.4,8H41A3.13,3.13,0,0,1,44.09,11.13Z"/><path class="cls-1" d="M53.85,15.84H35.29A3.13,3.13,0,0,0,32.17,19V31.09a3.14,3.14,0,0,0,3.12,3.14h9.34l6.42,5.18a1.39,1.39,0,0,0,1.42.18,1.37,1.37,0,0,0,.76-1.22V34.23h.62A3.15,3.15,0,0,0,57,31.09V19A3.13,3.13,0,0,0,53.85,15.84Zm-14,10.59H38.14a1.34,1.34,0,1,1,0-2.67h1.75a1.34,1.34,0,1,1,0,2.67Zm5.57,0H43.7a1.34,1.34,0,0,1,0-2.67h1.76a1.34,1.34,0,0,1,0,2.67Zm5.56,0H49.26a1.34,1.34,0,0,1,0-2.67H51a1.34,1.34,0,0,1,0,2.67Z"/></svg>