<svg id="Layer_1" data-name="Layer 1" xmlns="http://www.w3.org/2000/svg" viewBox="0 0 80 80"><defs><style>.cls-1{fill:#fff;}</style></defs><title>Icons</title><path class="cls-1" d="M62.5,72a5.09,5.09,0,0,1-1.4-1.09Q52.49,62.3,43.86,53.69c-.43-.43-.35-.56.11-.85A23.8,23.8,0,0,0,51,45.71c.24-.37.36-.42.7-.08L69.48,63.39a1.85,1.85,0,0,1,0,2.86c-1.69,1.72-3.41,3.42-5.11,5.13a3.82,3.82,0,0,1-1,.62Z"/><path class="cls-1" d="M41.77,15.09c-.84.83-1.68,1.64-2.48,2.48-.26.26-.43.11-.65,0a16.34,16.34,0,0,0-8.87-2,17,17,0,0,0-16,14.87,22.28,22.28,0,0,0-.09,2.84c.24,0,.34-.23.47-.37q7.37-7.35,14.72-14.71C30,17,30.94,17,32.09,18.14c1.86,1.86,3.72,3.7,5.56,5.58.34.35.49.31.81,0q4.82-4.86,9.68-9.68c.34-.34.37-.52,0-.86-.66-.6-1.28-1.25-1.91-1.89a1.8,1.8,0,0,1-.45-2.11A1.84,1.84,0,0,1,47.61,8H60.55a1.84,1.84,0,0,1,1.93,1.87q0,6.57,0,13.13a1.89,1.89,0,0,1-3.26,1.26c-.64-.63-1.3-1.25-1.9-1.91-.34-.38-.53-.39-.9,0Q48,30.73,39.66,39.09a2,2,0,0,1-2.24.64,2.25,2.25,0,0,1-.85-.62c-1.84-1.84-3.69-3.68-5.52-5.53-.32-.32-.49-.4-.86,0C26.48,37.3,22.75,41,19,44.79A16,16,0,0,0,23.83,48,16.93,16.93,0,0,0,46.66,37.66a1.18,1.18,0,0,1,.24-.49c1.4-1.42,2.81-2.83,4.26-4.29a20.64,20.64,0,1,1-9.39-17.79Z"/></svg>