<svg id="Layer_1" data-name="Layer 1" xmlns="http://www.w3.org/2000/svg" viewBox="0 0 80 80"><defs><style>.cls-1{fill:#fff;}</style></defs><title>Icons</title><path class="cls-1" d="M39.33,12.67a6,6,0,0,0-1,11.9v4.78h2V24.58a6,6,0,0,0-1-11.91ZM14,26a6,6,0,1,0,5,9.28l11.94,7s0,0,0,0V40L19.82,33.43A5.78,5.78,0,0,0,20,32,6,6,0,0,0,14,26Zm52,0a6,6,0,0,0-5.68,7.93l-12,6.83v1.4a6.25,6.25,0,0,1-.14,1l13.13-7.45A6,6,0,1,0,66,26ZM32.15,30a.74.74,0,0,0-.54.7v5.09A2.87,2.87,0,0,0,33,38.22V42.1A6.63,6.63,0,0,0,35.23,47a3.24,3.24,0,0,1-1.45,2.41,20.61,20.61,0,0,1-3.88,1.92,11.65,11.65,0,0,0-4.29,2.75,8.48,8.48,0,0,0-2,6v.5l.42.16c10.25,5.92,19.72,6.61,31.16,0l.42-.16v-.5a8.24,8.24,0,0,0-2-5.84,11.75,11.75,0,0,0-4.25-2.62,18,18,0,0,1-3.83-1.92A3.58,3.58,0,0,1,44,46.52a5.94,5.94,0,0,0,2.25-4.42V35.6a4.13,4.13,0,0,0-4-4.25h-8a2.24,2.24,0,0,1-1-.17c-.17-.09-.21-.1-.21-.45A.76.76,0,0,0,32.15,30Zm7.46,19.44a2,2,0,0,1,2,2A2,2,0,0,1,41,52.85s-.48.23-.27,1l1.58,8.84L39.61,64,37,62.69l1.61-8.83a.91.91,0,0,0-.29-1,1.9,1.9,0,0,1-.66-1.43A2,2,0,0,1,39.61,49.46ZM56.46,55a10.17,10.17,0,0,1,1,2.88l2.86,1.68A6.21,6.21,0,0,0,60,61.33a6,6,0,1,0,1.2-3.58ZM14,55.33a6,6,0,1,0,6,6,5.87,5.87,0,0,0-.36-2l2.13-1.2a10.84,10.84,0,0,1,.76-2.73l-3.87,2.19A6,6,0,0,0,14,55.33Z"/></svg>