<svg id="Layer_1" data-name="Layer 1" xmlns="http://www.w3.org/2000/svg" viewBox="0 0 80 80"><defs><style>.cls-1{fill:#fff;}</style></defs><title>Icons</title><path class="cls-1" d="M40,38.08H34.78c-.28,0-.45,0-.43-.39a45.15,45.15,0,0,1,1.73-11.14,13.64,13.64,0,0,1,1.76-3.84c1.44-2,2.82-2,4.24,0a17.23,17.23,0,0,1,2.37,6.06,50.75,50.75,0,0,1,1.11,8.86c0,.4-.14.42-.46.42Z"/><path class="cls-1" d="M40,41.83h5.13c.25,0,.47,0,.45.37a43.5,43.5,0,0,1-1.84,11.49,12.47,12.47,0,0,1-1.78,3.69c-1.32,1.76-2.64,1.78-3.95,0a15.94,15.94,0,0,1-2.41-5.84,48.36,48.36,0,0,1-1.22-9.28c0-.36.08-.45.43-.45C36.52,41.84,38.25,41.83,40,41.83Z"/><path class="cls-1" d="M46.15,22.24A18.88,18.88,0,0,1,58.58,37.47c.07.48,0,.62-.54.62q-4.07,0-8.13,0c-.5,0-.6-.15-.62-.61a48.25,48.25,0,0,0-1.68-11.4A24,24,0,0,0,46.15,22.24Z"/><path class="cls-1" d="M46.2,57.57a31.49,31.49,0,0,0,2.57-9.29,53.15,53.15,0,0,0,.52-5.91c0-.41.1-.56.55-.55,2.77,0,5.54,0,8.31,0,.31,0,.5,0,.45.41A18.84,18.84,0,0,1,46.42,57.57.79.79,0,0,1,46.2,57.57Z"/><path class="cls-1" d="M33.74,22.26A33.85,33.85,0,0,0,31,33.15c-.16,1.49-.24,3-.33,4.49,0,.35-.12.45-.47.44-2.79,0-5.58,0-8.37,0-.46,0-.51-.16-.45-.53a18.7,18.7,0,0,1,9-13.71A15.2,15.2,0,0,1,33.74,22.26Z"/><path class="cls-1" d="M33.76,57.67A18.93,18.93,0,0,1,21.33,42.43c-.07-.47,0-.62.55-.61,2.71,0,5.41,0,8.12,0,.5,0,.61.14.63.61a47.87,47.87,0,0,0,1.67,11.4A25.4,25.4,0,0,0,33.76,57.67Z"/><path class="cls-1" d="M16.57,19.23a8.71,8.71,0,0,0,2.67-2.7c1.05,1.07,2.08,2.08,3.07,3.13.34.36.53.39.93.05a25.62,25.62,0,0,1,14.54-5.93c.67-.06,1.33-.09,2-.1a1.88,1.88,0,1,1,.06,3.75A22.22,22.22,0,0,0,28.6,20.51a22.93,22.93,0,0,0-4.31,3.28c-1.13,1.09-2.08,1.07-3.19,0Z"/><path class="cls-1" d="M60.7,16.58a8.58,8.58,0,0,0,2.67,2.66c-1.06,1.05-2.07,2.08-3.13,3.07-.37.34-.37.53,0,.93a25.8,25.8,0,0,1,6,16.54,1.88,1.88,0,1,1-3.75,0A22.38,22.38,0,0,0,56,24.14a1.83,1.83,0,0,1-.17-2.68C57.41,19.82,59.05,18.22,60.7,16.58Z"/><path class="cls-1" d="M63.35,60.66a9,9,0,0,0-2.67,2.7c-1.06-1.07-2.11-2.09-3.11-3.15-.34-.37-.53-.31-.88,0a25.93,25.93,0,0,1-16.48,6,1.89,1.89,0,1,1,0-3.76,22.28,22.28,0,0,0,15.43-6.35c1.13-1.08,2.08-1.08,3.18,0Z"/><path class="cls-1" d="M16.57,60.67c1.07-1.07,2.08-2.1,3.12-3.09.33-.31.37-.5,0-.88a25.86,25.86,0,0,1-6.06-16.47,1.89,1.89,0,1,1,3.75-.07,22.34,22.34,0,0,0,6.38,15.48,1.94,1.94,0,0,1,0,3.14C22.37,60.2,21,61.61,19.55,63c-.26.27-.37.27-.57,0A8.34,8.34,0,0,0,16.57,60.67Z"/><circle class="cls-1" cx="12.34" cy="12.34" r="4.34"/><circle class="cls-1" cx="12.34" cy="67.66" r="4.34"/><circle class="cls-1" cx="67.66" cy="12.34" r="4.34"/><circle class="cls-1" cx="67.66" cy="67.65" r="4.34"/></svg>