<svg id="Layer_1" data-name="Layer 1" xmlns="http://www.w3.org/2000/svg" viewBox="0 0 80 80"><defs><style>.cls-1{fill:#fff;}</style></defs><title>Icons</title><path class="cls-1" d="M72,19.63a8,8,0,0,1-2.61,4.26Q62.82,30.4,56.32,37c-.42.42-.62.36-1,0Q49.18,30.76,43,24.62c-.37-.36-.37-.54,0-.9,1.53-1.48,3-3,4.51-4.5.28-.29.43-.31.72,0,1.19,1.23,2.4,2.43,3.63,3.62a1.79,1.79,0,0,0,2.23.31,1.84,1.84,0,0,0,.91-2A2.17,2.17,0,0,0,54.33,20c-1.13-1.13-2.25-2.27-3.41-3.39-.32-.31-.38-.48,0-.81.63-.57,1.24-1.18,1.81-1.81.33-.38.52-.41.9,0,2,2,4,4,6,6a2,2,0,0,0,1.84.7,1.86,1.86,0,0,0,1.14-3,5.45,5.45,0,0,0-.46-.5c-2-2-4-4-6-6-.27-.26-.3-.39,0-.67a8.36,8.36,0,0,1,2.92-2.19,5.34,5.34,0,0,1,5.66,1c2,1.81,3.9,3.8,5.8,5.76A6.28,6.28,0,0,1,72,18.25Z"/><path class="cls-1" d="M18.25,72A7.67,7.67,0,0,1,14,69.4c-1.48-1.55-3-3-4.51-4.58A5.61,5.61,0,0,1,9.74,57c1-1,1-1,2,0,1.83,1.82,3.66,3.64,5.48,5.48a2,2,0,0,0,2,.63,1.85,1.85,0,0,0,.9-3c-.28-.35-.63-.66-.95-1-1.81-1.81-3.61-3.62-5.44-5.42-.29-.29-.31-.44,0-.72q1-.94,1.95-1.95c.27-.29.43-.3.72,0,1.18,1.21,2.38,2.39,3.57,3.58a1.88,1.88,0,0,0,3.21-.92,1.89,1.89,0,0,0-.62-1.8c-1.17-1.16-2.33-2.33-3.5-3.48-.26-.26-.36-.4,0-.72,1.57-1.53,3.11-3.08,4.64-4.63.27-.27.4-.29.68,0q6.27,6.31,12.59,12.59c.31.31.24.45,0,.72Q30,63.23,23.13,70.14A6.94,6.94,0,0,1,19.62,72Z"/><path class="cls-1" d="M60.37,72c-2.21-.35-3.6-1.93-5-3.41-.92-.93-.93-.92,0-1.85Q61.26,60.8,67.2,54.85c.35-.36.55-.43.9,0a14.06,14.06,0,0,0,1.28,1.28A7.52,7.52,0,0,1,72,60.38v1.37a5.88,5.88,0,0,1-2.1,4C68.47,67.18,67,68.6,65.63,70a14.87,14.87,0,0,1-1.29,1.09,4.79,4.79,0,0,1-2.59.88Z"/><path class="cls-1" d="M17.39,30.79l5.08-5.08c.17-.18.29-.18.43,0a3.44,3.44,0,0,0,.27.27Q39.84,42.57,56.52,59.16c.47.47.43.69,0,1.12-1.49,1.43-2.94,2.9-4.38,4.37-.26.26-.41.35-.72,0L17.58,31Z"/><path class="cls-1" d="M30.6,17.6c.22,0,.32.23.45.35L40,26.81Q52.24,39.05,64.53,51.27c.36.36.46.55,0,.95-1.49,1.43-2.94,2.89-4.38,4.37-.36.38-.54.42-.94,0Q45.08,42.48,30.91,28.39c-1.72-1.71-3.42-3.42-5.15-5.1-.4-.38-.34-.56,0-.9,1.5-1.47,3-3,4.47-4.46Z"/><path class="cls-1" d="M15.12,27.51c-1.76-4.27-3.56-8.65-5.37-13l-1.56-3.8a1.88,1.88,0,0,1,2.51-2.5l16.64,7.09Z"/></svg>