<svg id="Layer_1" data-name="Layer 1" xmlns="http://www.w3.org/2000/svg" viewBox="0 0 80 80"><defs><style>.cls-1{fill:#fff;}</style></defs><title>Icons</title><path class="cls-1" d="M8.13,25.31V54.38a2.18,2.18,0,0,0,2.18,2.18H63.69a2.19,2.19,0,0,0,2.19-2.18V25.31Zm33.43,3.13h1.69a.94.94,0,1,1,0,1.87H41.56a.94.94,0,0,1,0-1.87Zm-10.31,4a.94.94,0,1,1,1.36-1.29L36,34.67A.92.92,0,0,1,36,36L32.61,39.5a.94.94,0,0,1-1.36-1.29L34,35.31Zm-8.54-3.31h0a.94.94,0,0,1,1.18.61h0l3.37,10.62a.94.94,0,1,1-1.77.62s0,0,0-.05L22.1,30.28A.93.93,0,0,1,22.71,29.11Zm-9.33,5.55,3.39-3.53a.92.92,0,0,1,1.32,0,1,1,0,0,1,0,1.33l-2.77,2.89,2.77,2.9a.94.94,0,0,1-1.36,1.29L13.38,36A1,1,0,0,1,13.38,34.66Zm.68,10h.88a.94.94,0,1,1,0,1.87h-.88a.94.94,0,0,1,0-1.87Zm24.63,6.87H14.06a.94.94,0,0,1,0-1.87H38.69a.94.94,0,1,1,0,1.87Zm0-5H19.75a.94.94,0,1,1,0-1.87H38.69a.94.94,0,1,1,0,1.87Zm22.19,2.82a2.19,2.19,0,0,1-2.19,2.18H44.94a2.19,2.19,0,0,1-2.19-2.18v-2.5a2.19,2.19,0,0,1,2.19-2.19H58.69a2.2,2.2,0,0,1,2.19,2.19Zm-.94-8.44H41.56a.94.94,0,0,1,0-1.88H59.94a.94.94,0,0,1,0,1.88Zm0-5.63H41.56a.94.94,0,0,1,0-1.87H59.94a.94.94,0,1,1,0,1.87Zm0-5H47.63a.94.94,0,1,1,0-1.87H59.94a.94.94,0,1,1,0,1.87Z"/><path class="cls-1" d="M69.81,23.44H67.63V54.38a4.1,4.1,0,0,1-1.2,2.87,4.06,4.06,0,0,1-2.87,1.19H14.25v2.19a2.17,2.17,0,0,0,.64,1.54,2.2,2.2,0,0,0,1.55.64H69.81a2.2,2.2,0,0,0,1.55-.64A2.17,2.17,0,0,0,72,60.63v-35a2.19,2.19,0,0,0-2.19-2.19Zm-4.06-4.06a2.19,2.19,0,0,0-2.19-2.19H10.19A2.19,2.19,0,0,0,8,19.38v4.06H65.75Zm-9.69,1.87H54.81a1,1,0,0,1-.66-.27.94.94,0,0,1-.27-.67.92.92,0,0,1,.93-.93h1.25a.94.94,0,0,1,.67.27,1,1,0,0,1,.27.66.92.92,0,0,1-.94.94Zm5,0H59.81a1,1,0,0,1-.66-.27.94.94,0,0,1-.27-.67.92.92,0,0,1,.93-.93h1.25a.94.94,0,0,1,.67.27,1,1,0,0,1,.27.66.92.92,0,0,1-.94.94Z"/></svg>