<?xml version="1.0" encoding="utf-8"?>
<!-- Generator: Adobe Illustrator 23.0.2, SVG Export Plug-In . SVG Version: 6.00 Build 0)  -->
<svg version="1.1" id="Layer_1" xmlns="http://www.w3.org/2000/svg" xmlns:xlink="http://www.w3.org/1999/xlink" x="0px" y="0px"
	 viewBox="0 0 80 80" style="enable-background:new 0 0 80 80;" xml:space="preserve">
<style type="text/css">
	.st0{fill:#DD0031;}
	.st1{fill:#C3002F;}
	.st2{fill:#FFFFFF;}
</style>
<g>
	<polygon class="st0" points="40,8 40,8 40,8 10.2,18.6 14.8,58 40,72 40,72 40,72 65.2,58 69.8,18.6 	"/>
	<polygon class="st1" points="40,8 40,15.1 40,15.1 40,47.5 40,47.5 40,72 40,72 65.2,58 69.8,18.6 	"/>
	<path class="st2" d="M40,15.1L21.4,56.8l0,0h6.9l0,0l3.7-9.3h15.8l3.7,9.3l0,0h6.9l0,0L40,15.1L40,15.1L40,15.1L40,15.1L40,15.1z
		 M45.4,41.7H34.6L40,28.6L45.4,41.7z"/>
</g>
</svg>
