<?xml version="1.0" encoding="utf-8"?>
<!-- Generator: Adobe Illustrator 23.0.2, SVG Export Plug-In . SVG Version: 6.00 Build 0)  -->
<svg version="1.1" id="Layer_1" xmlns="http://www.w3.org/2000/svg" xmlns:xlink="http://www.w3.org/1999/xlink" x="0px" y="0px"
	 viewBox="0 0 80 80" style="enable-background:new 0 0 80 80;" xml:space="preserve">
<style type="text/css">
	.st0{fill:#283343;}
	.st1{fill:url(#SVGID_1_);}
</style>
<g id="XMLID_1_">
	<path id="XMLID_2_" class="st0" d="M13.98,58.92c-2.1,0-3.82-1.75-3.82-3.91s1.72-3.91,3.82-3.91S17.8,52.85,17.8,55
		S16.09,58.92,13.98,58.92z M17.8,59.41c0,0.35,0.61,1.37,1.37,1.37h0.49c0.19,0,0.35-0.16,0.35-0.35V49.74l0,0
		c-0.02-0.18-0.16-0.32-0.33-0.32h-1.51c-0.18,0-0.33,0.14-0.33,0.32l0,0v0.88c-0.93-1.14-2.39-1.61-3.84-1.61c-3.31,0-6,2.68-6,6
		s2.68,6,6,6C15.44,61.02,17.02,60.46,17.8,59.41L17.8,59.41z M23.59,57.88c1,0.7,2.1,1.03,3.16,1.03c1,0,2.05-0.53,2.05-1.42
		c0-1.21-2.26-1.4-3.68-1.88c-1.42-0.49-2.65-1.49-2.65-3.1c0-2.47,2.21-3.51,4.26-3.51c1.3,0,2.65,0.44,3.53,1.05
		c0.3,0.23,0.12,0.49,0.12,0.49l-0.84,1.19c-0.09,0.14-0.28,0.25-0.49,0.11c-0.56-0.37-1.19-0.74-2.32-0.74
		c-1.4,0-2.02,0.58-2.02,1.3c0,0.86,0.98,1.14,2.14,1.42c2,0.54,4.19,1.19,4.19,3.65c0,2.17-2.03,3.53-4.3,3.53
		c-1.7,0-3.16-0.49-4.38-1.39c-0.25-0.26-0.07-0.49-0.07-0.49l0.82-1.18C23.29,57.74,23.5,57.81,23.59,57.88z M42.36,59.41
		c0,0.35,0.61,1.37,1.37,1.37h0.49c0.19,0,0.35-0.16,0.35-0.35V49.74l0,0c-0.02-0.18-0.16-0.32-0.33-0.32h-1.51
		c-0.18,0-0.33,0.14-0.33,0.32l0,0v0.88c-0.93-1.14-2.39-1.61-3.84-1.61c-3.31,0-6,2.68-6,6s2.68,6,6,6
		C39.97,61.02,41.57,60.46,42.36,59.41L42.36,59.41z M38.52,58.92c-2.1,0-3.82-1.75-3.82-3.91s1.72-3.91,3.82-3.91
		c2.1,0,3.82,1.75,3.82,3.91S40.62,58.92,38.52,58.92z M58.04,59.78v-5.52l0,0c0-3.12-1.96-5.23-5.1-5.23
		c-1.49,0-2.72,0.86-3.16,1.61v-0.02l0,0c0-0.75-0.61-1.19-1.37-1.19h-0.49c-0.19,0-0.35,0.16-0.35,0.35v9.65l0,0v1.03l0,0
		c0.02,0.18,0.16,0.32,0.33,0.32h1.51c0.02,0,0.05,0,0.07,0l0.04-0.02l0.04-0.02l0.04-0.02l0.02-0.02l0.04-0.04l0,0l0.04-0.05l0,0
		c0.04-0.05,0.05-0.12,0.07-0.18l0,0v-6.31c0-1.67,1.35-3.03,3.03-3.03c1.67,0,3.03,1.35,3.03,3.03v5.28l0,0v0.02v1.02l0,0
		c0.02,0.18,0.16,0.32,0.33,0.32h1.51c0.02,0,0.05,0,0.07,0h0.02l0.04-0.02l0.04-0.02l0.02-0.02l0.04-0.04h0.02l0.04-0.05l0,0
		c0.04-0.05,0.05-0.11,0.07-0.18l0,0l0,0L58.04,59.78L58.04,59.78z M69.79,59.41c0,0.35,0.61,1.37,1.37,1.37h0.49
		c0.19,0,0.35-0.16,0.35-0.35V49.74l0,0c-0.02-0.18-0.16-0.32-0.33-0.32h-1.53c-0.18,0-0.33,0.14-0.33,0.32l0,0v0.88
		c-0.93-1.14-2.39-1.61-3.84-1.61c-3.31,0-6,2.68-6,6s2.68,6,6,6C67.4,61.02,69,60.46,69.79,59.41L69.79,59.41z M65.97,58.92
		c-2.1,0-3.82-1.75-3.82-3.91s1.72-3.91,3.82-3.91c2.1,0,3.82,1.75,3.82,3.91C69.77,57.16,68.07,58.92,65.97,58.92z"/>
	
		<radialGradient id="SVGID_1_" cx="-209.0313" cy="291.6037" r="2.0007" gradientTransform="matrix(8.0162 0 0 -7.4094 1715.7091 2191.8396)" gradientUnits="userSpaceOnUse">
		<stop  offset="0" style="stop-color:#FFB900"/>
		<stop  offset="0.6" style="stop-color:#F95D8F"/>
		<stop  offset="0.9991" style="stop-color:#F95353"/>
		<stop  offset="1" style="stop-color:#F95353"/>
	</radialGradient>
	<path class="st1" d="M46.9,30.84c-2.91,0-5.26,2.35-5.26,5.26c0,2.91,2.35,5.26,5.26,5.26c2.91,0,5.26-2.35,5.26-5.26
		C52.16,33.2,49.81,30.84,46.9,30.84z M33.24,30.84c-2.91,0-5.26,2.35-5.26,5.26c0,2.91,2.35,5.26,5.26,5.26
		c2.91,0,5.26-2.35,5.26-5.26C38.5,33.2,36.13,30.84,33.24,30.84z M45.34,24.26c0,2.91-2.35,5.26-5.26,5.26s-5.26-2.35-5.26-5.26
		c0-2.91,2.35-5.26,5.26-5.26C42.97,19,45.34,21.35,45.34,24.26z"/>
</g>
</svg>
