<?xml version="1.0" encoding="utf-8"?>
<!-- Generator: Adobe Illustrator 23.0.2, SVG Export Plug-In . SVG Version: 6.00 Build 0)  -->
<svg version="1.1" id="Layer_1" xmlns="http://www.w3.org/2000/svg" xmlns:xlink="http://www.w3.org/1999/xlink" x="0px" y="0px"
	 viewBox="0 0 80 80" style="enable-background:new 0 0 80 80;" xml:space="preserve">
<style type="text/css">
	.st0{fill:#1D2D35;}
	.st1{fill:none;stroke:#1D2D35;stroke-width:3.41;stroke-linecap:round;stroke-linejoin:round;}
</style>
<path class="st0" d="M-472.4-671.65h101.21c56.06,0,85.17,22.99,85.17,66.15v2.15c1.65,26.14-16.07,49.56-41.67,55.07
	c30.88,2.72,53.82,29.79,51.43,60.69v1.49c0,47.13-30.92,71.94-90.29,71.94H-472.4V-671.65z M-380.62-565.98
	c28.11,0,39.19-10.09,39.19-33.07v-1.49c0-21.5-12.24-31.26-39.52-31.26h-34.56v66.15L-380.62-565.98z M-375.66-454.68
	c28.77,0,41.84-13.06,41.84-36.38v-1.49c0-23.81-13.06-35.89-44.65-35.89h-37.04v73.92L-375.66-454.68z M-261.06-466.59
	c0-43.99,40.19-60.53,97.9-60.53h21.17v-7.44c0-22.33-6.78-34.56-30.59-34.56c-15.6-1.85-29.75,9.29-31.6,24.89
	c-0.07,0.58-0.12,1.15-0.15,1.73h-49.61c3.31-44.65,38.53-64.49,84.67-64.49s78.72,18.69,78.72,69.79v122.71h-50.77v-22.66
	c-12.96,18.26-34.56,28.37-56.89,26.62C-232.28-410.53-261.06-427.06-261.06-466.59z M-141.99-480.31v-16.54h-20.18
	c-30.26,0-47.79,6.61-47.79,26.62c0,13.73,8.27,22.66,27.29,22.66C-159.69-446.91-141.99-459.48-141.99-480.31L-141.99-480.31z
	 M-68.57-473.53h48.62c2.15,16.54,10.42,26.62,33.07,26.62c20.18,0,29.6-7.44,29.6-20.51c0-13.06-11.25-18.36-38.2-22.16
	c-49.61-7.61-69.46-21.99-69.46-58.71s36.05-58.71,74.42-58.71c41.84,0,73.09,15.21,77.72,58.38H39.42
	c-2.81-15.54-11.58-22.66-29.44-22.66s-26.62,7.94-26.62,19.35s8.93,16.54,36.22,20.51c47.13,6.78,73.09,18.69,73.09,59.04
	s-29.44,61.85-79.21,61.85S-66.75-432.85-68.57-473.53L-68.57-473.53z M106.07-506.28v-2.81c-2.5-51.54,37.26-95.35,88.8-97.85
	c2.65-0.13,5.3-0.14,7.94-0.05c48.62,0,91.78,28.44,91.78,95.75v14.39H159.48c1.32,31.26,18.36,49.61,46.63,49.61
	c24.14,0,36.05-10.42,39.36-26.29h49.61c-6.12,40.68-38.53,63.34-89.96,63.34C147.41-410.53,106.07-446.08,106.07-506.28z
	 M243.82-528.93c-1.65-28.44-16.21-41.34-41.01-41.34c-23.21-0.11-42.35,18.15-43.33,41.34H243.82z M308.32-506.28v-2.81
	c-2.51-51.54,37.24-95.36,88.78-97.86c2.76-0.13,5.53-0.15,8.29-0.04c43.66,0,83.84,19.02,88.64,73.09h-49.61
	c-1.36-19.13-17.97-33.54-37.1-32.18c-0.37,0.03-0.73,0.06-1.1,0.1c-26.96,0-44.98,20.18-44.98,56.23v2.81
	c0,37.87,16.54,57.22,46.14,57.22c20.97,1.21,38.95-14.82,40.16-35.79c0.01-0.2,0.02-0.39,0.03-0.59h47.13
	c-2.81,44.65-35.22,75.57-89.96,75.57S308.32-444.76,308.32-506.28L308.32-506.28z M506.76-466.59c0-43.99,40.19-60.53,97.73-60.53
	h21.33v-7.44c0-22.33-6.95-34.56-30.59-34.56c-15.58-2.03-29.85,8.95-31.89,24.52c-0.09,0.7-0.16,1.4-0.2,2.1h-49.61
	c3.31-44.65,38.53-64.49,84.5-64.49s78.88,18.69,78.88,69.79v122.71h-50.77v-22.66c-12.96,18.26-34.56,28.37-56.89,26.62
	C536.2-410.53,506.76-427.06,506.76-466.59z M625.83-480.31v-16.54h-19.84c-30.26,0-47.96,6.61-47.96,26.62
	c0,13.73,8.43,22.66,27.45,22.66c23.32,0.66,41.01-11.91,41.01-32.74L625.83-480.31z M713.64-603.35h52.09v28.77
	c11.57-20.83,33.72-33.56,57.55-33.07c22.92-1.83,44.31,11.62,52.59,33.07c14.11-21.08,37.97-33.54,63.34-33.07
	c34.89,0,61.85,21.99,61.85,71.94v120.56H949.3v-114.11c0-24.14-10.75-34.89-29.6-34.89c-19.25-0.84-35.54,14.09-36.38,33.34
	c-0.08,1.73-0.02,3.46,0.16,5.19v111.13h-51.93v-114.77c0-24.14-11.08-34.89-29.44-34.89c-19.25-0.93-35.61,13.92-36.54,33.17
	c-0.09,1.79-0.03,3.58,0.15,5.36v111.13h-52.09V-603.35z M1036.78-603.35h52.26v29.6c12.67-21.06,35.45-33.93,60.03-33.9
	c46.14,0,82.69,34.23,82.69,96.41v2.98c0,62.18-35.22,97.07-82.69,97.07c-24.61,1.01-47.74-11.73-60.03-33.07v93.93h-52.26V-603.35z
	 M1178.17-507.93v-2.98c0-38.04-18.69-56.72-44.98-56.72s-45.97,19.02-45.97,56.72v2.98c0,37.7,18.03,56.06,46.47,56.06
	s44.48-19.18,44.48-55.4V-507.93z"/>
<path class="st1" d="M-1151.75-525.13c43.16-122.37,125.85-264.59,292.71-264.59s249.38,219.45,259.8,368.28
	c-43.82,76.07-148.83,104.68-259.8,104.68c-90.89,1.48-177.9-36.74-238.3-104.68c0,0,52.26-141.06,101.04-141.39
	c35.89,0,66.15,66.15,94.76,66.15c28.61,0,88.14-127.01,88.14-127.01"/>
<g>
	<path class="st0" d="M40.94,17.32c-8.07,0-14.04,5.33-17.75,15.84c-0.1,0.28-0.08,0.59,0.05,0.86c0.13,0.27,0.36,0.48,0.64,0.58
		c0.28,0.1,0.59,0.09,0.86-0.04c0.27-0.13,0.48-0.36,0.58-0.64c3.35-9.51,8.61-14.33,15.62-14.33c8.79,0,13.02,11.95,13.66,19.59
		c-2.83,4.45-9.76,5.11-13.68,5.11c-4.6,0.07-9.05-1.76-12.26-5.09c1.45-3.65,3.47-6.68,4.46-6.68c0.59,0,1.51,0.98,2.19,1.69
		c0.96,1.02,1.96,2.08,3.22,2.08c1.94,0,4.36-4.29,6.05-7.89c0.26-0.56,0.02-1.24-0.54-1.5c-0.27-0.13-0.58-0.14-0.86-0.04
		c-0.28,0.1-0.51,0.31-0.64,0.58c-1.69,3.61-3.49,6.24-4.06,6.58c-0.34-0.11-1.13-0.95-1.52-1.36c-1.06-1.13-2.26-2.4-3.84-2.4
		c-3.3,0.02-6.05,6.74-6.81,8.8c-0.15,0.39-0.06,0.83,0.21,1.14c3.59,4.04,8.74,6.35,14.13,6.35l0.3,0c7.75,0,13.36-2.32,15.79-6.53
		c0.11-0.2,0.17-0.42,0.15-0.64C56.28,30.84,51.42,17.32,40.94,17.32z"/>
	<path class="st0" d="M8,50.61h3.8c2.11,0,3.2,0.86,3.2,2.48v0.08c0.06,0.98-0.6,1.86-1.57,2.07c1.16,0.1,2.02,1.12,1.93,2.28v0.06
		c0,1.77-1.16,2.7-3.39,2.7H8V50.61z M11.45,54.58c1.06,0,1.47-0.38,1.47-1.24v-0.06c0-0.81-0.46-1.17-1.48-1.17h-1.3v2.48
		L11.45,54.58z M11.63,58.76c1.08,0,1.57-0.49,1.57-1.37v-0.06c0-0.89-0.49-1.35-1.68-1.35h-1.39v2.78L11.63,58.76z M15.94,58.31
		c0-1.65,1.51-2.27,3.68-2.27h0.79v-0.28c0-0.84-0.25-1.3-1.15-1.3c-0.59-0.07-1.12,0.35-1.19,0.93c0,0.02,0,0.04-0.01,0.07H16.2
		c0.12-1.68,1.45-2.42,3.18-2.42s2.96,0.7,2.96,2.62v4.61h-1.91v-0.85c-0.49,0.69-1.3,1.07-2.14,1
		C17.02,60.42,15.94,59.79,15.94,58.31z M20.41,57.8v-0.62h-0.76c-1.14,0-1.79,0.25-1.79,1c0,0.52,0.31,0.85,1.02,0.85
		C19.74,59.05,20.41,58.58,20.41,57.8L20.41,57.8z M23.17,58.05h1.83c0.08,0.62,0.39,1,1.24,1c0.76,0,1.11-0.28,1.11-0.77
		s-0.42-0.69-1.43-0.83c-1.86-0.29-2.61-0.83-2.61-2.2c0-1.38,1.35-2.2,2.79-2.2c1.57,0,2.75,0.57,2.92,2.19h-1.79
		c-0.11-0.58-0.43-0.85-1.11-0.85s-1,0.3-1,0.73c0,0.43,0.34,0.62,1.36,0.77c1.77,0.25,2.75,0.7,2.75,2.22s-1.11,2.32-2.97,2.32
		C24.38,60.42,23.23,59.58,23.17,58.05L23.17,58.05z M29.72,56.82v-0.11c-0.09-1.94,1.4-3.58,3.33-3.67c0.1,0,0.2-0.01,0.3,0
		c1.83,0,3.45,1.07,3.45,3.6v0.54h-5.07c0.05,1.17,0.69,1.86,1.75,1.86c0.91,0,1.35-0.39,1.48-0.99h1.86
		c-0.23,1.53-1.45,2.38-3.38,2.38C31.28,60.42,29.72,59.08,29.72,56.82z M34.9,55.97c-0.06-1.07-0.61-1.55-1.54-1.55
		c-0.87,0-1.59,0.68-1.63,1.55H34.9z M37.32,56.82v-0.11c-0.09-1.94,1.4-3.58,3.33-3.68c0.1-0.01,0.21-0.01,0.31,0
		c1.64,0,3.15,0.71,3.33,2.75h-1.86c-0.05-0.72-0.67-1.26-1.39-1.21c-0.01,0-0.03,0-0.04,0c-1.01,0-1.69,0.76-1.69,2.11v0.11
		c0,1.42,0.62,2.15,1.73,2.15c0.79,0.05,1.46-0.56,1.51-1.34c0-0.01,0-0.01,0-0.02h1.77c-0.11,1.68-1.32,2.84-3.38,2.84
		C38.89,60.42,37.32,59.13,37.32,56.82L37.32,56.82z M44.77,58.31c0-1.65,1.51-2.27,3.67-2.27h0.8v-0.28c0-0.84-0.26-1.3-1.15-1.3
		c-0.58-0.08-1.12,0.34-1.2,0.92c0,0.03-0.01,0.05-0.01,0.08h-1.86c0.12-1.68,1.45-2.42,3.17-2.42s2.96,0.7,2.96,2.62v4.61h-1.91
		v-0.85c-0.49,0.69-1.3,1.07-2.14,1C45.88,60.42,44.77,59.79,44.77,58.31z M49.24,57.8v-0.62H48.5c-1.14,0-1.8,0.25-1.8,1
		c0,0.52,0.32,0.85,1.03,0.85c0.88,0.02,1.54-0.45,1.54-1.23H49.24z M52.54,53.17h1.96v1.08c0.43-0.78,1.27-1.26,2.16-1.24
		c0.86-0.07,1.66,0.44,1.97,1.24c0.53-0.79,1.43-1.26,2.38-1.24c1.31,0,2.32,0.83,2.32,2.7v4.53h-1.94v-4.29
		c0-0.91-0.4-1.31-1.11-1.31c-0.72-0.03-1.33,0.53-1.37,1.25c0,0.07,0,0.13,0.01,0.19v4.17h-1.95v-4.31c0-0.91-0.42-1.31-1.11-1.31
		c-0.72-0.03-1.34,0.52-1.37,1.25c0,0.07,0,0.13,0.01,0.2v4.17h-1.96V53.17z M64.68,53.17h1.96v1.11c0.48-0.79,1.33-1.27,2.25-1.27
		c1.73,0,3.11,1.29,3.11,3.62v0.11c0,2.34-1.32,3.65-3.11,3.65c-0.92,0.04-1.79-0.44-2.25-1.24v3.53h-1.96V53.17z M69.99,56.76
		v-0.11c0-1.43-0.7-2.13-1.69-2.13s-1.73,0.71-1.73,2.13v0.11c0,1.42,0.68,2.11,1.75,2.11s1.67-0.72,1.67-2.08V56.76z"/>
</g>
</svg>
