<?xml version="1.0" encoding="utf-8"?>
<!-- Generator: Adobe Illustrator 23.0.2, SVG Export Plug-In . SVG Version: 6.00 Build 0)  -->
<svg version="1.1" id="Layer_1" xmlns="http://www.w3.org/2000/svg" xmlns:xlink="http://www.w3.org/1999/xlink" x="0px" y="0px"
	 viewBox="0 0 80 80" style="enable-background:new 0 0 80 80;" xml:space="preserve">
<style type="text/css">
	.st0{fill:#563D7C;}
	.st1{fill:#FFFFFF;}
</style>
<g>
	<path class="st0" d="M8,63.75C8,68.31,11.69,72,16.25,72h47.5c4.56,0,8.25-3.69,8.25-8.25v-47.5C72,11.69,68.31,8,63.75,8h-47.5
		C11.69,8,8,11.69,8,16.25V63.75L8,63.75z"/>
	<path class="st1" d="M34.54,36.31v-9.06h7.98c0.76,0,1.49,0.06,2.2,0.19c0.71,0.13,1.33,0.35,1.87,0.68
		c0.54,0.33,0.98,0.78,1.3,1.36c0.33,0.58,0.49,1.32,0.49,2.23c0,1.63-0.49,2.8-1.47,3.53c-0.98,0.72-2.22,1.09-3.74,1.09H34.54
		L34.54,36.31z M26.02,20.63v38.75H44.8c1.74,0,3.43-0.22,5.07-0.65s3.11-1.1,4.4-2.01c1.28-0.9,2.31-2.07,3.07-3.5
		c0.76-1.43,1.14-3.12,1.14-5.07c0-2.42-0.59-4.5-1.76-6.21c-1.18-1.72-2.96-2.92-5.35-3.61c1.74-0.83,3.05-1.9,3.94-3.2
		c0.89-1.3,1.33-2.93,1.33-4.88c0-1.81-0.3-3.33-0.9-4.56c-0.6-1.23-1.44-2.22-2.52-2.96c-1.09-0.74-2.39-1.28-3.91-1.6
		c-1.52-0.33-3.2-0.49-5.05-0.49H26.02L26.02,20.63z M34.54,52.75V42.12h9.28c1.85,0,3.33,0.42,4.45,1.28
		c1.12,0.85,1.68,2.27,1.68,4.26c0,1.01-0.17,1.85-0.52,2.5s-0.81,1.17-1.38,1.55c-0.58,0.38-1.25,0.65-2.01,0.81
		c-0.76,0.16-1.56,0.24-2.39,0.24H34.54L34.54,52.75z"/>
</g>
</svg>
