<?xml version="1.0" encoding="utf-8"?>
<!-- Generator: Adobe Illustrator 23.0.2, SVG Export Plug-In . SVG Version: 6.00 Build 0)  -->
<svg version="1.1" id="Layer_1" xmlns="http://www.w3.org/2000/svg" xmlns:xlink="http://www.w3.org/1999/xlink" x="0px" y="0px"
	 viewBox="0 0 80 80" style="enable-background:new 0 0 80 80;" xml:space="preserve">
<style type="text/css">
	.st0{fill:#36A2EB;}
	.st1{fill:#FFCE56;}
	.st2{opacity:0.8;fill:#FE6184;enable-background:new    ;}
	.st3{fill:#E7E9ED;}
</style>
<g>
	<path class="st0" d="M66.11,40.22c-8.95,0.18-7.08,5.84-13.39,7.27c-6.41,1.46-7.42-15.64-13.82-15.64
		c-6.4,0-7.82,16.61-15.84,28.01l-0.23,0.32l17.19,9.93l26.09-15.06V40.22z"/>
	<path class="st1" d="M66.11,39.71c-3-3.84-5.03-8.26-9.4-8.26c-7.73,0-5.7,12.62-14.25,12.62c-8.55,0-9.45-13.57-19.13-0.81
		c-3.09,4.07-5.57,8.6-7.52,12.89l24.21,13.98l26.09-15.06V39.71z"/>
	<path class="st2" d="M13.93,44.93c2.94-8.13,4.2-14.71,9.81-14.71c8.55,0,10.58,24.02,17.91,21.57
		c7.33-2.44,6.51-15.47,17.91-15.47c2.17,0,4.38,1.33,6.55,3.48v15.25L40.02,70.11L13.93,55.05L13.93,44.93L13.93,44.93z"/>
	<path class="st3" d="M40,72L12.28,56V24L40,8l27.72,16v32L40,72z M15.54,54.12L40,68.24l24.46-14.12V25.88L40,11.76L15.54,25.88
		V54.12z"/>
</g>
</svg>
