<?xml version="1.0" encoding="utf-8"?>
<!-- Generator: Adobe Illustrator 23.0.2, SVG Export Plug-In . SVG Version: 6.00 Build 0)  -->
<svg version="1.1" id="Layer_1" xmlns="http://www.w3.org/2000/svg" xmlns:xlink="http://www.w3.org/1999/xlink" x="0px" y="0px"
	 viewBox="0 0 80 80" style="enable-background:new 0 0 80 80;" xml:space="preserve">
<style type="text/css">
	.st0{fill:#EE4323;}
</style>
<path class="st0" d="M15.75,68.63c-1.1,0-1.42-0.64-1.42-1.6c0-0.32,0.04-0.68,0.09-1.06c0.24-1.66,0.83-2.6,2.25-2.6
	c0.96,0,1.43,0.43,1.43,1.21v0.38h0.95c0.01,0,0.01-0.35,0.01-0.43c0-1.14-0.69-2.22-2.39-2.22c-2.31,0-3.25,1.25-3.6,3.71
	c-0.05,0.33-0.08,0.64-0.08,0.97c0,1.45,0.57,2.76,2.61,2.76c1.55,0,2.47-0.75,3.01-1.68l-0.91-0.61
	C17.1,68.39,16.46,68.63,15.75,68.63L15.75,68.63z M21.99,64.06c-1.85,0-2.65,0.95-2.92,2.83c-0.03,0.22-0.05,0.44-0.05,0.66
	c0,1.22,0.57,2.19,2.15,2.19c1.85,0,2.66-0.99,2.93-2.85c0.03-0.24,0.05-0.46,0.05-0.68C24.15,64.98,23.56,64.06,21.99,64.06
	L21.99,64.06z M22.76,66.9c-0.2,1.37-0.63,1.79-1.44,1.79c-0.65,0-0.97-0.27-0.97-1.08c0-0.2,0.02-0.44,0.06-0.71
	c0.2-1.36,0.6-1.78,1.42-1.78c0.66,0,0.99,0.27,0.99,1.09C22.82,66.41,22.8,66.64,22.76,66.9L22.76,66.9z M28.79,62.41l-0.31,1.83
	c-0.02,0.16-0.01,0.11,0.05,0.26c-0.29-0.22-0.81-0.36-1.16-0.36c-1.66,0-2.59,0.75-2.88,2.85c-0.03,0.22-0.05,0.45-0.05,0.67
	c0,1.53,0.9,2.1,2.11,2.1c0.51,0,1.01,0.01,1.4-0.32l0.1,0.62H29l1.12-7.64L28.79,62.41L28.79,62.41z M27.84,68.39
	c-0.45,0.27-0.89,0.33-1.16,0.33c-0.73,0-0.93-0.38-0.93-0.99c0-0.23,0.03-0.5,0.07-0.79c0.23-1.59,0.74-1.87,1.4-1.87
	c0.43,0,0.76,0.07,1.07,0.24L27.84,68.39L27.84,68.39z M33.04,64.06c-1.83,0-2.69,0.87-2.98,2.83c-0.03,0.24-0.05,0.47-0.05,0.69
	c0,1.35,0.69,2.16,2.21,2.16c1.18,0,2.06-0.49,2.53-1.39l-1.01-0.41c-0.29,0.44-0.68,0.74-1.37,0.74c-0.74,0-1.04-0.2-1.04-0.86
	c0-0.13,0.01-0.32,0.03-0.32h3.6c0.05-0.51,0.11-0.87,0.11-1.17C35.07,65.34,34.69,64.06,33.04,64.06L33.04,64.06z M33.73,66.49
	h-2.2c0.22-0.51,0.59-1.3,1.35-1.3c0.59,0,0.88,0.34,0.88,0.93C33.76,66.22,33.75,66.49,33.73,66.49L33.73,66.49z M38.92,63.94
	l0.12-1.02h-2.82l-0.12,1.02h0.74l-0.8,5.09H35.3l-0.12,1.02H38l0.12-1.02h-0.74l0.8-5.09H38.92L38.92,63.94z M44.64,65.47L45,64.45
	h-0.97l-0.7,0.14c-0.39-0.25-0.92-0.44-1.42-0.44c-1.43,0-2.65,0.69-2.65,2.26c0,0.44,0.16,0.79,0.35,1.03
	c-0.3,0.16-0.56,0.43-0.56,0.79c0,0.16,0.06,0.32,0.18,0.47c-0.6,0.36-0.97,0.96-0.97,1.65c0,1.35,1.41,1.64,2.49,1.64
	c1.36,0,2.98-0.31,2.98-2.04c0-0.59-0.37-1.05-1.44-1.25l-1.93-0.36c-0.22-0.04-0.27-0.11-0.27-0.21c0-0.15,0.09-0.23,0.24-0.23
	l0.13,0.02c0.26,0.06,0.56,0.09,0.87,0.09c1.39,0,2.63-0.6,2.63-2.16c0-0.22-0.04-0.37-0.14-0.61c0.17,0.08,0.39,0.21,0.48,0.21
	L44.64,65.47L44.64,65.47L44.64,65.47z M41.89,69.6c0.38,0.07,0.51,0.21,0.51,0.46c0,0.81-0.87,0.91-1.5,0.91
	c-0.96,0-1.32-0.23-1.32-0.74c0-0.45,0.13-0.66,0.43-0.98L41.89,69.6z M41.48,66.99c-0.58,0-0.9-0.21-0.9-0.71
	c0-0.74,0.43-1.17,1.18-1.17c0.6,0,0.89,0.25,0.89,0.74C42.65,66.59,42.23,66.99,41.48,66.99z M48.18,64.06
	c-0.56,0-1.06,0.27-1.68,0.76l-0.09-0.37h-1.1l-0.77,5.6h1.33l0.58-4.25c0.39-0.24,0.87-0.59,1.28-0.59c0.5,0,0.68,0.24,0.68,0.7
	c0,0.11-0.01,0.44-0.03,0.56l-0.49,3.58h1.33l0.49-3.61c0.02-0.17,0.04-0.45,0.04-0.61C49.75,64.89,49.3,64.06,48.18,64.06
	L48.18,64.06z M52.27,68.65l0.01-0.14l0.58-4.06h-2.21l-0.14,1.02h0.97c-0.08,0-0.13,0.09-0.14,0.17l-0.4,2.71
	c-0.02,0.13-0.03,0.4-0.03,0.51c0,0.7,0.38,1.2,1.16,1.2h0.68l0.15-1.02h-0.43C52.32,69.03,52.27,68.77,52.27,68.65L52.27,68.65z
	 M53.13,62.41h-1.3c-0.08,0-0.08-0.29-0.09-0.19l-0.18,1.44c-0.01,0.09-0.01,0.29,0.07,0.29h1.3c0.08,0,0.08-0.35,0.09-0.44
	l0.18-1.11C53.21,62.29,53.21,62.41,53.13,62.41L53.13,62.41z M55.84,68.68c-0.33,0-0.49-0.14-0.49-0.44l0.01-0.02l0.42-2.76h1.52
	l0.46-1.02h-1.84l0.31-2.24l-1.4,0.45l-0.25,1.8h-0.81l-0.14,1.02h0.94c-0.09,0.51-0.18,0.18-0.19,0.28l-0.36,2.42
	C54,68.27,54,68.35,54,68.45c0,0.95,0.7,1.3,1.54,1.3c0.78,0,1.41-0.23,1.9-0.64l-0.62-0.76C56.51,68.55,56.3,68.68,55.84,68.68
	L55.84,68.68z M60.71,64.06c-1.83,0-2.69,0.87-2.98,2.83c-0.03,0.24-0.05,0.47-0.05,0.69c0,1.35,0.69,2.16,2.21,2.16
	c1.18,0,2.06-0.49,2.53-1.39l-1.01-0.41c-0.29,0.44-0.68,0.74-1.37,0.74c-0.74,0-1.04-0.2-1.04-0.86c0-0.13,0.01-0.32,0.03-0.32h3.6
	c0.05-0.51,0.11-0.87,0.11-1.17C62.75,65.34,62.37,64.06,60.71,64.06L60.71,64.06z M61.4,66.49h-2.2c0.22-0.51,0.59-1.3,1.35-1.3
	c0.59,0,0.88,0.34,0.88,0.93C61.43,66.22,61.42,66.49,61.4,66.49L61.4,66.49z M66.42,64.06c-0.48,0-0.93,0.27-1.38,0.7l-0.08-0.31
	h-1.1l-0.77,5.6h1.34l0.59-4.34c0.35-0.21,0.75-0.39,1.13-0.39c0.24,0,0.47-0.04,0.69-0.01l0.17-1.16
	C66.81,64.12,66.61,64.06,66.42,64.06L66.42,64.06z M32.52,58.4c-3.02-1.31-5.85-4.63-5.86-8.02c-0.01-3.7,2.34-6.85,5.26-8.91
	c-0.35,1.33-0.54,2.54,0.33,3.72c0.81,1.1,2.22,1.64,3.56,1.35c3.12-0.68,3.27-4.12,1.42-6.12c-1.83-1.98-3.6-4.22-2.9-7.09
	c0.35-1.44,1.23-2.79,2.35-3.75c-0.86,2.26,1.59,4.49,3.2,5.61c2.8,1.93,5.86,3.39,8.44,5.65c2.7,2.38,4.7,5.59,4.3,9.31
	c-0.44,4.04-3.65,6.85-7.25,8.27c7.61-1.68,15.47-7.58,15.63-16.02c0.13-6.94-4.63-12.28-10.53-15.34l-0.31-0.17
	c0.16,0.39,0.21,0.73,0.21,1.03c0.05-0.22,0.09-0.45,0.1-0.68c0,0.28-0.04,0.55-0.11,0.82l0.01-0.14c-0.09,0.37-0.24,0.72-0.44,1.04
	l0.09-0.09c-1.18,1.95-4.36,2.38-5.94,0.35c-2.53-3.25,0.05-6.76,0.41-10.2c0.45-4.31-2.25-8.5-5.61-11.01
	c1.85,2.99-0.59,6.94-2.53,9.15c-1.89,2.14-4.18,3.93-6.27,5.88c-2.24,2.09-4.39,4.29-6.23,6.75c-3.68,4.91-5.93,11.09-4.28,17.22
	C21.22,53.12,26.53,57.02,32.52,58.4L32.52,58.4z"/>
</svg>
