<?xml version="1.0" encoding="utf-8"?>
<!-- Generator: Adobe Illustrator 23.0.2, SVG Export Plug-In . SVG Version: 6.00 Build 0)  -->
<svg version="1.1" id="Layer_1" xmlns="http://www.w3.org/2000/svg" xmlns:xlink="http://www.w3.org/1999/xlink" x="0px" y="0px"
	 viewBox="0 0 80 80" style="enable-background:new 0 0 80 80;" xml:space="preserve">
<style type="text/css">
	.st0{fill:url(#SVGID_1_);}
	.st1{fill:url(#SVGID_2_);}
	.st2{fill:url(#SVGID_3_);}
	.st3{fill:url(#SVGID_4_);}
	.st4{fill:url(#SVGID_5_);}
	.st5{fill:url(#SVGID_6_);}
	.st6{fill:#4F4F4F;}
</style>
<g>
	<g transform="matrix(.118845 0 0 .118845 9.480826 15.595283)">
		
			<linearGradient id="SVGID_1_" gradientUnits="userSpaceOnUse" x1="33039.6641" y1="-30337.2598" x2="33198.2969" y2="-30504.3164" gradientTransform="matrix(0.1188 0 0 -0.1188 -3692.9412 -3633.3416)">
			<stop  offset="0" style="stop-color:#F9A03C"/>
			<stop  offset="1" style="stop-color:#F7974E"/>
		</linearGradient>
		<path class="st0" d="M388.4,134.25l0.27-3.48c0.08-1.38-83.11-80.31-83.11-80.31h-1.98c0,0,84.32,88.94,84.83,83.79H388.4z"/>
		
			<linearGradient id="SVGID_2_" gradientUnits="userSpaceOnUse" x1="31937.3027" y1="-30597.1582" x2="32085.2109" y2="-30742.1348" gradientTransform="matrix(0.1188 0 0 -0.1188 -3692.9412 -3633.3416)">
			<stop  offset="0" style="stop-color:#F9A03C"/>
			<stop  offset="1" style="stop-color:#F7974E"/>
		</linearGradient>
		<path class="st1" d="M210.91,106.87l-0.33,0.73l-0.36,0.76c-2.65,5.53,37.13,44.42,40.33,39.69l0.44-0.64l0.48-0.72
			c2.56-3.88-39.42-42.33-40.55-39.81L210.91,106.87z"/>
		
			<linearGradient id="SVGID_3_" gradientUnits="userSpaceOnUse" x1="32509.541" y1="-31025.8359" x2="32643.8359" y2="-31175.6523" gradientTransform="matrix(0.1188 0 0 -0.1188 -3692.9412 -3633.3416)">
			<stop  offset="0" style="stop-color:#F9A03C"/>
			<stop  offset="1" style="stop-color:#F7974E"/>
		</linearGradient>
		<path class="st2" d="M267.12,161.55c-0.1,0.25-0.91,1.6-1.64,2.32c-0.12,0.25,38.83,38.88,38.83,38.88h3.51
			C307.81,202.75,271.24,163.18,267.12,161.55z"/>
		
			<linearGradient id="SVGID_4_" gradientUnits="userSpaceOnUse" x1="32403.8867" y1="-30116.1777" x2="32591.6934" y2="-30350.6973" gradientTransform="matrix(0.1188 0 0 -0.1188 -3692.9412 -3633.3416)">
			<stop  offset="0" style="stop-color:#F26D58"/>
			<stop  offset="1" style="stop-color:#F9A03C"/>
		</linearGradient>
		<path class="st3" d="M388.73,130.07c-1.82,40.39-35.23,72.68-76.05,72.68h-5.52l-40.76-40.16c3.35-4.73,6.47-9.63,9.25-14.74
			h37.04c11.71,0,21.25-9.53,21.25-21.25c0-11.71-9.53-21.25-21.25-21.25h-21.92c1.67-8.83,2.58-17.93,2.58-27.24
			c0-9.46-0.93-18.69-2.66-27.66h13.61l84.18,82.96C388.58,132.3,388.66,131.18,388.73,130.07L388.73,130.07z M146.94-46.93h-22.15
			v54.9h22.15c38.68,0,70.15,31.47,70.15,70.14c0.01,10.18-2.22,20.25-6.52,29.48l40.4,39.82c13.73-20.5,21.05-44.62,21.02-69.29
			C272,9.16,215.9-46.93,146.94-46.93z"/>
		
			<linearGradient id="SVGID_5_" gradientUnits="userSpaceOnUse" x1="33162.6133" y1="-30247.4961" x2="33335.5313" y2="-30371.0742" gradientTransform="matrix(0.1188 0 0 -0.1188 -3692.9412 -3633.3416)">
			<stop  offset="0" style="stop-color:#B84E51"/>
			<stop  offset="1" style="stop-color:#F68E48"/>
		</linearGradient>
		<path class="st4" d="M312.67-46.93h-89.68c21.91,13.37,40.04,32.34,52.4,54.9h37.28c11.71,0,21.25,9.53,21.25,21.25
			s-9.53,21.24-21.25,21.24h-8.38l84.18,82.96c0.2-2.25,0.32-4.51,0.32-6.81c0-18.51-6.64-35.48-17.67-48.7
			c11.03-13.21,17.67-30.19,17.67-48.69C388.81-12.77,354.66-46.93,312.67-46.93z"/>
		
			<linearGradient id="SVGID_6_" gradientUnits="userSpaceOnUse" x1="32844.6016" y1="-31666.1035" x2="32853.5313" y2="-31784.5273" gradientTransform="matrix(0.1188 0 0 -0.1188 -3692.9412 -3633.3416)">
			<stop  offset="0" style="stop-color:#F9A03C"/>
			<stop  offset="1" style="stop-color:#F7974E"/>
		</linearGradient>
		<path class="st5" d="M307.15,202.75h-83.52c16.81-10.38,31.35-24.09,42.75-40.16L307.15,202.75z M250.98,147.4l-40.4-39.82
			c-11.16,23.99-35.48,40.67-63.64,40.67h-22.15v54.89h22.15c43.33,0,81.6-22.17,104.04-55.75V147.4z"/>
	</g>
	<g>
		<g>
			<path class="st6" d="M14.63,53.74c0,0.71-0.16,1.36-0.47,1.94c-0.32,0.58-0.73,1.03-1.24,1.35c-0.36,0.22-0.76,0.38-1.2,0.48
				c-0.44,0.1-1.02,0.15-1.74,0.15H8v-7.85h1.96c0.77,0,1.37,0.06,1.82,0.17c0.45,0.11,0.84,0.26,1.15,0.45
				c0.53,0.33,0.95,0.78,1.25,1.33C14.48,52.32,14.63,52.98,14.63,53.74L14.63,53.74z M13.54,53.73c0-0.61-0.11-1.13-0.32-1.55
				c-0.21-0.42-0.53-0.75-0.96-1c-0.32-0.17-0.65-0.3-0.99-0.36c-0.35-0.07-0.76-0.1-1.25-0.1H9.04v6.06h0.98
				c0.5,0,0.94-0.04,1.31-0.11c0.38-0.07,0.72-0.21,1.03-0.41c0.4-0.25,0.69-0.58,0.87-0.99C13.44,54.85,13.54,54.34,13.54,53.73
				L13.54,53.73z"/>
			<g>
				<path id="G_1_" class="st6" d="M20.82,57.66h-0.99v-0.63c-0.08,0.06-0.2,0.14-0.36,0.25c-0.15,0.11-0.29,0.19-0.43,0.25
					c-0.17,0.08-0.36,0.15-0.57,0.2c-0.21,0.06-0.47,0.08-0.75,0.08c-0.53,0-0.98-0.18-1.35-0.53c-0.37-0.35-0.55-0.8-0.55-1.34
					c0-0.45,0.1-0.81,0.29-1.08c0.19-0.28,0.47-0.5,0.83-0.65c0.36-0.16,0.79-0.27,1.29-0.32c0.5-0.06,1.04-0.1,1.62-0.13v-0.15
					c0-0.23-0.04-0.41-0.12-0.56c-0.08-0.15-0.19-0.26-0.34-0.35c-0.14-0.08-0.31-0.14-0.51-0.16c-0.2-0.03-0.4-0.04-0.62-0.04
					c-0.26,0-0.55,0.03-0.87,0.1c-0.32,0.07-0.65,0.16-0.99,0.29h-0.06V51.9c0.19-0.05,0.47-0.11,0.84-0.17
					c0.37-0.06,0.73-0.1,1.08-0.1c0.41,0,0.77,0.03,1.08,0.1c0.32,0.07,0.59,0.18,0.8,0.35c0.22,0.16,0.39,0.37,0.51,0.63
					s0.17,0.57,0.17,0.95L20.82,57.66z M19.84,56.21v-1.63c-0.3,0.02-0.66,0.04-1.07,0.08c-0.41,0.03-0.73,0.09-0.97,0.15
					c-0.28,0.08-0.52,0.21-0.69,0.38c-0.17,0.17-0.26,0.4-0.26,0.7c0,0.34,0.1,0.59,0.31,0.76c0.2,0.17,0.51,0.25,0.93,0.25
					c0.35,0,0.67-0.07,0.95-0.2c0.29-0.14,0.56-0.3,0.8-0.48V56.21z"/>
			</g>
			<path class="st6" d="M25.8,57.61c-0.19,0.05-0.39,0.09-0.61,0.12c-0.22,0.03-0.42,0.05-0.6,0.05c-0.6,0-1.06-0.16-1.37-0.49
				c-0.31-0.32-0.47-0.84-0.47-1.55v-3.13h-0.67v-0.83h0.67v-1.69h0.99v1.69h2.04v0.83h-2.04v2.68c0,0.32,0.01,0.56,0.02,0.72
				c0.01,0.17,0.06,0.33,0.15,0.49c0.08,0.14,0.18,0.24,0.32,0.31c0.14,0.06,0.34,0.1,0.62,0.1c0.16,0,0.33-0.02,0.51-0.07
				c0.17-0.05,0.3-0.09,0.38-0.12h0.05L25.8,57.61z"/>
			<g>
				<path class="st6" d="M31.57,57.66h-0.99v-0.63c-0.08,0.06-0.2,0.14-0.36,0.25c-0.15,0.11-0.29,0.19-0.43,0.25
					c-0.17,0.08-0.36,0.15-0.57,0.2c-0.21,0.06-0.47,0.08-0.75,0.08c-0.53,0-0.98-0.18-1.35-0.53c-0.37-0.35-0.55-0.8-0.55-1.34
					c0-0.45,0.1-0.81,0.29-1.08c0.19-0.28,0.47-0.5,0.83-0.65c0.36-0.16,0.79-0.27,1.29-0.32c0.5-0.06,1.04-0.1,1.62-0.13v-0.15
					c0-0.23-0.04-0.41-0.12-0.56c-0.08-0.15-0.19-0.26-0.34-0.35c-0.14-0.08-0.31-0.14-0.51-0.16c-0.2-0.03-0.4-0.04-0.62-0.04
					c-0.26,0-0.55,0.03-0.87,0.1c-0.32,0.07-0.65,0.16-0.99,0.29H27.1V51.9c0.19-0.05,0.47-0.11,0.84-0.17
					c0.37-0.06,0.73-0.1,1.08-0.1c0.41,0,0.77,0.03,1.08,0.1c0.32,0.07,0.59,0.18,0.8,0.35c0.22,0.16,0.39,0.37,0.51,0.63
					c0.12,0.26,0.17,0.57,0.17,0.95L31.57,57.66z M30.59,56.21v-1.63c-0.3,0.02-0.66,0.04-1.07,0.08c-0.41,0.03-0.73,0.09-0.97,0.15
					c-0.28,0.08-0.52,0.21-0.69,0.38c-0.17,0.17-0.26,0.4-0.26,0.7c0,0.34,0.1,0.59,0.31,0.76c0.2,0.17,0.51,0.25,0.93,0.25
					c0.35,0,0.67-0.07,0.95-0.2c0.29-0.14,0.56-0.3,0.8-0.48V56.21z"/>
			</g>
			<path class="st6" d="M36.61,54.7h-3.29v-0.95h3.29L36.61,54.7z M45.11,53.74c0,0.71-0.16,1.36-0.47,1.94
				c-0.32,0.58-0.73,1.03-1.24,1.35c-0.36,0.22-0.76,0.38-1.2,0.48c-0.44,0.1-1.02,0.15-1.74,0.15h-1.98v-7.85h1.96
				c0.77,0,1.37,0.06,1.82,0.17c0.45,0.11,0.84,0.26,1.15,0.45c0.53,0.33,0.95,0.78,1.25,1.33C44.96,52.32,45.11,52.98,45.11,53.74
				L45.11,53.74z M44.02,53.73c0-0.61-0.11-1.13-0.32-1.55c-0.21-0.42-0.53-0.75-0.96-1c-0.32-0.17-0.65-0.3-0.99-0.36
				c-0.35-0.07-0.76-0.1-1.25-0.1h-0.98v6.06h0.98c0.5,0,0.94-0.04,1.31-0.11c0.38-0.07,0.72-0.21,1.03-0.41
				c0.4-0.25,0.69-0.58,0.87-0.99C43.92,54.85,44.02,54.34,44.02,53.73L44.02,53.73z M50.4,52.85h-0.05
				c-0.15-0.03-0.29-0.06-0.43-0.07c-0.14-0.02-0.3-0.03-0.48-0.03c-0.31,0-0.6,0.07-0.88,0.21c-0.28,0.13-0.56,0.31-0.83,0.52v4.18
				h-0.99v-5.89h0.99v0.87c0.39-0.32,0.74-0.54,1.04-0.67c0.3-0.13,0.61-0.2,0.92-0.2c0.17,0,0.3,0.01,0.37,0.02
				c0.08,0.01,0.19,0.02,0.35,0.05L50.4,52.85z M52.41,50.79h-1.11v-1.03h1.12L52.41,50.79z M52.35,57.66h-0.99v-5.89h0.99V57.66z
				 M59.41,51.77l-2.38,5.89h-1l-2.37-5.89h1.07l1.82,4.68l1.81-4.68H59.41z"/>
			<g>
				<path id="H_1_" class="st6" d="M65.55,54.82h-4.34c0,0.36,0.05,0.68,0.16,0.95c0.11,0.27,0.26,0.49,0.45,0.66
					c0.18,0.17,0.4,0.29,0.65,0.38c0.25,0.08,0.53,0.13,0.83,0.13c0.4,0,0.8-0.08,1.21-0.24c0.41-0.16,0.7-0.32,0.87-0.47h0.05v1.08
					c-0.33,0.14-0.67,0.26-1.02,0.35c-0.35,0.1-0.71,0.14-1.1,0.14c-0.98,0-1.74-0.26-2.29-0.79c-0.56-0.53-0.83-1.29-0.83-2.27
					c0-0.95,0.26-1.72,0.78-2.29c0.53-0.56,1.22-0.83,2.08-0.83c0.8,0,1.41,0.23,1.83,0.7c0.43,0.46,0.65,1.12,0.65,1.98
					L65.55,54.82z M64.59,54.06c0-0.52-0.13-0.92-0.39-1.21c-0.26-0.28-0.65-0.43-1.17-0.43c-0.53,0-0.95,0.16-1.27,0.47
					c-0.31,0.31-0.49,0.7-0.53,1.17H64.59z"/>
			</g>
			<g>
				<path id="I_1_" class="st6" d="M71.97,57.66h-0.99v-3.34c0-0.27-0.02-0.52-0.05-0.76c-0.03-0.24-0.09-0.42-0.17-0.56
					c-0.08-0.15-0.21-0.26-0.38-0.33c-0.17-0.07-0.38-0.11-0.64-0.11c-0.27,0-0.55,0.07-0.83,0.2c-0.29,0.13-0.57,0.3-0.83,0.51v4.4
					h-0.99v-5.89h0.99v0.65c0.32-0.26,0.64-0.46,0.96-0.6c0.33-0.14,0.67-0.21,1.02-0.21c0.64,0,1.12,0.19,1.46,0.57
					c0.33,0.38,0.5,0.93,0.5,1.65L71.97,57.66z"/>
			</g>
		</g>
		<g>
			<path class="st6" d="M16.89,65.91c0,0.71-0.16,1.36-0.47,1.94c-0.32,0.58-0.73,1.03-1.24,1.35c-0.36,0.22-0.76,0.38-1.2,0.48
				c-0.44,0.1-1.02,0.15-1.74,0.15h-1.98v-7.85h1.96c0.77,0,1.37,0.06,1.82,0.17c0.45,0.11,0.84,0.26,1.15,0.45
				c0.53,0.33,0.95,0.78,1.25,1.33C16.74,64.49,16.89,65.15,16.89,65.91L16.89,65.91z M15.79,65.9c0-0.61-0.11-1.13-0.32-1.55
				c-0.21-0.42-0.53-0.75-0.96-1c-0.32-0.17-0.65-0.3-0.99-0.36c-0.35-0.07-0.76-0.1-1.25-0.1H11.3v6.06h0.98
				c0.5,0,0.94-0.04,1.31-0.11c0.38-0.07,0.72-0.21,1.03-0.41c0.4-0.25,0.69-0.58,0.87-0.99C15.7,67.02,15.79,66.51,15.79,65.9
				L15.79,65.9z M23.52,66.88c0,0.96-0.25,1.72-0.74,2.27c-0.49,0.56-1.15,0.83-1.98,0.83c-0.83,0-1.49-0.28-1.99-0.83
				c-0.49-0.56-0.73-1.31-0.73-2.27c0-0.96,0.24-1.72,0.73-2.27c0.49-0.56,1.16-0.84,1.99-0.84c0.83,0,1.48,0.28,1.98,0.84
				C23.27,65.16,23.52,65.92,23.52,66.88L23.52,66.88z M22.5,66.88c0-0.76-0.15-1.33-0.45-1.7c-0.3-0.37-0.71-0.56-1.24-0.56
				c-0.54,0-0.96,0.19-1.25,0.56c-0.29,0.37-0.44,0.93-0.44,1.7c0,0.74,0.15,1.29,0.45,1.67c0.3,0.38,0.72,0.57,1.25,0.57
				c0.53,0,0.94-0.19,1.24-0.56c0.3-0.38,0.45-0.94,0.45-1.69V66.88z M29.41,69.45c-0.33,0.16-0.65,0.28-0.95,0.36
				c-0.29,0.08-0.61,0.12-0.95,0.12c-0.43,0-0.82-0.06-1.17-0.18c-0.35-0.13-0.66-0.32-0.91-0.57c-0.26-0.25-0.46-0.57-0.6-0.96
				c-0.14-0.39-0.21-0.84-0.21-1.35c0-0.95,0.26-1.71,0.79-2.27c0.53-0.56,1.23-0.83,2.1-0.83c0.34,0,0.67,0.05,0.99,0.14
				c0.32,0.1,0.62,0.21,0.89,0.35v1.1h-0.05c-0.3-0.24-0.62-0.42-0.94-0.54c-0.32-0.13-0.63-0.19-0.94-0.19
				c-0.56,0-1.01,0.19-1.33,0.57c-0.32,0.38-0.49,0.93-0.49,1.66c0,0.71,0.16,1.26,0.47,1.64c0.32,0.38,0.77,0.57,1.34,0.57
				c0.2,0,0.4-0.03,0.61-0.08c0.21-0.05,0.39-0.12,0.56-0.21c0.14-0.07,0.28-0.15,0.41-0.23c0.13-0.08,0.23-0.16,0.3-0.21h0.05
				L29.41,69.45z M35.57,69.81h-0.99v-0.65c-0.33,0.26-0.65,0.46-0.96,0.61c-0.31,0.14-0.64,0.21-1.01,0.21
				c-0.62,0-1.1-0.19-1.43-0.56c-0.34-0.38-0.52-0.93-0.52-1.67v-3.82h0.99v3.34c0,0.3,0.01,0.56,0.04,0.77
				c0.03,0.21,0.09,0.39,0.18,0.54c0.1,0.15,0.21,0.27,0.36,0.34c0.16,0.07,0.38,0.1,0.66,0.1c0.26,0,0.54-0.07,0.84-0.2
				c0.31-0.13,0.59-0.3,0.85-0.51v-4.4h0.99L35.57,69.81z M46.11,69.82h-0.99v-3.34c0-0.25-0.01-0.5-0.04-0.73
				c-0.02-0.24-0.07-0.42-0.14-0.56c-0.08-0.16-0.2-0.27-0.35-0.34c-0.16-0.08-0.38-0.12-0.65-0.12c-0.28,0-0.56,0.07-0.83,0.21
				c-0.28,0.14-0.56,0.31-0.83,0.53c0.01,0.08,0.02,0.18,0.03,0.29c0.01,0.11,0.01,0.21,0.01,0.32v3.77h-0.99v-3.34
				c0-0.26-0.01-0.51-0.04-0.74c-0.02-0.24-0.07-0.42-0.14-0.56c-0.08-0.16-0.2-0.27-0.35-0.34c-0.16-0.08-0.38-0.12-0.65-0.12
				c-0.27,0-0.54,0.07-0.82,0.2c-0.27,0.13-0.54,0.3-0.81,0.51v4.4h-0.99v-5.89h0.99v0.65c0.32-0.26,0.63-0.46,0.92-0.6
				c0.32-0.14,0.65-0.21,0.99-0.21c0.4,0,0.74,0.08,1.02,0.25c0.28,0.17,0.49,0.4,0.63,0.7c0.4-0.34,0.77-0.58,1.1-0.72
				c0.33-0.16,0.68-0.24,1.06-0.24c0.65,0,1.12,0.2,1.43,0.59c0.32,0.4,0.48,0.94,0.48,1.64L46.11,69.82z"/>
			<g>
				<path class="st6" d="M52.94,66.98h-4.34c0,0.36,0.05,0.68,0.16,0.95c0.11,0.27,0.26,0.49,0.45,0.66
					c0.18,0.17,0.4,0.29,0.65,0.38c0.25,0.08,0.53,0.13,0.83,0.13c0.4,0,0.8-0.08,1.21-0.24c0.41-0.16,0.7-0.32,0.87-0.47h0.05v1.08
					c-0.33,0.14-0.67,0.26-1.02,0.35c-0.35,0.1-0.71,0.14-1.1,0.14c-0.98,0-1.74-0.26-2.29-0.79c-0.56-0.53-0.83-1.29-0.83-2.27
					c0-0.95,0.26-1.72,0.78-2.29c0.53-0.56,1.22-0.83,2.08-0.83c0.8,0,1.41,0.23,1.83,0.7c0.43,0.46,0.65,1.12,0.65,1.98
					L52.94,66.98z M51.99,66.22c0-0.52-0.13-0.92-0.39-1.21c-0.26-0.28-0.65-0.43-1.17-0.43c-0.53,0-0.95,0.16-1.27,0.47
					c-0.31,0.31-0.49,0.7-0.53,1.17H51.99z"/>
			</g>
			<g>
				<path class="st6" d="M59.37,69.82h-0.99v-3.34c0-0.27-0.02-0.52-0.05-0.76c-0.03-0.24-0.09-0.42-0.17-0.56
					c-0.08-0.15-0.21-0.26-0.38-0.33c-0.17-0.07-0.38-0.11-0.64-0.11c-0.27,0-0.55,0.07-0.83,0.2c-0.29,0.13-0.57,0.3-0.83,0.51v4.4
					h-0.99v-5.89h0.99v0.65c0.32-0.26,0.64-0.46,0.96-0.6c0.33-0.14,0.67-0.21,1.02-0.21c0.64,0,1.12,0.19,1.46,0.57
					c0.33,0.38,0.5,0.93,0.5,1.65L59.37,69.82z"/>
			</g>
			<path class="st6" d="M64.33,69.77c-0.19,0.05-0.39,0.09-0.61,0.12c-0.22,0.03-0.42,0.05-0.6,0.05c-0.6,0-1.06-0.16-1.37-0.49
				c-0.31-0.32-0.47-0.84-0.47-1.55v-3.13h-0.67v-0.83h0.67v-1.69h0.99v1.69h2.04v0.83h-2.04v2.68c0,0.32,0.01,0.56,0.02,0.72
				c0.01,0.17,0.06,0.33,0.15,0.49c0.08,0.14,0.18,0.24,0.32,0.31c0.14,0.06,0.34,0.1,0.62,0.1c0.16,0,0.33-0.02,0.51-0.07
				c0.17-0.05,0.3-0.09,0.38-0.12h0.05L64.33,69.77z M69.74,68.12c0,0.54-0.22,0.97-0.67,1.31c-0.44,0.34-1.05,0.52-1.82,0.52
				c-0.44,0-0.84-0.05-1.2-0.15c-0.36-0.11-0.67-0.22-0.91-0.34v-1.11h0.05c0.31,0.24,0.66,0.42,1.04,0.56
				c0.38,0.14,0.75,0.21,1.1,0.21c0.44,0,0.78-0.07,1.02-0.21c0.24-0.14,0.36-0.36,0.36-0.66c0-0.23-0.07-0.41-0.2-0.53
				c-0.13-0.12-0.39-0.22-0.77-0.31c-0.14-0.03-0.33-0.07-0.55-0.11c-0.23-0.04-0.43-0.09-0.62-0.14c-0.52-0.14-0.88-0.34-1.1-0.6
				c-0.21-0.27-0.32-0.59-0.32-0.98c0-0.24,0.05-0.47,0.15-0.68c0.1-0.21,0.25-0.41,0.46-0.57c0.2-0.17,0.45-0.3,0.75-0.39
				c0.31-0.1,0.65-0.15,1.02-0.15c0.35,0,0.71,0.04,1.07,0.12c0.36,0.08,0.66,0.19,0.9,0.31v1.06h-0.05
				c-0.25-0.19-0.56-0.34-0.92-0.47c-0.36-0.13-0.72-0.19-1.07-0.19c-0.36,0-0.67,0.07-0.92,0.21c-0.25,0.14-0.37,0.34-0.37,0.62
				c0,0.24,0.08,0.43,0.24,0.55c0.15,0.12,0.39,0.22,0.72,0.3c0.18,0.04,0.39,0.08,0.61,0.13c0.23,0.04,0.42,0.08,0.57,0.12
				c0.46,0.11,0.82,0.29,1.07,0.54c0.25,0.26,0.37,0.6,0.37,1.03L69.74,68.12z"/>
		</g>
	</g>
</g>
</svg>
