<?xml version="1.0" encoding="utf-8"?>
<!-- Generator: Adobe Illustrator 23.0.2, SVG Export Plug-In . SVG Version: 6.00 Build 0)  -->
<svg version="1.1" id="Layer_1" xmlns="http://www.w3.org/2000/svg" xmlns:xlink="http://www.w3.org/1999/xlink" x="0px" y="0px"
	 viewBox="0 0 80 80" style="enable-background:new 0 0 80 80;" xml:space="preserve">
<style type="text/css">
	.st0{fill:#DE4C36;}
</style>
<path class="st0" d="M70.79,37.15L42.85,9.21c-1.61-1.61-4.22-1.61-5.83,0l-5.8,5.8l7.36,7.36c1.71-0.58,3.67-0.19,5.04,1.17
	c1.37,1.37,1.76,3.35,1.16,5.07l7.09,7.09c1.72-0.59,3.7-0.21,5.07,1.16c1.92,1.92,1.92,5.02,0,6.94c-1.92,1.92-5.02,1.92-6.94,0
	c-1.44-1.44-1.8-3.56-1.07-5.33l-6.62-6.62l0,17.41c0.48,0.24,0.92,0.55,1.3,0.93c1.92,1.92,1.92,5.02,0,6.94
	c-1.92,1.92-5.02,1.92-6.94,0c-1.92-1.92-1.92-5.02,0-6.94c0.46-0.46,1-0.82,1.61-1.07V31.55c-0.6-0.25-1.15-0.61-1.61-1.07
	c-1.45-1.45-1.8-3.58-1.06-5.36l-7.26-7.26L9.21,37.02c-1.61,1.61-1.61,4.22,0,5.83l27.94,27.94c1.61,1.61,4.22,1.61,5.83,0
	l27.81-27.81C72.4,41.37,72.4,38.76,70.79,37.15"/>
</svg>
