<?xml version="1.0" encoding="utf-8"?>
<!-- Generator: Adobe Illustrator 23.0.2, SVG Export Plug-In . SVG Version: 6.00 Build 0)  -->
<svg version="1.1" id="Layer_1" xmlns="http://www.w3.org/2000/svg" xmlns:xlink="http://www.w3.org/1999/xlink" x="0px" y="0px"
	 viewBox="0 0 80 80" style="enable-background:new 0 0 80 80;" xml:space="preserve">
<style type="text/css">
	.st0{fill:#131B28;}
	.st1{fill:#0868AC;}
</style>
<g>
	<g>
		<path class="st0" d="M35.37,38.42l-0.41,1.45L35.37,38.42L35.37,38.42z M37.47,41.57l-0.45,0L37.47,41.57z M37.36,43.74l-2.7,0.01
			L37.36,43.74z M37.93,41.58l-0.45,0L37.93,41.58z M37.6,43.56l0.47-1.8L37.6,43.56z M47.56,35.29l-0.88,4.13L47.56,35.29z
			 M45.3,35.28l-0.67,3.08L45.3,35.28z"/>
		<path class="st0" d="M47.4,35.1h-1.88c-0.1,0-0.21,0.08-0.23,0.19l-1.33,6.17c-0.02,0.1-0.13,0.18-0.23,0.18h-1.33
			c-1.31,0-1.16-0.91-0.89-2.15l0.01-0.04l0.16-0.85l0.07-0.35l0.61-2.96c0.02-0.1-0.05-0.19-0.15-0.19h-1.93
			c-0.11,0-0.2,0.08-0.23,0.19l-0.88,4.12c-0.48,2.18-0.35,4.26,2.24,4.32h4.15c0.1,0,0.21-0.08,0.23-0.19l1.76-8.25
			C47.57,35.18,47.5,35.09,47.4,35.1L47.4,35.1z M54.89,41.65c0.1,0,0.17,0.08,0.15,0.19l-0.18,0.89 M54.68,43.62l0.18-0.89
			L54.68,43.62z M54.46,43.81L51,43.83L54.46,43.81z"/>
		<path class="st0" d="M49.87,40.51c0-0.1,0.11-0.27,0.21-0.27l-0.23,0C49.74,41.3,49.87,40.51,49.87,40.51z M51.16,43.82h-0.04
			H51.16z M54.89,41.66c0.1,0,0.17,0.08,0.15,0.19l-0.21,1.03 M52.05,43.82L52.05,43.82L52.05,43.82z M51.59,43.82h-0.03H51.59z
			 M51.45,43.82h-0.04H51.45z M51.31,43.82h-0.04H51.31z M51.56,43.82h-0.11H51.56z"/>
		<path class="st0" d="M52.04,43.82l-0.45,0L52.04,43.82z M54.45,43.81l-2.4,0.01L54.45,43.81z M54.67,43.62l0.15-0.75L54.67,43.62
			L54.67,43.62z M51.4,43.82h-0.1H51.4z M51.12,43.83h-0.13H51.12z M51.26,43.82h-0.11H51.26z M23.81,40.53l0.29-1.29l-0.33,1.48
			l-0.04,0.19L23.81,40.53L23.81,40.53z M27.3,35.07h-2.06c-0.11,0-0.2,0.08-0.23,0.18l-0.39,1.72c-0.02,0.08,0.02,0.16,0.1,0.18
			c0.02,0,0.03,0.01,0.05,0.01h2.08c0.1,0,0.21-0.08,0.23-0.18l0.38-1.72C27.47,35.15,27.4,35.07,27.3,35.07L27.3,35.07z
			 M26.85,37.94l-0.61,2.8L26.85,37.94z M20.86,47.21l1.7,0.01C22.06,47.22,21.23,47.21,20.86,47.21L20.86,47.21z"/>
		<path class="st0" d="M24.39,37.94l-0.29,1.29C24.1,39.24,24.39,37.94,24.39,37.94z M26.7,37.76h-2.07c-0.11,0-0.2,0.08-0.23,0.18
			l-0.58,2.58l-0.08,0.37l-0.56,2.64c-0.03,0.12-0.06,0.24-0.1,0.36c0,0-0.39,1.15-1.04,1.14l-0.65-0.01c-0.11,0-0.2,0.08-0.23,0.18
			l-0.43,1.81c-0.02,0.08,0.02,0.16,0.1,0.18c0.02,0,0.03,0.01,0.05,0.01l1.7,0.01c1.63,0,2.49-0.9,3.04-3.5l1.25-5.77
			c0.02-0.1-0.05-0.18-0.15-0.18L26.7,37.76z M56.22,43.72c-0.1,0-0.17-0.08-0.15-0.19l1.56-7.32 M58.39,43.53l0.63-3.12
			L58.39,43.53z"/>
		<path class="st0" d="M56.09,43.63c-0.01-0.05-0.01-0.18,0.02-0.28l0.74-3.48l-0.78,3.66c-0.02,0.1,0.05,0.19,0.15,0.19h0.19
			C56.3,43.72,56.1,43.68,56.09,43.63z M58.26,43.68c-0.06,0.02-0.19,0.04-0.29,0.04h0.19c0.11,0,0.2-0.08,0.23-0.19l0.04-0.19
			C58.41,43.45,58.32,43.65,58.26,43.68L58.26,43.68z M58.7,41.97l0.28-1.38L58.7,41.97z M64.87,36.7l0.09,0.36
			c0.02,0.1-0.04,0.18-0.15,0.18"/>
		<path class="st0" d="M58.43,43.35l0.28-1.38L58.43,43.35z M64.78,36.34l0.08,0.36L64.78,36.34z M58.98,40.59l0.08-0.37l0.3-1.4
			l-0.34,1.58L58.98,40.59L58.98,40.59z M57.65,36.09l-0.06,0.31l-0.74,3.48l0.78-3.66L57.65,36.09L57.65,36.09z"/>
		<path class="st0" d="M64.96,37.06l-0.09-0.36l-0.13-0.56c-0.17-0.66-0.66-1.03-1.74-1.03l-4.95,0c-0.11,0-0.2,0.08-0.23,0.19
			l-0.08,0.36l-0.11,0.55l-1.52,7.14c-0.02,0.1-0.03,0.22-0.02,0.28c0.01,0.06,0.21,0.09,0.32,0.09h1.57c0.1,0,0.24-0.02,0.29-0.04
			c0.06-0.02,0.14-0.22,0.17-0.33l0.59-2.94l0.64-2.98c0.02-0.1,0.12-0.18,0.23-0.18l4.93,0C64.92,37.24,64.99,37.15,64.96,37.06
			L64.96,37.06z M71.3,33.84l-0.38,0h-1.58c-0.12,0.01-0.22,0.06-0.3,0.16l-3.49,5.11c-0.06,0.09-0.13,0.07-0.15-0.03l-0.26-1.13
			c-0.03-0.11-0.12-0.18-0.23-0.18h-2.24c-0.1,0-0.17,0.08-0.14,0.18l1,3.52c0.03,0.1,0.03,0.26,0.01,0.37l-0.44,1.7
			c-0.03,0.07,0.01,0.15,0.09,0.18c0.02,0.01,0.04,0.01,0.06,0.01h2.22c0.1,0,0.21-0.08,0.24-0.18l0.44-1.7
			c0.03-0.12,0.09-0.23,0.16-0.34l5.66-7.51c0.06-0.08,0.03-0.15-0.08-0.15L71.3,33.84L71.3,33.84z M53.49,38.25
			c-0.01,0.11-0.12,0.19-0.22,0.19h-2.84c-0.1,0-0.15-0.07-0.13-0.15l0-0.01l0.01-0.05c0.28-0.72,0.82-1.2,1.86-1.2
			C53.34,37.04,53.57,37.61,53.49,38.25L53.49,38.25z M52.66,34.97c-3.65,0-4.51,2.21-5,4.45c-0.49,2.28-0.44,4.41,3.33,4.41h0.6
			l0.46,0l2.4-0.01c0.11-0.01,0.2-0.08,0.23-0.19l0.36-1.78c0.02-0.1-0.05-0.19-0.15-0.19H51.5c-1.35,0-1.75-0.36-1.6-1.41h5.42
			c0.09,0,0.17-0.06,0.2-0.14c0.01-0.01,0.01-0.03,0.01-0.05C56.34,37.02,56.11,34.97,52.66,34.97L52.66,34.97z M35.42,38.24
			l-0.05,0.18c0,0-0.41,1.45-0.41,1.45l-0.41,1.45c-0.03,0.1-0.13,0.18-0.24,0.18h-2.17c-1.64,0-2.04-1.29-1.64-3.18
			c0.4-1.94,1.19-3.15,2.8-3.27C35.51,34.89,35.95,36.44,35.42,38.24L35.42,38.24z M36.9,41.39c0,0,1.02-2.48,1.25-3.92
			c0.32-1.92-0.64-4.7-4.36-4.7c-3.69,0-5.29,2.66-5.9,5.55c-0.61,2.91,0.19,5.46,3.86,5.44l5.6-0.02c0.11-0.01,0.2-0.08,0.24-0.18
			l0.47-1.8c0.03-0.07-0.01-0.15-0.09-0.18c-0.02-0.01-0.04-0.01-0.06-0.01h-0.9c-0.09,0-0.14-0.06-0.13-0.13
			c0-0.01,0.01-0.03,0.01-0.04V41.39z"/>
		<path class="st0" d="M55.17,39.73c0,0.07-0.06,0.12-0.12,0.12s-0.12-0.06-0.12-0.12c0-0.07,0.06-0.12,0.12-0.12
			S55.17,39.66,55.17,39.73z"/>
	</g>
	<path class="st1" d="M8.73,36.51c-1.02,1.46-0.89,3.37-0.11,4.93l0.06,0.11l0.04,0.07l0.02,0.04l0.04,0.07l0.07,0.13l0.04,0.07
		l0.09,0.13l0.04,0.06l0.12,0.18l0.02,0.03l0.11,0.15l0.04,0.05l0.11,0.13l0.04,0.05l0.15,0.17l0.01,0.01l0.15,0.16l0.05,0.05
		l0.12,0.11l0.05,0.05l0.16,0.15l0.03,0.03l0.15,0.12l0.06,0.05l0.12,0.1l0.07,0.06l0.14,0.1l0.06,0.05l0.13,0.09l0.06,0.04
		l0.21,0.13l0.06,0.03l0.16,0.09l0.09,0.04l0.11,0.06l0.03,0.01l0.05,0.02l0.18,0.08l0.04,0.02l0.21,0.09l0.05,0.02l0.2,0.07
		l0.02,0.01l0.22,0.07l0.05,0.02l0.22,0.06c4.93,0.9,6.36-2.96,6.36-2.96c-1.2,1.57-3.33,1.98-5.36,1.52
		c-0.08-0.02-0.15-0.04-0.23-0.06l-0.06-0.02c-0.07-0.02-0.14-0.05-0.22-0.07l-0.03-0.01c-0.06-0.02-0.13-0.05-0.19-0.07l-0.05-0.02
		c-0.07-0.03-0.14-0.06-0.21-0.09l-0.04-0.02l-0.17-0.08l-0.06-0.02c-0.05-0.02-0.09-0.05-0.13-0.07l-0.09-0.05
		c-0.05-0.03-0.11-0.06-0.16-0.09l-0.05-0.03c-0.07-0.04-0.14-0.08-0.21-0.13c-0.02-0.01-0.04-0.03-0.06-0.04l-0.15-0.1
		c-0.02-0.01-0.03-0.02-0.05-0.03l-0.14-0.1l-0.06-0.05l-0.13-0.1l-0.06-0.05l-0.16-0.13c-0.01-0.01-0.01-0.01-0.02-0.01
		c-0.06-0.06-0.11-0.1-0.17-0.15l-0.05-0.05l-0.12-0.12l-0.05-0.05c-0.05-0.05-0.1-0.1-0.15-0.16c-0.05-0.06-0.11-0.12-0.16-0.18
		l-0.04-0.05l-0.11-0.13l-0.04-0.06l-0.12-0.17c-1.12-1.53-1.52-3.64-0.62-5.37 M11.9,35.27c-0.74,1.05-0.7,2.48-0.12,3.6
		c0.1,0.19,0.21,0.37,0.33,0.54c0.11,0.16,0.23,0.35,0.38,0.47l0.17,0.17l0.04,0.04l0.17,0.16l0.01,0.01l0.2,0.16l0.04,0.03
		l0.21,0.15l0.14,0.1l0.15,0.09l0.02,0.01l0.14,0.08l0.05,0.02l0.09,0.05l0.01,0.01l0.2,0.09l0.04,0.02l0.17,0.07l0.07,0.03
		l0.15,0.05l0.07,0.02c0.07,0.02,0.14,0.06,0.21,0.06c3.8,0.63,4.68-2.3,4.68-2.3c-0.79,1.14-2.32,1.68-3.96,1.26l-0.22-0.06
		l-0.06-0.02l-0.15-0.05l-0.07-0.03l-0.16-0.07l-0.04-0.02l-0.2-0.09l-0.1-0.06l-0.06-0.03l-0.16-0.09l-0.15-0.09l-0.14-0.1
		l-0.21-0.15l-0.05-0.04c-0.72-0.57-1.28-1.33-1.55-2.21c-0.28-0.91-0.22-1.93,0.27-2.76 M14.55,34.35
		c-0.43,0.64-0.48,1.43-0.18,2.14c0.32,0.75,0.97,1.33,1.73,1.61l0.09,0.03l0.04,0.01l0.14,0.04c2.1,0.41,2.66-1.08,2.82-1.3
		c-0.5,0.72-1.33,0.89-2.37,0.64c-0.08-0.02-0.17-0.05-0.25-0.08c-0.1-0.04-0.2-0.08-0.3-0.12c-0.18-0.09-0.36-0.19-0.52-0.32
		c-0.92-0.7-1.5-2.03-0.89-3.12"/>
</g>
</svg>
