<?xml version="1.0" encoding="utf-8"?>
<!-- Generator: Adobe Illustrator 23.0.2, SVG Export Plug-In . SVG Version: 6.00 Build 0)  -->
<svg version="1.1"
	 id="svg3430" xmlns:cc="http://creativecommons.org/ns#" xmlns:dc="http://purl.org/dc/elements/1.1/" xmlns:rdf="http://www.w3.org/1999/02/22-rdf-syntax-ns#" xmlns:svg="http://www.w3.org/2000/svg"
	 xmlns="http://www.w3.org/2000/svg" xmlns:xlink="http://www.w3.org/1999/xlink" x="0px" y="0px" viewBox="0 0 80 80"
	 style="enable-background:new 0 0 80 80;" xml:space="preserve">
<style type="text/css">
	.st0{clip-path:url(#SVGID_2_);}
	.st1{fill:url(#path3462_1_);}
	.st2{clip-path:url(#SVGID_4_);}
	.st3{fill:#777BB3;}
	.st4{clip-path:url(#SVGID_6_);}
	.st5{fill:#FFFFFF;}
</style>
<title  id="title3510">Official PHP Logo</title>
<g id="g3438" transform="matrix(1.25,0,0,-1.25,-4.4,394.29875)">
	<g id="g3440">
		<g>
			<defs>
				<path id="SVGID_1_" d="M10.94,283.44c0-7.14,11-12.93,24.58-12.93l0,0c13.57,0,24.58,5.79,24.58,12.93l0,0
					c0,7.14-11,12.93-24.58,12.93l0,0C21.95,296.37,10.94,290.58,10.94,283.44"/>
			</defs>
			<clipPath id="SVGID_2_">
				<use xlink:href="#SVGID_1_"  style="overflow:visible;"/>
			</clipPath>
			<g id="g3442" class="st0">
				<g id="g3448">
					<g id="g3450">
						
							<radialGradient id="path3462_1_" cx="-394.8161" cy="-148.721" r="0.0889" gradientTransform="matrix(453.8224 0 0 -453.8224 179202.0781 -67201.0859)" gradientUnits="userSpaceOnUse">
							<stop  offset="0" style="stop-color:#AEB2D5"/>
							<stop  offset="0.3" style="stop-color:#AEB2D5"/>
							<stop  offset="0.75" style="stop-color:#484C89"/>
							<stop  offset="1" style="stop-color:#484C89"/>
						</radialGradient>
						<path id="path3462" class="st1" d="M10.94,283.44c0-7.14,11-12.93,24.58-12.93l0,0c13.57,0,24.58,5.79,24.58,12.93l0,0
							c0,7.14-11,12.93-24.58,12.93l0,0C21.95,296.37,10.94,290.58,10.94,283.44"/>
					</g>
				</g>
			</g>
		</g>
	</g>
	<g id="g3464">
		<g>
			<defs>
				<rect id="SVGID_3_" x="3.52" y="265.44" width="64" height="36"/>
			</defs>
			<clipPath id="SVGID_4_">
				<use xlink:href="#SVGID_3_"  style="overflow:visible;"/>
			</clipPath>
			<g id="g3466" class="st2">
				<g id="g3472" transform="translate(288,27.3594)">
					<path id="path3474" class="st3" d="M-252.48,244.11c13.04,0,23.62,5.36,23.62,11.97c0,6.61-10.57,11.97-23.62,11.97
						c-13.04,0-23.62-5.36-23.62-11.97C-276.1,249.47-265.52,244.11-252.48,244.11"/>
				</g>
			</g>
		</g>
	</g>
	<g id="g3476">
		<g>
			<defs>
				<rect id="SVGID_5_" x="3.52" y="265.44" width="64" height="36"/>
			</defs>
			<clipPath id="SVGID_6_">
				<use xlink:href="#SVGID_5_"  style="overflow:visible;"/>
			</clipPath>
			<g id="g3478" class="st4">
				<g id="g3484" transform="translate(161.7344,145.3066)">
					<path id="path3486" d="M-137.44,136.65c1.07,0,1.87,0.2,2.38,0.59c0.5,0.39,0.85,1.05,1.03,1.99c0.17,0.87,0.1,1.48-0.19,1.81
						c-0.3,0.34-0.96,0.51-1.95,0.51h-1.71l-0.95-4.89H-137.44z M-143.04,130.63c-0.08,0-0.16,0.04-0.21,0.1
						c-0.05,0.06-0.07,0.14-0.06,0.22l2.52,12.96c0.02,0.13,0.13,0.22,0.26,0.22h5.43c1.71,0,2.98-0.46,3.77-1.38
						c0.8-0.92,1.05-2.2,0.74-3.82c-0.13-0.66-0.35-1.27-0.65-1.81c-0.31-0.55-0.71-1.05-1.2-1.5c-0.59-0.55-1.25-0.95-1.98-1.18
						c-0.71-0.23-1.62-0.35-2.72-0.35h-2.2l-0.63-3.23c-0.02-0.13-0.13-0.22-0.26-0.22H-143.04z"/>
				</g>
				<g id="g3488" transform="translate(159.2236,197.3071)">
					<path id="path3490" class="st5" d="M-135.15,89.27h1.49c1.19,0,1.61-0.26,1.75-0.42c0.23-0.26,0.28-0.81,0.13-1.58
						c-0.17-0.87-0.48-1.48-0.93-1.83c-0.46-0.35-1.2-0.53-2.22-0.53H-136L-135.15,89.27z M-132.59,92.38h-5.43
						c-0.26,0-0.47-0.18-0.52-0.43l-2.52-12.96c-0.03-0.16,0.01-0.32,0.11-0.44c0.1-0.12,0.25-0.19,0.41-0.19h2.82
						c0.26,0,0.47,0.18,0.52,0.43l0.59,3.01h1.98c1.12,0,2.06,0.12,2.8,0.36c0.76,0.25,1.46,0.66,2.08,1.24
						c0.51,0.47,0.93,1,1.25,1.57c0.32,0.57,0.55,1.21,0.68,1.89c0.33,1.7,0.06,3.06-0.8,4.04
						C-129.46,91.89-130.8,92.38-132.59,92.38 M-136.64,84.38h1.72c1.14,0,1.99,0.21,2.54,0.64c0.56,0.43,0.93,1.14,1.13,2.15
						c0.19,0.96,0.1,1.64-0.26,2.04c-0.36,0.4-1.07,0.59-2.14,0.59h-1.93L-136.64,84.38 M-132.59,91.85c1.63,0,2.82-0.43,3.57-1.29
						c0.75-0.86,0.97-2.05,0.68-3.59c-0.12-0.63-0.33-1.21-0.62-1.74c-0.29-0.52-0.68-1-1.15-1.44c-0.56-0.53-1.19-0.9-1.88-1.13
						c-0.69-0.22-1.57-0.34-2.63-0.34h-2.42l-0.67-3.44h-2.82l2.52,12.96H-132.59"/>
				</g>
				<g id="g3492" transform="translate(311.583,116.3066)">
					<path id="path3494" d="M-273.97,163.07c-0.08,0-0.16,0.04-0.21,0.1c-0.05,0.06-0.07,0.14-0.06,0.22l1.11,5.73
						c0.11,0.55,0.08,0.94-0.07,1.1c-0.09,0.1-0.38,0.27-1.21,0.27h-2.02l-1.4-7.21c-0.02-0.13-0.13-0.22-0.26-0.22h-2.8
						c-0.08,0-0.16,0.04-0.21,0.1c-0.05,0.06-0.07,0.14-0.06,0.22l2.52,12.96c0.02,0.13,0.13,0.22,0.26,0.22h2.8
						c0.08,0,0.16-0.04,0.21-0.1c0.05-0.06,0.07-0.14,0.06-0.22l-0.61-3.13h2.17c1.65,0,2.78-0.29,3.43-0.89
						c0.67-0.61,0.87-1.59,0.62-2.91l-1.17-6.03c-0.02-0.13-0.13-0.22-0.26-0.22H-273.97z"/>
				</g>
				<g id="g3496" transform="translate(293.6611,271.0571)">
					<path id="path3498" class="st5" d="M-257.64,22.08h-2.8c-0.26,0-0.47-0.18-0.52-0.43l-2.52-12.96
						c-0.03-0.16,0.01-0.32,0.11-0.44c0.1-0.12,0.25-0.19,0.41-0.19h2.8c0.26,0,0.47,0.18,0.52,0.43l1.36,6.99h1.8
						c0.83,0,1.01-0.18,1.01-0.19c0.05-0.05,0.12-0.31,0.01-0.87l-1.11-5.73c-0.03-0.16,0.01-0.32,0.11-0.44
						c0.1-0.12,0.25-0.19,0.41-0.19h2.84c0.26,0,0.47,0.18,0.52,0.43l1.17,6.03c0.27,1.42,0.04,2.48-0.7,3.16
						c-0.7,0.65-1.89,0.96-3.61,0.96h-1.85l0.55,2.81c0.03,0.16-0.01,0.32-0.11,0.44C-257.33,22-257.48,22.08-257.64,22.08
						 M-257.64,21.54l-0.67-3.44h2.49c1.57,0,2.65-0.27,3.25-0.82c0.6-0.55,0.77-1.43,0.54-2.66l-1.17-6.03h-2.84l1.11,5.73
						c0.13,0.65,0.08,1.1-0.14,1.33c-0.22,0.24-0.69,0.36-1.4,0.36h-2.24l-1.44-7.42h-2.8l2.52,12.96H-257.64"/>
				</g>
				<g id="g3500" transform="translate(409.5498,145.3066)">
					<path id="path3502" d="M-363.23,136.65c1.07,0,1.87,0.2,2.38,0.59c0.5,0.39,0.85,1.05,1.03,1.99c0.17,0.87,0.1,1.48-0.19,1.81
						c-0.3,0.34-0.96,0.51-1.95,0.51h-1.71l-0.95-4.89H-363.23z M-368.83,130.63c-0.08,0-0.16,0.04-0.21,0.1
						c-0.05,0.06-0.07,0.14-0.06,0.22l2.52,12.96c0.02,0.13,0.13,0.22,0.26,0.22h5.43c1.71,0,2.98-0.46,3.77-1.38
						c0.8-0.92,1.05-2.2,0.74-3.82c-0.13-0.66-0.35-1.27-0.65-1.81c-0.31-0.55-0.71-1.05-1.2-1.5c-0.59-0.55-1.25-0.95-1.98-1.18
						c-0.71-0.23-1.62-0.35-2.72-0.35h-2.2l-0.63-3.23c-0.02-0.13-0.13-0.22-0.26-0.22H-368.83z"/>
				</g>
				<g id="g3504" transform="translate(407.0391,197.3071)">
					<path id="path3506" class="st5" d="M-360.94,89.27h1.49c1.19,0,1.61-0.26,1.75-0.42c0.23-0.26,0.28-0.81,0.13-1.58
						c-0.17-0.87-0.48-1.48-0.93-1.83c-0.46-0.35-1.2-0.53-2.22-0.53h-1.07L-360.94,89.27z M-358.38,92.38h-5.43
						c-0.26,0-0.47-0.18-0.52-0.43l-2.52-12.96c-0.03-0.16,0.01-0.32,0.11-0.44c0.1-0.12,0.25-0.19,0.41-0.19h2.82
						c0.26,0,0.47,0.18,0.52,0.43l0.59,3.01h1.98c1.12,0,2.06,0.12,2.8,0.36c0.76,0.25,1.46,0.66,2.08,1.24
						c0.51,0.47,0.93,1,1.25,1.57c0.32,0.57,0.55,1.21,0.68,1.89c0.33,1.7,0.06,3.06-0.8,4.04
						C-355.25,91.89-356.59,92.38-358.38,92.38 M-362.43,84.38h1.72c1.14,0,1.99,0.21,2.54,0.64c0.56,0.43,0.93,1.14,1.13,2.15
						c0.19,0.96,0.1,1.64-0.26,2.04c-0.36,0.4-1.07,0.59-2.14,0.59h-1.93L-362.43,84.38 M-358.38,91.85c1.63,0,2.82-0.43,3.57-1.29
						c0.75-0.86,0.97-2.05,0.68-3.59c-0.12-0.63-0.33-1.21-0.62-1.74c-0.29-0.52-0.68-1-1.15-1.44c-0.56-0.53-1.19-0.9-1.88-1.13
						c-0.69-0.22-1.57-0.34-2.63-0.34h-2.42l-0.67-3.44h-2.82l2.52,12.96H-358.38"/>
				</g>
			</g>
		</g>
	</g>
</g>
</svg>
