<?xml version="1.0" encoding="utf-8"?>
<!-- Generator: Adobe Illustrator 23.0.2, SVG Export Plug-In . SVG Version: 6.00 Build 0)  -->
<svg version="1.1" id="Layer_1" xmlns="http://www.w3.org/2000/svg" xmlns:xlink="http://www.w3.org/1999/xlink" x="0px" y="0px"
	 viewBox="0 0 80 80" style="enable-background:new 0 0 80 80;" xml:space="preserve">
<style type="text/css">
	.st0{fill:#61DAFB;}
</style>
<g>
	<path class="st0" d="M72,40.01c0-4.24-5.31-8.26-13.45-10.75c1.88-8.3,1.04-14.9-2.64-17.01c-0.85-0.5-1.84-0.73-2.92-0.73v2.91
		c0.6,0,1.08,0.12,1.49,0.34c1.77,1.02,2.54,4.89,1.94,9.88c-0.14,1.23-0.38,2.52-0.67,3.84c-2.56-0.63-5.35-1.11-8.28-1.42
		c-1.76-2.41-3.59-4.6-5.43-6.52c4.25-3.95,8.24-6.12,10.96-6.12V11.5c-3.59,0-8.28,2.56-13.03,6.99
		c-4.75-4.41-9.44-6.94-13.03-6.94v2.91c2.7,0,6.71,2.15,10.96,6.08c-1.83,1.92-3.65,4.1-5.39,6.51c-2.95,0.31-5.74,0.8-8.3,1.43
		c-0.3-1.3-0.52-2.57-0.68-3.78c-0.61-4.98,0.14-8.86,1.9-9.89c0.39-0.23,0.9-0.34,1.5-0.34v-2.91c-1.1,0-2.09,0.23-2.95,0.73
		c-3.67,2.11-4.49,8.7-2.6,16.97C13.28,31.77,8,35.78,8,40.01c0,4.24,5.31,8.26,13.45,10.75c-1.88,8.3-1.04,14.9,2.64,17.01
		c0.85,0.5,1.84,0.73,2.94,0.73c3.59,0,8.28-2.56,13.03-6.99c4.75,4.41,9.44,6.94,13.03,6.94c1.1,0,2.09-0.23,2.95-0.73
		c3.67-2.11,4.49-8.7,2.6-16.97C66.72,48.25,72,44.23,72,40.01L72,40.01z M55.02,31.31c-0.48,1.68-1.08,3.42-1.76,5.15
		c-0.53-1.04-1.1-2.09-1.71-3.13c-0.6-1.04-1.24-2.06-1.88-3.05C51.52,30.55,53.31,30.89,55.02,31.31L55.02,31.31z M49.04,45.2
		c-1.02,1.76-2.06,3.43-3.14,4.98c-1.94,0.17-3.91,0.26-5.9,0.26c-1.97,0-3.94-0.09-5.87-0.25c-1.08-1.55-2.14-3.21-3.16-4.96
		c-0.99-1.71-1.89-3.44-2.71-5.19c0.81-1.75,1.72-3.5,2.7-5.21c1.02-1.76,2.06-3.43,3.14-4.98c1.94-0.17,3.91-0.26,5.9-0.26
		c1.97,0,3.94,0.09,5.87,0.25c1.08,1.55,2.14,3.21,3.16,4.96c0.99,1.71,1.89,3.44,2.71,5.19C50.92,41.74,50.02,43.49,49.04,45.2
		L49.04,45.2z M53.25,43.5c0.7,1.75,1.3,3.5,1.8,5.19c-1.71,0.42-3.51,0.77-5.37,1.04c0.64-1,1.28-2.04,1.88-3.09
		C52.16,45.6,52.72,44.55,53.25,43.5L53.25,43.5z M40.03,57.42c-1.21-1.25-2.43-2.65-3.63-4.17c1.17,0.05,2.37,0.09,3.59,0.09
		c1.23,0,2.44-0.03,3.63-0.09C42.44,54.77,41.23,56.17,40.03,57.42z M30.32,49.74c-1.85-0.27-3.64-0.61-5.35-1.03
		c0.48-1.68,1.08-3.42,1.76-5.15c0.53,1.04,1.1,2.09,1.71,3.13C29.06,47.73,29.68,48.75,30.32,49.74z M39.96,22.59
		c1.21,1.25,2.43,2.65,3.63,4.17c-1.17-0.05-2.37-0.09-3.59-0.09c-1.23,0-2.44,0.03-3.63,0.09C37.55,25.24,38.76,23.84,39.96,22.59z
		 M30.31,30.27c-0.64,1-1.28,2.04-1.88,3.09c-0.6,1.04-1.16,2.09-1.7,3.13c-0.7-1.75-1.3-3.5-1.8-5.19
		C26.64,30.9,28.44,30.55,30.31,30.27L30.31,30.27z M18.5,46.61c-4.62-1.97-7.61-4.55-7.61-6.6c0-2.05,2.99-4.64,7.61-6.6
		c1.12-0.48,2.35-0.91,3.61-1.32c0.74,2.56,1.72,5.22,2.94,7.94c-1.2,2.71-2.17,5.36-2.9,7.91C20.86,47.53,19.64,47.09,18.5,46.61
		L18.5,46.61z M25.52,65.25c-1.77-1.02-2.54-4.89-1.94-9.88c0.14-1.23,0.38-2.52,0.67-3.84c2.56,0.63,5.35,1.11,8.28,1.42
		c1.76,2.41,3.59,4.6,5.43,6.52c-4.25,3.95-8.24,6.12-10.96,6.12C26.41,65.59,25.91,65.47,25.52,65.25L25.52,65.25z M56.46,55.31
		c0.61,4.98-0.14,8.86-1.9,9.89c-0.39,0.23-0.9,0.34-1.5,0.34c-2.7,0-6.71-2.15-10.96-6.08c1.83-1.92,3.65-4.1,5.39-6.51
		c2.95-0.31,5.74-0.8,8.3-1.43C56.08,52.83,56.32,54.1,56.46,55.31z M61.49,46.61c-1.12,0.48-2.35,0.91-3.61,1.32
		c-0.74-2.56-1.72-5.22-2.94-7.94c1.2-2.71,2.17-5.36,2.9-7.91c1.29,0.4,2.52,0.85,3.67,1.33c4.62,1.97,7.61,4.55,7.61,6.6
		C69.09,42.05,66.1,44.65,61.49,46.61L61.49,46.61z"/>
	<circle class="st0" cx="39.99" cy="40.01" r="5.96"/>
</g>
</svg>
