<?xml version="1.0" encoding="utf-8"?>
<!-- Generator: Adobe Illustrator 23.0.2, SVG Export Plug-In . SVG Version: 6.00 Build 0)  -->
<svg version="1.1" id="Layer_1" xmlns="http://www.w3.org/2000/svg" xmlns:xlink="http://www.w3.org/1999/xlink" x="0px" y="0px"
	 viewBox="0 0 80 80" style="enable-background:new 0 0 80 80;" xml:space="preserve">
<style type="text/css">
	.st0{fill:#0079BF;}
	.st1{fill:url(#SVGID_1_);}
	.st2{fill:#FFFFFF;}
</style>
<g>
	<path class="st0" d="M59.6,44.5c-1,0.4-1.8,1.8-2.9,2.6c-0.1,0-0.1,0.1-0.2,0.1c-0.1,0-0.2-0.1-0.2-0.5c0-1.5,0.5-2.2,0.9-3.3
		c1.4-3.7,3.9-6.9,6.1-10.4c0.2-0.3,0.3-0.6,0.3-0.9c0-0.3-0.1-0.5-0.2-0.8c-0.1-0.2-0.5-0.4-1-0.4c-0.3,0-0.5,0-0.8,0
		c-1.1,0-1.4,1.7-1.7,2.1c-1.8,3.1-3.9,6.9-5,9.6c-0.2,0.6-0.5,1.2-0.7,1.8c-1.1,0.3-1.8,1.8-3.1,2.6c-0.1,0-0.1,0.1-0.2,0.1
		c-0.1,0-0.2-0.1-0.2-0.5c0-1.5,0.5-2.2,0.9-3.3c1.4-3.7,3.9-6.9,6.1-10.4c0.2-0.3,0.3-0.6,0.3-0.9c0-0.3-0.1-0.5-0.2-0.8
		c-0.1-0.2-0.5-0.4-1-0.4c-0.3,0-0.5,0-0.8,0c-1.1,0-1.4,1.7-1.7,2.1c-1.8,3.1-3.9,6.9-5,9.6c-0.1,0.2-0.2,0.4-0.3,0.7
		c0,0-0.1,0-0.1,0c-1.2,0.7-2.3,2-3.8,2.9c-0.3,0.2-1.2,0.8-1.9,0.8c-0.2,0-0.3,0-0.5-0.1c-0.2-0.1-0.4-0.6-0.4-0.7
		c0-0.1,0-0.1,0.3-0.3c2.1-1.3,3.9-3.1,5.4-5c0.6-0.7,1.3-2,1.3-3c0-0.6-0.2-1.4-1-1.6C47.7,36.1,47,36,46.6,36
		c-1.3,0-2.2,0.6-2.8,1.1c-0.5,0.6-1.1,1.2-1.6,1.8c-0.5-0.4-1.2-0.6-1.9-0.6c-0.8,0-2.3,1-3.1,1.6C37.1,40,37,40.1,37,40.1
		c0,0,0,0,0-0.1c0,0,0-0.2,0-0.6c0-0.3-0.1-0.8-0.4-1.3c-0.1-0.1-0.5-0.4-1-0.4c-0.7,0-1.3,0.3-1.3,0.7c0,0.2,0.2,0.3,0.2,0.6
		c0,0.1-0.1,0.7-0.2,1.2c-0.4,1.6-0.9,3.1-1.5,4.6c-0.3,0.8-1.3,1.6-1.3,2.5c0,0.3,0.2,0.7,0.5,1c0.4,0.5,0.7,0.7,1.1,0.7
		c0.2,0,0.4,0,0.5-0.2c0.4-0.3,0.6-0.6,0.7-1.1c0.6-2.9,2.5-4.8,4.5-6.1c0.7-0.4,1.6-0.9,1.7-0.9c0.1,0,0.3,0.1,0.5,0.1
		c-0.6,0.9-1,1.9-1.3,2.9c-0.1,0.3-0.1,0.7-0.1,1c0,0.6,0.1,1.1,0.3,1.7c0.3,0.8,0.7,1.5,1.3,1.8c1.1,0.6,1.9,0.9,2.6,0.9
		c0.4,0,0.7-0.1,1.1-0.3c1.6-0.9,2.6-1.6,3.3-2.2c0,0.6,0.1,1,0.6,1.4c0.4,0.5,1.1,0.9,2,1.1c0.1,0,0.3,0,0.4,0c1,0,2-0.8,2.8-1.7
		c0.1,0.2,0.2,0.4,0.4,0.5c0.4,0.5,1.1,0.9,2,1.1c0.1,0,0.3,0,0.4,0c1.2,0,2.4-1.1,3.2-2.1c0.3,0.5,1,1.1,1.9,1.5
		c0.2,0.1,0.5,0.2,0.8,0.2c1,0,1.8-0.8,2.4-1.5c1.5-1.7,2.3-3.7,3-6.3c0-0.2,0.1-0.3,0.2-0.3c0.2,0,0.6,0,0.9,0
		c0.7-0.1,1.2-0.3,1.8-0.4c0.4-0.1,0.3-0.2,0.7-0.3c0.2-0.1,0.4-0.2,0.4-0.4c0-0.4-0.8-0.8-1.9-0.8c-0.9,0-1.4,0.1-1.8,0.1
		c-0.6,0-0.7-0.2-1.1-1.1c0,0,0.4,0.9,0,0c-0.1-0.2-0.1-0.3-0.4-0.5c-0.5-0.4-1.1-0.6-1.7-0.6c-1.2,0-2.3,1.2-3,2.3
		c-0.2,0.2-0.4,0.4-0.6,0.7C60.7,41,59.7,42.7,59.6,44.5z M28.6,36.3c0.6,0,0.9,0,1,0c0.1,0,0.1,0,0.1,0.1c0,0,0,0.1-0.2,0.5
		c-1.5,3.2-2.5,6.4-3.4,10c0,0.1-0.1,0.5-0.1,0.8c0,0.3,0.1,0.7,0.4,0.9c0.7,0.4,1.2,0.6,1.6,0.6c0.5,0,0.8-0.3,0.8-0.9
		c0-0.5,0-1,0.1-1.4c0.7-3.6,1.7-6.4,3.3-9.3c0.8-1.4,0.8-1.5,0.8-1.6c0,0,0-0.1-0.1-0.2c1-0.2,2.1-0.4,3.2-0.4
		c0.1,0,0.6,0.2,0.7,0.2c0.2,0.2,0.3,0.3,0.6,0.3c0.2,0,0.7-0.2,0.8-0.3c0.3-0.2,0.5-0.5,0.5-0.9c0-0.4-1.5-1.4-2.6-1.4
		c-1.3,0-2.5,0.2-3.6,0.4c-0.5,0.1-2.2,0.4-3.5,0.4c-1.2,0-1.1-0.2-1.7-0.2c-0.3,0-0.4,0.1-0.6,0.3c-0.1,0.1-0.2,0.6-0.2,1
		c0,0.2,0,0.4,0.1,0.5C27.1,36.2,27.8,36.3,28.6,36.3C28.6,36.3,27.8,36.3,28.6,36.3z M46.5,38.2c0,0.2-0.1,0.4-0.4,0.8
		c-0.3,0.5-0.2,0.5-0.5,0.9c-0.7,0.9-1.6,1.9-2.7,2.9c-0.3,0.3-0.4,0.3-0.4,0.3c0,0-0.1,0-0.1-0.1c0-0.1,0-0.2,0.3-0.7
		c0.8-1.6,1.7-2.6,2.7-3.6c0.6-0.6,0.9-0.8,1-0.8C46.5,38.1,46.5,38.1,46.5,38.2C46.5,38.2,46.5,38.1,46.5,38.2z M65.2,38.9
		C65.2,38.9,65.3,38.9,65.2,38.9c0.1,0.1,0.1,0.2,0.3,0.3c0.1,0.1,0.1,0.4,0.1,0.7c0,2.4-1.3,4.3-2.6,6.3c-0.3,0.4-0.5,0.5-0.6,0.5
		c-0.1,0-0.3-0.3-0.4-0.5c-0.1-0.3-0.1-0.6-0.1-0.7c0-1.9,1.8-4.7,3-6.3C65,38.9,65.1,38.9,65.2,38.9C65.2,38.9,65.1,38.9,65.2,38.9
		z"/>
	
		<linearGradient id="SVGID_1_" gradientUnits="userSpaceOnUse" x1="-209.7628" y1="-209.9133" x2="-209.6439" y2="-209.9133" gradientTransform="matrix(0 128.9062 -128.9062 0 -27043.4668 27073.3242)">
		<stop  offset="0" style="stop-color:#0079BF"/>
		<stop  offset="1" style="stop-color:#0079BF"/>
	</linearGradient>
	<path class="st1" d="M9.9,33.6h11.5c1.1,0,1.9,0.9,1.9,1.9V47c0,1.1-0.9,1.9-1.9,1.9H9.9C8.9,48.9,8,48.1,8,47V35.5
		C8,34.5,8.9,33.6,9.9,33.6z"/>
	<path class="st2" d="M17.6,35.6h2.8c0.5,0,0.9,0.4,0.9,0.9v4.9c0,0.5-0.4,0.9-0.9,0.9h-2.8c-0.5,0-0.9-0.4-0.9-0.9v-4.9
		C16.7,36,17.1,35.6,17.6,35.6z"/>
	<path class="st2" d="M10.9,35.6h2.8c0.5,0,0.9,0.4,0.9,0.9v8.7c0,0.5-0.4,0.9-0.9,0.9h-2.8c-0.5,0-0.9-0.4-0.9-0.9v-8.7
		C10,36,10.4,35.6,10.9,35.6z"/>
</g>
</svg>
