<?xml version="1.0" encoding="utf-8"?>
<!-- Generator: Adobe Illustrator 23.0.2, SVG Export Plug-In . SVG Version: 6.00 Build 0)  -->
<svg version="1.1" id="Layer_1" xmlns="http://www.w3.org/2000/svg" xmlns:xlink="http://www.w3.org/1999/xlink" x="0px" y="0px"
	 viewBox="0 0 80 80" style="enable-background:new 0 0 80 80;" xml:space="preserve">
<style type="text/css">
	.st0{fill:#FFFFFF;}
</style>
<g>
	<g>
		<path class="st0" d="M53.7,24.5c0-4-3.2-7.2-7.2-7.2s-7.2,3.2-7.2,7.2c0,0.1,0,0.2,0,0.3h14.3C53.6,24.7,53.7,24.6,53.7,24.5z"/>
		<path class="st0" d="M60.3,22.1c-0.5,0-1-0.4-1.1-0.9c-0.3-1.4-0.9-2.8-1.7-4c-0.2-0.4-0.2-1,0.1-1.3l1.7-1.7l-2.8-2.8L54.8,13
			c-0.4,0.4-1,0.4-1.4,0.1c-1.2-0.8-2.5-1.3-4-1.7c-0.5-0.1-0.9-0.6-0.9-1.1V8h-4v2.4c0,0.5-0.4,1-0.9,1.1c-1.4,0.3-2.8,0.9-4,1.7
			c-0.4,0.2-1,0.2-1.3-0.1l-1.7-1.7l-2.8,2.8l1.7,1.7c0.4,0.4,0.4,1,0.1,1.4c-0.8,1.2-1.3,2.5-1.7,4c-0.1,0.5-0.6,0.9-1.1,0.9h-2.4
			v2.6c0,0,0,0,0,0.1h6.6c0-0.1,0-0.2,0-0.3c0-5.3,4.3-9.6,9.6-9.6s9.6,4.3,9.6,9.6c0,0.1,0,0.2,0,0.3h6.6c0,0,0,0,0-0.1v-2.6H60.3z
			"/>
	</g>
	<path class="st0" d="M12.5,18.1v2.2h1.4h5.5c0.5,0,0.9,0.3,1,0.8L30,61.8l0.1,0v0h31.4v-2.2H32.6c-0.5,0-0.9-0.3-1-0.8l-1.2-5
		l-0.6-2.2h29.7c0.4,0,0.8-0.3,1-0.7l0.8-2.4c0.2-0.7-0.3-1.3-1-1.3H48.1v-2.2h13.5c0.4,0,0.8-0.3,1-0.7l0.8-2.4
		c0.2-0.7-0.3-1.3-1-1.3H43.7v-2.2h20c0.4,0,0.8-0.3,1-0.7l0.8-2.4c0.2-0.7-0.3-1.3-1-1.3H39.2v-2.2h26.5c0.5,0,0.9-0.3,1-0.7
		l0.7-2.4c0.2-0.7-0.3-1.3-1-1.3H24.2h-0.1l-0.6-2.2l-1.4-5.8c-0.2-0.7-0.5-0.8-1.5-0.8h-6.8H12.5z"/>
	<circle class="st0" cx="56.4" cy="68.7" r="3.3"/>
	<circle class="st0" cx="34.8" cy="68.7" r="3.3"/>
</g>
</svg>
