<svg id="Layer_1" data-name="Layer 1" xmlns="http://www.w3.org/2000/svg" viewBox="0 0 80 80"><defs><style>.cls-1{fill:#fff;fill-rule:evenodd;}</style></defs><title>woocommerce</title><path class="cls-1" d="M61.38,31.76a4.89,4.89,0,0,0-2.27,2.33,7.76,7.76,0,0,0-.41,7.09,2,2,0,0,0,1.55,1.28,3,3,0,0,0,2-1,7.52,7.52,0,0,0,2-4.55,6.51,6.51,0,0,0-1-4.52A1.67,1.67,0,0,0,61.38,31.76Z"/><path class="cls-1" d="M45,31.76a4.41,4.41,0,0,0-2.13,2.05,7.84,7.84,0,0,0-.64,7.25,2.15,2.15,0,0,0,1.43,1.37,2.52,2.52,0,0,0,2-.77,7,7,0,0,0,2.1-4.12,6.88,6.88,0,0,0-.86-5.15A1.66,1.66,0,0,0,45,31.76Z"/><path class="cls-1" d="M72,27a6,6,0,0,0-2-4.54A5.92,5.92,0,0,0,65.92,21H13.86a6,6,0,0,0-5.39,3.62A6.77,6.77,0,0,0,8,27.45C8,34,8,40.48,8,47a6,6,0,0,0,5.63,5.76c8.32,0,16.65,0,25,0,3.79,2,7.52,4.18,11.29,6.25l-2.56-6.28c6.33,0,12.66,0,19,0A6,6,0,0,0,72,47C72,40.34,72,33.69,72,27ZM34.2,47.4a2.18,2.18,0,0,1-1.46,2.37,2.72,2.72,0,0,1-2.5-1.12c-2.83-3-4.44-7-5.59-10.93-1.17,2.3-2.35,4.61-3.48,6.94a16.26,16.26,0,0,1-2.9,4.42c-.53.53-1.44,1-2.13.47-1-.91-1.29-2.36-1.73-3.61a148.86,148.86,0,0,1-3.6-17.63A2.21,2.21,0,0,1,12,25.75a2.52,2.52,0,0,1,2.49.24,2.69,2.69,0,0,1,.69,1.67c.68,4.58,1.49,9.15,2.6,13.65,1.9-3.59,3.78-7.19,5.67-10.79a3.54,3.54,0,0,1,1.13-1.38,1.84,1.84,0,0,1,2.29.21,3.64,3.64,0,0,1,.79,1.88A48.22,48.22,0,0,0,30.08,40,50.25,50.25,0,0,1,32.7,27.41a9.24,9.24,0,0,1,1.23-2.35,2.3,2.3,0,0,1,3.49.46,2.2,2.2,0,0,1,.11,2.07A29.79,29.79,0,0,0,35.12,36,54.16,54.16,0,0,0,34.2,47.4Zm16.44-5a9.34,9.34,0,0,1-3.25,3.71,6.69,6.69,0,0,1-7-.23,7.72,7.72,0,0,1-2.93-4.92,13.53,13.53,0,0,1,3.79-12.1,6.38,6.38,0,0,1,3.33-1.5,6.56,6.56,0,0,1,5.63,2,8.61,8.61,0,0,1,2,4.63A14.25,14.25,0,0,1,50.64,42.37Zm16.44-.08a9.24,9.24,0,0,1-3.33,3.81A6.7,6.7,0,0,1,57,46a6.89,6.89,0,0,1-2.79-3.68,13.5,13.5,0,0,1,3.07-13.18A6.37,6.37,0,0,1,61,27.34a6.54,6.54,0,0,1,5.55,1.85,8.61,8.61,0,0,1,2.12,5A14.26,14.26,0,0,1,67.08,42.29Z"/></svg>