<?xml version="1.0" encoding="utf-8"?>
<!-- Generator: Adobe Illustrator 23.0.2, SVG Export Plug-In . SVG Version: 6.00 Build 0)  -->
<svg version="1.1" id="Layer_1" xmlns="http://www.w3.org/2000/svg" xmlns:xlink="http://www.w3.org/1999/xlink" x="0px" y="0px"
	 viewBox="0 0 80 80" style="enable-background:new 0 0 80 80;" xml:space="preserve">
<style type="text/css">
	.st0{fill:#FFFFFF;}
</style>
<g>
	<path class="st0" d="M59.3,26.4c0.8,0,1.5-0.7,1.5-1.5c0-0.8-0.7-1.5-1.5-1.5h-8.6c0,0,0,0,0,0v-2c0,0,0,0,0,0l7.5,0
		c0.8,0,1.6-0.6,1.6-1.4c0-0.8-0.6-1.5-1.5-1.5H43.1v0l-1.2-5.9h-1.1c-0.1,0-0.2,0.1-0.3,0.1l-6.6,8.2c-0.4,0.6-1.1,0.9-1.8,0.9
		h-0.9l0,12.4h1.4c0,0,0,0,0,0l5.2,2.2c0,0,0,0,0,0h18.7c0.8,0,1.5-0.7,1.5-1.5s-0.7-1.5-1.5-1.5h-5.6c0,0,0,0,0,0v-2c0,0,0,0,0,0
		l7.5,0c0.8,0,1.6-0.6,1.6-1.4c0-0.8-0.6-1.5-1.5-1.5h-7.6c0,0,0,0,0,0v-2c0,0,0,0,0,0L59.3,26.4L59.3,26.4z M12.1,19.9l7,16.2
		c0,0,0,0,0,0H29c0,0,0,0,0,0V19.9c0,0,0,0,0,0L12.1,19.9C12.1,19.9,12.1,19.9,12.1,19.9z M24.1,33.4c-1,0-1.8-0.8-1.8-1.8
		c0-1,0.8-1.8,1.8-1.8c1,0,1.8,0.8,1.8,1.8C25.9,32.6,25.1,33.4,24.1,33.4z"/>
	<path class="st0" d="M54.6,16.4h-9.8c0,0-0.1,0-0.1-0.1L43,8.1C43,8,43,8,43,8h13.3c0,0,0.1,0,0.1,0.1L54.6,16.4
		C54.7,16.4,54.7,16.4,54.6,16.4z M56.5,38.3c0,0-0.1,0-0.1,0H42.9C38.4,44.9,31.5,54,31.5,59.8c0,0.6,0,1.2,0.1,1.8
		c0.6,6,5.9,10.4,11.9,10.4H56c5.6,0,10.7-3.8,11.7-9.4c0.2-0.9,0.2-1.9,0.2-2.9C67.9,54,61.2,44.9,56.5,38.3z M49.7,53.6
		c2.7,0,4.8,2.2,4.8,4.8c0,2.3-1.6,4.3-3.8,4.7v1.9h-2v-1.9c-2.2-0.5-3.8-2.4-3.8-4.7h2c0,1.5,1.3,2.8,2.8,2.8
		c1.5,0,2.8-1.3,2.8-2.8c0-1.6-1.3-2.8-2.8-2.8c-2.7,0-4.8-2.2-4.8-4.8c0-2.3,1.6-4.3,3.8-4.7v-1.9h2v1.9c2.2,0.5,3.8,2.4,3.8,4.7
		h-2c0-1.6-1.3-2.8-2.8-2.8c-1.6,0-2.8,1.3-2.8,2.8C46.9,52.4,48.1,53.6,49.7,53.6z"/>
</g>
</svg>
