<?xml version="1.0" encoding="utf-8"?>
<!-- Generator: Adobe Illustrator 23.0.2, SVG Export Plug-In . SVG Version: 6.00 Build 0)  -->
<svg version="1.1" id="Layer_1" xmlns="http://www.w3.org/2000/svg" xmlns:xlink="http://www.w3.org/1999/xlink" x="0px" y="0px"
	 viewBox="0 0 80 80" style="enable-background:new 0 0 80 80;" xml:space="preserve">
<style type="text/css">
	.st0{fill-rule:evenodd;clip-rule:evenodd;fill:#FFFFFF;}
</style>
<path class="st0" d="M45.3,12.9l12,20.8c1,1.7,1,3.8,0,5.5c-1,1.7-2.8,2.7-4.8,2.7H28.5c-2,0-3.8-1-4.8-2.7c-1-1.7-1-3.8,0-5.5
	l12-20.8c1-1.7,2.8-2.7,4.8-2.7C42.5,10.1,44.3,11.2,45.3,12.9L45.3,12.9z M69.7,55.3L48.2,68.7c-2,1.2-4.1,1.5-6.4,0.9L24,64.8
	c-0.3-0.1-0.6,0-0.8,0.1l-7.6,4.4c-0.6,0.4-1.4,0.1-1.8-0.5l-5.6-9.7c-0.4-0.6-0.1-1.4,0.5-1.8l15.1-8.7c2.3-1.3,4.7-2.4,7.3-1.6
	c0.8,0.2,1.7,0.6,2.7,0.9c3.2,1.1,7.2,2.5,11.4,3.4c0.6,0.1,1.2,0.5,1.6,1.1c0.4,0.7,0.5,1.4,0.3,2.2c-0.4,1.4-1.9,2.3-3.3,1.9
	c0,0,0,0,0,0l-13.7-3.7c-0.6-0.2-1.2,0.2-1.4,0.8c-0.2,0.6,0.2,1.2,0.8,1.4l13.7,3.7c3.1,0.8,5.6,1,8.8-0.9l11.5-6.7
	c4.4-2.5,7.4-2,8.3-0.4C72.4,52,72,54,69.7,55.3L69.7,55.3z M40.5,34.3c-1,0-1.8,0.8-1.8,1.8c0,1,0.8,1.8,1.8,1.8
	c1,0,1.8-0.8,1.8-1.8C42.4,35.1,41.6,34.3,40.5,34.3L40.5,34.3z M40.5,31c0.8,0,1.4-0.6,1.4-1.4l0.4-10.1c0-0.4-0.1-0.8-0.4-1.1
	c-0.3-0.3-0.6-0.4-1-0.4c-0.5,0-0.2,0-0.7,0c-0.4,0-0.8,0.1-1,0.4c-0.3,0.3-0.4,0.6-0.4,1.1l0.4,10.1C39.1,30.4,39.8,31,40.5,31z"/>
</svg>
