<?xml version="1.0" encoding="utf-8"?>
<!-- Generator: Adobe Illustrator 23.0.2, SVG Export Plug-In . SVG Version: 6.00 Build 0)  -->
<svg version="1.1" id="Layer_1" xmlns="http://www.w3.org/2000/svg" xmlns:xlink="http://www.w3.org/1999/xlink" x="0px" y="0px"
	 viewBox="0 0 80 80" style="enable-background:new 0 0 80 80;" xml:space="preserve">
<style type="text/css">
	.st0{fill:#FFFFFF;}
</style>
<g>
	<path class="st0" d="M40,12.6c-16.5,0-29.7,13.3-29.7,29.7S23.5,72,40,72s29.7-13.3,29.7-29.7S56.5,12.6,40,12.6z M40,67.7
		c-13.9,0-25.4-11.4-25.4-25.4S26.1,16.9,40,16.9s25.4,11.4,25.4,25.4S53.9,67.7,40,67.7z M11.9,21l9.1-9.1c0.9-0.9,0.9-2.3,0-3.2
		c-0.9-0.9-2.3-0.9-3.2,0l-9.1,9.1c-0.9,0.9-0.9,2.3,0,3.2c0.5,0.5,0.9,0.7,1.6,0.7C11,21.7,11.4,21.5,11.9,21z M71.3,17.8l-9.1-9.1
		c-0.9-0.9-2.3-0.9-3.2,0c-0.9,0.9-0.9,2.3,0,3.2l9.1,9.1c0.5,0.5,0.9,0.7,1.6,0.7c0.7,0,1.1-0.2,1.6-0.7
		C72.2,20.1,72.2,18.7,71.3,17.8z"/>
	<path class="st0" d="M58.1,44.6h-0.2c-1.1-0.2-2.1-1.1-2.1-2.3s0.9-2.1,2.1-2.3h0.2c0,0,0,0,0.2,0h2.3c-1.1-9.6-8.7-17.1-18.3-18.3
		V24c0,0,0,0,0,0.2v0.2c-0.2,1.1-1.1,2.1-2.3,2.1s-2.1-0.9-2.3-2.1v-0.2c0,0,0,0,0-0.2v-2.3c-9.6,1.1-17.1,8.7-18.3,18.3h2.3
		c0,0,0,0,0.2,0h0.2c1.1,0.2,2.1,1.1,2.1,2.3s-0.9,2.1-2.1,2.3h-0.2c0,0,0,0-0.2,0h-2.3c1.1,9.6,8.7,17.1,18.3,18.3v-2.3
		c0,0,0,0,0-0.2v-0.2c0.2-1.1,1.1-2.1,2.3-2.1s2.1,0.9,2.3,2.1v0.2c0,0,0,0,0,0.2v2.3c9.6-1.1,17.1-8.7,18.3-18.3H58.1
		C58.3,44.6,58.3,44.6,58.1,44.6z M49.1,44.6H40c-1.1,0-2.3-1.1-2.3-2.3V30.9c0-1.1,1.1-2.3,2.3-2.3s2.3,1.1,2.3,2.3V40h6.9
		c1.1,0,2.3,1.1,2.3,2.3S50.3,44.6,49.1,44.6z"/>
</g>
</svg>
