<?xml version="1.0" encoding="utf-8"?>
<!-- Generator: Adobe Illustrator 23.0.2, SVG Export Plug-In . SVG Version: 6.00 Build 0)  -->
<svg version="1.1" id="Layer_1" xmlns="http://www.w3.org/2000/svg" xmlns:xlink="http://www.w3.org/1999/xlink" x="0px" y="0px"
	 viewBox="0 0 80 80" style="enable-background:new 0 0 80 80;" xml:space="preserve">
<style type="text/css">
	.st0{fill:#FFFFFF;}
</style>
<path class="st0" d="M40,18.6c-11.8,0-21.4,9.6-21.4,21.4S28.2,61.4,40,61.4S61.4,51.8,61.4,40l0,0C61.4,28.2,51.8,18.6,40,18.6z
	 M54.5,37.5l-5.9,5.6l1.3,8.1c0.1,0.7-0.2,1.5-0.8,1.9c-0.3,0.2-0.7,0.4-1.1,0.4c-0.3,0-0.6-0.1-0.9-0.2l-7.2-3.9L32.6,53
	c-1,0.5-2.1,0.1-2.6-0.9c-0.2-0.4-0.2-0.8-0.2-1.2l1.5-8l-5.8-5.8c-0.8-0.7-0.8-2,0-2.7c0.3-0.3,0.7-0.5,1.1-0.5l8.1-1.1l3.7-7.3
	c0.3-0.6,1-1,1.7-1.1c0.7,0,1.4,0.4,1.7,1.1l3.5,7.4l8.1,1.3c0.7,0.1,1.3,0.6,1.5,1.3C55.2,36.3,55,37,54.5,37.5z M69.4,43.9
	c1.3-1.3,2.6-2.7,2.6-3.9s-1.3-2.5-2.6-3.9c-1.4-1.3-2.5-2.8-3.3-4.6c-0.5-1.9-0.5-3.9-0.1-5.8c0.2-1.8,0.5-3.7-0.1-4.5
	c-0.6-0.9-2.5-1.2-4.3-1.5c-1.9-0.2-3.8-0.8-5.5-1.8c-1.5-1.3-2.6-2.8-3.4-4.6c-0.9-1.6-1.8-3.3-2.8-3.7c-1-0.3-2.6,0.5-4.3,1.3
	c-1.7,1-3.7,1.6-5.6,1.8c-2-0.2-3.9-0.8-5.6-1.8c-1.6-0.8-3.3-1.6-4.3-1.3c-1.1,0.3-2,2-2.8,3.7c-0.8,1.8-1.9,3.3-3.4,4.6
	c-1.7,1-3.5,1.6-5.5,1.8c-1.8,0.3-3.7,0.7-4.3,1.5c-0.6,0.9-0.4,2.7-0.1,4.5c0.4,1.9,0.4,3.9-0.1,5.8c-0.7,1.8-1.9,3.3-3.3,4.6
	C9.3,37.5,8,38.8,8,40s1.3,2.5,2.6,3.9c1.4,1.3,2.5,2.8,3.3,4.6c0.5,1.9,0.5,3.9,0.1,5.8c-0.2,1.8-0.5,3.7,0.1,4.5s2.5,1.2,4.3,1.5
	c1.9,0.2,3.8,0.8,5.5,1.8c1.5,1.3,2.6,2.8,3.4,4.6c0.9,1.6,1.8,3.3,2.8,3.7c1,0.3,2.6-0.5,4.3-1.3c1.7-1,3.7-1.6,5.6-1.8
	c2,0.2,3.9,0.8,5.6,1.8c1.6,0.8,3.3,1.6,4.3,1.3c1.1-0.3,2-2,2.8-3.7c0.8-1.8,1.9-3.3,3.4-4.6c1.7-1,3.5-1.6,5.5-1.8
	c1.8-0.3,3.7-0.7,4.3-1.5s0.4-2.7,0.1-4.5c-0.4-1.9-0.4-3.9,0.1-5.8C66.8,46.7,67.9,45.2,69.4,43.9z M40,65.2
	c-13.9,0-25.2-11.3-25.2-25.2S26.1,14.8,40,14.8S65.2,26.1,65.2,40C65.2,53.9,53.9,65.2,40,65.2z M43.8,36.6l5.2,0.8l-3.8,3.6
	c-0.5,0.4-0.7,1.1-0.6,1.7l0.8,5.2l-4.6-2.5c-0.3-0.2-0.6-0.2-0.9-0.2c-0.3,0-0.6,0.1-0.9,0.2l-4.7,2.4l1-5.2
	c0.1-0.6-0.1-1.3-0.5-1.7L31,37.2l5.2-0.7c0.6-0.1,1.2-0.5,1.5-1l2.4-4.7l2.3,4.8C42.7,36.1,43.2,36.5,43.8,36.6z"/>
</svg>
