<?xml version="1.0" encoding="utf-8"?>
<!-- Generator: Adobe Illustrator 23.0.0, SVG Export Plug-In . SVG Version: 6.00 Build 0)  -->
<svg version="1.1" id="Layer_1" xmlns="http://www.w3.org/2000/svg" xmlns:xlink="http://www.w3.org/1999/xlink" x="0px" y="0px"
	 viewBox="0 0 631.1 620" style="enable-background:new 0 0 631.1 620;" xml:space="preserve">
<style type="text/css">
	.st0{fill:#FFFFFF;}
	.st1{fill:url(#Path_143-2_1_);}
</style>
<g id="Icon" transform="translate(-1117.663 1060) rotate(-90)">
	<g transform="matrix(0, 1, -1, 0, 1060, 1117.66)">
		<path id="Path_142-2" class="st0" d="M136.4,295.9C360.1,182.3,233.4,79.1,353.2,79.1s216.9,97.1,216.9,216.9
			S473,512.8,353.2,512.8S-87.4,409.6,136.4,295.9z"/>
	</g>
	<g transform="matrix(0, 1, -1, 0, 1060, 1117.66)">
		
			<linearGradient id="Path_143-2_1_" gradientUnits="userSpaceOnUse" x1="-183.2022" y1="810.4879" x2="-182.5852" y2="809.7049" gradientTransform="matrix(3.061617e-14 -500 -451.377 -2.763887e-14 366002.1563 -91128.5313)">
			<stop  offset="0" style="stop-color:#D3D3D3"/>
			<stop  offset="1" style="stop-color:#30DACD"/>
		</linearGradient>
		<path id="Path_143-2" class="st1" d="M118.4,332.5c0-125.1,99.4-378.1,226.5-226.5s224.9,166.5,224.9,291.6S470,559,344.9,559
			S118.4,457.6,118.4,332.5z"/>
	</g>
</g>
</svg>
