<svg id="graphic-design-icon" xmlns="http://www.w3.org/2000/svg" width="40" height="40" viewBox="0 0 40 40">
  <g id="Group_44" data-name="Group 44">
    <g id="Group_43" data-name="Group 43">
      <path id="Path_2740" data-name="Path 2740" d="M38.828,0H34.141a1.172,1.172,0,0,0-1.172,1.172V2.344H23.314a3.515,3.515,0,0,0-6.628,0H7.031V1.172A1.172,1.172,0,0,0,5.859,0H1.172A1.172,1.172,0,0,0,0,1.172V5.859A1.172,1.172,0,0,0,1.172,7.031H5.859A1.172,1.172,0,0,0,7.031,5.859V4.672H11.9a15.4,15.4,0,0,0-7.107,12,3.514,3.514,0,1,0,2.349.023A13.085,13.085,0,0,1,16.851,5.077a3.514,3.514,0,0,0,6.3,0A13.085,13.085,0,0,1,32.854,16.7a3.517,3.517,0,1,0,2.349-.023A15.369,15.369,0,0,0,28.1,4.688h4.873V5.859a1.172,1.172,0,0,0,1.172,1.172h4.688A1.172,1.172,0,0,0,40,5.859V1.172A1.172,1.172,0,0,0,38.828,0ZM4.688,4.688H2.344V2.344H4.688Zm1.25,16.484A1.172,1.172,0,1,1,7.109,20,1.173,1.173,0,0,1,5.938,21.172ZM20,4.688a1.172,1.172,0,1,1,1.172-1.172A1.173,1.173,0,0,1,20,4.688ZM34.063,18.828A1.172,1.172,0,1,1,32.891,20,1.173,1.173,0,0,1,34.063,18.828ZM37.656,4.688H35.313V2.344h2.344Z" fill="#fff"/>
    </g>
  </g>
  <g id="Group_46" data-name="Group 46" transform="translate(9.453 9.454)">
    <g id="Group_45" data-name="Group 45">
      <path id="Path_2741" data-name="Path 2741" d="M141.9,135.594l-9.375-14.062h0l-.01-.015c-.016-.023-.033-.046-.051-.068a1.172,1.172,0,0,0-1.876.068l-.01.015h0L121.2,135.594a1.172,1.172,0,0,0,.146,1.479,14.847,14.847,0,0,1,4.232,8.664,6.044,6.044,0,0,0-.524.475,5.94,5.94,0,0,0-1.707,4.173,1.172,1.172,0,0,0,1.172,1.172h14.063a1.172,1.172,0,0,0,1.172-1.172,5.94,5.94,0,0,0-1.707-4.173,6.04,6.04,0,0,0-.524-.475,14.845,14.845,0,0,1,4.231-8.664A1.172,1.172,0,0,0,141.9,135.594Zm-10.35-.522a1.172,1.172,0,1,1-1.172,1.172A1.173,1.173,0,0,1,131.547,135.072Zm-5.66,14.141a3.58,3.58,0,0,1,3.316-2.422h4.688a3.58,3.58,0,0,1,3.316,2.422Zm9.429-4.587a5.758,5.758,0,0,0-1.425-.178H129.2a5.754,5.754,0,0,0-1.425.178,17.2,17.2,0,0,0-4.113-8.508l6.711-10.066v6.878a3.516,3.516,0,1,0,2.344,0v-6.878l6.711,10.066A17.193,17.193,0,0,0,135.316,144.625Z" transform="translate(-121 -121.01)" fill="#fff"/>
    </g>
  </g>
</svg>
