<svg id="Layer_1" data-name="Layer 1" xmlns="http://www.w3.org/2000/svg" viewBox="0 0 80 80"><defs><style>.cls-1{fill:#fff;fill-rule:evenodd;}</style></defs><title>Icons</title><path class="cls-1" d="M44.82,37.74h1.27a1.05,1.05,0,0,1,.82.28,1.53,1.53,0,0,1,.36,1.09v7.63a1.56,1.56,0,0,1-.36,1.1,1.09,1.09,0,0,1-.82.27H44.82Z"/><polygon class="cls-1" points="37.36 38.2 38.46 45.56 36.18 45.56 37.36 38.2"/><path class="cls-1" d="M70.54,12.38H21.09a.86.86,0,0,0-.45,0h0a1.51,1.51,0,0,0-1,1.46v5.54a1.31,1.31,0,0,0,0,.28,1.13,1.13,0,0,0,0,.26v7H9.46A1.52,1.52,0,0,0,8,28.38v32a7.11,7.11,0,0,0,6.36,6.91l.18.08.18.1a1.52,1.52,0,0,0,.28.09.27.27,0,0,1,.09,0l.18.09H64.72A7.29,7.29,0,0,0,72,60.37V13.83A1.51,1.51,0,0,0,70.54,12.38ZM19.64,60a1.22,1.22,0,0,0,0,.27v.18a4.35,4.35,0,0,1-4.37,4.27,4.32,4.32,0,0,1-4.36-4.37V29.84h8.73Zm15.18.27a1.46,1.46,0,1,1,1.45-1.45A1.45,1.45,0,0,1,34.82,60.29Zm3.9-12.73H35.91l-.37,2.64H33.46l2.26-14.54h3.37L41.46,50.2H39.09Zm3.1,12.73a1.46,1.46,0,1,1,1.45-1.45A1.45,1.45,0,0,1,41.82,60.29Zm.64-10.09V35.66h3.63a3.47,3.47,0,0,1,2.63.9,3.67,3.67,0,0,1,.82,2.64v7.46a3.64,3.64,0,0,1-.82,2.63,3.47,3.47,0,0,1-2.63.91Zm6.36,10.09a1.46,1.46,0,1,1,1.45-1.45A1.45,1.45,0,0,1,48.82,60.29Zm7.09,0a1.46,1.46,0,1,1,1.45-1.45A1.44,1.44,0,0,1,55.91,60.29Zm1.55-20.73H55.27V39A1.84,1.84,0,0,0,55,37.84a1,1,0,0,0-.82-.28,1.23,1.23,0,0,0-.91.28A1.84,1.84,0,0,0,53,39a2.42,2.42,0,0,0,.36,1.27,5.28,5.28,0,0,0,.82,1.09c.33.34.71.66,1.09,1a10.16,10.16,0,0,1,1.09,1.18,5.79,5.79,0,0,1,.82,1.36,4.68,4.68,0,0,1,.28,1.82,4,4,0,0,1-.82,2.73,3.23,3.23,0,0,1-2.55.91,3.24,3.24,0,0,1-2.55-.91,4,4,0,0,1-.9-2.73v-.9h2.18v1A1.74,1.74,0,0,0,53.18,48a1.06,1.06,0,0,0,.82.27,1.29,1.29,0,0,0,.91-.27,1.78,1.78,0,0,0,.27-1.18,2.46,2.46,0,0,0-.36-1.28A5.56,5.56,0,0,0,54,44.47c-.33-.34-.71-.66-1.09-1a8.78,8.78,0,0,1-1-1.18,5.19,5.19,0,0,1-.82-1.37,4.39,4.39,0,0,1-.37-1.81,4,4,0,0,1,.82-2.73,3.25,3.25,0,0,1,2.55-.91,3.27,3.27,0,0,1,2.55.91,4,4,0,0,1,.82,2.73Zm7.26-12.64H26.91a1.49,1.49,0,0,1-.64-2.9h.19l.14,0a1.67,1.67,0,0,1,.31,0h38a1.45,1.45,0,1,1-.14,2.9Zm0-5.81H26.91l-.15,0a1.49,1.49,0,0,1-.49-2.94h.19a1.32,1.32,0,0,1,.28,0l.17,0h38a1.46,1.46,0,0,1-.14,2.91Z"/></svg>