<svg xmlns="http://www.w3.org/2000/svg" width="40" height="40" viewBox="0 0 40 40">
  <g id="Group_121" data-name="Group 121" transform="translate(-16 -16)">
    <g id="OUTLINE" transform="translate(16 16)">
      <path id="Path_5487" data-name="Path 5487" d="M94.667,72A14.683,14.683,0,0,0,80,86.667v.014A14.666,14.666,0,0,0,88.107,99.8l.12.06a1.989,1.989,0,0,1,1.106,1.789v3.685a2,2,0,0,0,2,2h7.333a2,2,0,0,0,2-2V101.49a2.013,2.013,0,0,1,.952-1.7l.735-.452c.415-.256.82-.535,1.207-.831l.3.3a2.081,2.081,0,1,0,2.943-2.943l-.326-.326a14.755,14.755,0,0,0,2.854-8.693v-.177A14.683,14.683,0,0,0,94.667,72Zm4.667,33.333a.667.667,0,0,1-.667.667H91.333a.667.667,0,0,1-.667-.667V104h8.667Zm0-3.843v1.177H90.667v-1.019a3.356,3.356,0,0,0-.147-.981h8.919a3.294,3.294,0,0,0-.106.823Zm6.529-3.628a.748.748,0,0,1-1.057,0l-6.651-6.651a6.047,6.047,0,0,0,1.1-1.015l6.609,6.609a.748.748,0,0,1,0,1.057ZM88.123,90.289l-2.281.638-.488-1.051,1.98-1.273-.342-2.886-2.228-.809.228-1.124,2.367.124,1.44-2.525L87.471,79.44l.859-.778,1.852,1.477,2.662-1.194.077-2.318,1.171-.129.619,2.247,2.866.582L99.024,77.5l1.028.576-.832,2.165,1.986,2.138,2.281-.638.488,1.051-1.98,1.273.342,2.886,2.229.809-.228,1.123-2.367-.124-.825,1.445-1.139-1.139a6,6,0,1,0-3.065,2.82l1.126,1.126-1.583.71-.077,2.318-1.172.129-.619-2.247-2.866-.581-1.446,1.827-1.028-.576.832-2.165ZM94.667,91a4.667,4.667,0,1,1,4.667-4.667A4.667,4.667,0,0,1,94.667,91ZM108,86.843a13.416,13.416,0,0,1-2.476,7.738l-3.4-3.4.6-1.048,2.694.141L106.1,86.9l-2.536-.92-.147-1.243,2.256-1.451-1.455-3.133-2.59.725-.866-.933.948-2.466-3.028-1.7L97.04,77.857,95.78,77.6l-.7-2.553-3.449.381-.088,2.64-1.161.521-2.1-1.677-2.561,2.318,1.513,2.216-.62,1.087-2.694-.141-.685,3.376,2.536.921.147,1.243-2.257,1.451,1.455,3.133,2.59-.725.866.933-.948,2.466,3.028,1.7,1.643-2.077,1.26.256.7,2.553,3.449-.381.088-2.64,1.287-.578,3.533,3.533c-.309.229-.629.445-.955.646l-.735.452a3.306,3.306,0,0,0-.791.682H89.734a3.35,3.35,0,0,0-.91-.667l-.12-.06a13.333,13.333,0,0,1-7.37-11.926v-.014a13.333,13.333,0,1,1,26.667,0Z" transform="translate(-74.667 -67.333)" fill="#fff"/>
      <path id="Path_5488" data-name="Path 5488" d="M448,224h4v1.333h-4Z" transform="translate(-412 -206.667)" fill="#fff"/>
      <path id="Path_5489" data-name="Path 5489" d="M248,16h1.333v3.333H248Z" transform="translate(-228.667 -16)" fill="#fff"/>
      <path id="Path_5490" data-name="Path 5490" d="M0,0H3.771V1.333H0Z" transform="translate(27.525 4.864) rotate(-45)" fill="#fff"/>
      <path id="Path_5491" data-name="Path 5491" d="M0,0H4.269V1.333H0Z" transform="matrix(0.781, -0.625, 0.625, 0.781, 33.59, 10.135)" fill="#fff"/>
      <path id="Path_5492" data-name="Path 5492" d="M0,0H1.333V3.887H0Z" transform="translate(34.959 25.911) rotate(-59.046)" fill="#fff"/>
      <path id="Path_5493" data-name="Path 5493" d="M16,224h4v1.333H16Z" transform="translate(-16 -206.667)" fill="#fff"/>
      <path id="Path_5494" data-name="Path 5494" d="M0,0H1.333V3.771H0Z" transform="translate(8.86 3.139) rotate(-45)" fill="#fff"/>
      <path id="Path_5495" data-name="Path 5495" d="M0,0H1.333V4.269H0Z" transform="matrix(0.625, -0.781, 0.781, 0.625, 2.253, 8.523)" fill="#fff"/>
      <path id="Path_5496" data-name="Path 5496" d="M0,0H3.887V1.333H0Z" transform="matrix(0.857, -0.515, 0.515, 0.857, 1.003, 26.747)" fill="#fff"/>
    </g>
  </g>
</svg>
