<?xml version="1.0" encoding="utf-8"?>
<!-- Generator: Adobe Illustrator 23.0.2, SVG Export Plug-In . SVG Version: 6.00 Build 0)  -->
<svg version="1.1" id="Layer_1" xmlns="http://www.w3.org/2000/svg" xmlns:xlink="http://www.w3.org/1999/xlink" x="0px" y="0px"
	 viewBox="0 0 80 80" style="enable-background:new 0 0 80 80;" xml:space="preserve">
<style type="text/css">
	.st0{fill:#FF2D20;}
</style>
<path class="st0" d="M71.05,22.48c0.02,0.09,0.03,0.17,0.04,0.26v13.74c0,0.36-0.19,0.69-0.5,0.87l-11.53,6.64v13.16
	c0,0.36-0.19,0.69-0.5,0.87L34.48,71.87c-0.06,0.03-0.12,0.05-0.18,0.07c-0.02,0.01-0.04,0.02-0.07,0.03
	c-0.17,0.04-0.35,0.04-0.51,0c-0.03-0.01-0.05-0.02-0.08-0.03c-0.06-0.02-0.11-0.04-0.17-0.07L9.42,58.01
	c-0.31-0.18-0.5-0.51-0.5-0.87V15.93c0-0.09,0.01-0.18,0.04-0.26c0.01-0.03,0.03-0.06,0.04-0.08c0.02-0.05,0.04-0.11,0.06-0.16
	c0.02-0.03,0.05-0.06,0.07-0.09c0.03-0.04,0.06-0.08,0.09-0.12c0.03-0.03,0.07-0.05,0.1-0.08c0.04-0.03,0.07-0.06,0.11-0.09h0
	l12.03-6.93c0.31-0.18,0.69-0.18,1,0l12.03,6.93h0c0.04,0.03,0.07,0.06,0.11,0.09c0.03,0.03,0.07,0.05,0.1,0.08
	c0.04,0.04,0.06,0.08,0.09,0.12c0.02,0.03,0.05,0.06,0.07,0.09c0.03,0.05,0.05,0.1,0.07,0.16c0.01,0.03,0.03,0.06,0.04,0.09
	c0.02,0.09,0.03,0.17,0.04,0.26v25.74l10.03-5.77V22.74c0-0.09,0.01-0.18,0.04-0.26c0.01-0.03,0.03-0.06,0.04-0.09
	c0.02-0.05,0.04-0.11,0.07-0.16c0.02-0.03,0.05-0.06,0.07-0.09c0.03-0.04,0.06-0.08,0.09-0.12c0.03-0.03,0.07-0.05,0.1-0.08
	c0.04-0.03,0.07-0.06,0.11-0.09h0l12.03-6.93c0.31-0.18,0.69-0.18,1,0l12.03,6.93c0.04,0.03,0.08,0.06,0.11,0.09
	c0.03,0.03,0.07,0.05,0.1,0.08c0.04,0.04,0.06,0.08,0.09,0.12c0.02,0.03,0.05,0.06,0.07,0.09c0.03,0.05,0.05,0.1,0.07,0.16
	C71.03,22.42,71.04,22.45,71.05,22.48L71.05,22.48z M69.08,35.9V24.47l-4.21,2.42l-5.82,3.35v11.42L69.08,35.9L69.08,35.9z
	 M57.05,56.56V45.13l-5.72,3.27l-16.34,9.33v11.54L57.05,56.56z M10.92,17.66v38.9l22.06,12.7V57.73L21.46,51.2l0,0l-0.01,0
	c-0.04-0.02-0.07-0.06-0.11-0.08c-0.03-0.03-0.07-0.05-0.1-0.07l0,0c-0.03-0.03-0.06-0.07-0.08-0.11c-0.03-0.03-0.06-0.06-0.08-0.1
	l0,0c-0.02-0.04-0.04-0.08-0.05-0.13c-0.02-0.04-0.04-0.07-0.05-0.11v0c-0.01-0.05-0.02-0.1-0.02-0.15
	c-0.01-0.04-0.02-0.08-0.02-0.11v-26.9l-5.82-3.35L10.92,17.66L10.92,17.66z M21.95,10.16l-10.03,5.77l10.02,5.77l10.02-5.77
	L21.95,10.16L21.95,10.16z M27.17,46.17l5.82-3.35V17.66l-4.21,2.42l-5.82,3.35V48.6L27.17,46.17z M58.05,16.97l-10.02,5.77
	l10.02,5.77l10.02-5.77L58.05,16.97z M57.05,30.25l-5.82-3.35l-4.21-2.42V35.9l5.82,3.35l4.21,2.43V30.25z M33.98,55.99l14.7-8.39
	l7.35-4.19l-10.02-5.77l-11.53,6.64l-10.51,6.05L33.98,55.99z"/>
</svg>
