<svg xmlns="http://www.w3.org/2000/svg" width="21.718" height="16" viewBox="0 0 21.718 16">
  <g id="email" transform="translate(0 -57.088)">
    <g id="Group_107" data-name="Group 107" transform="translate(0 61.601)">
      <g id="Group_106" data-name="Group 106" transform="translate(0 0)">
        <path id="Path_2790" data-name="Path 2790" d="M11.487,153.431a1.234,1.234,0,0,1-1.282,0L0,147.2v8.282a3.206,3.206,0,0,0,3.205,3.205H18.513a3.206,3.206,0,0,0,3.205-3.205V147.2Z" transform="translate(0 -147.2)" fill="#fff"/>
      </g>
    </g>
    <g id="Group_109" data-name="Group 109" transform="translate(0.103 57.088)">
      <g id="Group_108" data-name="Group 108" transform="translate(0 0)">
        <path id="Path_2791" data-name="Path 2791" d="M20.458,57.088H5.151a3.186,3.186,0,0,0-3.1,2.513l10.769,6.564L23.561,59.6A3.186,3.186,0,0,0,20.458,57.088Z" transform="translate(-2.048 -57.088)" fill="#fff"/>
      </g>
    </g>
  </g>
</svg>
