<svg xmlns="http://www.w3.org/2000/svg" width="39.999" height="40" viewBox="0 0 39.999 40">
  <g id="Group_122" data-name="Group 122" transform="translate(-0.007)">
    <g id="Group_121" data-name="Group 121" transform="translate(0.007 0)">
      <path id="Path_5487" data-name="Path 5487" d="M107.811,445.488h3.468a1.567,1.567,0,0,0,0-3.132h-3.468A1.567,1.567,0,0,0,107.811,445.488Zm0-1.96h3.468a.394.394,0,0,1,0,.788h-3.468A.394.394,0,0,1,107.811,443.528Z" transform="translate(-97.998 -407.797)" fill="#fff"/>
      <path id="Path_5488" data-name="Path 5488" d="M108.232,255.746l-3.817,3.817-1.322-1.322a.586.586,0,0,0-.829.829L104,260.806a.586.586,0,0,0,.829,0l4.231-4.231A.586.586,0,0,0,108.232,255.746Z" transform="translate(-94.115 -235.606)" fill="#fff"/>
      <path id="Path_5489" data-name="Path 5489" d="M39.571,25.922a6.147,6.147,0,0,1-.524-1.443,29.751,29.751,0,0,0-2.58-6.883l-1.907-3.64a2.654,2.654,0,0,0-4.866.542,2.653,2.653,0,0,0-3.427,1.8,2.659,2.659,0,0,0-3.166,1.16V2.289A2.292,2.292,0,0,0,20.811,0H7.161a.586.586,0,0,0,0,1.172h13.65a1.119,1.119,0,0,1,1.117,1.117V4H1.179V2.289A1.119,1.119,0,0,1,2.3,1.172H3.88A.586.586,0,0,0,3.88,0H2.3A2.292,2.292,0,0,0,.007,2.289V37.711A2.292,2.292,0,0,0,2.3,40H20.811A2.292,2.292,0,0,0,23.1,37.711V30.482l2.094,1.036a2.652,2.652,0,0,1,1.2,1.2,3.85,3.85,0,0,0,5.187,1.693l3.491-1.829a.586.586,0,0,0-.544-1.038l-3.491,1.829A2.662,2.662,0,0,1,27.443,32.2a3.831,3.831,0,0,0-1.729-1.733l-8.885-4.4a1.457,1.457,0,0,1,1.233-2.638l3.226,1.7a.59.59,0,0,0,.792-.79l-5.6-10.7c-.92-1.73,1.544-3.327,2.484-1.532l3.962,7.562,1.035,1.975a.587.587,0,0,0,1.038-.544l-1.007-1.923a1.462,1.462,0,0,1,2.351-1.508l1.121,2.14A.587.587,0,0,0,28.5,19.27l-1.14-2.176a1.47,1.47,0,0,1,2.392-1.23l1.128,2.154a.587.587,0,0,0,1.038-.544L30.786,15.32a1.463,1.463,0,0,1,2.736-.82l1.907,3.64a28.583,28.583,0,0,1,2.478,6.611,6.978,6.978,0,0,0,.626,1.714,2.641,2.641,0,0,1-1.113,3.561.586.586,0,0,0,.544,1.038,3.814,3.814,0,0,0,1.607-5.143ZM21.929,37.711a1.119,1.119,0,0,1-1.117,1.117H2.3a1.119,1.119,0,0,1-1.117-1.117v-4.3h20.75ZM15.073,23.625a2.647,2.647,0,0,0,.2,2.6,5.147,5.147,0,1,1,1.411-3.99,2.675,2.675,0,0,0-1.609,1.386Zm4.254-12.878a2.625,2.625,0,0,0-.874-.468A2.658,2.658,0,0,0,15.1,13.336H3.976a.2.2,0,0,1-.2-.2V8.953a.2.2,0,0,1,.2-.2H19.132a.2.2,0,0,1,.2.2Zm2.6,4.507L20.5,12.525V8.953a1.369,1.369,0,0,0-1.367-1.367H3.976A1.369,1.369,0,0,0,2.608,8.953v4.187a1.369,1.369,0,0,0,1.367,1.367H15.6l4.564,8.711L18.6,22.391l-.021-.011a2.635,2.635,0,0,0-.724-.224,6.316,6.316,0,1,0-1.72,4.872c1.859,1.071,3.875,1.923,5.8,2.874v2.341H1.179V5.174h20.75Z" transform="translate(-0.007 0)" fill="#fff"/>
    </g>
  </g>
</svg>
