<?xml version="1.0" encoding="utf-8"?>
<!-- Generator: Adobe Illustrator 23.0.2, SVG Export Plug-In . SVG Version: 6.00 Build 0)  -->
<svg version="1.1" id="Layer_1" xmlns="http://www.w3.org/2000/svg" xmlns:xlink="http://www.w3.org/1999/xlink" x="0px" y="0px"
	 viewBox="0 0 80 80" style="enable-background:new 0 0 80 80;" xml:space="preserve">
<style type="text/css">
	.st0{fill:#E01E5A;}
	.st1{fill:#36C5F0;}
	.st2{fill:#2EB67D;}
	.st3{fill:#ECB22E;}
</style>
<g>
	<path d="M28.5,44.6l0.8-1.9c0.9,0.6,2,1,3.1,1c0.8,0,1.4-0.3,1.4-0.8c0-1.4-5-0.3-5-3.7c0-1.7,1.5-3.1,3.7-3.1
		c1.3,0,2.6,0.3,3.5,1.1l-0.7,1.9c-0.8-0.5-1.9-0.9-2.9-0.9c-0.7,0-1.1,0.3-1.1,0.7c0,1.3,5,0.6,5.1,3.9c0,1.8-1.5,3-3.7,3
		C31,45.8,29.6,45.4,28.5,44.6z M59.1,42.1l2.2,1.2c-0.8,1.5-2.4,2.5-4.2,2.5c-2.7,0-4.8-2.2-4.8-4.8c0-2.7,2.2-4.8,4.8-4.8
		c1.8,0,3.4,1,4.2,2.5l-2.2,1.2c-0.4-0.7-1.1-1.2-2-1.2c-1.3,0-2.3,1-2.3,2.3c0,1.3,1,2.3,2.3,2.3C58,43.3,58.7,42.8,59.1,42.1z
		 M37.4,32.2h2.8v13.5h-2.8V32.2L37.4,32.2z M62.4,32.2h2.8v7.9l3.1-3.7h3.4l-3.8,4.5l4.2,4.8h-3.5l-3.3-4v4h-2.8V32.2L62.4,32.2z
		 M48.4,42.1v-2.3c-0.4-0.7-1.2-1.2-2.1-1.2c-1.3,0-2.3,1-2.3,2.3c0,1.3,1,2.3,2.3,2.3C47.1,43.3,48,42.8,48.4,42.1z M48.4,36.4h2.8
		v9.3h-2.8v-1.1c-0.4,0.8-1.6,1.3-2.7,1.3c-2.4,0-4.3-2.2-4.3-4.8c0-2.7,1.9-4.8,4.3-4.8c1.2,0,2.3,0.5,2.7,1.3V36.4z"/>
	<path class="st0" d="M11.4,42.1c0,0.9-0.8,1.7-1.7,1.7S8,43.1,8,42.1s0.8-1.7,1.7-1.7h1.7V42.1z M12.3,42.1c0-0.9,0.8-1.7,1.7-1.7
		c0.9,0,1.7,0.8,1.7,1.7v4.2c0,0.9-0.8,1.7-1.7,1.7c-0.9,0-1.7-0.8-1.7-1.7V42.1z"/>
	<path class="st1" d="M14,35.3c-0.9,0-1.7-0.8-1.7-1.7s0.8-1.7,1.7-1.7s1.7,0.8,1.7,1.7v1.7H14z M14,36.2c0.9,0,1.7,0.8,1.7,1.7
		s-0.8,1.7-1.7,1.7H9.7c-0.9,0-1.7-0.8-1.7-1.7s0.8-1.7,1.7-1.7H14z"/>
	<path class="st2" d="M20.8,37.9c0-0.9,0.8-1.7,1.7-1.7s1.7,0.8,1.7,1.7s-0.8,1.7-1.7,1.7h-1.7V37.9z M19.9,37.9
		c0,0.9-0.8,1.7-1.7,1.7s-1.7-0.8-1.7-1.7v-4.3c0-0.9,0.8-1.7,1.7-1.7s1.7,0.8,1.7,1.7V37.9z"/>
	<path class="st3" d="M18.2,44.7c0.9,0,1.7,0.8,1.7,1.7s-0.8,1.7-1.7,1.7s-1.7-0.8-1.7-1.7v-1.7H18.2z M18.2,43.8
		c-0.9,0-1.7-0.8-1.7-1.7s0.8-1.7,1.7-1.7h4.3c0.9,0,1.7,0.8,1.7,1.7s-0.8,1.7-1.7,1.7H18.2z"/>
</g>
</svg>
