<svg xmlns="http://www.w3.org/2000/svg" width="40" height="40" viewBox="0 0 40 40">
  <g id="ui-icon" transform="translate(-0.5)">
    <path id="Path_2762" data-name="Path 2762" d="M138.732,368H137.4v2.667h-12V372h12v2a2,2,0,0,1-2,2H120.732A2.007,2.007,0,0,1,119,375l-1.155.667a3.347,3.347,0,0,0,2.888,1.667H135.4A3.337,3.337,0,0,0,138.732,374Zm0,0" transform="translate(-107.565 -337.333)" fill="#fff"/>
    <path id="Path_2763" data-name="Path 2763" d="M232.5,432h1.333v1.333H232.5Zm0,0" transform="translate(-212.667 -396)" fill="#fff"/>
    <path id="Path_2764" data-name="Path 2764" d="M45.833,18V16.667H43.8A8.668,8.668,0,0,0,35.833,8.7V6.667H34.5V8.7a8.665,8.665,0,0,0-1.333.208V5.333H43.833V4H33.166V3.333a2,2,0,0,1,2-2H49.833a2,2,0,0,1,1.323.5l.882-1A3.329,3.329,0,0,0,49.833,0H35.166a3.337,3.337,0,0,0-3.333,3.333v6a8.678,8.678,0,0,0-5.3,7.333H24.5V18h2.035A8.628,8.628,0,0,0,34.5,25.969V28h1.333V25.969A8.628,8.628,0,0,0,43.8,18ZM34.5,23.333v1.3a7.305,7.305,0,0,1-2.667-.77v-1.2a3.333,3.333,0,1,1,6.667,0v1.2a7.313,7.313,0,0,1-2.667.771v-1.3ZM33.166,16a2,2,0,1,1,2,2A2,2,0,0,1,33.166,16Zm6.889,6.8c-.072.066-.149.12-.222.181v-.315a4.667,4.667,0,0,0-2.519-4.139,3.333,3.333,0,1,0-4.295,0A4.667,4.667,0,0,0,30.5,22.667v.318c-.074-.061-.151-.118-.222-.181A7.337,7.337,0,0,1,27.869,18h1.3V16.667h-1.3A7.341,7.341,0,0,1,34.5,10.034v1.3h1.333v-1.3a7.341,7.341,0,0,1,6.633,6.633h-1.3V18h1.3a7.337,7.337,0,0,1-2.409,4.8Zm0,0" transform="translate(-22)" fill="#fff"/>
    <path id="Path_2765" data-name="Path 2765" d="M287.833,41.333a.667.667,0,0,0,.667-.667v-8a.667.667,0,0,0-.667-.667H273.167a.667.667,0,0,0-.667.667v8a.667.667,0,0,0,.667.667Zm-14-8h13.333V40H273.833Zm0,0" transform="translate(-249.333 -29.333)" fill="#fff"/>
    <path id="Path_2766" data-name="Path 2766" d="M304.5,64h2.667v1.333H304.5Zm0,0" transform="translate(-278.667 -58.667)" fill="#fff"/>
    <path id="Path_2767" data-name="Path 2767" d="M352.5,64h6.667v1.333H352.5Zm0,0" transform="translate(-322.667 -58.667)" fill="#fff"/>
    <path id="Path_2768" data-name="Path 2768" d="M304.5,96h10.667v1.333H304.5Zm0,0" transform="translate(-278.667 -88)" fill="#fff"/>
    <path id="Path_2769" data-name="Path 2769" d="M258.376,160a2.113,2.113,0,0,0-1.4.533l-5.815,5.127V160h-1.333v6.667h.193l-3.793,3.347a4.667,4.667,0,0,0-4.4,4.653v1.176a1.733,1.733,0,0,1-.965,1.561.667.667,0,0,0,.3,1.263h4.667a4.667,4.667,0,0,0,4.653-4.4l9.484-10.748A2.118,2.118,0,0,0,258.376,160Zm-12.549,17.333h-3.049a3.075,3.075,0,0,0,.382-1.491v-1.176a3.338,3.338,0,0,1,3.067-3.323l2.923,2.923a3.337,3.337,0,0,1-3.323,3.067Zm13.137-14.7-9.167,10.39-2.33-2.329,10.39-9.168a.785.785,0,0,1,1.107,1.107Zm0,0" transform="translate(-219.994 -146.666)" fill="#fff"/>
    <path id="Path_2770" data-name="Path 2770" d="M1.167,330H15.833a.667.667,0,0,0,.667-.667V324a.667.667,0,0,0-.667-.667H11.167V320H9.833v3.333H1.167A.667.667,0,0,0,.5,324v5.333A.667.667,0,0,0,1.167,330Zm.667-5.333H15.167v4H1.833Zm0,0" transform="translate(0 -293.333)" fill="#fff"/>
    <path id="Path_2771" data-name="Path 2771" d="M32.5,392h3.333v1.333H32.5Zm0,0" transform="translate(-29.333 -359.333)" fill="#fff"/>
    <path id="Path_2772" data-name="Path 2772" d="M88.5,392h6v1.333h-6Zm0,0" transform="translate(-80.667 -359.333)" fill="#fff"/>
    <path id="Path_2773" data-name="Path 2773" d="M1.167,38.667H7.833A.667.667,0,0,0,8.5,38V32.667A.667.667,0,0,0,7.833,32H1.167a.667.667,0,0,0-.667.667V38A.667.667,0,0,0,1.167,38.667Zm.667-5.333H7.167v4H1.833Zm0,0" transform="translate(0 -29.333)" fill="#fff"/>
    <path id="Path_2774" data-name="Path 2774" d="M32.5,64h2.667v1.333H32.5Zm0,0" transform="translate(-29.333 -58.667)" fill="#fff"/>
  </g>
</svg>
