<svg xmlns="http://www.w3.org/2000/svg" width="41.668" height="40" viewBox="0 0 41.668 40">
  <g id="web-design-icon" transform="translate(0 -10.249)">
    <g id="Group_48" data-name="Group 48" transform="translate(0 10.249)">
      <g id="Group_47" data-name="Group 47" transform="translate(0 0)">
        <path id="Path_2742" data-name="Path 2742" d="M40.854,10.249H.814A.814.814,0,0,0,0,11.063v8.371a.814.814,0,0,0,.814.814H40.854a.814.814,0,0,0,.814-.814V11.063A.814.814,0,0,0,40.854,10.249Zm-.814,8.371H1.628V11.877H40.041Z" transform="translate(0 -10.249)" fill="#fff"/>
      </g>
    </g>
    <g id="Group_50" data-name="Group 50" transform="translate(32.615 12.337)">
      <g id="Group_49" data-name="Group 49" transform="translate(0 0)">
        <path id="Path_2743" data-name="Path 2743" d="M406.352,40.341l-.665-.665a2.6,2.6,0,1,0-1.151,1.151l.665.665a.814.814,0,0,0,1.151-1.151Zm-2.3-1.148a.972.972,0,1,1,.285-.687A.966.966,0,0,1,404.053,39.193Z" transform="translate(-400.765 -35.906)" fill="#fff"/>
      </g>
    </g>
    <g id="Group_52" data-name="Group 52" transform="translate(27.551 15.908)">
      <g id="Group_51" data-name="Group 51" transform="translate(0 0)">
        <path id="Path_2744" data-name="Path 2744" d="M340.152,80.441a.818.818,0,0,0-.046-.152.831.831,0,0,0-.075-.141.817.817,0,0,0-.1-.124.779.779,0,0,0-.124-.1.8.8,0,0,0-.141-.075.822.822,0,0,0-.152-.046.806.806,0,0,0-.318,0,.832.832,0,0,0-.417.222.865.865,0,0,0-.1.124.834.834,0,0,0-.075.141.82.82,0,0,0-.046.152.826.826,0,0,0,0,.318.819.819,0,0,0,.046.152.857.857,0,0,0,.075.141.87.87,0,0,0,.1.124.841.841,0,0,0,.264.176.862.862,0,0,0,.152.046.811.811,0,0,0,.47-.046.833.833,0,0,0,.141-.075.774.774,0,0,0,.124-.1.821.821,0,0,0,.238-.575A.808.808,0,0,0,340.152,80.441Z" transform="translate(-338.541 -79.786)" fill="#fff"/>
      </g>
    </g>
    <g id="Group_54" data-name="Group 54" transform="translate(7.552 15.908)">
      <g id="Group_53" data-name="Group 53" transform="translate(0 0)">
        <path id="Path_2745" data-name="Path 2745" d="M110.522,79.786H93.608a.814.814,0,0,0,0,1.628h16.914a.814.814,0,0,0,0-1.628Z" transform="translate(-92.794 -79.786)" fill="#fff"/>
      </g>
    </g>
    <g id="Group_56" data-name="Group 56" transform="translate(0.096 21.408)">
      <g id="Group_55" data-name="Group 55" transform="translate(0 0)">
        <path id="Path_2746" data-name="Path 2746" d="M26.706,147.364H1.995a.814.814,0,0,0-.814.814v16.049a.814.814,0,0,0,.814.814H26.706a.814.814,0,0,0,.814-.814V148.178A.814.814,0,0,0,26.706,147.364ZM11,163.413H4.09l4.652-5.386,3.369,3.9Zm2.035,0,1.517-2.023H18.5a.814.814,0,0,0,0-1.628H15.771l.571-.761h5.11l3.309,4.412Zm4.53-6.04,1.334-1.779,1.334,1.779Zm8.33,4.835-6.344-8.459a.814.814,0,0,0-1.3,0l-5.134,6.846-3.753-4.346a.814.814,0,0,0-1.232,0l-5.318,6.157V148.992H25.892Z" transform="translate(-1.181 -147.364)" fill="#fff"/>
      </g>
    </g>
    <g id="Group_58" data-name="Group 58" transform="translate(8.325 23.97)">
      <g id="Group_57" data-name="Group 57">
        <path id="Path_2747" data-name="Path 2747" d="M105.172,178.846a2.877,2.877,0,1,0,2.877,2.877A2.88,2.88,0,0,0,105.172,178.846Zm0,4.127a1.249,1.249,0,1,1,1.249-1.249A1.251,1.251,0,0,1,105.172,182.973Z" transform="translate(-102.295 -178.846)" fill="#fff"/>
      </g>
    </g>
    <g id="Group_60" data-name="Group 60" transform="translate(27.533 21.408)">
      <g id="Group_59" data-name="Group 59" transform="translate(0 0)">
        <path id="Path_2748" data-name="Path 2748" d="M351.634,147.364H339.126a.814.814,0,0,0-.814.814v16.049a.814.814,0,0,0,.814.814h12.508a.814.814,0,0,0,.814-.814V148.178A.814.814,0,0,0,351.634,147.364Zm-.814,16.049H339.94V148.992h10.88Z" transform="translate(-338.312 -147.364)" fill="#fff"/>
      </g>
    </g>
    <g id="Group_62" data-name="Group 62" transform="translate(30.241 24.376)">
      <g id="Group_61" data-name="Group 61" transform="translate(0 0)">
        <path id="Path_2749" data-name="Path 2749" d="M379.5,183.835h-7.09a.814.814,0,1,0,0,1.628h7.09a.814.814,0,0,0,0-1.628Z" transform="translate(-371.595 -183.835)" fill="#fff"/>
      </g>
    </g>
    <g id="Group_64" data-name="Group 64" transform="translate(30.241 27.642)">
      <g id="Group_63" data-name="Group 63">
        <path id="Path_2750" data-name="Path 2750" d="M379.5,223.969h-7.09a.814.814,0,1,0,0,1.628h7.09a.814.814,0,0,0,0-1.628Z" transform="translate(-371.595 -223.969)" fill="#fff"/>
      </g>
    </g>
    <g id="Group_66" data-name="Group 66" transform="translate(30.241 30.908)">
      <g id="Group_65" data-name="Group 65">
        <path id="Path_2751" data-name="Path 2751" d="M379.5,264.1h-7.09a.814.814,0,1,0,0,1.628h7.09a.814.814,0,0,0,0-1.628Z" transform="translate(-371.595 -264.103)" fill="#fff"/>
      </g>
    </g>
    <g id="Group_68" data-name="Group 68" transform="translate(30.241 34.175)">
      <g id="Group_67" data-name="Group 67">
        <path id="Path_2752" data-name="Path 2752" d="M373.2,304.893a.818.818,0,0,0-.046-.152.857.857,0,0,0-.075-.141.813.813,0,0,0-.988-.3.865.865,0,0,0-.141.075.791.791,0,0,0-.225.225.867.867,0,0,0-.075.141.82.82,0,0,0-.046.152.785.785,0,0,0,0,.318.821.821,0,0,0,.046.152.859.859,0,0,0,.075.141.791.791,0,0,0,.225.225.863.863,0,0,0,.141.075.822.822,0,0,0,.152.046.807.807,0,0,0,.734-.222.8.8,0,0,0,.177-.264.82.82,0,0,0,.046-.152.825.825,0,0,0,0-.318Z" transform="translate(-371.591 -304.238)" fill="#fff"/>
      </g>
    </g>
    <g id="Group_70" data-name="Group 70" transform="translate(33.327 34.174)">
      <g id="Group_69" data-name="Group 69">
        <path id="Path_2753" data-name="Path 2753" d="M414.324,304.236h-4.005a.814.814,0,0,0,0,1.628h4.005a.814.814,0,0,0,0-1.628Z" transform="translate(-409.505 -304.236)" fill="#fff"/>
      </g>
    </g>
    <g id="Group_72" data-name="Group 72" transform="translate(0.096 40.239)">
      <g id="Group_71" data-name="Group 71" transform="translate(0 0)">
        <path id="Path_2754" data-name="Path 2754" d="M14.5,378.751H1.995a.814.814,0,0,0-.814.814v8.383a.814.814,0,0,0,.814.814H14.5a.814.814,0,0,0,.814-.814v-8.383A.814.814,0,0,0,14.5,378.751Zm-.814,8.383H2.809v-6.755h10.88Z" transform="translate(-1.181 -378.751)" fill="#fff"/>
      </g>
    </g>
    <g id="Group_74" data-name="Group 74" transform="translate(15.441 40.239)">
      <g id="Group_73" data-name="Group 73" transform="translate(0 0)">
        <path id="Path_2755" data-name="Path 2755" d="M215.142,378.751h-24.6a.814.814,0,0,0-.814.814v8.383a.814.814,0,0,0,.814.814h24.6a.814.814,0,0,0,.814-.814v-8.383A.814.814,0,0,0,215.142,378.751Zm-.814,8.383H191.356v-6.755h22.972Z" transform="translate(-189.728 -378.751)" fill="#fff"/>
      </g>
    </g>
    <g id="Group_76" data-name="Group 76" transform="translate(19.164 44.43)">
      <g id="Group_75" data-name="Group 75">
        <path id="Path_2756" data-name="Path 2756" d="M237.092,430.909a.823.823,0,0,0-.046-.152.8.8,0,0,0-.075-.141.79.79,0,0,0-.225-.225.808.808,0,0,0-.141-.075.825.825,0,0,0-.152-.047.837.837,0,0,0-.318,0,.865.865,0,0,0-.152.047.831.831,0,0,0-.14.075.778.778,0,0,0-.124.1.825.825,0,0,0-.1.124.8.8,0,0,0-.075.141.823.823,0,0,0-.046.152.822.822,0,0,0,0,.317.851.851,0,0,0,.046.153.816.816,0,0,0,.752.5.807.807,0,0,0,.159-.015.824.824,0,0,0,.152-.047.753.753,0,0,0,.141-.075.769.769,0,0,0,.124-.1.778.778,0,0,0,.1-.124.827.827,0,0,0,.075-.14.848.848,0,0,0,.046-.153.782.782,0,0,0,0-.317Z" transform="translate(-235.481 -430.255)" fill="#fff"/>
      </g>
    </g>
    <g id="Group_78" data-name="Group 78" transform="translate(22.249 44.43)">
      <g id="Group_77" data-name="Group 77">
        <path id="Path_2757" data-name="Path 2757" d="M287.869,430.252H274.2a.814.814,0,1,0,0,1.628h13.667a.814.814,0,1,0,0-1.628Z" transform="translate(-273.389 -430.252)" fill="#fff"/>
      </g>
    </g>
  </g>
</svg>
