<svg id="Layer_1" data-name="Layer 1" xmlns="http://www.w3.org/2000/svg" viewBox="0 0 80 80"><defs><style>.cls-1{fill:#fff;fill-rule:evenodd;}</style></defs><title>Icons</title><g id="Layer_6" data-name="Layer 6"><polygon class="cls-1" points="35.08 66.36 36.49 72 43.26 72 44.58 66.27 35.08 66.36"/><path class="cls-1" d="M38.61,62.37l.26.8.16.36h1.63l.2-.1.23-.56c1-2.59,3.65-13.65,4.2-16.47C46.78,38.75,47.9,31,47.35,23.13a31,31,0,0,0-1.86-9c-.85-2.12-2.11-4.55-4.35-5.49-2.42-1-4.76,1.46-5.8,3.48-5.55,10.68-2,29.12.58,40l.88,3.75c.57,2.17,1.22,4.1,1.81,6.49Z"/><path class="cls-1" d="M37.92,62.91l-1-.79C25.44,51.31,9.65,15,34.54,8.26A4.87,4.87,0,0,1,36.32,8C16.77,16.43,30,49.28,37.92,62.91Zm4.16,0,1-.79C54.56,51.31,70.35,15,45.46,8.26A4.87,4.87,0,0,0,43.68,8c19.55,8.43,6.36,41.28-1.6,54.91Z"/><path class="cls-1" d="M26.51,10.89A17.1,17.1,0,0,0,17,23.48l-.19,2.28,0,1.83.26,2,.14,1C19.2,41.19,28,55.1,35.77,62.47,25.05,48.16,8.86,25.52,26.51,10.89Zm27,0A17.1,17.1,0,0,1,63,23.48l.19,2.28,0,1.83-.25,2-.15,1C60.8,41.19,52,55.1,44.22,62.47,55,48.16,71.14,25.52,53.49,10.89Z"/></g></svg>