<svg id="Layer_1" data-name="Layer 1" xmlns="http://www.w3.org/2000/svg" viewBox="0 0 80 80"><defs><style>.cls-1,.cls-2{fill:#fff;}.cls-2{fill-rule:evenodd;}</style></defs><title>Icons</title><g id="Layer_2" data-name="Layer 2"><rect class="cls-1" x="60.87" y="27.65" width="10.79" height="41.46" rx="0.46"/><ellipse class="cls-1" cx="66.26" cy="16.68" rx="5.74" ry="5.49"/><path class="cls-2" d="M39.53,54.61l4,13.4c.22.79.63,1,1.18,1H55.12c.8,0,.86-.23.74-.77L38.74,11.11a.27.27,0,0,0-.28-.17l-14.36,0c-.56,0-.57.29-.52.84a11.65,11.65,0,0,1-.34,4.66L8.08,68.26c-.16.49-.12.73.53.74h9.78c1,0,1.09-.31,1.27-.83l3.39-13.55Zm-2.1-10.42H25.55l5.76-23.31Z"/></g></svg>