<svg id="Layer_1" data-name="Layer 1" xmlns="http://www.w3.org/2000/svg" viewBox="0 0 80 80"><defs><style>.cls-1{fill:#fff;fill-rule:evenodd;}</style></defs><title>Icons</title><g id="Layer_4" data-name="Layer 4"><path class="cls-1" d="M68.1,27.61c-8.64-4.36-23.52-2.25-23.52,9.12,0,8.47,5.86,11.81,13,14.6,10.18,4,.28,11.49-12.14,3.72,0,0-.45-.22-.67,0a.81.81,0,0,0-.22.66v8.16c4.35,2.23,7.59,3.36,12.6,3.31C73.36,67,75.69,51.52,67.09,45.56A53.27,53.27,0,0,0,60,41.81c-6.84-2.61-6.26-6.32-4.09-8.19,2.4-2.08,9,1.06,11.85,2.81,1.69,1,2-.25,2-1.4l0-5.42C69.73,28.32,69.29,28.21,68.1,27.61ZM18.15,41.15V21.29a1,1,0,0,1,.44-.44c8.41-.43,13.2,1.22,13.63,10.2.49,10.32-8.16,10.54-14.07,10.54ZM8,13.57V67H18.15V49.76c12.47.89,23.73-3.58,23.73-18,0-5.82-1.81-11.67-6.11-15.21C29.78,11.61,15.77,12.71,8,13.57Z"/></g></svg>