<svg id="Layer_1" data-name="Layer 1" xmlns="http://www.w3.org/2000/svg" viewBox="0 0 80 80"><defs><style>.cls-1{fill:#fff;fill-rule:evenodd;}</style></defs><title>Icons</title><g id="Layer_5" data-name="Layer 5"><path class="cls-1" d="M8.74,17.08c.34.73.84,1.62,1,2,.52,1,1,2,1.52,3l8.27,16.45c.24.48.7,1,.47,1.54L8.42,62.21c-.28.55-.89,1.19.22,1.19h6.88c1,0,1-.52,1.61-1.83L25,45.07c.54.48,7,14.44,8.52,17.62.27.56.33.71,1.13.71,1.11,0,7.23.13,7.81-.12.13-.65-1-2.42-1.31-3.05l-3.06-5.86c-2.42-4.65-5.18-10.3-7.63-14.72-.5-.9-.31-.85.81-2.94.55-1,1-1.94,1.55-3s1-1.91,1.51-2.89L38.93,22a53.7,53.7,0,0,0,2.8-5.63c.11-.41-.55-.38-1-.38H34.53c-.66,0-.76.13-1,.61l-6,12.73A45.79,45.79,0,0,1,25.4,34c-.63-1.55-1.39-3.05-2.07-4.59L19,20.19c-.4-.75-.7-1.51-1.07-2.26-.21-.41-.39-.75-.56-1.15-.25-.56-.22-.76-1-.76h-7C8.38,16,8.27,16.06,8.74,17.08Z"/><path class="cls-1" d="M52,46.43c0-2.88.3-5.6,1.9-8a10.43,10.43,0,0,1,1.29-1.62,9,9,0,0,1,8.75-2V56.65C57.12,58.62,52,54.39,52,46.43ZM64,27.89l-2.79-.05A17.39,17.39,0,0,0,48.92,33a19,19,0,0,0-4.85,12.58c0,5.72,1,9.88,4.14,13.5A15.47,15.47,0,0,0,59.78,64,25.14,25.14,0,0,0,67,63.14,20.36,20.36,0,0,0,72,61.2a18.85,18.85,0,0,0-.14-2.52c-.09-2.6,0-6.06,0-8.71V16.87c0-.66,0-.85-.65-.85H64.62c-.91,0-.65.56-.65,2.47Z"/></g></svg>