<svg id="Layer_1" data-name="Layer 1" xmlns="http://www.w3.org/2000/svg" viewBox="0 0 80 80"><defs><style>.cls-1{fill:#fff;}</style></defs><title>Icons</title><g id="Layer_7" data-name="Layer 7"><path class="cls-1" d="M53.26,38.56c-.39,0-.53.53-.53.92a3.41,3.41,0,0,0,.85,2.09A4.46,4.46,0,0,0,53.91,40C53.91,39,53.52,38.56,53.26,38.56Z"/><path class="cls-1" d="M40,8A32,32,0,1,0,72,40,32,32,0,0,0,40,8Zm23,40.69a.38.38,0,0,1-.26-.07,3.2,3.2,0,0,1-2.15-2.42,2.43,2.43,0,0,1-2,1,2.92,2.92,0,0,1-2.68-2.55,4.42,4.42,0,0,1,.2-1.83,3,3,0,0,1-1.57.53h-.45A13.13,13.13,0,0,1,50.58,47a2.73,2.73,0,0,1-1,.32.69.69,0,0,1-.58-.26,2.3,2.3,0,0,1-.66-1.69,6.53,6.53,0,0,1-4,2.15A1.55,1.55,0,0,1,42.68,46a2.87,2.87,0,0,1,.06-1,27.85,27.85,0,0,1,1-3.65c0-.13-.07-.2-.13-.2-.66,0-2.88,2.29-3.2,3.79l-.26,1.24a1.77,1.77,0,0,1-1.57,1.37.49.49,0,0,1-.52-.46v-.39l.13-.65a6.79,6.79,0,0,1-3.07,1.5,1.33,1.33,0,0,1-1.44-1.11,2.48,2.48,0,0,1-2,1.11,2.67,2.67,0,0,1-2.35-1.63,12.05,12.05,0,0,1-2.36,2,8.74,8.74,0,0,1-4.63,1.57,5.65,5.65,0,0,1-3.79-1.57,6.76,6.76,0,0,1-2-4.11c-.59-4.57,2.22-10.65,6.6-13.26a6.18,6.18,0,0,1,3.13-.91,3.78,3.78,0,0,1,3.85,3.26A3.52,3.52,0,0,1,28,36.73c-.91.46-1.37.46-1.5.2a.44.44,0,0,1,.13-.52c1.7-1.37,1.7-2.55,1.5-4.18-.13-1-.78-1.7-1.56-1.7-3.4,0-8.1,7.38-7.45,12.74.26,2.09,1.57,4.5,4.18,4.5a6.17,6.17,0,0,0,2.61-.65A8.18,8.18,0,0,0,29,44.83a5.41,5.41,0,0,1,5.1-5.61c1.37,0,2.48.52,2.61,1.63a1.36,1.36,0,0,1-1.44,1.63c-.39,0-1-.13-1-.46s.85-.19.72-1c-.07-.52-.66-.72-1.18-.72-2,0-3.07,2.74-2.87,4.44.06.79.52,1.57,1.17,1.57s1.44-.85,1.7-2a1.78,1.78,0,0,1,1.57-1.37c.32,0,.52.13.52.46v.39c-.06.33-.33,1.57-.33,1.77A.51.51,0,0,0,36,46a6.37,6.37,0,0,0,2.41-1.5c.33-1.64.72-3.66.72-3.79a1.48,1.48,0,0,1,1.7-1.37.49.49,0,0,1,.52.45v.4L41,42c1.18-1.57,3-2.74,4.12-2.74a.85.85,0,0,1,.91.71,3.29,3.29,0,0,1-.19,1.25,27.47,27.47,0,0,0-1.11,4,.55.55,0,0,0,.59.72,4.67,4.67,0,0,0,2.93-2v-.65a8.51,8.51,0,0,1,.33-2.81,2.12,2.12,0,0,1,1.7-1.37.48.48,0,0,1,.52.52.89.89,0,0,1-.06.39,11.27,11.27,0,0,0-.66,3.46,11,11,0,0,0,.26,2.16c0,.13.07.19.2.19A8.61,8.61,0,0,0,53,43a3,3,0,0,1-1.31-2.67c0-2,1.18-3,2.35-3a1.73,1.73,0,0,1,1.7,2A6.36,6.36,0,0,1,55,42h.26a2,2,0,0,0,1.56-.72,1.71,1.71,0,0,1,.4-.33A5,5,0,0,1,61,39c1.37,0,2.48.52,2.61,1.63a1.44,1.44,0,0,1-1.44,1.7c-.39,0-1-.13-1-.46s.85-.19.78-1c-.06-.52-.65-.78-1.17-.78-1.83,0-3.07,2.41-2.88,4.44.07.78.46,1.56,1.18,1.56s1.44-.85,1.76-2a1.86,1.86,0,0,1,1.57-1.37.46.46,0,0,1,.52.45A13.7,13.7,0,0,1,62.6,45a5.7,5.7,0,0,0-.13,1.37A2.93,2.93,0,0,0,63.25,48a.58.58,0,0,1,.19.32A.38.38,0,0,1,63.05,48.69Z"/></g></svg>