<svg id="Layer_1" data-name="Layer 1" xmlns="http://www.w3.org/2000/svg" viewBox="0 0 80 80"><defs><style>.cls-1,.cls-2{fill:#fff;}.cls-2{fill-rule:evenodd;}</style></defs><title>Icons</title><g id="Layer_3" data-name="Layer 3"><rect class="cls-1" x="10.73" y="8.51" width="12.27" height="62.38" rx="0.51"/><path class="cls-2" d="M56.05,32.28V61.43c-10.47.77-14.58-6.63-14.73-14.18a21.18,21.18,0,0,1,1.8-9.14C45.59,32.85,50.87,31.92,56.05,32.28ZM68.93,64.75V8.26L55.64,8l-.11,14.06s-.42,0-.51,0c-1.61.14-8.51-1.08-15.33,3.58-5.63,3.83-10.82,9.45-11,22C28.48,62.74,38.22,71.27,52.18,72a28.78,28.78,0,0,0,12.05-1.85c.75-.3,2-.83,3.07-1.33,1.53-.71,2.29-1.22,1.84-2.79Z"/></g></svg>