<svg id="Layer_1" data-name="Layer 1" xmlns="http://www.w3.org/2000/svg" viewBox="0 0 80 80"><defs><style>.cls-1{fill:#fff;}</style></defs><title>migration</title><path class="cls-1" d="M22,32c0-2.74,0-5.47,0-8.21,0-.43-.07-.62-.55-.57a5.07,5.07,0,0,1-1,0A1.75,1.75,0,0,1,18.9,20.7q1.83-3.79,3.78-7.55a1.73,1.73,0,0,1,3.12,0q1.95,3.75,3.78,7.56A1.76,1.76,0,0,1,28,23.22h-.14c-.47.05-1.11-.22-1.37.12s-.07.92-.07,1.4c0,5.17,0,10.34,0,15.51,0,.51-.11.66-.63.64-1.08,0-2.16,0-3.24,0-.44,0-.57-.1-.57-.56C22.05,37.54,22,34.76,22,32Z"/><path class="cls-1" d="M48.28,21.07c0-2.78,0-5.56,0-8.34,0-.45.12-.57.56-.56,1.08,0,2.16,0,3.24,0,.53,0,.64.13.63.64,0,5.44,0,10.88,0,16.33,0,.56.11.79.7.7,2.13-.32,3.3,1.24,2.09,3.34s-2.17,4.24-3.22,6.38a1.85,1.85,0,0,1-3.54,0c-1.12-2.28-2.26-4.55-3.4-6.82-.81-1.64,0-2.89,1.81-2.9,1.16,0,1.16,0,1.16-1.18Z"/><path class="cls-1" d="M47.65,59.38a3.42,3.42,0,0,1-.93-.57c-1.17-1-1.27-2.26-1.22-3.63A3.4,3.4,0,0,1,47.62,52a1.63,1.63,0,0,0,1-2.38,3.16,3.16,0,0,1,.08-2.67,1.09,1.09,0,0,0,0-1.14A11.77,11.77,0,0,0,38.5,39.18a11.64,11.64,0,0,0-11,5.69,1.65,1.65,0,0,1-1.66.91,8.77,8.77,0,0,0-8.57,6c-.16.47-.18,1.19-.51,1.36s-.93-.29-1.41-.47a5.51,5.51,0,1,0-1.84,10.71c5.65,0,11.31,0,17,0H47.65c.46,0,.8,0,.72-.63a2.31,2.31,0,0,1,.26-1.13A1.61,1.61,0,0,0,47.65,59.38ZM30.54,50.92c-.43.26-.77.73-1.23.86s-.7-.53-1.07-.79a4.4,4.4,0,0,0-6.73,2.12c-.16.48-.36.61-.81.47a2.63,2.63,0,0,0-.81-.18c-.79,0-.7-.4-.51-1A6.76,6.76,0,0,1,26,48a6.51,6.51,0,0,1,4.61,2.23C30.9,50.51,30.93,50.68,30.54,50.92ZM44.8,48a7.68,7.68,0,0,0-8.21-4.35c-.6.11-.89,0-.93-.63a3.29,3.29,0,0,0-.15-.6c-.23-.83-.23-.83.61-1a7.83,7.83,0,0,1,1.53-.14,10,10,0,0,1,9.57,6.82c.18.53.09.72-.47.79s-1,.43-1.38.3S45,48.44,44.8,48Z"/><path class="cls-1" d="M70.84,53.85a3.72,3.72,0,0,1-1.91-4.69A1.69,1.69,0,0,0,68.41,47a1.65,1.65,0,0,0-2-.46,3.69,3.69,0,0,1-4.72-1.93,1.75,1.75,0,0,0-2-1.13,1.57,1.57,0,0,0-1.67,1.11,3.7,3.7,0,0,1-4.71,2,1.74,1.74,0,0,0-2.17.58,1.6,1.6,0,0,0-.41,2,3.71,3.71,0,0,1-2,4.75,1.63,1.63,0,0,0-1.06,1.84,1.58,1.58,0,0,0,1,1.72,3.73,3.73,0,0,1,2,4.81,1.58,1.58,0,0,0,.45,1.95,1.69,1.69,0,0,0,2.11.56A3.69,3.69,0,0,1,58,66.71,1.72,1.72,0,0,0,60,67.83a1.58,1.58,0,0,0,1.68-1.1,3.71,3.71,0,0,1,4.71-2,1.74,1.74,0,0,0,2.18-.57,1.61,1.61,0,0,0,.4-2,3.74,3.74,0,0,1,1.88-4.7A1.52,1.52,0,0,0,72,55.69,1.53,1.53,0,0,0,70.84,53.85Zm-11,8.45a6.62,6.62,0,1,1,6.63-6.6A6.65,6.65,0,0,1,59.84,62.3Z"/><path class="cls-1" d="M59.87,53.47a2.21,2.21,0,1,1-2.22,2.15A2.21,2.21,0,0,1,59.87,53.47Z"/></svg>