<?xml version="1.0" encoding="utf-8"?>
<!-- Generator: Adobe Illustrator 23.0.2, SVG Export Plug-In . SVG Version: 6.00 Build 0)  -->
<svg version="1.1" id="Layer_1" xmlns="http://www.w3.org/2000/svg" xmlns:xlink="http://www.w3.org/1999/xlink" x="0px" y="0px"
	 viewBox="0 0 80 80" style="enable-background:new 0 0 80 80;" xml:space="preserve">
<style type="text/css">
	.st0{fill:#FFFFFF;}
</style>
<title>cms</title>
<path class="st0" d="M8,51.3c21.1,0,42.2,0,63.2,0c0.6,0,0.7,0.2,0.7,0.7c0.1,1.2-0.1,2.4-0.6,3.5c-1,2-3.1,3.3-5.4,3.2
	c-2.8,0-5.6,0-8.4,0H14c-2.3,0.1-4.5-1.2-5.5-3.2C8.3,55,8.1,54.4,8,53.8V51.3z"/>
<path class="st0" d="M70.1,11.5c-1.2-1-2.8-1.6-4.4-1.5H14.1c-0.2,0-0.3,0-0.5,0c-1.9,0-3.6,1-4.7,2.5C8.3,13.2,8,14.2,8,15.1v32.5
	c0.2,0.2,0.5,0.2,0.8,0.2h9.7c0.9,0,1-0.1,1-1c0-1.5,0-3,0-4.6c-0.1-1,0.7-1.8,1.6-1.9c0.1,0,0.2,0,0.2,0c0.7,0,1.4,0,2.1,0
	s0.9-0.4,1.2-1c0.3-0.5,0.2-1.1-0.2-1.4c-0.5-0.5-1-0.9-1.4-1.4c-0.7-0.6-0.8-1.7-0.2-2.5c0.1-0.1,0.1-0.2,0.2-0.2
	c1.6-1.7,3.3-3.3,5-5c0.6-0.7,1.7-0.8,2.5-0.2c0.1,0.1,0.1,0.1,0.2,0.2c0.5,0.5,1,1,1.5,1.5c0.4,0.4,0.9,0.4,1.4,0.1
	c0.5-0.2,1-0.5,1-1.1s0-1.4,0-2.1c-0.1-1,0.6-1.8,1.5-1.9c0.1,0,0.2,0,0.4,0c2.4,0,4.7,0,7,0c1-0.1,1.8,0.6,1.9,1.6
	c0,0.1,0,0.2,0,0.3c0,0.7,0,1.4,0,2.1s0.5,0.9,1,1.1c0.4,0.3,1,0.2,1.4-0.1c0.5-0.5,1-1,1.5-1.5c0.6-0.8,1.7-0.9,2.5-0.2
	c0.1,0.1,0.2,0.2,0.2,0.2c1.6,1.6,3.3,3.3,4.9,4.9c0.8,0.6,0.9,1.7,0.3,2.5c-0.1,0.1-0.2,0.2-0.3,0.3l-1.3,1.3
	c-0.5,0.3-0.6,1-0.3,1.5c0.3,0.6,0.5,1.1,1.3,1c0.5,0,0.9,0,1.4,0h0.6c1-0.1,1.8,0.7,1.9,1.6c0,0.1,0,0.2,0,0.3c0,1.6,0,3.2,0,4.7
	c0,0.7,0.2,0.8,0.8,0.9h9.9c0.8,0,0.8-0.1,0.8-0.7c0-10.5,0-21,0-31.5C72,13.9,71.3,12.5,70.1,11.5z M58.6,28.9
	c-3.1,0-5.6-2.6-5.6-5.7s2.6-5.6,5.7-5.6c3.1,0,5.6,2.6,5.6,5.6C64.3,26.4,61.7,28.9,58.6,28.9z"/>
<path class="st0" d="M39.9,70.1H21.7c-0.3,0-0.6,0-0.9,0c-1-0.2-1.6-1.2-1.4-2.2c0.2-0.8,0.9-1.4,1.8-1.4c1.8,0,3.7,0,5.5,0
	c0.4,0.1,0.8-0.2,0.8-0.6c0,0,0-0.1,0-0.1c0.3-0.9,0.6-1.8,0.9-2.7c0-0.3,0.3-0.4,0.6-0.4h21.9c0.3,0,0.5,0.1,0.6,0.4c0,0,0,0,0,0
	c0.3,0.9,0.6,1.8,0.9,2.7c0,0.4,0.4,0.7,0.8,0.6c0,0,0,0,0.1,0c1.7,0,3.5,0,5.2,0c1-0.2,2,0.6,2.1,1.6c0.2,1-0.6,2-1.6,2.1
	c-0.2,0-0.4,0-0.5,0L39.9,70.1z"/>
<path class="st0" d="M26.9,47.6c-1.1,0-2.2,0-3.4,0c-0.3,0-0.5-0.1-0.5-0.4c0-1,0-2,0-2.9c0-0.3,0.1-0.4,0.4-0.4c0.6,0,1.2,0,1.8,0
	c1,0.1,1.8-0.5,2-1.5c0.3-1.1,0.8-2.2,1.3-3.2c0.5-0.8,0.4-1.9-0.4-2.5c-0.4-0.4-0.8-0.9-1.3-1.3c-0.2-0.2-0.3-0.3,0-0.5
	c0.7-0.7,1.5-1.4,2.2-2.2c0.2-0.2,0.3-0.2,0.5,0c0.4,0.4,0.8,0.9,1.3,1.3c0.6,0.8,1.7,1,2.5,0.4c1-0.5,2.1-1,3.2-1.3
	c0.9-0.2,1.6-1.1,1.5-2c0-0.6,0-1.2,0-1.8c0-0.3,0.1-0.4,0.4-0.4c1,0,2,0,2.9,0c0.3,0,0.4,0.1,0.4,0.4c0,0.6,0,1.2,0,1.8
	c-0.1,0.9,0.5,1.8,1.5,2c1.1,0.3,2.2,0.8,3.2,1.3c0.8,0.5,1.9,0.3,2.5-0.4c0.5-0.4,0.9-0.9,1.3-1.3c0.2-0.2,0.3-0.2,0.5,0
	c0.7,0.7,1.4,1.5,2.2,2.2c0.2,0.2,0.2,0.3,0,0.5c-0.5,0.4-0.9,0.9-1.3,1.3c-0.7,0.6-0.9,1.6-0.4,2.4c0.6,1.1,1,2.2,1.4,3.3
	c0.2,0.9,1.1,1.5,2,1.4h1.7c0.3,0,0.4,0,0.4,0.4c0,1,0,2,0,3c0,0.3-0.1,0.4-0.4,0.4c-2.3,0-4.6,0-6.9,0c-0.3,0-0.4,0-0.4-0.4
	c0.9-5-2.5-9.8-7.5-10.7c-5.1-0.9-9.9,2.4-10.9,7.5c-0.2,1-0.2,2.1,0,3.1c0.1,0.5-0.1,0.5-0.5,0.5C29.2,47.6,28,47.6,26.9,47.6z"/>
<path class="st0" d="M39.9,47.6c-1.6,0-3.1,0-4.7,0c-0.5,0-0.6-0.2-0.7-0.6c-0.6-2.3,0.3-4.7,2.3-6c2-1.3,4.5-1.2,6.4,0.2
	c1.9,1.3,2.7,3.7,2.1,5.9c-0.1,0.4-0.2,0.5-0.6,0.5C43.1,47.6,41.5,47.6,39.9,47.6z"/>
<path class="st0" d="M60.6,23.3c0,1-0.9,1.9-1.9,1.8c-1,0-1.9-0.9-1.8-1.9s0.9-1.9,1.9-1.8c0,0,0,0,0,0
	C59.8,21.4,60.6,22.2,60.6,23.3z"/>
</svg>
