<svg id="Layer_1" data-name="Layer 1" xmlns="http://www.w3.org/2000/svg" viewBox="0 0 64.01 64"><defs><style>.cls-1{fill:#fff;}</style></defs><title>Module-Development</title><path class="cls-1" d="M8,45.05c.19-.08.31.07.45.14l14.1,7a.67.67,0,0,1,.46.69c0,6.22,0,12.44,0,18.66V72l-1.43-.78c-4-2.26-8.07-4.54-12.12-6.78A2.77,2.77,0,0,1,8,62.9Z" transform="translate(-8 -8)"/><path class="cls-1" d="M40.5,8.1,50,13l4.38,2.23a1.18,1.18,0,0,1,.53.34c-4.62,2.31-9.23,4.59-13.81,6.93a2.14,2.14,0,0,1-2.21,0c-4.58-2.34-9.19-4.62-13.78-6.91,0-.2.21-.22.33-.28L39,8.38A1.49,1.49,0,0,1,40.5,8.1Z" transform="translate(-8 -8)"/><path class="cls-1" d="M57,72c0-5.9,0-11.7,0-17.51,0-.68-.26-1.49.1-2s1.13-.65,1.72-.94l12.54-6.26L72,45v.53c0,5.56,0,11.11,0,16.67a2.14,2.14,0,0,1-1.17,2.09q-6.78,3.78-13.54,7.58Z" transform="translate(-8 -8)"/><path class="cls-1" d="M23.14,18.84a1.06,1.06,0,0,1,.6.22L37.61,26a.79.79,0,0,1,.52.84c0,4.61,0,9.23,0,13.84-.23.09-.38-.07-.53-.15l-14-7c-.28-.14-.51-.24-.5-.67,0-4.57,0-9.15,0-13.72C23.12,19,23.13,18.94,23.14,18.84Z" transform="translate(-8 -8)"/><path class="cls-1" d="M41.87,40.74c0-4.79,0-9.49,0-14.19,0-.42.29-.45.53-.57l13.09-6.54,1.39-.69v14c0,.32,0,.55-.37.74-4.78,2.36-9.55,4.75-14.32,7.13C42.11,40.65,42,40.67,41.87,40.74Z" transform="translate(-8 -8)"/><path class="cls-1" d="M26.87,72V53c0-.29,0-.52.34-.7q5.35-2.64,10.69-5.32a.27.27,0,0,1,.13,0c.17.09.09.25.09.38q0,8.88,0,17.77a.68.68,0,0,1-.36.7q-5.33,3-10.64,6.1Z" transform="translate(-8 -8)"/><path class="cls-1" d="M41.91,46.85l4.68,2.33,6.12,3.06c.22.11.42.18.42.52q0,9.57,0,19.14c-.23.06-.37-.1-.52-.19-3.44-2-6.87-3.95-10.31-5.91a.67.67,0,0,1-.43-.66c0-6,0-12,0-18C41.87,47.06,41.89,47,41.91,46.85Z" transform="translate(-8 -8)"/><path class="cls-1" d="M10.1,41.75c.1-.21.28-.24.43-.31l9.86-4.92a.7.7,0,0,1,.74-.06l14.36,7.19.2.11c-.09.2-.25.22-.37.28l-9.91,5a.81.81,0,0,1-.81,0Z" transform="translate(-8 -8)"/><path class="cls-1" d="M44.19,43.8l4.9-2.45,9.64-4.81a.77.77,0,0,1,.8-.07l10,5c.12.07.29.09.33.28L55.3,49a.51.51,0,0,1-.52.05C51.3,47.34,47.81,45.6,44.19,43.8Z" transform="translate(-8 -8)"/></svg>