<svg id="Layer_1" data-name="Layer 1" xmlns="http://www.w3.org/2000/svg" viewBox="0 0 80 80"><defs><style>.cls-1{fill:#fff;}</style></defs><title>saas</title><path class="cls-1" d="M66.76,41.56a1,1,0,0,1-.49-1.1,10.62,10.62,0,0,0-12.39-11.8c-.78.14-.78.14-.9-.65a13.12,13.12,0,0,0-24.8-3.69c-.19.4-.37.47-.79.37a10.6,10.6,0,0,0-13,11.6.71.71,0,0,1-.32.78,14.19,14.19,0,0,0-5.74,8.76c-.08.39,0,.82-.29,1.17v.87a1,1,0,0,1,0,.75v1.75a4.57,4.57,0,0,1,.32,1.36A14.5,14.5,0,0,0,22.49,63.11c12.56,0,25.12,0,37.68,0A11.6,11.6,0,0,0,62,63a11.94,11.94,0,0,0,9.69-9.17A11.69,11.69,0,0,0,66.76,41.56ZM24.94,51.47c-2.49,1.77-6.17.71-7.8-1.27a1.2,1.2,0,0,1,.12-1.64,1.22,1.22,0,0,1,1.74,0,4.38,4.38,0,0,0,2.4,1.23,2.67,2.67,0,0,0,2.09-.4,1.22,1.22,0,0,0,0-2.19A19.8,19.8,0,0,0,20.67,46c-.34-.16-.69-.27-1-.42a3.47,3.47,0,0,1-.79-5.94,5.17,5.17,0,0,1,3.27-1,5.76,5.76,0,0,1,3.51,1.27A1.33,1.33,0,0,1,26,41.83c-.5.61-1.2.58-2,0a3.18,3.18,0,0,0-3.18-.48A1.16,1.16,0,0,0,20,42.45c0,.52.35.75.79.92l2.83,1.13A4.61,4.61,0,0,1,26.41,47,3.76,3.76,0,0,1,24.94,51.47Zm12.36.89c-.68.11-1.18-.29-1.48-1.18a5.12,5.12,0,0,1-4.12.43,5,5,0,0,1-2.65-2,5.11,5.11,0,0,1,6.77-7.33c.29-.9.8-1.29,1.48-1.18s1.07.64,1.07,1.52v8.17C38.37,51.71,38,52.25,37.3,52.36Zm11.89,0c-.69.11-1.17-.27-1.51-1.18a5.11,5.11,0,1,1,0-8.86c.29-.89.78-1.28,1.46-1.19s1.08.66,1.08,1.58c0,2.66,0,5.32,0,8C50.24,51.69,49.9,52.24,49.19,52.36Zm10.37-.67A6.11,6.11,0,0,1,53,51.07a6.64,6.64,0,0,1-.7-.61,1.27,1.27,0,0,1-.12-1.88,1.24,1.24,0,0,1,1.83.08,4.21,4.21,0,0,0,2.36,1.17,2.7,2.7,0,0,0,2-.36,1.23,1.23,0,0,0,0-2.26A20.81,20.81,0,0,0,55.66,46a6.58,6.58,0,0,0-.87-.35,3.41,3.41,0,0,1-2.31-3.47,3.77,3.77,0,0,1,2.66-3.28,5.22,5.22,0,0,1,1.84-.3A5.65,5.65,0,0,1,60.66,40,1.29,1.29,0,0,1,61,41.86c-.49.57-1.2.54-1.92,0a3.16,3.16,0,0,0-3.18-.51A1.14,1.14,0,0,0,55,42.42c0,.57.36.78.82,1,1,.37,1.89.74,2.83,1.13a4.52,4.52,0,0,1,2.8,2.67A3.82,3.82,0,0,1,59.56,51.69Z"/><path class="cls-1" d="M35.87,46.77a2.62,2.62,0,1,1-2.61-2.64A2.63,2.63,0,0,1,35.87,46.77Z"/><path class="cls-1" d="M45.18,44.13a2.62,2.62,0,1,1-2.67,2.58A2.63,2.63,0,0,1,45.18,44.13Z"/></svg>