<svg id="Layer_1" data-name="Layer 1" xmlns="http://www.w3.org/2000/svg" viewBox="0 0 80 80"><defs><style>.cls-1{fill:#fff;}</style></defs><title>web-portal</title><path class="cls-1" d="M72,18.34a7.57,7.57,0,0,0-3.79-6.62,8.75,8.75,0,0,0-4.89-1.25H16.93a13.63,13.63,0,0,0-2.3.18,8.06,8.06,0,0,0-4.76,2.64A7,7,0,0,0,8,17.53V62.47a.48.48,0,0,1,.07.24,6.75,6.75,0,0,0,2.52,4.7,8.5,8.5,0,0,0,6,2.12H62.81a16.06,16.06,0,0,0,2.3-.15A8,8,0,0,0,72,61.66Q71.94,40,72,18.34Zm-34.67.34a2.67,2.67,0,1,1-2.69,2.64A2.69,2.69,0,0,1,37.32,18.68Zm-8,0a2.67,2.67,0,1,1-2.67,2.66A2.69,2.69,0,0,1,29.31,18.68Zm-8,0a2.67,2.67,0,1,1-2.69,2.64A2.69,2.69,0,0,1,21.34,18.68ZM63.48,64q-23.5-.06-47,0a2.94,2.94,0,0,1-3.17-3.13c.06-9.41,0-18.81,0-28.22,0-.58.18-.65.69-.65H40c8.65,0,17.31,0,26,0,.58,0,.66.17.66.69,0,9.4,0,18.81,0,28.21A2.93,2.93,0,0,1,63.48,64Z"/><path class="cls-1" d="M40,37.35c6.06,0,12.12,0,18.17,0a2.89,2.89,0,0,1,3.11,3.12c0,5,0,10.07,0,15.11,0,2-1,3.07-3.06,3.07H21.7c-2,0-3.06-1-3.06-3.07V40.39a2.71,2.71,0,0,1,3-3Z"/></svg>