<svg id="Layer_1" data-name="Layer 1" xmlns="http://www.w3.org/2000/svg" viewBox="0 0 700 640"><defs><style>.cls-1{fill:#eefffd;}.cls-2{fill:#d6f8f5;}.cls-3{fill:#054641;}.cls-12,.cls-4{fill:#fff;}.cls-5{fill:#376b67;}.cls-6{fill:#1e5954;}.cls-7{fill:#34dacd;}.cls-16,.cls-8{fill:#e1e1e1;}.cls-8{opacity:0.81;}.cls-9{fill:#00dfbf;}.cls-10,.cls-20{opacity:0.15;}.cls-11{fill:#043834;}.cls-12{opacity:0.9;}.cls-13{opacity:0.4;}.cls-14{fill:#f0f0f0;}.cls-15,.cls-18{fill:#375a64;}.cls-15,.cls-17,.cls-28{opacity:0.5;}.cls-19,.cls-20{fill:#5de1d7;}.cls-19,.cls-39{opacity:0.1;}.cls-21{fill:#ffaaa8;}.cls-22{fill:#00dfdf;}.cls-23{opacity:0.3;}.cls-24{fill:#1f3238;}.cls-25{fill:#1a2e35;}.cls-26{fill:#142329;}.cls-27{fill:#ff9090;}.cls-29{fill:#da5a64;}.cls-30{fill:#ffbea7;}.cls-31{fill:#008fbf;}.cls-32{opacity:0.2;}.cls-33{opacity:0.6;}.cls-34{fill:#d15b66;}.cls-35{fill:#b82635;}.cls-36{fill:#e7e7e7;}.cls-37{fill:#ff9875;}.cls-38{opacity:0.25;}.cls-40{fill:#ffc2c9;}.cls-41{fill:#f7918f;}.cls-42{fill:#8a3433;}</style></defs><title>Illustration</title><ellipse id="Floor" class="cls-1" cx="350" cy="454.23" rx="317.44" ry="183.27"/><ellipse id="Shadow" class="cls-2" cx="404.34" cy="521.3" rx="58.37" ry="33.7"/><ellipse id="Shadow-2" data-name="Shadow" class="cls-2" cx="556.19" cy="501.34" rx="58.37" ry="33.7"/><ellipse id="Shadow-3" data-name="Shadow" class="cls-2" cx="236.92" cy="571.82" rx="58.37" ry="33.7"/><g id="Plants"><path class="cls-3" d="M141.23,461s-1.53-35.63-16.46-55.46-33.25-22.68-42.34-17.1c-6.62,4.06-5.73,16.13,5.74,24s33.56,27.95,37,41Z"/><path class="cls-4" d="M131.43,455.82a.93.93,0,0,1-.87-1c1.54-32.33-26.83-52.49-34.51-56.12a.92.92,0,1,1,.78-1.67c7.92,3.74,37.16,24.53,35.58,57.88a.93.93,0,0,1-1,.88Z"/><path class="cls-5" d="M134.14,449.76c-2.08-.3-4.09-.67-5.45-2.17-1.74-1.92-1.59-4.83-2.39-7.29-1.32-4-5.3-6.77-9.45-7.64s-8.46-.15-12.58.86c-8.32,2-16.32-3.08-24.66-2.47a16.6,16.6,0,0,0-8.44,2.64,9,9,0,0,0-4,7.56,9.65,9.65,0,0,0,3.43,6.42,28.66,28.66,0,0,0,6.32,3.95q3.66,1.86,7.31,3.73a13.28,13.28,0,0,1,3.41,2.2,9.72,9.72,0,0,1,2.55,7.8c-.56,2.79-2.85,5-3.53,7.73-.9,3.63,1.32,7.51,4.51,9.47s7.1,2.33,10.83,2.12,7.43-1,11.17-1a13.21,13.21,0,0,1,7.28,1.58c2.61,1.62,4.13,4.54,5.12,7.45a19.69,19.69,0,0,0,2.29,5.44,10.61,10.61,0,0,0,5,3.46,17,17,0,0,0,11.65,0c3.08-1.18,4.59-4.66,5.74-7.68A26.54,26.54,0,0,0,151.8,484a63.19,63.19,0,0,0-5.73-25c-1.74-3.61-4.26-7.22-8.07-8.47A23.32,23.32,0,0,0,134.14,449.76Z"/><path class="cls-4" d="M142.22,488.5a.83.83,0,0,1-.78-.55C132.74,463,91.56,441.28,76.5,438.8a.83.83,0,1,1,.27-1.63c15.34,2.54,57.33,24.72,66.22,50.23a.81.81,0,0,1-.5,1.05A.65.65,0,0,1,142.22,488.5Z"/><path class="cls-4" d="M105.21,474.84a.81.81,0,0,1-.65-.32.83.83,0,0,1,.15-1.16A41.67,41.67,0,0,1,127.58,466h0a.83.83,0,0,1,0,1.65,40.54,40.54,0,0,0-21.91,7A.86.86,0,0,1,105.21,474.84Z"/></g><path class="cls-6" d="M142.65,507.81a6.82,6.82,0,0,1-3-5.4v-294a7,7,0,0,1,3.19-5.51L488.67,3.3a6.82,6.82,0,0,1,6.17-.12,6.82,6.82,0,0,1,3,5.4v294a7.06,7.06,0,0,1-3.18,5.51L148.82,507.7A6.85,6.85,0,0,1,142.65,507.81Z"/><path class="cls-7" d="M148.21,508a.35.35,0,0,1-.13,0,1.28,1.28,0,0,1-.31.11l-.23.08a2,2,0,0,1-.45.1.88.88,0,0,1-.29.06,3.7,3.7,0,0,1-.48.07,6.14,6.14,0,0,1-3.66-.63,6.78,6.78,0,0,1-3-5.39V246.14l6,3.46V505.86c0,1.44.72,2.27,1.76,2.27a1.58,1.58,0,0,0,.43-.05.1.1,0,0,0,.07,0A.85.85,0,0,0,148.21,508Z"/><path class="cls-8" d="M148.21,508a.35.35,0,0,1-.13,0,1.28,1.28,0,0,1-.31.11l-.23.08a2,2,0,0,1-.45.1.88.88,0,0,1-.29.06,3.7,3.7,0,0,1-.48.07,6.14,6.14,0,0,1-3.66-.63,6.78,6.78,0,0,1-3-5.39V246.14l6,3.46V505.86c0,1.44.72,2.27,1.76,2.27a1.58,1.58,0,0,0,.43-.05.1.1,0,0,0,.07,0A.85.85,0,0,0,148.21,508Z"/><polygon class="cls-9" points="145.64 249.6 139.66 246.14 139.66 303.06 145.64 306.54 145.64 249.6"/><polygon class="cls-10" points="145.64 249.6 139.66 246.14 139.66 303.06 145.64 306.54 145.64 249.6"/><path class="cls-11" d="M146.57,208.77a6.43,6.43,0,0,0-.93,3.13v37.7l-6-3.46V208.46c0-.13,0-.25,0-.38a7.27,7.27,0,0,1,.14-.79,7.6,7.6,0,0,1,.79-2Z"/><path class="cls-3" d="M497.82,8.57v17L244.32,171.93c-1.75,1-3.17.19-3.17-1.84v-6.44c0-2-1.43-2.85-3.19-1.83l-77.2,44.57a7,7,0,0,0-3.19,5.51v6.44a7,7,0,0,1-3.17,5.51l-8.76,5.05v-17a7,7,0,0,1,3.17-5.51L494.64,6.74C496.39,5.72,497.82,6.55,497.82,8.57Z"/><path class="cls-9" d="M497.83,302.53a7,7,0,0,1-3.19,5.51L148.81,507.69c-1.75,1-3.17.19-3.17-1.83v-277l8.76-5.05c1.75-1,4.6-16.45,6.36-17.46l75.91-43.83c1.76-1,5.9,10.38,7.65,9.37L497.82,25.58v277Z"/><path class="cls-12" d="M497.83,302.53a7,7,0,0,1-3.19,5.51L148.81,507.69c-1.75,1-3.17.19-3.17-1.83v-277l8.76-5.05c1.75-1,4.6-16.45,6.36-17.46l75.91-43.83c1.76-1,5.9,10.38,7.65,9.37L497.82,25.58v277Z"/><g class="cls-13"><path class="cls-9" d="M496.82,27.31V302.53a6,6,0,0,1-2.69,4.65L148.31,506.83a1.81,1.81,0,0,1-.91.3c-.66,0-.76-.8-.76-1.27V229.48l8.26-4.77c1.11-.64,1.92-3.19,3.63-9.29.84-3,2.1-7.51,2.77-8.19l75.62-43.66a24.45,24.45,0,0,1,2.72,4.18c2,3.44,3,5.24,4.45,5.24a1.43,1.43,0,0,0,.73-.2l252-145.48m1-1.73L244.32,171.93a.46.46,0,0,1-.23.06c-1.78,0-5.39-9.49-7.18-9.49a.48.48,0,0,0-.24.06l-75.91,43.83c-1.76,1-4.61,16.44-6.36,17.46l-8.76,5.05v277c0,1.44.72,2.27,1.76,2.27a2.8,2.8,0,0,0,1.41-.44L494.64,308a7,7,0,0,0,3.19-5.51V25.58Z"/></g><polygon class="cls-7" points="145.64 249.6 145.64 306.54 497.82 103.24 497.82 46.27 145.64 249.6"/><path class="cls-14" d="M497.82,25.58V46.27L145.64,249.6V228.9l6.54-3.78c1.75-1,2.34-2.56,3.17-5.52l2.22-7.7c.7-2.67,1.43-4.5,3.19-5.51l75.91-43.83c1.76-1,3.14-1.12,4.48,1.09l2.72,4.94c1,1.73,1.5,2.74,3.25,1.73Z"/><path class="cls-7" d="M482.9,19.24c2.21-1.28,4-.24,4,2.31a8.85,8.85,0,0,1-4,6.93c-2.21,1.28-4,.25-4-2.31A8.84,8.84,0,0,1,482.9,19.24Z"/><path class="cls-7" d="M468.49,27.55c2.21-1.28,4-.24,4,2.31a8.84,8.84,0,0,1-4,6.93c-2.21,1.28-4,.25-4-2.31A8.86,8.86,0,0,1,468.49,27.55Z"/><path class="cls-7" d="M454.07,35.86c2.21-1.28,4-.24,4,2.31a8.88,8.88,0,0,1-4,6.94c-2.21,1.27-4,.24-4-2.32A8.85,8.85,0,0,1,454.07,35.86Z"/><path class="cls-15" d="M160.23,230.4l-5,2.88,1.9-3.66a.91.91,0,0,0,0-.9c-.14-.17-.4-.05-.57.27l-2.7,5.21v0c0,.06-.05.13-.08.2a.14.14,0,0,1,0,.06,1.24,1.24,0,0,0,0,.27.8.8,0,0,0,0,.23l0,0a.35.35,0,0,0,.08.11h0l2.7,2.09a.24.24,0,0,0,.27,0,.84.84,0,0,0,.3-.39c.15-.34.13-.72,0-.85l-1.9-1.46,5-2.89a1,1,0,0,0,.41-.85C160.64,230.44,160.46,230.27,160.23,230.4Z"/><path class="cls-15" d="M164.41,228l5-2.89-1.9-1.46c-.17-.13-.19-.51,0-.85s.4-.52.57-.39l2.71,2.09h0a.24.24,0,0,1,.08.11l0,0a.8.8,0,0,1,0,.23,1.24,1.24,0,0,1,0,.27.14.14,0,0,0,0,.06,1.19,1.19,0,0,1-.08.2v0L168,230.63a.67.67,0,0,1-.27.3.22.22,0,0,1-.3,0,.91.91,0,0,1,0-.9l1.9-3.66-5,2.88c-.23.13-.41,0-.41-.38A1,1,0,0,1,164.41,228Z"/><path class="cls-15" d="M180.79,213.6c0-.3-.29-.26-.42.07l-.69,1.67c-1.16-.13-2.58,1-3.53,3-1.24,2.62-1.24,5.72,0,6.91a1.76,1.76,0,0,0,2.24.13,6,6,0,0,0,2.24-2.72.83.83,0,0,0,0-.87c-.15-.15-.41,0-.56.32-.93,2-2.43,2.83-3.36,1.94s-.92-3.2,0-5.16c.66-1.39,1.61-2.21,2.43-2.26l-.51,1.26c-.14.32,0,.63.2.49l2-1.33a.64.64,0,0,0,.23-.56Z"/><path class="cls-15" d="M234.48,172l1.82-3.86a1.2,1.2,0,0,0,0-1.2c-.22-.2-.57,0-.78.45l-1.82,3.86-1.82-1.76c-.22-.2-.57,0-.78.45a1.15,1.15,0,0,0,0,1.2l1.82,1.76-1.82,3.85a1.15,1.15,0,0,0,0,1.2.3.3,0,0,0,.39,0,1.15,1.15,0,0,0,.39-.48l1.82-3.85,1.82,1.75a.31.31,0,0,0,.39,0,1.05,1.05,0,0,0,.39-.47,1.2,1.2,0,0,0,0-1.2Z"/><path class="cls-4" d="M187.42,218.34V211.9a7.06,7.06,0,0,1,3.18-5.51L476.73,41.28c1.76-1,3.19-.19,3.19,1.84v6.43a7.06,7.06,0,0,1-3.19,5.52L190.6,220.18C188.85,221.19,187.42,220.37,187.42,218.34Z"/><path class="cls-16" d="M472.41,55.43a.6.6,0,0,1-.24,0,.73.73,0,0,1-.4-.82l.32-2.67v0l-1.29-.93a.76.76,0,0,1-.29-.61,1.3,1.3,0,0,1,.48-1l1.87-1.44a.44.44,0,0,0,.12-.22l.84-2.74a1,1,0,0,1,.82-.79.62.62,0,0,1,.61.36h0l.75,1.61,1.7-.65a.61.61,0,0,1,.69.15,1,1,0,0,1,0,1.14l-1.36,2.54a.38.38,0,0,0-.05.23l.31,2.3a1.28,1.28,0,0,1-.36,1,.74.74,0,0,1-.63.25l-1.67-.2-1.62,2.17A.84.84,0,0,1,472.41,55.43Zm-1.05-5.13,1.29.93a.82.82,0,0,1,.28.76l-.27,2.2,1.4-1.77a.78.78,0,0,1,.71-.36l1.68.21s.07-.22.05-.34l-.32-2.29a1.3,1.3,0,0,1,.15-.74l1.35-2.54-1.54.59a.6.6,0,0,1-.8-.32l-.7-1.48v0l-.83,2.74a1.3,1.3,0,0,1-.42.63L471.51,50A.53.53,0,0,0,471.36,50.3Z"/><g class="cls-17"><path class="cls-18" d="M483.67,40.49a1.1,1.1,0,0,1-.55-2.05l8.95-5.17a1.1,1.1,0,0,1,1.51.4,1.11,1.11,0,0,1-.41,1.51l-8.95,5.17A1.1,1.1,0,0,1,483.67,40.49Z"/><path class="cls-18" d="M483.67,45.67a1.11,1.11,0,0,1-1-.56,1.1,1.1,0,0,1,.41-1.5l8.95-5.17a1.1,1.1,0,1,1,1.1,1.91l-8.95,5.17A1.11,1.11,0,0,1,483.67,45.67Z"/><path class="cls-18" d="M483.67,50.84a1.12,1.12,0,0,1-1-.55,1.11,1.11,0,0,1,.41-1.51l8.95-5.17a1.1,1.1,0,1,1,1.1,1.91l-8.95,5.17A1.11,1.11,0,0,1,483.67,50.84Z"/></g><polygon class="cls-16" points="145.64 228.9 145.64 249.6 139.66 246.14 139.66 225.47 145.64 228.9"/><path class="cls-3" d="M387.25,151.88a.24.24,0,0,1-.32,0,.52.52,0,0,1-.15-.43,1.56,1.56,0,0,1,.05-.33l5.36-25.2a2.31,2.31,0,0,1,.26-.75,1.34,1.34,0,0,1,.52-.56l2.43-1.4c.22-.13.39-.14.51,0a1,1,0,0,1,.27.45l5.36,19c0,.11,0,.21,0,.3a1.37,1.37,0,0,1-.13.59.92.92,0,0,1-.31.39L399.18,145c-.21.12-.36.14-.46,0a.67.67,0,0,1-.19-.31l-1-3.58L390.88,145l-1.05,4.78a2.07,2.07,0,0,1-.19.54,1.1,1.1,0,0,1-.45.48Zm4.41-11.32,5-2.91-2.54-9.13Z"/><path class="cls-3" d="M409.78,139.22a3.09,3.09,0,0,1-2.15.55,2.33,2.33,0,0,1-1.42-.93v1.27a1.58,1.58,0,0,1-.14.67,1,1,0,0,1-.39.46l-1.76,1a.3.3,0,0,1-.38,0,.7.7,0,0,1-.15-.5V119.05a1.63,1.63,0,0,1,.15-.67,1.06,1.06,0,0,1,.38-.46l1.89-1.09c.17-.09.3-.09.39,0a.7.7,0,0,1,.15.5V125a11.68,11.68,0,0,1,1.39-2.43,6.81,6.81,0,0,1,2-1.81,3.3,3.3,0,0,1,2-.56,2.11,2.11,0,0,1,1.46.89,5.54,5.54,0,0,1,.9,2.06,13.85,13.85,0,0,1,.34,3c0,.4,0,.77,0,1.1s0,.71,0,1.13a21.57,21.57,0,0,1-.36,3.47,16.1,16.1,0,0,1-.89,3.11,10.57,10.57,0,0,1-1.45,2.53A7.2,7.2,0,0,1,409.78,139.22ZM409,136a3.9,3.9,0,0,0,1.49-1.5,7,7,0,0,0,.78-2.11,14.68,14.68,0,0,0,.29-2.43c0-.69,0-1.38,0-2.05a9.41,9.41,0,0,0-.29-2.1,1.92,1.92,0,0,0-.78-1.21c-.35-.22-.85-.14-1.49.23a4,4,0,0,0-1.45,1.45,7.75,7.75,0,0,0-.84,2.05,9.15,9.15,0,0,0-.31,2.15c0,.42,0,.86,0,1.33s0,.9,0,1.31a8,8,0,0,0,.3,1.9,1.88,1.88,0,0,0,.82,1.18A1.46,1.46,0,0,0,409,136Z"/><path class="cls-3" d="M422.13,132.09a4.43,4.43,0,0,1-3,.77,2.64,2.64,0,0,1-1.85-1.65,9.67,9.67,0,0,1-.72-3.66c0-.4,0-.9,0-1.49s0-1.1,0-1.52a16.91,16.91,0,0,1,.74-4.53,12.91,12.91,0,0,1,1.87-3.77,9.6,9.6,0,0,1,2.95-2.66,4.24,4.24,0,0,1,2.95-.74,2.7,2.7,0,0,1,1.87,1.61,9.27,9.27,0,0,1,.75,3.66c0,.4,0,.9,0,1.5s0,1.1,0,1.52a17.57,17.57,0,0,1-.73,4.49,12.33,12.33,0,0,1-1.85,3.78A9.64,9.64,0,0,1,422.13,132.09Zm0-3.4a4.41,4.41,0,0,0,1.83-2.2,10.6,10.6,0,0,0,.71-3.78c0-.36,0-.81,0-1.35s0-1,0-1.33a5.12,5.12,0,0,0-.71-3c-.44-.52-1-.55-1.83-.1a4.48,4.48,0,0,0-1.83,2.21,10.6,10.6,0,0,0-.71,3.78c0,.35,0,.8,0,1.35s0,1,0,1.33a5.15,5.15,0,0,0,.71,3C420.74,129.12,421.34,129.15,422.13,128.69Z"/><path class="cls-3" d="M434.48,125a2.73,2.73,0,0,1-2.34.42,2.83,2.83,0,0,1-1.53-1.8,11.13,11.13,0,0,1-.53-3.78v-9.63a1.64,1.64,0,0,1,.15-.68,1,1,0,0,1,.38-.45l2-1.13a.29.29,0,0,1,.39,0,.7.7,0,0,1,.14.5v9.42q0,4.26,2.43,2.85a4.56,4.56,0,0,0,1.84-2.19,8.55,8.55,0,0,0,.68-3.51v-9.42a1.64,1.64,0,0,1,.15-.68,1.06,1.06,0,0,1,.38-.46l2-1.13a.31.31,0,0,1,.38,0,.71.71,0,0,1,.15.5V120a1.64,1.64,0,0,1-.15.68,1.06,1.06,0,0,1-.38.46l-1.8,1c-.17.09-.3.09-.39,0a.7.7,0,0,1-.15-.5v-1.4a11.76,11.76,0,0,1-1.49,2.74A7.06,7.06,0,0,1,434.48,125Z"/><path class="cls-3" d="M449.24,116.09a3.3,3.3,0,0,1-2.24.58,1.91,1.91,0,0,1-1.36-1.36,9.48,9.48,0,0,1-.45-3.29v-7.78l-1.76,1a.27.27,0,0,1-.37,0,.67.67,0,0,1-.16-.52v-2a1.5,1.5,0,0,1,.16-.67,1,1,0,0,1,.37-.46l1.76-1V94.92a1.59,1.59,0,0,1,.15-.67.9.9,0,0,1,.39-.46l1.8-1a.29.29,0,0,1,.38,0,.67.67,0,0,1,.15.49V99l2.79-1.61a.3.3,0,0,1,.37,0,.65.65,0,0,1,.16.5v2a1.57,1.57,0,0,1-.16.71,1,1,0,0,1-.37.46l-2.79,1.6V110a4.45,4.45,0,0,0,.33,2c.21.4.59.44,1.12.14l1.54-.89a.29.29,0,0,1,.38,0,.68.68,0,0,1,.15.49v2.13a1.59,1.59,0,0,1-.15.67,1.13,1.13,0,0,1-.38.46Z"/><path class="cls-3" d="M463,108.52a2.73,2.73,0,0,1-2.34.41,2.81,2.81,0,0,1-1.53-1.79,11,11,0,0,1-.53-3.79V93.72a1.59,1.59,0,0,1,.15-.67,1,1,0,0,1,.38-.46l2-1.13a.29.29,0,0,1,.39,0,.71.71,0,0,1,.14.5v9.43q0,4.25,2.43,2.85a4.64,4.64,0,0,0,1.84-2.2,8.55,8.55,0,0,0,.68-3.51V89.12a1.59,1.59,0,0,1,.15-.67,1,1,0,0,1,.38-.46l2-1.13a.29.29,0,0,1,.38,0,.67.67,0,0,1,.15.49v16.18a1.59,1.59,0,0,1-.15.67,1.06,1.06,0,0,1-.38.46l-1.8,1c-.17.09-.3.09-.39,0a.68.68,0,0,1-.15-.49V103.8a11.83,11.83,0,0,1-1.49,2.75A7.3,7.3,0,0,1,463,108.52Z"/><path class="cls-3" d="M476.87,100.48a5.44,5.44,0,0,1-2.28.84A2.58,2.58,0,0,1,473,101a2.39,2.39,0,0,1-.89-.93,2.32,2.32,0,0,1-.31-1,1.23,1.23,0,0,1,.14-.68,1,1,0,0,1,.37-.44l1.76-1a.29.29,0,0,1,.15-.06.28.28,0,0,1,.18.1l.61.44a1.51,1.51,0,0,0,.77.26,2.1,2.1,0,0,0,1.11-.35A4.44,4.44,0,0,0,478.39,96a3.26,3.26,0,0,0,.59-1.87,1.59,1.59,0,0,0-.25-1,1.15,1.15,0,0,0-1-.26,12.14,12.14,0,0,0-2,.36,4.62,4.62,0,0,1-2.07.07,1.81,1.81,0,0,1-1.22-1,4.83,4.83,0,0,1-.4-2.17,8.71,8.71,0,0,1,.52-2.85,10.68,10.68,0,0,1,1.56-2.91A8.38,8.38,0,0,1,476.78,82a5.06,5.06,0,0,1,2.09-.75,2.62,2.62,0,0,1,1.48.3,2.57,2.57,0,0,1,.9.86,2.24,2.24,0,0,1,.34,1,1.32,1.32,0,0,1-.14.68,1,1,0,0,1-.35.42l-1.65,1a.31.31,0,0,1-.2,0,.45.45,0,0,1-.18-.07l-.53-.42a1.31,1.31,0,0,0-.7-.27,2,2,0,0,0-1.08.35,3.34,3.34,0,0,0-1.3,1.31,3.57,3.57,0,0,0-.44,1.68,1.56,1.56,0,0,0,.21.89,1,1,0,0,0,.86.31,8.55,8.55,0,0,0,2-.34,4,4,0,0,1,2.37-.15A2,2,0,0,1,481.66,90a5.1,5.1,0,0,1,.37,2.1,8.83,8.83,0,0,1-.59,3.11,9.89,9.89,0,0,1-1.73,2.94A10.58,10.58,0,0,1,476.87,100.48Z"/><polygon class="cls-19" points="160.92 319.97 258.32 263.73 258.32 422.52 160.64 478.6 160.92 319.97"/><path class="cls-20" d="M279.79,254.26l117.5-67.84c2.36-1.36,4.28-.33,4.28,2.32A9.33,9.33,0,0,1,397.3,196L279.78,264.61c-2.36,1.37-4.27.28-4.27-2.45v-.49A9.47,9.47,0,0,1,279.79,254.26Z"/><path class="cls-19" d="M278.57,274.82,473,162.56c1.69-1,3.05-.28,3.05,1.55a6.55,6.55,0,0,1-3.05,5.07L278.57,281.43c-1.69,1-3.06.29-3.06-1.54A6.53,6.53,0,0,1,278.57,274.82Z"/><path class="cls-19" d="M278.57,288.1,473,175.84c1.69-1,3.05-.28,3.05,1.55a6.52,6.52,0,0,1-3.05,5.07L278.57,294.72c-1.69,1-3.06.28-3.06-1.55A6.53,6.53,0,0,1,278.57,288.1Z"/><path class="cls-19" d="M278.57,301.38,473,189.13c1.69-1,3.05-.28,3.05,1.54a6.52,6.52,0,0,1-3.05,5.07L278.57,308c-1.69,1-3.06.28-3.06-1.55A6.57,6.57,0,0,1,278.57,301.38Z"/><path class="cls-19" d="M278.57,314.67,473,202.41c1.69-1,3.05-.28,3.05,1.55A6.55,6.55,0,0,1,473,209L278.57,321.28c-1.69,1-3.06.28-3.06-1.54A6.53,6.53,0,0,1,278.57,314.67Z"/><path class="cls-19" d="M278.57,328,414.22,249c1.69-1,3.06-.28,3.06,1.55a6.53,6.53,0,0,1-3.06,5.07L278.57,334.56c-1.69,1-3.06.29-3.06-1.54A6.53,6.53,0,0,1,278.57,328Z"/><path class="cls-19" d="M278.57,354.51,473,242.26c1.69-1,3.05-.28,3.05,1.54a6.56,6.56,0,0,1-3.05,5.08L278.57,361.13c-1.69,1-3.06.28-3.06-1.54A6.57,6.57,0,0,1,278.57,354.51Z"/><path class="cls-19" d="M278.57,367.8,473,255.54c1.69-1,3.05-.28,3.05,1.55a6.55,6.55,0,0,1-3.05,5.07L278.57,374.41c-1.69,1-3.06.29-3.06-1.54A6.53,6.53,0,0,1,278.57,367.8Z"/><path class="cls-19" d="M278.57,381.08,473,268.82c1.69-1,3.05-.28,3.05,1.55a6.52,6.52,0,0,1-3.05,5.07L278.57,387.7c-1.69,1-3.06.28-3.06-1.55A6.53,6.53,0,0,1,278.57,381.08Z"/><path class="cls-19" d="M278.57,394.36,350,352.67c1.69-1,3.05-.29,3.05,1.54a6.52,6.52,0,0,1-3.05,5.07L278.57,401c-1.69,1-3.06.28-3.06-1.55A6.57,6.57,0,0,1,278.57,394.36Z"/><path class="cls-21" d="M538.39,318.12c10.33-33.55,20.39-55.64,10.14-62.48h0c-9.54,1.77-13.82,6.49-15.85,19.07-2.12,13.2-6.55,31.58-9.13,42.2A124.94,124.94,0,0,1,514,342.53a5.4,5.4,0,0,1-2.81,2.48c-3.19,1.25-4.72,2.88-7.32,4.73-2,1.45-3.53,1.62-3.44,2.23a2.69,2.69,0,0,0,3.2,2,18.89,18.89,0,0,0,4.44-1.43,22.07,22.07,0,0,1-5.57,8.13c-5,4.18-4.25,8.36,3.8,8.85,2.88.17,9.56-2.45,15.74-13a105.07,105.07,0,0,0,5.51-12.15C531.9,333.55,536.32,324.83,538.39,318.12Z"/><path class="cls-22" d="M550.36,255.24s-8-.41-12.77,4.9-10.45,37.09-10.45,37.09,5.28,7.25,19.19,4.28Z"/><path class="cls-23" d="M550.36,255.24s-8-.41-12.77,4.9-10.45,37.09-10.45,37.09,5.28,7.25,19.19,4.28Z"/><rect class="cls-21" x="576.89" y="480.59" width="10.68" height="19.04"/><polygon class="cls-21" points="550.54 479.58 539.87 479.96 539.34 459.81 550.54 459.43 550.54 479.58"/><path class="cls-24" d="M589.08,315.72c0,10.62-1.57,96.11-1.57,96.11.25,3.06,3,8.69,2.41,20.43-.81,15.95-1.89,57.86-1.89,57.86a13.56,13.56,0,0,1-11.89.24s-10.1-58-12-73.85c-1.67-13.79-4.5-60.23-4.5-60.23l-5.79,54A65.6,65.6,0,0,1,555.15,428c-.5,7.31-3.93,45.38-3.93,45.38s-5,3.55-12.33,1c0,0-6.08-57.34-6.2-64-.14-7.65,3.55-94.67,3.55-94.67Z"/><path class="cls-25" d="M576.89,494.15v-1.6c-1,.47-3.39,9.9-7.63,13.93-3.37,3.2-8,6.9-9.13,10.46-1.22,3.72,6.4,5.76,9.54,5.18,3.66-.67,10-3.35,11.59-5.84s2.34-6.15,3.63-8,4.27-3.85,5-6c.39-1.16-.07-3.7-.61-5.84-.5-2-1-4.13-1.68-3.95v1.22c-.77.89-2.92,1.78-5.34,1.88C580.67,495.71,576.88,495.39,576.89,494.15Z"/><path class="cls-25" d="M539.76,476.53c-.56,0-1,.83-2.23,2.21a23.26,23.26,0,0,1-6.29,4.71c-4,2.09-11.77,5.29-15.29,6.95-2.2,1-2.09,3.79.18,5.37s7.76,2.7,14.34,1.17c3.59-.84,8.26-4.29,11.22-4.1s8.49.14,10.67-1.43,1.31-4.91.7-7.79c-.68-3.13-1.52-8-2.52-7.81v1.08c-1.28,2-7.91,2.85-10.73,1.36Z"/><path class="cls-26" d="M559.62,356.28a39,39,0,0,1-14.87-8.88s2.87,5.6,11.4,10.81l-1.83,48.21Z"/><path class="cls-22" d="M583.52,257.78s8.36.76,7.76,16.69l-1.84,25.36,0,38.06c-7.86,8.9-42.67,8.25-54.59-.71,0,0,1.35-45,2.15-62.38.57-12.32,3.41-18.52,15.52-19.88l14.89.66Z"/><polygon class="cls-23" points="559.79 266.13 557.87 279.5 553.4 279.42 558.44 280.21 559.79 266.13"/><path class="cls-25" d="M570.93,221.9c0,9.14-7.12,16.56-15.9,16.56S539.52,231,539.12,221.9c-.7-16.17,7.12-16.56,15.91-16.56S570.93,212.75,570.93,221.9Z"/><path class="cls-25" d="M580,230.11s-2.44,11.94-3.42,13.9a5.19,5.19,0,0,1-3,2.51l.17-8.39Z"/><path class="cls-25" d="M576.93,213s1.75-.44,3.6,2.46c1.6,2.49,2,8.08-.54,14.63l-4.6.55Z"/><path class="cls-21" d="M574,230.67c.92.57,2.23-1.27,3.37-2.51s4.84-2.93,6.69,1.13-1.63,9.6-4.55,10.56c-5,1.64-5.79-1.72-5.79-1.72l-.38,18.9c-6.68,10.33-21.81,10-16.37-.5v-5.75a30.35,30.35,0,0,1-6.78.36c-3.7-.59-6-3.63-7.15-7.81-1.8-6.7-2.49-12.11-1-25.28,1.68-14.45,17.81-14.6,26.52-8.89S574,230.67,574,230.67Z"/><path class="cls-26" d="M573.45,252.79a24.14,24.14,0,0,1-6.55,8.2,18.62,18.62,0,0,1-7.91,3.37,17.47,17.47,0,0,1,5.58,6.26c1.67,3.68,13.42-6.44,13.32-13.61,0,0-1.85-7.21-4.37-7.67Z"/><path class="cls-26" d="M559,264.36s-3.63-1.81-2-7.83v-5.75l-1.58.21a13.9,13.9,0,0,0-3.82,6.62c-.37,1.64-1.26,10,.33,11.65S555.74,264.8,559,264.36Z"/><path class="cls-25" d="M567.83,214.92a2.4,2.4,0,0,1,1.25.08c1.37.62,1.66,4.87,1.9,6.1.81,4.14,1.48,11.15,3,11.18.46,0,2.22-3,3.37-4.12,1.59-1.51-.46-15.14-.46-15.14a6.68,6.68,0,0,0-1.54-6.9c-2.85-3.28-7.35-4-11.46-4.23-4.84-.27-9.75.1-14.51-1a42.36,42.36,0,0,0-4.55-1,.55.55,0,0,0-.42.07c-.15.12-.13.36-.09.56a14.91,14.91,0,0,0,1.51,4.09,37.73,37.73,0,0,1-8.36-1.64A.89.89,0,0,0,537,203c-.32.11-.37.53-.35.86.19,3.43,1.81,8.58,4.59,10.59a16,16,0,0,0,8.25,2.61C557,217.23,561.65,215.65,567.83,214.92Z"/><path class="cls-25" d="M576.92,213.74l5.57-3.12a3,3,0,0,0-4.22-1.45A3.53,3.53,0,0,0,576.92,213.74Z"/><path class="cls-27" d="M557,250.78s8.26-1.73,11.15-3.33a9.7,9.7,0,0,0,4-4.12,13.87,13.87,0,0,1-2.26,4.86C567.76,251,557,253.07,557,253.07Z"/><path class="cls-25" d="M559,228.51a1.66,1.66,0,1,0,1.65-1.79A1.72,1.72,0,0,0,559,228.51Z"/><path class="cls-25" d="M561.65,221.38l3.54,2a2.25,2.25,0,0,0-.83-2.93A1.92,1.92,0,0,0,561.65,221.38Z"/><path class="cls-27" d="M557.75,240.42,554,241.9a2,2,0,0,0,2.57,1.3A2.22,2.22,0,0,0,557.75,240.42Z"/><path class="cls-25" d="M543.8,222.89,547,220.3a1.9,1.9,0,0,0-2.8-.44A2.29,2.29,0,0,0,543.8,222.89Z"/><path class="cls-25" d="M545.22,228a1.66,1.66,0,1,0,1.66-1.79A1.73,1.73,0,0,0,545.22,228Z"/><polygon class="cls-27" points="554.08 226.64 553.89 237.09 547.96 235.73 554.08 226.64"/><path class="cls-22" d="M599.77,237.15c2.38-3.16,7.21,3.86,9.44,8.69s2.26,7.58.44,9.5-5.29.75-8.75-3.83S598.41,239.48,599.77,237.15Z"/><path class="cls-28" d="M599.77,237.15c2.38-3.16,7.21,3.86,9.44,8.69s2.26,7.58.44,9.5-5.29.75-8.75-3.83S598.41,239.48,599.77,237.15Z"/><path class="cls-21" d="M616.55,238.09c-8.41,19.8-20.24,30.87-25.53,43.58-6.94-.47-12.34-17.2-7.17-24.36,0,0,20.29-22,22.12-30.59,1.63-7.66,3.82-20.3,3.63-26.77a4.4,4.4,0,0,0-1.25-2.87c-2.12-2.29-2.13-4.13-3.49-6.66-1.07-2-2.24-2.71-1.9-3.16a2.54,2.54,0,0,1,3.45-.25,13.26,13.26,0,0,1,2.62,2.51,14.59,14.59,0,0,0-1.2-7.42c-2.36-5.33-1.78-8,5.41-6.15,4.5,1.19,7.33,4.94,8,15.77a106,106,0,0,1,.08,13.53c-.78,8.33-1.28,17-2.3,23.92A36.81,36.81,0,0,1,616.55,238.09Z"/><path class="cls-22" d="M581.8,257.54l17.9-20.45s-2.13,5,2.53,12.25,7.42,6,7.42,6-10.56,15.42-13.39,20.58-5.77,9.51-5.77,9.51a3.39,3.39,0,0,1-3.34,1.82C584.52,287.25,577.56,275.6,581.8,257.54Z"/><path class="cls-23" d="M581.8,257.54l17.9-20.45s-2.13,5,2.53,12.25,7.42,6,7.42,6-10.56,15.42-13.39,20.58-5.77,9.51-5.77,9.51a3.39,3.39,0,0,1-3.34,1.82C584.52,287.25,577.56,275.6,581.8,257.54Z"/><polygon class="cls-27" points="436.65 303.51 445.07 314.74 436.03 325.11 424.36 311.47 436.65 303.51"/><path class="cls-29" d="M409.08,278c7.35.35,10.85,1.48,14.7,6s23.09,32.35,23.09,32.35-3.4,9.54-10.84,8.73l-13.54-13.95Z"/><path class="cls-25" d="M373,510.93a54.88,54.88,0,0,0-.84,8.85c-.1,5.37-1.09,7.28-1.22,11.69-.15,5,.72,6.92,2.77,9.75s7.41,5.4,9.67.61,2-7.92,1.25-12.86c-.75-5.1-.84-7.93-1.28-11.82-.38-3.44-.84-6-.84-6Z"/><path class="cls-30" d="M388.27,468.7l-17.69-.32c.26,11.81,2.14,31.47,2.44,42.55.06,2.09,0,16.21.74,20.51,1.18,6.44,8.84,5.57,9.24,1.71s-.49-20.34-.47-22c-.06-7.11,3.27-25.66,5-38.42C387.63,472.06,388.19,469.31,388.27,468.7Z"/><path class="cls-25" d="M414.28,501.74s-.92.05-1.06.8-.21,2.29-.58,3.74a21.2,21.2,0,0,0-.63,7c.3,1.65,4.07,4.1,6.64,4.54s6.21,3,8.23,4.87a19.71,19.71,0,0,0,11.44,4.5c4.3,0,7.29-1.43,8.71-3.73s-1.29-2.58-6.2-5.77c-1.12-.72-2.39-1.54-3.82-2.48-7.78-5.08-10.63-7.8-12.83-12.89Z"/><path class="cls-30" d="M424.24,499c-.13-3.66,1.74-30.6,1.74-30.6l-15.22,1.71c3.6,21.48,3.89,28.8,3.48,31.92h0a3.24,3.24,0,0,0-.09.9c0,4.17,4.72,6.42,8.4,9.2,1.45,1.1,5.18,4.49,9.55,6,2.82,1,8,1.32,8.72-.39-4.47-3.42-10.55-7.88-14.1-11.77C425,504.07,424.37,502.63,424.24,499Z"/><path class="cls-31" d="M374.68,346.56c-8.3,18.13.3,82,.3,82-.25,2.94-3.61,8.73-4.87,21.68-1.48,15.31,2.74,56.28,2.74,56.28s4,3,9.91.21c0,0,10.71-60.2,12.63-75.41,1.67-13.28,4.89-42.48,4.89-42.48l9.13,42.4a79.28,79.28,0,0,0-2.89,13.11c-.87,8.95,7.85,53.87,7.85,53.87s4.08,2.15,9.87-.2c0,0,3.86-58,4.67-68.81,1.36-18.1-3.45-74.6-6.77-85.32Z"/><path class="cls-28" d="M374.68,346.56c-8.3,18.13.3,82,.3,82-.25,2.94-3.61,8.73-4.87,21.68-1.48,15.31,2.74,56.28,2.74,56.28s4,3,9.91.21c0,0,10.71-60.2,12.63-75.41,1.67-13.28,4.89-42.48,4.89-42.48l9.13,42.4a79.28,79.28,0,0,0-2.89,13.11c-.87,8.95,7.85,53.87,7.85,53.87s4.08,2.15,9.87-.2c0,0,3.86-58,4.67-68.81,1.36-18.1-3.45-74.6-6.77-85.32Z"/><path class="cls-32" d="M400.28,388.85,403,372s11.41-2.37,16.58-7.23c0,0-5.43,6.75-13.49,9l-3,13L408.33,426Z"/><path class="cls-31" d="M378.94,290.23l11.3,2.94V269.29h0c-6.24-1.62-11.3,2-11.3,8Z"/><path class="cls-33" d="M378.94,290.23l11.3,2.94V269.29h0c-6.24-1.62-11.3,2-11.3,8Z"/><path class="cls-31" d="M401.28,272.69l-4-.1c-12.35-.28-22.14-10.94-21.87-23.8h0c-.07-14,10.85-25.45,24.31-25.52h0c13.46-.07,24.43,11.23,24.5,25.25l0,1.45C423.83,262.81,413.61,273,401.28,272.69Z"/><path class="cls-33" d="M401.28,272.69l-4-.1c-12.35-.28-22.14-10.94-21.87-23.8h0c-.07-14,10.85-25.45,24.31-25.52h0c13.46-.07,24.43,11.23,24.5,25.25l0,1.45C423.83,262.81,413.61,273,401.28,272.69Z"/><path class="cls-31" d="M382.37,229.14a3.05,3.05,0,0,0-3.91-2.19l1.08,4.17a2.9,2.9,0,0,0-.81-.71,3,3,0,0,0-4.25,1.35L380,235a3.56,3.56,0,0,0,.37-1.8A3.49,3.49,0,0,0,382.37,229.14Z"/><path class="cls-33" d="M382.37,229.14a3.05,3.05,0,0,0-3.91-2.19l1.08,4.17a2.9,2.9,0,0,0-.81-.71,3,3,0,0,0-4.25,1.35L380,235a3.56,3.56,0,0,0,.37-1.8A3.49,3.49,0,0,0,382.37,229.14Z"/><path class="cls-34" d="M389,279a102.49,102.49,0,0,0-11.3,2.17c4.38,10.72-2.48,27.29-2.48,27.29l6.47,19.93c-4.47,9.15-8.16,13.7-9.67,21.14,4.11,8,33.19,15.72,52.11,1.06,0,0-.61-20.36-3-32.22,6.2-12.1,5.19-15.64,3.92-19.86-2.94-9.8-8.89-13.58-16-20.49l-4.28-.45Z"/><path class="cls-35" d="M382.48,336.36c3.51-3.6,10.95-4.63,10.95-4.63l-6.83-3.9-7.66-18.47a42.19,42.19,0,0,0,4.6-20.33L379.15,288c.53,9.78-3.89,20.48-3.89,20.48l6.47,19.93c-4.47,9.15-8.16,13.7-9.67,21.14,2.82,5.5,17.33,10.83,32.28,9C384.31,357.13,379.1,339.84,382.48,336.36Z"/><path class="cls-36" d="M402.71,358.64l.82-.08A5.61,5.61,0,0,0,402.71,358.64Z"/><path class="cls-30" d="M415.08,235.79c2.43,2.23,5.47,7.07,5.22,21.21-.2,12-3.92,15-5.78,15.83s-5.49.36-9-.23l0,5s4.63,5.14,4.34,8.44-6.59,4.67-11.15,1.47a42.83,42.83,0,0,1-8.43-8.53l-.05-15.08s-2.06,2.1-5.58-1.07c-2.9-2.62-3.9-7.05-1.66-9.45a4.94,4.94,0,0,1,8,1.62,45.75,45.75,0,0,0,15.4-4.53C412.93,247,415.56,240.81,415.08,235.79Z"/><path d="M405.52,254.25a1.45,1.45,0,1,1-2.89.16,1.45,1.45,0,1,1,2.89-.16Z"/><path class="cls-37" d="M406.06,264.3l3.76,1.22a1.93,1.93,0,0,1-2.44,1.42A2.16,2.16,0,0,1,406.06,264.3Z"/><path d="M419.07,248.84l-3.41-1.16a1.67,1.67,0,0,1,2.17-1.21A2,2,0,0,1,419.07,248.84Z"/><path class="cls-31" d="M391,253.54l0,5.07a2.38,2.38,0,0,0,2.47-2.42A2.62,2.62,0,0,0,391,253.54Z"/><path class="cls-33" d="M391,253.54l0,5.07a2.38,2.38,0,0,0,2.47-2.42A2.62,2.62,0,0,0,391,253.54Z"/><path d="M417.89,253.76a1.45,1.45,0,1,1-2.89.16,1.53,1.53,0,0,1,1.37-1.65A1.5,1.5,0,0,1,417.89,253.76Z"/><polygon class="cls-37" points="410.79 251.38 408.96 261.02 413.74 260.38 410.79 251.38"/><path class="cls-37" d="M405.52,272.6c-3.7-.48-11.33-2.72-12.53-5.85a8.21,8.21,0,0,0,2.69,4c2.29,2,9.82,4.28,9.82,4.28Z"/><path class="cls-30" d="M360.39,329.16S369.44,342,371,343.7s2.61,1.13,4.29.38a49.39,49.39,0,0,1,6.3-2.06c2.76-.68,3.36,1.87.62,3.69-2,1.32-4.25,1.9-3.3,3a21.31,21.31,0,0,0,6.6,4.05c6.68,2.63,6.17,3.95,4.94,6.12-1.08,1.88-4.2,5.95-16.15,1.15-4.93-2-11.87-7.61-15.15-11.24-4.72-5.23-12.09-14.61-12.09-14.61Z"/><path class="cls-29" d="M379.49,280.7c-3.28.22-9.44,1-17.17,13.84-6.78,11.26-17.29,26.53-19.24,32-.79,2.21,2.29,6.8,6.25,11.49,5.41-.23,10.33-4,12.88-7a25.46,25.46,0,0,0-2.49-4.53l15.86-18.09s6-5.51,7.28-12.74C384.21,288,383.79,281.84,379.49,280.7Z"/><polygon class="cls-31" points="468.25 305.04 429.16 315.34 418.4 359.57 455.57 348.77 468.25 305.04"/><polygon class="cls-38" points="468.25 305.04 429.16 315.34 418.4 359.57 455.57 348.77 468.25 305.04"/><g class="cls-39"><path d="M450.59,336.36a7.74,7.74,0,0,0,7.31,4.37l.28-1Z"/></g><g class="cls-39"><path d="M456.48,312.07s.14-.67.32-1.49-2.12-.86-5.12-.08L445.92,312c-3,.78-5.6,2.08-5.77,2.9l-.33,1.49Z"/></g><path class="cls-40" d="M459.48,306.46c.11-.51-.82-.65-2.08-.3l-2.28.63s.68-3.22-4.38-2.1-6.17,4.79-6.17,4.79l-2.43.69c-1.35.38-2.56,1.11-2.72,1.62l-.29.93,20.13-5.3S459.37,307,459.48,306.46Z"/><path class="cls-40" d="M456.71,308.05c-1.85.45-2.62.69-2.89,2-.32,1.45-.44,2.52-.44,2.52l-8.92,2.35s.43-1.84.57-2.55-.17-1.15-1.58-.77l-.12-.57,14-3.56Z"/><path class="cls-40" d="M457,312.21l.32-1.49c.18-.83-2.11-.86-5.12-.08l-5.76,1.49c-3,.78-5.59,2.08-5.77,2.9l-.32,1.5Z"/><path class="cls-30" d="M464.13,319.24s-1.46,5-1.79,6.19-4.72,3.34-7.59,4.13-6,1.72-4.66,5.74c1.26,3.7,6,4.55,8.39,4.45s5.71-2.41,7-6.12c1.66-4.73.77-9.78,1.43-12.55S465.57,317.59,464.13,319.24Z"/><path class="cls-41" d="M316.07,320.42c-5.36-5.41-7.28-3.31-8,2.62a26.73,26.73,0,0,1-1.79,7.24,13.06,13.06,0,0,0-1-3.58,2.61,2.61,0,0,0-3.18-1.56c-.53.22.12,1.47,0,3.77-.11,2.93-1.06,4.56-.37,7.68a5,5,0,0,1-.53,3.44c-2.89,5.35-12.12,15.26-18.62,22.39-5.75-5.19-18.61-16.81-24.77-22.36-8.44-7.61-11.2-11-19.37-10.48a21.85,21.85,0,0,1,6.95,4.16c3.79,3.21,2.89,21.53,2.89,21.53s28.1,20.15,31,22.07a13,13,0,0,0,1.28.76,6.9,6.9,0,0,0,8.42-1.61c6-6.86,14.74-20.35,19.8-27.37A85.86,85.86,0,0,0,315,338.48C320,328.58,319.43,323.8,316.07,320.42Z"/><path class="cls-22" d="M239.35,329.08a14.07,14.07,0,0,1,11.31,2.77c4.82,3.66,25.33,22.52,25.33,22.52s.56,10-9.86,16l-25.22-17.78Z"/><path class="cls-23" d="M239.35,329.08a14.07,14.07,0,0,1,11.31,2.77c4.82,3.66,25.33,22.52,25.33,22.52s.56,10-9.86,16l-25.22-17.78Z"/><rect class="cls-41" x="204.35" y="554.75" width="10.68" height="19.04"/><polygon class="cls-41" points="241.38 553.74 252.06 554.12 252.59 533.96 241.38 533.58 241.38 553.74"/><path class="cls-24" d="M202.85,389.88c0,10.62,1.56,96.11,1.56,96.11-.25,3.05-3,8.69-2.4,20.43.81,15.95,1.88,57.85,1.88,57.85a13.57,13.57,0,0,0,11.9.25s10.1-58,12-73.85c1.67-13.79,4.51-60.23,4.51-60.23l5.79,54a65.9,65.9,0,0,0-1.33,17.68c.5,7.31,3.94,45.38,3.94,45.38s5,3.56,12.33,1c0,0,6.07-57.34,6.2-64.05.14-7.64-3.56-94.67-3.56-94.67Z"/><path class="cls-26" d="M215,568.3v-1.59c1,.47,3.4,9.9,7.64,13.93,3.36,3.2,8,6.89,9.13,10.46s-6.4,5.76-9.55,5.18c-3.66-.67-10-3.36-11.58-5.84s-2.34-6.16-3.63-8-4.28-3.85-5-6c-.38-1.16.08-3.7.62-5.84.49-2,1-4.13,1.67-3.95v1.21c.78.9,2.92,1.79,5.34,1.88C211.25,569.87,215,569.54,215,568.3Z"/><path class="cls-26" d="M252.17,550.69c.55,0,1,.83,2.23,2.21a23.2,23.2,0,0,0,6.28,4.71c4,2.08,11.78,5.29,15.29,6.94,2.2,1,2.1,3.8-.17,5.37s-7.76,2.71-14.35,1.18c-3.59-.84-8.26-4.29-11.22-4.1s-8.49.14-10.67-1.43-1.31-4.91-.69-7.79c.67-3.14,1.51-8,2.51-7.82v1.09c1.29,2,7.91,2.84,10.73,1.35Z"/><path class="cls-26" d="M232.31,430.44a39.06,39.06,0,0,0,14.87-8.88s-2.87,5.59-11.4,10.8l1.82,48.22Z"/><path class="cls-22" d="M208.4,331.94s-8.35.76-7.76,16.68L202.49,374l-.18,38.06c7.86,8.9,42.67,8.25,54.6-.71,0,0-1.23-45-2-62.38-.57-12.32-3.41-18.52-15.52-19.88l-14.89.65Z"/><polygon class="cls-23" points="232.14 340.29 234.06 353.66 238.52 353.58 233.48 354.37 232.14 340.29"/><path class="cls-41" d="M181.9,386.61c4.33-34.83,14.3-52.15,26.45-54.19l-.87,22.29s-8.16,18.61-11.56,36.88c-1.6,8.58-3.45,23.49-3,30.82a5.45,5.45,0,0,0,1.55,3.41c2.4,2.45,3.13,4.56,4.73,7.32,1.26,2.16,2.56,2.92,2.23,3.44a2.69,2.69,0,0,1-3.72.48,19.68,19.68,0,0,1-3.47-3.12,22.11,22.11,0,0,0,1.75,9.69c2.84,5.86,2.36,9-5.51,7.23-4.93-1.08-8.49-6.29-9.81-18.43a105.23,105.23,0,0,1-.24-13.62C180.94,407.2,181,393.58,181.9,386.61Z"/><path class="cls-22" d="M209,331.85c-6.31,0-12.07,1.08-16.64,9.9-4.39,8.45-7.77,26.36-9.47,32.21,0,0,9.21,5.45,17.68,5.31l6-20.71S210.61,348.89,209,331.85Z"/><path class="cls-23" d="M209,331.85c-6.31,0-12.07,1.08-16.64,9.9-4.39,8.45-7.77,26.36-9.47,32.21,0,0,9.21,5.45,17.68,5.31l6-20.71S210.61,348.89,209,331.85Z"/><path class="cls-26" d="M222.05,296c0,9.15,7.12,16.57,15.9,16.57s15.9-7.42,15.9-16.57-7.12-16.56-15.9-16.56S222.05,286.84,222.05,296Z"/><path class="cls-26" d="M211.94,304.27s2.43,11.93,3.41,13.89a5.23,5.23,0,0,0,3,2.52l-.17-8.39Z"/><path class="cls-26" d="M215,287.17s-1.75-.43-3.61,2.47c-1.59,2.49-1.95,8.08.55,14.63l4.59.55Z"/><path class="cls-41" d="M217.91,304.82c-.92.58-2.24-1.27-3.37-2.51s-4.85-2.92-6.7,1.13,1.64,9.61,4.56,10.56c5,1.65,5.78-1.71,5.78-1.71l.39,18.9c6.68,10.33,21.8,10,16.36-.5v-5.75a30.4,30.4,0,0,0,6.78.36c3.7-.6,6-3.64,7.15-7.81,1.81-6.7,2.49-12.11,1-25.29-1.67-14.44-17.8-14.59-26.51-8.88S217.91,304.82,217.91,304.82Z"/><path class="cls-26" d="M218.48,327a24.29,24.29,0,0,0,6.54,8.2,18.53,18.53,0,0,0,7.92,3.36,17.63,17.63,0,0,0-5.59,6.27c-1.66,3.68-13.42-6.44-13.31-13.62,0,0,1.84-7.2,4.37-7.67Z"/><path class="cls-26" d="M232.94,338.51s3.62-1.8,2-7.82v-5.75l1.59.21a14,14,0,0,1,3.82,6.61c.36,1.65,1.25,10-.34,11.66C238.54,344.93,236.18,339,232.94,338.51Z"/><path class="cls-26" d="M217.91,306.44c-.47,0-2.23-3-3.37-4.13-1.59-1.5.46-15.14.46-15.14a6.65,6.65,0,0,1,1.53-6.89c2.18-2.5,5.81-2.78,12-3.79a67.7,67.7,0,0,0,7.37-1.33c2.52-.71,5-2.39,7.36-3.58a3.64,3.64,0,0,1,2.49-.58,2.43,2.43,0,0,1,1.58,1.81,7.23,7.23,0,0,1,.05,2.5,4.06,4.06,0,0,1,5.72.2,5.84,5.84,0,0,1,.89,6,10.76,10.76,0,0,1-4.16,4.76c-7.81,5.27-17,3.81-25.76,2.77a2.26,2.26,0,0,0-1.24.09c-1.37.62-1.66,4.87-1.91,6.1C220.14,299.39,219.46,306.41,217.91,306.44Z"/><path class="cls-26" d="M215,287.89l-5.57-3.11a3,3,0,0,1,4.21-1.45A3.53,3.53,0,0,1,215,287.89Z"/><path class="cls-42" d="M234.92,324.94s-8.26-1.74-11.15-3.34a9.74,9.74,0,0,1-4-4.11,13.79,13.79,0,0,0,2.27,4.85c2.11,2.82,12.87,4.89,12.87,4.89Z"/><path class="cls-26" d="M231.93,302.18a1.66,1.66,0,1,1-1.65-1.8A1.72,1.72,0,0,1,231.93,302.18Z"/><path class="cls-26" d="M229.09,295l-3.54,2a2.25,2.25,0,0,1,.83-2.93A1.93,1.93,0,0,1,229.09,295Z"/><path class="cls-42" d="M234.17,314.58l3.78,1.48a2,2,0,0,1-2.57,1.3A2.23,2.23,0,0,1,234.17,314.58Z"/><path class="cls-26" d="M248.47,297l-3.72-1.81a1.9,1.9,0,0,1,2.63-1.06A2.29,2.29,0,0,1,248.47,297Z"/><path class="cls-26" d="M246,302.18a1.66,1.66,0,1,1-1.65-1.8A1.72,1.72,0,0,1,246,302.18Z"/><polygon class="cls-42" points="236.64 300.9 236.83 311.36 242.76 309.99 236.64 300.9"/><path class="cls-26" d="M229.37,297.86a4.14,4.14,0,0,0,0,8.27h.76a4.14,4.14,0,0,0,0-8.27ZM224.49,302a4.93,4.93,0,0,1,4.88-5h.76a5,5,0,0,1,0,10h-.76A4.93,4.93,0,0,1,224.49,302Z"/><path class="cls-26" d="M244.25,297.86a4.14,4.14,0,0,0,0,8.27H245a4.14,4.14,0,0,0,0-8.27ZM239.37,302a4.93,4.93,0,0,1,4.88-5H245a5,5,0,0,1,0,10h-.76A4.93,4.93,0,0,1,239.37,302Z"/><path class="cls-26" d="M234.94,301a3.25,3.25,0,0,1,2.58-1.34,2.61,2.61,0,0,1,2.25.87l.66-.51a3.36,3.36,0,0,0-3-1.19,4,4,0,0,0-3.24,1.74Z"/><rect class="cls-26" x="216.53" y="300.97" width="8.41" height="0.84"/></svg>