<svg xmlns="http://www.w3.org/2000/svg" viewBox="0 0 700 640"><defs><style>.cls-1{fill:#f5f5f5;}.cls-2{fill:#e1e1e1;}.cls-3{fill:#2b454e;}.cls-4{fill:none;stroke:#2b454e;stroke-miterlimit:10;stroke-width:6px;}.cls-5{fill:#0d5952;}.cls-6{fill:#00dfdf;}.cls-7{opacity:0.1;}.cls-8{opacity:0.15;}.cls-9{fill:#054641;}.cls-10{fill:#375a64;}.cls-11{fill:#1a2e35;}.cls-12{fill:#d15b66;}.cls-13{fill:#fff;opacity:0.4;}.cls-14{fill:#ffaaa8;}.cls-15{fill:#1f3238;}.cls-16{fill:#132023;}.cls-17{fill:#ff9090;}.cls-18{opacity:0.05;}.cls-19{opacity:0.2;}.cls-20{fill:#ececec;}.cls-21{fill:#fafafa;}.cls-22{fill:#b82635;}</style></defs><title>Illustration</title><g id="Layer_19" data-name="Layer 19"><path id="Floor" class="cls-1" d="M125.88,587.76c123.78,65.27,324.46,65.27,448.24,0s123.78-171.09,0-236.36-324.46-65.27-448.24,0S2.1,522.49,125.88,587.76Z"/><polygon class="cls-2" points="231.51 474.56 235.22 470.13 122.64 405.13 115.01 409.53 155 432.62 116.6 454.79 76.27 431.5 68.64 435.9 183.89 502.43 185.1 500.99 185.7 501.34 229.91 475.86 230.25 476.06 230.9 475.29 231.84 474.75 231.51 474.56"/><ellipse id="Shadow" class="cls-2" cx="506.55" cy="509.54" rx="62.72" ry="29.89"/><ellipse id="Shadow-2" data-name="Shadow" class="cls-2" cx="317.07" cy="571.15" rx="62.72" ry="29.89"/><path id="Shadow-3" data-name="Shadow" class="cls-2" d="M556.56,546.88c12.17,7,31.9,7,44.07,0s12.17-18.42,0-25.44-31.9-7-44.07,0S544.39,539.86,556.56,546.88Z"/><ellipse id="Shadow-4" data-name="Shadow" class="cls-2" cx="127" cy="541.62" rx="31.16" ry="17.99"/><path class="cls-3" d="M185.45,236.52l-63.21,172v0a2.23,2.23,0,0,1-1.11,1.19,6.36,6.36,0,0,1-5.76,0,2.17,2.17,0,0,1-1.17-1.42,1.24,1.24,0,0,1,0-.47,3.77,3.77,0,0,1,.22-1.17l63.38-173a4.08,4.08,0,0,1,7.66,2.81Z"/><line class="cls-4" x1="100.96" y1="354.88" x2="164.34" y2="391.47"/><line class="cls-4" x1="147.06" y1="328.26" x2="210.44" y2="364.86"/><path class="cls-5" d="M133.88,224.71l33.8-19.52a8.91,8.91,0,0,1,13.66,6.07l56.11,262.53a2.58,2.58,0,0,1,.07.54,2.7,2.7,0,0,1,0,.57,2.18,2.18,0,0,1-1.18,1.4,6.36,6.36,0,0,1-5.76,0,2.47,2.47,0,0,1-1.12-1.22c0-.08,0-.17-.06-.24L173.37,213a.91.91,0,0,0-1.61-.71L138,231.77"/><path class="cls-6" d="M189,475.59,168.45,463.7a2.7,2.7,0,0,1-1.23-2.13v-.49a2.7,2.7,0,0,1,1.23-2.12l49.4-28.52a2.67,2.67,0,0,1,2.46,0l20.59,11.88a2.74,2.74,0,0,1,1.23,2.13v.49a2.72,2.72,0,0,1-1.23,2.13l-49.4,28.52A2.73,2.73,0,0,1,189,475.59Z"/><path class="cls-7" d="M167.58,459.87a2.56,2.56,0,0,0-.36,1.21v.49a2.7,2.7,0,0,0,1.23,2.13L189,475.59a2.48,2.48,0,0,0,1.23.29V473Z"/><path class="cls-8" d="M190.27,473v2.91a2.46,2.46,0,0,0,1.23-.29l24.7-14.26,24.7-14.26a2.72,2.72,0,0,0,1.23-2.13v-.49a2.56,2.56,0,0,0-.36-1.21Z"/><path class="cls-6" d="M180.11,433.84,159.52,422a2.72,2.72,0,0,1-1.22-2.12v-.49a2.72,2.72,0,0,1,1.22-2.13l49.4-28.52a2.73,2.73,0,0,1,2.46,0L232,400.58a2.7,2.7,0,0,1,1.23,2.12v.49a2.7,2.7,0,0,1-1.23,2.13l-49.4,28.52A2.73,2.73,0,0,1,180.11,433.84Z"/><path class="cls-7" d="M158.66,418.13a2.39,2.39,0,0,0-.36,1.21v.49a2.72,2.72,0,0,0,1.22,2.12l20.59,11.89a2.49,2.49,0,0,0,1.23.3v-2.91Z"/><path class="cls-8" d="M181.34,431.23v2.91a2.46,2.46,0,0,0,1.23-.3l24.7-14.26L232,405.32a2.7,2.7,0,0,0,1.23-2.13v-.49a2.56,2.56,0,0,0-.36-1.21Z"/><path class="cls-6" d="M171.19,392.1,150.6,380.21a2.72,2.72,0,0,1-1.23-2.13v-.49a2.72,2.72,0,0,1,1.23-2.13L200,346.94a2.71,2.71,0,0,1,2.45,0L223,358.83a2.7,2.7,0,0,1,1.23,2.13v.49a2.7,2.7,0,0,1-1.23,2.12l-49.4,28.53A2.71,2.71,0,0,1,171.19,392.1Z"/><path class="cls-7" d="M149.73,376.38a2.52,2.52,0,0,0-.36,1.21v.49a2.72,2.72,0,0,0,1.23,2.13l10.29,5.94,10.3,6a2.56,2.56,0,0,0,1.22.29v-2.91Z"/><path class="cls-8" d="M172.41,389.48v2.91a2.57,2.57,0,0,0,1.23-.29l24.7-14.27L223,363.57a2.7,2.7,0,0,0,1.23-2.12V361a2.49,2.49,0,0,0-.36-1.21Z"/><path class="cls-6" d="M162.26,350.35l-20.59-11.89a2.7,2.7,0,0,1-1.23-2.13v-.49a2.74,2.74,0,0,1,1.23-2.13l49.4-28.52a2.71,2.71,0,0,1,2.45,0l20.6,11.89a2.74,2.74,0,0,1,1.22,2.13v.49a2.74,2.74,0,0,1-1.22,2.13l-49.4,28.52A2.73,2.73,0,0,1,162.26,350.35Z"/><path class="cls-8" d="M163.49,347.73v2.91a2.6,2.6,0,0,0,1.23-.29l24.7-14.26,24.7-14.26a2.74,2.74,0,0,0,1.22-2.13v-.49A2.42,2.42,0,0,0,215,318Z"/><path class="cls-7" d="M140.8,334.63a2.56,2.56,0,0,0-.36,1.21v.49a2.72,2.72,0,0,0,1.23,2.13l20.59,11.89a2.57,2.57,0,0,0,1.23.29v-2.91Z"/><path class="cls-6" d="M153.33,308.6l-34.22-19.75a2.72,2.72,0,0,1-1.23-2.13v-.49a2.74,2.74,0,0,1,1.23-2.13l49.4-28.52a2.73,2.73,0,0,1,2.46,0l34.22,19.75a2.74,2.74,0,0,1,1.23,2.13V278a2.72,2.72,0,0,1-1.23,2.13l-49.4,28.52A2.73,2.73,0,0,1,153.33,308.6Z"/><path class="cls-8" d="M154.56,306v2.91a2.48,2.48,0,0,0,1.23-.29l24.7-14.26,24.7-14.26a2.72,2.72,0,0,0,1.23-2.13v-.49a2.56,2.56,0,0,0-.36-1.21Z"/><path class="cls-7" d="M118.24,285a2.56,2.56,0,0,0-.36,1.21v.49a2.72,2.72,0,0,0,1.23,2.13l34.22,19.75a2.46,2.46,0,0,0,1.23.29V306Z"/><path class="cls-9" d="M139.37,263.13,76.21,435V435l-.14.38a2.72,2.72,0,0,1-1,1,6.52,6.52,0,0,1-5.78,0A2.27,2.27,0,0,1,68.09,435a1.85,1.85,0,0,1,0-.47,3.76,3.76,0,0,1,.24-1.19l63.38-173a4.08,4.08,0,0,1,7.66,2.8Z"/><path class="cls-5" d="M138,231.77a6.3,6.3,0,0,0-2.71,6.1l56.13,262.52a2.74,2.74,0,0,1,.08.64,1.69,1.69,0,0,1,0,.45,2.18,2.18,0,0,1-1.18,1.43,6.33,6.33,0,0,1-5.75,0,2.48,2.48,0,0,1-1.13-1.18.08.08,0,0,0,0,0l-.07-.34-56-261.76a14.53,14.53,0,0,1,6.61-14.88"/><g id="Paint_Pot" data-name="Paint Pot"><path class="cls-3" d="M153.61,496.92l-52.06-.71-.46,42.52h0c0,3.84,2.45,7.72,7.51,10.71,10.1,6,26.58,6.16,36.81.4,5.17-2.91,7.74-6.77,7.74-10.65Z"/><path class="cls-10" d="M109.29,485.67C99.07,491.43,99,501,109.06,506.93s26.59,6.16,36.82.4,10.34-15.28.23-21.26S119.52,479.91,109.29,485.67Z"/><path class="cls-11" d="M151.37,496.75a6.31,6.31,0,0,1-.37,2c-.79,2.44-2.91,4.71-6.23,6.58-4.62,2.57-10.76,4-17.33,3.91s-12.67-1.59-17.23-4.28c-3.2-1.9-5.29-4.19-6-6.57a6.57,6.57,0,0,1-.37-2.18c.06-3.18,2.38-6.24,6.6-8.59,4.59-2.6,10.77-4,17.31-3.91S140.41,485.33,145,488C149.13,490.48,151.4,493.57,151.37,496.75Z"/><path class="cls-12" d="M151,498.78c-.79,2.44-2.91,4.71-6.23,6.58-4.62,2.57-10.76,4-17.33,3.91s-12.67-1.59-17.23-4.28c-3.2-1.9-5.29-4.19-6-6.57.79-2.44,2.92-4.71,6.23-6.55,4.59-2.6,10.77-4,17.31-3.93s12.69,1.61,17.25,4.3C148.17,494.14,150.24,496.41,151,498.78Z"/><path class="cls-11" d="M138.68,512.85c1.14-.65,2-.11,2,1.2a4.55,4.55,0,0,1-2.1,3.54c-1.14.64-2.05.1-2-1.21A4.55,4.55,0,0,1,138.68,512.85Z"/><path class="cls-2" d="M101.46,503.69c-2.86,5.63-8.55,19.06-1.16,24.53.31.22.59.42.91.62l0,2.72c-.74-.45-1.5-1-2.24-1.5-11-8.19,1.42-29.21,2-30.09a1.11,1.11,0,0,1,.63-.48Z"/><path class="cls-2" d="M139.65,515.75c-.32.65-8.36,16-21.59,19.12a19.2,19.2,0,0,1-4.56.54,23,23,0,0,1-12.32-3.85l0-2.72c5.46,3.8,11,5.1,16.34,3.85,12.21-2.86,20-17.84,20.08-18a1.15,1.15,0,0,1,1.53-.48A1.11,1.11,0,0,1,139.65,515.75Z"/></g><path class="cls-6" d="M247.7,366.41l-5.38-3.11a6.78,6.78,0,0,1-3.07-5.32V112.25a6.79,6.79,0,0,1,3.08-5.32L420.55,4a6.8,6.8,0,0,1,6.15,0l5.38,3.11a6.79,6.79,0,0,1,3.07,5.31V258.19a6.79,6.79,0,0,1-3.07,5.32L253.84,366.41A6.78,6.78,0,0,1,247.7,366.41Z"/><path class="cls-13" d="M435.12,12c-.22-1.59-1.51-2.17-3-1.28L253.84,113.58a6.42,6.42,0,0,0-2.17,2.3l-11.52-6.65a6.34,6.34,0,0,1,2.17-2.3L420.55,4a6.78,6.78,0,0,1,6.14,0l5.39,3.11A6.87,6.87,0,0,1,435.12,12Z"/><path class="cls-7" d="M253.13,366.72a6.8,6.8,0,0,1-5.44-.31l-5.37-3.1a6.8,6.8,0,0,1-3.08-5.32V112.25a6.21,6.21,0,0,1,.91-3l11.52,6.65a6.26,6.26,0,0,0-.9,3V364.64C250.77,366.31,251.78,367.14,253.13,366.72Z"/><path class="cls-11" d="M449.08,205.37v0a1.38,1.38,0,0,0-1.49.14l-7.17,4.72a2.09,2.09,0,0,1-2.88-.65,15.88,15.88,0,0,0-1.4-1.72,3.54,3.54,0,0,1-.84-3.41l11.4-7.23-8.51-4.91h0a2,2,0,0,0-.56-.23l-5.41-1.21a2.91,2.91,0,0,0-3.06,1.42L424.06,202a5.34,5.34,0,0,1-3.07,2.31l-.32.09a11.74,11.74,0,0,0,.45-2.25l-8.54-4.93h0a1.4,1.4,0,0,0-1.6.22l-8.1,6.37a4.57,4.57,0,0,0-1.54,3.44l.48,7.71a6,6,0,0,1-1.26,3.73c-1.32,1.59-2.58,3.26-3.76,5a4.21,4.21,0,0,1-3.3,1.68l-5.21-.26a3.33,3.33,0,0,0-3,1.84l-4.9,11a2.08,2.08,0,0,0,.84,2.64h0l5.77,3.33a2.53,2.53,0,0,1,.14,1.49,50,50,0,0,0-.91,5.24,6.56,6.56,0,0,1-1.75,3.56l-7.18,6.6a4.34,4.34,0,0,0-1.21,3.54l1.35,7.83a1.48,1.48,0,0,0,.65,1.06h0l8.56,4.94.12-9.8a2.07,2.07,0,0,1,2.88.65,15.68,15.68,0,0,0,1.39,1.71,3.55,3.55,0,0,1,.84,3.42l-3.65,9.89a1.79,1.79,0,0,0,.71,2.2h0l8.55,4.93,2.33-6.37,3.3-8.21a5.37,5.37,0,0,1,3.07-2.31,24.56,24.56,0,0,0,3.34-1.1,1.84,1.84,0,0,1,2.55,1.17l1.83,6.07a1.61,1.61,0,0,0,.7.95h0l8.58,4.95-1.5-9.49,2.62-2.06a4.54,4.54,0,0,0,1.54-3.44l-.48-7.71a6,6,0,0,1,1.26-3.73c1.33-1.59,3.33-2.44,4.51-4.16.66-1,1.38-2.55,2.55-2.49l5.21.25a3.34,3.34,0,0,0,3-1.83l4.9-11a2.08,2.08,0,0,0-1.09-2.77l-4.21-1.8a2.6,2.6,0,0,1-1.44-2.9,50,50,0,0,0,.9-5.24,6.56,6.56,0,0,1,1.75-3.56l7.18-6.6a4.3,4.3,0,0,0,1.19-2.45l6.52-5.09ZM416.47,256c-8.79,6.9-17.19,5-18.78-4.2s5.6-20.95,14.38-27.86,15.84-6.38,17.43,2.85S425.25,249.11,416.47,256Z"/><path class="cls-5" d="M384.41,254.27l-7.1,6.53a4.2,4.2,0,0,0-1.1,2.05l10.55,6.09v-.56a2.07,2.07,0,0,1,2.88.65h0l10.17-5.87Z"/><path class="cls-5" d="M402.5,234.51a41.29,41.29,0,0,1,2.61-3.61L395,225.05a3.71,3.71,0,0,1-1.49.32l-5.21-.26a3.31,3.31,0,0,0-2.16.78l15.58,9Z"/><path class="cls-5" d="M457.59,210.28a1.36,1.36,0,0,0-1.46.17L449,215.17a2.09,2.09,0,0,1-2.88-.65,14.85,14.85,0,0,0-1.41-1.72,3.57,3.57,0,0,1-.83-3.42l.68-1.83,3.08-2a1.38,1.38,0,0,1,1.49-.15h0Z"/><path class="cls-5" d="M436.38,208.18c-.09-.09-.16-.21-.24-.3a3.54,3.54,0,0,1-.84-3.41l11.4-7.23-8.51-4.91h0a2,2,0,0,0-.56-.23l-5.41-1.21a2.91,2.91,0,0,0-3.06,1.42L424.06,202a4.39,4.39,0,0,1-1.16,1.3l11.49,6.63Z"/><path class="cls-5" d="M401.55,206l10.55,6.09,8.67-8a14.29,14.29,0,0,0,.35-1.94l-8.54-4.93h0a1.4,1.4,0,0,0-1.6.22l-8.1,6.37A4.35,4.35,0,0,0,401.55,206Z"/><path class="cls-9" d="M459.61,219.21l-1.35-7.83a1.29,1.29,0,0,0-2.14-.93L449,215.17a2.08,2.08,0,0,1-2.88-.65,13.87,13.87,0,0,0-1.4-1.71,3.56,3.56,0,0,1-.84-3.42l3.66-9.9a1.81,1.81,0,0,0-1.34-2.46l-5.41-1.21a2.93,2.93,0,0,0-3.06,1.42l-5.09,9.69a5.3,5.3,0,0,1-3.07,2.31,27.55,27.55,0,0,0-3.33,1.1,1.85,1.85,0,0,1-2.56-1.16l-1.83-6.07a1.35,1.35,0,0,0-2.28-.73l-8.11,6.38a4.54,4.54,0,0,0-1.54,3.43l.49,7.71a6.12,6.12,0,0,1-1.27,3.74c-1.32,1.58-2.58,3.25-3.76,5a4.17,4.17,0,0,1-3.3,1.67l-5.21-.26a3.35,3.35,0,0,0-3,1.84l-4.9,11a2.1,2.1,0,0,0,1.09,2.78l4.21,1.79a2.62,2.62,0,0,1,1.45,2.9,47.5,47.5,0,0,0-.9,5.24,6.61,6.61,0,0,1-1.76,3.56l-7.18,6.6a4.34,4.34,0,0,0-1.21,3.54l1.35,7.83a1.29,1.29,0,0,0,2.14.93l7.18-4.72a2.08,2.08,0,0,1,2.88.65,13.87,13.87,0,0,0,1.4,1.71,3.58,3.58,0,0,1,.84,3.42l-3.66,9.9a1.81,1.81,0,0,0,1.34,2.46l5.4,1.2a2.93,2.93,0,0,0,3.07-1.41l5.08-9.69a5.28,5.28,0,0,1,3.08-2.31,26.52,26.52,0,0,0,3.33-1.11,1.84,1.84,0,0,1,2.55,1.17l1.83,6.07a1.35,1.35,0,0,0,2.29.72l8.1-6.37a4.47,4.47,0,0,0,1.54-3.44l-.48-7.71a6.15,6.15,0,0,1,1.26-3.73,61.25,61.25,0,0,0,3.76-5,4.2,4.2,0,0,1,3.3-1.67l5.21.26a3.37,3.37,0,0,0,3-1.84l4.9-11a2.09,2.09,0,0,0-1.09-2.78L450,241a2.6,2.6,0,0,1-1.44-2.9,49.36,49.36,0,0,0,.9-5.23,6.53,6.53,0,0,1,1.75-3.56l7.19-6.61A4.34,4.34,0,0,0,459.61,219.21ZM425,260.94c-8.78,6.9-17.19,5-18.78-4.2s4.24-22.3,13-29.21,17.19-5,18.78,4.2S433.78,254,425,260.94Z"/><path class="cls-11" d="M408.51,129.55l-8.4-4.84h0a1.43,1.43,0,0,0-1.32,0l-15.17,6.84a1.8,1.8,0,0,1-2.53-1.17,33.69,33.69,0,0,0-3.39-7.53,4.2,4.2,0,0,1-.23-3.67l10.12-20.4a2.3,2.3,0,0,0-.9-3l-11-6.34a2.29,2.29,0,0,0-3,.71l-12.6,19a4.2,4.2,0,0,1-3.3,1.64,31.54,31.54,0,0,0-4.41.2V97.15L344,92.29h0a1.43,1.43,0,0,0-1.38.13l-17.05,9.84a4.57,4.57,0,0,0-2,3.18l-1.71,19A6.4,6.4,0,0,1,320,128a102.9,102.9,0,0,0-9.48,10,3.28,3.28,0,0,1-3.35.95l-10.94-3.83a2.69,2.69,0,0,0-3.07,1.14L280.64,158a2.67,2.67,0,0,0,.55,3.23l8.78,7.56a3.29,3.29,0,0,1,.86,3.38,103.11,103.11,0,0,0-3.95,13.22,6.3,6.3,0,0,1-2.18,3.3l-15.58,11a4.61,4.61,0,0,0-1.74,3.35v19.69a1.38,1.38,0,0,0,.61,1.27h0l8.4,4.84,12.47-5.9c.49,1,1,2,1.56,2.9a4.22,4.22,0,0,1,.23,3.68l-10.12,20.39a2.3,2.3,0,0,0,.9,3l11,6.34a2.29,2.29,0,0,0,3-.71l12.61-19a4.18,4.18,0,0,1,3.3-1.64,33.91,33.91,0,0,0,8.21-.83,1.8,1.8,0,0,1,2.27,1.61l1.67,16.56a1.4,1.4,0,0,0,.65,1.16h0l8.38,4.83,10.07-14.79a4.61,4.61,0,0,0,2-3.18l1.7-19a3.82,3.82,0,0,1,2.19-2.87,40.06,40.06,0,0,0,13.24-9.29,3.44,3.44,0,0,1,3.4-.9l6.72,2.36a2.67,2.67,0,0,0,3.07-1.13l12.53-21.72a2.67,2.67,0,0,0-.55-3.23l-5.77-5a3.54,3.54,0,0,1-.94-3.41,56.58,56.58,0,0,0,1.57-15.73,4.34,4.34,0,0,1,1.64-3.35L399,149a4.57,4.57,0,0,0,1.74-3.35l7.45-8.92Zm-74.45,78c-15.91,9.19-25.8,2.67-25.8-15.7s13.15-40.87,29.06-50.06,25.54-2.5,25.54,15.87S350,198.41,334.06,207.59Z"/><path class="cls-5" d="M384.24,105.55l3.35-6.74a2.3,2.3,0,0,0-.9-3l-11-6.34a2.29,2.29,0,0,0-3,.71l-12.6,19a3.42,3.42,0,0,1-.84.81l14.11,8.14Z"/><path class="cls-5" d="M285.9,187.38a5.13,5.13,0,0,1-1.2,1.28l-15.58,11a4,4,0,0,0-1,1.18l9.51,5.48,20.68-11.76Z"/><path class="cls-5" d="M295.37,135a2.68,2.68,0,0,0-2.19,1.26L280.64,158a2.53,2.53,0,0,0-.28,1.58l10.81,6.24,17.15-23.21Z"/><path class="cls-5" d="M323.83,104.32,337.2,112l15.18-8.76V97.15L344,92.29h0a1.43,1.43,0,0,0-1.38.13l-17.05,9.84A4.54,4.54,0,0,0,323.83,104.32Z"/><path class="cls-9" d="M409.12,150.51V130.82a1.27,1.27,0,0,0-1.94-1.25L392,136.41a1.8,1.8,0,0,1-2.53-1.17,33.84,33.84,0,0,0-3.38-7.52,4.22,4.22,0,0,1-.23-3.68L396,103.64a2.3,2.3,0,0,0-.9-3l-11-6.33a2.29,2.29,0,0,0-3,.7l-12.61,19a4.18,4.18,0,0,1-3.3,1.64,33.91,33.91,0,0,0-8.21.83,1.79,1.79,0,0,1-2.27-1.6L353,98.31a1.27,1.27,0,0,0-2-1.06l-17.05,9.85a4.59,4.59,0,0,0-2,3.18l-1.7,19a6.38,6.38,0,0,1-1.78,3.55,101.5,101.5,0,0,0-9.47,10,3.25,3.25,0,0,1-3.35,1L304.63,140a2.66,2.66,0,0,0-3.07,1.14L289,162.8a2.66,2.66,0,0,0,.54,3.23l8.79,7.57a3.27,3.27,0,0,1,.85,3.38,102.5,102.5,0,0,0-3.95,13.21,6.31,6.31,0,0,1-2.18,3.31l-15.57,11a4.58,4.58,0,0,0-1.74,3.36V227.5a1.27,1.27,0,0,0,1.94,1.26l15.17-6.84a1.8,1.8,0,0,1,2.53,1.17,33.84,33.84,0,0,0,3.38,7.52,4.16,4.16,0,0,1,.23,3.68l-10.11,20.4a2.31,2.31,0,0,0,.89,3l11,6.33a2.29,2.29,0,0,0,3-.7l12.61-19a4.2,4.2,0,0,1,3.3-1.64,33.91,33.91,0,0,0,8.21-.83,1.8,1.8,0,0,1,2.28,1.6L331.86,260a1.27,1.27,0,0,0,2.06,1.05L351,251.23a4.55,4.55,0,0,0,2-3.18l1.71-19a6.36,6.36,0,0,1,1.77-3.55,101.5,101.5,0,0,0,9.47-10,3.27,3.27,0,0,1,3.35-.95l10.95,3.82a2.66,2.66,0,0,0,3.07-1.14l12.54-21.71a2.68,2.68,0,0,0-.55-3.23l-8.78-7.57a3.27,3.27,0,0,1-.86-3.38,102.5,102.5,0,0,0,3.95-13.21,6.37,6.37,0,0,1,2.18-3.31l15.58-11A4.61,4.61,0,0,0,409.12,150.51Zm-66.68,61.92c-15.91,9.18-28.8,1.74-28.8-16.63s12.89-40.71,28.8-49.9,28.81-1.74,28.81,16.63S358.35,203.24,342.44,212.43Z"/><path class="cls-5" d="M408.52,129.56h0a1.37,1.37,0,0,0-1.35,0L392,136.41a1.79,1.79,0,0,1-2.52-1.17,33.54,33.54,0,0,0-2.17-5.33l11.49-5.18a1.45,1.45,0,0,1,1.32,0h0Z"/><path class="cls-11" d="M528,499.2v-1.61c-.63,1.89-3.59,10-8.06,14.13-3.56,3.25-8.42,7-9.66,10.62s6.76,5,10.09,4.44c3.86-.69,8.86-2.88,11.59-6.22,1.91-2.35,3.13-5.14,4.49-7s4.52-3.91,5.26-6.05c.41-1.18-.08-3.75-.65-5.93-.52-2-1.09-4.19-1.77-4v1.23c-.82.91-3.09,1.81-5.64,1.91C532,500.79,528,500.46,528,499.2Z"/><path class="cls-14" d="M516.71,514.57c1.11-1,2.22-1.94,3.23-2.86,3.13-2.86,5.51-7.7,6.88-11a15.54,15.54,0,0,0,1.18-5.94v-6.43h11.29v10.47h0v.28l-.06,0c-.54,2.34-5.72,8.58-8.66,12.65-2,2.73-5.72,6.2-10.2,6.8C516.12,519.13,514,517.79,516.71,514.57Z"/><path class="cls-11" d="M484,488.08v-1.62c-.64,1.9-3.59,10.05-8.07,14.13-3.56,3.25-8.42,7-9.65,10.62-1.29,3.77,6.76,5,10.08,4.44,3.87-.68,8.87-2.88,11.59-6.22,1.91-2.35,3.13-5.14,4.5-7s4.51-3.91,5.25-6.05c.41-1.17-.07-3.75-.64-5.92-.53-2-1.09-4.19-1.78-4v1.23c-.81.91-3.08,1.81-5.64,1.91C488,489.66,484,489.34,484,488.08Z"/><path class="cls-14" d="M472.69,503.45c1.1-1,2.21-1.95,3.22-2.87,3.13-2.85,5.51-7.69,6.88-11a15.29,15.29,0,0,0,1.19-5.94v-6.43h11.29v10.47h0V488l-.06,0c-.54,2.35-5.72,8.59-8.67,12.65-2,2.73-5.72,6.2-10.2,6.8C472.1,508,469.93,506.67,472.69,503.45Z"/><path class="cls-15" d="M537.05,323.79c8.75,19.11-.32,86.43-.32,86.43.26,3.11,3.81,9.21,5.13,22.86,1.56,16.13-2.45,56.63-2.45,56.63a12.24,12.24,0,0,1-11.41.45s-10.75-61-12.78-77c-1.76-14-5.15-44.77-5.15-44.77l-9.63,44.69a83.36,83.36,0,0,1,3.05,13.82c.91,9.43-8.22,53.35-8.22,53.35s-3.9,1.43-11.29.34c0,0-3.23-58.28-4.09-69.65-1.43-19.08,3.64-78.62,7.14-89.92Z"/><path class="cls-16" d="M510.07,368.36l-2.84-17.75s-12-2.49-17.47-7.61c0,0,5.72,7.11,14.21,9.44l3.19,13.67-5.57,41.38Z"/><path class="cls-14" d="M491.56,311.74c6.63-22.05,15.08-54.87,11.89-54.87s-8.09-.29-11.67,3.31c-7.07,7.1-8.36,20.25-9.84,27.76s-2.55,13.44-4.91,24.58c-1.8,8.47-4,18.68-7.18,25.21a5.26,5.26,0,0,1-2.77,2.52c-3.2,1.31-4.68,3-7.25,4.86-2,1.49-3.54,1.68-3.41,2.29a2.83,2.83,0,0,0,3.37,1.89,19.92,19.92,0,0,0,4.48-1.51,26.21,26.21,0,0,1-5.45,6.48c-4.9,4.27-5.61,7.28,2.55,8.77,5.12.94,9.75-1.52,15.56-12.14a94.46,94.46,0,0,0,5.8-12.05C486.62,328,489.56,318.4,491.56,311.74Z"/><path class="cls-12" d="M521.61,257.39h0c11.22.77,12,6.19,14.81,12.12A19.19,19.19,0,0,1,537,284l-7.81,22.61s3.66,8.85,7.91,17.21c-19.62,10.95-44.12,5.19-50-2.8-.25-1.69,1.27-14.94,2.2-23.6-3.45-8.67-4.37-14.16-2.91-19.89,2.71-10.64,13.21-21,17.86-20.62Z"/><path class="cls-11" d="M510.83,248.09h4.35a22.93,22.93,0,0,0,22.93-22.93h0a23.05,23.05,0,0,0-23.06-23H511a23.05,23.05,0,0,0-23.05,23h0A22.92,22.92,0,0,0,510.83,248.09Z"/><path class="cls-11" d="M550.39,260.18h0a13.55,13.55,0,0,1-13.55-13.55v-29h0a13.55,13.55,0,0,1,13.55,13.55Z"/><path class="cls-11" d="M539.32,212.48l-3.39,5.45a3.12,3.12,0,0,0,4.42-.9A3.37,3.37,0,0,0,539.32,212.48Z"/><path class="cls-14" d="M496.14,212.26c-2.65,1.57-5.93,8.24-5.6,22.22.27,11.85,4.11,14.78,6,15.63s5.65.33,9.27-.28V257s-5,5.8-4.69,9.06,7.22,4,11.9.85a30.38,30.38,0,0,0,7.67-8V241.63s2.44,3.26,6.44.61,4.14-9.22,1.82-11.57-7.32-1.61-8.26,1.64c0,0-5.77.21-13.45-4A21.57,21.57,0,0,1,496.14,212.26Z"/><path class="cls-11" d="M505.1,231.51a1.5,1.5,0,0,0,1.41,1.61,1.55,1.55,0,1,0-1.41-1.61Z"/><path class="cls-17" d="M503.37,241.55l-3.46,1.11a1.79,1.79,0,0,0,2.25,1.24A1.9,1.9,0,0,0,503.37,241.55Z"/><path class="cls-11" d="M492.88,226.93l3-2.09a1.75,1.75,0,0,0-2.5-.51A1.91,1.91,0,0,0,492.88,226.93Z"/><path class="cls-11" d="M493.57,230.43a1.52,1.52,0,0,0,1.41,1.62,1.54,1.54,0,0,0,1.57-1.48,1.49,1.49,0,1,0-3-.14Z"/><polygon class="cls-17" points="500.85 229.57 500.61 238.55 495.89 237.08 500.85 229.57"/><path class="cls-17" d="M505.85,249.83c3.81-.5,11.65-2.75,12.87-5.85a8.06,8.06,0,0,1-2.75,4c-2.34,2-10.12,4.27-10.12,4.27Z"/><path class="cls-7" d="M516.59,325.91a11.83,11.83,0,0,0,8.83-14.44,3.78,3.78,0,0,0-.2-.62,3.87,3.87,0,0,0-4-2.64h0a11.4,11.4,0,0,0,4.9-7.31L528.53,289s-4.42-14.05-4-18.87l11.26.66,1.46,1A19.73,19.73,0,0,1,537,284l-7.81,22.61s3.66,8.85,7.91,17.21c-14.46,8.07-31.56,7.06-41.92,2.78A57.34,57.34,0,0,0,516.59,325.91Z"/><path class="cls-15" d="M532.81,315c-4.15,1.1-16.76,2.6-17.69-6.25-.61-5.79-.32-14.56,0-21.19A51.07,51.07,0,0,1,526,258.79l.5-.63s-1.82-1.48-5.74-.8c0,0-8.51,8.07-11.1,19.82-5.63-.83-12.76-1.44-17.49-1.79A32.9,32.9,0,0,1,505.85,257c-2.1-1.11-5-.09-5-.09-7.83,4.47-12,12-13.84,18.18-4.52,12.51-4.36,59.07-4.28,75.6l7.78-12.39H540.2C539.57,320.47,532.81,315,532.81,315Z"/><path class="cls-14" d="M557.08,302.86s-5.3-11.31-12.66-28.07c-5.31-12.12-6.5-14.85-15-16.16l-3-.47c-4,13.17-1.25,19.14,4,28.16l10.43,20.22C545.09,305.72,557.17,304.12,557.08,302.86Z"/><path class="cls-14" d="M540.94,306.54c3.1,6.23,5.75,10.09,9.51,11.1s34.81.65,34.81.65V306.54l-29.55-4.49Z"/><path class="cls-6" d="M603,435.49H554.18v95.17c-.23,3.78,2.13,7.6,7.12,10.48,9.55,5.51,25,5.51,34.57,0,4.78-2.76,7.16-6.38,7.16-10h0Z"/><path class="cls-6" d="M597.89,426.85h0c-5.4-3.53-2-12.12-2-12.12H561.3s3.27,8.54-2,12.12h0c-7.45,5.54-6.79,13.54,2,18.62,9.55,5.51,25,5.51,34.57,0C604.68,440.39,605.34,432.39,597.89,426.85Z"/><path class="cls-18" d="M597.89,426.85h0c-5.4-3.53-2-12.12-2-12.12H561.3s3.27,8.54-2,12.12h0c-7.45,5.54-6.79,13.54,2,18.62,9.55,5.51,25,5.51,34.57,0C604.68,440.39,605.34,432.39,597.89,426.85Z"/><path class="cls-18" d="M594.91,419a18.22,18.22,0,0,1,1-4.22H561.3a18.07,18.07,0,0,1,.92,4.21C571.5,423.78,585.63,423.78,594.91,419Z"/><path class="cls-6" d="M603,398.09h-2.89a18,18,0,0,0-4.27-3.32c-9.55-5.52-25-5.52-34.57,0a18,18,0,0,0-4.27,3.32h-2.89v6.66h0c0,3.61,2.39,7.22,7.16,10,9.55,5.51,25,5.51,34.57,0,4.77-2.76,7.16-6.37,7.16-10h0Z"/><path class="cls-6" d="M561.3,408.07c9.55,5.51,25,5.51,34.57,0s9.55-14.45,0-20-25-5.51-34.57,0S551.75,402.56,561.3,408.07Z"/><path class="cls-13" d="M561.3,408.07c9.55,5.51,25,5.51,34.57,0s9.55-14.45,0-20-25-5.51-34.57,0S551.75,402.56,561.3,408.07Z"/><path class="cls-19" d="M578.6,534.89h0a4.78,4.78,0,0,1-4.77-4.77v-68a4.77,4.77,0,0,1,4.77-4.76h0a4.76,4.76,0,0,1,4.76,4.76v68A4.77,4.77,0,0,1,578.6,534.89Z"/><path class="cls-19" d="M594.87,532h0c-2.28.83-4.12-.35-4.12-2.63V460.14a6.52,6.52,0,0,1,4.12-5.63h0c2.28-.83,4.13.35,4.13,2.62v69.26A6.53,6.53,0,0,1,594.87,532Z"/><path class="cls-19" d="M562.32,532h0c2.28.83,4.13-.35,4.13-2.63V460.14a6.53,6.53,0,0,0-4.13-5.63h0c-2.28-.83-4.12.35-4.12,2.62v69.26A6.52,6.52,0,0,0,562.32,532Z"/><path class="cls-2" d="M585.27,226.92l-10-5.76L569,250.79s6.29,10.29,6.29,16.94V394.14l6.61,7.71,3.37-2V273.49c0-6.65,6.3-9.67,6.3-9.67Z"/><path class="cls-20" d="M581.89,228.86l-10-5.76-6.29,29.64s6.3,10.28,6.3,16.94V396.09l10,5.76V275.44c0-6.66,6.29-9.68,6.29-9.68Z"/><polygon class="cls-21" points="571.9 223.1 575.28 221.16 585.26 226.92 581.89 228.87 571.9 223.1"/><polygon class="cls-1" points="585.26 226.92 581.89 228.87 588.18 265.76 591.56 263.82 585.26 226.92"/><path class="cls-14" d="M585.26,297.23c.52-2.23,4-3.48,3.69.24s1.44,6.31,1.94,8c1.06,3.64.82,10.52-.61,11.88s-3.27,2.92-6,2.71a12.25,12.25,0,0,1-7.47-3c-2.3-1.79-4.76-12.06.57-10.61,7.93,2.17,7.88-3.54,7.88-3.54Z"/><path class="cls-14" d="M324.49,330.91c5.58,1.12,8.87,5.21,15.59,15.65s17.14,28.28,17.14,28.28l26.07,10-1.11,11.72s-28.45-5-32.34-7.94-19-24.7-19-24.7Z"/><path class="cls-22" d="M319.82,328.76c5.79,1,11.52,2.43,15.07,7.94s16.54,26.6,16.54,26.6-4.74,11.09-13.35,12.77L325.67,358.2Z"/><path class="cls-12" d="M298.6,329.24c-2,.47-4,.6-5.74.95-8.61,1.73-10.21,6.21-10.41,16.61-.34,17.4-.05,57.69-.05,57.69,7.67,5.58,36,9,52.16-2.79,0,0-.82-46.35-.82-54.56s-4.56-18.07-17.16-18.8Z"/><rect class="cls-14" x="280.41" y="546.49" width="11.14" height="19.06" transform="translate(571.96 1112.05) rotate(180)"/><polygon class="cls-14" points="325.96 551.12 337.09 551.5 337.64 531.33 325.96 530.95 325.96 551.12"/><path class="cls-3" d="M336.17,401.7h0l-2-45.24-35,5.65a151.49,151.49,0,0,1-1.24,21.42c-.66,5.59-6,13.2-15.52,15.72,0,0-.58,6.77-.09,22,.18,5.27-2.3,63.61-2.3,63.61-.26,3.06-3.2,8.51-3.43,19.53-.34,16,3.38,51.67,3.38,51.67a14.64,14.64,0,0,0,12.4.24s7.49-51.29,9.48-67.11c1.74-13.81,9-52.63,9-52.63l8.51,46.67A63,63,0,0,0,318,500.9c.52,7.32,7.29,44,7.29,44s5.25,3.56,12.86,1c0,0,.67-57.54.8-64.26C339.05,474,336.17,401.7,336.17,401.7Z"/><path class="cls-3" d="M334.17,356.46c-.36-8.95-1.61-17.22-9.33-25a11.19,11.19,0,0,0-7.93-3.24h-1.65S323,334.41,326,343.32c2.62,7.73,2.46,17.36,2.46,17.36Z"/><path class="cls-11" d="M291.55,560.06v-1.59c.59,0,1,.58,1.19,2,.16,1,.32,1.8.65,3.15a36.76,36.76,0,0,0,1.95,5.7c1.57,3.88,2.89,5.33,6.5,9.86.85,1.08,2.78,2.79,3.46,4s.91,4.53-.24,5.29c-4.2,2.8-10.59,2.88-15.1,1.56a9.13,9.13,0,0,1-6.56-7.37c-.17-1-.1-2.08-.22-3.11a14.72,14.72,0,0,0-2.79-6.47,18.91,18.91,0,0,1-2.14-3.52c-.94-2.29-.19-4.86.41-7.14.52-2,1.08-4.14,1.75-3.95v1.21c.81.9,3,1.79,5.57,1.88C287.61,561.63,291.56,561.3,291.55,560.06Z"/><path class="cls-11" d="M337.21,548.07c.57,0,1.05.84,2.32,2.22a24.12,24.12,0,0,0,6.55,4.71c4.17,2.09,12.28,5.3,15.95,7,2.29,1,2.18,3.8-.19,5.38s-8.09,2.71-15,1.17c-3.74-.83-8.61-4.29-11.69-4.1s-8.85.14-11.13-1.43-1.36-4.92-.72-7.8c.7-3.14,1.58-8,2.62-7.82v1.08c1.34,2,8.25,2.85,11.19,1.36Z"/><path class="cls-11" d="M310.83,436.53a41.25,41.25,0,0,0,15.5-8.89s-3,5.6-11.89,10.81L318.75,480Z"/><circle class="cls-11" cx="318.33" cy="292.22" r="15.3"/><path class="cls-11" d="M291.87,303.1s2.48,11.65,3.48,13.56a5.24,5.24,0,0,0,3,2.46l-.18-8.19Z"/><path class="cls-11" d="M295,286.41a5.73,5.73,0,0,0-4.75,1.67c-2,2.08-.9,8.62,1.64,15l4.67.53Z"/><path class="cls-14" d="M297.94,303.64c-.93.56-2.27-1.24-3.42-2.45s-4.93-2.86-6.81,1.1,1.66,9.38,4.63,10.31c5.11,1.61,5.88-1.67,5.88-1.67l.38,19h0c6.36,8.15,24,7.46,16.66-1.06l0-5.61a32.36,32.36,0,0,0,6.9.35c3.77-.58,6.13-3.55,7.27-7.62,1.84-6.55,2.53-11.83,1-24.69-1.71-14.11-18.11-14.25-27-8.68S297.94,303.64,297.94,303.64Z"/><path class="cls-3" d="M299.13,364.86c.26-11.57-2.39-28.73-6.27-34.67a11.11,11.11,0,0,1,5.74-.95s7.28,11.34,7,35.62Z"/><path class="cls-11" d="M297.94,305.21c-.47,0-2.26-3-3.42-4-1.62-1.47.46-14.78.46-14.78a6.48,6.48,0,0,1,1.12-7.19c2.21-2.44,5.3-5.41,15.34-4.23,7.16.85,14.95,3.08,21.25,0A10.72,10.72,0,0,1,329,286.36s-2.28,1.47-8.28,2.2-15.33-.14-16.6-.31c-1.74-.24-2.11,1.44-3.05,6.05C300.21,298.34,299.53,305.18,297.94,305.21Z"/><path class="cls-11" d="M295,287.44l-5.66-3a3.12,3.12,0,0,1,4.29-1.42A3.38,3.38,0,0,1,295,287.44Z"/><path class="cls-17" d="M315.25,323.28s-8.4-1.7-11.34-3.26a9.59,9.59,0,0,1-4.06-4,13.16,13.16,0,0,0,2.31,4.73c2.14,2.75,13.08,4.77,13.08,4.77Z"/><path class="cls-11" d="M314.93,302.6a1.68,1.68,0,1,1-1.68-1.75A1.71,1.71,0,0,1,314.93,302.6Z"/><path class="cls-11" d="M313.15,296.25l-3.6,2a2.14,2.14,0,0,1,.83-2.86A2,2,0,0,1,313.15,296.25Z"/><path class="cls-17" d="M314.48,313.16l3.85,1.45a2,2,0,0,1-2.61,1.27A2.16,2.16,0,0,1,314.48,313.16Z"/><path class="cls-11" d="M329.94,297.65l-3.28-2.53a2,2,0,0,1,2.85-.44A2.18,2.18,0,0,1,329.94,297.65Z"/><path class="cls-11" d="M328.93,302.12a1.71,1.71,0,0,1-1.68,1.75,1.74,1.74,0,0,1-1.69-1.76,1.69,1.69,0,1,1,3.37,0Z"/><polygon class="cls-17" points="319.91 300.85 320.46 310.97 325.75 309.17 319.91 300.85"/><path class="cls-5" d="M400.23,319.65c0-3.11,2.61-7.46,1.81-9.79l-5.76-3.32-11.53,29L373,342.24l-5.82-8.49,17.4-26-5.76-3.32c-.73.34-1.46.71-2.21,1.14-13.15,7.47-23.89,25.89-24,41.13-.05,7.69,2.62,13.08,7,15.59h0l5.74,3.31.67-1.74h.42v135c-8.08,9-13.71,21.65-13.79,32.67,0,5.72,1.42,10.16,3.95,13.11l5.76,3.33,5.78-32.34L379.86,509l5.81,8.49L374,546.73l5.76,3.33s20.33-30.36,20.43-45.6a21.61,21.61,0,0,0-2.48-11l1.44-1.21-5.72-3.3v0a12.45,12.45,0,0,0-7-1.72v-135C394.53,343.32,400.16,330.67,400.23,319.65Z"/><polygon class="cls-11" points="366.39 498.87 372.14 502.19 372.14 367.22 366.39 363.9 366.39 498.87"/><path class="cls-9" d="M392.21,490.62v-135c8.08-9,13.71-21.65,13.78-32.67,0-5.72-1.42-10.16-3.95-13.12l-11.53,29-11.78,6.69-5.81-8.48,11.64-29.3c-.73.34-1.46.72-2.21,1.14-13.15,7.48-23.89,25.89-24,41.13-.07,11.17,5.59,17.5,13.79,17.17v135c-8.08,9-13.72,21.66-13.79,32.68,0,5.71,1.42,10.16,3.95,13.11l11.54-29,11.77-6.69,5.81,8.48-11.63,29.3c.73-.34,1.46-.72,2.2-1.14,13.15-7.48,23.89-25.89,24-41.13C406.07,496.62,400.4,490.29,392.21,490.62Z"/><polygon class="cls-11" points="383.12 513.7 385.62 512.28 391.43 520.76 379.8 550.06 374.04 546.73 385.68 517.44 383.12 513.7"/><path class="cls-14" d="M392.21,379.67c0,2.17-3.3,4.59-5.71,6.1s-5.47,3.63-4.32,8a6.25,6.25,0,0,0,8.25,4.34,9,9,0,0,0,5.35-7.2c.59-4,2-13.73-3.57-14.85Z"/><path class="cls-14" d="M260,391.27c9.59-43,15.59-52.43,28.94-57.41l-1.81,25.89s-12.52,27.89-14.4,37.75c-1.66,8.67-3.51,19.56-3.23,27a5.35,5.35,0,0,0,1.53,3.49c2.45,2.54,3.15,4.7,4.76,7.53,1.26,2.22,2.6,3,2.23,3.55a2.91,2.91,0,0,1-3.92.37,20.09,20.09,0,0,1-3.56-3.27,26.92,26.92,0,0,0,2.4,8.3c2.81,6,2.22,9.11-6,7.12-5.16-1.24-8.46-5.45-9.49-17.75a96.87,96.87,0,0,1-.42-13.63C257.93,408.48,258.5,398.2,260,391.27Z"/><path class="cls-22" d="M290.15,330.91a19.28,19.28,0,0,0-9.63,2.95c-3.36,2.26-8.93,11.35-12.46,22.6S262.67,374,262.67,374s5.78,8.82,18.27,5.33c0,0,7-17.59,6.62-16.47C287.56,362.81,296.86,345.47,290.15,330.91Z"/></g></svg>