<svg xmlns="http://www.w3.org/2000/svg" viewBox="0 0 700 640"><defs><style>.cls-1{fill:#ececec;}.cls-2{fill:#f0f0f0;}.cls-3{fill:#f5f5f5;}.cls-4{fill:#e7e7e7;}.cls-12,.cls-21,.cls-5,.cls-7{fill:#fff;}.cls-6{fill:#054641;}.cls-13,.cls-7{opacity:0.3;}.cls-18,.cls-8{fill:#1a2e35;}.cls-11,.cls-9{fill:#1c7c70;}.cls-10,.cls-17{fill:#00dfdf;}.cls-10{opacity:0.1;}.cls-11,.cls-12{opacity:0.4;}.cls-14{fill:#db8f8d;}.cls-15{fill:#ffbdb8;}.cls-16{fill:#007cff;}.cls-18,.cls-19,.cls-20{opacity:0.2;}.cls-21{opacity:0.7;}</style></defs><title>Illustration</title><g id="Layer_6" data-name="Layer 6"><rect class="cls-1" x="17" y="508" width="666" height="0.33"/><path class="cls-1" d="M332.7,448.6H75.49a7.62,7.62,0,0,1-7.6-7.61V79.45a7.61,7.61,0,0,1,7.6-7.61H332.7a7.61,7.61,0,0,1,7.6,7.61V441A7.62,7.62,0,0,1,332.7,448.6ZM75.49,72.18a7.28,7.28,0,0,0-7.27,7.27V441a7.28,7.28,0,0,0,7.27,7.27H332.7A7.28,7.28,0,0,0,340,441V79.45a7.28,7.28,0,0,0-7.27-7.27Z"/><path class="cls-1" d="M620.81,448.6H363.6A7.62,7.62,0,0,1,356,441V79.45a7.61,7.61,0,0,1,7.6-7.61H620.81a7.61,7.61,0,0,1,7.6,7.61V441A7.62,7.62,0,0,1,620.81,448.6ZM363.6,72.18a7.28,7.28,0,0,0-7.27,7.27V441a7.28,7.28,0,0,0,7.27,7.27H620.81a7.28,7.28,0,0,0,7.27-7.27V79.45a7.28,7.28,0,0,0-7.27-7.27Z"/><rect class="cls-1" x="249.35" y="520.69" width="34.63" height="0.33"/><rect class="cls-1" x="86.88" y="517.07" width="72.06" height="0.33"/><rect class="cls-1" x="212.96" y="533.05" width="35.05" height="0.33"/><rect class="cls-1" x="360.96" y="530.82" width="51.72" height="0.33"/><rect class="cls-1" x="424.54" y="530.82" width="14.24" height="0.33"/><rect class="cls-1" x="543.6" y="525.19" width="72.67" height="0.33"/><rect class="cls-2" x="524.57" y="329.05" width="60.81" height="167.13" transform="translate(1109.95 825.23) rotate(180)"/><rect class="cls-2" x="259.08" y="496.18" width="314.63" height="11.82" transform="translate(832.78 1004.18) rotate(180)"/><rect class="cls-3" x="247.4" y="329.05" width="277.17" height="167.13"/><rect class="cls-2" x="247.4" y="340.36" width="278.24" height="61.17"/><rect class="cls-2" x="247.4" y="412.69" width="278.24" height="61.17"/><rect class="cls-4" x="524.57" y="340.36" width="10.52" height="61.17" transform="translate(1059.66 741.9) rotate(180)"/><rect class="cls-4" x="524.57" y="412.69" width="10.52" height="61.17" transform="translate(1059.66 886.56) rotate(180)"/><rect class="cls-2" x="239.3" y="318.77" width="285.27" height="10.28" transform="translate(763.87 647.82) rotate(180)"/><rect class="cls-4" x="524.57" y="318.77" width="69.31" height="10.28"/><rect class="cls-2" x="454.09" y="107.45" width="143.1" height="179.88" transform="translate(1051.27 394.78) rotate(180)"/><rect class="cls-3" x="422.5" y="107.45" width="169.21" height="179.88" transform="translate(1014.2 394.78) rotate(180)"/><rect class="cls-5" x="431.34" y="126.96" width="151.53" height="140.86" transform="translate(309.71 704.49) rotate(-90)"/><path class="cls-4" d="M522.7,213.79l26.92-12.48v-7.85L522.7,181v9.39l16.36,7.05-16.36,7Z"/><path class="cls-4" d="M505.14,177.33h-4.92l8.72,40.11h4.87Z"/><path class="cls-4" d="M491.5,204.45l-16.36-7,16.36-7.05V181l-26.92,12.5v7.85l26.92,12.48Z"/><polygon class="cls-2" points="160.84 508 194.79 508 185.35 502.44 170.28 502.44 160.84 508"/><ellipse id="_Path_" data-name="&lt;Path&gt;" class="cls-3" cx="350" cy="553.07" rx="258.26" ry="15.08"/><rect class="cls-6" x="122.91" y="333.09" width="452.55" height="16.24"/><rect class="cls-7" x="122.91" y="333.09" width="121.12" height="16.24"/><polygon class="cls-6" points="245.96 349.33 235.42 349.33 240.94 552.83 245.96 552.83 250.98 552.83 256.5 349.33 245.96 349.33"/><polygon class="cls-7" points="240.94 552.83 245.96 552.83 245.96 353.7 235.59 355.6 240.94 552.83"/><polygon class="cls-6" points="146.1 349.33 135.56 349.33 141.08 552.83 146.1 552.83 151.12 552.83 156.64 349.33 146.1 349.33"/><polygon class="cls-7" points="141.08 552.83 146.1 552.83 146.1 353.7 135.72 355.6 141.08 552.83"/><polygon class="cls-6" points="552.27 349.33 541.73 349.33 547.25 552.83 552.27 552.83 557.29 552.83 562.81 349.33 552.27 349.33"/><polygon class="cls-7" points="547.25 552.83 552.27 552.83 552.27 353.7 541.9 355.6 547.25 552.83"/><polygon class="cls-6" points="452.4 349.33 441.86 349.33 447.38 552.83 452.4 552.83 457.43 552.83 462.95 349.33 452.4 349.33"/><polygon class="cls-7" points="447.38 552.83 452.4 552.83 452.4 353.7 442.03 355.6 447.38 552.83"/><path class="cls-8" d="M337.72,246.17H230.05a5.55,5.55,0,0,0-5.56,7l14.34,68.4a9.16,9.16,0,0,0,8.5,7H355a5.54,5.54,0,0,0,5.55-7l-14.34-68.4A9.15,9.15,0,0,0,337.72,246.17Z"/><path class="cls-5" d="M248.33,324.72a6.38,6.38,0,0,1-5.75-4.79l-14.34-68.4a3.15,3.15,0,0,1,.5-2.67,2.87,2.87,0,0,1,2.3-1H338.72a6.39,6.39,0,0,1,5.75,4.79l14.34,68.4a3.15,3.15,0,0,1-.5,2.67,2.86,2.86,0,0,1-2.31,1Z"/><path class="cls-9" d="M329.57,319.25,316,254.44a2.64,2.64,0,0,1,2.59-3.18H336a2.64,2.64,0,0,1,2.58,2.1l13.59,64.81a2.65,2.65,0,0,1-2.59,3.18H332.15A2.64,2.64,0,0,1,329.57,319.25Z"/><polygon class="cls-6" points="237.21 256.88 236.62 254.07 258.2 254.07 258.79 256.88 237.21 256.88"/><polygon class="cls-1" points="247.17 263.86 246.58 261.05 284.4 261.05 284.99 263.86 247.17 263.86"/><polygon class="cls-1" points="249.16 270.83 248.57 268.02 290.96 268.02 291.55 270.83 249.16 270.83"/><polygon class="cls-1" points="251.15 277.8 250.56 274.99 284.7 274.99 285.29 277.8 251.15 277.8"/><polygon class="cls-6" points="243.77 289.12 243.18 286.3 256.83 286.3 257.42 289.12 243.77 289.12"/><polygon class="cls-1" points="253.73 296.09 253.14 293.28 269.77 293.28 270.36 296.09 253.73 296.09"/><polygon class="cls-1" points="274.34 296.09 273.75 293.28 290.38 293.28 290.97 296.09 274.34 296.09"/><polygon class="cls-1" points="255.72 303.06 255.13 300.25 311.34 300.25 311.93 303.06 255.72 303.06"/><polygon class="cls-1" points="257.71 310.03 257.12 307.22 299.98 307.22 300.57 310.03 257.71 310.03"/><path class="cls-8" d="M388,328.21H246.31c-3.86,0-6.36,2.2-5.55,4.88H396.49C395.68,330.41,391.86,328.21,388,328.21Z"/><path class="cls-10" d="M199.76,228.88l-13.59-64.81a2.64,2.64,0,0,1,2.59-3.18h110a2.64,2.64,0,0,1,2.58,2.1L315,227.79a2.64,2.64,0,0,1-2.59,3.18h-110A2.63,2.63,0,0,1,199.76,228.88Z"/><polygon class="cls-9" points="238.87 163.03 215.78 163.03 215.26 160.54 238.35 160.54 238.87 163.03"/><polygon class="cls-11" points="235.11 166.99 225.84 166.99 225.33 164.5 234.6 164.5 235.11 166.99"/><polygon class="cls-11" points="250.54 166.99 236.26 166.99 235.74 164.5 250.02 164.5 250.54 166.99"/><polygon class="cls-11" points="256.77 170.95 226.67 170.95 226.15 168.47 256.25 168.47 256.77 170.95"/><polygon class="cls-11" points="252.94 174.91 227.5 174.91 226.98 172.43 252.42 172.43 252.94 174.91"/><polygon class="cls-11" points="269.81 217.03 253.62 217.03 254.14 219.51 270.33 219.51 269.81 217.03"/><polygon class="cls-9" points="249.62 211.59 225.9 211.59 225.38 209.1 249.1 209.1 249.62 211.59"/><polygon class="cls-11" points="259.16 220.99 237.1 220.99 237.62 223.47 259.68 223.47 259.16 220.99"/><polygon class="cls-11" points="252.47 217.03 236.28 217.03 236.79 219.51 252.99 219.51 252.47 217.03"/><polygon class="cls-11" points="267.84 213.06 235.45 213.06 235.97 215.55 268.36 215.55 267.84 213.06"/><polygon class="cls-9" points="238.06 144.54 211.92 144.54 211.4 142.06 237.54 142.06 238.06 144.54"/><polygon class="cls-11" points="250.96 153.94 222.14 153.94 222.66 156.43 251.48 156.43 250.96 153.94"/><polygon class="cls-11" points="245.19 149.98 221.32 149.98 221.84 152.47 245.71 152.47 245.19 149.98"/><polygon class="cls-11" points="246.79 146.02 220.49 146.02 221.01 148.5 247.31 148.5 246.79 146.02"/><polygon class="cls-9" points="237.76 181.36 219.6 181.36 219.08 178.88 237.24 178.88 237.76 181.36"/><polygon class="cls-11" points="266.29 190.76 230.8 190.76 231.32 193.25 266.81 193.25 266.29 190.76"/><polygon class="cls-11" points="244.68 186.8 229.97 186.8 230.49 189.29 245.2 189.29 244.68 186.8"/><polygon class="cls-11" points="260.63 186.8 245.93 186.8 246.45 189.29 261.15 189.29 260.63 186.8"/><polygon class="cls-11" points="261.54 182.84 229.15 182.84 229.67 185.32 262.05 185.32 261.54 182.84"/><polygon class="cls-11" points="261.47 202.65 233.28 202.65 233.8 205.14 261.99 205.14 261.47 202.65"/><polygon class="cls-11" points="240.65 198.69 232.45 198.69 232.97 201.18 241.17 201.18 240.65 198.69"/><polygon class="cls-11" points="253.48 198.69 241.78 198.69 242.3 201.18 254 201.18 253.48 198.69"/><polygon class="cls-11" points="264.01 194.73 231.63 194.73 232.15 197.21 264.53 197.21 264.01 194.73"/><polygon class="cls-11" points="289.53 194.06 277.93 194.06 277.41 191.58 289.01 191.58 289.53 194.06"/><polygon class="cls-11" points="308.85 194.06 290.96 194.06 290.45 191.58 308.33 191.58 308.85 194.06"/><polygon class="cls-11" points="316.43 198.03 278.75 198.03 278.24 195.54 315.91 195.54 316.43 198.03"/><polygon class="cls-11" points="311.43 201.99 279.58 201.99 279.06 199.5 310.91 199.5 311.43 201.99"/><polygon class="cls-11" points="325.69 178.3 289.61 178.3 290.13 180.78 326.21 180.78 325.69 178.3"/><polygon class="cls-11" points="318.68 174.34 288.78 174.34 289.3 176.82 319.2 176.82 318.68 174.34"/><polygon class="cls-9" points="313.27 170.37 280.35 170.37 280.87 172.86 313.79 172.86 313.27 170.37"/><polygon class="cls-11" points="327.32 217.84 282.88 217.84 283.4 220.32 327.84 220.32 327.32 217.84"/><polygon class="cls-11" points="300.47 213.88 282.06 213.88 282.58 216.36 300.99 216.36 300.47 213.88"/><polygon class="cls-11" points="320.44 213.88 302.04 213.88 302.55 216.36 320.96 216.36 320.44 213.88"/><polygon class="cls-11" points="321.78 209.91 281.23 209.91 281.75 212.4 322.3 212.4 321.78 209.91"/><polygon class="cls-11" points="320.66 229.73 285.36 229.73 285.88 232.21 321.18 232.21 320.66 229.73"/><polygon class="cls-11" points="294.8 225.76 284.54 225.76 285.05 228.25 295.32 228.25 294.8 225.76"/><polygon class="cls-11" points="310.87 225.76 296.21 225.76 296.73 228.25 311.38 228.25 310.87 225.76"/><polygon class="cls-11" points="324.26 221.8 283.71 221.8 284.23 224.29 324.78 224.29 324.26 221.8"/><polygon class="cls-11" points="216.27 232.8 188.65 232.8 189.16 235.28 216.78 235.28 216.27 232.8"/><polygon class="cls-11" points="208.09 228.84 187.82 228.84 188.34 231.32 208.61 231.32 208.09 228.84"/><polygon class="cls-11" points="229.81 228.84 209.53 228.84 210.05 231.32 230.33 231.32 229.81 228.84"/><polygon class="cls-11" points="227.54 224.88 187 224.88 187.51 227.36 228.06 227.36 227.54 224.88"/><polygon class="cls-6" points="537.75 307.22 520.65 307.22 522.64 333.09 535.75 333.09 537.75 307.22"/><polygon class="cls-12" points="537.75 307.22 520.65 307.22 522.64 333.09 535.75 333.09 537.75 307.22"/><polygon class="cls-8" points="165.03 289.25 189.62 289.25 181.22 333.09 156.64 333.09 165.03 289.25"/><polygon class="cls-6" points="196.34 277.5 161.62 277.5 171.34 333.09 206.06 333.09 196.34 277.5"/><polygon class="cls-6" points="159.56 277.5 161.62 277.5 171.34 333.09 169.28 333.09 159.56 277.5"/><polygon class="cls-13" points="159.56 277.5 161.62 277.5 171.34 333.09 169.28 333.09 159.56 277.5"/><polygon class="cls-5" points="176.33 327.15 168.69 283.44 191.35 283.44 198.99 327.15 176.33 327.15"/><polygon class="cls-9" points="197.92 327.15 190.28 283.44 191.35 283.44 198.99 327.15 197.92 327.15"/><path class="cls-8" d="M368.34,206.39c.49,1.07.33,2.19-.37,2.52s-1.66-.28-2.16-1.35-.32-2.2.37-2.52S367.85,205.32,368.34,206.39Z"/><path class="cls-14" d="M368.77,208.54s.42,7.28-.88,11.49c2.7.89,5.54-1.41,5.54-1.41Z"/><path class="cls-8" d="M368.47,197.64a.67.67,0,0,1-.39.15,5.47,5.47,0,0,0-4.39,2.39.69.69,0,0,1-.94.25.7.7,0,0,1-.26-.94,6.85,6.85,0,0,1,5.51-3.08.69.69,0,0,1,.73.65A.71.71,0,0,1,368.47,197.64Z"/><path class="cls-15" d="M407.57,204.78c4.12,14.26,8.71,25.34,14.32,31.63,0,0,.1,11.2-19,16.53-21,5.86-12.94-7.62-12.94-7.62,10.69-5.93,9.64-14.89,1.62-18.29Z"/><path class="cls-8" d="M426.34,233.68c-.38-5.22-.86-11.16-4.08-11.31-3.54-.16-24.05,9-28.43,15.46S398,250.62,398,250.62Z"/><path class="cls-15" d="M384.35,314.34l-17.72-.58.32,14.83s15.46-1.59,16.14-5.65Z"/><polygon class="cls-15" points="357.27 321.04 355.41 328.62 366.95 328.59 366.63 313.75 357.27 321.04"/><path class="cls-16" d="M455.46,252.67l-.37,3.81c-.12,1.22-.29,2.43-.45,3.64-.31,2.41-.69,4.82-1.1,7.22-.81,4.8-1.85,9.58-3,14.39a150.6,150.6,0,0,1-4.43,14.49c-.92,2.43-1.88,4.87-3,7.35a61.27,61.27,0,0,1-4,7.53c-.37.62-.82,1.28-1.25,1.92s-.88,1.28-1.39,1.94-1,1.29-1.57,2l-.87,1a12.87,12.87,0,0,1-1,1,30.54,30.54,0,0,1-9.22,6.2,54.7,54.7,0,0,1-16.56,4.19c-2.6.31-5.17.43-7.7.49s-5,0-7.5-.13-4.93-.35-7.37-.64-4.8-.68-7.4-1.2l.43-13.92c8.55-1.7,17.51-3.44,25.18-6a52.18,52.18,0,0,0,5.41-2.08,24.54,24.54,0,0,0,4.29-2.32,6,6,0,0,0,1.94-1.89l.39-.61c.16-.2.33-.55.5-.82s.34-.6.52-.95.35-.66.52-1.05a69.13,69.13,0,0,0,3.85-10.57c1.09-3.92,2.12-8,2.95-12.22s1.62-8.48,2.36-12.79l1-6.47.91-6.3Z"/><path class="cls-17" d="M455.46,252.67l-.37,3.81c-.12,1.22-.29,2.43-.45,3.64-.31,2.41-.69,4.82-1.1,7.22-.81,4.8-1.85,9.58-3,14.39a150.6,150.6,0,0,1-4.43,14.49c-.92,2.43-1.88,4.87-3,7.35a61.27,61.27,0,0,1-4,7.53c-.37.62-.82,1.28-1.25,1.92s-.88,1.28-1.39,1.94-1,1.29-1.57,2l-.87,1a12.87,12.87,0,0,1-1,1,30.54,30.54,0,0,1-9.22,6.2,54.7,54.7,0,0,1-16.56,4.19c-2.6.31-5.17.43-7.7.49s-5,0-7.5-.13-4.93-.35-7.37-.64-4.8-.68-7.4-1.2l.43-13.92c8.55-1.7,17.51-3.44,25.18-6a52.18,52.18,0,0,0,5.41-2.08,24.54,24.54,0,0,0,4.29-2.32,6,6,0,0,0,1.94-1.89l.39-.61c.16-.2.33-.55.5-.82s.34-.6.52-.95.35-.66.52-1.05a69.13,69.13,0,0,0,3.85-10.57c1.09-3.92,2.12-8,2.95-12.22s1.62-8.48,2.36-12.79l1-6.47.91-6.3Z"/><path class="cls-18" d="M455.46,252.67l-.37,3.81c-.12,1.22-.29,2.43-.45,3.64-.31,2.41-.69,4.82-1.1,7.22-.81,4.8-1.85,9.58-3,14.39a150.6,150.6,0,0,1-4.43,14.49c-.92,2.43-1.88,4.87-3,7.35a61.27,61.27,0,0,1-4,7.53c-.37.62-.82,1.28-1.25,1.92s-.88,1.28-1.39,1.94-1,1.29-1.57,2l-.87,1a12.87,12.87,0,0,1-1,1,30.54,30.54,0,0,1-9.22,6.2,54.7,54.7,0,0,1-16.56,4.19c-2.6.31-5.17.43-7.7.49s-5,0-7.5-.13-4.93-.35-7.37-.64-4.8-.68-7.4-1.2l.43-13.92c8.55-1.7,17.51-3.44,25.18-6a52.18,52.18,0,0,0,5.41-2.08,24.54,24.54,0,0,0,4.29-2.32,6,6,0,0,0,1.94-1.89l.39-.61c.16-.2.33-.55.5-.82s.34-.6.52-.95.35-.66.52-1.05a69.13,69.13,0,0,0,3.85-10.57c1.09-3.92,2.12-8,2.95-12.22s1.62-8.48,2.36-12.79l1-6.47.91-6.3Z"/><path class="cls-17" d="M376.8,270.32c4.29,17.82,9.83,47.7,11.1,86.77h78c.43-9.64-1.2-63.88-9-103.17a27.17,27.17,0,0,0-32.5-21.27l-.38.09c-9.72,2.22-23.71,5.79-31.93,8.91l-.33.13A24.44,24.44,0,0,0,376.8,270.32Z"/><path class="cls-19" d="M381.87,295.29c.62,3.73,1.24,7.7,1.82,11.86,6.38-6.66,8.4-27.07,8.4-27.07Z"/><path class="cls-15" d="M317.09,315.3l-17.65-1.66-.58,14.83a16.62,16.62,0,0,0,16.45-4.66Z"/><polygon class="cls-15" points="290.97 318.02 285.29 328.21 298.86 328.47 299.44 313.64 290.97 318.02"/><path class="cls-17" d="M406.07,263.54c-1.23,2.34-2.32,4.39-3.54,6.53s-2.41,4.21-3.67,6.27q-3.75,6.23-7.85,12.27a205.83,205.83,0,0,1-18.26,23.5,100.08,100.08,0,0,1-11.57,11c-.53.44-1.14.87-1.71,1.31a21.21,21.21,0,0,1-1.94,1.37,26.27,26.27,0,0,1-2.34,1.4,25.67,25.67,0,0,1-2.35,1.17,42.2,42.2,0,0,1-9.17,2.78,58.07,58.07,0,0,1-16.68.38,69.55,69.55,0,0,1-7.72-1.38c-1.26-.29-2.51-.62-3.76-1s-2.4-.79-3.84-1.28l2.21-13.75c8.36-1.14,17.4-2.59,23.64-5.41a17,17,0,0,0,3.88-2.23,8.36,8.36,0,0,0,1.25-1.11c.11-.12.51-.48.83-.77s.66-.58,1-.92a98.85,98.85,0,0,0,8-9c5.24-6.64,10.22-14,15-21.53,2.39-3.77,4.73-7.61,7.06-11.45l3.44-5.79,3.32-5.69Z"/><polygon class="cls-15" points="384.66 541.57 370.08 541.57 362.75 507.81 377.33 507.81 384.66 541.57"/><path class="cls-8" d="M369.27,538.45h16.38a1.28,1.28,0,0,1,1.25,1l2.88,13a2.15,2.15,0,0,1-2.14,2.59c-5.72-.1-8.5-.44-15.7-.44-4.43,0-10.12.47-16.24.47s-6.92-6.06-4.42-6.6c11.24-2.46,12-5.85,15.62-9.09A3.56,3.56,0,0,1,369.27,538.45Z"/><g class="cls-20"><polygon points="377.34 507.81 362.75 507.81 366.82 526.51 381.13 525.22 377.34 507.81"/></g><path class="cls-15" d="M402.9,187.66c5.26,13.48,9,21.1,5.51,30.9-5.28,14.72-24.24,16.21-33.42,4.57-8.26-10.48-15.47-30.77-5.05-41.92A19.73,19.73,0,0,1,402.9,187.66Z"/><path class="cls-8" d="M377.29,207.85c-2.19,2.94-3.86,5.15-3.86,5.15s-4.49-11.14-2.77-16.26c-2.18-4.33-6.59,2-8.26-6.38s5.54-17.49,8.26-19.36a9.7,9.7,0,0,1,.37,3s10.77-9.6,26.11-8.25c-1.05,1-1.46,3.92-1.46,3.92s15.81,2.71,19.4,11.61a17.21,17.21,0,0,0-4-1.4,19.31,19.31,0,0,1,3.2,14.29,145.24,145.24,0,0,0-1.79,22c.15,3.77-10.23,11-16.56,3.27S377.29,207.85,377.29,207.85Z"/><path class="cls-15" d="M383.89,205a14.82,14.82,0,0,1-.67,9.46c-1.69,3.92-5.16,3-6.89-.45-1.56-3.14-2.55-9,.2-11.74S382.85,201.18,383.89,205Z"/><path class="cls-16" d="M411.28,357.09s-67.72,24.55-69.72,57.05c-3.67,59.84,20.81,107.23,20.81,107.23L384.8,519s-4-19.26-7-73.48c-3.75-68.13,111.88,1.59,88.07-88.4Z"/><path class="cls-8" d="M411.28,357.09s-67.72,24.55-69.72,57.05c-3.67,59.84,20.81,107.23,20.81,107.23L384.8,519s-4-19.26-7-73.48c-3.75-68.13,111.88,1.59,88.07-88.4Z"/><path class="cls-17" d="M356.15,513.11c-.1,0,3.57,9.95,3.57,9.95l28-2.74-1.41-9.06Z"/><polygon class="cls-15" points="321.67 543.23 307.09 543.23 302.83 509.46 317.41 509.46 321.67 543.23"/><path class="cls-8" d="M307,538.44l15.93,0a1.27,1.27,0,0,1,1.24,1l2.9,13a2.12,2.12,0,0,1-2.1,2.6c-5.74-.09-14-.42-21.26-.41-8.45,0-10.06.48-20,.49-6,0-7.66-6-5.16-6.59,11.41-2.51,15.05-2.78,24.9-8.88A6.74,6.74,0,0,1,307,538.44Z"/><polygon class="cls-19" points="302.83 509.47 305.15 527.86 319.61 526.87 317.42 509.47 302.83 509.47"/><path class="cls-16" d="M387.9,357.09s-111,9.84-109.77,65.57c1.25,58,22.9,97.06,22.9,97.06H322.7s-4.11-30.07-3.38-87.13c.22-17.1,34.76-22.75,68.5-24.74,29.15-1.73,56.43-18.34,67.75-45.25l2.31-5.51Z"/><path class="cls-8" d="M387.9,357.09s-111,9.84-109.77,65.57c1.25,58,22.9,97.06,22.9,97.06H322.7s-4.11-30.07-3.38-87.13c.22-17.1,34.76-22.75,68.5-24.74,29.15-1.73,56.43-18.34,67.75-45.25l2.31-5.51Z"/><path class="cls-17" d="M296,513.9c-.09,0,3.72,10,3.72,10l26.15-1.86L324.31,513Z"/><path class="cls-8" d="M417,294.46,403,348.71a169.6,169.6,0,0,0-5.42,42.55v25.22c0,6.37,4.7,11.53,10.49,11.53h72.17c5.79,0,10.49-5.16,10.49-11.53V391.26a169.59,169.59,0,0,1,5.41-42.55l12.43-47.93c1.91-7.36-3.12-14.69-10.08-14.69H427.1C422.42,286.09,418.31,289.51,417,294.46Z"/><path class="cls-8" d="M327.26,401.74l2.36,13.46c1.25,7.07,7.47,12.81,13.91,12.81h80.22c6.44,0,10.65-5.74,9.41-12.81l-2.37-13.46c-1.41-8.05-8.49-14.58-15.82-14.58H338C330.64,387.16,325.85,393.69,327.26,401.74Z"/><polygon class="cls-8" points="431.48 441.52 389.45 441.52 385.35 428.01 435.58 428.01 431.48 441.52"/><rect class="cls-8" x="402.96" y="441.52" width="15.02" height="100.45"/><polygon class="cls-21" points="417.97 541.97 402.96 541.97 402.96 443.94 417.97 445.46 417.97 541.97"/><polygon class="cls-21" points="414.31 541.97 410.72 541.97 410.72 444.73 414.31 445.09 414.31 541.97"/><path class="cls-8" d="M445,557.49H375.94a1.91,1.91,0,0,1-1.13-3.45l11-8a30.65,30.65,0,0,1,18.14-5.94H417A30.67,30.67,0,0,1,435.16,546l11,8A1.91,1.91,0,0,1,445,557.49Z"/></g></svg>