<svg xmlns="http://www.w3.org/2000/svg" viewBox="0 0 700 520"><defs><style>.cls-1{opacity:0.15;}.cls-1,.cls-10,.cls-11,.cls-12,.cls-14,.cls-15,.cls-16,.cls-17,.cls-23,.cls-4,.cls-5,.cls-6,.cls-7,.cls-8,.cls-9{isolation:isolate;}.cls-12,.cls-14,.cls-15,.cls-2,.cls-41,.cls-6,.cls-7,.cls-9{fill:#fff;}.cls-3{opacity:0.3;}.cls-4{fill:#e9fffd;}.cls-12,.cls-4,.cls-41{opacity:0.5;}.cls-20,.cls-5{opacity:0.1;}.cls-6{opacity:0.25;}.cls-17,.cls-7{opacity:0.3;}.cls-8{opacity:0.08;}.cls-9{opacity:0.55;}.cls-10{opacity:0.07;}.cls-11{opacity:0.2;}.cls-13{fill:#fba504;}.cls-14{opacity:0.8;}.cls-15,.cls-16{opacity:0.1;}.cls-18{fill:#37474f;}.cls-19,.cls-20{fill:#455a64;}.cls-21,.cls-27{fill:#263238;}.cls-21{opacity:0.15;}.cls-22{fill:#290a59;}.cls-23{opacity:0.4;}.cls-24{fill:#e29504;}.cls-25{fill:#fcb736;}.cls-26{fill:#f29f86;}.cls-28{fill:#132428;}.cls-29{fill:#eafbfa;}.cls-30{fill:#142329;}.cls-31{fill:#e58e7a;}.cls-32{fill:#9a4a4d;}.cls-33{fill:#f28f8f;}.cls-34{fill:#ffbea7;}.cls-35{fill:#006187;}.cls-36{fill:#016bab;}.cls-37{fill:#f0997a;}.cls-38{fill:#f4f9ea;}.cls-39{fill:#f2aa97;}.cls-40{fill:#ffbda7;}.cls-42{fill:#30dacd;}</style></defs><title>Illustration</title><g id="Layer_14" data-name="Layer 14"><g id="freepik--Floor--inject-112" class="cls-1"><path id="freepik--floor--inject-112-2" data-name="freepik--floor--inject-112" class="cls-2" d="M164,474.84C61.21,420.65,61.21,332.73,164,278.51s269.3-54.22,372,0,102.78,142.14,0,196.33S266.73,529.07,164,474.84Z"/></g><g id="freepik--Shadows--inject-112" class="cls-3"><path class="cls-2" d="M522.05,406.39l-16.44-9.49a3.11,3.11,0,0,1,0-5.38l70.79-40.87a3.12,3.12,0,0,1,3.1,0l16.44,9.49a3.1,3.1,0,0,1,0,5.37l-70.78,40.88A3.14,3.14,0,0,1,522.05,406.39Z"/><path class="cls-2" d="M123,410.75l-16.69-9.64a3,3,0,0,1,0-5.16l71.05-41a3,3,0,0,1,3,0L197,364.57a3,3,0,0,1,0,5.16l-71,41A3,3,0,0,1,123,410.75Z"/></g><g id="freepik--Chart--inject-112"><path class="cls-4" d="M99.3,281.66l86.35-49.86a2.79,2.79,0,0,0,1.27-2.23V131.11c0-.8-.57-1.11-1.27-.72L99.3,180.24A2.78,2.78,0,0,0,98,182.47V281C98,281.72,98.61,282.06,99.3,281.66Z"/><g id="freepik--bar-graph--inject-112"><polygon class="cls-2" points="163.6 234.9 163.6 183.03 158.98 180.35 158.98 232.24 163.6 234.9"/><polygon class="cls-5" points="163.6 234.9 163.6 183.03 158.98 180.35 158.98 232.24 163.6 234.9"/><polygon class="cls-2" points="163.6 234.9 177.04 227.15 177.04 175.28 163.6 183.03 163.6 234.9"/><polygon class="cls-2" points="177.04 175.28 172.41 172.6 158.98 180.35 163.6 183.03 177.04 175.28"/><polygon class="cls-6" points="177.04 175.28 172.41 172.6 158.98 180.35 163.6 183.03 177.04 175.28"/><path class="cls-7" d="M177,175.34l-13.38,7.55L159,180.42l4.46,3c-.11,1.51,0,50,.18,51.58.2-1.54.29-50.18.19-51.63Z"/><polygon class="cls-2" points="138.41 249.44 138.41 207.78 133.79 205.11 133.79 246.78 138.41 249.44"/><polygon class="cls-5" points="138.41 249.44 138.41 207.78 133.79 205.11 133.79 246.78 138.41 249.44"/><polygon class="cls-2" points="138.41 249.44 151.85 241.69 151.85 200.02 138.41 207.78 138.41 249.44"/><polygon class="cls-8" points="138.41 249.44 151.85 241.69 151.85 200.02 138.41 207.78 138.41 249.44"/><polygon class="cls-2" points="151.85 200.02 147.22 197.36 133.79 205.11 138.41 207.78 151.85 200.02"/><polygon class="cls-9" points="151.85 200.02 147.22 197.36 133.79 205.11 138.41 207.78 151.85 200.02"/><path class="cls-7" d="M138.59,207.88,151.85,200l-13.43,7.56c-1.47-.82-4.63-2.47-4.63-2.47s3,1.89,4.46,2.76c0,1.58.08,40,.18,41.57C138.52,247.82,138.64,209.4,138.59,207.88Z"/><polygon class="cls-2" points="113.23 263.98 113.23 229.01 108.6 226.34 108.6 261.32 113.23 263.98"/><polygon class="cls-10" points="113.23 263.98 113.23 229.01 108.6 226.34 108.6 261.32 113.23 263.98"/><polygon class="cls-2" points="113.23 263.98 126.66 256.23 126.66 221.27 113.23 229.01 113.23 263.98"/><polygon class="cls-8" points="113.23 263.98 126.66 256.23 126.66 221.27 113.23 229.01 113.23 263.98"/><polygon class="cls-2" points="126.66 221.27 122.03 218.59 108.6 226.34 113.23 229.01 126.66 221.27"/></g><g id="freepik--Arrow--inject-112"><polygon class="cls-2" points="175.9 149.22 174.72 148.53 164.41 152.24 166.68 154.37 137.5 185.53 131.42 179.8 130.24 179.09 107.46 203.41 110.19 205.98 111.39 206.67 131.21 185.49 136.88 190.7 138.66 191.74 170.37 157.87 171.69 159.07 172.88 159.76 175.9 149.22"/><polygon class="cls-6" points="175.9 149.22 174.72 148.53 164.41 152.24 166.68 154.37 137.5 185.53 131.42 179.8 130.24 179.09 107.46 203.41 110.19 205.98 111.39 206.67 131.21 185.49 136.88 190.7 138.66 191.74 170.37 157.87 171.69 159.07 172.88 159.76 175.9 149.22"/><polygon class="cls-2" points="175.9 149.22 172.88 159.76 170.61 157.63 138.66 191.74 131.6 185.08 111.39 206.67 108.65 204.1 131.42 179.8 138.48 186.44 167.86 155.06 165.59 152.93 175.9 149.22"/><polygon class="cls-2" points="131.6 185.08 131.21 185.49 136.88 190.7 138.66 191.74 131.6 185.08"/><polygon class="cls-5" points="131.6 185.08 131.21 185.49 136.88 190.7 138.66 191.74 131.6 185.08"/><polygon class="cls-2" points="166.68 154.37 167.86 155.06 165.59 152.93 164.41 152.24 166.68 154.37"/><polygon class="cls-11" points="166.68 154.37 167.86 155.06 165.59 152.93 164.41 152.24 166.68 154.37"/><polygon class="cls-2" points="170.37 157.87 170.61 157.63 172.88 159.76 171.69 159.07 170.37 157.87"/><polygon class="cls-11" points="170.37 157.87 170.61 157.63 172.88 159.76 171.69 159.07 170.37 157.87"/><polygon class="cls-2" points="107.46 203.41 108.65 204.1 111.39 206.67 110.19 205.98 107.46 203.41"/><polygon class="cls-11" points="107.46 203.41 108.65 204.1 111.39 206.67 110.19 205.98 107.46 203.41"/><polygon class="cls-12" points="116.16 196.1 131.42 180.3 138.48 186.44 131.42 179.8 116.16 196.1"/><polygon class="cls-12" points="151.95 172.07 168.22 155.06 166.02 153.03 175.9 149.22 165.59 152.93 167.86 155.06 151.95 172.07"/></g></g><g id="freepik--Arrows--inject-112"><g id="freepik--arrow--inject-112-2" data-name="freepik--arrow--inject-112"><polygon class="cls-13" points="519.3 245.96 529.46 251.83 546.18 242.17 546.18 154.8 557.34 148.36 538.21 133.66 528.04 127.79 508.15 165.02 518.31 170.89 519.3 170.32 519.3 245.96"/><polygon class="cls-14" points="519.3 245.96 529.46 251.83 546.18 242.17 546.18 154.8 557.34 148.36 538.21 133.66 528.04 127.79 508.15 165.02 518.31 170.89 519.3 170.32 519.3 245.96"/><polygon id="freepik--down-arrow--inject-112" class="cls-13" points="529.46 251.83 546.18 242.17 546.18 154.8 557.34 148.36 538.21 133.66 518.31 170.89 529.46 164.45 529.46 251.83"/><polygon class="cls-5" points="529.46 251.83 546.18 242.17 546.18 154.8 557.34 148.36 538.21 133.66 518.31 170.89 529.46 164.45 529.46 251.83"/><polygon class="cls-13" points="519.3 245.96 529.46 251.83 529.46 164.45 519.3 170.32 519.3 245.96"/><polygon class="cls-12" points="519.3 245.96 529.46 251.83 529.46 164.45 519.3 170.32 519.3 245.96"/></g><polygon class="cls-2" points="561.87 267.15 569.49 271.54 582.02 264.31 582.02 188.83 590.39 184.01 576.05 172.99 568.43 168.59 553.52 196.5 561.14 200.89 561.87 200.47 561.87 267.15"/><polygon class="cls-15" points="561.14 200.89 576.05 172.99 568.43 168.59 553.52 196.5 561.14 200.89"/><polygon class="cls-2" points="569.49 271.54 582.02 264.31 582.02 188.83 590.39 184.01 576.05 172.99 561.14 200.89 569.49 196.06 569.49 271.54"/><polygon class="cls-16" points="569.49 271.54 582.02 264.31 582.02 188.83 590.39 184.01 576.05 172.99 561.14 200.89 569.49 196.06 569.49 271.54"/><polygon class="cls-17" points="561.87 267.15 569.49 271.54 569.49 196.06 561.87 200.47 561.87 267.15"/></g><g id="freepik--light-bulb--inject-112"><g id="freepik--Light--inject-112"><path class="cls-18" d="M568,114a5.38,5.38,0,1,1-5.35-5.4h0A5.36,5.36,0,0,1,568,114Z"/><path class="cls-19" d="M556.18,114.22c-3.54-2.07-3.51-5.41.06-7.43a14.18,14.18,0,0,1,12.86.1c3.53,2.08,3.51,5.4-.06,7.43A14.25,14.25,0,0,1,556.18,114.22Z"/><path class="cls-18" d="M556,112.28c-3.65-2.14-3.63-5.58,0-7.65a14.59,14.59,0,0,1,13.26.1c3.64,2.14,3.62,5.58-.06,7.65A14.65,14.65,0,0,1,556,112.28Z"/><path class="cls-19" d="M555.81,110.28c-3.76-2.23-3.73-5.74.06-7.89a15.08,15.08,0,0,1,13.66.11c3.76,2.23,3.74,5.73,0,7.88A15.1,15.1,0,0,1,555.81,110.28Z"/><path class="cls-18" d="M555.62,108.22c-3.88-2.23-3.85-5.91,0-8.13a15.57,15.57,0,0,1,14.1.11c3.87,2.23,3.83,5.91-.07,8.13A15.62,15.62,0,0,1,555.62,108.22Z"/><path class="cls-19" d="M555.48,106.06c-3.94-2.32-3.92-6,.07-8.3a15.92,15.92,0,0,1,14.37.11c4,2.32,3.93,6-.06,8.3A15.88,15.88,0,0,1,555.48,106.06Z"/><path class="cls-13" d="M563.14,43.64A25.56,25.56,0,0,0,537.4,69c-.15,20.29,16.56,23.78,16.5,32a4.35,4.35,0,0,0,2.55,3.61,13.77,13.77,0,0,0,12.47.1,4.38,4.38,0,0,0,2.61-3.58h0c.07-8.18,16.83-11.41,17-31.71A25.56,25.56,0,0,0,563.14,43.64Z"/><path class="cls-20" d="M558,103.48c-2.57-1.52-2.55-3.94,0-5.42a10.37,10.37,0,0,1,9.38.08c2.58,1.52,2.56,3.94,0,5.41A10.34,10.34,0,0,1,558,103.48Z"/><path class="cls-2" d="M566.13,100.2a.88.88,0,0,1-.87-.86,62.36,62.36,0,0,1,1.91-14.58,31.82,31.82,0,0,1,1.3-4.05,12.53,12.53,0,0,1-2.23-1.11,15.06,15.06,0,0,1-3.34-2.88,14.65,14.65,0,0,1-3.41,2.82,11.64,11.64,0,0,1-2.23,1.12,31.41,31.41,0,0,1,1.27,4,62.59,62.59,0,0,1,1.68,14.62.87.87,0,0,1-1.74,0,60.81,60.81,0,0,0-1.63-14.16,27.67,27.67,0,0,0-1.27-4.06,5.39,5.39,0,0,1-4.81-1.45,2.77,2.77,0,0,1-.35-3.58,2.31,2.31,0,0,1,2.36-1c1.38.29,2.69,1.7,3.82,4a9.58,9.58,0,0,0,2-1,13.09,13.09,0,0,0,3.26-2.81,6.36,6.36,0,0,1-1.22-4.88,2.44,2.44,0,0,1,4.66,0A6.35,6.35,0,0,1,564,75.29a13,13,0,0,0,3.23,2.81,8.84,8.84,0,0,0,2,1c1.12-2.23,2.5-3.67,3.87-3.93a2.34,2.34,0,0,1,2.35,1,2.77,2.77,0,0,1-.4,3.57,5.43,5.43,0,0,1-4.85,1.38,29.75,29.75,0,0,0-1.31,4A60.73,60.73,0,0,0,567,99.29a.88.88,0,0,1-.86.88h0ZM552.28,76.72c-.14,0-.31,0-.5.31a1.1,1.1,0,0,0,.24,1.38,3.44,3.44,0,0,0,2.76,1c-.91-1.7-1.8-2.52-2.37-2.63ZM571,79.44a3.52,3.52,0,0,0,2.79-.9c.16-.18.67-.79.25-1.39-.24-.33-.45-.34-.62-.31C572.81,77,571.91,77.79,571,79.44Zm-8-8.92a.58.58,0,0,0-.67.46,4.19,4.19,0,0,0,.65,2.84,4.17,4.17,0,0,0,.68-2.83.58.58,0,0,0-.66-.47Z"/></g><path class="cls-2" d="M563.38,33.9a1.41,1.41,0,0,1-.45.07,1.67,1.67,0,0,1-1.66-1.66h0V23.59a1.66,1.66,0,0,1,1.64-1.67H563a1.67,1.67,0,0,1,1.67,1.67v8.7A1.65,1.65,0,0,1,563.38,33.9Z"/><path class="cls-2" d="M544.8,38.86a1.66,1.66,0,0,1-1.88-.78l-4.35-7.54a1.67,1.67,0,0,1,2.9-1.67l4.34,7.54a1.66,1.66,0,0,1-.6,2.27l0,0A2.27,2.27,0,0,1,544.8,38.86Z"/><path class="cls-2" d="M531.2,52.43a1.68,1.68,0,0,1-1.28-.16l-7.53-4.36a1.67,1.67,0,0,1,1.47-3l.2.12,7.53,4.31a1.68,1.68,0,0,1,.61,2.29h0A1.69,1.69,0,0,1,531.2,52.43Z"/><path class="cls-2" d="M526.19,71a1.62,1.62,0,0,1-.44,0h-8.7a1.68,1.68,0,1,1,0-3.35h8.7a1.67,1.67,0,0,1,.44,3.28Z"/><path class="cls-2" d="M609.17,71.1a1.62,1.62,0,0,1-.44,0H600a1.68,1.68,0,0,1,0-3.35h8.68a1.69,1.69,0,0,1,.44,3.35h0Z"/><path class="cls-2" d="M595.51,52.51a1.67,1.67,0,0,1-1.3-3l7.54-4.35a1.67,1.67,0,0,1,1.67,2.9h0l-7.55,4.33A1.19,1.19,0,0,1,595.51,52.51Z"/><path class="cls-2" d="M581.94,38.9a1.65,1.65,0,0,1-1.88-2.39L584.42,29a1.68,1.68,0,0,1,2.9,1.68h0L583,38.18A1.65,1.65,0,0,1,581.94,38.9Z"/></g><g id="freepik--briefcase-2--inject-112"><g id="freepik--Briefcase--inject-112"><path class="cls-13" d="M510.33,340.64v51c0,2.46,1.74,3.9,3.89,5.15l5.36,3.1a5.14,5.14,0,0,0,4.18.83,11.94,11.94,0,0,0,2.87-1.17l.11-.06.29-.17,54.77-31.63a12.93,12.93,0,0,0,6.47-11.15v-46.5a3.69,3.69,0,0,0-1.68-2.88l-9.11-5.28a3.71,3.71,0,0,0-3.34,0L512,337.78a3.34,3.34,0,0,0-1.12,1.24A3.44,3.44,0,0,0,510.33,340.64Z"/><path class="cls-21" d="M510.33,340.64v51c0,2.46,1.74,3.9,3.89,5.15l5.36,3.1a5.14,5.14,0,0,0,4.18.83,11.94,11.94,0,0,0,2.87-1.17h0c-2.14,1-3.83-.12-3.83-2.65V348.84a5.12,5.12,0,0,1,.74-2.49L510.83,339A3.46,3.46,0,0,0,510.33,340.64Z"/><path class="cls-20" d="M522.85,348.84a5.54,5.54,0,0,1,2.52-4.36l58.73-33.91c2.32-1.34,4.21-.23,4.21,2.44V356.5a12.93,12.93,0,0,1-6.47,11.21l-54.78,31.63c-2.32,1.34-4.23.25-4.23-2.44Z"/><path class="cls-22" d="M580.42,303.57l-62.25,36.29a5.84,5.84,0,0,0-2.88,5V397.3l.94.55V344.94a4.93,4.93,0,0,1,2.42-4.22l62.71-36.56Z"/><path class="cls-11" d="M516.06,342a5.77,5.77,0,0,0-.77,2.9v52.41l.94.54V344.94a5,5,0,0,1,.65-2.42Z"/><path class="cls-22" d="M558.31,310.13v7.93l3.08,1.79V309.37c0-.55-.36-.76-.84-.49Z"/><path class="cls-23" d="M558.31,310.13v7.93l3.08,1.79V309.37c0-.55-.36-.76-.84-.49Z"/><path class="cls-22" d="M536.62,317.92V330.7l3,1.7,2-1.11V320.81a1.87,1.87,0,0,1,.84-1.46l15-8.71,3.13-1.81c.47-.27.84-.05.84.49V319.8l2-1.11v-13a1.82,1.82,0,0,0-.84-1.29l-1.25-.74a1.86,1.86,0,0,0-1.69,0l-22.12,12.78A1.83,1.83,0,0,0,536.62,317.92Z"/><path class="cls-11" d="M539.57,319.63V332.4l2-1.11V320.81a1.87,1.87,0,0,1,.84-1.46l15-8.71,3.13-1.81c.47-.27.84-.05.84.49V319.8l2-1.11v-13c-.07-.41-.41-.56-.84-.32l-22.12,12.78A1.87,1.87,0,0,0,539.57,319.63Z"/></g></g><g id="freepik--briefcase-1--inject-112"><g id="freepik--briefcase--inject-112-2" data-name="freepik--briefcase--inject-112"><path class="cls-22" d="M137.74,333.74H134.8V320.15a11,11,0,0,1,5-8.7l15.89-9.17a4,4,0,0,1,6.4,3.79l-.28,13.8-3-.05.27-13.82a1.7,1.7,0,0,0-.45-1.46c-.29-.18-.87-.06-1.5.31L141.27,314a8,8,0,0,0-3.53,6.13Z"/><path class="cls-13" d="M187.55,367.13l-3.18-58.55a5.14,5.14,0,0,0-2.31-3.75l-1.83-1.06a1.55,1.55,0,0,0-1.62-.12h0L117.43,339l8.45,64.86L187,368.52h0A1.48,1.48,0,0,0,187.55,367.13Z"/><path class="cls-24" d="M115.15,398.35l9.24,5.33c1.2.69,2.12.13,2-1.25l-3.18-58.55a5.18,5.18,0,0,0-2.31-3.76l-1.83-1.06a1.4,1.4,0,0,0-2,.18,1.37,1.37,0,0,0-.31,1.07l-3.71,54.28A4.54,4.54,0,0,0,115.15,398.35Z"/><path class="cls-22" d="M147.36,386.08a.85.85,0,0,1-.84-.78l-1.62-27.44a.84.84,0,0,1,.79-.88.85.85,0,0,1,.89.79l1.6,27.38a.83.83,0,0,1-.78.88Z"/><path class="cls-22" d="M170.8,372.57a.84.84,0,0,1-.84-.79l-1.62-27.43a.83.83,0,0,1,.77-.88h0a.84.84,0,0,1,.89.78l1.59,27.43a.84.84,0,0,1-.78.89h0Z"/><path class="cls-25" d="M131.16,370.87a4.45,4.45,0,0,1-6.1-1.62,4.39,4.39,0,0,1-.59-2l-1.26-23.41a5.19,5.19,0,0,0-2.32-3.75l-1.82-1.05a1.66,1.66,0,0,0-1.5-.2l61-35.22h0a1.48,1.48,0,0,1,1.6.11l1.84,1.06a5.18,5.18,0,0,1,2.31,3.76l1.24,23.12a12.28,12.28,0,0,1-6.1,11.29Z"/><polygon class="cls-22" points="152.56 355.85 161.43 350.74 161.81 355.64 152.92 360.78 152.56 355.85"/></g></g><g id="freepik--Characters--inject-112"><g id="freepik--characters--inject-112-2" data-name="freepik--characters--inject-112"><g id="freepik--Chartacter--inject-112"><g id="freepik--Bottom--inject-112"><path class="cls-26" d="M422.56,297.09l1.79-16.8-19.22,1.27s.29,9.12.56,14.27c.16,3.06-3.95,8.72-3.95,8.72s9,4.84,13.87,3.14,7.4-7.71,7.34-9S422.56,297.09,422.56,297.09Z"/><path class="cls-27" d="M376.25,323.33c-.31,0-.82,3.11.81,4.46,1.88,1.57,7.42,4.18,14.81,3.42s11.42-2.84,14.42-5.09,7.17-5.46,10.52-6.09c3.12-.59,6.5-1.84,7.51-2.72s.94-4.88.94-4.88Z"/><path class="cls-19" d="M422.56,297.06a1.16,1.16,0,0,1,1.11.94c.21,1.12.4,4.31.86,6.12a30.39,30.39,0,0,1,.57,9.7c-.44,2-5.52,3.34-8.77,4.46a41.55,41.55,0,0,0-10.56,6c-3.51,2.61-10.84,5.27-15.61,5.15-5.69-.14-12.06-2-13.5-4.46-1.76-3.08-3-6.69,5.46-10.17,1.62-.66,7.27-3.67,9.2-4.76,5.22-3,8.92-5.7,11.38-11.05a3,3,0,0,1,1.24-1.63,2.81,2.81,0,0,1,1.65-.1c1.39.2,7,1,8.26,1.62s2.72,1.11,2.67,2.49a4,4,0,0,1-.34,1.37c-.1.28-.19.64.07.82s.56,0,.79-.2a21.23,21.23,0,0,0,2.32-2.51,7.35,7.35,0,0,1,1.36-1.25,12.56,12.56,0,0,0,1.45-.86C422.63,298.28,422.49,297.69,422.56,297.06Z"/><path class="cls-18" d="M405.76,324.29a55.69,55.69,0,0,1,4.65-3.14h0s-10,5.48-14,2.85c-2.55-1.7-1.29-3.68-1.21-4.32s-9-5.32-11.48-5.64h0c-.71.35-1.3.63-1.67.78-8.5,3.51-7.23,7.09-5.47,10.17,1.44,2.5,6,4.46,13.39,4.63C394.81,329.68,402.25,326.9,405.76,324.29Z"/><path class="cls-18" d="M395.94,317.81c-5.29,1.87-3.06,2.83-1.59,3.05s10.38-4.46,15.82-8.35c5.69-4.06,9.3-8.54,11.42-10,.78-.56,1.62-1.24,2.38-1.89-.12-1.11-.21-2.06-.31-2.59a1.16,1.16,0,0,0-1.11-.94c0,.63.07,1.22-.45,1.69a11.77,11.77,0,0,1-1.45.86,7.68,7.68,0,0,0-1.36,1.25,20.42,20.42,0,0,1-2.32,2.51C412.32,308.73,401.21,315.93,395.94,317.81Z"/><path class="cls-27" d="M394.74,320.15a.54.54,0,0,0,.32-.11.46.46,0,0,0,.12-.64l0,0c-1.45-1.72-8.41-5.87-12.27-5.58a.5.5,0,0,0-.43.53.48.48,0,0,0,.53.43h0c3.62-.3,10.22,3.82,11.37,5.18A.55.55,0,0,0,394.74,320.15Z"/><path class="cls-27" d="M399.35,317.59a.48.48,0,0,0,.34-.11.46.46,0,0,0,.11-.63l0-.05c-1.44-1.71-8.39-5.86-12.26-5.57a.47.47,0,0,0-.47.49v0a.5.5,0,0,0,.56.44c3.61-.29,10.21,3.8,11.36,5.17A.54.54,0,0,0,399.35,317.59Z"/><path class="cls-27" d="M404,315.18a.55.55,0,0,0,.33-.11.46.46,0,0,0,.12-.64l0,0c-1.45-1.72-8.41-5.87-12.26-5.58a.47.47,0,0,0-.47.49v0a.5.5,0,0,0,.55.45h0c3.62-.3,10.22,3.8,11.37,5.16A.55.55,0,0,0,404,315.18Z"/><path class="cls-27" d="M408.25,312.4a.55.55,0,0,0,.33-.11.46.46,0,0,0,.11-.65l0,0c-1.46-1.72-8.41-5.87-12.26-5.58a.48.48,0,0,0-.43.53.48.48,0,0,0,.53.43c3.6-.29,10.2,3.82,11.36,5.18A.59.59,0,0,0,408.25,312.4Z"/><path class="cls-27" d="M412.45,309.61a.48.48,0,0,0,.33-.1.47.47,0,0,0,.12-.65l0,0c-2-2.44-9.29-5.92-13.16-5.57a.49.49,0,0,0-.47.51h0a.52.52,0,0,0,.57.45c3.48-.29,10.46,3,12.27,5.22A.48.48,0,0,0,412.45,309.61Z"/><path class="cls-26" d="M450.86,308l-2.5-16.28,19.79-.73-.92,15.4s1.42,5.71,0,7.59-14.62,2.62-15.67,1.17S450.86,308,450.86,308Z"/><path class="cls-27" d="M448.79,342.76c.06,5,.75,8.27,2.6,11.15s5.58,3.74,9.47,2.81,8.92-3.34,10.25-7.61,1.28-7.25.65-11.85Z"/><path class="cls-19" d="M467.23,306.42c1.57.09.46,6.78,1,13.45.58,7.16,2.86,10,3.41,15.95.63,6.69.06,9.71-2.84,13.81s-12.59,8.28-16.94,2.54c-3.54-4.67-3.41-9.93-2.7-16.64a152.64,152.64,0,0,0,1.29-17.09c0-5-1-9.6.39-10.18.06.74.11,1.68.19,2.4,0,.56.06,3.28.94,3.28a9.3,9.3,0,0,0,.13-1.9,2.12,2.12,0,0,1,.52-1.62,7.22,7.22,0,0,1,2.64-1c1.58-.3,4.35-.59,6-.75.78-.06,1.57-.12,2.36-.12a6.74,6.74,0,0,1,2,.21,1.26,1.26,0,0,1,.81.67,1.94,1.94,0,0,1,0,.76,4.58,4.58,0,0,0,.12,1.38c0,.2.19.44.42.38s.26-.24.27-.41c.06-.8,0-1.39,0-2.33v-1.47C467.2,307.28,467.24,306.91,467.23,306.42Z"/><path class="cls-18" d="M471.4,333.91c.1,1,.68,7.37-1.37,8.56s-3.13-3.73-3.13-3.73-5-1.27-12.45,1.69c.31,1-1,4.46-3,3.81s-2.35-8-2.35-8.13c-.66,6.43-.68,11.53,2.75,16.06,4.35,5.74,14.05,1.58,16.94-2.54s3.47-7.11,2.84-13.81C471.55,335.15,471.55,334.51,471.4,333.91Z"/><path class="cls-18" d="M466.3,339.18c-.1,2.42,2.68,1.55,3-1.87s-1.38-11.54-1-17.44c.39-8.11.56-13.38-1-13.45V310q0,.72,0,1.44c-.24,5-1.12,14.5-.93,19.06A67.48,67.48,0,0,1,466.3,339.18Z"/><path class="cls-18" d="M455.3,340.37a67.4,67.4,0,0,1-1-8.49c-.3-4.46-2-13.57-2.82-18.44a10,10,0,0,1-.4-2.76c-.07-.68-.13-1.52-.18-2.23v-.15c-1,.44-1.12,4.29-.78,6.32s.7,4.2,1,7.11c1.05,5.76.33,14.15,1,17.48S455.69,342.73,455.3,340.37Z"/><path class="cls-27" d="M454.28,340.63a.73.73,0,0,0,.21-.06,21.57,21.57,0,0,1,12.27-1.33.63.63,0,0,0,.73-.38.46.46,0,0,0-.28-.6l-.1,0A22.6,22.6,0,0,0,454,339.66a.54.54,0,0,0-.31.68l0,0A.56.56,0,0,0,454.28,340.63Z"/><path class="cls-27" d="M453.24,335.38h.2a26.61,26.61,0,0,1,13.65-1.54.65.65,0,0,0,.73-.4.47.47,0,0,0-.31-.58l-.09,0a27.59,27.59,0,0,0-14.5,1.57.52.52,0,0,0-.33.65s0,0,0,0A.56.56,0,0,0,453.24,335.38Z"/><path class="cls-27" d="M467.09,328.85a.68.68,0,0,0,.52-.36.48.48,0,0,0-.25-.62l-.09,0c-7-2-14.14,1.32-14.44,1.45a.52.52,0,0,0-.31.66l0,.05a.62.62,0,0,0,.78.2c.07,0,7-3.23,13.52-1.37A.71.71,0,0,0,467.09,328.85Z"/><path class="cls-27" d="M466.88,324.13a.64.64,0,0,0,.51-.34.46.46,0,0,0-.22-.63l-.09,0a20.89,20.89,0,0,0-14.74,1.42.52.52,0,0,0-.25.69l0,0a.62.62,0,0,0,.8.15,19.81,19.81,0,0,1,13.71-1.31A.76.76,0,0,0,466.88,324.13Z"/><path class="cls-27" d="M466.69,318.83a.59.59,0,0,0,.51-.34.47.47,0,0,0-.22-.63l-.09,0c-7.17-2.23-14.49,1.42-14.84,1.57a.52.52,0,0,0-.28.67s0,0,0,.05a.6.6,0,0,0,.8.16c.07,0,7.19-3.59,13.84-1.47A.58.58,0,0,0,466.69,318.83Z"/><path class="cls-22" d="M464.66,142.56c3.69,39,3.21,92.06,3.21,92.06a149.62,149.62,0,0,1,2,24.64c-.17,15.52-1.7,37.77-1.7,37.77s-9.23,6.62-19.77,1.12c0,0-5.05-28.18-8.17-50.75-2.5-18-7-44.86-7-44.86l-4.62,26s.78,11.15.59,19c-.23,9.07-5.3,43.86-5.3,43.86s-10.11,6.8-19.09,0c0,0-2.66-50.85-3.1-61.74-.87-21.39-.71-62.89-.43-90.52Z"/><path class="cls-28" d="M433.18,202.57l-4.84-31.52s-10.31-1.29-15.74-6.14c0,0,3.52,6.4,13.32,8.75l4.78,29-2.14,25.88Z"/><path class="cls-27" d="M468.06,300.56c-2.38,2.7-12,4.75-19.32,1.41l-.89-6.08c5.52,2.37,15.71,1.49,20.69-1.87Z"/><path class="cls-27" d="M423.92,292.26c-2.56,2.53-12.15,3.93-19.28.08l-.4-6.16c5.4,2.77,15.28,2.76,20.51-.23Z"/></g><g id="freepik--Top--inject-112"><path class="cls-26" d="M384.29,116.24s-24.86,22.3-29,25.2S343.51,149,343.51,149l2.59,1.4s8.28,9.44,13.66,6.1a36.77,36.77,0,0,0,3.73-2.44c1.62-1.28,2.77-2.59,4-3.63a50.15,50.15,0,0,1,6.59-4.55c12.27-7.45,19.88-13.13,24.54-16s5.29-5.7,8.73-11.58c5.83-10,12.26-24.78,12.26-24.78l-6.82-30c-9.93,2.52-12.1,7.51-17.17,21.77C387.92,107.12,384.29,116.24,384.29,116.24Z"/><path class="cls-29" d="M412.69,63c-6.69,1.76-11.15,5.16-14.36,13.68S383.93,116,383.93,116l-19.18,17.29a18.25,18.25,0,0,1,5.79,4.83,25.55,25.55,0,0,1,3.59,7.81s9-5,18.16-11,9.55-6.13,13.15-11.82,15-29.86,15-29.86Z"/><path id="freepik--Chest--inject-112" class="cls-29" d="M446.37,59.93c4,.83,8.93,1.89,8.93,1.89,10.2,4.54,11.84,5.23,14,6.16a160.61,160.61,0,0,1-2.05,35.58,221,221,0,0,0-1.54,24.53c-.11,11.7,0,19.83,0,19.83s-9.91,10.37-38.42,8.23c-22.36-1.69-26.12-10-26.12-10s-.36-29.76.23-46.25c.76-21.67,6.46-33,11.29-36.8L427,60.18Z"/><g id="freepik--Head--inject-112"><path class="cls-30" d="M457.27,19.82a8.28,8.28,0,0,0-4.38-4.18c-.83-4.77-6.87-10.46-18.54-11.09C424.79,4,419.2,7.33,415.87,12.9s-1.12,12.79-1.12,12.79L448.2,37.15l-.31,5.91-.22,8.48A5.45,5.45,0,0,0,450.83,49a46.59,46.59,0,0,0,4.69-11.82C458.53,26.16,458.37,21.94,457.27,19.82Z"/><path class="cls-26" d="M455.64,45.54c-4.39,2.14-6.4-1.34-6.4-1.34l-.66,17.5C443.89,68,435.66,65.79,429,73.62l-2-.1a17.55,17.55,0,0,1-.17-13v-4a27,27,0,0,1-3.8-.37c-3.89-.61-6.34-3.71-7.49-7.93-1.72-6.23-2.39-16.21,0-26.83.44-2,1.33-4.28,3.22-5.21,4.67-2.31,18.95-3,22.59,2.71-.52,3.44.46,7.24,3.62,8.39.09,5.44.86,8.09,3,8.92,1.74.74,2.59-2,3.79-3.2a4.9,4.9,0,0,1,6.9.59,4.83,4.83,0,0,1,.73,1.16,8,8,0,0,1-3.52,10.73Z"/><path class="cls-31" d="M426.87,56.46c5.11,0,9.65-.66,12.66-1.93s5.68-5.35,6.55-9.39c0,3.26-1.42,9-6,11.42s-9.89,2.53-13.24,2.6Z"/><path class="cls-27" d="M433,27.2l4.65.53a2.45,2.45,0,0,0-2.13-2.65,2.23,2.23,0,0,0-2.5,1.92A1.36,1.36,0,0,0,433,27.2Z"/><path class="cls-27" d="M418.09,26.07l4.4-1.74a2.24,2.24,0,0,0-2.81-1.44l-.18.07A2.48,2.48,0,0,0,418.09,26.07Z"/><path class="cls-27" d="M436.86,31.6a1.89,1.89,0,0,1-1.95,1.84h0a1.91,1.91,0,1,1,2-1.84Z"/><path class="cls-27" d="M421.77,30.82a1.91,1.91,0,1,1-1.84-2,1.75,1.75,0,0,1,1.85,1.62A2,2,0,0,1,421.77,30.82Z"/><path class="cls-31" d="M429.18,27.75l-1.57,12.14-6.42-2.37A28.23,28.23,0,0,1,429.18,27.75Z"/><path class="cls-32" d="M432.44,42.64l-5,1.64A2.57,2.57,0,0,0,430.66,46l.07,0A2.74,2.74,0,0,0,432.44,42.64Z"/><path class="cls-33" d="M431.91,43.49a3.32,3.32,0,0,1,.63,0,2.69,2.69,0,0,1-1.81,2.5,2.94,2.94,0,0,1-.84.12A2.41,2.41,0,0,1,431.91,43.49Z"/></g><g id="freepik--Tie--inject-112"><path class="cls-27" d="M424.6,76.1s-3.14-5.58-3.18-7.89l3.6-3.87,1.27,9.25Z"/><polygon class="cls-27" points="429.31 73.62 435.49 69.23 440.79 72.64 431.26 77.75 429.31 73.62"/><path class="cls-18" d="M430,133.61c1.35-12.91-1.26-48.16-1-52.73l-3.2-.26c-2.1,5.58-7.61,41.85-7.74,50.73-.06,4.27,4.14,11.82,5.57,12.08S429.76,136.36,430,133.61Z"/><path class="cls-27" d="M425.57,81.44c.08-.27.18-.59.25-.81h0l3.22.26h0v1.43A5.65,5.65,0,0,1,425.57,81.44Z"/><path class="cls-18" d="M429.31,73.62a14.51,14.51,0,0,0-3-.07,7.16,7.16,0,0,0-1.69,2.55,11,11,0,0,0,1.22,4.56,3.87,3.87,0,0,0,3.22.25,6.76,6.76,0,0,0,2.23-3.13A6,6,0,0,0,429.31,73.62Z"/><path class="cls-18" d="M428.79,73.55l.52.07a20,20,0,0,1,3.8-3.18C434,70,437.39,76.36,438,78s.5,1.62,2.78.26a43.19,43.19,0,0,0,10.44-9.14c3.67-4.46,4-7.27,4-7.27A51.36,51.36,0,0,1,451.87,57c-1.3-2.63-1.5-3.65-3-3.5l-.09,2.4c-.36,2.23-2.68,2.91-5.92,5.46s-8.42,4.88-9.67,6A45.53,45.53,0,0,0,428.79,73.55Z"/><path class="cls-18" d="M418.36,73.27c.31.93,3.54-6.06,4.95-5.84.69.08,2.31,4,3.5,6.09H427a26.37,26.37,0,0,1-.74-6.62,49.69,49.69,0,0,1,.57-6.45v-4a7.61,7.61,0,0,1-1.3-.07c-.38.35-6,6.21-6.63,8.92A24.25,24.25,0,0,0,418.36,73.27Z"/></g><path class="cls-26" d="M491.24,116.38c1.12,8.53,1.37,10,.83,15.68-.41,4.26-.85,5-2.45,12.72S484,166.66,484,168.72a34.19,34.19,0,0,1,0,5.9,24.41,24.41,0,0,1-1.63,6.83c-.59,1.5-1,3.15-1.65,4.61a16.4,16.4,0,0,1-2.13,2.78c-.77,1-1,2.33-2,3.23-1.68,1.6-3.44,1.83-5,2.57-.69,1-1.85,3.15-2.62,4.1-2,2.42-2.42-1.54-2.35-2.88a20,20,0,0,1,.8-4.26A95.36,95.36,0,0,0,469.87,181c.11-.63.87-3.25-.17-3.25a1.27,1.27,0,0,0-.86.51A31,31,0,0,0,467,181a16,16,0,0,1-1.69,1.9,5.37,5.37,0,0,1-1.7,1.33c-.66.29-3.14.48-3.24-.68a1.18,1.18,0,0,1,.12-.53c.52-1.21,1.12-2.36,1.64-3.55a33.8,33.8,0,0,0,1.45-3.65c1.12-3.9,2.1-7.11,4.46-10.33,4.19-5.79,5.08-40,5.08-40l-5.64-23.56a51.88,51.88,0,0,1-3.25-19.81C464.61,71,468.79,68,468.79,68c8.67,3.47,13.38,6.19,15.66,14.18S490.51,110.66,491.24,116.38Z"/><path class="cls-29" d="M492.35,122.47c-.25-2-1.52-12.62-4.66-28.13-3-14.73-3.75-16.19-6.76-19.58-2.36-2.68-8.31-5.51-12.37-7.09,0,0-5.27,3.13-5.41,12.85C463,89.78,467,102.63,467,102.63l5.36,23.88-.93,24c4.13-1.45,13.38,1.55,15.5,5.65,0,0,3.12-10.66,4.74-18.21A47,47,0,0,0,492.35,122.47Z"/><path class="cls-19" d="M471.55,148l-.61,6.64s2.8-.4,8.92,1.32c4.82,1.36,6.37,3.35,6.37,3.35L488,152.7S482.9,147.33,471.55,148Z"/></g></g><g id="freepik--Character--inject-112"><path id="freepik--Arm--inject-112" class="cls-34" d="M232.58,122.34c-6.79,1.62-14.06,4.46-19.12,21.91-3.71,12.82-5.85,18.95-7.52,27.13-.75,3.76-1.11,6.29-.46,12.88,1.11,10.8,2.66,26.37,2.66,31.94a56.31,56.31,0,0,0,2.4,17.64c1.76,6.46,9.46,9.41,10.76,10.16.29,1.12.46,2.64,1.11,3,1,.48,2.75-1.51,2.63-3.26-.29-4.87-4.56-13.58-3.64-16.07s2,3.86,3.81,5.57c2.39,2.23,4,1.12,3.7-.16-.5-1.9-1.69-5.34-2.5-9.24-1-4.78-2.85-6.15-3.7-10s.19-34.11.19-34.11l9.65-29.54Z"/><g id="freepik--bottom--inject-112-2" data-name="freepik--bottom--inject-112"><path class="cls-34" d="M261.07,236.31c-2.05,21.7-3,27.62-5.46,44.14-1.12,7.39-3.11,19.15-5.38,32.54-1.89,11.15-10,48.7-10,48.7-.76,4.62-1.76,13.77-1.12,19.52s2.07,10.58,7,11.69c-2.85,1.23-12.9,6.6-15.62-.74a45.17,45.17,0,0,1-1.22-4.46c-.4-1.59-.82-3.19-1.22-4.78a27.64,27.64,0,0,0-2.57-7.22,21.6,21.6,0,0,0-2.38-3.18,7.13,7.13,0,0,1-1.11-1.34c-.23-.44-.53-.81-.74-1.24a7,7,0,0,1-.51-3.58c.18-2,2.72-3.1,3.34-8.11.21-1.69-1.11-16.81-1.94-35.42a163.36,163.36,0,0,1,.43-21.45,120.19,120.19,0,0,1,4.21-16.5l-1.94-26.62-.36-19.63a61.61,61.61,0,0,1-2.23-28.09A112.29,112.29,0,0,1,230,184.89h50.71Z"/><path class="cls-35" d="M237.53,403s-1.72,2.23-8.77-2-8.63-8.24-8.63-8.24,4.06-14.76,8.16-10.33S237.53,403,237.53,403Z"/><path class="cls-36" d="M222.54,363c1.65-.6,5.48,1.67,7.59,4.06,2.76,3.17,3,6.94,4,11.48,1.12,4.84,3.35,11.59,5.58,13.38,1.31,1,2.62.73,4.28.21a6.71,6.71,0,0,1-1.33-1c1.6,0,3.78-.3,5.18-.35,5.22-.16,8.38,2.53,8.22,5.33-.22,2.23-9.89,8.72-16.18,8.1-5.22-.51-7.12.12-8.92-7.89s-2.29-12.43-5.3-7.58-5.58,16.33-5.58,16.33a3.9,3.9,0,0,1-4.26-.61s.8-7.42.8-12.18-1.45-12.47-.34-18S220.92,363.57,222.54,363Z"/><path class="cls-34" d="M230.1,184.91h51.69s9.61,27.57,9.55,67.61c0,21.8-.5,27.79-1.36,44.47-.41,7.45-1.34,19.35-2.37,32.89-.86,11.29-5.45,49.41-5.45,49.41-.34,4.68-.49,13.87.67,19.55s3,10.35,8,11c-2.71,1.49-12.27,7.81-15.61.71a43.85,43.85,0,0,1-1.63-4.31L272,401.58a27.45,27.45,0,0,0-3.24-6.94,21.3,21.3,0,0,0-2.65-3,7.54,7.54,0,0,1-1.22-1.24c-.25-.4-.6-.74-.83-1.11a7,7,0,0,1-.85-3.52c0-2,2.43-3.35,2.62-8.39.07-1.7-2.67-16.64-5.2-35.09-.88-6.46-1.75-16.95-1.55-21.39a119.46,119.46,0,0,1,2.68-16.82l-4.38-26.33"/><path class="cls-37" d="M257.36,277.74l-4.46-36.65S239.57,238.86,238,226c-.47,7.65,2.37,14.3,10.61,18l6,33.86-2,21.19Z"/><path class="cls-35" d="M283.26,420.65s-1.51,2.39-8.92-1.11-9.35-7.42-9.35-7.42,2.68-15.08,7.18-11S283.26,420.65,283.26,420.65Z"/><path class="cls-36" d="M264.65,382.26c1.57-.75,5.58,1.11,7.93,3.34,3,2.89,3.64,6.63,5.05,11,1.52,4.72,4.36,11.24,6.84,12.79,1.4.89,2.68.51,4.29-.17a7.85,7.85,0,0,1-1.42-.85c1.6-.12,3.75-.66,5.12-.84,5.19-.64,8.6,1.75,8.68,4.56,0,2.23-9,9.59-15.36,9.56-5.25,0-7.07.77-9.6-7s-3.43-12.16-6-7.07-4.07,16.73-4.07,16.73a3.91,3.91,0,0,1-4.3-.21s.1-7.47-.33-12.21-2.59-12.27-2-17.93S263.09,383,264.65,382.26Z"/></g><path class="cls-22" d="M291.87,234.79c-2.5-26-4.88-34.89-6.81-49.34l-56.27-1.81c-1.84,7.43-5.73,16.9-7.7,27.12-1.77,9.16-.36,19.65.72,32.34.71,8.38-1.6,43.15-1.6,43.15s1.47,5.42,23.62,9.18,34.49-1.26,34.49-1.26l2.84-29.29,3.06,28.87s5.45-.41,9-3.35C293.24,290.43,293.57,252.6,291.87,234.79Z"/><path class="cls-38" d="M292.57,146.58c-3.94-9.93-10-15.68-13.1-17.64-6.77-2.11-18.4-5.39-18.4-5.39s-4.73,4.85-13,2.72c-6.06-1.55-6.56-4.66-6.56-4.66a76.56,76.56,0,0,0-8.42.63c-2.15.33-7,2.16-9,11-3,13.12,3.25,27.46,3.76,37.45.25,5.09-2.12,10.78,1,12.93,7.63,5.1,19.28,7.6,29,7.73,9,.12,23-2.88,27.26-5.92,2.37-1.81.35-8.92,2.23-17.12C293.3,162.68,295.7,154.43,292.57,146.58Z"/><path class="cls-30" d="M277.53,80.35c1.56-1.95,1.45-5,.44-7.25s-3-4.69-8.68-7.34c-6.75-3.17-26.3-6.17-33.53,7.36-1,1.89,18,34.67,17.36,41.67C257.58,109.73,272.2,92,272.2,92c3.57-1.68,5.71-3.08,6.33-6.53A8.48,8.48,0,0,0,277.53,80.35Z"/><path class="cls-39" d="M275.36,90s5.2,7.8,4.69,8.48a25.94,25.94,0,0,1-3.53,2.55Z"/><path class="cls-40" d="M268.7,75.64c3.34,1.43,6.29,3.83,7.59,11,.35,1.88-1,4.46-.25,7,3.28,10.61-1,19.93-3,22-1.36,1.4-8.71,2.23-12.62,1.35-4.89-1.11-14.38-5.72-19.69-13.09-6.25-8.66-8.1-20.58-1.71-25.64C248,71.11,265.12,74.12,268.7,75.64Z"/><path class="cls-40" d="M262.48,114.15l-1.41,9.41c-2.91,3.35-8.39,4-12.74,3.07-3.11-.69-6.25-2.62-6.85-5l.94-11.6Z"/><path class="cls-39" d="M272.67,115.91c-1.68,1-5.51,2-10.67,1.44l.39-2.75a26.26,26.26,0,0,0,4.95,1.27A18,18,0,0,0,272.67,115.91Z"/><path class="cls-30" d="M271.07,76.7c.36,4.67-2.5,6.25-4.56,7.26a10.08,10.08,0,0,1,1.12,5.47c-.38,2.4-1.19,4.37-3.5,5.24-1.41.54-1.85-.06-2.41-1.18-.78-1.57-1.78-4-5.21-3.35-3.91.7-4.73,6.7-2.23,10.48,1.12,1.67,2.78,3.1,4.54,3.12a3.69,3.69,0,0,0,3.09-1.21s-.4,7.22-5.78,11.92c0,0-8.78,1.81-14.79-1.59-2.7-3-4.81-6-8.13-10.45-7.69-10.21-7.11-28.85,5.14-32.78.59-.18,7.89-2.73,13.38-1.76C268.61,70.81,271,75.89,271.07,76.7Z"/><path class="cls-30" d="M261.82,103l-.2,47.8s-23.34,5.4-33.56-4.13v-60s6.3,13.38,17,18S261.82,103,261.82,103Z"/><g id="freepik--top--inject-112-2" data-name="freepik--top--inject-112"><path class="cls-34" d="M337.52,175.08c-7.28,4.15-17.34,10.14-23.2,12.83-7.51,3.46-9.6,2.5-16.1-4.86-4.53-5.13-10.84-11.48-15.62-18.23-7.47-10.61-8.48-13.8-8.92-19-1.2-13.8,4-17.49,4-17.49,11.35,3.34,13.22,8.61,19.51,18.7C306,161.21,311,169,311,169s20.5-7.88,22.76-9.19,4.93-5,6.54-8.37,3.05-4.7,3.94-7.64c.34-1.12.66-1.81.92-1.94.74-.42,1.19-.26,1.8.33a3.62,3.62,0,0,1,1,2.31,14.49,14.49,0,0,1-.3,4.05c-.19,1.11-.36,2.15-.54,3.23a2.36,2.36,0,0,0,0,1.29,2.29,2.29,0,0,0,1.66,1.11,27.77,27.77,0,0,0,14.22-.47,7.53,7.53,0,0,0,1.65-.58c.11.18,0,.53,0,.73a7.54,7.54,0,0,1-1.9,3.8,40.23,40.23,0,0,0-3.08,3.18c-.49.73-.8,1.58-1.28,2.33a10.21,10.21,0,0,1-1.92,2c-3.43,2.94-7.63,6.48-11.62,7.16-.93.16-2.46.3-7.33,2.74"/></g></g><path class="cls-26" d="M364.38,144.67c-2.59,1.8-5.14,1.66-8.69,1.72a21.86,21.86,0,0,0-3.43.2,6.28,6.28,0,0,0-1.2.33,7.78,7.78,0,0,0-1.33.94c-1.87,1.32-4.31,2-5.57,4-.76,1.11-1,2.58-1.77,3.73a11.44,11.44,0,0,0-.95,1.43,1.55,1.55,0,0,0,.06,1.63,1.7,1.7,0,0,0,.68.44,4,4,0,0,0,2.86.09c1.9-.64,3-2.57,4.64-3.79a11.17,11.17,0,0,1,4.14-1.79,14.59,14.59,0,0,1,2.06-.46,10.33,10.33,0,0,1,1.66.14C359.88,153.53,364.38,144.67,364.38,144.67Z"/><path class="cls-26" d="M344.86,172.34a4.57,4.57,0,0,0,2.37-1.65c.75-1.41,1.77-2.23,2.1-3.83a8.61,8.61,0,0,1,.44-1.73,6.49,6.49,0,0,1,1.73-2.23c.67-.62,1.2-1.35,1.91-2,.35-.29,1-.58,1.37-.18a5.77,5.77,0,0,1,.75-1.68c.38-.53,1.43-1.44,2.09-.84a1.88,1.88,0,0,1,.37.6l1.88,3.94a4,4,0,0,1,.37,1,3.23,3.23,0,0,1-.87,2.36,5.31,5.31,0,0,1-1.12,1.05c-.51.34-1.11.54-1.63.89-1.06.72-1.66,2-2.82,2.6a23.25,23.25,0,0,1-2.31.64c-.61.25-1.11.66-1.74.95S345.74,172.43,344.86,172.34Z"/></g></g><g id="freepik--speech-bubble--inject-112"><path class="cls-2" d="M369.31,58.76A30.87,30.87,0,0,1,361,79.94l-2.56,2.44a30.94,30.94,0,0,1-43.69-43.55l2.44-2.58a31,31,0,0,1,52.16,22.53Z"/><path class="cls-41" d="M338.56,25.2a33.6,33.6,0,0,0-5.5,66.74l3.79,9.72a2,2,0,0,0,3.64,0l3.76-9.74a33.6,33.6,0,0,0-5.69-66.72Zm31,33.56a30.87,30.87,0,0,1-8.35,21.18l-2.56,2.44A30.94,30.94,0,0,1,315,38.83l2.44-2.58a31,31,0,0,1,52.16,22.53Z"/><path class="cls-29" d="M369.31,58.76A30.87,30.87,0,0,1,361,79.94l-2.56,2.44a30.94,30.94,0,0,1-43.69-43.55l2.44-2.58a31,31,0,0,1,52.16,22.53Z"/></g><g id="freepik--Check--inject-112"><path class="cls-42" d="M334.18,75.54a4.46,4.46,0,0,1-3.26-1.42l-10.1-10.79a4.46,4.46,0,1,1,6.51-6.1l6.57,7,15.53-19.68a4.48,4.48,0,1,1,7,5.58h0L337.68,73.86a4.46,4.46,0,0,1-3.35,1.69Z"/></g></g></svg>