<svg xmlns="http://www.w3.org/2000/svg" viewBox="0 0 700 640"><defs><style>.cls-1{fill:#f4f4f4;}.cls-2{fill:#f9f9f9;}.cls-3{fill:#f5f5f5;}.cls-4{fill:#ededed;}.cls-5{fill:#065953;}.cls-6{fill:#054641;}.cls-7{fill:#0ba195;}.cls-8{fill:#09786f;}.cls-9{fill:#0ec7b9;}.cls-10{fill:#f99370;}.cls-11{fill:#02dfdf;}.cls-12{fill:#06c1b7;}.cls-13{fill:#263238;}.cls-14{fill:#e57d61;}.cls-15{fill:#1a2e35;}.cls-16{fill:#c16256;}.cls-17{fill:#151b1e;}</style></defs><title>Illustration</title><g id="Layer_17" data-name="Layer 17"><g id="_3" data-name="3"><path class="cls-1" d="M129.86,520.38s-79.57-232.26-22.1-283.91c38.42-34.52,79,41.7,127.63,1.44C278.66,202.08,254.3,95,309.14,75.24,384.74,48,428.4,264.61,492.05,236.84c77.23-33.69,154,34.93,87.35,284.41Z"/><path class="cls-2" d="M650.13,424.17c-27.19-5.78-22.8,46.15-61.56,46.11-35.43,0-46.58-197.77-72.41-141.27C383.7,618.65,460.85,205.73,355.74,200.38c-47.53-2.42-79.27,69.82-91.08,197.77-17,115.66-56.11-88.29-96.53-69.37-25.69,12-14.47,154.25-56.8,152-38.73-2.05-35.78-62.92-63-57.2-29.28,6.16-38.11,98.05-38.11,98.05l677.81.65S679.4,430.38,650.13,424.17Z"/><path class="cls-3" d="M626,487c-25-2.08-21,16.56-56.6,16.52-32.6,0-31.67-41.8-53.47-50.69-40.16-16.39-73.36,66.32-88.9,24.78-29.48-110.21-115.7-165.55-155.66-.15-15.62,41.51-52-32.62-88.85-25-22.7,4.72-21,50.62-53.57,50.59-35.65,0-31.55-18.67-56.57-16.63-26.93,2.2-35,35.18-35,35.18l623.57.6S652.92,489.27,626,487Z"/><path class="cls-4" d="M10.24,521.64S4,559.88,55.62,568.8c27.19,4.69,140.15,3.38,84.83,19.57C118.6,594.76,163.24,606,268.89,609.6s323.86-5.2,263.91-29.07c-75.72-30.15,181.94,17.32,155.25-58.24Z"/></g><g id="_2" data-name="2"><rect class="cls-5" x="275.81" y="76.72" width="212.25" height="475.29"/><rect class="cls-6" x="488.06" y="76.72" width="121.96" height="475.29"/><rect class="cls-5" x="275.81" y="446.39" width="212.25" height="13.57"/><rect class="cls-5" x="275.81" y="353.97" width="212.25" height="13.57"/><rect class="cls-5" x="275.81" y="169.14" width="212.25" height="13.57"/><rect class="cls-5" x="275.81" y="261.56" width="212.25" height="13.57"/><path class="cls-7" d="M587.4,509H510.68a2.26,2.26,0,1,1,0-4.52H587.4a2.26,2.26,0,1,1,0,4.52Z"/><path class="cls-7" d="M587.4,495.47H510.68a2.26,2.26,0,1,1,0-4.52H587.4a2.26,2.26,0,1,1,0,4.52Z"/><path class="cls-7" d="M587.4,481.9H510.68a2.26,2.26,0,1,1,0-4.52H587.4a2.26,2.26,0,0,1,0,4.52Z"/><path class="cls-7" d="M587.4,151.36H510.68a2.27,2.27,0,0,1,0-4.53H587.4a2.27,2.27,0,0,1,0,4.53Z"/><path class="cls-7" d="M587.4,137.79H510.68a2.27,2.27,0,0,1,0-4.53H587.4a2.27,2.27,0,0,1,0,4.53Z"/><path class="cls-7" d="M587.4,124.22H510.68a2.27,2.27,0,0,1,0-4.53H587.4a2.27,2.27,0,0,1,0,4.53Z"/><rect class="cls-7" x="289.38" y="90.29" width="185.11" height="78.85"/><rect class="cls-7" x="289.38" y="182.71" width="185.11" height="78.85"/><rect class="cls-7" x="289.38" y="275.13" width="185.11" height="78.85"/><rect class="cls-7" x="289.38" y="367.54" width="185.11" height="78.85"/><rect class="cls-7" x="289.38" y="459.96" width="185.11" height="78.85"/><rect class="cls-6" x="294.8" y="95.72" width="83.51" height="30.38"/><rect class="cls-6" x="294.8" y="188.14" width="83.51" height="67.99"/><rect class="cls-6" x="294.8" y="133.33" width="83.51" height="30.38"/><rect class="cls-6" x="385.55" y="95.72" width="83.51" height="30.38"/><rect class="cls-6" x="385.55" y="133.33" width="83.51" height="30.38"/><rect class="cls-6" x="385.55" y="239.1" width="83.51" height="17.03"/><rect class="cls-6" x="385.55" y="216.25" width="83.51" height="17.03"/><circle class="cls-7" cx="308.87" cy="110.91" r="6.3" transform="translate(149.92 398.02) rotate(-80.78)"/><circle class="cls-7" cx="364.25" cy="110.91" r="6.3"/><circle class="cls-7" cx="345.79" cy="110.91" r="6.3" transform="translate(-16.12 140.77) rotate(-22.5)"/><circle class="cls-7" cx="327.33" cy="110.91" r="6.3" transform="translate(-17.53 133.71) rotate(-22.5)"/><circle class="cls-7" cx="308.87" cy="148.52" r="6.3" transform="translate(-14.56 261.9) rotate(-45)"/><circle class="cls-7" cx="364.25" cy="148.52" r="6.3"/><circle class="cls-7" cx="345.79" cy="148.52" r="6.3" transform="translate(121.79 450.94) rotate(-76.72)"/><circle class="cls-7" cx="327.33" cy="148.52" r="6.3" transform="translate(107.58 432.97) rotate(-76.72)"/><rect class="cls-6" x="385.55" y="423.94" width="83.51" height="17.03"/><rect class="cls-6" x="385.55" y="401.09" width="83.51" height="17.03"/><circle class="cls-6" cx="399.62" cy="379.28" r="6.3"/><circle class="cls-6" cx="455" cy="379.28" r="6.3" transform="translate(-110.51 202.99) rotate(-22.5)"/><circle class="cls-6" cx="436.54" cy="379.28" r="6.3" transform="translate(-7.77 749.42) rotate(-80.78)"/><circle class="cls-6" cx="418.08" cy="379.28" r="6.3" transform="translate(-23.27 731.2) rotate(-80.78)"/><path class="cls-8" d="M474.49,435.73H399.62a1.14,1.14,0,0,1-1.14-1.13V379.28a1.14,1.14,0,0,1,2.27,0v54.19h73.74a1.13,1.13,0,0,1,0,2.26Z"/><path class="cls-8" d="M474.49,428.91H418.08a1.13,1.13,0,0,1-1.13-1.13v-48.5a1.13,1.13,0,0,1,2.26,0v47.37h55.28a1.13,1.13,0,0,1,0,2.26Z"/><path class="cls-8" d="M474.49,422.11H436.54a1.13,1.13,0,0,1-1.13-1.14V379.28a1.13,1.13,0,0,1,2.26,0v40.56h36.82a1.14,1.14,0,0,1,0,2.27Z"/><path class="cls-8" d="M474.49,415.32H455a1.12,1.12,0,0,1-1.13-1.13V379.28a1.13,1.13,0,0,1,2.26,0v33.78h18.36a1.13,1.13,0,0,1,0,2.26Z"/><circle class="cls-6" cx="364.25" cy="379.28" r="6.3"/><circle class="cls-6" cx="308.87" cy="379.28" r="6.3" transform="translate(-159.74 519.49) rotate(-67.5)"/><circle class="cls-6" cx="327.33" cy="379.28" r="6.3" transform="translate(-56.53 57.33) rotate(-9.22)"/><circle class="cls-6" cx="345.79" cy="379.28" r="6.3" transform="translate(-56.29 60.29) rotate(-9.22)"/><path class="cls-8" d="M364.25,435.88H289.38a1.14,1.14,0,0,1,0-2.27h73.74V379.28a1.13,1.13,0,0,1,2.26,0v55.46A1.13,1.13,0,0,1,364.25,435.88Z"/><path class="cls-8" d="M345.79,427.1H289.38a1.13,1.13,0,0,1,0-2.26h55.28V379.28a1.13,1.13,0,0,1,2.26,0V426A1.14,1.14,0,0,1,345.79,427.1Z"/><path class="cls-8" d="M327.33,417.55H289.38a1.13,1.13,0,0,1,0-2.26H326.2v-36a1.13,1.13,0,0,1,2.26,0v37.14A1.14,1.14,0,0,1,327.33,417.55Z"/><path class="cls-8" d="M308.87,409.06H289.38a1.13,1.13,0,0,1,0-2.26h18.36V379.28a1.13,1.13,0,0,1,2.26,0v28.65A1.13,1.13,0,0,1,308.87,409.06Z"/><path class="cls-8" d="M409.53,340a1.12,1.12,0,0,1-1.13-1.13V315.68H312.05a1.14,1.14,0,0,1-1.13-1.13v-24.3a1.13,1.13,0,0,1,2.26,0v23.17h96.35a1.14,1.14,0,0,1,1.13,1.13v24.3A1.13,1.13,0,0,1,409.53,340Z"/><circle class="cls-6" cx="399.54" cy="194.72" r="6.3"/><circle class="cls-6" cx="454.93" cy="194.72" r="6.3"/><circle class="cls-6" cx="436.47" cy="194.72" r="6.3"/><circle class="cls-6" cx="418.01" cy="194.72" r="6.3"/><path class="cls-8" d="M451.1,340a1.13,1.13,0,0,1-1.13-1.13V291.38H352.68v46.34h56.85a1.13,1.13,0,1,1,0,2.26h-58a1.13,1.13,0,0,1-1.13-1.13v-48.6a1.13,1.13,0,0,1,1.13-1.13H451.1a1.12,1.12,0,0,1,1.13,1.13v48.6A1.12,1.12,0,0,1,451.1,340Z"/><path class="cls-8" d="M312.05,340a1.13,1.13,0,0,1-1.13-1.13v-24.3a1.13,1.13,0,0,1,2.26,0v24.3A1.12,1.12,0,0,1,312.05,340Z"/><path class="cls-8" d="M409.53,315.68a1.13,1.13,0,0,1-1.13-1.13v-24.3a1.13,1.13,0,0,1,2.26,0v24.3A1.14,1.14,0,0,1,409.53,315.68Z"/><rect class="cls-9" x="297.07" y="283.22" width="74.69" height="14.06"/><rect class="cls-9" x="297.07" y="307.52" width="74.69" height="14.06"/><rect class="cls-9" x="297.07" y="331.82" width="74.69" height="14.06"/><rect class="cls-9" x="392.11" y="283.22" width="74.69" height="14.06"/><rect class="cls-9" x="392.11" y="307.52" width="74.69" height="14.06"/><rect class="cls-9" x="392.11" y="331.82" width="74.69" height="14.06"/><path class="cls-8" d="M409.53,524.82a1.13,1.13,0,0,1-1.13-1.13V500.52H312.05a1.14,1.14,0,0,1-1.13-1.14v-24.3a1.13,1.13,0,0,1,2.26,0v23.17h96.35a1.14,1.14,0,0,1,1.13,1.13v24.31A1.14,1.14,0,0,1,409.53,524.82Z"/><path class="cls-8" d="M451.1,524.82a1.14,1.14,0,0,1-1.13-1.13V476.21H352.68v46.35h56.85a1.13,1.13,0,0,1,0,2.26h-58a1.14,1.14,0,0,1-1.13-1.13V475.08a1.14,1.14,0,0,1,1.13-1.13H451.1a1.13,1.13,0,0,1,1.13,1.13v48.61A1.13,1.13,0,0,1,451.1,524.82Z"/><path class="cls-8" d="M312.05,524.82a1.14,1.14,0,0,1-1.13-1.13V499.38a1.13,1.13,0,0,1,2.26,0v24.31A1.13,1.13,0,0,1,312.05,524.82Z"/><path class="cls-8" d="M409.53,500.52a1.13,1.13,0,0,1-1.13-1.14v-24.3a1.13,1.13,0,0,1,2.26,0v24.3A1.14,1.14,0,0,1,409.53,500.52Z"/><rect class="cls-9" x="297.07" y="468.05" width="74.69" height="14.06"/><rect class="cls-9" x="297.07" y="492.36" width="74.69" height="14.06"/><rect class="cls-9" x="297.07" y="516.66" width="74.69" height="14.06"/><rect class="cls-9" x="392.11" y="468.05" width="74.69" height="14.06"/><rect class="cls-9" x="392.11" y="492.36" width="74.69" height="14.06"/><rect class="cls-9" x="392.11" y="516.66" width="74.69" height="14.06"/><rect class="cls-9" x="304.55" y="401.09" width="8.63" height="39.88"/><rect class="cls-9" x="323.01" y="401.09" width="8.63" height="39.88"/><rect class="cls-9" x="341.48" y="401.09" width="8.63" height="39.88"/><rect class="cls-9" x="359.94" y="401.09" width="8.63" height="39.88"/><path class="cls-8" d="M308.87,149.65H298.35a1.12,1.12,0,0,1-1.13-1.13V110.91a1.12,1.12,0,0,1,1.13-1.13h10.52a1.13,1.13,0,0,1,0,2.26h-9.39v35.35h9.39a1.13,1.13,0,0,1,0,2.26Z"/><path class="cls-8" d="M327.33,149.65a1.12,1.12,0,0,1-1.13-1.13V110.91a1.13,1.13,0,0,1,2.26,0v37.61A1.13,1.13,0,0,1,327.33,149.65Z"/><path class="cls-8" d="M345.79,149.65a1.13,1.13,0,0,1-1.13-1.13V110.91a1.13,1.13,0,0,1,2.26,0v37.61A1.13,1.13,0,0,1,345.79,149.65Z"/><path class="cls-8" d="M374,149.65h-9.7a1.13,1.13,0,0,1,0-2.26h8.57V112h-8.57a1.13,1.13,0,1,1,0-2.26H374a1.13,1.13,0,0,1,1.14,1.13v37.61A1.13,1.13,0,0,1,374,149.65Z"/><rect class="cls-7" x="399.12" y="104.6" width="12.61" height="12.61"/><rect class="cls-7" x="421" y="104.6" width="12.61" height="12.61"/><rect class="cls-7" x="442.88" y="104.6" width="12.61" height="12.61"/><rect class="cls-7" x="399.12" y="142.22" width="12.61" height="12.61"/><rect class="cls-7" x="421" y="142.22" width="12.61" height="12.61"/><rect class="cls-7" x="442.88" y="142.22" width="12.61" height="12.61"/><path class="cls-8" d="M449.19,149.65a1.12,1.12,0,0,1-1.13-1.13V130.85H405.43a1.13,1.13,0,0,1-1.13-1.14v-18.8a1.13,1.13,0,0,1,2.26,0v17.67h42.63a1.14,1.14,0,0,1,1.13,1.13v18.81A1.13,1.13,0,0,1,449.19,149.65Z"/><path class="cls-8" d="M405.43,150.38a1.13,1.13,0,0,1-1.13-1.13V135.54a1.13,1.13,0,0,1,1.13-1.13h20.75v-23.5a1.13,1.13,0,0,1,2.26,0v24.63a1.14,1.14,0,0,1-1.13,1.14H406.56v12.57A1.14,1.14,0,0,1,405.43,150.38Z"/><path class="cls-8" d="M438,149.65h-10.7a1.13,1.13,0,1,1,0-2.26h9.57V122.3a1.14,1.14,0,0,1,1.13-1.13h10.05V110.91a1.13,1.13,0,0,1,2.26,0V122.3a1.13,1.13,0,0,1-1.13,1.13H439.14v25.09A1.12,1.12,0,0,1,438,149.65Z"/><path class="cls-8" d="M474.49,250.89H399.62a1.13,1.13,0,0,1-1.14-1.13V194.44a1.14,1.14,0,0,1,2.27,0v54.19h73.74a1.13,1.13,0,0,1,0,2.26Z"/><path class="cls-8" d="M474.49,244.07H418.08a1.12,1.12,0,0,1-1.13-1.13v-48.5a1.13,1.13,0,0,1,2.26,0v47.37h55.28a1.13,1.13,0,0,1,0,2.26Z"/><path class="cls-8" d="M474.49,237.27H436.54a1.13,1.13,0,0,1-1.13-1.13v-41.7a1.13,1.13,0,0,1,2.26,0V235h36.82a1.13,1.13,0,1,1,0,2.26Z"/><path class="cls-8" d="M474.49,230.49H455a1.13,1.13,0,0,1-1.13-1.13V194.44a1.13,1.13,0,0,1,2.26,0v33.79h18.36a1.13,1.13,0,0,1,0,2.26Z"/><path class="cls-9" d="M368.15,199.43H305a1.13,1.13,0,1,1,0-2.26h63.18a1.13,1.13,0,0,1,0,2.26Z"/><path class="cls-9" d="M368.15,247.09H305a1.13,1.13,0,0,1,0-2.26h63.18a1.13,1.13,0,0,1,0,2.26Z"/><path class="cls-9" d="M368.15,240.32H340.86a1.13,1.13,0,0,1,0-2.26h27.29a1.13,1.13,0,0,1,0,2.26Z"/><path class="cls-9" d="M336.56,240.32H305a1.13,1.13,0,0,1,0-2.26h31.59a1.13,1.13,0,0,1,0,2.26Z"/><path class="cls-9" d="M368.15,233.54H356.89a1.13,1.13,0,0,1,0-2.26h11.26a1.13,1.13,0,0,1,0,2.26Z"/><path class="cls-9" d="M353.66,233.54H326.78a1.13,1.13,0,0,1,0-2.26h26.88a1.13,1.13,0,0,1,0,2.26Z"/><path class="cls-9" d="M321.94,233.54H305a1.13,1.13,0,0,1,0-2.26h17a1.13,1.13,0,0,1,0,2.26Z"/><path class="cls-9" d="M368.15,226.76H305a1.13,1.13,0,0,1,0-2.26h63.18a1.13,1.13,0,0,1,0,2.26Z"/><path class="cls-9" d="M368.15,220H340.86a1.13,1.13,0,0,1,0-2.26h27.29a1.13,1.13,0,0,1,0,2.26Z"/><path class="cls-9" d="M336.56,220H305a1.13,1.13,0,0,1,0-2.26h31.59a1.13,1.13,0,0,1,0,2.26Z"/><path class="cls-9" d="M368.15,213.21H353.89a1.13,1.13,0,0,1,0-2.26h14.26a1.13,1.13,0,0,1,0,2.26Z"/><path class="cls-9" d="M350.32,213.21H324a1.13,1.13,0,0,1,0-2.26h26.3a1.13,1.13,0,0,1,0,2.26Z"/><path class="cls-9" d="M318.83,213.21H305a1.13,1.13,0,0,1,0-2.26h13.86a1.13,1.13,0,0,1,0,2.26Z"/><path class="cls-9" d="M368.15,206.43H305a1.13,1.13,0,1,1,0-2.26h63.18a1.13,1.13,0,0,1,0,2.26Z"/></g><g id="_1" data-name="1"><path class="cls-10" d="M300.55,216.79c-.79-2.25-5.41,0-7.46-.7a32,32,0,0,1,5.33-5.17c4.08-2,8.25-3.71,12.5-5.27,4.15-5.33-11.62,1-13.45,1.28l0-.06a103.9,103.9,0,0,1,11.77-8c3-6.39-12.58,4.25-14.34,5.13l0,0a59.72,59.72,0,0,1,10.27-8.83c2.43-6.7-12.54,5.31-14,6.7l-.05,0c1.08-2.82,7.89-7.56,7-9.79-2.53-2.53-18,14.41-21,21-1.27,2.32,3.61,8.51,6.21,8.48,2.44,0,6.38-1.8,7.54-2.1C293.51,219.16,299.68,219.6,300.55,216.79Z"/><path class="cls-11" d="M283.36,221.56s-.85,1.53-2.43,4.06c-3.87,6.16-12.11,18.24-23.05,28.31q-1.77,1.62-3.63,3.17a65.83,65.83,0,0,1-14.66,9.46c-24.76,11.79-54.89,8.88-68.76,3.44-23.17-9.07,7.13-50.55,7.13-50.55,12.51,5.24,21.25,8.68,34.12,9.76,3.15.27,6.55.39,10.31.36a85.31,85.31,0,0,0,16.43-1.8c9.88-2,21.17-5.93,34.19-12.53q2-1,4.14-2.16A11,11,0,0,0,283.36,221.56Z"/><path class="cls-12" d="M257.88,253.93q-1.77,1.62-3.63,3.17a65.83,65.83,0,0,1-14.66,9.46L197.39,255l14.69-25.77c3.15.27,6.55.39,10.31.36a85.31,85.31,0,0,0,16.43-1.8S246.73,243.53,257.88,253.93Z"/><path class="cls-12" d="M283.36,221.56s-.85,1.53-2.43,4.06c-7.54-4.54-7.92-10.38-7.92-10.38q2-1,4.14-2.16A11,11,0,0,0,283.36,221.56Z"/><path class="cls-10" d="M325.92,275.77c.93,2.2-4,3.62-5,5.55a32.51,32.51,0,0,0,7.43.22c4.33-1.3,8.59-2.83,12.77-4.55,6.66,1.14-9.22,7.14-10.79,8.14a.13.13,0,0,1,0,.06,102.23,102.23,0,0,0,14.06-2.05c6.52,2.7-12.14,5.35-14,5.88v0a59.55,59.55,0,0,0,13.54-.41c6.32,3.31-12.84,4.54-14.82,4.47l0,.05c2.71,1.36,10.93.26,11.81,2.48-.17,3.57-23.29.82-29.93-2-2.5-.85-1.21-8.74.73-10.48l5.38-2.81C319.12,278.77,323.38,274.28,325.92,275.77Z"/><path class="cls-10" d="M276.11,569.78l-42.27.05c-.55-3.65.87-9,.94-16.33.12-13.73-3-38-3-38h24.38l-3.62,38s-2.49,1.94,4.58,3.91c7.84,2.67,16.22,1.73,21.55,7.25A3.23,3.23,0,0,1,276.11,569.78Z"/><path class="cls-11" d="M232.55,565.74a10.7,10.7,0,0,0,1.29,4.09l42.92-.06a3,3,0,0,0,2.9-4c-1.64-4.6-7.31-11.27-27.09-12.28,0,0-6.72,2-17.79,0C234.78,553.5,231.83,559.92,232.55,565.74Z"/><path class="cls-13" d="M267,564.25a.89.89,0,0,0,.81-.54,9.18,9.18,0,0,1,4.52-5.13c2.23-3.48-4.23-1-6.14,4.48A.88.88,0,0,0,267,564.25Z"/><path class="cls-13" d="M260.25,563.44a.87.87,0,0,0,.83-.61,12.13,12.13,0,0,1,5.34-6.6c1.83-4-5.4.28-7,6.09A.87.87,0,0,0,260.25,563.44Z"/><path class="cls-13" d="M252.56,562.51a.87.87,0,0,0,.82-.59,15.76,15.76,0,0,1,5.41-7.24.87.87,0,0,0-1-1.44,17.16,17.16,0,0,0-6.08,8.11A.88.88,0,0,0,252.56,562.51Z"/><path class="cls-12" d="M279.63,565.68l-47.08.06a10.7,10.7,0,0,0,1.29,4.09l42.92-.06A3,3,0,0,0,279.63,565.68Z"/><path class="cls-10" d="M138.89,569.19l-37.57-19.37c1.19-3.49,4.89-7.55,8.34-14.08,6.42-12.13,14.81-35.11,14.81-35.11l21.66,11.2L125.47,543.9s-3.1.57,2.27,5.57c5.74,6,13.61,9,15.81,16.34A3.22,3.22,0,0,1,138.89,569.19Z"/><path class="cls-11" d="M102.05,545.59a10.75,10.75,0,0,0-.73,4.23l38.14,19.67a3.06,3.06,0,0,0,4.43-2.25c.66-4.83-1.31-13.36-18.42-23.34,0,0-6.9-1.31-15.81-8.16C109.66,535.74,104.09,540.09,102.05,545.59Z"/><path class="cls-13" d="M133.35,560.1a.85.85,0,0,0,1-.11,9.2,9.2,0,0,1,6.37-2.47c3.59-2.07-3.3-2.83-7.5,1.15A.87.87,0,0,0,133.35,560.1Z"/><path class="cls-13" d="M127.71,556.28a.87.87,0,0,0,1-.16,12.12,12.12,0,0,1,7.77-3.41c3.49-2.75-4.92-2.24-9,2.19A.87.87,0,0,0,127.71,556.28Z"/><path class="cls-13" d="M121.31,551.92a.88.88,0,0,0,1-.14,15.57,15.57,0,0,1,8.13-3.95.87.87,0,0,0-.19-1.73,17.21,17.21,0,0,0-9.14,4.42A.88.88,0,0,0,121.31,551.92Z"/><path class="cls-12" d="M143.9,567.17l-41.85-21.58a10.75,10.75,0,0,0-.73,4.23l38.14,19.67A3.06,3.06,0,0,0,143.9,567.17Z"/><path class="cls-13" d="M266.83,532.93c-.36,6.28-.69,9.73-.69,9.73-22.24,10.46-44.23,2.7-44.23,2.7,3.29-88.91-25.85-171.74-25.47-166.48,2.42,38.59-14.72,115.13-48.09,160.41-17.38,4.73-41.91-15.7-41-17C154,452.07,133.3,390.31,146.74,328c13.78-6.69,94.08-13.36,97.6-1.61C270.82,414.78,268.5,504,266.83,532.93Z"/><rect class="cls-10" x="186.86" y="189.08" width="15.74" height="18.58"/><path class="cls-11" d="M247.31,336.68s-64.44,19-103,2.51c0,0-4.39-14.31,2-56,5.73-37.59,9.37-70,39.65-78.15l17.64-.74c12.9.89,25,13.11,33.38,39.24,3.26,10.9,5.18,21.2,7.29,34.17.09.59.19,1.18.29,1.77,1.39,9,2.57,18.18,3.37,26.53C249.47,322.29,249.64,335.25,247.31,336.68Z"/><path class="cls-8" d="M202.81,204.13c-11.58,3.82-16.18,0-16.18,0h0l.19-4.82s4.66,2.64,15.74,0Z"/><path class="cls-12" d="M208.23,205.17a20.34,20.34,0,0,1-13.51,6.66,20.05,20.05,0,0,1-14.33-4.89,14.59,14.59,0,0,1,5.53-1.87l17.64-.73A13.28,13.28,0,0,1,208.23,205.17Z"/><path class="cls-10" d="M185.92,194.73c13.55,5.42,25.24,3.71,32.05-3.22,11-11.2.38-24.38,0-36.28a48.67,48.67,0,0,1-.14-5.51C171.93,154.86,183.49,194.53,185.92,194.73Z"/><path class="cls-10" d="M185.92,194.73v10.34s6.81,6.14,17.64-.73V188.81Z"/><path class="cls-14" d="M195,192.93c2.38-.3,11.73-1.77,12.53-6.67a26.87,26.87,0,0,1,1.81-6.89l4.82-8.17c-1.19-7.51,3.7-15.71,3.85-16h0a48.67,48.67,0,0,1-.14-5.51c-1.13.19-2.23.39-3.29.61l-7.71,5.14-8.6,8.64S192.59,193.23,195,192.93Z"/><path class="cls-15" d="M212,168.58s.51-10.6,5.83-16.51c11.39-12.64-.77-18.24-9.17-19.46s-38.43,7.82-34.37,22.41c0,0-10.49,3.82-.36,27.29,3.54,8.19,12,12.42,12,12.42a46.08,46.08,0,0,1,9.05-1.8c3.69-.36,9.48-3.08,10-6.76C205.89,179.85,207.88,171.33,212,168.58Z"/><path class="cls-10" d="M206.32,174.68c1.3,3.78,4.83,6,7.88,4.95s4.46-5,3.16-8.74-4.82-6-7.87-5S205,170.89,206.32,174.68Z"/><path class="cls-12" d="M247.89,306c-32.59-12.39-42-41.14-42-41.14l38.39,12.84c.09.59.19,1.18.29,1.77C245.91,288.48,247.09,297.69,247.89,306Z"/><path class="cls-16" d="M213.11,168.61c-.12,0-3.13-.79-4.56.91a3.06,3.06,0,0,0-.65,1.62h0c0,.06,0,.11,0,.17h0a10,10,0,0,0,1.12,4.61.47.47,0,0,0,.54.27l.07,0a.46.46,0,0,0,.24-.62,10.22,10.22,0,0,1-1-3.76c2.73.15,4.44,3,4.46,3a.46.46,0,0,0,.52.22.31.31,0,0,0,.12-.05.46.46,0,0,0,.17-.63c-.08-.15-2-3.31-5.17-3.5a1.88,1.88,0,0,1,.36-.72c1-1.24,3.59-.61,3.61-.61a.46.46,0,0,0,.57-.33A.47.47,0,0,0,213.11,168.61Z"/><path class="cls-11" d="M310.89,293.6s-1.64.63-4.47,1.54c-7.68,2.46-24.12,7-40.69,6.88-34.33.29-56.63-30-65.22-45.89-11.86-21.87-.46-44.9,7.91-50.3,0,0,14.4,1,23.25,18.23,7.71,15,12.73,24.15,27.45,36.37,10.21,8.48,25.13,16.31,47.93,21.67,1.49.36,3,.69,4.57,1A11,11,0,0,0,310.89,293.6Z"/><path class="cls-12" d="M310.89,293.6s-1.64.63-4.47,1.54c-2.84-8.32.63-13,.63-13,1.49.36,3,.69,4.57,1A11,11,0,0,0,310.89,293.6Z"/><path class="cls-17" d="M196.45,378.93a.18.18,0,0,1,0-.05,33.74,33.74,0,0,1-8.9-14.46s4.26,33.72-3.27,69.6c-6.67,31.74-23.18,73-40.26,99.21-21.56-5-32.32-17.73-32.32-17.73-2.66,4.35-4.36,6.74-4.36,6.74s13.34,15.75,32.31,17.35a36.18,36.18,0,0,0,8.71-.3q1.69-2.29,3.32-4.69C182.86,488.89,198.77,416.18,196.45,378.93Z"/><path class="cls-17" d="M266.83,532.93c-.36,6.28-.69,9.73-.69,9.73-22.24,10.46-44.23,2.7-44.23,2.7.05-2.85.07-5.66.08-8.45C222,536.91,245.5,543.22,266.83,532.93Z"/></g></g></svg>