<svg xmlns="http://www.w3.org/2000/svg" viewBox="0 0 700 640"><defs><style>.cls-1{fill:#ececec;}.cls-2{fill:#e1e1e1;}.cls-3{fill:#e7e7e7;}.cls-4{fill:#f5f5f5;}.cls-5{fill:#f0f0f0;}.cls-15,.cls-6{fill:#1a2e35;}.cls-7{fill:#054641;}.cls-11,.cls-8{fill:#fff;}.cls-9{fill:#007cff;}.cls-10{fill:#1c7c70;}.cls-11{opacity:0.3;}.cls-12{fill:#ff8b7b;}.cls-13{fill:#ff5551;}.cls-14{fill:#00e9e9;}.cls-15{opacity:0.2;}.cls-16{fill:#263238;}</style></defs><title>Illustration</title><g id="Layer_12" data-name="Layer 12"><rect class="cls-1" x="7.32" y="513.47" width="685.36" height="0.34"/><rect class="cls-1" x="504.89" y="535.53" width="119.12" height="0.34"/><rect class="cls-1" x="497.58" y="522.8" width="11.92" height="0.34"/><rect class="cls-1" x="391.29" y="534.17" width="26.31" height="0.34"/><rect class="cls-1" x="79.22" y="525.1" width="29.6" height="0.34"/><rect class="cls-1" x="121.03" y="525.1" width="38.28" height="0.34"/><rect class="cls-1" x="291.97" y="530.72" width="64.2" height="0.34"/><path class="cls-1" d="M332.2,452.33H67.51a7.83,7.83,0,0,1-7.82-7.82V72.45a7.83,7.83,0,0,1,7.82-7.82H332.2A7.83,7.83,0,0,1,340,72.45V444.51A7.83,7.83,0,0,1,332.2,452.33ZM67.51,65A7.49,7.49,0,0,0,60,72.45V444.51A7.49,7.49,0,0,0,67.51,452H332.2a7.49,7.49,0,0,0,7.48-7.48V72.45A7.49,7.49,0,0,0,332.2,65Z"/><path class="cls-1" d="M628.68,452.33H364a7.83,7.83,0,0,1-7.83-7.82V72.45A7.83,7.83,0,0,1,364,64.63H628.68a7.83,7.83,0,0,1,7.83,7.82V444.51A7.83,7.83,0,0,1,628.68,452.33ZM364,65a7.49,7.49,0,0,0-7.48,7.48V444.51A7.48,7.48,0,0,0,364,452H628.68a7.49,7.49,0,0,0,7.49-7.48V72.45A7.5,7.5,0,0,0,628.68,65Z"/><path class="cls-2" d="M361.78,427.71h-88.6L264.74,281a6.14,6.14,0,0,1,6.2-6.58h75.44a7.06,7.06,0,0,1,7,6.58Z"/><path class="cls-1" d="M370.73,427.71h-88.6L273.68,281a6.14,6.14,0,0,1,6.21-6.58h75.43a7.05,7.05,0,0,1,7,6.58Z"/><path class="cls-2" d="M282.12,409.41h63.46a0,0,0,0,1,0,0v18.3a0,0,0,0,1,0,0H277.32a0,0,0,0,1,0,0v-13.5A4.8,4.8,0,0,1,282.12,409.41Z"/><path class="cls-1" d="M330.21,409.41h82.08a4.8,4.8,0,0,1,4.8,4.8v13.5a0,0,0,0,1,0,0H325.41a0,0,0,0,1,0,0v-13.5A4.8,4.8,0,0,1,330.21,409.41Z"/><rect class="cls-2" x="273.18" y="427.71" width="6.08" height="85.75"/><rect class="cls-2" x="317.77" y="427.71" width="6.08" height="85.75"/><rect class="cls-2" x="365.03" y="427.71" width="6.08" height="85.75"/><rect class="cls-2" x="409.62" y="427.71" width="6.08" height="85.75"/><rect class="cls-3" x="131.69" y="359.99" width="135.34" height="7.89"/><rect class="cls-1" x="140.68" y="367.87" width="126.35" height="136.05"/><rect class="cls-4" x="267.02" y="367.87" width="304.65" height="136.05" transform="translate(838.7 871.8) rotate(180)"/><rect class="cls-2" x="140.68" y="367.87" width="431" height="5.84" transform="translate(712.35 741.58) rotate(180)"/><rect class="cls-5" x="267.02" y="359.99" width="313.64" height="7.89" transform="translate(847.69 727.86) rotate(180)"/><polygon class="cls-1" points="140.68 503.93 140.68 513.47 165.84 503.93 140.68 503.93"/><polygon class="cls-4" points="267.02 503.93 267.02 513.47 292.19 503.93 267.02 503.93"/><polygon class="cls-4" points="571.67 503.93 571.67 513.47 546.5 503.93 571.67 503.93"/><polygon class="cls-1" points="267.02 503.93 267.02 513.47 241.85 503.93 267.02 503.93"/><polygon class="cls-2" points="445.33 503.93 445.33 513.47 420.16 503.93 445.33 503.93"/><polygon class="cls-2" points="445.33 503.93 445.33 513.47 470.5 503.93 445.33 503.93"/><path class="cls-3" d="M514.24,307.29H492.53S496.3,319,496.3,326s-16.52,34,7.08,34,7.09-27.12,7.09-34S514.24,307.29,514.24,307.29Z"/><path class="cls-5" d="M434,348.68c0,6.22,12.25,11.31,27.22,11.31h13.51c15,0,27.22-5.09,27.22-11.31Z"/><rect class="cls-3" x="177.21" y="331.53" width="23.86" height="28.45"/><rect class="cls-4" x="201.07" y="331.53" width="23.86" height="28.45" transform="translate(425.99 691.52) rotate(180)"/><rect class="cls-3" x="209.5" y="337.37" width="18.96" height="22.62"/><rect class="cls-4" x="228.46" y="337.37" width="18.96" height="22.62" transform="translate(475.89 697.36) rotate(180)"/><ellipse id="_Path_" data-name="&lt;Path&gt;" class="cls-4" cx="350" cy="559.85" rx="265.77" ry="15.52"/><path class="cls-6" d="M400.38,479.14H215.64a17.44,17.44,0,0,1-17.2-16.45L183.13,129.15a15.61,15.61,0,0,1,15.69-16.45H383.56a17.45,17.45,0,0,1,17.21,16.45l15.31,333.54A15.62,15.62,0,0,1,400.38,479.14Z"/><path class="cls-7" d="M402.33,478.17H217.58a17.45,17.45,0,0,1-17.2-16.45L185.07,128.17a15.61,15.61,0,0,1,15.69-16.44H385.51a17.45,17.45,0,0,1,17.2,16.44L418,461.72A15.62,15.62,0,0,1,402.33,478.17Z"/><path class="cls-8" d="M217.27,471.31a10.16,10.16,0,0,1-10-9.59L191.92,128.17a9.1,9.1,0,0,1,9.16-9.59H385.82a10.16,10.16,0,0,1,10,9.59l15.31,333.55a9.1,9.1,0,0,1-9.16,9.59Z"/><path class="cls-2" d="M296.25,204.91a33.21,33.21,0,0,1-32.8-31.36,29.75,29.75,0,0,1,30-31.41,33.21,33.21,0,0,1,32.8,31.36,29.75,29.75,0,0,1-30,31.41Zm-2.83-61.78a28.74,28.74,0,0,0-29,30.37,32.2,32.2,0,0,0,31.81,30.42,28.74,28.74,0,0,0,29-30.37A32.2,32.2,0,0,0,293.42,143.13Z"/><path class="cls-7" d="M272.71,195.08h3.16a4.53,4.53,0,0,0-1.17,3.29,5.08,5.08,0,0,0,5,4.81,4.55,4.55,0,0,0,4.59-4.81,5,5,0,0,0-1.47-3.29h26a4.58,4.58,0,0,0-1.17,3.29,5.08,5.08,0,0,0,5,4.81,4.54,4.54,0,0,0,4.58-4.81,4.92,4.92,0,0,0-1.47-3.29h3.16l-.14-3H272.57Z"/><polygon class="cls-7" points="330.71 152.73 324.56 152.73 320.45 152.73 263.2 152.73 273.98 187.3 316.96 187.3 323.89 155.76 330.85 155.76 330.71 152.73"/><path class="cls-2" d="M299.18,393.27H225.54a.47.47,0,0,1-.46-.45l-3.38-73.64a.44.44,0,0,1,.13-.34.47.47,0,0,1,.33-.14H295.8a.46.46,0,0,1,.47.44l3.38,73.64a.47.47,0,0,1-.13.34A.49.49,0,0,1,299.18,393.27ZM226,392.33h72.7l-3.33-72.7H222.65Z"/><path class="cls-2" d="M275.31,329.6H243.62a.75.75,0,0,0-.76.78l.1,2.08.71,15.55,1.52,33a1.42,1.42,0,0,0,1.41,1.35h10.69a1.28,1.28,0,0,0,1.29-1.26l.69-33.1h2.08l3.73,33.1a1.42,1.42,0,0,0,1.4,1.26h10.69a1.28,1.28,0,0,0,1.29-1.35l-1.52-33-.71-15.55-.1-2.08A.83.83,0,0,0,275.31,329.6Z"/><path class="cls-2" d="M386.53,393.27H312.89a.47.47,0,0,1-.47-.45L309,319.18a.48.48,0,0,1,.13-.34.48.48,0,0,1,.34-.14h73.64a.45.45,0,0,1,.46.44L387,392.78a.46.46,0,0,1-.12.34A.5.5,0,0,1,386.53,393.27Zm-73.19-.94H386l-3.34-72.7H310Z"/><polygon class="cls-2" points="365.65 383.3 332.9 383.3 330.52 331.53 363.27 331.53 365.65 383.3"/><polygon class="cls-2" points="324.93 356.44 317.63 342.02 330.52 331.53 337.67 342.66 324.93 356.44"/><polygon class="cls-2" points="371.15 356.44 377.12 342.02 363.27 331.53 357.15 342.66 371.15 356.44"/><path class="cls-1" d="M338.81,331.53a8.55,8.55,0,0,0,8.46,8.09,7.65,7.65,0,0,0,7.71-8.09Z"/><path class="cls-9" d="M382.52,306.14H308.88a.67.67,0,0,1-.68-.65l-3.38-73.64a.69.69,0,0,1,.19-.51.67.67,0,0,1,.49-.21h73.64a.68.68,0,0,1,.68.66l3.38,73.63a.69.69,0,0,1-.19.51A.67.67,0,0,1,382.52,306.14Zm-73-1.37H381.8l-3.32-72.27H306.22Z"/><path class="cls-10" d="M367.57,260.56l-8-.58.18-.6a3.49,3.49,0,0,0-3.34-4.42h-8.31a3.19,3.19,0,0,0-2.89,4.56l1,2.33-.68.18-1.91.5-3.18.82-1.91.5-3.16.82-1.91.49-7.86,2v0c-3.27.94-6,2.89-5.85,6.34a6.79,6.79,0,0,0,6.72,6.43v0h38.61a5.16,5.16,0,0,0,5.19-5.45l-.53-11.7A2.44,2.44,0,0,0,367.57,260.56Z"/><polygon class="cls-11" points="350.51 264.41 348.62 264.92 343.67 262.53 345.58 262.03 350.51 264.41"/><polygon class="cls-11" points="345.5 265.77 343.61 266.28 338.58 263.85 340.49 263.36 345.5 265.77"/><polygon class="cls-11" points="340.48 267.12 338.6 267.63 333.51 265.16 335.42 264.67 340.48 267.12"/><path class="cls-11" d="M370.19,271.33l.14,3.22a5.16,5.16,0,0,1-5.19,5.45h-6.39a10.1,10.1,0,0,1,10.11-8.76A11.72,11.72,0,0,1,370.19,271.33Z"/><path class="cls-2" d="M295.17,305.92H221.54a.47.47,0,0,1-.47-.44l-3.38-73.64a.47.47,0,0,1,.13-.35.48.48,0,0,1,.34-.14h73.63a.47.47,0,0,1,.47.45l3.38,73.63a.51.51,0,0,1-.13.35A.48.48,0,0,1,295.17,305.92ZM222,305h72.7l-3.33-72.71H218.64Z"/><path class="cls-2" d="M282.79,256.42l.28,6.12a4.23,4.23,0,0,1-4.76,4.49,12.32,12.32,0,0,0-1.61-.11,11.24,11.24,0,0,0-4.94,1.12,11.08,11.08,0,0,0-6.2,10.57v.28a6,6,0,0,1-6,6.3h-4.31a6.58,6.58,0,0,1-5.5-3,6.48,6.48,0,0,1-1.07-3.26v-.28a12.07,12.07,0,0,0-2.33-6.57,12.66,12.66,0,0,0-4.85-4,11.88,11.88,0,0,0-5-1.12,12.17,12.17,0,0,0-1.6.11,4.72,4.72,0,0,1-5.18-4.49l-.28-6.12a1.87,1.87,0,0,1,1.89-2h49.43A2.08,2.08,0,0,1,282.79,256.42Z"/><path class="cls-1" d="M264.8,282.15a5.91,5.91,0,0,1-5.22,3h-4.31a6.58,6.58,0,0,1-5.5-3,7.66,7.66,0,0,1,7.28-5.07A8.58,8.58,0,0,1,264.8,282.15Z"/><path class="cls-7" d="M337.12,453.81H280.56a12.66,12.66,0,0,1-12.48-11.93L267.35,426A11.33,11.33,0,0,1,278.73,414h56.56A12.66,12.66,0,0,1,347.77,426l.73,15.91A11.33,11.33,0,0,1,337.12,453.81Z"/><path class="cls-8" d="M280.83,425.44h9.65a5.49,5.49,0,0,1,3.76,1.19,4.06,4.06,0,0,1,1.43,3,3.58,3.58,0,0,1-.8,2.54,3.84,3.84,0,0,1-1.75,1.11,4.94,4.94,0,0,1,2.71,1.49,4.24,4.24,0,0,1,1,2.65,4.41,4.41,0,0,1-.49,2.33,4.15,4.15,0,0,1-1.58,1.64,5.34,5.34,0,0,1-1.93.55,21.93,21.93,0,0,1-2.3.22h-8.9Zm5.5,6.54h2.25a2.56,2.56,0,0,0,1.66-.41,1.44,1.44,0,0,0,.41-1.2,1.47,1.47,0,0,0-.52-1.14,2.57,2.57,0,0,0-1.66-.41h-2.28Zm.31,6.56h2.63a2.82,2.82,0,0,0,1.85-.47,1.55,1.55,0,0,0,.49-1.27,1.52,1.52,0,0,0-.6-1.19,3.1,3.1,0,0,0-1.91-.45h-2.62Z"/><path class="cls-8" d="M309.21,425.44h5.14l.46,9.94a8.52,8.52,0,0,1-.33,2.79,5.79,5.79,0,0,1-1.34,2.3,5.58,5.58,0,0,1-2,1.38,10.15,10.15,0,0,1-3.58.56,23.61,23.61,0,0,1-2.66-.17,7.27,7.27,0,0,1-2.44-.68,6.64,6.64,0,0,1-1.84-1.44,5.68,5.68,0,0,1-1.19-1.92,10.14,10.14,0,0,1-.6-2.82l-.46-9.94h5.15l.46,10.18a3,3,0,0,0,.86,2.13,2.94,2.94,0,0,0,2.13.76,2.73,2.73,0,0,0,2.06-.75,2.81,2.81,0,0,0,.66-2.14Z"/><path class="cls-8" d="M316.08,425.44h5.73l3.62,5.63,3.11-5.63h5.7l-6.05,9.69.33,7h-5.17l-.32-7Z"/><path class="cls-12" d="M476.67,251.49c1.34,1.67,2.4,3.12,3.49,4.73s2.1,3.16,3.11,4.77a113.19,113.19,0,0,1,5.42,10c.84,1.7,1.6,3.45,2.36,5.2s1.43,3.53,2,5.36a85.69,85.69,0,0,1,3.08,11.11l.06.25a4,4,0,0,1,.08,1.08,84,84,0,0,1-1.05,8.59c-.47,2.83-1.11,5.6-1.84,8.34s-1.61,5.43-2.55,8.08a81.63,81.63,0,0,1-3.33,7.85,2.88,2.88,0,0,1-5.4-1.89l0-.13c.54-2.5,1.1-5.16,1.53-7.77s.87-5.23,1.18-7.84.57-5.22.75-7.81.21-5.16.22-7.71L486,295a90.57,90.57,0,0,0-3.26-9.61c-1.28-3.15-2.69-6.27-4.27-9.32s-3.29-6-5.11-9c-.91-1.46-1.84-2.91-2.81-4.32s-2-2.87-2.88-4.05l-.12-.15a5.79,5.79,0,0,1,9.14-7.11Z"/><path class="cls-12" d="M483.63,322.28l-6.94,9.09,11.51-.56s3.19-6.53.44-10.35Z"/><polygon class="cls-12" points="476.81 340.9 486.42 339.91 488.2 330.81 476.69 331.37 476.81 340.9"/><path class="cls-12" d="M457.61,224.45c-1.09,6.77-2,19.12,2.87,23.44a34.26,34.26,0,0,1-15.72,14.23c-9.18-5.32-5.16-13.51-5.16-13.51,7.43-2.05,7-7.6,5.57-12.78Z"/><path class="cls-6" d="M433.33,211.26c-.13.91-.71,1.57-1.3,1.49s-1-.89-.84-1.79.71-1.57,1.3-1.49S433.46,210.36,433.33,211.26Z"/><path class="cls-6" d="M432.75,209.56l-2.09-.94S431.54,210.48,432.75,209.56Z"/><path class="cls-13" d="M432.82,213.3a24.57,24.57,0,0,1-4,5.32,3.92,3.92,0,0,0,3.13,1.06Z"/><path class="cls-6" d="M436.54,206.77a.54.54,0,0,0,.59-.8,5.31,5.31,0,0,0-4.07-2.72.54.54,0,1,0-.06,1.07,4.26,4.26,0,0,1,3.2,2.19A.55.55,0,0,0,436.54,206.77Z"/><path class="cls-12" d="M464.28,211.89c-2.27,11-3,15.72-9.41,20.63-9.66,7.37-22.69,2.19-23.77-9.28-1-10.32,2.9-26.6,14.4-29.47A15.33,15.33,0,0,1,464.28,211.89Z"/><path class="cls-12" d="M434.85,318.64s-2.82,85.3-2.08,119.85c.78,35.93,1.12,119.85,1.12,119.85h6.28s17.26-69.75,13-119.85C459.62,400,464,318.64,464,318.64Z"/><path class="cls-12" d="M436.72,318.64s22.55,85.3,31.14,119.85c8.93,35.93,28.34,119.85,28.34,119.85h6.27s1.42-69.75-14.24-119.85C486,400,471.87,318.64,471.87,318.64Z"/><path class="cls-14" d="M421.4,257.85a9,9,0,0,1,7.51-8.72c3.67-.63,8.47-1.36,13-1.77a147,147,0,0,1,20.89,0c2.68.17,5.28.37,7.64.64a10.06,10.06,0,0,1,8.7,12.09c-6.47,30.4-5.65,41.62-5,58.55,19,27.71,14.13,67,16.46,100.61L429.94,440.5c-3.18-55.36-1.8-113.39.17-121.86C424.34,283.14,421.22,266.06,421.4,257.85Z"/><polygon class="cls-15" points="458.13 396.82 460.88 358.44 472.16 351.21 458.13 396.82"/><path class="cls-6" d="M474.58,319.48l-44.93,3.34a1,1,0,0,1-1.16-1l-.17-3.74a1.57,1.57,0,0,1,1.43-1.54l44.93-3.34a1,1,0,0,1,1.16,1L476,318A1.57,1.57,0,0,1,474.58,319.48Z"/><polygon class="cls-12" points="445.8 246.62 456.46 249.17 458.67 246.81 455.17 245.97 445.8 246.62"/><path class="cls-12" d="M432.32,257c.06,2,.05,3.64-.05,5.42s-.2,3.48-.36,5.21a103,103,0,0,1-1.55,10.31,87.47,87.47,0,0,1-6.47,20l-1.22,2.45c-.23.44-.35.76-.67,1.28a13.56,13.56,0,0,1-1,1.53,12.8,12.8,0,0,1-6.46,4.69,13,13,0,0,1-7.73-.19,22.24,22.24,0,0,1-5.53-2.83,44.86,44.86,0,0,1-7.95-7.4c-1.16-1.31-2.21-2.69-3.23-4.08s-2-2.77-2.9-4.32a2.88,2.88,0,0,1,4.54-3.49l.07.07c2.14,2.22,4.5,4.48,6.86,6.49a40,40,0,0,0,7.3,5.13,12.56,12.56,0,0,0,3.42,1.3,3,3,0,0,0,2-.11,4,4,0,0,0,1.2-1.31,5.41,5.41,0,0,0,.3-.54c.1-.19.27-.64.41-.95l.85-2a92.74,92.74,0,0,0,4.95-17.81c.54-3.06.89-6.17,1.21-9.27q.22-2.33.33-4.65c.08-1.51.13-3.17.12-4.47v-.22a5.79,5.79,0,0,1,11.58-.19Z"/><path class="cls-12" d="M392.93,287l-7.07-9-2.34,11.28s5.53,4.73,9.92,3Z"/><polygon class="cls-12" points="376.62 275.67 375.17 285.22 383.52 289.23 385.87 277.95 376.62 275.67"/><path class="cls-16" d="M439.83,215.76c3.32,4.16-11,7.52-5.8,19.12s-8.27,6.8-.72,22.73c7.41,15.64,34,23.83,49.35,17.41-5.93-1.08-10.69-8.42-5.69-12,7.16-5.18,9-12.65,5.08-19.49s-13.35-17.59-9-26c5.33-10.25,5.53-17.45-5.47-25.48-11.2-8.17-36.38-15-35.62.19S439.83,215.76,439.83,215.76Z"/><path class="cls-14" d="M468.19,227l-13.09-1.29a4.44,4.44,0,0,1-4-5.68h0a6.38,6.38,0,0,1,6.56-4.66l13.1,1.28a4.45,4.45,0,0,1,3.94,5.69h0A6.39,6.39,0,0,1,468.19,227Z"/><path class="cls-12" d="M443.16,214.72a8.24,8.24,0,0,1-4.24,4.63c-2.62,1.2-4.38-1-4-3.75.32-2.43,2.07-6,4.88-6S444.05,212.21,443.16,214.72Z"/><path class="cls-6" d="M433.46,556.38h7.44a.89.89,0,0,1,.86.69l1.43,7.19a1.46,1.46,0,0,1-1.45,1.79c-4-.07-5.16-.3-10.15-.3-4.27,0-5.22.32-12,.32-4.14,0-3.1-3.35-1.35-3.61,6.17-.91,8.76-1.32,13.29-4.67C432.18,557.28,432.59,556.38,433.46,556.38Z"/><path class="cls-6" d="M495.12,556.38h7.44a.88.88,0,0,1,.86.69l1.44,7.19a1.47,1.47,0,0,1-1.45,1.79c-4-.07-2.69,0-7.67,0h-7.13c-4.13,0-3.07-3.23-1.34-3.61,3.4-.76,4.28-2,5.87-4.67A2.48,2.48,0,0,1,495.12,556.38Z"/></g></svg>