<svg xmlns="http://www.w3.org/2000/svg" viewBox="0 0 700 640"><defs><style>.cls-1{fill:#ececec;}.cls-2{fill:#00dfdf;}.cls-3{fill:#f5f5f5;}.cls-19,.cls-4{opacity:0.5;}.cls-5{fill:#e1e1e1;}.cls-6{fill:#f0f0f0;}.cls-12,.cls-19,.cls-20,.cls-21,.cls-23,.cls-27,.cls-32,.cls-7,.cls-9{fill:#fff;}.cls-8,.cls-9{opacity:0.7;}.cls-10{fill:#054641;}.cls-11,.cls-12{opacity:0.9;}.cls-13{fill:#fcc1bb;}.cls-14,.cls-22{opacity:0.1;}.cls-15{fill:#007cff;}.cls-16,.cls-33{fill:#1a2e35;}.cls-17{fill:#eb827e;}.cls-18{fill:#ffc3bd;}.cls-20{opacity:0.8;}.cls-21{opacity:0.6;}.cls-22{isolation:isolate;}.cls-23,.cls-24,.cls-33{opacity:0.2;}.cls-25,.cls-27{opacity:0.3;}.cls-26{fill:#4e717a;}.cls-28{fill:#ffbdb8;}.cls-29{fill:#db8f8d;}.cls-30{fill:#d15b66;}.cls-31{fill:#021e1b;}.cls-32{opacity:0.4;}.cls-34{fill:#b82635;}</style></defs><title>Illustration</title><g id="Layer_7" data-name="Layer 7"><rect class="cls-1" x="571.48" y="531.37" width="43.99" height="0.33"/><rect class="cls-1" x="446.32" y="534.97" width="11.54" height="0.33"/><rect class="cls-1" x="544.67" y="519.03" width="25.49" height="0.33"/><rect class="cls-1" x="87.67" y="521.27" width="57.36" height="0.33"/><rect class="cls-1" x="156.85" y="521.27" width="8.41" height="0.33"/><rect class="cls-1" x="192.59" y="526.87" width="124.4" height="0.33"/><path class="cls-1" d="M332.75,450.76H76.32a7.59,7.59,0,0,1-7.58-7.58V82.72a7.59,7.59,0,0,1,7.58-7.58H332.75a7.59,7.59,0,0,1,7.58,7.58V443.18A7.59,7.59,0,0,1,332.75,450.76ZM76.32,75.47a7.26,7.26,0,0,0-7.25,7.25V443.18a7.26,7.26,0,0,0,7.25,7.25H332.75a7.26,7.26,0,0,0,7.25-7.25V82.72a7.26,7.26,0,0,0-7.25-7.25Z"/><path class="cls-1" d="M620,450.76H363.56a7.59,7.59,0,0,1-7.58-7.58V82.72a7.59,7.59,0,0,1,7.58-7.58H620a7.59,7.59,0,0,1,7.58,7.58V443.18A7.59,7.59,0,0,1,620,450.76ZM363.56,75.47a7.27,7.27,0,0,0-7.25,7.25V443.18a7.26,7.26,0,0,0,7.25,7.25H620a7.25,7.25,0,0,0,7.24-7.25V82.72A7.26,7.26,0,0,0,620,75.47Z"/><rect class="cls-1" x="18" y="509.99" width="664" height="0.33"/><path class="cls-2" d="M136.61,430.28c-.16.18.74,1.43-2.9.88-9-1.34-24.57-5-28.91-14.19-6.21-13.17,13-8.36,12.36-15.09s-22.55-5.56-24.87-15.43,12.52-5.17,12.72-10S88.1,374.64,84.7,364s9.54-2.81,8-7.23S76.8,332.3,84.67,330s21.14,18.22,26.25,21.14,9.67-13.87,15.77-6.78S123.12,376.2,130.9,381c5.79,3.58,4.16-6.29,11.81-4.45C153.1,379.07,149.6,415.75,136.61,430.28Z"/><path class="cls-3" d="M109,376.52a31.35,31.35,0,0,1,7.75,1.59,60.48,60.48,0,0,0-5.51-7.08.66.66,0,0,1,0-.94.67.67,0,0,1,.94,0c.07.07,5.3,5.46,11,16,2.82-17-4.29-31.83-4.37-32a.5.5,0,1,1,.9-.44c.07.16,7.67,16,4.22,33.82.92,1.75,1.84,3.62,2.76,5.63a125.64,125.64,0,0,1,7.57,22.19,45.61,45.61,0,0,0,5.29-20.27.49.49,0,0,1,.51-.48.5.5,0,0,1,.48.51,45.81,45.81,0,0,1-5.94,21.63A154.68,154.68,0,0,1,138,462.49a.66.66,0,0,1-.71.62h-.08a.66.66,0,0,1-.53-.7c1.64-23.86-1.93-43-6.87-57.57a18.23,18.23,0,0,0-10.59-6.05.53.53,0,0,1-.42-.57.5.5,0,0,1,.57-.41,18.65,18.65,0,0,1,9.67,4.8,111.63,111.63,0,0,0-11.32-23,27.52,27.52,0,0,0-8.81-2.06.52.52,0,0,1-.46-.54A.51.51,0,0,1,109,376.52Z"/><path class="cls-2" d="M148.1,435.37c7.44.14,20.16-6.78,25.16-13.51s-9.19-2.59-7.73-7.95,19-1.4,22.29-9.08-9.44-5.91-8.94-9.84,13.64-3.12,17.86-11.29-7.34-3.59-5.53-7,16.3-17.62,10.24-20.59S181.81,368,177.26,369.66s-5.61-8.59-11.53-3.69-1.49,26.31-8.45,29.14c-5.19,2.1-3-7.7-9-5.23C137.86,394.21,145.07,435.31,148.1,435.37Z"/><g class="cls-4"><path class="cls-5" d="M148.1,435.37c7.44.14,20.16-6.78,25.16-13.51s-9.19-2.59-7.73-7.95,19-1.4,22.29-9.08-9.44-5.91-8.94-9.84,13.64-3.12,17.86-11.29-7.34-3.59-5.53-7,16.3-17.62,10.24-20.59S181.81,368,177.26,369.66s-5.61-8.59-11.53-3.69-1.49,26.31-8.45,29.14c-5.19,2.1-3-7.7-9-5.23C137.86,394.21,145.07,435.31,148.1,435.37Z"/></g><path class="cls-3" d="M150.55,426.43a.5.5,0,0,1-.26-.22c-.17-.33-4.25-8.23-3.34-20a.49.49,0,0,1,.54-.46.49.49,0,0,1,.45.53,39.85,39.85,0,0,0,3,19,152.57,152.57,0,0,1,11.34-24c-1.32-16,6.88-29.09,7-29.22a.5.5,0,0,1,.84.54c-.08.12-7.6,12.16-6.9,27.14,9.54-16,18.86-25.28,19.05-25.46a.64.64,0,0,1,.93,0,.66.66,0,0,1,0,.94,128.33,128.33,0,0,0-14.54,18.37,39.36,39.36,0,0,1,14.08-2.48.5.5,0,0,1,0,1h0a38.25,38.25,0,0,0-15,2.92,160.55,160.55,0,0,0-8.1,13.94,16.83,16.83,0,0,1,13.89-2.45.5.5,0,0,1-.25,1,16.06,16.06,0,0,0-14.69,3.55c-7.3,14.7-13.6,33.29-14.43,54.6a.66.66,0,0,1-.66.64h0a.67.67,0,0,1-.64-.69A131.37,131.37,0,0,1,150.55,426.43Z"/><path class="cls-6" d="M127.15,508.11C120,494.74,115.37,475.43,115.37,467a23.66,23.66,0,0,1,8.68-18.08h36.41A23.66,23.66,0,0,1,169.14,467c0,8.46-4.67,27.77-11.78,41.14Z"/><ellipse id="_Path_" data-name="&lt;Path&gt;" class="cls-3" cx="343.6" cy="549.82" rx="257.48" ry="15.04"/><path class="cls-2" d="M406.64,161.05H374.79a4.64,4.64,0,0,0-4.43,3.62l-.21,1a11.3,11.3,0,0,1-10.81,8.84H329.06a9.09,9.09,0,0,1-9.27-8.84l0-1a3.72,3.72,0,0,0-3.79-3.62H284.11a21.41,21.41,0,0,0-20.92,19.23L237.57,473.16a17.34,17.34,0,0,0,17.55,19.23H377.65a21.41,21.41,0,0,0,20.92-19.23l25.62-292.88A17.34,17.34,0,0,0,406.64,161.05Z"/><path class="cls-7" d="M394.22,295.75H329.16a3.85,3.85,0,0,1-3.9-4.27l4.9-56a4.75,4.75,0,0,1,4.65-4.27h65.06a3.85,3.85,0,0,1,3.9,4.27l-4.9,56A4.76,4.76,0,0,1,394.22,295.75Z"/><path class="cls-7" d="M372.56,470.94H263.68A9.57,9.57,0,0,1,254,460.33h0a11.82,11.82,0,0,1,11.54-10.62H374.41a9.58,9.58,0,0,1,9.69,10.62h0A11.81,11.81,0,0,1,372.56,470.94Z"/><path class="cls-7" d="M381.25,215.78h-99.9a5.38,5.38,0,0,1-5.44-6l.81-9.31a6.64,6.64,0,0,1,6.48-6h99.91a5.38,5.38,0,0,1,5.44,6l-.82,9.31A6.63,6.63,0,0,1,381.25,215.78Z"/><path class="cls-7" d="M401.57,200.2a1.85,1.85,0,0,1-1.81,1.66,1.5,1.5,0,0,1-1.51-1.66,1.85,1.85,0,0,1,1.8-1.66A1.5,1.5,0,0,1,401.57,200.2Z"/><path class="cls-7" d="M401.13,205.16a1.84,1.84,0,0,1-1.8,1.66,1.49,1.49,0,0,1-1.51-1.66,1.85,1.85,0,0,1,1.8-1.66A1.49,1.49,0,0,1,401.13,205.16Z"/><path class="cls-7" d="M400.7,210.12a1.85,1.85,0,0,1-1.8,1.66,1.5,1.5,0,0,1-1.52-1.66,1.86,1.86,0,0,1,1.81-1.66A1.5,1.5,0,0,1,400.7,210.12Z"/><path class="cls-7" d="M386.14,388.19H264.58a3.85,3.85,0,0,1-3.9-4.27L266.27,320a4.77,4.77,0,0,1,4.65-4.28H392.48a3.86,3.86,0,0,1,3.9,4.28l-5.6,63.95A4.74,4.74,0,0,1,386.14,388.19Z"/><path class="cls-7" d="M298,401.55H260.18a.94.94,0,0,1-.95-1h0a1.16,1.16,0,0,1,1.13-1.05H298.2a1,1,0,0,1,1,1.05h0A1.17,1.17,0,0,1,298,401.55Z"/><path class="cls-7" d="M345.32,401.55H304.7a1,1,0,0,1-1-1h0a1.17,1.17,0,0,1,1.14-1.05h40.63a1,1,0,0,1,.95,1.05h0A1.17,1.17,0,0,1,345.32,401.55Z"/><path class="cls-7" d="M285,410.77h-25.6a.93.93,0,0,1-.95-1h0a1.16,1.16,0,0,1,1.13-1h25.6a.94.94,0,0,1,1,1h0A1.16,1.16,0,0,1,285,410.77Z"/><path class="cls-7" d="M333.58,410.77H291.65a.94.94,0,0,1-1-1h0a1.16,1.16,0,0,1,1.14-1h41.93a.94.94,0,0,1,1,1h0A1.16,1.16,0,0,1,333.58,410.77Z"/><path class="cls-7" d="M326.81,420H258.56a1,1,0,0,1-.95-1.05h0a1.17,1.17,0,0,1,1.14-1H327a.94.94,0,0,1,.95,1h0A1.17,1.17,0,0,1,326.81,420Z"/><path class="cls-7" d="M338,420h-4.5a.94.94,0,0,1-.95-1.05h0a1.16,1.16,0,0,1,1.13-1h4.51a.94.94,0,0,1,.95,1h0A1.17,1.17,0,0,1,338,420Z"/><path class="cls-7" d="M289.62,429.22H257.76a.94.94,0,0,1-.95-1.05h0a1.16,1.16,0,0,1,1.13-1H289.8a1,1,0,0,1,1,1h0A1.17,1.17,0,0,1,289.62,429.22Z"/><path class="cls-7" d="M336,429.22H296.3a1,1,0,0,1-1-1.05h0a1.17,1.17,0,0,1,1.14-1h39.67a.93.93,0,0,1,1,1h0A1.16,1.16,0,0,1,336,429.22Z"/><path class="cls-7" d="M296.19,438.44H257a.94.94,0,0,1-.95-1h0a1.16,1.16,0,0,1,1.13-1h39.24a.94.94,0,0,1,.95,1h0A1.16,1.16,0,0,1,296.19,438.44Z"/><path class="cls-7" d="M334.47,438.44H302.86a.94.94,0,0,1-.95-1h0a1.16,1.16,0,0,1,1.13-1h31.61a.94.94,0,0,1,1,1h0A1.16,1.16,0,0,1,334.47,438.44Z"/><path class="cls-2" d="M392.68,290.45a1.36,1.36,0,0,1-1.89.12L336.44,238.7a1.32,1.32,0,0,1,.05-1.88h0a1.33,1.33,0,0,1,1.88-.11l54.35,51.87a1.32,1.32,0,0,1,0,1.87Z"/><path class="cls-2" d="M331.63,290.43h0a1.37,1.37,0,0,1,.29-1.88l27.72-22.67a1.31,1.31,0,0,1,1.86.12h0a1.36,1.36,0,0,1-.28,1.88L333.5,290.55A1.32,1.32,0,0,1,331.63,290.43Z"/><path class="cls-2" d="M367.46,261.13h0a1.35,1.35,0,0,1,.28-1.87l27.78-22.72a1.31,1.31,0,0,1,1.86.12h0a1.35,1.35,0,0,1-.28,1.87l-27.78,22.72A1.31,1.31,0,0,1,367.46,261.13Z"/><g class="cls-8"><path class="cls-7" d="M392.68,290.45a1.36,1.36,0,0,1-1.89.12L336.44,238.7a1.32,1.32,0,0,1,.05-1.88h0a1.33,1.33,0,0,1,1.88-.11l54.35,51.87a1.32,1.32,0,0,1,0,1.87Z"/></g><g class="cls-8"><path class="cls-7" d="M331.63,290.43h0a1.37,1.37,0,0,1,.29-1.88l27.72-22.67a1.31,1.31,0,0,1,1.86.12h0a1.36,1.36,0,0,1-.28,1.88L333.5,290.55A1.32,1.32,0,0,1,331.63,290.43Z"/></g><g class="cls-8"><path class="cls-7" d="M367.46,261.13h0a1.35,1.35,0,0,1,.28-1.87l27.78-22.72a1.31,1.31,0,0,1,1.86.12h0a1.35,1.35,0,0,1-.28,1.87l-27.78,22.72A1.31,1.31,0,0,1,367.46,261.13Z"/></g><path class="cls-2" d="M238.11,154.68H220.9a6.32,6.32,0,0,0-6.31,6.31V178.2a6.32,6.32,0,0,0,6.31,6.31h17.21a6.32,6.32,0,0,0,6.31-6.31V161A6.32,6.32,0,0,0,238.11,154.68Zm-8.6,6.1c2.59,0,4,2.11,4,4.71s-1.4,4.7-4,4.7-4-2.11-4-4.7S226.91,160.78,229.51,160.78Zm10.38,17.63H219.12a.6.6,0,0,1-.44-.19l1.33-3.63a5.94,5.94,0,0,1,5.57-3.9h7.85a5.94,5.94,0,0,1,5.57,3.9l1.33,3.63A.6.6,0,0,1,239.89,178.41Z"/><path class="cls-9" d="M238.11,154.68H220.9a6.32,6.32,0,0,0-6.31,6.31V178.2a6.32,6.32,0,0,0,6.31,6.31h17.21a6.32,6.32,0,0,0,6.31-6.31V161A6.32,6.32,0,0,0,238.11,154.68Zm-8.6,6.1c2.59,0,4,2.11,4,4.71s-1.4,4.7-4,4.7-4-2.11-4-4.7S226.91,160.78,229.51,160.78Zm10.38,17.63H219.12a.6.6,0,0,1-.44-.19l1.33-3.63a5.94,5.94,0,0,1,5.57-3.9h7.85a5.94,5.94,0,0,1,5.57,3.9l1.33,3.63A.6.6,0,0,1,239.89,178.41Z"/><path class="cls-2" d="M176.91,225.42H163.84a8.51,8.51,0,0,0-8.51,8.51V247a8.51,8.51,0,0,0,8.51,8.51h13.07a8.51,8.51,0,0,0,8.5-8.51V233.93A8.51,8.51,0,0,0,176.91,225.42Zm-6.54,22.18s-5.37-5.84-5.37-8.81a5.37,5.37,0,1,1,10.74,0C175.74,241.76,170.37,247.6,170.37,247.6Z"/><path class="cls-2" d="M170.37,236.34a2.45,2.45,0,1,0,2.45,2.45A2.45,2.45,0,0,0,170.37,236.34Z"/><g class="cls-8"><path class="cls-7" d="M176.91,225.42H163.84a8.51,8.51,0,0,0-8.51,8.51V247a8.51,8.51,0,0,0,8.51,8.51h13.07a8.51,8.51,0,0,0,8.5-8.51V233.93A8.51,8.51,0,0,0,176.91,225.42Zm-6.54,22.18s-5.37-5.84-5.37-8.81a5.37,5.37,0,1,1,10.74,0C175.74,241.76,170.37,247.6,170.37,247.6Z"/><path class="cls-7" d="M170.37,236.34a2.45,2.45,0,1,0,2.45,2.45A2.45,2.45,0,0,0,170.37,236.34Z"/></g><polygon class="cls-2" points="463.81 188.4 472.56 182.73 463.81 177.06 463.81 188.4"/><path class="cls-2" d="M475.09,167.29H458.41a7.11,7.11,0,0,0-7.11,7.1v16.68a7.11,7.11,0,0,0,7.11,7.1h16.68a7.1,7.1,0,0,0,7.1-7.1V174.39A7.1,7.1,0,0,0,475.09,167.29Zm-8.34,26.55a11.11,11.11,0,1,1,11.11-11.11A11.11,11.11,0,0,1,466.75,193.84Z"/><g class="cls-8"><polygon class="cls-7" points="463.81 188.4 472.56 182.73 463.81 177.06 463.81 188.4"/><path class="cls-7" d="M475.09,167.29H458.41a7.11,7.11,0,0,0-7.11,7.1v16.68a7.11,7.11,0,0,0,7.11,7.1h16.68a7.1,7.1,0,0,0,7.1-7.1V174.39A7.1,7.1,0,0,0,475.09,167.29Zm-8.34,26.55a11.11,11.11,0,1,1,11.11-11.11A11.11,11.11,0,0,1,466.75,193.84Z"/></g><path class="cls-2" d="M491.46,231.26c0-.35,0-.69,0-1l2-1.12a13.72,13.72,0,0,0-.74-2.78l-2.29,0a12,12,0,0,0-1-1.77l1.18-2a14,14,0,0,0-2-2l-2,1.18a12,12,0,0,0-1.77-1l0-2.29a13.72,13.72,0,0,0-2.78-.74l-1.12,2c-.33,0-.67,0-1,0s-.68,0-1,0l-1.11-2a13.38,13.38,0,0,0-2.78.74l0,2.29a12,12,0,0,0-1.77,1l-2-1.18a14,14,0,0,0-2,2l1.18,2a12,12,0,0,0-1,1.77l-2.29,0a13.74,13.74,0,0,0-.75,2.78l2,1.12c0,.33-.05.67-.05,1s0,.68.05,1l-2,1.12a13.47,13.47,0,0,0,.75,2.77l2.29,0a12,12,0,0,0,1,1.77l-1.18,2a14,14,0,0,0,2,2l2-1.18a11.13,11.13,0,0,0,1.77,1l0,2.29a12.8,12.8,0,0,0,2.78.75l1.11-2c.34,0,.68,0,1,0s.69,0,1,0l1.12,2a13.12,13.12,0,0,0,2.78-.75l0-2.29a11.13,11.13,0,0,0,1.77-1l2,1.18a14,14,0,0,0,2-2l-1.18-2a12,12,0,0,0,1-1.77l2.29,0a13.46,13.46,0,0,0,.74-2.77l-2-1.12C491.44,231.94,491.46,231.6,491.46,231.26Zm-11.58,7.86a7.86,7.86,0,1,1,7.86-7.86A7.85,7.85,0,0,1,479.88,239.12Z"/><path class="cls-9" d="M491.46,231.26c0-.35,0-.69,0-1l2-1.12a13.72,13.72,0,0,0-.74-2.78l-2.29,0a12,12,0,0,0-1-1.77l1.18-2a14,14,0,0,0-2-2l-2,1.18a12,12,0,0,0-1.77-1l0-2.29a13.72,13.72,0,0,0-2.78-.74l-1.12,2c-.33,0-.67,0-1,0s-.68,0-1,0l-1.11-2a13.38,13.38,0,0,0-2.78.74l0,2.29a12,12,0,0,0-1.77,1l-2-1.18a14,14,0,0,0-2,2l1.18,2a12,12,0,0,0-1,1.77l-2.29,0a13.74,13.74,0,0,0-.75,2.78l2,1.12c0,.33-.05.67-.05,1s0,.68.05,1l-2,1.12a13.47,13.47,0,0,0,.75,2.77l2.29,0a12,12,0,0,0,1,1.77l-1.18,2a14,14,0,0,0,2,2l2-1.18a11.13,11.13,0,0,0,1.77,1l0,2.29a12.8,12.8,0,0,0,2.78.75l1.11-2c.34,0,.68,0,1,0s.69,0,1,0l1.12,2a13.12,13.12,0,0,0,2.78-.75l0-2.29a11.13,11.13,0,0,0,1.77-1l2,1.18a14,14,0,0,0,2-2l-1.18-2a12,12,0,0,0,1-1.77l2.29,0a13.46,13.46,0,0,0,.74-2.77l-2-1.12C491.44,231.94,491.46,231.6,491.46,231.26Zm-11.58,7.86a7.86,7.86,0,1,1,7.86-7.86A7.85,7.85,0,0,1,479.88,239.12Z"/><path class="cls-2" d="M461.2,270.74c0-.51,0-1-.07-1.53l3-1.66a20.39,20.39,0,0,0-1.12-4.16l-3.42.06a17,17,0,0,0-1.54-2.65l1.76-2.94a20.39,20.39,0,0,0-3-3.05l-2.94,1.77a17.44,17.44,0,0,0-2.65-1.54l.06-3.42a20.75,20.75,0,0,0-4.16-1.12l-1.66,3c-.51,0-1-.07-1.53-.07s-1,0-1.53.07l-1.67-3a20.75,20.75,0,0,0-4.16,1.12l.06,3.42a17.44,17.44,0,0,0-2.65,1.54L431,254.81a20.87,20.87,0,0,0-3,3.05l1.76,2.94a16.16,16.16,0,0,0-1.53,2.65l-3.43-.06a19.75,19.75,0,0,0-1.11,4.16l3,1.66c0,.51-.08,1-.08,1.53s0,1,.08,1.53l-3,1.67a19.83,19.83,0,0,0,1.11,4.15l3.43,0a17,17,0,0,0,1.53,2.65L428,283.62a20.87,20.87,0,0,0,3,3.05l2.94-1.76a17.38,17.38,0,0,0,2.65,1.53l-.06,3.42a20.1,20.1,0,0,0,4.16,1.12l1.67-3c.5,0,1,.07,1.53.07s1,0,1.53-.07l1.66,3a20.1,20.1,0,0,0,4.16-1.12l-.06-3.42a17.38,17.38,0,0,0,2.65-1.53l2.94,1.76a20.39,20.39,0,0,0,3-3.05l-1.76-2.93a17.94,17.94,0,0,0,1.54-2.65l3.42,0a20.48,20.48,0,0,0,1.12-4.15l-3-1.67C461.17,271.77,461.2,271.26,461.2,270.74Zm-17.31,6.82a6.82,6.82,0,1,1,6.82-6.82A6.82,6.82,0,0,1,443.89,277.56Z"/><path class="cls-9" d="M461.2,270.74c0-.51,0-1-.07-1.53l3-1.66a20.39,20.39,0,0,0-1.12-4.16l-3.42.06a17,17,0,0,0-1.54-2.65l1.76-2.94a20.39,20.39,0,0,0-3-3.05l-2.94,1.77a17.44,17.44,0,0,0-2.65-1.54l.06-3.42a20.75,20.75,0,0,0-4.16-1.12l-1.66,3c-.51,0-1-.07-1.53-.07s-1,0-1.53.07l-1.67-3a20.75,20.75,0,0,0-4.16,1.12l.06,3.42a17.44,17.44,0,0,0-2.65,1.54L431,254.81a20.87,20.87,0,0,0-3,3.05l1.76,2.94a16.16,16.16,0,0,0-1.53,2.65l-3.43-.06a19.75,19.75,0,0,0-1.11,4.16l3,1.66c0,.51-.08,1-.08,1.53s0,1,.08,1.53l-3,1.67a19.83,19.83,0,0,0,1.11,4.15l3.43,0a17,17,0,0,0,1.53,2.65L428,283.62a20.87,20.87,0,0,0,3,3.05l2.94-1.76a17.38,17.38,0,0,0,2.65,1.53l-.06,3.42a20.1,20.1,0,0,0,4.16,1.12l1.67-3c.5,0,1,.07,1.53.07s1,0,1.53-.07l1.66,3a20.1,20.1,0,0,0,4.16-1.12l-.06-3.42a17.38,17.38,0,0,0,2.65-1.53l2.94,1.76a20.39,20.39,0,0,0,3-3.05l-1.76-2.93a17.94,17.94,0,0,0,1.54-2.65l3.42,0a20.48,20.48,0,0,0,1.12-4.15l-3-1.67C461.17,271.77,461.2,271.26,461.2,270.74Zm-17.31,6.82a6.82,6.82,0,1,1,6.82-6.82A6.82,6.82,0,0,1,443.89,277.56Z"/><path class="cls-10" d="M412.37,193.74v7l-6.62,3.49a1.62,1.62,0,0,0,0,2.86l6.62,3.49v7a2.81,2.81,0,0,0,2.81,2.82h23.75a2.82,2.82,0,0,0,2.82-2.82V193.74a2.81,2.81,0,0,0-2.82-2.81H415.18A2.81,2.81,0,0,0,412.37,193.74Z"/><g class="cls-11"><path class="cls-7" d="M420.55,201H434a1.66,1.66,0,0,0,0-3.32H420.55a1.66,1.66,0,0,0,0,3.32Z"/><path class="cls-7" d="M434,204H420.55a1.66,1.66,0,0,0,0,3.32H434a1.66,1.66,0,0,0,0-3.32Z"/><path class="cls-7" d="M434,210.25H420.55a1.66,1.66,0,1,0,0,3.31H434a1.66,1.66,0,1,0,0-3.31Z"/></g><path class="cls-10" d="M278.15,182.82h5.68l2.92,5.55a2.26,2.26,0,0,0,4,0l2.92-5.55h5.68a4.09,4.09,0,0,0,4.09-4.09V157.54a4.09,4.09,0,0,0-4.09-4.09H278.15a4.09,4.09,0,0,0-4.09,4.09v21.19A4.09,4.09,0,0,0,278.15,182.82Z"/><polygon class="cls-12" points="288.76 159.78 282.21 163.61 282.21 174.79 287.08 174.79 287.08 167.28 290.44 167.28 290.44 174.79 295.31 174.79 295.31 163.61 288.76 159.78"/><path class="cls-10" d="M341.77,486.61h-5.11l-3.26-6.19a1.88,1.88,0,0,0-3.32,0l-3.26,6.19h-5.1a4.66,4.66,0,0,0-4.67,4.66v20.05a4.67,4.67,0,0,0,4.67,4.66h20a4.66,4.66,0,0,0,4.66-4.66V491.27A4.66,4.66,0,0,0,341.77,486.61Z"/><path class="cls-12" d="M334.58,494.26a7.25,7.25,0,1,0-1,11.11,1.66,1.66,0,0,0,.45.88l4.51,4.5a1.62,1.62,0,0,0,2.3,0,1.64,1.64,0,0,0,0-2.3L336.3,504a1.59,1.59,0,0,0-.88-.45A7.27,7.27,0,0,0,334.58,494.26ZM333,503a5.08,5.08,0,1,1,0-7.19A5.09,5.09,0,0,1,333,503Z"/><path class="cls-13" d="M556.22,353.06s-10.82,26.83-21.42,29.73-26.57.54-26.57.54l-4.94,1.35-4.85-.72h-.16l-5.47-.13a1,1,0,0,1-.93-1.64l2-2.71a1.29,1.29,0,0,1,.65-.46l5.2-1.67a1.23,1.23,0,0,1,.63,0l7.95,1.26s22.12-3.62,24.37-5.68,8.91-23.49,8.91-23.49Z"/><path class="cls-14" d="M508.78,378.46l-.51.09-7.95-1.26a1.23,1.23,0,0,0-.63,0l-5.2,1.67a1.29,1.29,0,0,0-.65.46l-2,2.71a1,1,0,0,0,.93,1.64l5.47.13h.16l3.26.49C504.12,383.4,506.52,381.2,508.78,378.46Z"/><path class="cls-15" d="M562.76,326.5c-7.87-2.59-18.93,3.32-23.17,28.08l16.33,4.76S574,330.18,562.76,326.5Z"/><path class="cls-16" d="M517,294.14c0,.82.44,1.47,1,1.47s1-.7,1-1.49-.44-1.47-1-1.46S517,293.33,517,294.14Z"/><path class="cls-17" d="M520.24,295l-3.86,6.39s1.33,1.51,4.23.39Z"/><path class="cls-16" d="M521,289.05a.46.46,0,0,1-.38.14,3.35,3.35,0,0,0-2.92.91.42.42,0,1,1-.63-.56,4.14,4.14,0,0,1,3.67-1.2.43.43,0,0,1,.36.48h0A.48.48,0,0,1,521,289.05Z"/><path class="cls-13" d="M548.27,288.35c.6,10.8,1.09,15.36-3.67,21.5-7.62,6.58-20.58,7.62-24.4-2.78-3.44-9.36-3.85-25.41,6.15-31a14.77,14.77,0,0,1,21.92,12.25Z"/><polygon class="cls-13" points="533.22 311.98 535.96 327.97 549.29 324.89 544.63 308.57 533.22 311.98"/><path class="cls-16" d="M523.62,289.15c.68-7-1.73,1.08-5-8.17s12.07-16.78,14.52-15.05,1,4.38,9.15,5.87,7.76,9.36,7.76,9.36,4.66,2.16,3,12.17a41.11,41.11,0,0,1-8,17.59s-3.07-3.16-7.92-.24a15.88,15.88,0,0,1-4.74-4.85c-2.18-3.26-2.86-6.36-5.85-6.63C520.3,298.63,523.39,291.45,523.62,289.15Z"/><path class="cls-16" d="M549.19,282.39s6.61-4.07,3.69-8.33S551.36,278.74,549.19,282.39Z"/><path class="cls-18" d="M525.52,293.22a8.31,8.31,0,0,0-2.1,6c.18,2.92,3,3.44,5.31,1.84,2-1.44,4.39-4.7,3.09-7.27S527.35,291.23,525.52,293.22Z"/><path class="cls-14" d="M533.48,313.49l1.08,6.35c-.07-5.81,3-8.68,3-8.68C534.44,311.63,533.48,313.49,533.48,313.49Z"/><rect class="cls-15" x="435.92" y="354.77" width="3.81" height="22.49"/><rect class="cls-9" x="435.92" y="354.77" width="3.81" height="22.49"/><path class="cls-2" d="M413.54,310.12H404a6.44,6.44,0,0,0-6.44,6.44v44A6.45,6.45,0,0,0,404,367h9.5Z"/><rect class="cls-2" x="400.92" y="310.12" width="77.12" height="56.87" rx="4.85"/><rect class="cls-19" x="400.92" y="310.12" width="77.12" height="56.87" rx="4.85"/><rect class="cls-16" x="403.58" y="312.78" width="71.81" height="51.55" rx="3.79"/><path class="cls-2" d="M424,386.67a13.87,13.87,0,0,1,27.74,0Z"/><polygon class="cls-15" points="456.7 381.94 428.96 381.94 428.96 386.45 484.44 386.45 484.44 384.6 456.7 381.94"/><polygon class="cls-20" points="456.7 381.94 428.96 381.94 428.96 386.45 484.44 386.45 484.44 384.6 456.7 381.94"/><polygon class="cls-15" points="456.7 386.45 428.96 386.45 428.96 381.94 456.7 384.6 456.7 386.45"/><polygon class="cls-21" points="456.7 386.45 428.96 386.45 428.96 381.94 456.7 384.6 456.7 386.45"/><path class="cls-16" d="M517.86,541.44H460.63a8.69,8.69,0,0,1-8.69-8.69V401.18a8.69,8.69,0,0,1,8.69-8.69h57.23a2.32,2.32,0,0,1,2.33,2.32h0a2.32,2.32,0,0,1-2.33,2.32H460.63a4.05,4.05,0,0,0-4.05,4.05V532.75a4.05,4.05,0,0,0,4.05,4h57.23a2.32,2.32,0,0,1,2.33,2.32h0A2.32,2.32,0,0,1,517.86,541.44Z"/><g class="cls-22"><path class="cls-7" d="M517.86,541.44H460.63a8.69,8.69,0,0,1-8.69-8.69V401.18a8.69,8.69,0,0,1,8.69-8.69h57.23a2.32,2.32,0,0,1,2.33,2.32h0a2.32,2.32,0,0,1-2.33,2.32H460.63a4.05,4.05,0,0,0-4.05,4.05V532.75a4.05,4.05,0,0,0,4.05,4h57.23a2.32,2.32,0,0,1,2.33,2.32h0A2.32,2.32,0,0,1,517.86,541.44Z"/></g><rect class="cls-10" x="379.14" y="386.45" width="81.25" height="6.81"/><rect class="cls-23" x="379.14" y="386.45" width="81.25" height="6.81"/><rect class="cls-10" x="456.7" y="386.45" width="69.3" height="6.81"/><rect class="cls-19" x="456.7" y="386.45" width="69.3" height="6.81"/><polygon class="cls-13" points="501.69 493.17 505.54 531.97 496.34 531.97 487.14 494.17 501.69 493.17"/><path class="cls-16" d="M495.48,529.43l11.73.2a1,1,0,0,1,.91.76l1.95,9.58a1.57,1.57,0,0,1-1.21,1.86l-.33,0c-4.22-.14-8-.44-13.24-.52-6.21-.11-4.65.66-12,.64-4.4,0-5.12-5-3.25-5.24,8.56-.93,9.49-3.5,12.84-6.5A3.79,3.79,0,0,1,495.48,529.43Z"/><polygon class="cls-14" points="504.53 521.84 501.69 493.17 487.14 494.17 493.88 521.84 504.53 521.84"/><path class="cls-16" d="M564.62,403.7l-37.69,1.36s-50.73,17.73-52.15,31.42c-1.46,14,15.6,78.6,15.6,78.6h15.14s-4.18-47.37-5.78-61.88,52.84-9.7,62.3-22.07C570.74,419.74,564.62,403.7,564.62,403.7Z"/><path class="cls-24" d="M564.62,403.7l-37.69,1.36s-50.73,17.73-52.15,31.42c-1.46,14,15.6,78.6,15.6,78.6h15.14s-4.18-47.37-5.78-61.88,52.84-9.7,62.3-22.07C570.74,419.74,564.62,403.7,564.62,403.7Z"/><polygon class="cls-2" points="508.1 512.9 508.44 518.25 489.71 518.25 487.87 512.9 508.1 512.9"/><polygon class="cls-13" points="466.63 495.01 467.63 531.97 458.6 531.97 453.25 495.01 466.63 495.01"/><path class="cls-16" d="M457.35,529.43l11.73.2a1,1,0,0,1,.91.76l2,9.58a1.58,1.58,0,0,1-1.21,1.86,1.87,1.87,0,0,1-.34,0c-4.22-.14-8-.44-13.24-.52-6.21-.11-4.65.66-12,.64-4.4,0-5.12-5-3.25-5.24,8.55-.93,9.48-3.5,12.83-6.5A3.83,3.83,0,0,1,457.35,529.43Z"/><path class="cls-14" d="M467.36,521.81l-.73-26.8H453.25l3.89,26.83C460.05,521.85,464.05,521.83,467.36,521.81Z"/><path class="cls-16" d="M548.24,406.83s3.13,28.65-26,30-51.9,4.68-52.57,15.05,0,63.21,0,63.21H453.79s-6.16-33.41-8.57-54.13c-2.33-20.12-6.59-34.71,14-41.53,22-7.24,61-13.94,61-13.94l28.09-1.78Z"/><polygon class="cls-2" points="471.98 512.9 470.98 518.25 453.59 518.25 451.75 512.9 471.98 512.9"/><path class="cls-15" d="M554.56,324.61s0-6.47-13-5.72c-13.86.8-11.25,7-11.25,7Z"/><path class="cls-2" d="M554.56,324.61s0-6.47-13-5.72c-13.86.8-11.25,7-11.25,7Z"/><path class="cls-14" d="M554.56,324.61s0-6.47-13-5.72c-13.86.8-11.25,7-11.25,7Z"/><path class="cls-2" d="M566.68,353.56c-.88,12.76-.57,51.15-.57,51.15s-27.86,1.83-49.78,1.12L513.79,332a6.47,6.47,0,0,1,4.17-6c6.19-2.4,20.72-5.13,43.44-2.14C569.24,324.84,567.72,338.47,566.68,353.56Z"/><path class="cls-13" d="M518.27,353.06s-10.83,26.83-21.42,29.73-26.58.54-26.58.54l-4.94,1.35-4.84-.72h-.17l-5.47-.13a1,1,0,0,1-.93-1.64l2-2.71a1.34,1.34,0,0,1,.65-.46l5.2-1.67a1.23,1.23,0,0,1,.63,0l8,1.26s22.11-3.62,24.36-5.68,8.91-23.49,8.91-23.49Z"/><path class="cls-14" d="M518,340.58s-1.68,2-3.73,4.9l.73,21.38c8.14-3.59,11.37-24.56,11.37-24.56l-5.29-3.75Z"/><path class="cls-2" d="M524.8,326.5c-7.86-2.59-18.93,3.32-23.16,28.08L518,359.34S536,330.18,524.8,326.5Z"/><rect class="cls-16" x="522.91" y="450.72" width="12.28" height="36.01"/><rect class="cls-21" x="522.91" y="450.72" width="12.28" height="36.01"/><polygon class="cls-16" points="537.1 519.35 537.1 473.6 521.01 473.6 521.01 519.35 484.37 524.43 484.37 529.51 529.06 525.7 573.75 529.51 573.75 524.43 537.1 519.35"/><circle class="cls-16" cx="483.83" cy="537.14" r="4.84"/><circle class="cls-16" cx="573.75" cy="537.14" r="4.84"/><circle class="cls-16" cx="529.06" cy="537.14" r="4.84"/><rect class="cls-25" x="522.91" y="450.72" width="12.28" height="8.9"/><path class="cls-15" d="M577.62,369.12h-40A12.62,12.62,0,0,0,525,380.57l-3.38,36.17a16.65,16.65,0,0,1-15.73,15.08l-38.63,2a8.82,8.82,0,0,0-8.38,8.82v.81a7.31,7.31,0,0,0,7.31,7.31H583.86l6.33-67.8A12.62,12.62,0,0,0,577.62,369.12Z"/><path class="cls-26" d="M577.62,369.12h-40A12.62,12.62,0,0,0,525,380.57l-3.38,36.17a16.65,16.65,0,0,1-15.73,15.08l-38.63,2a8.82,8.82,0,0,0-8.38,8.82v.81a7.31,7.31,0,0,0,7.31,7.31H583.86l6.33-67.8A12.62,12.62,0,0,0,577.62,369.12Z"/><path class="cls-16" d="M485.74,409.92h5.51a0,0,0,0,1,0,0v29.49a2,2,0,0,1-2,2h-1.51a2,2,0,0,1-2-2V409.92A0,0,0,0,1,485.74,409.92Z"/><path class="cls-23" d="M485.74,409.92h5.51a0,0,0,0,1,0,0v29.49a2,2,0,0,1-2,2h-1.51a2,2,0,0,1-2-2V409.92A0,0,0,0,1,485.74,409.92Z"/><path class="cls-10" d="M512.32,401.59H500v10.16h12.28a5.08,5.08,0,1,0,0-10.16Z"/><path class="cls-19" d="M512.32,401.59H500v10.16h12.28a5.08,5.08,0,1,0,0-10.16Z"/><rect class="cls-10" x="459.59" y="401.59" width="52.74" height="10.17" rx="3.69"/><rect class="cls-27" x="459.59" y="401.59" width="52.74" height="10.17" rx="3.69"/><path class="cls-26" d="M586.63,450.72H527.78l6.56-70.15a12.62,12.62,0,0,1,12.57-11.45h40a12.62,12.62,0,0,1,12.57,13.8l-5.72,61.28A7.19,7.19,0,0,1,586.63,450.72Z"/><path class="cls-19" d="M586.63,450.72H527.78l6.56-70.15a12.62,12.62,0,0,1,12.57-11.45h40a12.62,12.62,0,0,1,12.57,13.8l-5.72,61.28A7.19,7.19,0,0,1,586.63,450.72Z"/><path class="cls-16" d="M449.17,541.44H391.93a8.69,8.69,0,0,1-8.69-8.69V401.18a8.69,8.69,0,0,1,8.69-8.69h57.24a2.32,2.32,0,0,1,2.32,2.32h0a2.32,2.32,0,0,1-2.32,2.32H391.93a4.05,4.05,0,0,0-4,4.05V532.75a4.05,4.05,0,0,0,4,4h57.24a2.32,2.32,0,0,1,2.32,2.32h0A2.32,2.32,0,0,1,449.17,541.44Z"/><g class="cls-22"><path class="cls-7" d="M449.17,541.44H391.93a8.69,8.69,0,0,1-8.69-8.69V401.18a8.69,8.69,0,0,1,8.69-8.69h57.24a2.32,2.32,0,0,1,2.32,2.32h0a2.32,2.32,0,0,1-2.32,2.32H391.93a4.05,4.05,0,0,0-4,4.05V532.75a4.05,4.05,0,0,0,4,4h57.24a2.32,2.32,0,0,1,2.32,2.32h0A2.32,2.32,0,0,1,449.17,541.44Z"/></g><path class="cls-7" d="M411.35,323.26l-4-2.68a.71.71,0,0,1,0-1.2l4-2.68a.65.65,0,0,1,.9.18h0a.66.66,0,0,1-.18.91l-3.3,2.19,3.3,2.19a.65.65,0,0,1,.18.9h0A.65.65,0,0,1,411.35,323.26Z"/><path class="cls-7" d="M420.15,323.07h0a.65.65,0,0,1,.19-.9l3.29-2.19-3.29-2.19a.66.66,0,0,1-.19-.91h0a.66.66,0,0,1,.91-.18l4,2.68a.72.72,0,0,1,0,1.2l-4,2.68A.66.66,0,0,1,420.15,323.07Z"/><path class="cls-7" d="M414.7,324.81h0a.66.66,0,0,1-.43-.82L417,315.3a.65.65,0,0,1,.82-.42h0a.65.65,0,0,1,.42.82l-2.74,8.69A.65.65,0,0,1,414.7,324.81Z"/><path class="cls-7" d="M437.25,331.51H407.68a.69.69,0,0,1-.69-.69h0a.69.69,0,0,1,.69-.69h29.57a.69.69,0,0,1,.69.69h0A.69.69,0,0,1,437.25,331.51Z"/><path class="cls-7" d="M471.23,331.51H441.66a.69.69,0,0,1-.69-.69h0a.69.69,0,0,1,.69-.69h29.57a.68.68,0,0,1,.68.69h0A.68.68,0,0,1,471.23,331.51Z"/><path class="cls-7" d="M424.58,337.6h-16.9a.69.69,0,0,1-.69-.69h0a.69.69,0,0,1,.69-.69h16.9a.69.69,0,0,1,.69.69h0A.69.69,0,0,1,424.58,337.6Z"/><path class="cls-7" d="M456.66,337.6H429a.69.69,0,0,1-.69-.69h0a.69.69,0,0,1,.69-.69h27.68a.69.69,0,0,1,.69.69h0A.69.69,0,0,1,456.66,337.6Z"/><path class="cls-7" d="M452.72,343.68h-45A.69.69,0,0,1,407,343h0a.69.69,0,0,1,.69-.69h45a.69.69,0,0,1,.69.69h0A.69.69,0,0,1,452.72,343.68Z"/><path class="cls-7" d="M466.54,343.68h-9.41a.69.69,0,0,1-.69-.69h0a.69.69,0,0,1,.69-.69h9.41a.68.68,0,0,1,.68.69h0A.68.68,0,0,1,466.54,343.68Z"/><path class="cls-7" d="M428.71,349.77h-21a.69.69,0,0,1-.69-.69h0a.69.69,0,0,1,.69-.69h21a.69.69,0,0,1,.69.69h0A.69.69,0,0,1,428.71,349.77Z"/><path class="cls-7" d="M459.3,349.77H433.12a.69.69,0,0,1-.69-.69h0a.69.69,0,0,1,.69-.69H459.3a.69.69,0,0,1,.69.69h0A.69.69,0,0,1,459.3,349.77Z"/><path class="cls-7" d="M437.25,355.86H407.68a.69.69,0,0,1-.69-.69h0a.69.69,0,0,1,.69-.69h29.57a.69.69,0,0,1,.69.69h0A.69.69,0,0,1,437.25,355.86Z"/><path class="cls-7" d="M462.52,355.86H441.66a.69.69,0,0,1-.69-.69h0a.69.69,0,0,1,.69-.69h20.86a.68.68,0,0,1,.68.69h0A.68.68,0,0,1,462.52,355.86Z"/><path class="cls-28" d="M205.88,237c.53,6.26-.82,17.59-5.54,21.21,7.7,2.77,15.84,7.56,21.06,13.86,5.16-7.51-.71-11.8-.71-11.8-6.66-2.37-5.93-7.39-4.22-12Z"/><path class="cls-16" d="M231,231.59c-.07.78.29,1.46.81,1.51s1-.55,1.06-1.34-.29-1.46-.8-1.51S231.11,230.8,231,231.59Z"/><path class="cls-16" d="M231.87,230.27l1.94-.37S232.7,231.33,231.87,230.27Z"/><path class="cls-29" d="M231.28,232.43a21.42,21.42,0,0,0,2.35,5.29,3.4,3.4,0,0,1-2.87.27Z"/><path class="cls-16" d="M233.24,227.46a.53.53,0,0,0,.31-.17.46.46,0,0,0,0-.65,4.63,4.63,0,0,0-4.1-1.1.46.46,0,0,0-.15.64.43.43,0,0,0,.4.22,3.77,3.77,0,0,1,3.24.91A.43.43,0,0,0,233.24,227.46Z"/><path class="cls-28" d="M205.21,226.61c-.3,9.71-.64,13.84,3.69,19.25,6.53,8.15,18.33,6.36,21.48-3.09,2.84-8.51,2.87-23-6.06-27.71S205.53,216.86,205.21,226.61Z"/><path class="cls-16" d="M205.68,244.94c-9.56-1.63-6.81-7.65-6.81-7.65-9.41-1.91-2.15-6.5-2.15-6.5-7.82-3.37,0-6.39,0-6.39C189.18,218.14,200,216,200,216c-2.67-9.76,6.6-5.75,6.6-5.75,5-8.39,9.4-.38,9.4-.38,8.85-12,11-1.88,11-1.88,9-2.37,5.57,7.13,5.57,7.13,7.44,2,1.6,5.76,1.6,5.76,2.87,3.63-7.51,4.26-7.51,4.26s4.94,7.91,0,10.16l-12.56,9.63S208.28,242.53,205.68,244.94Z"/><path class="cls-30" d="M215.06,237.1s6.58-15.9,1.45-29.54l4.39-1.5S226.62,225.84,215.06,237.1Z"/><path class="cls-28" d="M221.68,235.36c1.1,2.28,1.52,3.27,3.09,4a2.85,2.85,0,0,0,4.17-3.16c-.41-2.29-2.17-5.65-4.6-5.72S220.55,233.09,221.68,235.36Z"/><path class="cls-28" d="M214.83,268.53s9,6.59,12.64,9.25l26-12.27h0a7.19,7.19,0,0,1,4.39-6.8l1.85-.78,3.92-1.74a4.57,4.57,0,0,1,4.53.47h0a4.56,4.56,0,0,1,1.69,5h0a11.28,11.28,0,0,1-8,7.73l-3.79,1s-22.32,16.93-30.25,17.37-19.64-7.42-19.64-7.42Z"/><path class="cls-16" d="M193.2,257.33c6.87,0,14.54,4.28,26.63,12.11a33.07,33.07,0,0,1-9.32,14.72s-6.63-1.79-15.45-10.09C184.39,264,189,257.34,193.2,257.33Z"/><path class="cls-10" d="M323.62,277.22H258.55a3.85,3.85,0,0,1-3.9-4.27l4.9-56a4.76,4.76,0,0,1,4.65-4.27h65.07a3.85,3.85,0,0,1,3.9,4.27l-4.91,56A4.74,4.74,0,0,1,323.62,277.22Z"/><path class="cls-31" d="M323.85,274.57a1.81,1.81,0,0,0,1.76-1.62l4.9-56a1.45,1.45,0,0,0-1.48-1.61H264a1.8,1.8,0,0,0-1.76,1.61l-4.9,56a1.46,1.46,0,0,0,1.47,1.62Z"/><path class="cls-2" d="M278.63,241.63l-21.27,30.76-.05.56a1.46,1.46,0,0,0,1.47,1.62h36.86Z"/><path class="cls-19" d="M278.63,241.63l-21.27,30.76-.05.56a1.46,1.46,0,0,0,1.47,1.62h36.86Z"/><path class="cls-2" d="M325.8,270.8,308,237l-26.37,37.59h42.24a1.81,1.81,0,0,0,1.76-1.62Z"/><path class="cls-2" d="M301.11,231a6.66,6.66,0,0,1-6.5,6,5.39,5.39,0,0,1-5.46-6,6.66,6.66,0,0,1,6.5-6A5.4,5.4,0,0,1,301.11,231Z"/><path class="cls-32" d="M301.11,231a6.66,6.66,0,0,1-6.5,6,5.39,5.39,0,0,1-5.46-6,6.66,6.66,0,0,1,6.5-6A5.4,5.4,0,0,1,301.11,231Z"/><polygon class="cls-28" points="138.71 503.31 132.1 522.92 142.24 527.05 150.16 508.96 138.71 503.31"/><path class="cls-30" d="M145.87,526.56a.31.31,0,0,1-.15-.29.28.28,0,0,1,.22-.25c.21,0,5-1.12,6.78,0a1.56,1.56,0,0,1,.67.92,1.08,1.08,0,0,1-.35,1.2c-.67.48-2.25.28-3.7-.17A20.6,20.6,0,0,1,145.87,526.56Zm1-.09c2.09.94,5,1.82,5.81,1.23.11-.07.23-.21.13-.62a.79.79,0,0,0-.42-.55,2,2,0,0,0-.51-.23A13.21,13.21,0,0,0,146.88,526.47Z"/><path class="cls-30" d="M145.73,526.5a.3.3,0,0,1,0-.29c.06-.14,1.35-3.19,3.21-4a2.13,2.13,0,0,1,1.68,0c.74.31.86.77.79,1.1-.16,1.38-3.74,3-5.33,3.24a.2.2,0,0,1-.11,0A.26.26,0,0,1,145.73,526.5Zm4.5-3.77a1.58,1.58,0,0,0-1.07,0,6.84,6.84,0,0,0-2.65,3.1c1.71-.41,4.16-1.82,4.33-2.63,0-.08,0-.29-.45-.49l-.16,0Z"/><path class="cls-16" d="M145.19,524.56l-12.73-3.93a1.08,1.08,0,0,0-1.25.49l-5.5,9.65a1.79,1.79,0,0,0,.65,2.44,1.84,1.84,0,0,0,.35.15c4.61,1.34,8.77,2.34,14.48,4.12,6.74,2.08,4.78,2.36,12.67,4.92,4.75,1.53,7.3-3.62,5.36-4.52-8.91-4-9-7.12-11.56-11.54A4.28,4.28,0,0,0,145.19,524.56Z"/><polygon class="cls-33" points="135.54 512.71 146.17 518.08 150.16 508.96 138.71 503.31 135.54 512.71"/><path class="cls-16" d="M183.63,322s-14.28,10.91-11.22,45.06c.29,3.16,1.31,6.47,1.32,10.09,0,2.4-.66,4.08-1.44,9.49-1.15,7.86-3.25,37.18-5.46,41s-3.12,3.14-9.35,13.65c-6.7,11.31-15.27,31.16-21.95,64.79a37.57,37.57,0,0,0,14.92,6.25s36.49-57.53,44.24-79c6.94-19.16,15.21-80.31,15.21-80.31l.67-26.52Z"/><path class="cls-24" d="M199.25,367.07H188.91s-3.4,32.51,7.84,59.63c1.17-4.35,2.36-9.58,3.51-15.21l4.47-28.64c-.64-4.84-1.14-8.52-1.21-8.77C203.3,373.33,199.25,367.07,199.25,367.07Z"/><polygon class="cls-28" points="197.54 511.2 197.61 532.03 209.37 531.25 211.17 511.2 197.54 511.2"/><path class="cls-30" d="M210.72,530.9a.3.3,0,0,1-.24-.23.28.28,0,0,1,.13-.3c.18-.12,4.35-2.7,6.41-2.21a1.49,1.49,0,0,1,.93.64,1.1,1.1,0,0,1,.07,1.26c-.48.67-2,1-3.56,1.05A21.28,21.28,0,0,1,210.72,530.9Zm.92-.42c2.28.2,5.36.07,5.9-.74.07-.11.14-.28-.08-.63a.84.84,0,0,0-.59-.39,2,2,0,0,0-.55-.05A13.37,13.37,0,0,0,211.64,530.48Z"/><path class="cls-30" d="M210.57,530.89a.29.29,0,0,1-.14-.26c0-.15.22-3.45,1.73-4.78a2.11,2.11,0,0,1,1.59-.56c.79.06,1.06.45,1.1.78.31,1.36-2.53,4.11-4,4.81a.17.17,0,0,1-.12,0A.23.23,0,0,1,210.57,530.89Zm3-5a1.51,1.51,0,0,0-1,.4A6.84,6.84,0,0,0,211.1,530c1.48-.94,3.33-3.08,3.22-3.9,0-.08-.06-.29-.58-.31l-.17,0Z"/><path class="cls-16" d="M209.42,529.24l-13.32.47a1.07,1.07,0,0,0-1,.88l-2,10.91a1.77,1.77,0,0,0,1.41,2.09,1.22,1.22,0,0,0,.38,0c4.79-.25,9-.67,15-.87,7.05-.25,5.29.66,13.58.48,5-.12,5.71-5.82,3.58-6-9.73-.87-10.84-3.76-14.71-7.1A4.26,4.26,0,0,0,209.42,529.24Z"/><polygon class="cls-33" points="197.58 521.98 210.22 521.71 211.17 511.2 197.54 511.2 197.58 521.98"/><path class="cls-16" d="M191.58,318.19s-14.24,18.87-3.69,55.82L199.8,427.9s-11.34,24.52-5.35,89.2a54.67,54.67,0,0,0,17.59-.4s13.26-68.3,15.28-91.37c2.22-25.41.89-102,.89-102Z"/><path class="cls-16" d="M200.19,257.06s-2.21-9.43,11.95-5.3,13,12.18,13,12.18Z"/><path class="cls-34" d="M200.19,257.06s-2.21-9.43,11.95-5.3,13,12.18,13,12.18Z"/><path class="cls-30" d="M235.3,280.65c0,3.3-1.39,8.08-2.64,13.44-.61,2.53-1.17,5.18-1.54,7.86-2,14.62-2.66,30-2.66,30a58.25,58.25,0,0,1-45.6-9.05s5.56-4.71,4.42-37.37c-.52-14.71-5.83-32.2,18.49-29.45,20.53,2.32,27.43,8.7,29.09,18.67,0,.12,0,.25.07.39l.12.93A39.31,39.31,0,0,1,235.3,280.65Z"/><path class="cls-34" d="M235.3,280.65c0,3.3-1.39,8.08-2.64,13.44-5.55-6.68-11.12-19.19-11.12-19.19l4.59-6.75,8.07,3.76a23.06,23.06,0,0,1,.66,2.84c0,.12,0,.25.07.39l.12.93A39.31,39.31,0,0,1,235.3,280.65Z"/><path class="cls-28" d="M243.69,274.88s7.9,7.86,11.12,11l27.55-8.26h0a7.19,7.19,0,0,1,5.35-6.07l2-.49L293.8,270a4.54,4.54,0,0,1,4.4,1.14h0a4.57,4.57,0,0,1,.94,5.17h0a11.31,11.31,0,0,1-9,6.46l-3.9.42s-24.59,13.42-32.51,12.67-18.31-10.26-18.31-10.26Z"/><path class="cls-30" d="M224,260.58c6.8,1,13.74,6.4,24.53,15.94a33,33,0,0,1-11.4,13.17s-6.29-2.75-13.78-12.28C214.26,265.89,219.81,260,224,260.58Z"/></g></svg>