<svg xmlns="http://www.w3.org/2000/svg" viewBox="0 0 700 640"><defs><style>.cls-1{fill:#f5f5f5;}.cls-2{fill:#e8e8e8;}.cls-3{fill:#00dfdf;}.cls-4{opacity:0.4;}.cls-5{fill:#fff;}.cls-6{fill:#2b454e;}.cls-7{fill:#375a64;}.cls-8{fill:#1a2e35;}.cls-9{fill:#e1e1e1;}.cls-10{opacity:0.2;}.cls-11,.cls-26{fill:#fafafa;}.cls-12{fill:#ececec;}.cls-13{opacity:0.7;}.cls-14{fill:#ffa9a7;}.cls-15{fill:#111f23;}.cls-16{fill:#ff9090;}.cls-17{fill:#ffaaa8;}.cls-18{fill:#ff8f8f;}.cls-19{fill:#142329;}.cls-20{opacity:0.5;}.cls-21{fill:#e7e7e7;}.cls-22{fill:#f0f0f0;}.cls-23{opacity:0.3;}.cls-24{fill:#054641;}.cls-25{fill:#14f4ee;}.cls-26{font-size:35.18px;font-family:Montserrat-Bold, Montserrat;font-weight:700;}</style></defs><title>Illustration</title><g id="Layer_5" data-name="Layer 5"><ellipse class="cls-1" cx="349.02" cy="450.03" rx="303.37" ry="175.15"/><ellipse class="cls-2" cx="139.46" cy="463.21" rx="33.58" ry="19.39"/><path class="cls-2" d="M398.07,359.28,177.37,486.71a5.49,5.49,0,0,0,0,9.51L307.08,571.1a21.41,21.41,0,0,0,21.45,0l220.7-127.42a5.49,5.49,0,0,0,0-9.51L419.52,359.28A21.46,21.46,0,0,0,398.07,359.28Z"/><path class="cls-2" d="M331.8,360.52l-88.36,51a11.67,11.67,0,0,0,0,20.2l44.5,25.69a19.35,19.35,0,0,0,19.36,0l88.36-51a11.67,11.67,0,0,0,0-20.21l-44.5-25.69A19.4,19.4,0,0,0,331.8,360.52Z"/><path class="cls-3" d="M141.23,413s-20.75-20.27-8.94-54.22c6.62-19,28.55-33,41-34.31,0,0-6.78,7.81-9.76,16.46l-15.73,10.46,14.46-4.53-3.08,12.38s-13.45,8.13-15.44,9.91l14.49-3.79S157.16,400.44,141.23,413Z"/><path class="cls-4" d="M141.23,413s-20.75-20.27-8.94-54.22c6.62-19,28.55-33,41-34.31,0,0-6.78,7.81-9.76,16.46l-15.73,10.46,14.46-4.53-3.08,12.38s-13.45,8.13-15.44,9.91l14.49-3.79S157.16,400.44,141.23,413Z"/><path class="cls-5" d="M141.23,413s-10.75-42.41,5.15-67.14C146.38,345.9,127.75,367.72,141.23,413Z"/><path class="cls-6" d="M165,418.78l-25.39-.32h-.26l-25.39.32s-.28,31.28,9.35,44h0c2.66,3.39,8.9,5.76,16.17,5.76s13.53-2.38,16.18-5.77C165.26,450,165,418.78,165,418.78Z"/><ellipse class="cls-7" cx="139.46" cy="418.78" rx="25.52" ry="13.7"/><path class="cls-8" d="M139.46,415.14c8.78,0,16.21,2.82,18.83,6.72a5.43,5.43,0,0,0,1-3.08c0-5.41-8.89-9.8-19.85-9.8s-19.85,4.39-19.85,9.8a5.49,5.49,0,0,0,1,3.08C123.24,418,130.68,415.14,139.46,415.14Z"/><ellipse class="cls-9" cx="139.46" cy="421.86" rx="18.84" ry="6.72"/><path class="cls-3" d="M139.77,423.55s-9.84-.38-18.27-13.44c-3.48-5.39-5.16-8.22-5.16-8.22l13.71-1L114.69,397l-7.25-11.1,12.75-.94s-9.5-3.33-16.28-3.37c0,0-11.76-20.77-15.2-23.73,0,0,27.12.22,46.45,23.07S142.64,424.14,139.77,423.55Z"/><path class="cls-5" d="M139.77,423.55s6.15-37.05-33.11-59.34C106.66,364.21,147.41,383.78,139.77,423.55Z"/><path class="cls-3" d="M139.77,423.55s8.91.58,17.75-10.41c3.65-4.53,5.43-6.93,5.43-6.93L150.68,404l14.21-2,7.59-9.33-11.41-2.06s8.88-2.11,15-1.51c0,0,12.56-17.63,16-20,0,0-24.49-2.35-44.08,16.45S137.13,423.81,139.77,423.55Z"/><path class="cls-10" d="M139.77,423.55s8.91.58,17.75-10.41c3.65-4.53,5.43-6.93,5.43-6.93L150.68,404l14.21-2,7.59-9.33-11.41-2.06s8.88-2.11,15-1.51c0,0,12.56-17.63,16-20,0,0-24.49-2.35-44.08,16.45S137.13,423.81,139.77,423.55Z"/><path class="cls-5" d="M139.77,423.55s-2.06-34,35.46-50.42C175.23,373.13,136.62,387,139.77,423.55Z"/><polygon class="cls-11" points="184.9 121.87 184.9 189.6 126.24 223.47 126.24 155.73 184.9 121.87 184.9 121.87"/><path class="cls-9" d="M178.55,125.53v60.4l-52.31,30.2v-60.4l52.31-30.2m3.17-5.5L123.06,153.9v67.73l3.18,1.84L184.9,189.6V121.87L181.72,120Z"/><path class="cls-12" d="M181.72,127.37v60.4L129.41,218v-60.4l52.31-30.2m3.18-5.5-58.66,33.86v67.74L184.9,189.6V121.87Z"/><polygon class="cls-9" points="176.29 174.1 131.91 199.73 145.02 165.62 154.1 176.4 163.38 163.18 176.29 174.1"/><path class="cls-9" d="M160.9,152.83a9,9,0,0,1-4.05,7c-2.24,1.29-4,.24-4-2.34a8.94,8.94,0,0,1,4-7C159.08,149.2,160.9,150.24,160.9,152.83Z"/><polygon class="cls-11" points="204.47 37.53 204.47 91.5 157.74 118.48 157.74 64.52 204.47 37.53 204.47 37.53"/><path class="cls-9" d="M199.41,40.46V88.57l-41.67,24.06V64.52l41.67-24.06m2.53-4.39-46.73,27v54l2.53,1.46,46.73-27v-54l-2.53-1.47Z"/><path class="cls-12" d="M201.94,41.92V90l-41.67,24V66l41.67-24.06m2.53-4.38-46.73,27v54l46.73-27v-54Z"/><polygon class="cls-9" points="197.61 79.15 162.26 99.56 172.7 72.39 179.94 80.98 187.33 70.45 197.61 79.15"/><path class="cls-9" d="M185.35,62.2a7.11,7.11,0,0,1-3.23,5.58c-1.78,1-3.22.2-3.22-1.86a7.13,7.13,0,0,1,3.22-5.58C183.9,59.31,185.35,60.14,185.35,62.2Z"/><path class="cls-8" d="M303.85,349.46l19,115.74a3.61,3.61,0,0,0,3.56,3h0a3.61,3.61,0,0,0,3.59-4l-13.31-119.4Z"/><path class="cls-8" d="M369.32,310.54l19,115.74a3.62,3.62,0,0,0,3.57,3h0a3.6,3.6,0,0,0,3.58-4l-13.3-119.4Z"/><path class="cls-8" d="M274.73,322.4,256,422.14a3,3,0,0,1-3,2.48,3.06,3.06,0,0,1-3-3.49l13.83-92.44Z"/><path class="cls-8" d="M341,285.19l-18.61,99.13a3,3,0,0,1-6-1l13.72-91.84Z"/><path class="cls-7" d="M335.55,277.65A26.59,26.59,0,0,1,319.88,256c-3-30.37-13.71-92.95-50-72.12-44.74,25.72-28.72,100.39-22.21,124.33a32.12,32.12,0,0,0,8.22,14.3c8.08,8.14,24.81,22.16,53.27,34.1a16.75,16.75,0,0,0,11,.66c14.14-4,51.08-16.4,69.49-39.95a6.43,6.43,0,0,0-1.06-9C381.19,302.39,364.34,290.48,335.55,277.65Z"/><path class="cls-3" d="M391.05,313a6.37,6.37,0,0,1-1.34,4.28q-1.47,1.89-3.11,3.67h0c-.59.65-1.2,1.3-1.81,1.93l0,0c-.61.63-1.24,1.24-1.88,1.85l-.05.06c-.64.6-1.29,1.2-1.95,1.79l0,0c-.67.59-1.34,1.18-2,1.75l0,0c-10.45,8.77-23.12,15.45-34.46,20.26l0,0-2.1.88-.22.09-1.93.78-.34.13-1.8.71-.41.15-1.68.64-.48.18-1.55.57-.56.2-1.44.5-.59.21-1.32.45-.64.22-1.2.4-.69.22-1.07.35-.73.23-.93.29-.79.24-.78.24-1,.29-.49.15-1.36.39a16.75,16.75,0,0,1-11-.66c-28.46-11.94-45.19-26-53.27-34.1a32.12,32.12,0,0,1-8.22-14.3c-6.51-23.94-22.53-98.61,22.21-124.33q1.18-.67,2.34-1.23l.5-.25c.76-.35,1.51-.68,2.24-1l.21-.08c.71-.27,1.4-.49,2.08-.69l.32-.1c.73-.2,1.45-.37,2.16-.49l.19,0a20.42,20.42,0,0,1,4.28-.31h.08a18.1,18.1,0,0,1,4.07.63h0c-7.15-3.16-15.87-3-24.52,2-44.74,25.71-28.72,100.38-22.22,124.32l1.1,4.12a38.88,38.88,0,0,0,14,20.86l11.61,8.88h0a182.42,182.42,0,0,0,40.83,23.26,16.72,16.72,0,0,0,11,.68c14.13-4,51.08-16.4,69.5-39.95A6.25,6.25,0,0,0,391,321h0v-8Z"/><path class="cls-8" d="M391.05,313a6.37,6.37,0,0,1-1.34,4.28q-1.47,1.89-3.11,3.67h0c-.59.65-1.2,1.3-1.81,1.93l0,0c-.61.63-1.24,1.24-1.88,1.85l-.05.06c-.64.6-1.29,1.2-1.95,1.79l0,0c-.67.59-1.34,1.18-2,1.75l0,0c-10.45,8.77-23.12,15.45-34.46,20.26l0,0-2.1.88-.22.09-1.93.78-.34.13-1.8.71-.41.15-1.68.64-.48.18-1.55.57-.56.2-1.44.5-.59.21-1.32.45-.64.22-1.2.4-.69.22-1.07.35-.73.23-.93.29-.79.24-.78.24-1,.29-.49.15-1.36.39a16.75,16.75,0,0,1-11-.66c-28.46-11.94-45.19-26-53.27-34.1a32.12,32.12,0,0,1-8.22-14.3c-6.51-23.94-22.53-98.61,22.21-124.33q1.18-.67,2.34-1.23l.5-.25c.76-.35,1.51-.68,2.24-1l.21-.08c.71-.27,1.4-.49,2.08-.69l.32-.1c.73-.2,1.45-.37,2.16-.49l.19,0a20.42,20.42,0,0,1,4.28-.31h.08a18.1,18.1,0,0,1,4.07.63h0c-7.15-3.16-15.87-3-24.52,2-44.74,25.71-28.72,100.38-22.22,124.32l1.1,4.12a38.88,38.88,0,0,0,14,20.86l11.61,8.88h0a182.42,182.42,0,0,0,40.83,23.26,16.72,16.72,0,0,0,11,.68c14.13-4,51.08-16.4,69.5-39.95A6.25,6.25,0,0,0,391,321h0v-8Z"/><path class="cls-3" d="M415.73,398.48c-3.06-19.48-7-50.62-9.21-69-.14-1.22-.35-2.41-.6-3.59a38.2,38.2,0,0,0-18-24.4L342,274.14l-31.16-16.39s-8.29,24,1.34,38.71c8,12.23,43.42,27.39,53.93,32.5s10.75,6.49,10.53,13.32-.23,15.52,12.7,42.77c3.72,7.83,6.31,13.69,8.11,18.18A28.72,28.72,0,0,0,415.73,398.48Z"/><path class="cls-13" d="M415.73,398.48c-3.06-19.48-7-50.62-9.21-69A37.09,37.09,0,0,0,388,301.5l-46-27.36-31.16-16.39s-8.29,24,1.34,38.71c8,12.23,43.42,27.39,53.93,32.5s10.75,6.49,10.53,13.32-.23,15.52,12.7,42.77c3.72,7.83,6.31,13.69,8.11,18.18A28.72,28.72,0,0,0,415.73,398.48Z"/><path class="cls-14" d="M401.54,419.1a4.61,4.61,0,0,0,.56,2.33,32.27,32.27,0,0,0,6.9,8.21c6.18,5.58,26.67,27.4,33.88,13.85,0,0-21.17-20.28-24-28.62-.8-2.37-1.91-8.4-3.17-16.39a28.72,28.72,0,0,1-18.27,4.75C401.43,413.08,401.61,416.3,401.54,419.1Z"/><path class="cls-8" d="M423.57,417.78,423,416a2.65,2.65,0,0,0-3.29-1.7L411.11,417a2.63,2.63,0,0,0-1.86,2.52v.86a1.54,1.54,0,0,1-1.53,1.53h0a7.8,7.8,0,0,1-5-1.79l-1.2-1v-3h0a5.24,5.24,0,0,0-2.39,4.68c.1,2,.2,4.52.13,5.51-.14,1.79-1.82,9.3.18,11.51s6.5,2.48,12.07,1.88,11.65,4.88,16.8,6.9,26.5,6.4,26.45-7.25c0-3.47-3.45-4.89-6.83-6.12s-15.56-5.53-18.68-8.1a29.12,29.12,0,0,1-3.48-3.43A11.6,11.6,0,0,1,423.57,417.78Z"/><path class="cls-15" d="M428.33,446.59c-5.15-2-11.24-7.5-16.8-6.9s-10.06.34-12.07-1.88a5.28,5.28,0,0,1-.95-3.14c-.1,2.1.06,4.11.95,5.1,2,2.21,6.5,2.48,12.07,1.88s11.65,4.87,16.8,6.9,26.5,6.4,26.45-7.25a3.5,3.5,0,0,0-.08-.59C453.35,452.68,433.31,448.55,428.33,446.59Z"/><path class="cls-3" d="M374.05,422.12c-3.07-19.47-7-50.61-9.21-69a38.81,38.81,0,0,0-13.39-24.87L296.37,281.4l-29.43-.51s-6.07,24.53,3.57,39.22c8,12.22,43.41,27.39,53.92,32.49s10.75,6.5,10.53,13.33-.23,15.52,12.7,42.77c3.72,7.83,6.31,13.68,8.11,18.17A28.69,28.69,0,0,0,374.05,422.12Z"/><path class="cls-13" d="M374.05,422.12c-3.07-19.47-7-50.61-9.21-69a38.81,38.81,0,0,0-13.39-24.87L296.37,281.4l-29.43-.51s-6.07,24.53,3.57,39.22c8,12.22,43.41,27.39,53.92,32.49s10.75,6.5,10.53,13.33-.23,15.52,12.7,42.77c3.72,7.83,6.31,13.68,8.11,18.17A28.69,28.69,0,0,0,374.05,422.12Z"/><path class="cls-14" d="M359.84,441c0,.81-.57,3.23.57,4.07,1.43,1.07,2.81,4.53,6.9,8.22,6.18,5.57,12.71-6.43,9.9-14.77-.79-2.37-1.91-8.41-3.16-16.4a28.69,28.69,0,0,1-18.28,4.75C359.74,436.73,359.91,438.19,359.84,441Z"/><path class="cls-14" d="M323.44,179.3h0a18,18,0,0,1,19.92,12.08,78.25,78.25,0,0,1,3.72,18c1.59,18.89,2,28.33,2,28.33l19,8.61s-10.24.49-9.55,14.95l-23.63-5.95Z"/><path class="cls-3" d="M349.81,226.31c-2.79-20.46-3.9-31.15-6.3-36.23-3.76-8-11.37-12.14-20.07-10.78l7.14,56.17.92-.09a29.65,29.65,0,0,0,17-7.52Z"/><path class="cls-10" d="M349.81,226.31c-2.79-20.46-3.9-31.15-6.3-36.23-3.76-8-11.37-12.14-20.07-10.78l7.14,56.17.92-.09a29.65,29.65,0,0,0,17-7.52Z"/><path class="cls-16" d="M349.11,237.72a13.13,13.13,0,0,0-5.6,3.44s2.29-4.34,5.49-5.69Z"/><path class="cls-3" d="M277.87,195.86l21.22-10.28,17.48-6s14-4.47,17.59,14.2c2.95,15.34,3.33,73.63,3.33,73.63l-.31,6.38s-8.09,22.65-37,24.53S265.69,288,265.69,288,262.76,210.85,277.87,195.86Z"/><path class="cls-8" d="M344.72,133.54s6.56,16.81-2.5,24.21-5.92-22.34-5.92-22.34Z"/><path class="cls-7" d="M328.75,566.36a8.22,8.22,0,0,1-7.45,0c-2.06-1.19-2.06-3.11,0-4.3a8.22,8.22,0,0,1,7.45,0C330.8,563.25,330.8,565.17,328.75,566.36Z"/><rect class="cls-6" x="319.77" y="437.35" width="10.53" height="126.74"/><ellipse class="cls-7" cx="205.3" cy="493.91" rx="5.27" ry="3.04"/><rect class="cls-8" x="200.04" y="367.05" width="10.53" height="126.74"/><path class="cls-7" d="M525,452.65a8.2,8.2,0,0,1-7.44,0c-2.06-1.19-2.06-3.11,0-4.3a8.2,8.2,0,0,1,7.44,0C527.07,449.54,527.07,451.46,525,452.65Z"/><rect class="cls-6" x="516.04" y="323.64" width="10.53" height="126.74"/><path class="cls-7" d="M396.3,356.74a7.39,7.39,0,0,1-6.67,0c-1.85-1.07-1.85-2.79,0-3.86a7.39,7.39,0,0,1,6.67,0C398.15,354,398.15,355.67,396.3,356.74Z"/><rect class="cls-7" x="388.25" y="248.93" width="9.45" height="105.77"/><polygon class="cls-8" points="200.03 346.05 200.03 371.27 325.04 443.44 325.04 418.23 200.03 346.05"/><polygon class="cls-6" points="526.57 301.88 325.04 418.23 325.04 443.44 526.57 327.09 526.57 301.88"/><polygon class="cls-7" points="401.56 229.7 200.03 346.05 325.04 418.23 526.57 301.88 401.56 229.7"/><polygon class="cls-12" points="300.45 308.22 346.29 334.68 422.5 290.61 376.67 263.61 300.45 308.22"/><polygon class="cls-9" points="341.36 300.69 358.55 290.76 347.78 284.54 330.58 294.46 341.36 300.69"/><polygon class="cls-9" points="348.24 328.07 325.07 314.44 370.35 287.04 348.24 328.07"/><path class="cls-14" d="M361.2,243.05l18.34,8.6a164.36,164.36,0,0,1,16.2,5s12.75,5.21,13.34,8.63-9.58,11.67-18.5,7.65c-1.8-.8-5.05-2.44-7.44-2.69s-9.51-1.38-14.66-6.29l-21.4-5.56S346,245.18,361.2,243.05Z"/><path class="cls-17" d="M373.08,268.63c2.12,2.28,8.18,8,9.5,9.67s4.44-2.6-1-9a51.1,51.1,0,0,1-13.21-7.19A52.06,52.06,0,0,0,373.08,268.63Z"/><rect class="cls-14" x="299.09" y="159.24" width="21.77" height="26.34"/><path class="cls-18" d="M320.86,185.58a35.06,35.06,0,0,1-20-19v-7.32h20Z"/><path class="cls-14" d="M328.18,124.46s19.8,2.39,15.26,36.21c-2.1,15.64-6.28,23.55-18.34,22.21-13.66-1.52-32.54-12.13-29.61-38.93S328.18,124.46,328.18,124.46Z"/><polygon class="cls-16" points="329.29 154.62 328.58 166.3 335.54 164.62 329.29 154.62"/><path class="cls-19" d="M318.93,153.57a2.38,2.38,0,1,0,2.52-2.23A2.38,2.38,0,0,0,318.93,153.57Z"/><path class="cls-19" d="M334.68,152.87a2.38,2.38,0,1,0,2.52-2.23A2.4,2.4,0,0,0,334.68,152.87Z"/><path class="cls-19" d="M340.26,148.24l-4.48-3.05s1.9-1.75,3.61-.52S340.26,148.24,340.26,148.24Z"/><path class="cls-19" d="M320.58,147.71l-4.84,2.43s-.6-2.51,1.3-3.41S320.58,147.71,320.58,147.71Z"/><path class="cls-16" d="M328.92,171.05s-4.54.13-7.54-2.52c0,0-.77,4,2.56,5S328.92,171.05,328.92,171.05Z"/><path class="cls-19" d="M298.86,154.35s3,6.33,4.92,6.11,0-24.27,3.9-24.42,22.3,9,38.58-2.82c6.24-4.52,7.49-16.08,3.75-15s-8.81,4.38-15.65,3.91-30.74-11.56-36.67,4.06c0,0-13.24-1.08-8.27,25.18,1.24,6.52,5.14,22.7,9.67,24.29Z"/><path class="cls-14" d="M299.93,160.13a13.3,13.3,0,0,0-1.07-5.78c-.91-2-2.52-4.07-5.3-4.14-6.11-.17-6.94,5.71-6.86,7.81.22,5.5,4.67,11.45,13,11.67Z"/><path class="cls-14" d="M301.82,278l15.59,12.36a52.19,52.19,0,0,1,7.92,1.37c3,.89,10.81,3.77,12.88,4.22s-.61,4-6,2.72c0,0,11.36,7.79,11.21,11.26s-11.82,9.37-19.69,3.57c-1.59-1.17-4.42-3.45-6.71-4.21s-9-3.35-13-9.23l-13.63-7.11S286.52,276.87,301.82,278Z"/><path class="cls-14" d="M284.8,192.5s9.1,7.06,3.51,29-8.58,40.79-8.58,40.79L301.82,278s-9.34,3.32-11.45,14.95c0,0-34.83-13.69-35.53-22.48s7.26-46.84,8.47-53.83S270.71,195.82,284.8,192.5Z"/><path class="cls-16" d="M279.73,262.26a20.72,20.72,0,0,0-8.33.08,17.46,17.46,0,0,1,8.51-2.11Z"/><path class="cls-11" d="M433.12,240.11l-8,52.16a.15.15,0,0,1-.06.09l-79.16,45.91a.12.12,0,0,1-.18-.12l7.73-50.58A7.51,7.51,0,0,1,357,282.3l72.62-44.53A2.33,2.33,0,0,1,433.12,240.11Z"/><path class="cls-9" d="M345.94,338.27l-42.28-24.49a6.42,6.42,0,0,1-3.21-5.56h0l45.84,26.46Z"/><path class="cls-9" d="M387.31,290.38c0,3.73,2.62,5.24,5.84,3.37A12.9,12.9,0,0,0,399,283.63c0-3.72-2.62-5.23-5.85-3.37A12.92,12.92,0,0,0,387.31,290.38Z"/><path class="cls-19" d="M299.78,133.88s-3.59-5.31-1.4-7S302.28,130.6,299.78,133.88Z"/><path class="cls-19" d="M300.39,135s-6.36-.79-6.22-3.57S299.57,131,300.39,135Z"/><path class="cls-14" d="M299.09,185.58s4.67,12.3,15.45,10.74,6.32-10.74,6.32-10.74Z"/><path class="cls-3" d="M284.8,192.5s7.09,3.4,6,17.67-6.72,43-6.72,43-25.38,10.27-27.8-4.22c-.62-3.74,5.78-38.42,11.25-45.76A25.86,25.86,0,0,1,284.8,192.5Z"/><path class="cls-10" d="M284.8,192.5s7.09,3.4,6,17.67-6.72,43-6.72,43-25.38,10.27-27.8-4.22c-.62-3.74,5.78-38.42,11.25-45.76A25.86,25.86,0,0,1,284.8,192.5Z"/><path class="cls-8" d="M360.41,441.7a6.89,6.89,0,0,0,4.14,2.89c1.54.24-1.57-3.75,2.14-5.35s12.21-3.81,13-.62l.94,4a23.67,23.67,0,0,0,5.24,10.15c2.55,2.91,5.85,6.37,8.41,8,4.84,3.14,12.82,10.7,2.58,17.14s-22.82,1-25.28-6.32-5.07-9.45-6.38-10.66-4.38-3.13-5.53-8.08a75,75,0,0,1-1.39-9.81,3.66,3.66,0,0,1,1.69-3.39h0Z"/><path class="cls-15" d="M396.82,477.92c-10.23,6.44-22.82,1-25.28-6.32s-5.07-9.45-6.38-10.66-3.75-2.76-5.11-6.65l.06.61c.39,6.34,4.27,7.83,5.59,9.05s3.46,3.22,5.92,10.55,15.45,11.9,25.68,5.46c5-3.13,5.64-6.52,4.47-9.54C402,472.88,400.7,475.48,396.82,477.92Z"/><path class="cls-3" d="M347.63,380.6,315,399.43l-41.17-23.77,32.69-18.87a2.78,2.78,0,0,1,2.79,0l38.31,22.12A1,1,0,0,1,347.63,380.6Z"/><path class="cls-13" d="M347.63,380.6,315,399.43l-41.17-23.77,32.69-18.87a2.78,2.78,0,0,1,2.79,0l38.31,22.12A1,1,0,0,1,347.63,380.6Z"/><path class="cls-5" d="M345.37,379.91,315,397.43l-38.32-22.12,30.42-17.56a2.59,2.59,0,0,1,2.61,0l35.65,20.58A.92.92,0,0,1,345.37,379.91Z"/><polygon class="cls-5" points="315.01 397.43 315.01 394.01 345.82 376.23 345.82 379.14 315.01 397.43"/><polygon class="cls-9" points="315.01 397.43 315.01 394.01 276.69 371.89 276.69 375.31 315.01 397.43"/><path class="cls-3" d="M347.63,375.18,315,394l-41.17-23.77,32.69-18.87a2.78,2.78,0,0,1,2.79,0l38.31,22.11A1,1,0,0,1,347.63,375.18Z"/><path class="cls-20" d="M347.63,375.18,315,394l-41.17-23.77,32.69-18.87a2.78,2.78,0,0,1,2.79,0l38.31,22.11A1,1,0,0,1,347.63,375.18Z"/><path class="cls-5" d="M310.75,397a.73.73,0,0,1-.61,0,.74.74,0,0,1-.39-.65v-3.1a4.06,4.06,0,0,1,2-3.47l.12-.07a.36.36,0,0,1,.37,0,.36.36,0,0,1,.18.32.64.64,0,0,0,1.28,0,1.62,1.62,0,0,0-.83-1.43,1.6,1.6,0,0,0-1.65,0l-.12.07a5.33,5.33,0,0,0-2.61,4.57v3.1a2,2,0,0,0,2,2,2.07,2.07,0,0,0,1.12-.34.64.64,0,0,0,.25-.36Z"/><path class="cls-5" d="M304.66,393.46a.76.76,0,0,1-.61,0,.71.71,0,0,1-.39-.65v-3.09a4.08,4.08,0,0,1,2-3.48l.11-.07a.38.38,0,0,1,.37,0,.36.36,0,0,1,.19.32.64.64,0,0,0,.64.64.64.64,0,0,0,.64-.64,1.62,1.62,0,0,0-.83-1.43,1.64,1.64,0,0,0-1.66,0l-.11.07a5.34,5.34,0,0,0-2.61,4.58v3.09a2,2,0,0,0,1.06,1.78,2,2,0,0,0,1,.24,2,2,0,0,0,1.12-.34.66.66,0,0,0,.25-.35Z"/><path class="cls-5" d="M298.56,389.94a.69.69,0,0,1-.61,0,.73.73,0,0,1-.39-.65v-3.09a4,4,0,0,1,2-3.47l.12-.07a.37.37,0,0,1,.37,0,.37.37,0,0,1,.18.32.64.64,0,0,0,.64.64.64.64,0,0,0,.64-.64,1.65,1.65,0,0,0-2.48-1.42l-.12.07a5.34,5.34,0,0,0-2.61,4.58v3.09a2,2,0,0,0,1.07,1.78,2,2,0,0,0,.95.24,2,2,0,0,0,1.12-.34.62.62,0,0,0,.25-.35Z"/><path class="cls-5" d="M292.47,386.42a.69.69,0,0,1-.61,0,.71.71,0,0,1-.39-.65v-3.09a4,4,0,0,1,2-3.47l.12-.07a.32.32,0,0,1,.36,0,.34.34,0,0,1,.19.31.64.64,0,1,0,1.28,0,1.64,1.64,0,0,0-2.49-1.41l-.11.06a5.36,5.36,0,0,0-2.61,4.58v3.09a2,2,0,0,0,2,2,2,2,0,0,0,1.12-.34.59.59,0,0,0,.25-.35Z"/><path class="cls-5" d="M286.38,382.9a.73.73,0,0,1-1-.68v-3.1a4,4,0,0,1,2-3.47l.12-.07a.37.37,0,0,1,.55.32.64.64,0,0,0,.64.64.64.64,0,0,0,.64-.64,1.65,1.65,0,0,0-.83-1.44,1.63,1.63,0,0,0-1.65,0l-.12.07a5.33,5.33,0,0,0-2.61,4.57v3.1a2,2,0,0,0,2,2,2.1,2.1,0,0,0,1.13-.34.76.76,0,0,0,.25-.36Z"/><path class="cls-5" d="M280.28,379.38a.73.73,0,0,1-1-.68v-3.09a4.06,4.06,0,0,1,2-3.48l.12-.07a.37.37,0,0,1,.36,0,.36.36,0,0,1,.19.32.64.64,0,0,0,.64.64.64.64,0,0,0,.64-.64,1.65,1.65,0,0,0-2.49-1.42l-.11.07a5.34,5.34,0,0,0-2.61,4.58v3.09a2,2,0,0,0,1.07,1.78,2,2,0,0,0,.95.24,2.07,2.07,0,0,0,1.12-.34.64.64,0,0,0,.25-.36Z"/><polygon class="cls-21" points="351.83 366.67 316.57 387.03 270.68 360.54 305.94 340.18 351.83 366.67"/><polygon class="cls-11" points="353.86 366.01 317.01 383.34 273.5 353.1 310.35 335.76 353.86 366.01"/><path class="cls-3" d="M271.6,311.86H241.68l2.69,31.68h0c.15,1.69,1.34,3.35,3.57,4.64,4.8,2.77,12.59,2.77,17.39,0,2.23-1.29,3.41-2.95,3.57-4.64h0Z"/><path class="cls-9" d="M273.52,310.13v-2.51h-.59a10.3,10.3,0,0,0-4.35-4.36c-6.59-3.8-17.28-3.8-23.87,0a10.3,10.3,0,0,0-4.35,4.36h-.59v2.53c0,2.5,1.65,5,4.94,6.89,6.59,3.81,17.28,3.81,23.87,0C271.88,315.13,273.53,312.63,273.52,310.13Z"/><path class="cls-12" d="M268.58,314.66c-6.59,3.8-17.28,3.8-23.87,0s-6.59-10,0-13.78,17.28-3.8,23.87,0S275.17,310.85,268.58,314.66Z"/><path class="cls-9" d="M270.17,306.73v-2h-.48a8.25,8.25,0,0,0-3.48-3.5c-5.28-3.05-13.85-3.05-19.13,0a8.19,8.19,0,0,0-3.48,3.5h-.48v2c0,2,1.32,4,4,5.52,5.28,3.05,13.85,3.05,19.13,0C268.85,310.73,270.17,308.73,270.17,306.73Z"/><path class="cls-1" d="M266.21,310.35c-5.28,3-13.85,3-19.13,0s-5.28-8,0-11,13.85-3.05,19.13,0S271.49,307.3,266.21,310.35Z"/><path class="cls-22" d="M264,308.74a16.25,16.25,0,0,1-14.72,0c-3.93-2.26-4.07-5.9-.41-8.24l.41-.26a12.62,12.62,0,0,1,2.84-1.16c3.88-1.08,8.67-.7,11.88,1.16C268.07,302.59,268.07,306.4,264,308.74Z"/><path class="cls-9" d="M249.28,301.45a16.33,16.33,0,0,1,14.73,0,5.57,5.57,0,0,1,3,3.65c.3-1.73-.69-3.53-3-4.85a16.27,16.27,0,0,0-14.73,0c-2.3,1.32-3.29,3.12-3,4.85A5.57,5.57,0,0,1,249.28,301.45Z"/><path class="cls-9" d="M254.85,301.86l-3,1.92-2.95-2.12V300.5l.41-.26a12.62,12.62,0,0,1,2.84-1.16V300Z"/><path class="cls-3" d="M610.23,115.8l-169.72-98c-1.95-1.12-3.7-1-4.94,0l-5.88,4.07,4,4.95V163.69c0,5,3.05,10.83,6.81,13l168,97,.31,5.34L615,274.8c1.24-.93,2-2.76,2-5.26V128.81C617,123.8,614,118,610.23,115.8Z"/><path class="cls-23" d="M610.23,115.8l-169.72-98c-1.95-1.12-3.7-1-4.94,0l-5.88,4.07,4,4.95V163.69c0,5,3.05,10.83,6.81,13l168,97,.31,5.34L615,274.8c1.24-.93,2-2.76,2-5.26V128.81C617,123.8,614,118,610.23,115.8Z"/><path class="cls-3" d="M604.45,278.66l-169.72-98c-3.76-2.17-6.81-8-6.81-13V26.94c0-5,3.05-7.32,6.81-5.15l169.72,98c3.76,2.17,6.81,8,6.81,13V273.51C611.26,278.53,608.21,280.83,604.45,278.66Z"/><path class="cls-3" d="M604.45,278.66l-169.72-98c-3.76-2.17-6.81-8-6.81-13V26.94c0-5,3.05-7.32,6.81-5.15l169.72,98c3.76,2.17,6.81,8,6.81,13V273.51C611.26,278.53,608.21,280.83,604.45,278.66Z"/><path class="cls-24" d="M604.45,119.78l-169.72-98c-3.76-2.17-6.81.14-6.81,5.15v6.88L611.26,139.67v-6.88C611.26,127.77,608.21,122,604.45,119.78Z"/><path class="cls-3" d="M432,22.34h0a4.23,4.23,0,0,1,2,.63l169.72,98c3.32,1.92,6.12,7.33,6.12,11.83V273.51c0,2.8-1.07,4.6-2.74,4.6a4.13,4.13,0,0,1-2-.63l-169.72-98c-3.32-1.91-6.13-7.33-6.13-11.82V26.94c0-2.8,1.08-4.6,2.75-4.6M432,21c-2.42,0-4.11,2.24-4.11,6V167.67c0,5,3.05,10.83,6.81,13l169.72,98a5.39,5.39,0,0,0,2.7.82c2.42,0,4.11-2.23,4.11-6V132.79c0-5-3-10.84-6.81-13l-169.72-98A5.52,5.52,0,0,0,432,21Z"/><path class="cls-25" d="M506.6,95.48a1.41,1.41,0,0,1-.72-.19L441.27,58a1.45,1.45,0,1,1,1.45-2.51l64.6,37.3a1.45,1.45,0,0,1-.72,2.7Z"/><path class="cls-25" d="M597.5,148a1.41,1.41,0,0,1-.72-.19l-47.86-27.63a1.45,1.45,0,1,1,1.45-2.5l47.85,27.62a1.45,1.45,0,0,1-.72,2.7Z"/><path class="cls-25" d="M539.27,114.34a1.41,1.41,0,0,1-.72-.19l-19.44-11.23a1.44,1.44,0,0,1,1.44-2.5L540,111.64a1.45,1.45,0,0,1-.72,2.7Z"/><path class="cls-25" d="M506.6,186a1.41,1.41,0,0,1-.72-.19l-64.61-37.3a1.45,1.45,0,1,1,1.45-2.5l64.6,37.3a1.44,1.44,0,0,1,.53,2A1.43,1.43,0,0,1,506.6,186Z"/><path class="cls-25" d="M597.5,238.45a1.42,1.42,0,0,1-.72-.2l-47.86-27.63a1.45,1.45,0,1,1,1.45-2.5l47.85,27.63a1.45,1.45,0,0,1-.72,2.7Z"/><path class="cls-25" d="M539.27,204.83a1.42,1.42,0,0,1-.72-.2l-19.44-11.22a1.44,1.44,0,0,1,1.44-2.5L540,202.13a1.45,1.45,0,0,1-.72,2.7Z"/><path class="cls-25" d="M506.6,207.24a1.41,1.41,0,0,1-.72-.19l-64.61-37.3a1.45,1.45,0,1,1,1.45-2.5l64.6,37.29a1.45,1.45,0,0,1-.72,2.7Z"/><path class="cls-25" d="M577.13,248a1.44,1.44,0,0,1-.72-.19L548.92,231.9a1.45,1.45,0,1,1,1.45-2.5l27.48,15.87a1.44,1.44,0,0,1-.72,2.69Z"/><path class="cls-25" d="M539.27,226.1a1.41,1.41,0,0,1-.72-.19l-19.44-11.22a1.45,1.45,0,0,1,1.44-2.51L540,223.41a1.44,1.44,0,0,1-.72,2.69Z"/><path class="cls-25" d="M474.38,88.12a1.44,1.44,0,0,1-.72-.19l-32.39-18.7a1.45,1.45,0,1,1,1.45-2.5l32.38,18.7a1.44,1.44,0,0,1-.72,2.69Z"/><path class="cls-25" d="M567.69,142a1.47,1.47,0,0,1-.73-.19l-47.85-27.63a1.44,1.44,0,1,1,1.44-2.5l47.86,27.63a1.44,1.44,0,0,1,.53,2A1.46,1.46,0,0,1,567.69,142Z"/><path class="cls-25" d="M507.05,107a1.41,1.41,0,0,1-.72-.19L486.89,95.57a1.45,1.45,0,0,1-.53-2,1.44,1.44,0,0,1,2-.52l19.44,11.22a1.44,1.44,0,0,1-.72,2.69Z"/><path class="cls-25" d="M506.6,118a1.41,1.41,0,0,1-.72-.19l-64.61-37.3a1.45,1.45,0,1,1,1.45-2.5l64.6,37.3a1.44,1.44,0,0,1,.53,2A1.43,1.43,0,0,1,506.6,118Z"/><path class="cls-25" d="M562.39,150.18a1.48,1.48,0,0,1-.72-.2l-12.75-7.36a1.45,1.45,0,1,1,1.45-2.5l12.74,7.36a1.45,1.45,0,0,1-.72,2.7Z"/><path class="cls-25" d="M480.75,114.29a1.38,1.38,0,0,1-.72-.2l-12.75-7.36a1.45,1.45,0,0,1,1.45-2.5l12.75,7.36a1.45,1.45,0,0,1-.73,2.7Z"/><path class="cls-25" d="M539.27,136.83a1.42,1.42,0,0,1-.72-.2l-19.44-11.22a1.44,1.44,0,0,1,1.44-2.5L540,134.13a1.45,1.45,0,0,1-.72,2.7Z"/><path class="cls-25" d="M462.7,103.86a1.44,1.44,0,0,1-.72-.19l-20.71-12a1.45,1.45,0,1,1,1.45-2.51l20.7,12a1.44,1.44,0,0,1-.72,2.69Z"/><path class="cls-25" d="M507.05,129.47a1.41,1.41,0,0,1-.72-.19l-19.44-11.23a1.44,1.44,0,1,1,1.44-2.5l19.44,11.22a1.45,1.45,0,0,1-.72,2.7Z"/><path class="cls-25" d="M506.6,141.27a1.41,1.41,0,0,1-.72-.19l-64.61-37.3a1.45,1.45,0,1,1,1.45-2.5l64.6,37.3a1.44,1.44,0,0,1-.72,2.69Z"/><path class="cls-25" d="M597.5,193.75a1.41,1.41,0,0,1-.72-.19l-47.86-27.63a1.45,1.45,0,1,1,1.45-2.5l47.85,27.63a1.44,1.44,0,0,1-.72,2.69Z"/><path class="cls-25" d="M539.27,160.13a1.41,1.41,0,0,1-.72-.19l-19.44-11.22a1.44,1.44,0,0,1,1.44-2.5L540,157.44a1.44,1.44,0,0,1-.72,2.69Z"/><path class="cls-25" d="M474.38,133.91a1.44,1.44,0,0,1-.72-.19L441.27,115a1.45,1.45,0,1,1,1.45-2.5l32.38,18.7a1.44,1.44,0,0,1,.53,2A1.43,1.43,0,0,1,474.38,133.91Z"/><path class="cls-25" d="M567.69,187.78a1.47,1.47,0,0,1-.73-.19L519.11,160a1.44,1.44,0,0,1,1.44-2.5l47.86,27.63a1.44,1.44,0,0,1-.72,2.69Z"/><path class="cls-25" d="M507.05,152.78a1.42,1.42,0,0,1-.72-.2l-19.44-11.22a1.44,1.44,0,1,1,1.44-2.5l19.44,11.22a1.45,1.45,0,0,1-.72,2.7Z"/><path class="cls-25" d="M506.6,163.76a1.41,1.41,0,0,1-.72-.19l-64.61-37.3a1.45,1.45,0,1,1,1.45-2.51l64.6,37.3a1.45,1.45,0,0,1-.72,2.7Z"/><path class="cls-25" d="M562.39,196a1.46,1.46,0,0,1-.72-.19l-12.75-7.36a1.45,1.45,0,1,1,1.45-2.5l12.74,7.36a1.44,1.44,0,0,1-.72,2.69Z"/><path class="cls-25" d="M480.75,160.08a1.46,1.46,0,0,1-.72-.19l-12.75-7.36a1.45,1.45,0,0,1,1.45-2.5l12.75,7.36a1.44,1.44,0,0,1-.73,2.69Z"/><path class="cls-25" d="M539.27,182.62a1.41,1.41,0,0,1-.72-.19l-19.44-11.22a1.45,1.45,0,0,1,1.44-2.51L540,179.93a1.44,1.44,0,0,1-.72,2.69Z"/><path class="cls-25" d="M462.7,149.66a1.35,1.35,0,0,1-.72-.2l-20.71-12a1.45,1.45,0,1,1,1.45-2.5l20.7,12a1.45,1.45,0,0,1-.72,2.7Z"/><path class="cls-25" d="M507.05,175.26a1.41,1.41,0,0,1-.72-.19l-19.44-11.22a1.44,1.44,0,1,1,1.44-2.5l19.44,11.22a1.44,1.44,0,0,1-.72,2.69Z"/><path class="cls-25" d="M480.75,181.63a1.46,1.46,0,0,1-.72-.19l-12.75-7.36a1.45,1.45,0,0,1,1.45-2.5l12.75,7.36a1.44,1.44,0,0,1-.73,2.69Z"/><path class="cls-25" d="M462.7,171.21A1.44,1.44,0,0,1,462,171l-20.71-12a1.45,1.45,0,1,1,1.45-2.5l20.7,12a1.44,1.44,0,0,1-.72,2.69Z"/><path class="cls-25" d="M507.05,196.82a1.42,1.42,0,0,1-.72-.2L486.89,185.4a1.44,1.44,0,1,1,1.44-2.5l19.44,11.22a1.45,1.45,0,0,1-.72,2.7Z"/><path class="cls-8" d="M454.78,72v52.28c0,.83-.3,1.4-.78,1.58h0l-2,1.1V125.2l-.29-53.75,2.62-1.33A4.59,4.59,0,0,1,454.78,72Z"/><path class="cls-6" d="M454.33,70.12l-2.62,1.33L388.33,34.29l-1.51-.88,2.08-1.18.06,0h0a1.19,1.19,0,0,1,1.25.09L452.9,68.41A3.84,3.84,0,0,1,454.33,70.12Z"/><path class="cls-8" d="M452.51,73.15v51.93a1.69,1.69,0,0,1-.6,1.48l-.12.07a1.22,1.22,0,0,1-1.15-.13L388.33,90.59A4.47,4.47,0,0,1,386.45,87V35.08a1.78,1.78,0,0,1,.56-1.46.69.69,0,0,1,.19-.1,1.22,1.22,0,0,1,1.13.15l62.31,35.9A3.78,3.78,0,0,1,452,71.19,4.47,4.47,0,0,1,452.51,73.15Z"/><text class="cls-26" transform="matrix(-0.87, -0.5, 0, 1, 441.28, 106.8)">&lt;/&gt;</text><path class="cls-6" d="M387.33,33.57a1.18,1.18,0,0,1,.58.18l62.68,36.12a3.45,3.45,0,0,1,1.26,1.49,4.24,4.24,0,0,1,.45,1.81v52.25a1.44,1.44,0,0,1-.42,1.19l-.1,0a.6.6,0,0,1-.27.06,1.17,1.17,0,0,1-.57-.18L388.26,90.42a4.2,4.2,0,0,1-1.72-3.3V34.88a1.46,1.46,0,0,1,.43-1.19.35.35,0,0,1,.12-.07.6.6,0,0,1,.24,0m0-.34a1,1,0,0,0-.38.07,1.18,1.18,0,0,0-.19.11,1.76,1.76,0,0,0-.57,1.47V87.12a4.51,4.51,0,0,0,1.89,3.6l62.69,36.12a1.41,1.41,0,0,0,.74.23,1,1,0,0,0,.42-.09l.12-.07a1.71,1.71,0,0,0,.6-1.49V73.17a4.52,4.52,0,0,0-.49-2,3.83,3.83,0,0,0-1.39-1.63L388.08,33.45a1.52,1.52,0,0,0-.75-.22Z"/><path class="cls-5" d="M444.7,34.92c0,1.49-1.05,2.09-2.33,1.35a5.16,5.16,0,0,1-2.34-4c0-1.49,1.05-2.09,2.34-1.35A5.17,5.17,0,0,1,444.7,34.92Z"/><path class="cls-5" d="M453.37,40.27c0,1.49-1.05,2.09-2.33,1.35a5.15,5.15,0,0,1-2.34-4c0-1.49,1.05-2.09,2.34-1.35A5.2,5.2,0,0,1,453.37,40.27Z"/><path class="cls-5" d="M462,45.63c0,1.48-1.05,2.09-2.33,1.34a5.15,5.15,0,0,1-2.34-4c0-1.48,1.05-2.09,2.34-1.34A5.17,5.17,0,0,1,462,45.63Z"/></g></svg>