<svg xmlns="http://www.w3.org/2000/svg" viewBox="0 0 700 640"><defs><style>.cls-1{fill:#eefffd;}.cls-2{fill:#d15b66;}.cls-3{fill:#fff;}.cls-4{fill:#054641;}.cls-5{fill:#4c7c77;}.cls-6{opacity:0.5;}.cls-7{fill:#d87355;}.cls-8{fill:#aaa;}.cls-9{fill:#ddd;}.cls-10{fill:#02dfdf;}.cls-11{fill:#bc8271;}.cls-12{fill:#263238;}.cls-13{fill:#363e44;}.cls-14{opacity:0.1;}.cls-15{fill:#ededed;}</style></defs><title>Illustration</title><g id="Layer_18" data-name="Layer 18"><g id="Consulting"><circle class="cls-1" cx="350" cy="320" r="306.5"/><path class="cls-2" d="M433.81,72,422.62,46.38,410.46,51.7A52.4,52.4,0,0,0,401,42.58l4.83-12.35-26-10.17L375,32.42a52.23,52.23,0,0,0-13.15.26l-5.32-12.16L331,31.71l5.32,12.16a52.39,52.39,0,0,0-9.12,9.48L314.8,48.52l-10.17,26L317,79.35a52.24,52.24,0,0,0,.26,13.15l-12.16,5.32,11.19,25.57,12.16-5.32a52.67,52.67,0,0,0,9.48,9.11l-4.83,12.36,26,10.16,4.84-12.36a52.23,52.23,0,0,0,13.15-.25l5.32,12.15L408,138.05l-5.31-12.16a52.35,52.35,0,0,0,9.11-9.48l12.36,4.83,10.16-26-12.36-4.83a52.23,52.23,0,0,0-.25-13.15ZM381.1,111.49a29,29,0,1,1,15-38.26A29,29,0,0,1,381.1,111.49Z"/><path class="cls-2" d="M370.9,594a.86.86,0,0,1-.27-.05L356,588.22a.74.74,0,0,1-.42-1l2.51-6.42a30.72,30.72,0,0,1-4.65-4.47l-6.31,2.76a.75.75,0,0,1-.57,0,.8.8,0,0,1-.41-.4l-6.28-14.36a.72.72,0,0,1,.38-1l6.31-2.76a30.24,30.24,0,0,1-.12-6.45l-6.42-2.51a.76.76,0,0,1-.41-.4.68.68,0,0,1,0-.56l5.71-14.6a.75.75,0,0,1,.39-.41.73.73,0,0,1,.56,0l6.42,2.51a30.72,30.72,0,0,1,4.47-4.65l-2.76-6.31a.75.75,0,0,1,.38-1L369.16,520a.75.75,0,0,1,.57,0,.7.7,0,0,1,.4.39l2.77,6.31a30.24,30.24,0,0,1,6.45-.12l2.51-6.42a.72.72,0,0,1,.39-.41.75.75,0,0,1,.57,0l14.59,5.71a.73.73,0,0,1,.42.95l-2.51,6.42a29.81,29.81,0,0,1,4.65,4.47l6.32-2.76a.73.73,0,0,1,.56,0,.72.72,0,0,1,.41.39l6.29,14.36a.75.75,0,0,1,0,.57.7.7,0,0,1-.39.4L406.85,553a30.24,30.24,0,0,1,.13,6.45L413.4,562a.74.74,0,0,1,.42,1l-5.71,14.59a.72.72,0,0,1-.39.41.75.75,0,0,1-.57,0l-6.42-2.51a29.81,29.81,0,0,1-4.47,4.65L399,586.4a.77.77,0,0,1,0,.56.75.75,0,0,1-.39.41l-14.37,6.29a.74.74,0,0,1-1-.38L380.55,587a30.25,30.25,0,0,1-6.45.13l-2.51,6.42A.76.76,0,0,1,370.9,594Zm-13.64-6.87,13.22,5.17,2.45-6.25a.76.76,0,0,1,.76-.47,28.44,28.44,0,0,0,7.2-.14.75.75,0,0,1,.79.44l2.69,6.15,13-5.7-2.7-6.15a.75.75,0,0,1,.22-.87,28.86,28.86,0,0,0,5-5.19.73.73,0,0,1,.86-.25L407,576.3l5.17-13.23-6.25-2.44a.73.73,0,0,1-.46-.77,28.93,28.93,0,0,0-.15-7.2.73.73,0,0,1,.44-.78l6.15-2.69-5.7-13-6.15,2.69a.74.74,0,0,1-.87-.21,28.19,28.19,0,0,0-5.19-5,.74.74,0,0,1-.25-.86l2.45-6.26L383,521.38l-2.45,6.25a.74.74,0,0,1-.77.47,28.93,28.93,0,0,0-7.2.14.74.74,0,0,1-.78-.43l-2.69-6.15-13,5.69,2.69,6.15a.74.74,0,0,1-.21.87,28.85,28.85,0,0,0-5,5.19.74.74,0,0,1-.86.25l-6.26-2.44-5.17,13.22,6.25,2.45a.73.73,0,0,1,.47.76,28.91,28.91,0,0,0,.14,7.2.75.75,0,0,1-.43.79l-6.15,2.69,5.69,13,6.15-2.7a.74.74,0,0,1,.87.22,28.86,28.86,0,0,0,5.19,5,.73.73,0,0,1,.25.86Zm19.47-13.21a17.21,17.21,0,0,1-6.22-1.18,16.95,16.95,0,1,1,6.22,1.18Zm0-32.65A15.58,15.58,0,1,0,383,571.1a15.58,15.58,0,0,0-6.27-29.85Z"/><path class="cls-3" d="M304.73,478.83l-11.19-25.57-12.15,5.32a52.12,52.12,0,0,0-9.49-9.12l4.84-12.35-26-10.17-4.83,12.36a52.23,52.23,0,0,0-13.15.26l-5.32-12.16-25.57,11.19,5.32,12.16a52.35,52.35,0,0,0-9.11,9.48l-12.36-4.83-10.17,26,12.36,4.84a52.24,52.24,0,0,0,.26,13.15L176,504.69l11.19,25.57,12.15-5.32a52.12,52.12,0,0,0,9.49,9.12L204,546.41l26,10.17,4.83-12.36A51.78,51.78,0,0,0,248,544l5.32,12.16,25.57-11.19-5.32-12.16a52.35,52.35,0,0,0,9.11-9.48L295,528.12l10.17-26-12.36-4.83a52.7,52.7,0,0,0-.26-13.15ZM252,518.37a29,29,0,1,1,15-38.26A29,29,0,0,1,252,518.37Z"/><rect class="cls-4" x="178.59" y="54.74" width="472.06" height="334.74" transform="translate(829.23 444.22) rotate(180)"/><rect class="cls-3" x="276.4" y="-13.46" width="276.43" height="442.44" transform="translate(622.38 -206.85) rotate(90)"/><path class="cls-4" d="M364.92,396.57h14a19,19,0,0,0,19,19h33.47a19,19,0,0,0,19-19h14l14,74.27v6.21H351v-6.21Z"/><path class="cls-4" d="M478.28,485.55H351a.74.74,0,1,1,0-1.47H478.28a.74.74,0,1,1,0,1.47Z"/><rect class="cls-5" x="216.67" y="251.91" width="29.41" height="71.52"/><rect class="cls-5" x="255.69" y="236.04" width="29.41" height="87.39"/><rect class="cls-5" x="294.7" y="216.26" width="29.41" height="107.17"/><g class="cls-6"><path class="cls-3" d="M307.29,219.67,300,187.26,271,203.61l7.41,3.28a61.42,61.42,0,0,1-15.63,23.69c-17.41,16.27-38.58,16.62-43.55,16.57,3.57,1.44,28.5,11,53.79-2.53a63.34,63.34,0,0,0,26.82-28.24Z"/></g><polygon class="cls-3" points="579.67 225.36 573.49 214.94 567.31 225.36 570.18 225.36 570.18 297.79 576.8 297.79 576.8 225.36 579.67 225.36"/><polygon class="cls-7" points="606 206.64 597.93 193.04 589.85 206.64 593.61 206.64 593.61 301.25 602.25 301.25 602.25 206.64 606 206.64"/><path class="cls-8" d="M565.72,313.52H552.49a.74.74,0,0,1-.74-.74V255.54h-5a.74.74,0,0,1-.63-1.12l12.36-20.82a.77.77,0,0,1,1.27,0l12.37,20.82a.77.77,0,0,1,0,.75.73.73,0,0,1-.64.37h-5v57.24A.74.74,0,0,1,565.72,313.52ZM553.23,312H565V254.8a.74.74,0,0,1,.73-.74h4.45l-11.06-18.64L548,254.06h4.45a.74.74,0,0,1,.74.74Z"/><path class="cls-8" d="M589.89,301.08h-9.8a.74.74,0,0,1-.74-.74V245.69h-3.51a.73.73,0,0,1-.64-.37.77.77,0,0,1,0-.75l9.16-15.41a.77.77,0,0,1,1.27,0l9.15,15.41a.74.74,0,0,1-.64,1.12h-3.51v54.65A.74.74,0,0,1,589.89,301.08Zm-9.06-1.48h8.32V245a.74.74,0,0,1,.74-.74h3L585,231l-7.85,13.23h3a.74.74,0,0,1,.74.74Z"/><path class="cls-7" d="M365.87,154.1H337.94a.74.74,0,1,1,0-1.47h27.39l19.08-16.22h85.81l20-20H579l32.69-32.69a.74.74,0,0,1,1.05,1l-33.13,33.13H490.86l-20,20H385Z"/><path class="cls-8" d="M416.13,202.83H337.66a.74.74,0,0,1,0-1.48h77.86L461,155.83H479l15.4-15.4h68.89l22.64,22.65h31.31a.74.74,0,0,1,0,1.47H585.29l-22.64-22.64H495l-15.4,15.4H461.65Z"/><circle class="cls-8" cx="586.28" cy="163.72" r="3.78"/><circle class="cls-8" cx="562.66" cy="140.79" r="3.78"/><circle class="cls-8" cx="494.4" cy="140.79" r="3.78"/><circle class="cls-8" cx="480.15" cy="156.36" r="3.78"/><circle class="cls-8" cx="461.86" cy="156.62" r="3.78"/><circle class="cls-8" cx="416.14" cy="201.51" r="3.78"/><polygon class="cls-9" points="418.6 141.6 417.56 140.56 457.32 100.79 575.55 100.79 593.2 83.14 594.24 84.19 576.16 102.27 457.93 102.27 418.6 141.6"/><polygon class="cls-9" points="383.9 176.3 337.19 176.3 337.19 174.82 383.29 174.82 417.56 140.56 418.6 141.6 383.9 176.3"/><circle class="cls-9" cx="382.78" cy="175.34" r="3.78"/><circle class="cls-9" cx="576.07" cy="101.77" r="3.78"/><rect class="cls-9" x="363.93" y="253.63" width="76.83" height="65.79"/><rect class="cls-3" x="354.75" y="244.45" width="76.83" height="65.79"/><path class="cls-8" d="M518.18,254.22H449.42a.74.74,0,0,1,0-1.48h68.76a.74.74,0,0,1,0,1.48Z"/><path class="cls-8" d="M503.57,268.31H449.42a.74.74,0,0,1,0-1.48h54.15a.74.74,0,0,1,0,1.48Z"/><path class="cls-8" d="M512.7,281.07H449.42a.74.74,0,1,1,0-1.47H512.7a.74.74,0,1,1,0,1.47Z"/><path class="cls-8" d="M493,294.5H449.42a.74.74,0,0,1,0-1.48H493a.74.74,0,1,1,0,1.48Z"/><path class="cls-10" d="M384.12,264.31a14.89,14.89,0,0,1,3.72-1.27l-.48-6.84a21.39,21.39,0,0,0-16.66,13.41l6.58,1.94A14.48,14.48,0,0,1,384.12,264.31Z"/><path class="cls-10" d="M376.9,282.21a14.44,14.44,0,0,1-.63-7.23l-6.58-1.93a21.3,21.3,0,0,0,1.08,12.23Z"/><path class="cls-8" d="M410.51,269.41l-6.13,3.07a14.57,14.57,0,0,1-25.87,12.94l-6.14,3.07a21.4,21.4,0,0,0,38.14-19.08Z"/><path class="cls-10" d="M391.42,262.8a14.61,14.61,0,0,1,11.35,6.47l6.14-3.06a21.43,21.43,0,0,0-18-10.25Z"/><path class="cls-2" d="M523.33,182.36a15.72,15.72,0,0,1,3.32,2.77l6.16-4.36a23.49,23.49,0,0,0-22.14-8l1.94,7.29A16,16,0,0,1,523.33,182.36Z"/><path class="cls-10" d="M502.36,185.81a16,16,0,0,1,6.44-4.74l-1.94-7.29a23.42,23.42,0,0,0-10.89,8Z"/><path class="cls-8" d="M533.63,210.1l-6.39-4a16,16,0,0,1-27-16.93l-6.4-4a23.56,23.56,0,0,0,39.76,25Z"/><path class="cls-10" d="M528.93,188.35a16.08,16.08,0,0,1,.41,14.39l6.39,4a23.6,23.6,0,0,0-.64-22.77Z"/><polygon class="cls-11" points="209.55 572.59 162.62 563.29 183.01 503.55 228.61 520.12 209.55 572.59"/><path class="cls-10" d="M264.05,622.36,144.59,589.6,168.12,547l46.8,12.84,31,19.6c15.36,9,22.77,26.63,18.13,43Z"/><polygon class="cls-11" points="113.62 581.1 65.22 584.02 69.67 521.07 118.66 525.51 113.62 581.1"/><path class="cls-10" d="M178.83,614.11H55l11.41-47.36h48.52L150,577.46c17.19,4.66,29,19.66,28.84,36.65Z"/><path class="cls-12" d="M96.44,234.5c-5.11,13.43-8.81,28.7-13.69,44.9-25.86,85.82-22.2,267.45-22.2,267.45l63.94-1.6s23.84-105.44,34.43-183.4c8.66,20.69,25,54.52,25,54.52s-10.58,78.44-15.88,103c21.18,8.18,42.11,12.51,68.1,19.73,31.12-104.27,37.77-118.82,24.78-158.33-16.73-50.9-59-143.18-73.17-163Z"/><path class="cls-11" d="M237.76,123.54c20-6.64,65.14-21.73,69.72-23.31,8.57-2.94,50.33-16.8,52.42-10.76,1.34,3.86-19.4,11.18-22.91,12.74,4.56-.76,27.2-8.28,28.76-4.89,1.7,3.67-26.28,15.79-26.47,15.94,3.16-.92,26.22-8.19,27.16-4.79,1.1,3.94-22.18,13.6-26.06,15,.46.36,17-5.91,18.57-2.22,1.41,3.3-17.14,11.22-19.54,12.68-6.37,3.65-18.81,8.66-32.64,15.05-32.49,15-48.29,20.58-65.28,25.07-12.24,3.24-26.26-7.75-35.84-19.5C213.61,141.91,221.51,136.28,237.76,123.54Z"/><path class="cls-13" d="M319.51,115.47a.74.74,0,0,1-.2-1.45c15.82-4.46,19.81-7.34,19.67-8.34,0-.25-.82-2.43-18.07-2.84a.74.74,0,0,1-.72-.75.72.72,0,0,1,.76-.72c19,.45,19.36,3.11,19.5,4.11s.53,4-20.74,10A.64.64,0,0,1,319.51,115.47Z"/><polygon class="cls-10" points="169.94 137.47 291.24 102.69 318.24 150.95 203.6 199.21 169.94 137.47"/><path class="cls-10" d="M84.79,173.51c5.19-18.48,23-47.39,60.61-50.88,31.92-3,55.26,24,63.2,54.29,5.49,20.93,2.65,51.74,5.54,74.83-28.59,4.34-138.59,19.49-138.59,19.49S76.14,204.31,84.79,173.51Z"/><path class="cls-13" d="M207.16,241.18a.74.74,0,0,1-.73-.61c-6.4-38.69-25.5-83.84-25.69-84.29a.73.73,0,0,1,.39-1,.75.75,0,0,1,1,.39c.19.45,19.35,45.77,25.79,84.63a.73.73,0,0,1-.61.84Z"/><path class="cls-10" d="M161.65,202.22c20.79,78.5,1.48,72.71-12.11,75.84-10.95,2.52-28.56-30.52-37.47-63.88Z"/><path class="cls-11" d="M156.16,232.86c20.62-4.22,67.27-13.82,72-14.84,8.86-1.91,51.64-10.61,53.32-4.44,1.83,6.65-20.59,8.78-24.26,9.91,4.62-.21,28.13-6.38,29.14-1.42,1.28,6.26-28,12.54-28.19,12.67,3.25-.54,26.34-6.45,27.55-1.52,1.56,6.38-23.65,10.86-27.66,11.75.41.41,17.19-5.25,18.7,0,1.6,5.57-18.35,9.09-20.91,10.26-6.76,2.87-19.71,6.35-34.2,11.05-34,11-49.61,18.4-67.11,16.89-7.84-.67-16.72-9.84-24.25-23.24C139.7,248.38,146.76,244.42,156.16,232.86Z"/><path class="cls-10" d="M207.35,275.24s-62.87,17.14-82,4.72c-11-7.14-18.12-37-18.12-37L196.47,224Z"/><path class="cls-13" d="M115.25,266.57a.74.74,0,0,1-.69-.47l-21.66-55a.74.74,0,1,1,1.38-.54l21.65,55a.74.74,0,0,1-.41,1A.86.86,0,0,1,115.25,266.57Z"/><path class="cls-13" d="M139.31,233.24a.73.73,0,0,1-.73-.63.74.74,0,0,1,.62-.84l57.16-8.48a.74.74,0,0,1,.22,1.46l-57.16,8.49Z"/><path class="cls-13" d="M160,229.39a.75.75,0,0,1-.72-.55l-11.22-44.28a.73.73,0,0,1,.53-.89.75.75,0,0,1,.9.53l11.23,44.27a.74.74,0,0,1-.54.9A.55.55,0,0,1,160,229.39Z"/><path class="cls-13" d="M251.11,224.58a.74.74,0,0,1-.11-1.47l23.26-3.69a.74.74,0,0,1,.84.62.73.73,0,0,1-.61.84l-23.26,3.69Z"/><path class="cls-13" d="M253.36,235.49a.74.74,0,0,1-.13-1.47l20.53-3.59a.74.74,0,0,1,.26,1.46l-20.53,3.59Z"/><path class="cls-13" d="M255.12,246.24a.74.74,0,0,1-.13-1.47l15.23-2.88a.73.73,0,0,1,.87.58.75.75,0,0,1-.59.87l-15.24,2.88Z"/><path class="cls-11" d="M231.71,224.88c10.26-8.63,12.13-13.92,10.71-15.5-2.39-2.66-14.71,1.45-31.29,12.18C216.62,223.08,226.22,223.36,231.71,224.88Z"/><path class="cls-13" d="M228.17,218.76a.74.74,0,0,1-.16-1.47c1.79-.38,6.61-1.39,12.79-2.54a.74.74,0,0,1,.27,1.46c-6.16,1.13-11,2.15-12.75,2.53Z"/><polygon class="cls-13" points="165.1 152.06 167.27 136.98 152.6 141.13 162.35 152.84 173.29 217.17 184.38 225.41 189.51 212.58 165.1 152.06"/><path class="cls-11" d="M166.5,111.24c-6.11,4.34-23.5-6.1-23.5-6.1L132.33,83.08c0-10.54,9.59-19.89,20.13-19.89h0a19.09,19.09,0,0,1,19.09,19.09S172.72,106.82,166.5,111.24Z"/><polygon class="cls-11" points="132.24 125.58 159.42 138.13 159.42 82.79 132.24 82.79 132.24 125.58"/><path class="cls-3" d="M150.24,85.15A18.17,18.17,0,0,1,158,83.27c.9,0-.8,7.19-1.65,6.78A18.13,18.13,0,0,1,150.24,85.15Z"/><path class="cls-13" d="M160.73,83.56c5.34,1.18,8.84,5.86,8.84,5.86s-5.15,2.77-10.49,1.6a12.77,12.77,0,0,1-2.77-1A7.12,7.12,0,0,1,158,83.28,13.26,13.26,0,0,1,160.73,83.56Z"/><path class="cls-13" d="M166.28,67.84c.65-2.92-5.9-8.32-13.23-9.14-9-1-19.56,1.87-25.29,12-5.5,9.72-5.3,22.58,4.49,32.69,2.42-1.91,4.57-3.54,7.54-5.9-5-5-5.29-10.39-3.21-12.71,1.78-2,5.21-2.17,8.83.84a22.13,22.13,0,0,1,8.18-10.91C159.71,70.25,165.77,70.1,166.28,67.84Z"/><path class="cls-13" d="M159.12,113.18l-.18,0a45.57,45.57,0,0,1-16-7.36.74.74,0,1,1,.92-1.16,44.72,44.72,0,0,0,15.44,7.08.74.74,0,0,1-.18,1.46Z"/><path class="cls-13" d="M164.39,101.9a3.33,3.33,0,0,1-2.39-1,3.57,3.57,0,0,1-.8-3.28.74.74,0,0,1,.91-.51.73.73,0,0,1,.52.9,2.09,2.09,0,0,0,.42,1.86,2,2,0,0,0,2.32.29.74.74,0,0,1,.69,1.31A3.58,3.58,0,0,1,164.39,101.9Z"/><path class="cls-11" d="M171.45,87.88a7.85,7.85,0,0,0,.66,3.52c.69,1.56,2.19,2.53,2.16,3.51,0,.66-.75,1.65-3.48,2.28Z"/><path class="cls-13" d="M141.36,95.38a.74.74,0,0,1-.58-.27c-2.62-3.22-3.48-6.7-2-8.09s4.28,0,5.13.36a.74.74,0,0,1-.65,1.33c-1.33-.65-3-1-3.47-.61s-.36,3,2.13,6.08a.74.74,0,0,1-.11,1A.74.74,0,0,1,141.36,95.38Z"/><ellipse class="cls-2" cx="596.66" cy="494.41" rx="70.47" ry="41.71" transform="translate(-11.43 974.7) rotate(-77.95)"/><g class="cls-14"><path class="cls-1" d="M611.38,425.5l-.22,0-29.42,137.8.21.06c13,2.77,30.07-25.84,38.2-63.9S624.35,428.27,611.38,425.5Z"/></g><path class="cls-13" d="M570.79,547.24a.74.74,0,0,1-.72-.58c-3.17-14.53-2.3-35.46,2.39-57.41,5.09-23.87,13.89-44.89,23.52-56.25a.74.74,0,0,1,1.13,1c-9.49,11.18-18.16,32-23.21,55.59-4.64,21.76-5.51,42.47-2.38,56.8a.75.75,0,0,1-.57.88Z"/><path class="cls-13" d="M598.59,553.82a.74.74,0,0,1-.58-1.19c8.75-11.57,16.75-31.52,21.42-53.36,5.19-24.35,5.6-48,1.05-61.73a.74.74,0,1,1,1.4-.47c4.63,14,4.24,37.92-1,62.51-4.7,22-12.81,42.21-21.69,53.94A.71.71,0,0,1,598.59,553.82Z"/><path class="cls-13" d="M572.52,463.31a.75.75,0,0,1-.59-.29l-8-10.54a.74.74,0,1,1,1.17-.9l8.05,10.54a.75.75,0,0,1-.14,1A.78.78,0,0,1,572.52,463.31Z"/><path class="cls-13" d="M566,489.36a.74.74,0,0,1-.51-.2l-13.84-13.25a.72.72,0,0,1,0-1,.73.73,0,0,1,1,0l13.84,13.25a.74.74,0,0,1,0,1A.7.7,0,0,1,566,489.36Z"/><path class="cls-13" d="M561,507.91a.71.71,0,0,1-.48-.17l-9.95-8.5a.74.74,0,0,1-.09-1,.73.73,0,0,1,1-.08l10,8.49a.75.75,0,0,1,.08,1.05A.75.75,0,0,1,561,507.91Z"/><path class="cls-13" d="M560.68,527.94a.76.76,0,0,1-.41-.13L548.71,520a.74.74,0,1,1,.83-1.22l11.56,7.86a.74.74,0,0,1-.42,1.35Z"/><path class="cls-13" d="M631.89,454.91a.74.74,0,0,1-.38-1.37l9-5.43a.75.75,0,0,1,1,.25.73.73,0,0,1-.25,1l-9,5.43A.79.79,0,0,1,631.89,454.91Z"/><path class="cls-13" d="M627.14,502.42a.74.74,0,0,1-.25-1.43l18.05-6.45a.75.75,0,0,1,.94.45.74.74,0,0,1-.45.95l-18,6.44A.73.73,0,0,1,627.14,502.42Z"/><path class="cls-13" d="M619.06,535.53a.74.74,0,0,1-.13-1.46l13.76-2.46a.74.74,0,0,1,.26,1.46l-13.76,2.45Z"/><path class="cls-13" d="M608.4,471a.71.71,0,0,1-.51-.21.73.73,0,0,1,0-1l6.91-7.35a.74.74,0,0,1,1,0,.73.73,0,0,1,0,1l-6.91,7.35A.71.71,0,0,1,608.4,471Z"/><path class="cls-13" d="M599.76,516.18a.72.72,0,0,1-.61-.33.73.73,0,0,1,.2-1l7.13-4.85a.74.74,0,0,1,1,.2.73.73,0,0,1-.2,1l-7.13,4.85A.74.74,0,0,1,599.76,516.18Z"/><path class="cls-13" d="M601.31,448.38a.75.75,0,0,1-.71-.53L598.21,440a.74.74,0,0,1,1.42-.43l2.39,7.86a.75.75,0,0,1-.5.92A.78.78,0,0,1,601.31,448.38Z"/><path class="cls-13" d="M588.73,494.22a.76.76,0,0,1-.66-.4l-6.16-11.61a.73.73,0,0,1,.3-1,.74.74,0,0,1,1,.31l6.17,11.61a.74.74,0,0,1-.31,1A.72.72,0,0,1,588.73,494.22Z"/><path class="cls-13" d="M582.08,532.5a.74.74,0,0,1-.57-.27l-5.46-6.55a.74.74,0,0,1,1.13-.95l5.47,6.56a.74.74,0,0,1-.1,1A.75.75,0,0,1,582.08,532.5Z"/><ellipse class="cls-2" cx="549.06" cy="516.43" rx="32.9" ry="55.59" transform="translate(-157.89 254.93) rotate(-22.95)"/><g class="cls-14"><path class="cls-1" d="M527.39,465.24l-.15.08,43.33,102.36.17-.06c9.63-4.08,7.74-30.3-4.23-58.57S537,461.16,527.39,465.24Z"/></g><path class="cls-13" d="M555.92,562.54a.74.74,0,0,1-.5-.2c-8.65-8-17.57-21.9-24.48-38.24-7.51-17.74-11.35-35.34-10.26-47.06a.75.75,0,0,1,.81-.67.76.76,0,0,1,.67.81c-1.08,11.49,2.72,28.82,10.14,46.35,6.83,16.14,15.63,29.89,24.12,37.73a.74.74,0,0,1-.5,1.28Z"/><path class="cls-13" d="M576.86,554.21h0a.74.74,0,0,1-.71-.77c.42-11.41-3.43-27.9-10.29-44.11-7.65-18.06-18.07-33.5-27.21-40.3a.74.74,0,0,1,.89-1.19c9.33,7,19.94,22.63,27.68,40.92,6.94,16.39,10.83,33.11,10.4,44.74A.73.73,0,0,1,576.86,554.21Z"/><path class="cls-13" d="M515.85,491.22a.8.8,0,0,1-.26-.05l-7.78-2.86a.75.75,0,0,1-.44-.95.74.74,0,0,1,.95-.44l7.78,2.86a.75.75,0,0,1,.44,1A.74.74,0,0,1,515.85,491.22Z"/><path class="cls-13" d="M526.61,527.31h-.11L511.56,525a.73.73,0,1,1,.23-1.45l14.94,2.3a.72.72,0,0,1,.61.84A.73.73,0,0,1,526.61,527.31Z"/><path class="cls-13" d="M529.62,554.79a.74.74,0,0,1,0-1.48l11-.15h0a.73.73,0,0,1,.73.73.74.74,0,0,1-.72.75l-11,.15Z"/><path class="cls-13" d="M563.1,488.87a.64.64,0,0,1-.33-.08.72.72,0,0,1-.33-1l4.65-9.36a.74.74,0,0,1,1.33.66l-4.66,9.36A.74.74,0,0,1,563.1,488.87Z"/><path class="cls-13" d="M578.64,521.71a.73.73,0,0,1-.57-1.2l6.44-8.06a.74.74,0,1,1,1.15.92l-6.44,8.06A.71.71,0,0,1,578.64,521.71Z"/><path class="cls-13" d="M537.74,482h-.08a.73.73,0,0,1-.66-.81l.68-6.45a.74.74,0,0,1,1.47.16l-.68,6.44A.74.74,0,0,1,537.74,482Z"/><path class="cls-13" d="M554.32,515.58l-.22,0a.75.75,0,0,1-.49-.93l3-9.91a.74.74,0,0,1,.92-.49.75.75,0,0,1,.49.93l-3,9.91A.74.74,0,0,1,554.32,515.58Z"/><path class="cls-13" d="M565.18,544.25a.8.8,0,0,1-.36-.09.76.76,0,0,1-.29-1l3.26-5.89a.74.74,0,1,1,1.29.71l-3.25,5.9A.76.76,0,0,1,565.18,544.25Z"/><path class="cls-13" d="M535.62,500.5a.72.72,0,0,1-.44-.14l-6.44-4.66a.73.73,0,0,1-.17-1,.74.74,0,0,1,1-.17l6.45,4.67a.73.73,0,0,1,.16,1A.72.72,0,0,1,535.62,500.5Z"/><path class="cls-13" d="M549.05,534.24a.72.72,0,0,1-.29-.06l-6.26-2.69a.74.74,0,0,1,.59-1.36l6.25,2.69a.74.74,0,0,1-.29,1.42Z"/><polygon class="cls-15" points="621.8 621.45 524.63 621.45 513.52 544.58 632.9 544.58 621.8 621.45"/></g></g></svg>