<svg xmlns="http://www.w3.org/2000/svg" viewBox="0 0 700 640"><defs><style>.cls-1{fill:#ececec;}.cls-2,.cls-20,.cls-42,.cls-9{opacity:0.6;}.cls-3{fill:#f0f0f0;}.cls-4{fill:#e7e7e7;}.cls-5{fill:#fafafa;}.cls-6{fill:#f5f5f5;}.cls-7{fill:#e1e1e1;}.cls-8{fill:#b6f2f2;}.cls-10,.cls-11,.cls-15,.cls-20,.cls-21,.cls-23,.cls-24,.cls-35,.cls-40,.cls-48,.cls-9{fill:#fff;}.cls-10,.cls-16,.cls-38{opacity:0.3;}.cls-12{fill:#63d4d4;}.cls-13,.cls-14,.cls-18,.cls-24{opacity:0.2;}.cls-15{opacity:0.8;}.cls-15,.cls-16,.cls-17,.cls-18,.cls-20,.cls-21,.cls-25,.cls-40{isolation:isolate;}.cls-17,.cls-40{opacity:0.4;}.cls-19{fill:#1a2e35;}.cls-21,.cls-35{opacity:0.7;}.cls-22,.cls-25,.cls-48{opacity:0.1;}.cls-23,.cls-27{opacity:0.5;}.cls-26{fill:#afb9bc;}.cls-28,.cls-29,.cls-30,.cls-31,.cls-32{fill:none;stroke:#fff;stroke-linecap:round;stroke-linejoin:round;}.cls-28,.cls-29,.cls-30,.cls-31{stroke-width:1.22px;}.cls-28{stroke-dasharray:10.26 2.57 21.38 8.55;}.cls-29{stroke-dasharray:10.26 2.57 21.38 8.55;}.cls-30{stroke-dasharray:10.26 2.57 21.38 8.55;}.cls-31{stroke-dasharray:10.71 2.68 22.31 8.92;}.cls-32{stroke-width:1.22px;}.cls-33{fill:#00dfdf;}.cls-34{fill:#fcc1bb;}.cls-36{fill:#ffc2bc;}.cls-37{fill:#1f3238;}.cls-39{fill:#eb827e;}.cls-41{fill:#054641;}.cls-43{fill:#ffb570;}.cls-44{fill:#d15b66;}.cls-45{fill:#f9b88c;}.cls-46{fill:#ffc9a1;}.cls-47{fill:#fd5652;}</style></defs><title>Illustration</title><g id="Layer_8" data-name="Layer 8"><rect class="cls-1" x="16" y="508.56" width="668" height="0.33"/><rect class="cls-1" x="572.82" y="530.07" width="44.25" height="0.33"/><rect class="cls-1" x="446.9" y="533.69" width="11.61" height="0.33"/><rect class="cls-1" x="545.84" y="517.66" width="25.64" height="0.33"/><rect class="cls-1" x="86.09" y="519.91" width="57.71" height="0.33"/><rect class="cls-1" x="155.69" y="519.91" width="8.46" height="0.33"/><rect class="cls-1" x="191.65" y="525.55" width="125.15" height="0.33"/><path class="cls-1" d="M332.65,449h-258A7.64,7.64,0,0,1,67,441.36V78.72a7.64,7.64,0,0,1,7.63-7.62h258a7.63,7.63,0,0,1,7.62,7.62V441.36A7.63,7.63,0,0,1,332.65,449ZM74.67,71.43a7.3,7.3,0,0,0-7.29,7.29V441.36a7.3,7.3,0,0,0,7.29,7.29h258a7.3,7.3,0,0,0,7.29-7.29V78.72a7.3,7.3,0,0,0-7.29-7.29Z"/><path class="cls-1" d="M621.62,449h-258a7.63,7.63,0,0,1-7.62-7.62V78.72a7.63,7.63,0,0,1,7.62-7.62h258a7.63,7.63,0,0,1,7.63,7.62V441.36A7.63,7.63,0,0,1,621.62,449Zm-258-377.55a7.3,7.3,0,0,0-7.29,7.29V441.36a7.3,7.3,0,0,0,7.29,7.29h258a7.3,7.3,0,0,0,7.29-7.29V78.72a7.3,7.3,0,0,0-7.29-7.29Z"/><g class="cls-2"><path class="cls-3" d="M325.56,394.76H308.74v-1.12c0-2.2,2.47-3.94,5.39-3.83l6.59.27c2.72.11,4.84,1.79,4.84,3.83Z"/><path class="cls-4" d="M285.73,364.26a2.18,2.18,0,0,0-2.18-2.07H268.64a2.18,2.18,0,0,0-2.18,2.07L270,395.33h22.26Z"/><path class="cls-4" d="M326.22,316.49h-5.55l-6.25,58.68H320a1.88,1.88,0,0,0,1.84-1.66l5.89-55.35A1.47,1.47,0,0,0,326.22,316.49Z"/><path class="cls-1" d="M317.63,375.17H234.37a1.47,1.47,0,0,1-1.49-1.66l5.89-55.35a1.9,1.9,0,0,1,1.84-1.67h83.26a1.47,1.47,0,0,1,1.49,1.67l-5.89,55.35A1.88,1.88,0,0,1,317.63,375.17Z"/><path class="cls-5" d="M316.07,369.75H237.56a1.28,1.28,0,0,1-1.3-1.45L241.4,320a1.65,1.65,0,0,1,1.61-1.45h78.51a1.28,1.28,0,0,1,1.3,1.45l-5.14,48.29A1.65,1.65,0,0,1,316.07,369.75Z"/><rect class="cls-4" x="264.52" y="392.92" width="29.78" height="2.41" rx="0.9"/><rect class="cls-4" x="292.72" y="394.63" width="67.78" height="10.23"/><path class="cls-4" d="M171.63,508.84h-1.7a.4.4,0,0,1-.39-.38l-2.67-103.6h7.82L172,508.46A.38.38,0,0,1,171.63,508.84Z"/><polygon class="cls-3" points="111.3 508.84 107.39 508.84 118.42 404.86 126.24 404.86 111.3 508.84"/><polygon class="cls-4" points="363.15 508.84 363.15 508.84 348.17 404.86 355.98 404.86 367.02 508.84 363.15 508.84"/><rect class="cls-6" x="113.9" y="394.63" width="198.16" height="10.23"/><polygon class="cls-3" points="305.87 508.84 301.38 508.84 301.38 508.84 299.71 404.86 307.54 404.86 305.87 508.84"/><path class="cls-6" d="M242.57,392.8h-2.08a.4.4,0,0,1-.39-.4v-2.2a.4.4,0,0,1,.39-.39H242a.41.41,0,0,1,.38.29l.58,2.2A.4.4,0,0,1,242.57,392.8Z"/><path class="cls-6" d="M245.44,392.8h-2.08a.39.39,0,0,1-.39-.4v-2.2a.39.39,0,0,1,.39-.39h1.49a.41.41,0,0,1,.39.29l.58,2.2A.4.4,0,0,1,245.44,392.8Z"/><path class="cls-6" d="M248.31,392.8h-2.08a.39.39,0,0,1-.39-.4v-2.2a.39.39,0,0,1,.39-.39h1.49a.41.41,0,0,1,.39.29l.58,2.2A.4.4,0,0,1,248.31,392.8Z"/><path class="cls-6" d="M251.18,392.8H249.1a.39.39,0,0,1-.39-.4v-2.2a.39.39,0,0,1,.39-.39h1.49a.41.41,0,0,1,.39.29l.58,2.2A.4.4,0,0,1,251.18,392.8Z"/><path class="cls-6" d="M254.05,392.8H252a.39.39,0,0,1-.39-.4v-2.2a.39.39,0,0,1,.39-.39h1.49a.41.41,0,0,1,.39.29l.58,2.2A.4.4,0,0,1,254.05,392.8Z"/><path class="cls-6" d="M256.92,392.8h-2.08a.39.39,0,0,1-.39-.4v-2.2a.39.39,0,0,1,.39-.39h1.49a.41.41,0,0,1,.39.29l.58,2.2A.4.4,0,0,1,256.92,392.8Z"/><path class="cls-6" d="M259.79,392.8h-2.08a.4.4,0,0,1-.4-.4v-2.2a.4.4,0,0,1,.4-.39h1.49a.39.39,0,0,1,.38.29l.59,2.2A.4.4,0,0,1,259.79,392.8Z"/><path class="cls-6" d="M262.66,392.8h-2.08a.4.4,0,0,1-.4-.4v-2.2a.4.4,0,0,1,.4-.39h1.49a.39.39,0,0,1,.38.29l.59,2.2A.4.4,0,0,1,262.66,392.8Z"/><path class="cls-6" d="M265.53,392.8h-2.08a.4.4,0,0,1-.4-.4v-2.2a.4.4,0,0,1,.4-.39h1.49a.39.39,0,0,1,.38.29l.59,2.2A.4.4,0,0,1,265.53,392.8Z"/><path class="cls-6" d="M268.4,392.8h-2.08a.4.4,0,0,1-.4-.4v-2.2a.4.4,0,0,1,.4-.39h1.49a.39.39,0,0,1,.38.29l.59,2.2A.4.4,0,0,1,268.4,392.8Z"/><path class="cls-6" d="M271.27,392.8h-2.08a.4.4,0,0,1-.4-.4v-2.2a.4.4,0,0,1,.4-.39h1.49a.39.39,0,0,1,.38.29l.59,2.2A.4.4,0,0,1,271.27,392.8Z"/><path class="cls-6" d="M274.13,392.8h-2.07a.4.4,0,0,1-.4-.4v-2.2a.4.4,0,0,1,.4-.39h1.49a.39.39,0,0,1,.38.29l.59,2.2A.4.4,0,0,1,274.13,392.8Z"/><path class="cls-6" d="M277,392.8h-2.07a.4.4,0,0,1-.4-.4v-2.2a.4.4,0,0,1,.4-.39h1.49a.39.39,0,0,1,.38.29l.59,2.2A.41.41,0,0,1,277,392.8Z"/><path class="cls-6" d="M279.87,392.8H277.8a.4.4,0,0,1-.4-.4v-2.2a.4.4,0,0,1,.4-.39h1.49a.4.4,0,0,1,.38.29l.59,2.2A.41.41,0,0,1,279.87,392.8Z"/><path class="cls-6" d="M282.74,392.8h-2.07a.4.4,0,0,1-.4-.4v-2.2a.4.4,0,0,1,.4-.39h1.49a.4.4,0,0,1,.38.29l.59,2.2A.41.41,0,0,1,282.74,392.8Z"/><rect class="cls-1" x="238.41" y="391.3" width="46.43" height="3.46"/><path class="cls-7" d="M548.71,463.17c0-.49,1.67-49.48,9.64-57.23,7.75-7.54,16.65-.28,17,0l.8-1c-.1-.08-10.14-8.28-18.69,0-8.32,8.1-10,56.06-10,58.1Z"/><path class="cls-7" d="M548,472.8c.06-.58,5.45-58.81-15.82-83.22l-.94.82c20.92,24,15.58,81.7,15.52,82.28Z"/><path class="cls-7" d="M548.81,466.64l1.24-.08c0-.66-4.16-66.2,11.44-80.55l-.84-.92C544.61,399.84,548.63,463.92,548.81,466.64Z"/><path class="cls-7" d="M546.78,466.61H548c0-1.81-.52-44.27-12.58-51.19a8.57,8.57,0,0,0-7.81-.76c-7.29,3-10.9,16-11,16.55l1.2.33c0-.13,3.6-12.94,10.33-15.72a7.33,7.33,0,0,1,6.71.69C546.28,423.06,546.78,466.17,546.78,466.61Z"/><path class="cls-7" d="M551.48,466.64l1.24-.07c0-.34-1.82-33.56,7.15-45.27,2.17-2.83,4.53-4.18,7-4,5.87.41,10.8,9,10.85,9.09l1.09-.61c-.22-.38-5.31-9.26-11.85-9.72-2.93-.21-5.66,1.31-8.1,4.5C549.63,432.62,551.4,465.25,551.48,466.64Z"/><path class="cls-7" d="M549.51,471.16c.24-3.23,5.86-79.08-4-92.45l-1,.74c9.61,13,3.84,90.83,3.78,91.61Z"/><path class="cls-1" d="M525,422.34s5.93,2.19,4.16,7.35-20.51,13.65-20.51,13.65-7.85-7.2-.64-18.9S524.8,418.65,525,422.34Z"/><path class="cls-1" d="M550.73,412.52s-6.31-.27-6.67,5.18,13.68,20.49,13.68,20.49,10-3.62,7.86-17.2S552.3,409.17,550.73,412.52Z"/><path class="cls-1" d="M556.08,386.47s-4.21-.45-3.87-3,16.36-9.17,25.81,1.5c0,0-6,10.4-14.8,10.54S556.08,386.47,556.08,386.47Z"/><path class="cls-1" d="M548.23,380.25s3.81,1.84,4.88-.52-9-16.43-22.71-12.37c0,0-.36,12,7,16.77S548.23,380.25,548.23,380.25Z"/><path class="cls-1" d="M568.16,420.27s-2.9-2.35.23-3.49,18.52-.82,18.68,14.42c0,0-17.92,3-20.13-2.83S568.16,420.27,568.16,420.27Z"/><path class="cls-1" d="M531.63,386.09s2.9-2.35-.23-3.49-18.52-.82-18.68,14.42c0,0,17.92,3,20.13-2.83S531.63,386.09,531.63,386.09Z"/><path class="cls-1" d="M541.1,398.37s.26-2.86-2.05-1.74-10.32,9.77-2,18c0,0,11.19-8.29,9.18-12.6S541.1,398.37,541.1,398.37Z"/><path class="cls-1" d="M570.76,402.43s-1.74-2.28.81-2.56,13.94,2.76,11.28,14.14c0,0-13.88-1-14.48-5.77S570.76,402.43,570.76,402.43Z"/><polygon class="cls-3" points="523.85 508.84 571.49 508.84 576.63 456.68 518.71 456.68 523.85 508.84"/><rect class="cls-4" x="516.17" y="450.92" width="63.01" height="11.51" transform="translate(1095.34 913.36) rotate(180)"/></g><ellipse id="_Path_" data-name="&lt;Path&gt;" class="cls-6" cx="350" cy="553.77" rx="259.04" ry="15.13"/><path class="cls-8" d="M255.23,117.83a13.9,13.9,0,1,1-19-5.09A13.9,13.9,0,0,1,255.23,117.83Z"/><path class="cls-9" d="M255.23,117.83a13.9,13.9,0,1,1-19-5.09A13.9,13.9,0,0,1,255.23,117.83Z"/><path class="cls-10" d="M239.69,123.56c.43.74,1.29.7,2.34.44l-1.59-2.75C239.44,122.05,239.29,122.88,239.69,123.56Z"/><path class="cls-10" d="M244.57,125.47l1.58,2.74c1-.82,1.21-1.63.82-2.29S245.65,125.2,244.57,125.47Z"/><path class="cls-10" d="M237.26,114.5a11.87,11.87,0,1,0,16.21,4.35A11.87,11.87,0,0,0,237.26,114.5Zm9.86,15.4,1,1.73-1.27.73-1-1.72a7.77,7.77,0,0,1-4.53.91l-.21-2a6.9,6.9,0,0,0,3.78-.61l-1.79-3.09c-2,.57-4.12,1.08-5.37-1.08-.91-1.58-.56-3.61,1.72-5.24l-1-1.75,1.27-.73,1,1.71a7.88,7.88,0,0,1,3.69-.87l.26,1.94a7.36,7.36,0,0,0-3,.61l1.81,3.12c2-.57,4.14-1.11,5.39,1C249.79,126.21,249.41,128.25,247.12,129.9Z"/><path class="cls-8" d="M283,141.06a9.17,9.17,0,1,1-6.38-11.29A9.17,9.17,0,0,1,283,141.06Z"/><path class="cls-9" d="M283,141.06a9.17,9.17,0,1,1-6.38-11.29A9.17,9.17,0,0,1,283,141.06Z"/><path class="cls-10" d="M273.14,136.39c-.15.55.27.93.88,1.31l.56-2C273.73,135.58,273.28,135.89,273.14,136.39Z"/><path class="cls-10" d="M274.5,139.57l-.56,2c.86.11,1.32-.18,1.46-.67S275.13,140,274.5,139.57Z"/><path class="cls-10" d="M276.28,131.06a7.83,7.83,0,1,0,5.45,9.64A7.83,7.83,0,0,0,276.28,131.06Zm-2.68,11.76-.36,1.27-.93-.25.35-1.27a5.16,5.16,0,0,1-2.52-1.71l.83-1a4.53,4.53,0,0,0,2,1.5l.63-2.27c-1.17-.66-2.41-1.45-2-3,.32-1.15,1.44-1.93,3.26-1.61l.36-1.28.93.25-.35,1.27A4.9,4.9,0,0,1,278,136l-.78,1a5,5,0,0,0-1.67-1.13l-.64,2.3c1.18.65,2.44,1.43,2,3C276.56,142.37,275.43,143.13,273.6,142.82Z"/><path class="cls-8" d="M262,159.85a6.24,6.24,0,1,1-8.22-3.21A6.24,6.24,0,0,1,262,159.85Z"/><path class="cls-9" d="M262,159.85a6.24,6.24,0,1,1-8.22-3.21A6.24,6.24,0,0,1,262,159.85Z"/><path class="cls-10" d="M254.75,161.64c.15.35.54.38,1,.31l-.57-1.3C254.71,161,254.61,161.32,254.75,161.64Z"/><path class="cls-10" d="M256.83,162.73l.57,1.31c.51-.32.62-.67.49-1S257.33,162.67,256.83,162.73Z"/><path class="cls-10" d="M254.11,157.48a5.33,5.33,0,1,0,7,2.74A5.33,5.33,0,0,0,254.11,157.48Zm3.65,7.36.36.82-.61.27-.35-.82a3.56,3.56,0,0,1-2.07.18v-.89a3,3,0,0,0,1.72-.09l-.65-1.47c-.9.16-1.89.28-2.34-.74-.33-.75-.07-1.64,1-2.26l-.37-.83.61-.26.36.81a3.55,3.55,0,0,1,1.68-.2l0,.87a3.41,3.41,0,0,0-1.37.13l.65,1.48c.91-.15,1.91-.29,2.36.74C259.13,163.33,258.86,164.21,257.76,164.84Z"/><circle class="cls-8" cx="486.38" cy="460.26" r="13.9" transform="translate(-176.11 557.81) rotate(-51.8)"/><circle class="cls-9" cx="486.38" cy="460.26" r="13.9" transform="translate(-176.11 557.81) rotate(-51.8)"/><path class="cls-10" d="M485.11,456.78c-.3.8.28,1.44,1.14,2.09l1.12-3C486.12,455.63,485.39,456,485.11,456.78Z"/><path class="cls-10" d="M486.72,461.77l-1.11,3c1.29.27,2-.1,2.29-.82S487.62,462.43,486.72,461.77Z"/><path class="cls-10" d="M490.58,449.16a11.87,11.87,0,1,0,6.91,15.29A11.87,11.87,0,0,0,490.58,449.16Zm-5.66,17.39-.71,1.87-1.37-.52.7-1.85a7.81,7.81,0,0,1-3.57-2.94l1.39-1.4a6.92,6.92,0,0,0,2.86,2.53l1.27-3.34c-1.69-1.16-3.45-2.51-2.58-4.84.65-1.7,2.45-2.72,5.15-2l.72-1.89,1.37.52-.7,1.86a7.66,7.66,0,0,1,3,2.3l-1.33,1.43a7.5,7.5,0,0,0-2.37-1.93l-1.27,3.38c1.68,1.15,3.49,2.5,2.61,4.83C489.45,466.27,487.64,467.27,484.92,466.55Z"/><path class="cls-8" d="M510.13,491a9.17,9.17,0,1,1,4.69-12.09A9.17,9.17,0,0,1,510.13,491Z"/><path class="cls-9" d="M510.13,491a9.17,9.17,0,1,1,4.69-12.09A9.17,9.17,0,0,1,510.13,491Z"/><path class="cls-10" d="M507.48,480.35c-.52.23-.55.8-.46,1.5l1.92-.84C508.48,480.29,508,480.14,507.48,480.35Z"/><path class="cls-10" d="M505.88,483.41l-1.91.85c.46.73,1,.9,1.44.7S506,484.14,505.88,483.41Z"/><path class="cls-10" d="M513.59,479.4a7.83,7.83,0,1,0-4,10.32A7.84,7.84,0,0,0,513.59,479.4Zm-10.8,5.38-1.21.53-.39-.89,1.2-.52a5.17,5.17,0,0,1-.27-3h1.3a4.58,4.58,0,0,0,.14,2.52l2.15-.95c-.23-1.33-.41-2.78,1.09-3.44,1.1-.49,2.41-.11,3.31,1.5l1.22-.54.39.89-1.19.52a5.18,5.18,0,0,1,.3,2.48l-1.28,0a4.85,4.85,0,0,0-.19-2l-2.18,1c.24,1.32.44,2.8-1.06,3.46C505,486.78,503.71,486.39,502.79,484.78Z"/><path class="cls-8" d="M232.71,490.89a6.24,6.24,0,1,1-6.71-5.74A6.24,6.24,0,0,1,232.71,490.89Z"/><path class="cls-9" d="M232.71,490.89a6.24,6.24,0,1,1-6.71-5.74A6.24,6.24,0,0,1,232.71,490.89Z"/><path class="cls-10" d="M225.31,490.2c0,.39.38.54.86.64l-.11-1.43C225.5,489.54,225.28,489.85,225.31,490.2Z"/><path class="cls-10" d="M226.91,491.92l.12,1.42c.57-.14.8-.43.77-.77S227.41,492,226.91,491.92Z"/><path class="cls-10" d="M226.07,486.06a5.33,5.33,0,1,0,5.73,4.9A5.33,5.33,0,0,0,226.07,486.06Zm1,8.15.07.9-.65.05-.07-.89a3.56,3.56,0,0,1-2-.51l.3-.84a3.12,3.12,0,0,0,1.65.49l-.13-1.61c-.9-.14-1.88-.36-2-1.47-.07-.82.47-1.57,1.71-1.79l-.07-.91.66-.05.06.89a3.6,3.6,0,0,1,1.67.36l-.27.84a3.14,3.14,0,0,0-1.33-.33l.13,1.61c.9.15,1.89.35,2,1.47C228.89,493.23,228.34,494,227.09,494.21Z"/><path class="cls-8" d="M535.79,221v4.79l2.46.23a12.8,12.8,0,0,0,1.84,4.42l-1.59,1.91,3.39,3.38,1.91-1.58a12.86,12.86,0,0,0,4.41,1.84l.24,2.46h4.78l.23-2.46a12.83,12.83,0,0,0,4.42-1.84l1.91,1.58,3.38-3.38-1.58-1.91a12.8,12.8,0,0,0,1.84-4.42l2.46-.23V221l-2.46-.23a12.8,12.8,0,0,0-1.84-4.42l1.58-1.91L559.79,211l-1.91,1.58a12.62,12.62,0,0,0-4.42-1.83l-.23-2.47h-4.78l-.24,2.47a12.65,12.65,0,0,0-4.41,1.83L541.89,211l-3.39,3.38,1.59,1.91a12.8,12.8,0,0,0-1.84,4.42Zm15.05-4.08a6.48,6.48,0,1,1-6.48,6.48A6.47,6.47,0,0,1,550.84,216.87Z"/><path class="cls-8" d="M540.38,260.07a11,11,0,0,0,3.78-1.58l1.63,1.36,2.89-2.9-1.35-1.63a10.9,10.9,0,0,0,1.57-3.78l2.11-.2v-4.09l-2.11-.2a10.9,10.9,0,0,0-1.57-3.78l1.35-1.63-2.89-2.9-1.63,1.36a10.79,10.79,0,0,0-3.78-1.57l-.2-2.11h-4.09l-.2,2.11a10.71,10.71,0,0,0-3.78,1.57l-1.64-1.36-2.89,2.9,1.35,1.63a11.1,11.1,0,0,0-1.57,3.78l-2.11.2v4.09l2.11.2a11.1,11.1,0,0,0,1.57,3.78L527.58,257l2.89,2.9,1.64-1.36a10.92,10.92,0,0,0,3.78,1.58l.2,2.1h4.09Zm-7.79-10.77a5.54,5.54,0,1,1,5.54,5.53A5.54,5.54,0,0,1,532.59,249.3Z"/><path class="cls-8" d="M528.57,235.24l1.38,1.14,2.43-2.43-1.14-1.37a9.24,9.24,0,0,0,1.32-3.18l1.77-.16V225.8l-1.77-.17a9.27,9.27,0,0,0-1.32-3.17l1.14-1.37L530,218.66l-1.38,1.13a9.27,9.27,0,0,0-3.17-1.32l-.17-1.77h-3.44l-.16,1.77a9.32,9.32,0,0,0-3.18,1.32l-1.37-1.13-2.43,2.43,1.14,1.37a9.08,9.08,0,0,0-1.32,3.17l-1.77.17v3.44l1.77.16a9,9,0,0,0,1.32,3.18L514.65,234l2.43,2.43,1.37-1.14a8.94,8.94,0,0,0,3.18,1.32l.16,1.77h3.44l.17-1.77A8.89,8.89,0,0,0,528.57,235.24Zm-9.71-7.72a4.66,4.66,0,1,1,4.65,4.65A4.65,4.65,0,0,1,518.86,227.52Z"/><g class="cls-2"><path class="cls-11" d="M535.79,221v4.79l2.46.23a12.8,12.8,0,0,0,1.84,4.42l-1.59,1.91,3.39,3.38,1.91-1.58a12.86,12.86,0,0,0,4.41,1.84l.24,2.46h4.78l.23-2.46a12.83,12.83,0,0,0,4.42-1.84l1.91,1.58,3.38-3.38-1.58-1.91a12.8,12.8,0,0,0,1.84-4.42l2.46-.23V221l-2.46-.23a12.8,12.8,0,0,0-1.84-4.42l1.58-1.91L559.79,211l-1.91,1.58a12.62,12.62,0,0,0-4.42-1.83l-.23-2.47h-4.78l-.24,2.47a12.65,12.65,0,0,0-4.41,1.83L541.89,211l-3.39,3.38,1.59,1.91a12.8,12.8,0,0,0-1.84,4.42Zm15.05-4.08a6.48,6.48,0,1,1-6.48,6.48A6.47,6.47,0,0,1,550.84,216.87Z"/><path class="cls-11" d="M540.38,260.07a11,11,0,0,0,3.78-1.58l1.63,1.36,2.89-2.9-1.35-1.63a10.9,10.9,0,0,0,1.57-3.78l2.11-.2v-4.09l-2.11-.2a10.9,10.9,0,0,0-1.57-3.78l1.35-1.63-2.89-2.9-1.63,1.36a10.79,10.79,0,0,0-3.78-1.57l-.2-2.11h-4.09l-.2,2.11a10.71,10.71,0,0,0-3.78,1.57l-1.64-1.36-2.89,2.9,1.35,1.63a11.1,11.1,0,0,0-1.57,3.78l-2.11.2v4.09l2.11.2a11.1,11.1,0,0,0,1.57,3.78L527.58,257l2.89,2.9,1.64-1.36a10.92,10.92,0,0,0,3.78,1.58l.2,2.1h4.09Zm-7.79-10.77a5.54,5.54,0,1,1,5.54,5.53A5.54,5.54,0,0,1,532.59,249.3Z"/><path class="cls-11" d="M528.57,235.24l1.38,1.14,2.43-2.43-1.14-1.37a9.24,9.24,0,0,0,1.32-3.18l1.77-.16V225.8l-1.77-.17a9.27,9.27,0,0,0-1.32-3.17l1.14-1.37L530,218.66l-1.38,1.13a9.27,9.27,0,0,0-3.17-1.32l-.17-1.77h-3.44l-.16,1.77a9.32,9.32,0,0,0-3.18,1.32l-1.37-1.13-2.43,2.43,1.14,1.37a9.08,9.08,0,0,0-1.32,3.17l-1.77.17v3.44l1.77.16a9,9,0,0,0,1.32,3.18L514.65,234l2.43,2.43,1.37-1.14a8.94,8.94,0,0,0,3.18,1.32l.16,1.77h3.44l.17-1.77A8.89,8.89,0,0,0,528.57,235.24Zm-9.71-7.72a4.66,4.66,0,1,1,4.65,4.65A4.65,4.65,0,0,1,518.86,227.52Z"/></g><path class="cls-8" d="M154.16,338.11l-3.55,3.21,1.48,2a12.88,12.88,0,0,0-2,4.32l-2.48.11-.24,4.78,2.45.36a13.18,13.18,0,0,0,1.6,4.51l-1.67,1.82,3.21,3.55,2-1.48a13,13,0,0,0,4.33,2l.11,2.48,4.78.24.35-2.45A13,13,0,0,0,169,362l1.83,1.67,3.54-3.21-1.48-2a12.85,12.85,0,0,0,2-4.33l2.48-.11.24-4.78-2.46-.35a12.64,12.64,0,0,0-1.6-4.51l1.67-1.83L172,339l-2,1.48a12.71,12.71,0,0,0-4.32-2.05l-.11-2.48-4.78-.24-.36,2.46a12.77,12.77,0,0,0-4.51,1.6Zm13.13,8.42a6.48,6.48,0,1,1-9.15-.46A6.49,6.49,0,0,1,167.29,346.53Z"/><path class="cls-8" d="M138.72,342.34l.08,1.78,3.43.18.26-1.77a9.06,9.06,0,0,0,3.24-1.15l1.31,1.2,2.55-2.3-1.06-1.43a9.08,9.08,0,0,0,1.46-3.1l1.79-.08.17-3.44-1.77-.25a8.93,8.93,0,0,0-1.15-3.24l1.21-1.31-2.31-2.55-1.42,1.06a9.34,9.34,0,0,0-3.11-1.47l-.08-1.78-3.43-.17-.26,1.76a9.46,9.46,0,0,0-3.24,1.15l-1.31-1.2-2.55,2.31,1.06,1.42a9.34,9.34,0,0,0-1.47,3.11l-1.78.08-.17,3.43,1.77.26a9.06,9.06,0,0,0,1.15,3.24l-1.2,1.31,2.3,2.55,1.43-1.07A8.84,8.84,0,0,0,138.72,342.34ZM137.94,330a4.65,4.65,0,1,1-.33,6.57A4.64,4.64,0,0,1,137.94,330Z"/><g class="cls-2"><path class="cls-11" d="M154.16,338.11l-3.55,3.21,1.48,2a12.88,12.88,0,0,0-2,4.32l-2.48.11-.24,4.78,2.45.36a13.18,13.18,0,0,0,1.6,4.51l-1.67,1.82,3.21,3.55,2-1.48a13,13,0,0,0,4.33,2l.11,2.48,4.78.24.35-2.45A13,13,0,0,0,169,362l1.83,1.67,3.54-3.21-1.48-2a12.85,12.85,0,0,0,2-4.33l2.48-.11.24-4.78-2.46-.35a12.64,12.64,0,0,0-1.6-4.51l1.67-1.83L172,339l-2,1.48a12.71,12.71,0,0,0-4.32-2.05l-.11-2.48-4.78-.24-.36,2.46a12.77,12.77,0,0,0-4.51,1.6Zm13.13,8.42a6.48,6.48,0,1,1-9.15-.46A6.49,6.49,0,0,1,167.29,346.53Z"/><path class="cls-11" d="M138.72,342.34l.08,1.78,3.43.18.26-1.77a9.06,9.06,0,0,0,3.24-1.15l1.31,1.2,2.55-2.3-1.06-1.43a9.08,9.08,0,0,0,1.46-3.1l1.79-.08.17-3.44-1.77-.25a8.93,8.93,0,0,0-1.15-3.24l1.21-1.31-2.31-2.55-1.42,1.06a9.34,9.34,0,0,0-3.11-1.47l-.08-1.78-3.43-.17-.26,1.76a9.46,9.46,0,0,0-3.24,1.15l-1.31-1.2-2.55,2.31,1.06,1.42a9.34,9.34,0,0,0-1.47,3.11l-1.78.08-.17,3.43,1.77.26a9.06,9.06,0,0,0,1.15,3.24l-1.2,1.31,2.3,2.55,1.43-1.07A8.84,8.84,0,0,0,138.72,342.34ZM137.94,330a4.65,4.65,0,1,1-.33,6.57A4.64,4.64,0,0,1,137.94,330Z"/></g><path class="cls-8" d="M350.49,149.28l.07,1.78,3.44.18.25-1.77a8.93,8.93,0,0,0,3.24-1.15l1.31,1.2,2.55-2.3-1.06-1.43a9.25,9.25,0,0,0,1.47-3.11l1.78-.07.17-3.44-1.76-.25a9.32,9.32,0,0,0-1.15-3.24l1.2-1.31-2.31-2.55-1.42,1.06a9.34,9.34,0,0,0-3.11-1.47l-.08-1.78-3.43-.17-.26,1.76a9.46,9.46,0,0,0-3.24,1.15l-1.31-1.2-2.55,2.31,1.07,1.42a9,9,0,0,0-1.47,3.11l-1.78.08-.18,3.43,1.77.26a9.06,9.06,0,0,0,1.15,3.24l-1.2,1.31,2.3,2.55,1.43-1.07A8.89,8.89,0,0,0,350.49,149.28Zm-.79-12.38a4.65,4.65,0,1,1-.33,6.57A4.64,4.64,0,0,1,349.7,136.9Z"/><path class="cls-9" d="M350.49,149.28l.07,1.78,3.44.18.25-1.77a8.93,8.93,0,0,0,3.24-1.15l1.31,1.2,2.55-2.3-1.06-1.43a9.25,9.25,0,0,0,1.47-3.11l1.78-.07.17-3.44-1.76-.25a9.32,9.32,0,0,0-1.15-3.24l1.2-1.31-2.31-2.55-1.42,1.06a9.34,9.34,0,0,0-3.11-1.47l-.08-1.78-3.43-.17-.26,1.76a9.46,9.46,0,0,0-3.24,1.15l-1.31-1.2-2.55,2.31,1.07,1.42a9,9,0,0,0-1.47,3.11l-1.78.08-.18,3.43,1.77.26a9.06,9.06,0,0,0,1.15,3.24l-1.2,1.31,2.3,2.55,1.43-1.07A8.89,8.89,0,0,0,350.49,149.28Zm-.79-12.38a4.65,4.65,0,1,1-.33,6.57A4.64,4.64,0,0,1,349.7,136.9Z"/><polygon class="cls-12" points="547.17 382.05 547.11 382.24 537.66 406.17 534.11 415.17 527.45 403.11 514.34 407.37 527.42 374.25 535.72 377.53 546.67 381.86 547.17 382.05"/><g class="cls-13"><path class="cls-11" d="M534.19,410.76l-5.69-10.32-11.21,3.64,11.31-28.66,16.91,6.68Zm-5.49-10.85,5.43,9.82,10.81-27.39L528.85,376,518,403.38Z"/></g><path class="cls-14" d="M547.1,382.24l-9.44,23.92a79.87,79.87,0,0,1-6.17-26.3l4.23-2.33,11,4.33Z"/><polygon class="cls-12" points="544.96 415.16 551.62 403.11 564.72 407.36 551.64 374.25 531.88 382.05 544.96 415.16"/><g class="cls-13"><path class="cls-11" d="M533.55,382.1l16.91-6.68,11.31,28.66-11.21-3.64-5.69,10.32ZM561,403.38,550.21,376l-16.09,6.35,10.81,27.39,5.43-9.82Z"/></g><polygon class="cls-12" points="539.53 335.18 541.87 333.35 543.84 335.57 546.47 334.19 548.02 336.72 550.85 335.83 551.92 338.6 554.86 338.23 555.42 341.14 558.38 341.3 558.41 344.27 561.3 344.96 560.8 347.88 563.51 349.08 562.5 351.87 564.96 353.52 563.46 356.09 565.59 358.16 563.66 360.41 565.38 362.83 563.08 364.7 564.34 367.39 561.74 368.82 562.5 371.69 559.69 372.63 559.92 375.59 556.99 376.02 556.69 378.97 553.73 378.87 552.91 381.72 550.01 381.09 548.69 383.75 545.96 382.61 544.19 384.99 541.69 383.38 539.53 385.41 537.37 383.38 534.87 384.99 533.1 382.61 530.36 383.75 529.05 381.09 526.15 381.72 525.33 378.87 522.37 378.97 522.07 376.02 519.14 375.59 519.37 372.63 516.56 371.69 517.32 368.82 514.72 367.39 515.98 364.7 513.68 362.83 515.4 360.41 513.47 358.16 515.6 356.09 514.1 353.52 516.56 351.87 515.54 349.08 518.26 347.88 517.76 344.96 520.65 344.27 520.68 341.3 523.64 341.14 524.2 338.23 527.14 338.6 528.21 335.83 531.04 336.72 532.59 334.19 535.22 335.57 537.19 333.35 539.53 335.18"/><polygon class="cls-10" points="539.53 335.18 541.87 333.35 543.84 335.57 546.47 334.19 548.02 336.72 550.85 335.83 551.92 338.6 554.86 338.23 555.42 341.14 558.38 341.3 558.41 344.27 561.3 344.96 560.8 347.88 563.51 349.08 562.5 351.87 564.96 353.52 563.46 356.09 565.59 358.16 563.66 360.41 565.38 362.83 563.08 364.7 564.34 367.39 561.74 368.82 562.5 371.69 559.69 372.63 559.92 375.59 556.99 376.02 556.69 378.97 553.73 378.87 552.91 381.72 550.01 381.09 548.69 383.75 545.96 382.61 544.19 384.99 541.69 383.38 539.53 385.41 537.37 383.38 534.87 384.99 533.1 382.61 530.36 383.75 529.05 381.09 526.15 381.72 525.33 378.87 522.37 378.97 522.07 376.02 519.14 375.59 519.37 372.63 516.56 371.69 517.32 368.82 514.72 367.39 515.98 364.7 513.68 362.83 515.4 360.41 513.47 358.16 515.6 356.09 514.1 353.52 516.56 351.87 515.54 349.08 518.26 347.88 517.76 344.96 520.65 344.27 520.68 341.3 523.64 341.14 524.2 338.23 527.14 338.6 528.21 335.83 531.04 336.72 532.59 334.19 535.22 335.57 537.19 333.35 539.53 335.18"/><circle class="cls-10" cx="539.53" cy="359.38" r="22.44"/><path class="cls-12" d="M526.07,359.38s1.8-3.79,4.14-4c4.49-.44,9.09,9.07,9.09,9.07s4.83-10.83,14.78-15.68c0,0-5.78,5.55-10.75,20.17-.38,1.13-5.63,2.73-6.87,2S531,360.5,526.07,359.38Z"/><path class="cls-12" d="M161.62,216.11c-3.05-5.46-9-8-13.24-5.56s-5.24,8.73-2.19,14.19,9,7.94,13.24,5.56S164.67,221.57,161.62,216.11Z"/><path class="cls-12" d="M196.26,197,185.77,177.7s-7.33,15.71-17.87,21.61l5.35,9.56.84,1.5,5.35,9.57C190,214.05,207.2,216,207.2,216Z"/><path class="cls-15" d="M161.62,216.11c-3.05-5.46-9-8-13.24-5.56s-5.24,8.73-2.19,14.19,9,7.94,13.24,5.56S164.67,221.57,161.62,216.11Z"/><path class="cls-15" d="M196.26,197,185.77,177.7s-7.33,15.71-17.87,21.61l5.35,9.56.84,1.5,5.35,9.57C190,214.05,207.2,216,207.2,216Z"/><path class="cls-12" d="M160.9,227.41s7.59,11,14.67,15a1.17,1.17,0,0,0,1.49-.31l6-7.49a1.18,1.18,0,0,0-.44-1.83c-3-1.32-9.94-4.71-14-9.46C163.49,217.15,160.9,227.41,160.9,227.41Z"/><path class="cls-16" d="M160.9,227.41s7.59,11,14.67,15a1.17,1.17,0,0,0,1.49-.31l6-7.49a1.18,1.18,0,0,0-.44-1.83c-3-1.32-9.94-4.71-14-9.46C163.49,217.15,160.9,227.41,160.9,227.41Z"/><path class="cls-11" d="M207.1,216.59c-2.41,1.35-9.26-6.3-15.3-17.1s-9-20.64-6.56-22,9.27,6.31,15.31,17.1S209.52,215.24,207.1,216.59Z"/><path class="cls-17" d="M206.12,213.41c-1.81,1-7.15-5-12.19-13.68-.3-.48-.58-1-.87-1.51s-.68-1.22-1-1.81c-4.63-8.74-6.91-16.27-5.12-17.28s7.79,5.73,13.08,15.2S208,212.33,206.12,213.41Z"/><path class="cls-12" d="M158.45,232.31s-2.6-1.85-7.29-10.25c-5.09-9.09-4.95-11.64-4.95-11.64l23.52-13.15s.28,3.3,5.05,11.83S182,219.16,182,219.16Z"/><path class="cls-11" d="M193.93,199.73c-.3-.48-.58-1-.87-1.51s-.68-1.22-1-1.81l2.43-.77a1.14,1.14,0,0,1,1.34.62l.19.34a1.12,1.12,0,0,1-.17,1.46Z"/><path class="cls-18" d="M193.93,199.73c-.3-.48-.58-1-.87-1.51s-.68-1.22-1-1.81l2.43-.77a1.14,1.14,0,0,1,1.34.62l.19.34a1.12,1.12,0,0,1-.17,1.46Z"/><rect class="cls-19" x="165.06" y="447.08" width="27.57" height="11.98"/><rect class="cls-20" x="165.06" y="447.08" width="27.57" height="11.98"/><path class="cls-12" d="M161.85,448.3s-6.78-9.5-6.78-14.47,4.07-7.69,6.78-5.88c0,0-1.36-9.57,0-12.92s8.14-1.35,8.14-1.35a5.67,5.67,0,0,1,5.2-3.13,6.21,6.21,0,0,1,5.42,3.13,5.93,5.93,0,0,1,5.65-1.3c3.62.88,3.16,2.84,3.16,2.84s5.21,0,6.34,1.61,3.39,23.09-1.36,29.88S169.08,455.76,161.85,448.3Z"/><path class="cls-21" d="M197.2,434.83c-.24,4.8-1,9.36-2.79,11.88-4.75,6.79-25.32,9.05-32.56,1.59,0,0-6.78-9.5-6.78-14.47s4.08-7.68,6.78-5.88c0,0-1.35-9.58,0-12.92s8.15-1.36,8.15-1.36a5.66,5.66,0,0,1,5.19-3.12,6.21,6.21,0,0,1,5.42,3.12,5.93,5.93,0,0,1,5.66-1.28c3.61.87,3.16,2.82,3.16,2.82s5.2,0,6.33,1.62C196.46,417.86,197.63,426.7,197.2,434.83Z"/><path class="cls-22" d="M197.2,434.83c-.6-.24-3.8-1.46-4.71.32-1,2-9.5,10.41-12.72,7.19s-12.52-6.28-12.52-6.28a7.8,7.8,0,0,0,3.86-1c3.91-2.21,3.23-5.6,1.13-5.43-.52,0-10.39-1.67-10.39-1.67s7.24-.2,8.08-1.21.17-10,.86-9.83.32,9.16.49,10.68,6.49,1.61,7.33.75.62-12.32,1.83-11.55-.7,11.82.51,12.49,3.85,1.33,5,.65,2.2-12.41,2.87-11.9-.24,11.06.1,11.9,2.36.88,3.9.54,2.94-13.64,2.94-13.64C196.46,417.86,197.63,426.7,197.2,434.83Z"/><path class="cls-12" d="M165.06,455.56s13.59,4.24,27.57,0l1.89.94v14.66a118.67,118.67,0,0,1-31.54,0l1-14.58Z"/><path class="cls-12" d="M405.05,162.08h7.76a1.28,1.28,0,0,1,1.28,1.28v3.83a0,0,0,0,1,0,0H403.77a0,0,0,0,1,0,0v-3.83A1.28,1.28,0,0,1,405.05,162.08Z"/><path class="cls-12" d="M420.3,146.43h7.76a1.28,1.28,0,0,1,1.28,1.28v19.48a0,0,0,0,1,0,0H419a0,0,0,0,1,0,0V147.71A1.28,1.28,0,0,1,420.3,146.43Z"/><path class="cls-12" d="M435.55,149.83h7.76a1.28,1.28,0,0,1,1.28,1.28v16.08a0,0,0,0,1,0,0H434.27a0,0,0,0,1,0,0V151.11A1.28,1.28,0,0,1,435.55,149.83Z"/><path class="cls-12" d="M450.8,132.47h7.76a1.28,1.28,0,0,1,1.28,1.28v33.44a0,0,0,0,1,0,0H449.52a0,0,0,0,1,0,0V133.75A1.28,1.28,0,0,1,450.8,132.47Z"/><polygon class="cls-12" points="459.89 108.09 457.22 109.02 453.3 110.38 455.2 111.81 436.55 137.56 420.05 130.16 399.54 153.85 403.54 157.12 421.44 136.44 438.27 143.97 459.35 114.87 461.02 116.13 461.38 107.58 459.89 108.09"/><path class="cls-9" d="M405.05,162.08h7.76a1.28,1.28,0,0,1,1.28,1.28v3.83a0,0,0,0,1,0,0H403.77a0,0,0,0,1,0,0v-3.83A1.28,1.28,0,0,1,405.05,162.08Z"/><path class="cls-23" d="M420.3,146.43h7.76a1.28,1.28,0,0,1,1.28,1.28v19.48a0,0,0,0,1,0,0H419a0,0,0,0,1,0,0V147.71A1.28,1.28,0,0,1,420.3,146.43Z"/><path class="cls-10" d="M435.55,149.83h7.76a1.28,1.28,0,0,1,1.28,1.28v16.08a0,0,0,0,1,0,0H434.27a0,0,0,0,1,0,0V151.11A1.28,1.28,0,0,1,435.55,149.83Z"/><path class="cls-24" d="M450.8,132.47h7.76a1.28,1.28,0,0,1,1.28,1.28v33.44a0,0,0,0,1,0,0H449.52a0,0,0,0,1,0,0V133.75A1.28,1.28,0,0,1,450.8,132.47Z"/><polygon class="cls-25" points="459.89 108.09 457.22 109.02 453.3 110.38 455.2 111.81 436.55 137.56 420.05 130.16 399.54 153.85 403.54 157.12 421.44 136.44 438.27 143.97 459.35 114.87 461.02 116.13 461.38 107.58 459.89 108.09"/><path class="cls-19" d="M462.72,170.25H401.79a1.53,1.53,0,0,1-1.54-1.53h0a1.54,1.54,0,0,1,1.54-1.53h60.93a1.54,1.54,0,0,1,1.53,1.53h0A1.53,1.53,0,0,1,462.72,170.25Z"/><path class="cls-10" d="M462.72,170.25H401.79a1.53,1.53,0,0,1-1.54-1.53h0a1.54,1.54,0,0,1,1.54-1.53h60.93a1.54,1.54,0,0,1,1.53,1.53h0A1.53,1.53,0,0,1,462.72,170.25Z"/><path class="cls-26" d="M176.12,489.65a48.12,48.12,0,0,1-11.89-1.49.63.63,0,0,1-.44-.75.6.6,0,0,1,.74-.43,47.18,47.18,0,0,0,18.9.89c.68-.11,1.36-.23,2-.36a.61.61,0,0,1,.24,1.19c-.69.14-1.39.26-2.09.37A48.36,48.36,0,0,1,176.12,489.65Zm-14.2-2.18-.18,0a48.72,48.72,0,0,1-9.51-4.16.61.61,0,0,1,.61-1.06,47,47,0,0,0,9.26,4,.62.62,0,0,1,.4.77A.6.6,0,0,1,161.92,487.47Zm31.84-1.18a.59.59,0,0,1-.56-.38.61.61,0,0,1,.34-.79,46.66,46.66,0,0,0,9-4.72.61.61,0,0,1,.68,1,47.63,47.63,0,0,1-9.18,4.84A.59.59,0,0,1,193.76,486.29ZM204.92,480a.61.61,0,0,1-.37-1.09,47.67,47.67,0,0,0,13.47-16,.61.61,0,0,1,.82-.27.61.61,0,0,1,.26.82,48.65,48.65,0,0,1-13.82,16.44A.62.62,0,0,1,204.92,480Zm-59.39-1.54a.57.57,0,0,1-.39-.14,48.47,48.47,0,0,1-13-17.11.61.61,0,0,1,.31-.81.6.6,0,0,1,.8.31,47.41,47.41,0,0,0,12.64,16.68.62.62,0,0,1,.08.86A.61.61,0,0,1,145.53,478.48Zm-13.79-19.26a.61.61,0,0,1-.57-.39,48.88,48.88,0,0,1-2.68-10l0-.18a.61.61,0,0,1,.51-.69.62.62,0,0,1,.7.51l0,.17a47.26,47.26,0,0,0,2.61,9.77.6.6,0,0,1-.56.83Zm90-3.34a.55.55,0,0,1-.18,0,.61.61,0,0,1-.4-.76,47.32,47.32,0,0,0,1.89-9.93.59.59,0,0,1,.65-.56.6.6,0,0,1,.56.65,47.76,47.76,0,0,1-1.94,10.19A.6.6,0,0,1,221.78,455.88Zm2.05-12.62h0a.61.61,0,0,1-.59-.62c0-.4,0-.8,0-1.2a47.55,47.55,0,0,0-4.12-19.33.6.6,0,0,1,.3-.8.62.62,0,0,1,.81.3,48.73,48.73,0,0,1,4.22,19.83c0,.41,0,.82,0,1.23A.61.61,0,0,1,223.83,443.26Zm-95.3-2.63h0a.61.61,0,0,1-.59-.63,48.25,48.25,0,0,1,5.37-20.79.61.61,0,0,1,1.08.57A47.14,47.14,0,0,0,129.14,440,.61.61,0,0,1,128.53,440.63Zm6.55-22.77a.59.59,0,0,1-.31-.09.59.59,0,0,1-.21-.83,48,48,0,0,1,6.18-8.33.61.61,0,0,1,.86,0,.6.6,0,0,1,0,.86,48,48,0,0,0-6,8.12A.6.6,0,0,1,135.08,417.86ZM215.49,415a.61.61,0,0,1-.5-.26,47.25,47.25,0,0,0-6.59-7.67.61.61,0,0,1,.83-.89,47.8,47.8,0,0,1,6.76,7.87.61.61,0,0,1-.16.85A.59.59,0,0,1,215.49,415Zm-8.59-9.47a.67.67,0,0,1-.4-.14,47.35,47.35,0,0,0-18.59-9.61.6.6,0,0,1-.44-.74.62.62,0,0,1,.74-.44,48.86,48.86,0,0,1,19.08,9.85.61.61,0,0,1,.07.86A.58.58,0,0,1,206.9,405.55Zm-59.38-1.65a.61.61,0,0,1-.37-1.09,47.79,47.79,0,0,1,19.6-8.77.6.6,0,0,1,.71.48.61.61,0,0,1-.47.72,46.56,46.56,0,0,0-19.11,8.54A.62.62,0,0,1,147.52,403.9Zm21.88-9.08a.62.62,0,0,1-.61-.53.61.61,0,0,1,.52-.68,48,48,0,0,1,10.37-.38.61.61,0,0,1,.56.65.59.59,0,0,1-.65.56,48.19,48.19,0,0,0-10.11.37Z"/><path class="cls-26" d="M535,417.93h0a48.7,48.7,0,0,1-10.24-1.71.61.61,0,1,1,.33-1.17,46.88,46.88,0,0,0,10,1.66.61.61,0,0,1,0,1.22Zm8.54-.27a.61.61,0,0,1-.07-1.21,47.3,47.3,0,0,0,19.7-7.07.6.6,0,1,1,.65,1,48.37,48.37,0,0,1-20.21,7.26Zm-21.09-2.18-.2,0a47.88,47.88,0,0,1-16.72-9.82c-.53-.47-1.05-1-1.55-1.45a.61.61,0,1,1,.85-.87c.49.48,1,.95,1.51,1.42a46.72,46.72,0,0,0,16.31,9.57.62.62,0,0,1,.38.77A.62.62,0,0,1,522.47,415.48Zm43.17-6.43a.6.6,0,0,1-.5-.25.62.62,0,0,1,.14-.85,46.73,46.73,0,0,0,7.52-6.76l.1-.1a.61.61,0,1,1,.91.81l-.1.11a48.26,48.26,0,0,1-7.72,6.93A.56.56,0,0,1,565.64,409.05Zm-66.76-11.2a.58.58,0,0,1-.49-.26,47.49,47.49,0,0,1-5-9.06.6.6,0,0,1,.32-.8.61.61,0,0,1,.8.32,46.86,46.86,0,0,0,4.91,8.84.61.61,0,0,1-.15.85A.63.63,0,0,1,498.88,397.85Zm79.58-2.59a.62.62,0,0,1-.32-.09.61.61,0,0,1-.2-.84,47.17,47.17,0,0,0,6.69-19.83.59.59,0,0,1,.66-.55.62.62,0,0,1,.55.67A48.54,48.54,0,0,1,579,395,.64.64,0,0,1,578.46,395.26ZM493,386.51a.61.61,0,0,1-.57-.41,48.3,48.3,0,0,1-2.85-16.38c0-1.63.09-3.3.25-4.93a.62.62,0,0,1,.67-.55.61.61,0,0,1,.54.67c-.16,1.6-.24,3.22-.24,4.81a46.92,46.92,0,0,0,2.78,16,.61.61,0,0,1-.37.78A.52.52,0,0,1,493,386.51Zm92.45-13.9h0a.62.62,0,0,1-.58-.64c0-.74.06-1.48.06-2.21a48.25,48.25,0,0,0-.66-7.88.61.61,0,0,1,.49-.71.63.63,0,0,1,.71.5,48.8,48.8,0,0,1,.67,8.09c0,.75,0,1.51-.05,2.27A.61.61,0,0,1,585.42,372.61ZM492,357.07l-.17,0a.61.61,0,0,1-.42-.76,48.26,48.26,0,0,1,3.94-9.59.61.61,0,0,1,.83-.25.62.62,0,0,1,.24.83,47,47,0,0,0-3.84,9.35A.61.61,0,0,1,492,357.07Zm90.6-2.94a.6.6,0,0,1-.57-.41,46.59,46.59,0,0,0-11.34-17.6.61.61,0,0,1,0-.86.63.63,0,0,1,.87,0,47.85,47.85,0,0,1,11.62,18.06.61.61,0,0,1-.37.78A.65.65,0,0,1,582.64,354.13Zm-85.43-8.75a.62.62,0,0,1-.32-.09.61.61,0,0,1-.19-.84,48.43,48.43,0,0,1,15-15.33.61.61,0,1,1,.66,1,46.71,46.71,0,0,0-9.56,8.15,47.32,47.32,0,0,0-5.1,6.8A.59.59,0,0,1,497.21,345.38Zm72.07-10.83a.6.6,0,0,1-.4-.15,47.62,47.62,0,0,0-8.26-5.83.61.61,0,1,1,.59-1.06,48.22,48.22,0,0,1,8.47,6,.61.61,0,0,1,.06.86A.63.63,0,0,1,569.28,334.55Zm-49.65-8.26a.62.62,0,0,1-.56-.38.6.6,0,0,1,.33-.79,47.79,47.79,0,0,1,10-2.9.61.61,0,1,1,.21,1.2,47.39,47.39,0,0,0-9.71,2.82A.59.59,0,0,1,519.63,326.29Zm33.47-1.09a.71.71,0,0,1-.2,0,47,47,0,0,0-15.07-2.47h0a47.77,47.77,0,0,0-5.73.35.61.61,0,0,1-.68-.53.62.62,0,0,1,.53-.68,46.27,46.27,0,0,1,5.9-.36A48.27,48.27,0,0,1,553.29,324a.62.62,0,0,1,.39.77A.63.63,0,0,1,553.1,325.2Z"/><path class="cls-26" d="M434.43,192a46.91,46.91,0,0,1-4.88-.25.6.6,0,0,1-.54-.66.61.61,0,0,1,.66-.55,47.11,47.11,0,0,0,18.82-1.91c.66-.21,1.31-.43,2-.66a.61.61,0,1,1,.41,1.14c-.66.24-1.33.47-2,.68A48.15,48.15,0,0,1,434.43,192Zm-7.36-.57H427a48.37,48.37,0,0,1-10-2.71.61.61,0,0,1,.45-1.13,47.12,47.12,0,0,0,9.76,2.64.61.61,0,0,1-.1,1.21Zm31.33-5.89a.6.6,0,0,1-.53-.3.61.61,0,0,1,.22-.83,46.85,46.85,0,0,0,8.15-6,.6.6,0,0,1,.86,0,.61.61,0,0,1,0,.86,47.45,47.45,0,0,1-8.36,6.14A.56.56,0,0,1,458.4,185.51Zm-48.87-.58a.59.59,0,0,1-.31-.09,48.47,48.47,0,0,1-15.36-15A.61.61,0,0,1,394,169a.6.6,0,0,1,.84.18,47.18,47.18,0,0,0,15,14.62.61.61,0,0,1,.2.84A.59.59,0,0,1,409.53,184.93Zm59-7.27a.63.63,0,0,1-.42-.17.6.6,0,0,1,0-.86A47.66,47.66,0,0,0,479,158.79a.61.61,0,1,1,1.15.39,48.87,48.87,0,0,1-11.23,18.3A.62.62,0,0,1,468.49,177.66ZM393,167.92a.6.6,0,0,1-.53-.31,48.77,48.77,0,0,1-4.13-9.51l-.05-.15a.61.61,0,0,1,.4-.76.62.62,0,0,1,.77.4l0,.15a47.46,47.46,0,0,0,4,9.27.61.61,0,0,1-.23.83A.64.64,0,0,1,393,167.92Zm88.56-16.63h-.09a.62.62,0,0,1-.52-.7,46.66,46.66,0,0,0,.52-6.88c0-1.07,0-2.15-.12-3.22a.63.63,0,0,1,.57-.65.61.61,0,0,1,.65.57c.07,1.09.11,2.2.11,3.3a47.72,47.72,0,0,1-.52,7.06A.61.61,0,0,1,481.6,151.29ZM387.12,150a.61.61,0,0,1-.6-.54,49.1,49.1,0,0,1-.35-5.81,47.84,47.84,0,0,1,2.58-15.54.61.61,0,1,1,1.15.39,46.57,46.57,0,0,0-2.17,20.81.61.61,0,0,1-.53.68Zm94.63-11.53a.6.6,0,0,1-.6-.53,47.87,47.87,0,0,0-1.8-8.32,47,47,0,0,0-5.3-11.38.61.61,0,1,1,1-.65,48.3,48.3,0,0,1,5.43,11.67,49.17,49.17,0,0,1,1.85,8.53.62.62,0,0,1-.53.68Zm-91.53-12a.64.64,0,0,1-.23-.05.61.61,0,0,1-.34-.79,49.28,49.28,0,0,1,4.88-9.15.61.61,0,0,1,.85-.16.6.6,0,0,1,.16.84,46.93,46.93,0,0,0-4.76,8.93A.61.61,0,0,1,390.22,126.54Zm79.1-14.73a.6.6,0,0,1-.44-.2,47.31,47.31,0,0,0-7.66-6.6.62.62,0,0,1-.15-.85.6.6,0,0,1,.84-.16,48.41,48.41,0,0,1,7.86,6.78.61.61,0,0,1,0,.86A.63.63,0,0,1,469.32,111.81Zm-68.87-.92a.61.61,0,0,1-.44-1A47.78,47.78,0,0,1,418.1,98.28a.61.61,0,1,1,.41,1.14,46.56,46.56,0,0,0-17.63,11.29A.6.6,0,0,1,400.45,110.89Zm59-7.18a.62.62,0,0,1-.32-.09,47.59,47.59,0,0,0-19.81-6.74.61.61,0,0,1-.55-.67.63.63,0,0,1,.67-.54,48.63,48.63,0,0,1,20.33,6.91.61.61,0,0,1-.32,1.13Zm-38.68-5a.61.61,0,0,1-.58-.44.59.59,0,0,1,.41-.75,48.06,48.06,0,0,1,10.19-1.91.61.61,0,1,1,.1,1.21,47.6,47.6,0,0,0-9.94,1.86A.57.57,0,0,1,420.74,98.66Z"/><path class="cls-26" d="M176.22,258.67a48.26,48.26,0,0,1-10.89-1.25.6.6,0,0,1-.45-.73.6.6,0,0,1,.73-.45,47.24,47.24,0,0,0,20.93.06.61.61,0,1,1,.27,1.19A48.35,48.35,0,0,1,176.22,258.67Zm12.94-1.8a.61.61,0,0,1-.17-1.2,46.89,46.89,0,0,0,9.38-3.79l.13-.07a.61.61,0,0,1,.57,1.07L199,253a48.56,48.56,0,0,1-9.64,3.9Zm-31.81-2.09a.52.52,0,0,1-.24-.05,48,48,0,0,1-9-5.09.61.61,0,0,1-.15-.85.62.62,0,0,1,.85-.14,47.41,47.41,0,0,0,8.81,5,.62.62,0,0,1,.32.8A.61.61,0,0,1,157.35,254.78Zm48.57-6.52a.62.62,0,0,1-.48-.23.61.61,0,0,1,.1-.86,47.26,47.26,0,0,0,13-16.37.61.61,0,0,1,1.09.53,48.2,48.2,0,0,1-13.38,16.79A.59.59,0,0,1,205.92,248.26Zm-59.54,0a.62.62,0,0,1-.38-.13,48.06,48.06,0,0,1-12.38-14.93c-.34-.62-.66-1.26-1-1.9a.6.6,0,1,1,1.09-.52c.3.62.62,1.24.94,1.85a47,47,0,0,0,12.07,14.55.6.6,0,0,1,.1.85A.62.62,0,0,1,146.38,248.21Zm73.79-18.88a.66.66,0,0,1-.23,0,.61.61,0,0,1-.33-.8,47.61,47.61,0,0,0,2.87-9.7.6.6,0,0,1,.7-.49.61.61,0,0,1,.49.71,48.76,48.76,0,0,1-2.93,10A.62.62,0,0,1,220.17,229.33Zm-90-5.73a.62.62,0,0,1-.59-.45A48.51,48.51,0,0,1,128,212.91a.61.61,0,0,1,.58-.64.63.63,0,0,1,.64.58,46.18,46.18,0,0,0,1.61,10,.61.61,0,0,1-.43.75ZM223.85,211a.59.59,0,0,1-.61-.59,46.63,46.63,0,0,0-4.66-20.4.61.61,0,0,1,1.09-.53,47.63,47.63,0,0,1,4.79,20.89A.63.63,0,0,1,223.85,211Zm-95.33-.06h0a.6.6,0,0,1-.6-.61,48.63,48.63,0,0,1,4.81-20.92.62.62,0,0,1,.82-.29.61.61,0,0,1,.28.82,47.59,47.59,0,0,0-4.7,20.4A.6.6,0,0,1,128.52,210.92ZM218,188.05a.6.6,0,0,1-.53-.31,48,48,0,0,0-5.79-8.3.61.61,0,0,1,.92-.8,48.51,48.51,0,0,1,5.93,8.51.6.6,0,0,1-.24.83A.59.59,0,0,1,218,188.05Zm-80.3-5.12a.66.66,0,0,1-.35-.11.62.62,0,0,1-.14-.86,47.94,47.94,0,0,1,7-7.67.61.61,0,1,1,.8.91,46.36,46.36,0,0,0-6.79,7.48A.63.63,0,0,1,137.65,182.93Zm68.27-9.18a.6.6,0,0,1-.38-.13,47.42,47.42,0,0,0-18.85-9.09.6.6,0,0,1-.46-.73.63.63,0,0,1,.73-.46,48.67,48.67,0,0,1,19.34,9.33.6.6,0,0,1,.1.85A.62.62,0,0,1,205.92,173.75Zm-59.41-.05a.62.62,0,0,1-.48-.23.6.6,0,0,1,.1-.85,48.44,48.44,0,0,1,19.35-9.3.62.62,0,0,1,.73.45.6.6,0,0,1-.46.73A47.32,47.32,0,0,0,154,168.9a48.15,48.15,0,0,0-7.11,4.67A.58.58,0,0,1,146.51,173.7Zm37.8-9.66h-.11a46.67,46.67,0,0,0-10.09-.65.59.59,0,0,1-.63-.58.61.61,0,0,1,.58-.64,49.1,49.1,0,0,1,10.35.67.62.62,0,0,1,.5.71A.61.61,0,0,1,184.31,164Z"/><path class="cls-26" d="M349,325.44a28.74,28.74,0,0,1-9.69-1.67.61.61,0,1,1,.41-1.15A28.2,28.2,0,0,0,361,321.53a.61.61,0,0,1,.81.28.63.63,0,0,1-.29.82A29.42,29.42,0,0,1,349,325.44Zm14.59-4a.6.6,0,0,1-.31-1.13,27.63,27.63,0,0,0,7.74-6.88.63.63,0,0,1,.87-.13.58.58,0,0,1,.13.82l0,.07a29,29,0,0,1-8.07,7.17A.6.6,0,0,1,363.59,321.42Zm-31.91-1.87a.56.56,0,0,1-.34-.12l-.08-.06a28.77,28.77,0,0,1-7.19-8.12.61.61,0,1,1,1-.62,27.79,27.79,0,0,0,6.91,7.79.64.64,0,0,1,.15.87A.62.62,0,0,1,331.68,319.55Zm-8.35-10.37a.62.62,0,0,1-.55-.35A29.34,29.34,0,0,1,320,296.4a29,29,0,0,1,1.68-9.74.61.61,0,1,1,1.15.41,27.61,27.61,0,0,0-1.61,9.33,28,28,0,0,0,2.66,11.91.6.6,0,0,1-.29.81A.58.58,0,0,1,323.33,309.18Zm52.46-2.63a.71.71,0,0,1-.2,0,.61.61,0,0,1-.37-.78,27.67,27.67,0,0,0,1.6-9.29,28,28,0,0,0-2.69-11.95.61.61,0,0,1,.29-.81.6.6,0,0,1,.81.28,29.07,29.07,0,0,1,1.14,22.18A.62.62,0,0,1,375.79,306.55Zm-2.36-24.08a.62.62,0,0,1-.53-.29,27.45,27.45,0,0,0-6.89-7.76.63.63,0,0,1-.13-.86.59.59,0,0,1,.83-.14l.06,0a29.06,29.06,0,0,1,7.18,8.09.62.62,0,0,1-.21.84A.6.6,0,0,1,373.43,282.47ZM327,279.42l-1-.74a28.77,28.77,0,0,1,8.12-7.2.61.61,0,1,1,.62,1A27.68,27.68,0,0,0,327,279.42Zm-.5-.35h0Zm10.32-7.72a.62.62,0,0,1-.55-.35.61.61,0,0,1,.29-.81A29.25,29.25,0,0,1,349,267.4h0a28.68,28.68,0,0,1,9.72,1.68.61.61,0,1,1-.41,1.14,27.78,27.78,0,0,0-9.31-1.6h0a28.09,28.09,0,0,0-11.93,2.67A.58.58,0,0,1,336.84,271.35Z"/><path class="cls-26" d="M323.63,284.29a.7.7,0,0,1-.25-.05L216.78,235.5a.61.61,0,0,1,.5-1.11l106.6,48.74a.61.61,0,0,1-.25,1.16Z"/><path class="cls-26" d="M363.16,272.39a.68.68,0,0,1-.31-.08.61.61,0,0,1-.22-.83l49.64-85.64a.61.61,0,0,1,1.06.62l-49.65,85.63A.6.6,0,0,1,363.16,272.39Z"/><path class="cls-26" d="M491.56,358.86a.69.69,0,0,1-.24-.05l-116.95-49.5a.6.6,0,0,1-.32-.79.61.61,0,0,1,.8-.33l117,49.5a.61.61,0,0,1-.24,1.17Z"/><path class="cls-26" d="M212.53,411.16a.6.6,0,0,1-.46-.21.61.61,0,0,1,.06-.86l113.53-97.4a.61.61,0,1,1,.8.92L212.92,411A.62.62,0,0,1,212.53,411.16Z"/><g class="cls-27"><circle class="cls-28" cx="176.18" cy="441.38" r="47.66" transform="translate(-294.32 374.42) rotate(-60.14)"/><path class="cls-29" d="M573.26,401.6a47.66,47.66,0,1,1-3.58-67.3A47.65,47.65,0,0,1,573.26,401.6Z"/><circle class="cls-30" cx="434.44" cy="143.69" r="47.66" transform="translate(149.97 502.11) rotate(-69.86)"/><circle class="cls-30" cx="176.18" cy="210.39" r="47.66" transform="matrix(0.86, -0.5, 0.5, 0.86, -81.88, 117.08)"/><path class="cls-31" d="M331.65,318.9a28.41,28.41,0,1,1,39.85-5.12A28.41,28.41,0,0,1,331.65,318.9Z"/><line class="cls-32" x1="323.63" y1="283.68" x2="217.03" y2="234.94"/><line class="cls-32" x1="363.16" y1="271.78" x2="412.8" y2="186.15"/><line class="cls-32" x1="374.61" y1="308.75" x2="491.56" y2="358.25"/><line class="cls-32" x1="326.06" y1="313.15" x2="212.53" y2="410.55"/></g><path class="cls-19" d="M405.72,267.42c-4,.64-12.91,30-16.51,33.79-1.89,2-22.5-3.83-22.5-3.83L364.28,305s22.54,9.3,28.68,7c10.27-3.8,15.36-24.95,15.36-24.95Z"/><path class="cls-33" d="M408.32,287a69.93,69.93,0,0,1-3.07,9.26c-1.8,4.45-4.44,9.51-7.87,12.8A13.14,13.14,0,0,1,393,312c-6.13,2.25-28.67-7-28.67-7l2.42-7.58s20.61,5.84,22.5,3.84c3.59-3.84,12.55-33.15,16.51-33.79Z"/><path class="cls-34" d="M365.86,297.49l-7.82-7-4,9.3s8.39,5.43,10.57,3.2Z"/><polygon class="cls-34" points="348.69 291.51 347.6 298.69 354.07 299.75 358.04 290.45 348.69 291.51"/><polygon class="cls-33" points="369.41 297.41 366.47 306.71 362.72 305.05 365.38 296.32 369.41 297.41"/><polygon class="cls-35" points="369.41 297.41 366.47 306.71 362.72 305.05 365.38 296.32 369.41 297.41"/><path class="cls-14" d="M405.25,296.3c-1.8,4.45-4.44,9.51-7.87,12.8-.84-12.37,6.93-22.19,6.93-22.19A30.19,30.19,0,0,1,405.25,296.3Z"/><path class="cls-19" d="M413.65,239.93a41.51,41.51,0,0,1,0,11.35s22.86,3.17,28.41-1.05,8-29.37-4.36-31.78S410.74,224.49,413.65,239.93Z"/><path class="cls-19" d="M395.61,554.53H393.7l-.53-2.36L386.83,555h-16s-2.55-2.57,5.09-4.61A5.85,5.85,0,0,0,377,550c4.08-1.91,9.87-8.36,9.87-8.36h8.81a10.46,10.46,0,0,1,.72,1.27C397.32,544.85,399,548.91,395.61,554.53Z"/><path class="cls-36" d="M396.36,542.91v0c-1.16-1.3-6.45,4.39-10.33,6.33-3.46,1.72-7.35,2.48-9.07.73,4.08-1.91,10.48-10.25,10.48-10.25h7.08S396,542.08,396.36,542.91Z"/><polyline class="cls-36" points="386.83 541.64 390.87 507.1 403.54 510.83 394.73 541.93"/><path class="cls-19" d="M441.66,330.08l-34.6-1.62S397.82,388,397,426.07c-2.71,25.54-5.91,69.15-9,95.85a17.65,17.65,0,0,0,6.58,2.46,18.52,18.52,0,0,0,5.82.27c8-22.92,17.42-60.9,16.77-97.63C441.54,367.66,441.66,330.08,441.66,330.08Z"/><path class="cls-37" d="M441.66,330.08s-.06,21.09-10.36,56.62c-2.71,9.35-6.13,19.7-10.45,30.94q-1.75,4.59-3.72,9.38c.64,36.72-8.78,74.72-16.78,97.63a18.32,18.32,0,0,1-5.81-.28,17.56,17.56,0,0,1-6.59-2.46c3.11-26.69,6.32-70.3,9-95.84.85-38.05,10.1-97.61,10.1-97.61Z"/><path class="cls-14" d="M431.3,386.7c-2.71,9.35-6.13,19.7-10.45,30.94-3-30.34,4.08-47.48,4.08-47.48C428.06,374,430.09,380,431.3,386.7Z"/><path class="cls-19" d="M445.07,554.53h-1.91l-.53-2.36L436.3,555H420.25s-2.55-2.57,5.09-4.61a5.85,5.85,0,0,0,1.08-.42c4.08-1.91,9.88-8.36,9.88-8.36h8.8a10.46,10.46,0,0,1,.72,1.27C446.78,544.85,448.45,548.91,445.07,554.53Z"/><path class="cls-36" d="M445.82,542.91v0c-1.16-1.3-6.45,4.39-10.32,6.33-3.47,1.72-7.35,2.48-9.08.73,4.08-1.91,10.49-10.25,10.49-10.25H444S445.41,542.08,445.82,542.91Z"/><polygon class="cls-36" points="436.3 541.64 436.12 504.67 449.64 505.26 443.78 541.66 436.3 541.64"/><path class="cls-19" d="M434.9,525.23a36.2,36.2,0,0,0,6.51,1.52,14.65,14.65,0,0,0,5.45-.22c6.17-26,12.47-67.94,5.4-93.19,13.49-81.57-4.4-103.39-4.4-103.39l-30.36-3.3s9.77,69,13.08,102.79C433.42,458.42,435.94,492.25,434.9,525.23Z"/><path class="cls-37" d="M434.9,525.23a36.2,36.2,0,0,0,6.51,1.52,14.65,14.65,0,0,0,5.45-.22c6.17-26,12.47-67.94,5.4-93.19,13.49-81.57-4.4-103.39-4.4-103.39l-30.36-3.3s9.77,69,13.08,102.79C433.42,458.42,435.94,492.25,434.9,525.23Z"/><path class="cls-19" d="M442,263.94s-23.63,11.71-21.6,1c0,0-8.72-.08-14.45,3.42,0,0-3.4,14.23,0,52.48l-2.43,18.5,14,4.23,4.61-13.42,5.58,14.12,24.29-7.59L447,322.44s2.46-32.77,9.86-47.75C456.9,274.69,455.73,263.79,442,263.94Z"/><path class="cls-38" d="M442,263.94s-23.63,11.71-21.6,1c0,0-8.72-.08-14.45,3.42,0,0-3.1,15.36,0,52.48l-2.43,18.5,14,4.23,4.61-13.42,5.58,14.12,24.29-7.59L447,322.44s2.46-32.77,9.86-47.75C456.9,274.69,455.73,263.79,442,263.94Z"/><path class="cls-34" d="M440.47,243.59c-1.63,6-3.64,17.09.29,21.12,0,0,5.36,4.29-10.57,3.8-1.39,3.32-6.62,10.41-6.62,10.41s-2.44-6.72-1.33-9.14c-10.24-.88-.24-5.07-.24-5.07,6.85-1.61,7.05-6.6,6.23-11.29Z"/><path class="cls-14" d="M435.48,247.6l-7.25,5.82a18,18,0,0,1,.33,3.33c2.6-.38,6.34-3.2,6.82-5.89A9.2,9.2,0,0,0,435.48,247.6Z"/><path class="cls-34" d="M445.62,231.48c-1.83,9.75-2.39,13.9-7.95,18.57-8.37,7-19.86,3.31-21-6.62-1-8.94,2.18-23.37,12.22-26.59A12.69,12.69,0,0,1,445.62,231.48Z"/><path class="cls-19" d="M437.25,224.44c5.37,6.94-5.67,14.92,5.37,14.46s6.56-16.06,0-19.6S437.25,224.44,437.25,224.44Z"/><path class="cls-19" d="M430.19,233.11c-.12.82-.64,1.46-1.17,1.42s-.86-.74-.74-1.57.64-1.46,1.17-1.42S430.31,232.28,430.19,233.11Z"/><path class="cls-19" d="M420.24,232.52c-.12.82-.64,1.46-1.17,1.42s-.86-.74-.74-1.56.64-1.46,1.17-1.42S420.36,231.69,420.24,232.52Z"/><path class="cls-19" d="M419.72,231l-1.85-.72S418.64,231.92,419.72,231Z"/><path class="cls-39" d="M422.81,234.08a24.54,24.54,0,0,1-3.63,5c.92,1.1,2.8.77,2.8.77Z"/><path class="cls-19" d="M426.19,243.28a9,9,0,0,1-1.38,0,.22.22,0,0,1-.2-.26.26.26,0,0,1,.27-.23,6.91,6.91,0,0,0,5.59-2.17.24.24,0,0,1,.33,0,.25.25,0,0,1,0,.34A7.35,7.35,0,0,1,426.19,243.28Z"/><path class="cls-19" d="M433,228.67a.41.41,0,0,1-.34-.14,3.55,3.55,0,0,0-3.15-1.21.45.45,0,0,1-.54-.38.53.53,0,0,1,.42-.57,4.42,4.42,0,0,1,4,1.48.5.5,0,0,1-.39.82Z"/><path class="cls-19" d="M418,227.78a.44.44,0,0,1-.33-.1.49.49,0,0,1,0-.68,5.09,5.09,0,0,1,4.13-1.84.44.44,0,0,1,.38.53.52.52,0,0,1-.56.43,4.07,4.07,0,0,0-3.25,1.49A.49.49,0,0,1,418,227.78Z"/><path class="cls-19" d="M429.68,231.61l-1.86-.72S428.59,232.51,429.68,231.61Z"/><path class="cls-19" d="M433.48,219s1.91,11.49,9.54,13.41,1.43-11.81,1.43-11.81-1.6-6.22-11.9-6.22-22.2,10.47-18.9,25.51c0,0-.57-5,1.72-9S420,230.41,433.48,219Z"/><path class="cls-19" d="M440.41,216.14c10.9,4.36,14.86,11.49,13.94,19.42s-10.71,16.32-12.29,16.61l-4.9.7s7.54-10.48,6.09-14-2.91-3.9-2.91-3.9Z"/><path class="cls-34" d="M446.57,240.88a6.83,6.83,0,0,1-4.14,3.63c-2.27.6-3.25-2-2.5-4.6.68-2.33,2.68-5.46,4.9-4.9S447.71,238.59,446.57,240.88Z"/><path class="cls-19" d="M445.87,264.39c-7.38,6.84-11.34,43-10.28,54.64s10.28,42.88,10.28,42.88l14.55-1.19s-3.52-21.66-12.5-38.92c0,0,5.72-42.93,11-53.61,0,0-5-2-6.57-2.44C450.65,265.25,445.87,264.39,445.87,264.39Z"/><path class="cls-33" d="M460.43,360.72l-14.57,1.19s-3.08-10.43-5.87-21.49c-1.18-4.61-2.29-9.33-3.12-13.43a80.32,80.32,0,0,1-1.28-8c-.12-1.32-.17-3-.17-4.87.05-14.64,3.91-43.7,10.44-49.77l2.5.46c1.45.3,3.13.64,4,.9,1.55.45,6.56,2.44,6.56,2.44a39.94,39.94,0,0,0-2.15,5.88c-.2.71-.41,1.46-.61,2.23-2.33,8.67-4.52,21.1-6.07,30.77-1.34,8.4-2.18,14.72-2.18,14.72.95,1.83,1.85,3.7,2.66,5.6A157.79,157.79,0,0,1,460.43,360.72Z"/><path class="cls-40" d="M445.87,264.39s5.7,11.73,4.38,23.76l-8.59-6.74,4.89,6.34-11,20.09S436.47,271.94,445.87,264.39Z"/><path class="cls-19" d="M417.52,265s-8.89,15.22-7.31,54.33L404.93,359h-5.81l6.46-39.64s-6.9-29.95.14-51.91A34.52,34.52,0,0,1,417.52,265Z"/><path class="cls-33" d="M417.52,265s-8.89,15.22-7.31,54.33L404.93,359h-5.81l6.46-39.64s-6.9-29.95.14-51.91A34.52,34.52,0,0,1,417.52,265Z"/><path class="cls-40" d="M418.8,265s-1.37-.75-4.45.5S403.87,283,403.87,283l5.64-3.26L406.34,283l3.83,19.55S414.43,267.4,418.8,265Z"/><path class="cls-41" d="M426.87,262.27s-5.26,3.67-4.63,7.51l-9,2.21S418.58,262.91,426.87,262.27Z"/><path class="cls-41" d="M442.86,273.59l-12.55-4.07s6.64-5.36,8.71-8.26l4.15,3.11v0C443.27,264.61,444.5,267.66,442.86,273.59Z"/><path class="cls-42" d="M426.87,262.27s-5.26,3.67-4.63,7.51l-9,2.21S418.58,262.91,426.87,262.27Z"/><path class="cls-42" d="M442.86,273.59l-12.55-4.07s6.64-5.36,8.71-8.26l4.15,3.11v0C443.27,264.61,444.5,267.66,442.86,273.59Z"/><path class="cls-14" d="M450.58,327.39h-1.83c-3.61,0-7.86-.18-11.88-.41-7.76-.44-14.72-1.06-14.72-1.06l.58-9.68,7.77.11.39-.73a31.28,31.28,0,0,0,4.53-1.47,137.21,137.21,0,0,0,13.24-6.3l1.44-.79c-1.34,8.4-2.18,14.72-2.18,14.72C448.87,323.62,449.77,325.49,450.58,327.39Z"/><path class="cls-19" d="M458.93,268.19c4.67,4.12,13,41.33,10.27,46.06S435,324.35,435,324.35l-3-8s25-6.9,25-9.63-4.37-13.78-4.37-13.78-1-12.71,2.52-18.94A34.15,34.15,0,0,1,458.93,268.19Z"/><path class="cls-33" d="M458.93,268.19c4.67,4.12,13,41.33,10.27,46.06S435,324.35,435,324.35l-3-8s25-6.9,25-9.63-4.37-13.78-4.37-13.78-1-12.71,2.52-18.94A34.15,34.15,0,0,1,458.93,268.19Z"/><path class="cls-34" d="M432.6,317.05l-10.44-1.33,2,9.91s10-.32,10.51-3.41Z"/><polygon class="cls-34" points="415.08 321.94 418.29 328.46 424.19 325.63 422.16 315.73 415.08 321.94"/><polygon class="cls-33" points="435.46 314.96 438.36 324.27 434.33 325.05 431.54 316.36 435.46 314.96"/><polygon class="cls-35" points="435.46 314.96 438.36 324.27 434.33 325.05 431.54 316.36 435.46 314.96"/><path class="cls-43" d="M328,335.5l6.3,12.09-12.94,2s-4.1-12.28-.59-14.29Z"/><polyline class="cls-43" points="320.56 358.01 321.34 349.56 334.28 347.58 329.92 358.97"/><polygon class="cls-44" points="326.36 329.52 329.24 336.95 318.79 339.53 315.8 332.16 326.36 329.52"/><polygon class="cls-35" points="326.36 329.52 329.24 336.95 318.79 339.53 315.8 332.16 326.36 329.52"/><path class="cls-19" d="M300.56,240.18c-3.54,3.5-.2,46.63-.09,51.78s15.21,43.31,15.21,43.31l12.19-3.75s-10.65-34-12.46-39.78-1.46-20.66-1.6-27c-.1-4.9-.37-12.61-3.84-17.12S300.56,240.18,300.56,240.18Z"/><path class="cls-38" d="M300.56,240.18c-3.54,3.5-.2,46.63-.09,51.78s15.21,43.31,15.21,43.31l12.19-3.75s-10.65-34-12.46-39.78-1.46-20.66-1.6-27c-.1-4.9-.37-12.61-3.84-17.12S300.56,240.18,300.56,240.18Z"/><path class="cls-43" d="M332.29,290.4l13.18-3.49L344.55,300s-12.88,1.3-14.08-2.57Z"/><polygon class="cls-43" points="355.61 293.68 352.62 302.59 344.55 299.97 345.47 286.91 355.61 293.68"/><path class="cls-44" d="M299.75,255.3l-1.23-12.87c-2.14-.36-3.25-4.28-5.66-4.5-6.07-.55-16-.33-22.93,0-2.28.1-4.57.31-6.73.56l-6.82,27.38c.87,7.52,1.38,14.82,1.67,21.61.83,20-.29,23.62.09,28.43h54c-1.76-31.69-3.4-50.37-4.49-60.61Z"/><path class="cls-35" d="M299.75,255.3l-1.23-12.87c-2.14-.36-3.25-4.28-5.66-4.5-6.07-.55-16-.33-22.93,0-1.43.06-2.86.17-4.27.3L256.72,269c.66,6.4,1.08,12.61,1.33,18.44.83,20-.29,23.62.09,28.43h54c-1.51-31.45-3.21-50.27-4.38-60.61Z"/><path class="cls-44" d="M291,241.3a41.06,41.06,0,0,0-3.35,4.06l-.66,6.21s9.4,27.94,10.13,40.93l-3.44,3.29-6-5.24a350.41,350.41,0,0,0-2.71-38.92l-2.27-5.51s-5.87-2.54-8.32-5.31S291,241.3,291,241.3Z"/><path class="cls-43" d="M270.42,214.76l6.14,5.09,8.35,6.94a29.21,29.21,0,0,0-.53,3.38c-.45,4.53,1.07,5.84,5.71,7.57,0,0,.21,2.88-2.8,6.1,0,.74-2,1.93-2,1.93a13.47,13.47,0,0,0-1.7-1.61C270.74,243.93,269,238,269,238,274,233.05,272.12,222.15,270.42,214.76Z"/><path class="cls-45" d="M284.91,226.79a29.21,29.21,0,0,0-.53,3.38c-3.11-.63-7.28-3.95-7.71-7.13a14.26,14.26,0,0,1-.11-3.19Z"/><path class="cls-46" d="M328,334.5l6.3,12.09-12.94,2s-4.1-12.28-.59-14.29Z"/><polygon class="cls-46" points="329.92 357.97 320.56 357.01 321.34 348.56 334.28 346.58 329.92 357.97"/><path class="cls-19" d="M295.42,187.83s5.48,13-.39,20.06-12.25-18.2-12.25-18.2Z"/><path class="cls-45" d="M276.87,223.93a12.66,12.66,0,0,0,15.32,1.2,14,14,0,0,0,6.21-8.34,11.46,11.46,0,0,0,.32-1.46c1.45-9.18-1.08-24-11.21-27.17a13.76,13.76,0,0,0-17.83,15.19C271.05,213.31,271.39,219.22,276.87,223.93Z"/><path class="cls-46" d="M332.29,289.4l13.18-3.49L344.55,299s-12.88,1.3-14.08-2.57Z"/><polygon class="cls-46" points="355.61 292.68 352.62 301.59 344.55 298.97 345.47 285.91 355.61 292.68"/><path class="cls-46" d="M270.42,213.76l6.14,5.09,8.35,6.94a29.21,29.21,0,0,0-.53,3.38c-.45,4.53,1.07,5.84,5.71,7.57,0,0,.21,2.88-2.8,6.1,0,.74-2,1.93-2,1.93a13.47,13.47,0,0,0-1.7-1.61C270.74,242.93,269,237,269,237,274,232.05,272.12,221.15,270.42,213.76Z"/><path class="cls-46" d="M276.87,223.93c4.75,4.14,10.78,3,15.32.2a14,14,0,0,0,6.21-8.34,11.46,11.46,0,0,0,.32-1.46c1.45-9.18-1.08-24-11.21-27.17A13.75,13.75,0,0,0,270.2,196a18.31,18.31,0,0,0-.52,7.37"/><path class="cls-19" d="M285.11,205c0,.81.54,1.44,1.08,1.4s.91-.75.85-1.56-.55-1.44-1.08-1.4S285.05,204.13,285.11,205Z"/><path class="cls-19" d="M294.32,204.24c0,.81.56,1.44,1.09,1.39s.91-.74.85-1.55-.56-1.44-1.08-1.4S294.27,203.46,294.32,204.24Z"/><path class="cls-45" d="M291.43,204.87a28.93,28.93,0,0,0,4.44,6.67,4.73,4.73,0,0,1-3.86,1Z"/><path class="cls-19" d="M297.4,200.19a.52.52,0,0,1-.51,0,3.84,3.84,0,0,0-3.44-.37.48.48,0,0,1-.64-.23.49.49,0,0,1,.22-.64h0a4.76,4.76,0,0,1,4.35.42.48.48,0,0,1,.18.65h0A.65.65,0,0,1,297.4,200.19Z"/><path class="cls-19" d="M283,201.44a.52.52,0,0,1-.27-.07.49.49,0,0,1,0-.68h0a4.78,4.78,0,0,1,4.14-1.46.49.49,0,0,1,.37.57h0a.49.49,0,0,1-.56.37h0a3.87,3.87,0,0,0-3.26,1.21A.54.54,0,0,1,283,201.44Z"/><path class="cls-19" d="M276.05,190.28l1.11,1.78c-3.16,1.49-2,5.23-1.14,6.88,1.89,3.51.52,9.51-2,12.16,0,0-.29-1.59-1.59-1s0,7.43,0,7.43-1.14,2-4.5-6.51c-3.1-7.83-4.22-14.54-2.95-17.89Z"/><path class="cls-46" d="M266,211.91a9.59,9.59,0,0,0,5.84,4.39c3.25.81,4.79-2.12,3.82-5.15-.89-2.68-3.64-6.43-6.87-5.87S264.4,209.21,266,211.91Z"/><path class="cls-19" d="M291.57,214.59a29.38,29.38,0,0,0-2.05,3.84l-.74-.2c-3.36-.92-4.61-2.45-5-3.87a4.44,4.44,0,0,1,0-2.12,4.33,4.33,0,0,1,.41-1.14c1.49,1.54,4.55,2.64,6.21,3.16C291.12,214.48,291.57,214.59,291.57,214.59Z"/><path class="cls-11" d="M290.43,214.26l-.63,1.11c-3.16-.87-5.27-1.91-6-3.13a4.33,4.33,0,0,1,.41-1.14C285.71,212.64,288.77,213.74,290.43,214.26Z"/><path class="cls-47" d="M288.78,218.23c-3.36-.92-4.61-2.45-5-3.87a11.14,11.14,0,0,1,3.52,1.75A4.25,4.25,0,0,1,288.78,218.23Z"/><path class="cls-19" d="M293.65,192.37s3.35-3.81,2.61-8.48c0,0-19.22-3.31-28,0S265,201.45,265,201.45s9-7.44,12.21-9.39,13.1,1.56,13.1,1.56Z"/><path class="cls-44" d="M271.25,232.48s2.46,6.47,11.87,11.05l2.53,2.33-4.21-1.07-4.28,5.4-11.9-11.92S269.17,232.55,271.25,232.48Z"/><path class="cls-44" d="M285.65,245.86l.68-3.72s.56-4.14-.92-7c0,0-.59-.13-.92-1.72l1.58.41s8.42,3.3,9.63,14.22L289,243.39Z"/><path class="cls-9" d="M285.65,245.86l.68-3.72s.56-4.14-.92-7c0,0-.59-.13-.92-1.72l1.58.41s8.42,3.3,9.63,14.22L289,243.39Z"/><path class="cls-9" d="M271.25,232.48s2.46,6.47,11.87,11.05l2.53,2.33-4.21-1.07-4.28,5.4-11.9-11.92S269.17,232.55,271.25,232.48Z"/><polygon class="cls-46" points="307.31 544.6 318.66 545.79 319.24 539.21 320.79 521.31 309.44 520.11 307.72 539.88 307.31 544.6"/><polygon class="cls-46" points="250.65 543.16 261.65 543.16 261.75 540.67 261.76 540.36 262.32 524.4 262.34 524.08 262.56 517.97 251.54 517.97 250.65 543.16"/><polygon class="cls-18" points="309.44 520.11 307.72 539.88 319.24 539.21 320.79 521.31 309.44 520.11"/><polygon class="cls-18" points="250.72 541.76 250.73 541.76 261.75 540.36 261.76 540.36 262.34 524.96 262.32 524.96 251.29 525.85 250.73 541.28 250.72 541.76"/><path class="cls-19" d="M263.18,542.5H249.81a1,1,0,0,0-.94.75l-2.17,9.8A1.64,1.64,0,0,0,248,555l.36,0c4.33-.07,7.48-.33,12.91-.33,3.34,0,13.43.35,18,.35s5.23-4.57,3.34-5c-8.49-1.84-14.87-4.41-17.59-6.84A2.66,2.66,0,0,0,263.18,542.5Z"/><path class="cls-19" d="M319.87,542.15H306.5a1,1,0,0,0-.94.75l-2.17,9.8a1.64,1.64,0,0,0,1.25,1.93l.36,0c4.33-.07,7.48-.33,12.91-.33,3.34,0,13.44.35,18,.35s5.23-4.57,3.34-5c-8.49-1.84-14.87-4.41-17.59-6.84A2.66,2.66,0,0,0,319.87,542.15Z"/><path class="cls-19" d="M249.24,539h15.94s12.83-48.62,17.9-83.61c.8-5.44,1.65-12.56,2.5-20.87,1.36-13.41,2.74-29.5,4-45,3.81,10.23,6.71,24.87,8.95,41.47a791.2,791.2,0,0,1,7.18,106.6h16.14c10.36-79.15.61-159.59-6.15-201.35-1.38-8.47-2.63-15.34-3.57-20.3h-54c0,1.13.36,9.32.84,21.29,1.09,27.25,2.64,74.1,1,101.41C258.59,462.34,249.24,539,249.24,539Z"/><path class="cls-44" d="M325.44,544.08a13,13,0,0,1-2.67.49.25.25,0,0,1-.23-.12.27.27,0,0,1,0-.26c.24-.31,2.35-3.05,3.67-3a.89.89,0,0,1,.73.47,1.29,1.29,0,0,1,.12,1.3A2.75,2.75,0,0,1,325.44,544.08Zm-2.16,0c1.83-.21,3.07-.67,3.38-1.27a.87.87,0,0,0-.1-.85.42.42,0,0,0-.35-.23C325.5,541.65,324.16,543,323.28,544Z"/><path class="cls-44" d="M322.82,544.56h-.11a.25.25,0,0,1-.18-.15c0-.11-1.16-2.8-.49-4a1.19,1.19,0,0,1,.85-.62.9.9,0,0,1,1,.42c.56,1-.22,3.44-1,4.32A.41.41,0,0,1,322.82,544.56Zm.05-4.32a.76.76,0,0,0-.42.35c-.39.75,0,2.35.36,3.26.61-1,1.07-2.81.7-3.45-.07-.12-.19-.25-.53-.19Z"/><path class="cls-44" d="M268.75,544.08a13,13,0,0,1-2.67.49.25.25,0,0,1-.23-.12.27.27,0,0,1,0-.26c.24-.31,2.35-3.05,3.68-3a.88.88,0,0,1,.72.47,1.29,1.29,0,0,1,.12,1.3A2.75,2.75,0,0,1,268.75,544.08Zm-2.16,0c1.83-.21,3.07-.67,3.38-1.27a.87.87,0,0,0-.1-.85.42.42,0,0,0-.35-.23C268.81,541.65,267.47,543,266.59,544Z"/><path class="cls-44" d="M266.13,544.56H266a.25.25,0,0,1-.18-.15c0-.11-1.16-2.8-.49-4a1.19,1.19,0,0,1,.85-.62.9.9,0,0,1,1,.42c.56,1-.22,3.44-1,4.32A.41.41,0,0,1,266.13,544.56Zm.05-4.32a.76.76,0,0,0-.42.35c-.39.75,0,2.35.36,3.26.61-1,1.07-2.81.7-3.45-.07-.12-.19-.25-.53-.19Z"/><path class="cls-38" d="M289.56,389.48c3.81,10.25,6.72,24.88,8.95,41.48,5.43-22.21-7.54-63.27-7.54-63.27Z"/><path class="cls-19" d="M313.6,325.52l-.86-13.6H259.43s-1.66,3.2-1.49,12.38Z"/><rect x="307.89" y="313.64" width="5.71" height="3.94"/><rect x="282.2" y="313.64" width="24.08" height="3.94"/><rect x="259.72" y="313.64" width="20.87" height="3.94"/><path class="cls-38" d="M258.15,315.91c0,1.13.36,9.32.84,21.29,10.3,2.65,33.14,1.77,33.14,1.77l2.11-1.61L295,339l20.65-2.76c-1.38-8.47-2.63-15.34-3.57-20.3Z"/><rect class="cls-11" x="292.12" y="313.37" width="6.52" height="4.48" rx="0.55" transform="translate(590.77 631.21) rotate(180)"/><path class="cls-19" d="M294.38,324.08a66.07,66.07,0,0,1-2.26,11.65l-36.46-1.07s.72-28.71,1-40.39c.12-4.42-.68-13.24-1.71-22.47-.64-5.82-1.39-11.81-2.06-17,0-.39-.09-.76-.11-1.15a16,16,0,0,1,12.45-16.54l26.79,41.39.07.11s.18,1,.45,2.74c.56,3.58,1.5,10.33,2,18.3A142.57,142.57,0,0,1,294.38,324.08Z"/><path class="cls-19" d="M267.11,235.82l-3.34,1.41,1.49,9.61,6.22,5.33-2,6.83,22.6,19.63S274.19,251.26,267.11,235.82Z"/><path class="cls-48" d="M267.11,235.82l-3.34,1.41,1.49,9.61,6.22,5.33-2,6.83,22.6,19.63S274.19,251.26,267.11,235.82Z"/><path class="cls-19" d="M316.77,333.09l-21.39,1.45-1-10.46h0L292,299l-1.55-16.23c.25-.6.49-1.19.7-1.78.33-.84.64-1.65.92-2.47,10.54-29.43-.84-40.92-.84-40.92a22.65,22.65,0,0,1,15.07,7c3.93,8.67,7.09,23.37,7.43,38.67.18,8.47.08,15.92,0,20.12,0,2.28-.09,3.6-.09,3.6Z"/><path class="cls-19" d="M291.21,237.59s8.46,4.16,11.79,11.72l-1.92,2.5,4.15,7-14.8,23.95S296.8,246.43,291.21,237.59Z"/><path class="cls-48" d="M291.21,237.59s8.46,4.16,11.79,11.72l-1.92,2.5,4.15,7-14.8,23.95S296.8,246.43,291.21,237.59Z"/><path class="cls-38" d="M313.69,303.39c-4.75-.73-12-1.95-19.09-3.72-.88-.2-1.75-.43-2.62-.67a69.37,69.37,0,0,1-11.27-3.9c-9-4.26-20.07-16.5-25.73-23.3-.64-5.82-1.39-11.81-2.06-17,0-.39-.09-.76-.11-1.15h14s20.6,25,24.34,27.32a2.1,2.1,0,0,0,.31.15,8.54,8.54,0,0,0,1.13.23c3.76.59,14.39,1.41,21.14,1.9C313.89,291.74,313.79,299.19,313.69,303.39Z"/><polygon class="cls-44" points="326.36 289.12 334.28 289.88 331.9 300.38 323.98 299.75 326.36 289.12"/><polygon class="cls-35" points="326.36 289.12 334.28 289.88 331.9 300.38 323.98 299.75 326.36 289.12"/><path class="cls-19" d="M253.51,248c-6.35,19.11,20.48,39.9,27.2,45.4s46.62,7.8,46.62,7.8l2.1-12.55s-36.34-4.15-39-5.9-20-23.5-24.51-30.38S253.51,248,253.51,248Z"/></g></svg>