<svg xmlns="http://www.w3.org/2000/svg" viewBox="0 0 700 640"><defs><style>.cls-1{fill:#f5f5f5;}.cls-2{fill:#e8e8e8;}.cls-3{fill:#e1e1e1;}.cls-11,.cls-23,.cls-32,.cls-36,.cls-4{fill:#fff;}.cls-5{fill:#ececec;}.cls-6{opacity:0.15;}.cls-7{fill:#d268cc;}.cls-11,.cls-35,.cls-8{opacity:0.2;}.cls-9{fill:#00dfdf;}.cls-10,.cls-23,.cls-26{opacity:0.3;}.cls-12{opacity:0.1;}.cls-13{fill:#375a64;}.cls-14{fill:#054641;}.cls-15{fill:#ffaaa8;}.cls-16{fill:#142329;}.cls-17{fill:#1a2e35;}.cls-18,.cls-25,.cls-32{opacity:0.4;}.cls-19{fill:#ff9090;}.cls-20{fill:#ffa9a7;}.cls-21{fill:#2b454e;}.cls-22{fill:#e0e0e0;}.cls-24{fill:#00dfbf;}.cls-27{fill:#00c6a5;}.cls-28{fill:#02a888;}.cls-29{opacity:0.7;}.cls-30{fill:#5de1d7;}.cls-31{isolation:isolate;}.cls-33,.cls-36{opacity:0.6;}.cls-34{fill:#693166;}.cls-37{fill:#fafafa;}.cls-38{fill:#177a70;}</style></defs><title>Illustration</title><g id="Layer_4" data-name="Layer 4"><path class="cls-1" d="M573.42,309.09c-124.2-71.71-324.91-71.71-448.3,0s-122.74,188,1.46,259.67,324.91,71.71,448.31,0S697.62,380.8,573.42,309.09Z"/><path class="cls-2" d="M216.11,427.51c41.61-24,108.85-24,150.19,0,36.53,21.22,40.58,54.09,12.34,78,22.79-1.41,46.41,2.93,63.81,13.05,30.55,17.75,30.39,46.53-.36,64.29s-80.44,17.75-111,0c-24.3-14.13-29.14-35.23-14.63-52.21-35,5.07-73.57-.32-100.85-16.17C174.28,490.48,174.5,451.53,216.11,427.51Z"/><path class="cls-3" d="M123.15,487.26c-9.19-5.3-24-5.3-33.16,0s-9.08,13.9.11,19.21,24,5.3,33.16,0S132.34,492.56,123.15,487.26Z"/><path class="cls-4" d="M128.86,456.74l-22.24.65-22.24-.65c-1,15,2,30.33,6,37.81h0A10.13,10.13,0,0,0,94.82,499c6.56,3.79,17.17,3.79,23.69,0a9.87,9.87,0,0,0,4.4-4.59C126.92,486.91,129.82,471.69,128.86,456.74Z"/><path class="cls-5" d="M122.3,447.63c8.71,5,8.76,13.19.1,18.22s-22.74,5-31.45,0-8.76-13.19-.11-18.22S113.58,442.6,122.3,447.63Z"/><path class="cls-3" d="M118.85,449.63c6.8,3.93,6.84,10.29.08,14.22s-17.74,3.92-24.54,0-6.83-10.29-.08-14.22S112.05,445.71,118.85,449.63Z"/><g class="cls-6"><path d="M118.85,449.63c6.8,3.93,6.84,10.29.08,14.22s-17.74,3.92-24.54,0-6.83-10.29-.08-14.22S112.05,445.71,118.85,449.63Z"/></g><path class="cls-7" d="M143.19,361.83c-50.12,16.41-50.58,49.94-39.28,73.82,2.85,4.84,11.48,7.43,19-22.27l-13.17,1.69,15.34-7.77,4-11.92-12.79.95,16.23-6.83C138.48,371.41,143.19,361.83,143.19,361.83Z"/><path class="cls-8" d="M143.19,361.83c-50.12,16.41-50.58,49.94-39.28,73.82,2.85,4.84,11.48,7.43,19-22.27l-13.17,1.69,15.34-7.77,4-11.92-12.79.95,16.23-6.83C138.48,371.41,143.19,361.83,143.19,361.83Z"/><path class="cls-9" d="M143.19,361.83c-50.12,16.41-50.58,49.94-39.28,73.82,2.85,4.84,11.48,7.43,19-22.27l-13.17,1.69,15.34-7.77,4-11.92-12.79.95,16.23-6.83C138.48,371.41,143.19,361.83,143.19,361.83Z"/><path class="cls-10" d="M143.19,361.83c-50.12,16.41-50.58,49.94-39.28,73.82,2.85,4.84,11.48,7.43,19-22.27l-13.17,1.69,15.34-7.77,4-11.92-12.79.95,16.23-6.83C138.48,371.41,143.19,361.83,143.19,361.83Z"/><path class="cls-4" d="M129,370.21c-26.44,20.07-28.82,43.07-21.36,67.08C105,416.15,102.17,394.77,129,370.21Z"/><path class="cls-7" d="M58.29,395.89c49.41,7,55.41,38.11,48.85,62.23-1.85,5-9.45,8.83-21.38-17.59l12.55-.61-15.59-4.69L77,424.79l12.08-1.24-16.26-3.66C64.27,404,58.29,395.89,58.29,395.89Z"/><path class="cls-11" d="M58.29,395.89c49.41,7,55.41,38.11,48.85,62.23-1.85,5-9.45,8.83-21.38-17.59l12.55-.61-15.59-4.69L77,424.79l12.08-1.24-16.26-3.66C64.27,404,58.29,395.89,58.29,395.89Z"/><path class="cls-9" d="M58.29,395.89c49.41,7,55.41,38.11,48.85,62.23-1.85,5-9.45,8.83-21.38-17.59l12.55-.61-15.59-4.69L77,424.79l12.08-1.24-16.26-3.66C64.27,404,58.29,395.89,58.29,395.89Z"/><path class="cls-12" d="M58.29,395.89c49.41,7,55.41,38.11,48.85,62.23-1.85,5-9.45,8.83-21.38-17.59l12.55-.61-15.59-4.69L77,424.79l12.08-1.24-16.26-3.66C64.27,404,58.29,395.89,58.29,395.89Z"/><path class="cls-4" d="M72.89,401.35c28,14.29,34,35.31,31,58.92C102.87,440.14,102,419.75,72.89,401.35Z"/><path class="cls-7" d="M157.65,407.57c-45.31.74-54.2,28.15-51,50.62,1.11,4.69,7.53,9,21.24-13.46l-11.24-2,14.57-2.49,6.3-8.76-10.74-2.47,15.06-1.48A206.34,206.34,0,0,1,157.65,407.57Z"/><path class="cls-4" d="M143.89,410.85c-26.79,9.75-34.6,28-34.56,49.63C112.53,442.46,115.61,424.18,143.89,410.85Z"/><path class="cls-9" d="M157.65,407.57c-45.31.74-54.2,28.15-51,50.62,1.11,4.69,7.53,9,21.24-13.46l-11.24-2,14.57-2.49,6.3-8.76-10.74-2.47,15.06-1.48A206.34,206.34,0,0,1,157.65,407.57Z"/><path class="cls-13" d="M346.2,344.74c14.19,9.85,30.17,16.67,42,29.88,22.13,24.67,22.65,64.38,5.27,92.6s-49.72,45.18-82.64,49.06c-34.54,4.07-70.78-5.47-97.88-27.27s-44.34-55.86-44.33-90.64S186.47,329,215.6,310c26.58-17.33,64.77-22.28,91.43-2.44,13.48,10,22.47,24.82,35.92,34.88C344,343.2,345.1,344,346.2,344.74Z"/><path class="cls-8" d="M346.2,344.74c14.19,9.85,30.17,16.67,42,29.88,22.13,24.67,22.65,64.38,5.27,92.6s-49.72,45.18-82.64,49.06c-34.54,4.07-70.78-5.47-97.88-27.27s-44.34-55.86-44.33-90.64S186.47,329,215.6,310c26.58-17.33,64.77-22.28,91.43-2.44,13.48,10,22.47,24.82,35.92,34.88C344,343.2,345.1,344,346.2,344.74Z"/><path class="cls-14" d="M346.2,344.74c14.19,9.85,30.17,16.67,42,29.88,22.13,24.67,22.65,64.38,5.27,92.6s-49.72,45.18-82.64,49.06c-34.54,4.07-70.78-5.47-97.88-27.27s-44.34-55.86-44.33-90.64S186.47,329,215.6,310c26.58-17.33,64.77-22.28,91.43-2.44,13.48,10,22.47,24.82,35.92,34.88C344,343.2,345.1,344,346.2,344.74Z"/><path class="cls-12" d="M340.42,489.31c0-.23-.07-.47-.1-.7-2.26-15.81-14.58-28.11-30.27-31.12a118.1,118.1,0,0,1-38.77-14.85c-8.47-5.12-16.47-11.4-26-14.18-8.77-2.56-19.69-2.17-28,1.63,8-8.39,21.68-12.08,32.62-8.29-7.57-11.59-14.24-24.08-16.85-37.68s-.75-28.53,7.45-39.68a39.92,39.92,0,0,1,61.64-3.3c8.12,8.88,12.7,21.39,18,32.18C324,381.07,328,389,334.3,394.91c9.53,8.91,23.24,12.12,33.11,20.65,11.21,9.67,16,25.12,16.09,39.92,0,10-1.85,19.81-4.34,29.51a112.13,112.13,0,0,1-40.51,24.78A44.11,44.11,0,0,0,340.42,489.31Z"/><path class="cls-4" d="M187.19,393.6a101.48,101.48,0,0,1,86.58-98.55,71.83,71.83,0,0,1,9.8,1.64,99,99,0,0,0-93.71,97c-.63,32.37,15.2,65.36,42.35,88.25,21.29,17.94,49.56,29.84,80.63,34.12l-2,.26c-2.79.33-5.6.56-8.41.71-27.6-5.35-52.6-16.73-71.95-33C202.72,460.54,186.53,426.76,187.19,393.6Z"/><path class="cls-15" d="M376.59,478.5c-1.45,5.76-1.73,16.15-1.73,16.15L371,493.2a9.9,9.9,0,0,0-10.65,2.43l-.19.2a3.86,3.86,0,0,1-5.32.24h0a3.86,3.86,0,0,1-1.32-2.79L353,477Z"/><path class="cls-1" d="M361.8,539.11c7.95,8.51,22.59,15.94,33.23,8.68l-1.2,2.71c-10.63,7.26-25.28-.18-33.23-8.68s-2.79-14.4-9.94-22a26,26,0,0,1-6.19-9.19c.32-.81.62-1.87,1-3.08a32.57,32.57,0,0,0,6.38,9.57C359,524.71,353.85,530.6,361.8,539.11Z"/><path class="cls-7" d="M349.39,498.71a15.43,15.43,0,0,0,2.5-5.8,3.35,3.35,0,0,1,1.57-2.36l.09,2.73a3.86,3.86,0,0,0,6.64,2.55l.19-.2A9.9,9.9,0,0,1,371,493.2l3.89,1.47a3,3,0,0,1,1.94,2.87c-.25,11.15,5,26,10.42,34.1,5.62,2.33,10.47,10,8,15.6l-.24.55c-10.64,7.26-25.28-.17-33.23-8.68s-2.79-14.4-9.95-21.94a32.57,32.57,0,0,1-6.38-9.57A34.75,34.75,0,0,1,349.39,498.71Z"/><path class="cls-10" d="M349.39,498.71a15.43,15.43,0,0,0,2.5-5.8,3.35,3.35,0,0,1,1.57-2.36l.09,2.73a3.86,3.86,0,0,0,6.64,2.55l.19-.2A9.9,9.9,0,0,1,371,493.2l3.89,1.47a3,3,0,0,1,1.94,2.87c-.25,11.15,5,26,10.42,34.1,5.62,2.33,10.47,10,8,15.6l-.24.55c-10.64,7.26-25.28-.17-33.23-8.68s-2.79-14.4-9.95-21.94a32.57,32.57,0,0,1-6.38-9.57A34.75,34.75,0,0,1,349.39,498.71Z"/><path class="cls-16" d="M349.39,498.71a15.43,15.43,0,0,0,2.5-5.8,3.35,3.35,0,0,1,1.57-2.36l.09,2.73a3.86,3.86,0,0,0,6.64,2.55l.19-.2A9.9,9.9,0,0,1,371,493.2l3.89,1.47a3,3,0,0,1,1.94,2.87c-.25,11.15,5,26,10.42,34.1,5.62,2.33,10.47,10,8,15.6l-.24.55c-10.64,7.26-25.28-.17-33.23-8.68s-2.79-14.4-9.95-21.94a32.57,32.57,0,0,1-6.38-9.57A34.75,34.75,0,0,1,349.39,498.71Z"/><path class="cls-4" d="M364.94,514.81a1.36,1.36,0,0,1-1.25-2.41,15.53,15.53,0,0,1,15.27,0c.24.88.49,1.76.76,2.63C375.22,512.76,370.65,511.93,364.94,514.81Z"/><path class="cls-4" d="M363,508.78a1.36,1.36,0,0,1-1.25-2.41,16.32,16.32,0,0,1,15.9.13c.16.9.34,1.82.55,2.73C373.54,506.79,368.86,505.81,363,508.78Z"/><path class="cls-4" d="M367.09,520.81a1.36,1.36,0,0,1-1.25-2.41,15.5,15.5,0,0,1,15-.15c.34,1,.69,1.87,1.06,2.78C377.35,518.75,372.79,517.93,367.09,520.81Z"/><path class="cls-4" d="M387.28,531.64c5.62,2.33,10.47,10,8,15.6l-.24.55c-10.48,7.15-24.84,0-32.86-8.31C368.86,526.36,382.86,529.63,387.28,531.64Z"/><path class="cls-4" d="M369.44,526.67a1.36,1.36,0,0,1-1.25-2.41,15.53,15.53,0,0,1,15-.14c.47,1,1,2,1.46,3C380,524.67,375.32,523.7,369.44,526.67Z"/><path class="cls-15" d="M393.3,510.92c1,5.86,4.94,15.48,4.94,15.48l-4.09.22a9.91,9.91,0,0,0-8.76,6.52l-.1.25a3.84,3.84,0,0,1-4.77,2.37h0a3.81,3.81,0,0,1-2.33-2L371.14,519Z"/><path class="cls-1" d="M404.23,572.35c10.71,4.57,27.11,5.46,33.91-5.47v3c-6.8,10.93-23.2,10-33.91,5.47s-8.36-12-18-16.07a25.91,25.91,0,0,1-9.37-5.91c0-.87-.19-2-.34-3.22a32.58,32.58,0,0,0,9.71,6.18C395.87,560.3,393.53,567.77,404.23,572.35Z"/><path class="cls-7" d="M376.57,540.4a15.47,15.47,0,0,0-.05-6.32,3.32,3.32,0,0,1,.49-2.8l1.18,2.47a3.86,3.86,0,0,0,7.1-.36l.1-.25a9.91,9.91,0,0,1,8.76-6.52l4.16-.23a3,3,0,0,1,2.92,1.84c4.28,10.31,15,21.76,23.3,27,6.08-.14,13.61,4.91,13.61,11v.61c-6.8,10.93-23.2,10-33.91,5.47s-8.36-12.05-18-16.06a32.58,32.58,0,0,1-9.71-6.18A35.49,35.49,0,0,1,376.57,540.4Z"/><path class="cls-10" d="M376.57,540.4a15.47,15.47,0,0,0-.05-6.32,3.32,3.32,0,0,1,.49-2.8l1.18,2.47a3.86,3.86,0,0,0,7.1-.36l.1-.25a9.91,9.91,0,0,1,8.76-6.52l4.16-.23a3,3,0,0,1,2.92,1.84c4.28,10.31,15,21.76,23.3,27,6.08-.14,13.61,4.91,13.61,11v.61c-6.8,10.93-23.2,10-33.91,5.47s-8.36-12.05-18-16.06a32.58,32.58,0,0,1-9.71-6.18A35.49,35.49,0,0,1,376.57,540.4Z"/><path class="cls-16" d="M376.57,540.4a15.47,15.47,0,0,0-.05-6.32,3.32,3.32,0,0,1,.49-2.8l1.18,2.47a3.86,3.86,0,0,0,7.1-.36l.1-.25a9.91,9.91,0,0,1,8.76-6.52l4.16-.23a3,3,0,0,1,2.92,1.84c4.28,10.31,15,21.76,23.3,27,6.08-.14,13.61,4.91,13.61,11v.61c-6.8,10.93-23.2,10-33.91,5.47s-8.36-12.05-18-16.06a32.58,32.58,0,0,1-9.71-6.18A35.49,35.49,0,0,1,376.57,540.4Z"/><path class="cls-4" d="M397.3,548.85a1.36,1.36,0,0,1-2.11-1.7,15.53,15.53,0,0,1,14-6.15c.57.71,1.15,1.41,1.75,2.1C405.88,542.82,401.36,543.9,397.3,548.85Z"/><path class="cls-4" d="M393.08,544.12a1.36,1.36,0,0,1-2.12-1.7,16.32,16.32,0,0,1,14.59-6.3c.52.77,1.06,1.53,1.61,2.28C401.93,538,397.26,539,393.08,544.12Z"/><path class="cls-4" d="M401.69,553.47a1.36,1.36,0,0,1-2.12-1.7,15.49,15.49,0,0,1,13.62-6.17c.69.73,1.39,1.43,2.09,2.12C410.25,547.45,405.74,548.53,401.69,553.47Z"/><path class="cls-4" d="M424.53,555.23c6.08-.14,13.61,4.91,13.61,11v.61c-6.7,10.77-22.7,10.06-33.42,5.66C405.55,557.83,419.67,555.18,424.53,555.23Z"/><path class="cls-4" d="M406.21,557.88a1.36,1.36,0,0,1-2.12-1.7A15.49,15.49,0,0,1,417.74,550c.85.76,1.7,1.48,2.55,2.15C415.06,551.8,410.39,552.79,406.21,557.88Z"/><path class="cls-17" d="M330.4,371.64,384,401.5a26.55,26.55,0,0,1,13.19,28.05l-10.4,56,8.53,27.1c-7.36,9.87-24.26,10.37-24.26,10.37-9.42-18.9-16.34-26.93-21.69-42.77s-8.92-26.77-8.92-26.77l-44.52-12.17a52.74,52.74,0,0,1-38.57-44.87c-.76-6.73-.79-11.33-.79-11.33Z"/><path class="cls-8" d="M330,386.7A25.35,25.35,0,0,1,324,403l37.82,23.68a27.14,27.14,0,0,1,11.57,15.09l13.39,43.78-12.07-48.75a22.1,22.1,0,0,0-9.84-13.49L330,401.76C333.52,392.83,330,386.7,330,386.7Z"/><path class="cls-3" d="M287.63,407.63a2.17,2.17,0,0,0,.07.71.07.07,0,0,1,0,.05,2.38,2.38,0,0,0,.28.55l0,.06a3.88,3.88,0,0,0,.48.54l0,0a4.68,4.68,0,0,0,.73.51l39.22,22.8a6.42,6.42,0,0,0,1.13.49l.43.13a4.74,4.74,0,0,0,.57.15c.23,0,.46.09.7.11l.16,0c.32,0,.64,0,1,0h.16c.31,0,.63,0,.94,0l.14,0a8.83,8.83,0,0,0,.92-.15l.16-.05a4.84,4.84,0,0,0,.79-.24l.15,0a7.57,7.57,0,0,0,.86-.41l64.72-37.36A6.23,6.23,0,0,0,402,395l.18-.2a3.88,3.88,0,0,0,.34-.38,1.41,1.41,0,0,0,.13-.24,2.61,2.61,0,0,0,.19-.37,1.26,1.26,0,0,0,0-.27,1.51,1.51,0,0,0,.06-.36v2.29a1.68,1.68,0,0,1-.06.37,1.17,1.17,0,0,1,0,.26,1.85,1.85,0,0,1-.19.37,1.49,1.49,0,0,1-.13.25,2.92,2.92,0,0,1-.34.37,1.71,1.71,0,0,1-.18.2,5.24,5.24,0,0,1-.73.52l-64.72,37.36a6.18,6.18,0,0,1-.86.41l-.15.05a8.16,8.16,0,0,1-.79.24l-.16,0a8.82,8.82,0,0,1-.92.16h-.14c-.31,0-.63.05-.94.06h-.16c-.32,0-.64,0-1-.06l-.16,0c-.24,0-.47-.07-.7-.12l-.57-.14-.43-.13a6.44,6.44,0,0,1-1.13-.5l-39.22-22.79a4.71,4.71,0,0,1-.73-.52s0,0,0,0a3,3,0,0,1-.48-.54l0-.06a2.2,2.2,0,0,1-.28-.55.11.11,0,0,0,0-.05,2.24,2.24,0,0,1-.05-.52h0v-2.49Z"/><path class="cls-8" d="M287.63,407.63a2.17,2.17,0,0,0,.07.71.07.07,0,0,1,0,.05,2.38,2.38,0,0,0,.28.55l0,.06a3.88,3.88,0,0,0,.48.54l0,0a4.68,4.68,0,0,0,.73.51l39.22,22.8a6.42,6.42,0,0,0,1.13.49l.43.13a4.74,4.74,0,0,0,.57.15c.23,0,.46.09.7.11l.16,0c.32,0,.64,0,1,0h.16c.31,0,.63,0,.94,0l.14,0a8.83,8.83,0,0,0,.92-.15l.16-.05a4.84,4.84,0,0,0,.79-.24l.15,0a7.57,7.57,0,0,0,.86-.41l64.72-37.36A6.23,6.23,0,0,0,402,395l.18-.2a3.88,3.88,0,0,0,.34-.38,1.41,1.41,0,0,0,.13-.24,2.61,2.61,0,0,0,.19-.37,1.26,1.26,0,0,0,0-.27,1.51,1.51,0,0,0,.06-.36v2.29a1.68,1.68,0,0,1-.06.37,1.17,1.17,0,0,1,0,.26,1.85,1.85,0,0,1-.19.37,1.49,1.49,0,0,1-.13.25,2.92,2.92,0,0,1-.34.37,1.71,1.71,0,0,1-.18.2,5.24,5.24,0,0,1-.73.52l-64.72,37.36a6.18,6.18,0,0,1-.86.41l-.15.05a8.16,8.16,0,0,1-.79.24l-.16,0a8.82,8.82,0,0,1-.92.16h-.14c-.31,0-.63.05-.94.06h-.16c-.32,0-.64,0-1-.06l-.16,0c-.24,0-.47-.07-.7-.12l-.57-.14-.43-.13a6.44,6.44,0,0,1-1.13-.5l-39.22-22.79a4.71,4.71,0,0,1-.73-.52s0,0,0,0a3,3,0,0,1-.48-.54l0-.06a2.2,2.2,0,0,1-.28-.55.11.11,0,0,0,0-.05,2.24,2.24,0,0,1-.05-.52h0v-2.49Z"/><path class="cls-3" d="M402.84,393.81a2.61,2.61,0,0,1-.19.37,1.41,1.41,0,0,1-.13.24,3.88,3.88,0,0,1-.34.38l-.18.2a6.23,6.23,0,0,1-.73.52l-64.72,37.36a7.57,7.57,0,0,1-.86.41l-.15,0a4.84,4.84,0,0,1-.79.24l-.16.05a8.83,8.83,0,0,1-.92.15l-.14,0c-.31,0-.63,0-.94,0h-.16c-.32,0-.64,0-1,0l-.16,0c-.24,0-.47-.07-.7-.11a4.74,4.74,0,0,1-.57-.15l-.43-.13a6.42,6.42,0,0,1-1.13-.49l-39.22-22.8a4.68,4.68,0,0,1-.73-.51l0,0A3.88,3.88,0,0,1,288,409l0-.06a2.38,2.38,0,0,1-.28-.55.07.07,0,0,0,0-.05,2.17,2.17,0,0,1-.07-.71,2.93,2.93,0,0,1,1.67-2.22L354,368.05a8.86,8.86,0,0,1,8.05,0l39.22,22.8a2.82,2.82,0,0,1,1.66,2.33,1.51,1.51,0,0,1-.06.36A1.26,1.26,0,0,1,402.84,393.81Z"/><path class="cls-3" d="M397.45,393.18l-62.87,36.29-.24.12-.14.05a5.06,5.06,0,0,1-.49.14l-.35.07-.24,0-.61,0h-.05a5.36,5.36,0,0,1-.65,0l-.41-.08-.51-.13a2.05,2.05,0,0,1-.43-.18l-20.23-11.76,64.94-37.49Z"/><path class="cls-17" d="M332.44,429.91h0Z"/><path class="cls-3" d="M337.64,383.19l11.83,7a1.2,1.2,0,0,1,0,2.07l-17.68,10.21a2,2,0,0,1-2,0l-11.83-7a1.2,1.2,0,0,1,0-2.07l17.68-10.21A2,2,0,0,1,337.64,383.19Z"/><path class="cls-18" d="M397.45,393.18l-62.87,36.29-.24.12-.14.05a5.06,5.06,0,0,1-.49.14l-.35.07-.24,0-.61,0h-.05a5.36,5.36,0,0,1-.65,0l-.41-.08-.51-.13a2.05,2.05,0,0,1-.43-.18l-20.23-11.76,64.94-37.49Z"/><path class="cls-18" d="M337.64,383.19l11.83,7a1.2,1.2,0,0,1,0,2.07l-17.68,10.21a2,2,0,0,1-2,0l-11.83-7a1.2,1.2,0,0,1,0-2.07l17.68-10.21A2,2,0,0,1,337.64,383.19Z"/><path class="cls-3" d="M332.91,430.56,339.6,388a7.87,7.87,0,0,1,3.82-5.58l65.16-37.89a1.93,1.93,0,0,1,1.73-.1h0l1.55.77-.52.19a2,2,0,0,1,.17,1.16l-6.7,42.6a7.89,7.89,0,0,1-3.81,5.58l-65.16,37.88a1.92,1.92,0,0,1-.43.17l.06.63-1.5-.74h0A1.93,1.93,0,0,1,332.91,430.56Z"/><path class="cls-10" d="M332.91,430.56,339.6,388a7.87,7.87,0,0,1,3.82-5.58l65.16-37.89a1.93,1.93,0,0,1,1.73-.1h0l1.55.77-.52.19a2,2,0,0,1,.17,1.16l-6.7,42.6a7.89,7.89,0,0,1-3.81,5.58l-65.16,37.88a1.92,1.92,0,0,1-.43.17l.06.63-1.5-.74h0A1.93,1.93,0,0,1,332.91,430.56Z"/><path class="cls-3" d="M344.73,383l65.16-37.88a2,2,0,0,1,2.93,2l-6.7,42.59a7.86,7.86,0,0,1-3.81,5.58l-65.16,37.89a2,2,0,0,1-2.93-2l6.7-42.6A7.83,7.83,0,0,1,344.73,383Z"/><path class="cls-4" d="M376.31,384.14c-3.16,1.82-6,6-6.47,9.31s1.77,4.56,4.93,2.74,6-6,6.47-9.32S379.45,382.32,376.31,384.14Z"/><path class="cls-19" d="M337.84,319.42l17.65,14.34,11.64-18.89-14.65-16.5C339.61,304.08,337.84,319.42,337.84,319.42Z"/><path class="cls-9" d="M311.93,270.64c13.88-1.57,15.16,1.52,24.16,10s18.09,18,18.09,18C340.3,305.46,338.76,322,338.76,322c-7.55-5.86-13.95-10.48-13.95-10.48Z"/><path class="cls-10" d="M311.93,270.64c13.88-1.57,15.16,1.52,24.16,10s18.09,18,18.09,18C340.3,305.46,338.76,322,338.76,322c-7.55-5.86-13.95-10.48-13.95-10.48Z"/><path class="cls-13" d="M261.25,281.67c19.74-9.26,34.54-10.34,50.68-11,24.16,15.55,15.11,28.5,14.7,49.27s-4.93,33.3,9.46,54.89c-31.66,25.29-71.65,17.29-81.21,11.22C248.71,328.54,250.52,286.1,261.25,281.67Z"/><path class="cls-9" d="M261.25,281.67c19.74-9.26,34.54-10.34,50.68-11,24.16,15.55,15.11,28.5,14.7,49.27s-4.93,33.3,9.46,54.89c-31.66,25.29-71.65,17.29-81.21,11.22C248.71,328.54,250.52,286.1,261.25,281.67Z"/><path class="cls-16" d="M321.42,239.2a16.89,16.89,0,0,0,1.78-22.7,9.12,9.12,0,0,0,3.87-4.73,4.91,4.91,0,0,0-7.17-5.66,6.89,6.89,0,0,0-3.77-7.63A6.49,6.49,0,0,0,308.3,201a4.42,4.42,0,0,0-3.54-3.91,8.91,8.91,0,0,0-5.51,1.08c-1.71.84-3.28,1.95-5,2.76-2.92,1.36-6.17,1.8-9.32,2.44s-6.38,1.55-8.84,3.64-4.29,6.45-2.39,9.75a5.29,5.29,0,0,0-4.07-1.52,5.14,5.14,0,0,0-3.68,2.16c2.15,1,4.26,2.06,6.41,3-2.12-.64-4.93,1.17-5.77,3.22s-.58,4.37-.23,6.56a86.69,86.69,0,0,0,7.61,24c1.9,3.92,4.43,8,8.57,9.39Z"/><path class="cls-20" d="M321.2,218.83a20.8,20.8,0,0,1-13.84,5.83c-4.87.05-9.58-1.55-14.27-2.85a10.9,10.9,0,0,1-3.23,6,12.38,12.38,0,0,1-6.64,2.9,43,43,0,0,1-.05,13.26,2.5,2.5,0,0,1-1.68,2c-1.58.46-2.63-1.16-3.4-2.47a10.82,10.82,0,0,0-3.43-3.83,5.31,5.31,0,0,0-5-.5,5.18,5.18,0,0,0-2.62,3.18,9.6,9.6,0,0,0-.2,4.2,12.74,12.74,0,0,0,2.72,6.42,8.66,8.66,0,0,0,6.11,3.15,6.28,6.28,0,0,0,5.87-2.9l.1.43a15.3,15.3,0,0,0,.65,2,17.51,17.51,0,0,0,12.82,11c3,.62,6.27,1.22,9.64,1.73,1.65.25,3.32.48,5,.68A12,12,0,0,0,323,259.28C325.31,246.46,326.06,231.53,321.2,218.83Z"/><path class="cls-20" d="M282.34,255.7V278a24.64,24.64,0,0,0,18,10c2.27.14,4.76-.13,6.45-1.65a5.24,5.24,0,0,0-.65-8.29,2.84,2.84,0,0,1-1.31-2.38v-7.26c-3.37-.51-6.67-1.11-9.64-1.73A17.51,17.51,0,0,1,282.34,255.7Z"/><path class="cls-8" d="M297.26,271.59a46.69,46.69,0,0,0,7.54,1.34v-4.52c-3.37-.51-6.67-1.11-9.64-1.73a17.52,17.52,0,0,1-12.39-10,17.94,17.94,0,0,0,4.52,9.35A21.47,21.47,0,0,0,297.26,271.59Z"/><path class="cls-14" d="M311.5,235h-2.89a21.15,21.15,0,0,0-20-2v3l.8.42a32.17,32.17,0,0,1,.74,6c.2,2,.74,4,2.2,5.29s3.86,1.51,5.94,1.54a11.2,11.2,0,0,0,4.95-.71,8,8,0,0,0,3.77-4.52c.7-1.9.59-3,1.47-5.29a1.69,1.69,0,0,1,1.58-1.06,1.56,1.56,0,0,1,1.47,1.06c.83,2.29.72,3.39,1.39,5.29a7.84,7.84,0,0,0,3.52,4.52,9.86,9.86,0,0,0,4.63.71c1.95,0,4.07-.15,5.55-1.54s1.88-3.33,2.07-5.29a33,33,0,0,1,.69-6l.75-.42v-3A18.7,18.7,0,0,0,311.5,235Zm-4.35,1.56-.12,1.09a25.48,25.48,0,0,1-1.45,5.75,6.52,6.52,0,0,1-3,3.64,8.4,8.4,0,0,1-3.55.57h-.65c-1.83,0-3.72-.14-4.91-1.18-.93-.81-1.49-2.2-1.69-4.24q-.07-.77-.12-1.56c-.1-1.45,0-4.64.11-6.94a18.55,18.55,0,0,1,5.06-.7A19.34,19.34,0,0,1,307,236C307.2,236.08,307.15,236.58,307.15,236.58Zm20.19,4.07c0,.53-.07,1-.12,1.56-.19,2-.71,3.43-1.58,4.24-1.12,1-2.88,1.15-4.59,1.18h-.61a7.4,7.4,0,0,1-3.32-.57,6.43,6.43,0,0,1-2.79-3.64,27.15,27.15,0,0,1-1.36-5.75l-.11-1.09s-.05-.5.11-.61a17.27,17.27,0,0,1,9.52-3,16.34,16.34,0,0,1,4.74.7C327.35,236,327.43,239.2,327.34,240.65Z"/><path class="cls-14" d="M288.65,233l-16.25,5.84a7.13,7.13,0,0,1,3.18,1.49c.18.15,13.07-4.29,13.07-4.29Z"/><polygon class="cls-19" points="310.03 237.93 318.23 247.85 310.7 250.51 310.03 237.93"/><path class="cls-21" d="M298.45,239.17a2.25,2.25,0,1,0,2.27-2.24A2.24,2.24,0,0,0,298.45,239.17Z"/><path class="cls-21" d="M317.36,238.56a2.25,2.25,0,1,0,2.26-2.24A2.24,2.24,0,0,0,317.36,238.56Z"/><path class="cls-21" d="M316.17,228.57l6,.68a3.2,3.2,0,0,0-2.53-2.65A3.78,3.78,0,0,0,316.17,228.57Z"/><path class="cls-21" d="M302.19,227.81l-5.53,2.51a3.23,3.23,0,0,1,1.59-3.31A3.81,3.81,0,0,1,302.19,227.81Z"/><path class="cls-19" d="M302.6,254.69l6.67,2.24a4.14,4.14,0,0,1-4.58,2C303.06,258.41,302.35,256.38,302.6,254.69Z"/><path class="cls-10" d="M302.6,254.69l6.67,2.24a4.14,4.14,0,0,1-4.58,2C303.06,258.41,302.35,256.38,302.6,254.69Z"/><path class="cls-19" d="M306.9,258.82a3.89,3.89,0,0,1-2.21.08,3.39,3.39,0,0,1-2.11-3.09,3.84,3.84,0,0,1,4.32,3Z"/><path class="cls-19" d="M323.5,286.29l-5.69,2.61a2.27,2.27,0,0,0-1.09,3.09h0a2.27,2.27,0,0,0,2.44,1.22l14-2.51-4.27-5.44Z"/><path class="cls-20" d="M336.05,291.3,353.75,333a12.27,12.27,0,0,0,15.69,6.66h0a12.28,12.28,0,0,0,5.18-19.14l-28.92-36a16.87,16.87,0,0,0-3.48-3.27L333.4,275a18.93,18.93,0,0,0-8.36-3.28h0l-4.3-3.15a4.28,4.28,0,0,0-4.09-.55L310,270.54h0a4.36,4.36,0,0,0,5,2.41l2.64-.65,3.08,2.27-4,5.59a3.48,3.48,0,0,0,.71,4.8l7.58,5.83a2.71,2.71,0,0,0,2.44.44h0a2.71,2.71,0,0,0,1.87-3.15v0A9.6,9.6,0,0,0,336.05,291.3Z"/><path class="cls-19" d="M320.73,274.57a10.39,10.39,0,0,1,2.77-2.28l-5.33.4Z"/><path class="cls-20" d="M266.49,335.44l-6,20.68,36.89,26.21,12.4,5.22a19.47,19.47,0,0,1,8.22,6.53l10.11,14c1.13,2.35-4.14,6.17-6.67,6.81h0A9.07,9.07,0,0,1,313,412.8l-7.81-7.15-2.15-.77a32.68,32.68,0,0,1-15.69-11.76h0l-43.24-16.79a16.55,16.55,0,0,1-10-19.73l7.17-26.68Z"/><path class="cls-9" d="M266.53,338.33l10.24-30.61s.34-28-11.55-27.16-17.93,7.76-27.07,49.3l-.19.9A49.34,49.34,0,0,0,266.53,338.33Z"/><path class="cls-10" d="M266.53,338.33l10.24-30.61s.34-28-11.55-27.16-17.93,7.76-27.07,49.3l-.19.9A49.34,49.34,0,0,0,266.53,338.33Z"/><g id="freepik--light--inject-77"><path class="cls-21" d="M295,172.51a5,5,0,1,1-5.05-4.87,5,5,0,0,1,5.05,4.87Z"/><path class="cls-13" d="M284,173c-3.32-1.85-3.38-4.92-.11-6.89a13.19,13.19,0,0,1,11.91-.17c3.31,1.85,3.36,4.93.11,6.87A13.16,13.16,0,0,1,284,173Z"/><path class="cls-21" d="M283.8,171.25c-3.42-1.91-3.47-5.08-.12-7.09A13.64,13.64,0,0,1,296,164c3.42,1.91,3.48,5.08.1,7.08A13.48,13.48,0,0,1,283.8,171.25Z"/><path class="cls-13" d="M283.59,169.43c-3.51-2-3.57-5.22-.08-7.22a14,14,0,0,1,12.62-.19c3.53,2,3.59,5.23.13,7.31A14,14,0,0,1,283.59,169.43Z"/><path class="cls-21" d="M283.35,167.5c-3.62-2-3.66-5.39-.1-7.52a14.41,14.41,0,0,1,13-.22c3.63,2,3.69,5.4.11,7.54A14.46,14.46,0,0,1,283.35,167.5Z"/><path class="cls-13" d="M283.16,165.53c-3.75-2.15-3.78-5.51-.12-7.69a14.66,14.66,0,0,1,13.31-.21c3.71,2.05,3.77,5.5.12,7.68A14.72,14.72,0,0,1,283.16,165.53Z"/><path class="cls-9" d="M288.92,107.51a23.6,23.6,0,0,0-23.29,23.92v.11c.29,18.77,15.81,21.65,16,29.2A4.08,4.08,0,0,0,284,164a12.76,12.76,0,0,0,11.53-.17,4.07,4.07,0,0,0,2.3-3.36h0c-.12-7.56,15.32-10.92,15-29.71A23.6,23.6,0,0,0,289,107.51Z"/><path class="cls-9" d="M285.48,163.05c-2.36-1.37-2.47-3.57-.16-5a9.64,9.64,0,0,1,8.69-.13c2.35,1.37,2.45,3.59.07,5A9.51,9.51,0,0,1,285.48,163.05Z"/><path class="cls-10" d="M285.48,163.05c-2.36-1.37-2.47-3.57-.16-5a9.64,9.64,0,0,1,8.69-.13c2.35,1.37,2.45,3.59.07,5A9.51,9.51,0,0,1,285.48,163.05Z"/><path class="cls-4" d="M292.91,159.84a.8.8,0,0,1-.81-.76,57.45,57.45,0,0,1,1.46-13.52,27.36,27.36,0,0,1,1.12-3.78,10.45,10.45,0,0,1-2.08-1,13.87,13.87,0,0,1-3.21-2.65,14.12,14.12,0,0,1-3.08,2.69,11.19,11.19,0,0,1-2.05,1,29.44,29.44,0,0,1,1.25,3.75,57,57,0,0,1,1.87,13.49.82.82,0,0,1-.82.8.81.81,0,0,1-.79-.82A56.58,56.58,0,0,0,283.94,146a25.24,25.24,0,0,0-1.24-3.71,5.07,5.07,0,0,1-4.5-1.25,2.58,2.58,0,0,1-.4-3.31,2.15,2.15,0,0,1,2.18-.95,6.08,6.08,0,0,1,3.6,3.62,9.16,9.16,0,0,0,1.85-.93,12.57,12.57,0,0,0,3-2.62,5.87,5.87,0,0,1-1.25-4.49,2.25,2.25,0,0,1,4.3-.07,5.81,5.81,0,0,1-1.09,4.52,12.3,12.3,0,0,0,3,2.54,9.7,9.7,0,0,0,1.88.86,6.13,6.13,0,0,1,3.5-3.72,2.1,2.1,0,0,1,2.18.94,2.54,2.54,0,0,1-.29,3.31,5,5,0,0,1-4.45,1.39,27.59,27.59,0,0,0-1.14,3.76,56.24,56.24,0,0,0-1.4,13.13.81.81,0,0,1-.78.83Zm-13.33-21.45a.52.52,0,0,0-.44.3,1,1,0,0,0,.22,1.27,3.17,3.17,0,0,0,2.58.79,4.51,4.51,0,0,0-2.24-2.37Zm17.38,2.2a3.3,3.3,0,0,0,2.56-.9c.14-.17.6-.75.21-1.28a.56.56,0,0,0-.59-.28C298.61,138.23,297.78,139,297,140.59Zm-7.62-8.18a.54.54,0,0,0-.62.44h0a3.9,3.9,0,0,0,.67,2.61,3.92,3.92,0,0,0,.58-2.63.54.54,0,0,0-.63-.44h0Z"/></g><path class="cls-22" d="M288.93,98.55a1.14,1.14,0,0,1-.41.07A1.55,1.55,0,0,1,287,97.1l-.18-8a1.55,1.55,0,0,1,1.49-1.58h0A1.56,1.56,0,0,1,289.87,89L290,97A1.55,1.55,0,0,1,288.93,98.55Z"/><path class="cls-22" d="M271.85,103.54a1.54,1.54,0,0,1-1.75-.67L265.91,96a1.55,1.55,0,0,1,2.65-1.61l4.18,6.87a1.54,1.54,0,0,1-.52,2.12A1,1,0,0,1,271.85,103.54Z"/><path class="cls-22" d="M259.56,116.4a1.5,1.5,0,0,1-1.19-.12l-7.08-3.88a1.55,1.55,0,1,1,1.49-2.71l7.07,3.86a1.55,1.55,0,0,1,.61,2.1A1.49,1.49,0,0,1,259.56,116.4Z"/><path class="cls-22" d="M255.33,133.68a1.16,1.16,0,0,1-.38.15l-8,.17a1.51,1.51,0,0,1-1.57-1.46v0a1.53,1.53,0,0,1,1.48-1.58h0l8.06-.27a1.56,1.56,0,0,1,.47,3Z"/><path class="cls-22" d="M332.12,132a1.37,1.37,0,0,1-.38.15l-8.08.09a1.54,1.54,0,1,1-.06-3.08l8-.19a1.56,1.56,0,0,1,.47,3Z"/><path class="cls-22" d="M319.08,115.08a1.55,1.55,0,0,1-1.91-1.07,1.57,1.57,0,0,1,.67-1.74l6.89-4.17a1.53,1.53,0,0,1,2.1.49v0a1.53,1.53,0,0,1-.49,2.11h0l-6.89,4.19A1.53,1.53,0,0,1,319.08,115.08Z"/><path class="cls-22" d="M306.23,102.78a1.56,1.56,0,0,1-1.81-2.23l3.92-7a1.55,1.55,0,0,1,2.7,1.48l-3.88,7.07A1.53,1.53,0,0,1,306.23,102.78Z"/><polygon class="cls-3" points="438.75 325.22 438.72 314 431.18 309.66 431.21 320.62 431.21 320.62 431.21 320.86 438.75 325.22 438.75 325.22"/><path class="cls-14" d="M439.12,488.58l-.37-163.36-7.54-4.36L431.58,484a2.45,2.45,0,0,0,1,2.2h0l0,0h0l7.46,4.54A2.43,2.43,0,0,1,439.12,488.58Z"/><path class="cls-11" d="M439.12,488.58l-.37-163.36-7.54-4.36L431.58,484a2.45,2.45,0,0,0,1,2.2h0l0,0h0l7.46,4.54A2.43,2.43,0,0,1,439.12,488.58Z"/><path class="cls-13" d="M442.59,490.56a3.69,3.69,0,0,1-.67.32A3.69,3.69,0,0,0,442.59,490.56Z"/><path class="cls-13" d="M441.45,491l-.15,0Z"/><path class="cls-13" d="M440.25,490.86h-.05Z"/><path class="cls-14" d="M438.74,314l0-6.46a7.66,7.66,0,0,1,3.45-6l195.75-113a2.45,2.45,0,0,1,2.42-.26l-7.46-4.56h0a2.4,2.4,0,0,0-2.5.2l-195.74,113a7.61,7.61,0,0,0-3.46,6l0,6.46h0l0,0v.26l7.54,4.34Z"/><path class="cls-23" d="M438.74,314l0-6.46a7.66,7.66,0,0,1,3.45-6l195.75-113a2.45,2.45,0,0,1,2.42-.26l-7.46-4.56h0a2.4,2.4,0,0,0-2.5.2l-195.74,113a7.61,7.61,0,0,0-3.46,6l0,6.46h0l0,0v.26l7.54,4.34Z"/><polygon class="cls-8" points="438.75 325.22 438.72 314 431.18 309.66 431.21 320.62 431.21 320.62 431.21 320.86 438.75 325.22 438.75 325.22"/><path class="cls-14" d="M637.92,188.52c1.91-1.11,3.47-.22,3.48,2V197L438.74,314l0-6.46a7.66,7.66,0,0,1,3.45-6Z"/><path class="cls-4" d="M624.8,199.21c1-.6,1.86-.12,1.86,1.06a4.09,4.09,0,0,1-1.85,3.2c-1,.59-1.85.11-1.86-1.06A4.09,4.09,0,0,1,624.8,199.21Z"/><path class="cls-4" d="M630.45,195.94c1-.59,1.86-.12,1.86,1.06a4,4,0,0,1-1.84,3.2c-1,.59-1.86.12-1.86-1.06A4,4,0,0,1,630.45,195.94Z"/><path class="cls-4" d="M636.1,192.68c1-.59,1.86-.12,1.86,1.06a4,4,0,0,1-1.84,3.2c-1,.59-1.86.12-1.86-1.06A4,4,0,0,1,636.1,192.68Z"/><path class="cls-3" d="M479.5,284c.76-.44,1.47-.37,1.83.2l1.84,2.83c.37.57,1.07.65,1.84.21L641.39,197l0,11.23-202.67,117,0-11.23,6-3.47a4.51,4.51,0,0,0,1.83-2.32l1.82-4.94a4.56,4.56,0,0,1,1.82-2.31Z"/><path class="cls-24" d="M641.42,208.2l.37,163.37a7.61,7.61,0,0,1-3.45,6l-195.75,113c-1.91,1.11-3.47.22-3.47-2l-.37-163.36Z"/><g class="cls-25"><path class="cls-4" d="M641.42,208.2l.37,163.37a7.61,7.61,0,0,1-3.45,6l-195.75,113c-1.91,1.11-3.47.22-3.47-2l-.37-163.36Z"/></g><path class="cls-4" d="M633.41,203.89c1.36-.79,2.46-.16,2.47,1.4a5.43,5.43,0,0,1-2.45,4.26L461.86,308.6c-1.36.78-2.46.15-2.47-1.41a5.41,5.41,0,0,1,2.46-4.25Z"/><path class="cls-3" d="M442,315a.23.23,0,0,1,.26,0c.13.09.12.35,0,.58l-1.08,1.77,2.84-1.64c.19-.12.35,0,.35.19a.77.77,0,0,1-.35.6l-2.84,1.64,1.09.51c.14.08.15.32,0,.55a.65.65,0,0,1-.26.28.27.27,0,0,1-.24,0l-1.74-.84-.06-.07,0,0,0-.14,0-.17v0l.07-.14,1.73-2.85A.78.78,0,0,1,442,315Z"/><path class="cls-3" d="M448.14,311.45a.25.25,0,0,1,.23,0l1.75.83.06.07h0l0,.15,0,.17v0l-.07.13-1.73,2.85a.69.69,0,0,1-.24.24.25.25,0,0,1-.25,0c-.13-.09-.13-.34,0-.57l1.07-1.77-2.84,1.64c-.18.11-.34,0-.34-.2a.73.73,0,0,1,.34-.59L449,312.8l-1.08-.52c-.15-.07-.15-.32,0-.56A.6.6,0,0,1,448.14,311.45Z"/><path class="cls-3" d="M454,308.08a1.52,1.52,0,0,1,1.18-.22l.26-.34a.64.64,0,0,1,.19-.18.31.31,0,0,1,.18,0c.12,0,.18.14.16.31l-.15,1.07a.69.69,0,0,1-.33.53l-.09,0-.84.23a.2.2,0,0,1-.26-.17.72.72,0,0,1,.16-.49l.08-.11a1,1,0,0,0-.53.17,2.73,2.73,0,0,0-1.25,2.15c0,.8.57,1.11,1.25.72a2.75,2.75,0,0,0,1.1-1.38.78.78,0,0,1,.3-.38.37.37,0,0,1,.17-.05c.17,0,.23.22.14.47a4.22,4.22,0,0,1-1.7,2.13c-1.07.62-1.95.13-1.95-1.11A4.29,4.29,0,0,1,454,308.08Z"/><g class="cls-26"><path d="M442,315a.23.23,0,0,1,.26,0c.13.09.12.35,0,.58l-1.08,1.77,2.84-1.64c.19-.12.35,0,.35.19a.77.77,0,0,1-.35.6l-2.84,1.64,1.09.51c.14.08.15.32,0,.55a.65.65,0,0,1-.26.28.27.27,0,0,1-.24,0l-1.74-.84-.06-.07,0,0,0-.14,0-.17v0l.07-.14,1.73-2.85A.78.78,0,0,1,442,315Z"/></g><g class="cls-26"><path d="M448.14,311.45a.25.25,0,0,1,.23,0l1.75.83.06.07h0l0,.15,0,.17v0l-.07.13-1.73,2.85a.69.69,0,0,1-.24.24.25.25,0,0,1-.25,0c-.13-.09-.13-.34,0-.57l1.07-1.77-2.84,1.64c-.18.11-.34,0-.34-.2a.73.73,0,0,1,.34-.59L449,312.8l-1.08-.52c-.15-.07-.15-.32,0-.56A.6.6,0,0,1,448.14,311.45Z"/></g><g class="cls-26"><path d="M454,308.08a1.52,1.52,0,0,1,1.18-.22l.26-.34a.64.64,0,0,1,.19-.18.31.31,0,0,1,.18,0c.12,0,.18.14.16.31l-.15,1.07a.69.69,0,0,1-.33.53l-.09,0-.84.23a.2.2,0,0,1-.26-.17.72.72,0,0,1,.16-.49l.08-.11a1,1,0,0,0-.53.17,2.73,2.73,0,0,0-1.25,2.15c0,.8.57,1.11,1.25.72a2.75,2.75,0,0,0,1.1-1.38.78.78,0,0,1,.3-.38.37.37,0,0,1,.17-.05c.17,0,.23.22.14.47a4.22,4.22,0,0,1-1.7,2.13c-1.07.62-1.95.13-1.95-1.11A4.29,4.29,0,0,1,454,308.08Z"/></g><polygon class="cls-4" points="557.39 298.57 557.7 409.3 450.78 471.02 450.47 360.3 557.39 298.57"/><polygon class="cls-7" points="542.51 330.72 494.36 407.3 494.43 426.28 503.7 407.87 494.43 426.28 487.46 406.89 542.51 330.72"/><polyline class="cls-27" points="503.7 407.87 494.43 426.28 487.46 406.89 542.51 330.72 494.36 407.3 494.43 426.28"/><polygon class="cls-28" points="493.92 407.3 503.26 407.87 494 426.28 493.92 407.3"/><polygon class="cls-24" points="542.51 330.72 487.46 406.89 464.45 405.5 542.51 330.72"/><polygon class="cls-24" points="494.36 407.3 542.51 330.72 532.44 409.6 503.7 407.87 494.36 407.3"/><path class="cls-7" d="M632.18,218.34c2-1.13,3.53-.22,3.54,2a7.76,7.76,0,0,1-3.52,6.1L478.56,315.22c-1.95,1.13-3.54.22-3.55-2a7.8,7.8,0,0,1,3.53-6.1Z"/><g class="cls-29"><path class="cls-4" d="M632.18,218.34c2-1.13,3.53-.22,3.54,2a7.76,7.76,0,0,1-3.52,6.1L478.56,315.22c-1.95,1.13-3.54.22-3.55-2a7.8,7.8,0,0,1,3.53-6.1Z"/></g><path class="cls-30" d="M467.43,313.3c1.95-1.13,3.53-.23,3.54,2a7.73,7.73,0,0,1-3.52,6.09l-13.67,8.09c-2,1.13-3.55.23-3.55-2a7.76,7.76,0,0,1,3.52-6.1Z"/><path class="cls-30" d="M480.05,321.34c2-1.13,3.54-.23,3.55,2a7.76,7.76,0,0,1-3.52,6.09L453.44,345c-1.95,1.12-3.54.22-3.54-2a7.76,7.76,0,0,1,3.52-6.1Z"/><path class="cls-30" d="M518.33,299.06c2-1.13,3.54-.23,3.55,2a7.76,7.76,0,0,1-3.52,6.1l-26.63,15.55c-2,1.12-3.55.22-3.55-2a7.76,7.76,0,0,1,3.52-6.1Z"/><path class="cls-30" d="M556.61,276.77c2-1.12,3.54-.22,3.55,2a7.76,7.76,0,0,1-3.52,6.1L530,300.44c-2,1.12-3.55.22-3.55-2a7.76,7.76,0,0,1,3.52-6.1Z"/><path class="cls-30" d="M594.9,254.49c2-1.12,3.53-.22,3.54,2a7.75,7.75,0,0,1-3.52,6.1l-26.63,15.55c-2,1.12-3.55.22-3.55-2a7.76,7.76,0,0,1,3.52-6.1Z"/><path class="cls-30" d="M633.18,232.21c2-1.12,3.53-.22,3.54,2a7.75,7.75,0,0,1-3.52,6.1l-26.63,15.54c-2,1.13-3.54.23-3.55-2a7.75,7.75,0,0,1,3.52-6.1Z"/><polygon class="cls-30" points="607.29 271.59 607.31 278.46 569.23 300.5 569.21 293.63 607.29 271.59"/><g class="cls-31"><polygon class="cls-30" points="608.57 306.97 608.58 311.18 569.32 334.09 569.31 329.89 608.57 306.97"/><polygon class="cls-30" points="616.8 294.16 616.81 298.35 569.3 325.69 569.29 321.5 616.8 294.16"/><polygon class="cls-30" points="591.49 300.27 591.5 304.46 569.28 317.29 569.26 313.1 591.49 300.27"/></g><polygon class="cls-30" points="616.75 277.36 616.76 281.55 569.25 308.89 569.24 304.7 616.75 277.36"/><polygon class="cls-30" points="614.78 356.39 614.79 360.75 570.63 386.4 570.62 382.04 614.78 356.39"/><polygon class="cls-30" points="634.68 336.89 634.69 341.23 570.61 378.5 570.6 374.15 634.68 336.89"/><path class="cls-9" d="M201.62,74.44h0c-.36-1.29-3-3.72-5.56-3.67a2.21,2.21,0,0,0-.73.14L105.72,122.7a4.8,4.8,0,0,0-1.94,2.08,4.85,4.85,0,0,0-.5,2.11V201c0,2.77,3.2,5.42,6.2,4.15l0,0a.84.84,0,0,0,.2-.08l89.61-51.84a4.8,4.8,0,0,0,2.44-4.18V75A1.29,1.29,0,0,0,201.62,74.44Z"/><path class="cls-11" d="M103.28,126.89V201c0,2.77,3.2,5.42,6.2,4.15l0,0a1.19,1.19,0,0,1-1.6-1.12V129.9a4.74,4.74,0,0,1,.81-2.66l-4.93-2.46A4.85,4.85,0,0,0,103.28,126.89Z"/><path class="cls-32" d="M196.06,70.77a2.21,2.21,0,0,0-.73.14L105.72,122.7a4.8,4.8,0,0,0-1.94,2.08l4.93,2.46a4.75,4.75,0,0,1,1.62-1.53L200,73.92a1.2,1.2,0,0,1,1.67.52h0C201.26,73.15,198.65,70.72,196.06,70.77Z"/><g class="cls-33"><polygon class="cls-4" points="142.13 126.94 172.65 129.57 142.24 167.38 142.13 126.94"/></g><path class="cls-14" d="M145.48,285c.26-.15.47-.27.69-.38s.46-.24.69-.35l0,10.62L116.33,312.3,81.8,332l0-8.94.18-.18.71-.68a28.05,28.05,0,0,1,4.9-3.65l.19-.11.3-.17a26.68,26.68,0,0,1,3.44-1.63l1-.35c4.31-1.47,8.36-1.68,12.47-2.22l1.21-.17a30.58,30.58,0,0,0,10.18-3.18l.78-.43.65-.39c5.85-3.6,11.22-10,16.65-15.6.27-.29.55-.57.83-.86l.39-.4.75-.74.38-.37a47.62,47.62,0,0,1,8.38-6.75Z"/><path class="cls-18" d="M145.48,285c.26-.15.47-.27.69-.38s.46-.24.69-.35l0,10.62L116.33,312.3,81.8,332l0-8.94.18-.18.71-.68a28.05,28.05,0,0,1,4.9-3.65l.19-.11.3-.17a26.68,26.68,0,0,1,3.44-1.63l1-.35c4.31-1.47,8.36-1.68,12.47-2.22l1.21-.17a30.58,30.58,0,0,0,10.18-3.18l.78-.43.65-.39c5.85-3.6,11.22-10,16.65-15.6.27-.29.55-.57.83-.86l.39-.4.75-.74.38-.37a47.62,47.62,0,0,1,8.38-6.75Z"/><path class="cls-4" d="M109.19,282.09c3.78-2.18,6.86-.43,6.87,3.92a15.07,15.07,0,0,1-6.82,11.83c-3.79,2.18-6.87.43-6.88-3.92A15,15,0,0,1,109.19,282.09Z"/><path class="cls-34" d="M116.32,310.71a30.58,30.58,0,0,1-10.18,3.18A30.58,30.58,0,0,0,116.32,310.71Z"/><path class="cls-14" d="M88.36,305a8.51,8.51,0,0,1,1.55-.71,9,9,0,0,1,4.52,0l8.77,1.52a7.07,7.07,0,0,0,4.69-1.1,15.86,15.86,0,0,0,4.51-4.07c1.66-2.13,3.31-4.14,5.08-5.16l.19-.1a5.77,5.77,0,0,1,4.22-.47,6.8,6.8,0,0,0,4.72-1.06,16.4,16.4,0,0,0,4.87-4.55c1.67-2.28,3.35-4.58,4.89-6.8a23.42,23.42,0,0,1,4.09-4.89,8.07,8.07,0,0,1,1.06-.73,9.29,9.29,0,0,1,5.32-1l0,8.44c-.23.11-.46.22-.69.35s-.43.23-.65.36l-.39.23a47.62,47.62,0,0,0-8.38,6.75l-.38.37-.75.74-.39.4c-.28.29-.56.57-.83.86-5.43,5.64-10.8,12-16.65,15.6l-.64.39-.79.43a30.58,30.58,0,0,1-10.18,3.18l-1.21.17c-4.11.54-8.16.75-12.47,2.22l-1,.35a26.68,26.68,0,0,0-3.44,1.63l-.3.17-.19.11a28.05,28.05,0,0,0-4.9,3.65l-.71.68-.18.18,0-11.4c.59-.83,1.19-1.64,1.83-2.39A19,19,0,0,1,88.36,305Z"/><g class="cls-35"><path d="M88.36,305a8.51,8.51,0,0,1,1.55-.71,9,9,0,0,1,4.52,0l8.77,1.52a7.07,7.07,0,0,0,4.69-1.1,15.86,15.86,0,0,0,4.51-4.07c1.66-2.13,3.31-4.14,5.08-5.16l.19-.1a5.77,5.77,0,0,1,4.22-.47,6.8,6.8,0,0,0,4.72-1.06,16.4,16.4,0,0,0,4.87-4.55c1.67-2.28,3.35-4.58,4.89-6.8a23.42,23.42,0,0,1,4.09-4.89,8.07,8.07,0,0,1,1.06-.73,9.29,9.29,0,0,1,5.32-1l0,8.44c-.23.11-.46.22-.69.35s-.43.23-.65.36l-.39.23a47.62,47.62,0,0,0-8.38,6.75l-.38.37-.75.74-.39.4c-.28.29-.56.57-.83.86-5.43,5.64-10.8,12-16.65,15.6l-.64.39-.79.43a30.58,30.58,0,0,1-10.18,3.18l-1.21.17c-4.11.54-8.16.75-12.47,2.22l-1,.35a26.68,26.68,0,0,0-3.44,1.63l-.3.17-.19.11a28.05,28.05,0,0,0-4.9,3.65l-.71.68-.18.18,0-11.4c.59-.83,1.19-1.64,1.83-2.39A19,19,0,0,1,88.36,305Z"/></g><path class="cls-14" d="M76.09,289.42l76.25-44,.17,60.87-76.25,44Zm70.75-13.63L146.78,255,81.69,292.62l.13,48,65.1-37.58,0-8.23,0-10.62,0-8.44"/><g class="cls-33"><path class="cls-4" d="M76.09,289.42l76.25-44,.17,60.87-76.25,44Zm70.75-13.63L146.78,255,81.69,292.62l.13,48,65.1-37.58,0-8.23,0-10.62,0-8.44"/></g><path class="cls-13" d="M81.8,332l34.53-19.69,30.56-17.45,0,8.23-65.1,37.58Z"/><path class="cls-14" d="M81.69,292.62,146.78,255l.06,20.75a9.29,9.29,0,0,0-5.32,1,8.07,8.07,0,0,0-1.06.73,23.42,23.42,0,0,0-4.09,4.89c-1.54,2.22-3.22,4.52-4.89,6.8a16.4,16.4,0,0,1-4.87,4.55,6.8,6.8,0,0,1-4.72,1.06,5.77,5.77,0,0,0-4.22.47l-.19.1c-1.77,1-3.42,3-5.08,5.16a15.86,15.86,0,0,1-4.51,4.07,7.07,7.07,0,0,1-4.69,1.1l-8.77-1.52a9,9,0,0,0-4.52,0,8.51,8.51,0,0,0-1.55.71,19,19,0,0,0-4.79,4.29c-.64.75-1.24,1.56-1.83,2.39Zm27.55,5.22A15.07,15.07,0,0,0,116.06,286c0-4.35-3.09-6.1-6.87-3.92a15,15,0,0,0-6.83,11.83c0,4.35,3.09,6.1,6.88,3.92"/><path class="cls-34" d="M91.49,316.63a26.68,26.68,0,0,0-3.44,1.63A26.68,26.68,0,0,1,91.49,316.63Z"/><path class="cls-14" d="M462.69,173.64l84.57-48.82.24,86.89-84.57,48.82Zm76.81,33.51-.19-68.57L470.68,178.2l.2,68.57,68.62-39.62"/><path class="cls-36" d="M462.69,173.64l84.57-48.82.24,86.89-84.57,48.82Zm76.81,33.51-.19-68.57L470.68,178.2l.2,68.57,68.62-39.62"/><polygon class="cls-37" points="505.58 165.72 525.47 167.42 504.75 193.28 484.85 191.57 505.58 165.72"/><polygon class="cls-5" points="525.47 167.42 525.49 193.69 504.75 219.55 504.75 193.28 525.47 167.42"/><polygon class="cls-3" points="484.85 191.57 504.75 193.28 504.75 219.55 484.86 217.85 484.85 191.57"/><path class="cls-38" d="M470.68,178.2l68.63-39.62.19,68.57-68.62,39.62Zm54.81,15.49,0-26.27-19.89-1.7-20.73,25.86v26.27l19.89,1.7,20.74-25.86"/><path class="cls-38" d="M541,90.76l38.84-22.43.17,58.62-38.84,22.42Zm25,25.35,0-.22a16.48,16.48,0,0,1,2.34-6.48,24,24,0,0,0,3.75-12.06c0-7.37-5.23-10.37-11.65-6.68s-11.69,12.78-11.66,20.14c0,3.89,1.45,6.55,3.75,7.67A4.66,4.66,0,0,1,555,122.2l0,.25a3,3,0,0,0,.94,1.9v1.59l.67-.38v.54l-.67.39v1.59l.66-.38v.54l-.67.39v1.59l.67-.38v1l.06.37c.19,1.52,1.41,2,2.84,1.2l-.14.08,0,.11c.06.45.42.6.84.36l.59-.34a1.88,1.88,0,0,0,.83-1.32l0-.13-.14.08a6.39,6.39,0,0,0,2.83-4.48l0-.43v-1l.66-.39v-1.59l-.67.38v-.54l.67-.39v-1.59l-.66.38v-.54l.66-.39v-1.59a9.49,9.49,0,0,0,.92-3m.9-29.27c-.08.22,0,.41.12.43l.15,0a.74.74,0,0,0,.28-.34L570,80.58c.08-.21,0-.41-.12-.42a.25.25,0,0,0-.16,0,.73.73,0,0,0-.27.34L567,86.84M551.12,91c-.15.18-.2.44-.11.55L553.47,95c.06.08.17.08.28,0l.16-.14a.54.54,0,0,0,.11-.56l-2.47-3.47a.2.2,0,0,0-.27,0,.52.52,0,0,0-.16.14M570,117.42c.14-.19.2-.44.11-.56l-2.47-3.47a.19.19,0,0,0-.27,0,.42.42,0,0,0-.16.14.52.52,0,0,0-.11.56l2.47,3.46a.2.2,0,0,0,.27,0l.16-.14m-15.85,4.13c.08-.23,0-.42-.12-.43a.25.25,0,0,0-.16,0,.68.68,0,0,0-.27.34l-2.44,6.3c-.09.22,0,.41.11.43l.16,0a.67.67,0,0,0,.27-.34l2.45-6.3M549,118.92a.55.55,0,0,0,.12-.56.19.19,0,0,0-.27,0,.76.76,0,0,0-.17.15l-4.24,5.27c-.14.18-.2.44-.11.56a.2.2,0,0,0,.27,0l.16-.15,4.24-5.27m27.75-13.33c.09-.22,0-.42-.11-.43l-4.26-.36a.25.25,0,0,0-.16,0,.65.65,0,0,0-.27.33c-.08.23,0,.42.12.43l4.26.36.16,0a.66.66,0,0,0,.26-.34M572,89.46a.54.54,0,0,0-.11.57c.06.08.16.08.27,0l.16-.14,4.24-5.28a.5.5,0,0,0,.11-.55.2.2,0,0,0-.27,0,.49.49,0,0,0-.15.14L572,89.46M544.29,102.8c-.09.22,0,.41.11.42l4.26.37.16,0a.63.63,0,0,0,.27-.34c.09-.22,0-.42-.11-.43l-4.26-.36a.25.25,0,0,0-.16,0,.73.73,0,0,0-.27.34m15.87-19.58v5.65c0,.2.14.28.32.18a.73.73,0,0,0,.31-.55V82.86c0-.2-.14-.28-.32-.18a.69.69,0,0,0-.31.54m18.78,10.71a.71.71,0,0,0,.31-.55c0-.2-.14-.28-.31-.18L574,96a.69.69,0,0,0-.32.54c0,.2.15.28.32.18l4.91-2.83M541.81,115c0,.2.14.28.32.18l4.91-2.83a.71.71,0,0,0,.31-.55c0-.2-.15-.28-.31-.18l-4.91,2.84a.68.68,0,0,0-.32.54"/><path class="cls-21" d="M561.76,131.18l0,.13a1.88,1.88,0,0,1-.83,1.32l-.59.34c-.42.24-.78.09-.84-.36l0-.11.14-.08,2-1.16Z"/><path class="cls-13" d="M564.5,126.35l0,.43a6.39,6.39,0,0,1-2.83,4.48l-2,1.16c-1.43.83-2.65.32-2.84-1.2l-.06-.37Z"/><polygon class="cls-21" points="556.7 128.24 556.69 127.7 564.49 123.2 564.49 123.74 556.7 128.24"/><polygon class="cls-13" points="565.15 121.22 565.16 122.81 564.49 123.2 556.69 127.7 556.03 128.08 556.02 126.49 556.69 126.1 564.49 121.6 565.15 121.22"/><path class="cls-4" d="M564.31,102.72c.66-.38,1.19-.07,1.19.67l0,5.81a4.32,4.32,0,0,1-.62,2.09l-.95,1.65a3.21,3.21,0,0,0-.48,1.62V120l-.47.27v-5.48a4.13,4.13,0,0,1,.61-2.08l.95-1.65a3.27,3.27,0,0,0,.48-1.63v-5.8c0-.45-.33-.63-.72-.4a1.54,1.54,0,0,0-.7,1.21v5.3a2.56,2.56,0,0,1-1.17,2c-.66.38-1.19.07-1.19-.68l0-5.29c0-.44-.31-.63-.7-.4a1.55,1.55,0,0,0-.71,1.22l0,5.29a2.6,2.6,0,0,1-1.18,2c-.65.38-1.18.07-1.19-.68V108c0-.44-.32-.63-.71-.4a1.57,1.57,0,0,0-.71,1.22l0,5.81a1.15,1.15,0,0,0,.48,1.06l1,.55a1.46,1.46,0,0,1,.63,1.36v5.48l-.47.28v-5.48a1.19,1.19,0,0,0-.49-1.07l-1-.54a1.49,1.49,0,0,1-.62-1.37l0-5.81a2.59,2.59,0,0,1,1.18-2c.65-.37,1.18-.07,1.18.68l0,5.29c0,.45.31.64.7.41a1.53,1.53,0,0,0,.71-1.23v-5.29a2.61,2.61,0,0,1,1.17-2c.66-.38,1.19-.07,1.19.68v5.29c0,.45.33.63.72.41a1.57,1.57,0,0,0,.7-1.23v-5.29A2.58,2.58,0,0,1,564.31,102.72Z"/><path class="cls-14" d="M585.06,59.38,535.84,87.79l.2,70.54,49.22-28.42Zm-43.85,90L541,90.76l38.84-22.43.17,58.62-38.84,22.42"/><g class="cls-33"><path class="cls-4" d="M585.06,59.38,535.84,87.79l.2,70.54,49.22-28.42Zm-43.85,90L541,90.76l38.84-22.43.17,58.62-38.84,22.42"/></g><polygon class="cls-21" points="556.7 130.85 556.7 129.84 564.5 125.34 564.5 126.35 556.7 130.85"/><polygon class="cls-13" points="565.16 123.36 565.16 124.95 564.5 125.34 556.7 129.84 556.03 130.22 556.03 128.63 556.7 128.24 564.49 123.74 565.16 123.36"/><polygon class="cls-21" points="556.69 125.56 564.49 121.06 564.49 121.6 556.69 126.1 556.69 125.56"/><path class="cls-14" d="M560.5,90.68c6.46-3.7,11.67-.7,11.69,6.67a24,24,0,0,1-3.75,12.06,16.48,16.48,0,0,0-2.34,6.48l0,.22a9.49,9.49,0,0,1-.92,3l-1.67,1v-5.48a3.21,3.21,0,0,1,.48-1.62l.95-1.65a4.32,4.32,0,0,0,.62-2.09l0-5.81c0-.74-.53-1-1.19-.67a2.58,2.58,0,0,0-1.17,2v5.29a1.57,1.57,0,0,1-.7,1.23c-.39.22-.72,0-.72-.41v-5.29c0-.75-.53-1.06-1.19-.68a2.61,2.61,0,0,0-1.17,2v5.29a1.53,1.53,0,0,1-.71,1.23c-.39.23-.7,0-.7-.41l0-5.29c0-.75-.53-1.05-1.18-.68a2.59,2.59,0,0,0-1.18,2l0,5.81a1.49,1.49,0,0,0,.62,1.37l1,.54a1.19,1.19,0,0,1,.49,1.07v5.48l-1.66,1a3,3,0,0,1-.94-1.9l0-.25a4.66,4.66,0,0,0-2.41-3.72c-2.3-1.12-3.74-3.78-3.75-7.67C548.85,103.45,554.1,94.38,560.5,90.68Z"/><path class="cls-14" d="M563.61,112.75a4.13,4.13,0,0,0-.61,2.08v5.48l-4.86,2.8v-5.48a1.46,1.46,0,0,0-.63-1.36l-1-.55a1.15,1.15,0,0,1-.48-1.06l0-5.81a1.57,1.57,0,0,1,.71-1.22c.39-.23.71,0,.71.4v5.29c0,.75.54,1.06,1.19.68a2.6,2.6,0,0,0,1.18-2l0-5.29a1.55,1.55,0,0,1,.71-1.22c.39-.23.7,0,.7.4l0,5.29c0,.75.53,1.06,1.19.68a2.56,2.56,0,0,0,1.17-2v-5.3a1.54,1.54,0,0,1,.7-1.21c.39-.23.72,0,.72.4v5.8a3.27,3.27,0,0,1-.48,1.63Z"/><g class="cls-25"><path class="cls-4" d="M560.5,90.68c6.46-3.7,11.67-.7,11.69,6.67a24,24,0,0,1-3.75,12.06,16.48,16.48,0,0,0-2.34,6.48l0,.22a9.49,9.49,0,0,1-.92,3l-1.67,1v-5.48a3.21,3.21,0,0,1,.48-1.62l.95-1.65a4.32,4.32,0,0,0,.62-2.09l0-5.81c0-.74-.53-1-1.19-.67a2.58,2.58,0,0,0-1.17,2v5.29a1.57,1.57,0,0,1-.7,1.23c-.39.22-.72,0-.72-.41v-5.29c0-.75-.53-1.06-1.19-.68a2.61,2.61,0,0,0-1.17,2v5.29a1.53,1.53,0,0,1-.71,1.23c-.39.23-.7,0-.7-.41l0-5.29c0-.75-.53-1.05-1.18-.68a2.59,2.59,0,0,0-1.18,2l0,5.81a1.49,1.49,0,0,0,.62,1.37l1,.54a1.19,1.19,0,0,1,.49,1.07v5.48l-1.66,1a3,3,0,0,1-.94-1.9l0-.25a4.66,4.66,0,0,0-2.41-3.72c-2.3-1.12-3.74-3.78-3.75-7.67C548.85,103.45,554.1,94.38,560.5,90.68Z"/><path class="cls-4" d="M563.61,112.75a4.13,4.13,0,0,0-.61,2.08v5.48l-4.86,2.8v-5.48a1.46,1.46,0,0,0-.63-1.36l-1-.55a1.15,1.15,0,0,1-.48-1.06l0-5.81a1.57,1.57,0,0,1,.71-1.22c.39-.23.71,0,.71.4v5.29c0,.75.54,1.06,1.19.68a2.6,2.6,0,0,0,1.18-2l0-5.29a1.55,1.55,0,0,1,.71-1.22c.39-.23.7,0,.7.4l0,5.29c0,.75.53,1.06,1.19.68a2.56,2.56,0,0,0,1.17-2v-5.3a1.54,1.54,0,0,1,.7-1.21c.39-.23.72,0,.72.4v5.8a3.27,3.27,0,0,1-.48,1.63Z"/></g><polygon class="cls-13" points="565.15 119.08 565.15 120.67 564.49 121.06 556.69 125.56 556.02 125.94 556.02 124.35 565.15 119.08"/><path class="cls-4" d="M544.56,102.46a.25.25,0,0,1,.16,0l4.26.36c.15,0,.2.21.11.43a.63.63,0,0,1-.27.34l-.16,0-4.26-.37c-.14,0-.2-.2-.11-.42A.73.73,0,0,1,544.56,102.46Z"/><path class="cls-4" d="M567.32,113.37a.19.19,0,0,1,.27,0l2.47,3.47c.09.12,0,.37-.11.56l-.16.14a.2.2,0,0,1-.27,0l-2.47-3.46a.52.52,0,0,1,.11-.56A.42.42,0,0,1,567.32,113.37Z"/><path class="cls-4" d="M578.94,93.2c.17-.1.31,0,.31.18a.71.71,0,0,1-.31.55L574,96.76c-.17.1-.32,0-.32-.18A.69.69,0,0,1,574,96Z"/><path class="cls-4" d="M576.44,84.05a.2.2,0,0,1,.27,0,.5.5,0,0,1-.11.55l-4.24,5.28-.16.14c-.11.06-.21.06-.27,0a.54.54,0,0,1,.11-.57l4.25-5.27A.49.49,0,0,1,576.44,84.05Z"/><path class="cls-4" d="M548.87,118.33a.19.19,0,0,1,.27,0,.55.55,0,0,1-.12.56l-4.24,5.27-.16.15a.2.2,0,0,1-.27,0c-.09-.12,0-.38.11-.56l4.24-5.27A.76.76,0,0,1,548.87,118.33Z"/><path class="cls-4" d="M569.68,80.2a.25.25,0,0,1,.16,0c.15,0,.2.21.12.42l-2.44,6.31a.74.74,0,0,1-.28.34l-.15,0c-.16,0-.2-.21-.12-.43l2.44-6.3A.73.73,0,0,1,569.68,80.2Z"/><path class="cls-4" d="M547,111.62c.16-.1.31,0,.31.18a.71.71,0,0,1-.31.55l-4.91,2.83c-.18.1-.32,0-.32-.18a.68.68,0,0,1,.32-.54Z"/><path class="cls-4" d="M560.47,82.68c.18-.1.32,0,.32.18V88.5a.73.73,0,0,1-.31.55c-.18.1-.32,0-.32-.18V83.22A.69.69,0,0,1,560.47,82.68Z"/><path class="cls-4" d="M551.28,90.83a.2.2,0,0,1,.27,0L554,94.32a.54.54,0,0,1-.11.56l-.16.14c-.11.06-.22.06-.28,0L551,91.52c-.09-.11,0-.37.11-.55A.52.52,0,0,1,551.28,90.83Z"/><path class="cls-4" d="M572.24,104.84a.25.25,0,0,1,.16,0l4.26.36c.15,0,.2.21.11.43a.66.66,0,0,1-.26.34l-.16,0-4.26-.36c-.15,0-.2-.2-.12-.43A.65.65,0,0,1,572.24,104.84Z"/><path class="cls-4" d="M553.82,121.16a.25.25,0,0,1,.16,0c.15,0,.2.2.12.43l-2.45,6.3a.67.67,0,0,1-.27.34l-.16,0c-.14,0-.2-.21-.11-.43l2.44-6.3A.68.68,0,0,1,553.82,121.16Z"/><polygon class="cls-13" points="404.25 175.48 413.97 172.19 405.28 188.06 393.84 202 404.25 175.48"/><polygon class="cls-21" points="435.83 134.59 424.21 176.33 405.64 197.8 400.74 211.75 379.89 223.78 393.84 202 405.28 188.06 413.97 172.19 435.83 134.59"/><polygon class="cls-38" points="471.8 97.66 471.96 155.69 463.64 146.32 458.33 152.26 435.83 134.59 413.97 172.19 404.25 175.48 393.84 202 379.89 223.78 400.74 211.75 424.27 198.16 435.98 191.4 472.01 170.6 379.89 223.78 379.69 150.84 471.8 97.66"/><polygon class="cls-13" points="463.64 146.32 471.96 155.69 472.01 170.6 435.98 191.4 439.37 184.72 448.83 174.54 463.64 146.32"/><polygon class="cls-13" points="435.83 134.59 458.33 152.26 437.85 175.18 424.27 198.16 400.74 211.75 405.64 197.8 424.21 176.33 435.83 134.59"/><path class="cls-14" d="M371.69,146.28,479.75,83.9l.26,91.26L372,237.55ZM472,155.69l-.16-58-92.11,53.18.2,72.94L472,170.6,472,155.69"/><path class="cls-36" d="M371.69,146.28,479.75,83.9l.26,91.26L372,237.55ZM472,155.69l-.16-58-92.11,53.18.2,72.94L472,170.6,472,155.69"/><polygon class="cls-21" points="463.64 146.32 448.83 174.54 439.37 184.72 435.98 191.4 424.27 198.16 437.85 175.18 458.33 152.26 463.64 146.32"/><polygon class="cls-38" points="200.21 187.53 200.33 231.1 145.31 262.86 145.19 219.29 200.21 187.53"/><path class="cls-14" d="M140.41,216.57,205,179.31l.16,54.51-64.54,37.26Zm59.92,14.53-.12-43.57-55,31.77.12,43.56,55-31.76"/><g class="cls-33"><path class="cls-4" d="M140.41,216.57,205,179.31l.16,54.51-64.54,37.26Zm59.92,14.53-.12-43.57-55,31.77.12,43.56,55-31.76"/></g><path class="cls-9" d="M190.8,200.05c1-.57,1.79-.11,1.79,1l.07,25.3a3.91,3.91,0,0,1-1.78,3.08l-9.4,5.43c4.08-5.56,6.75-12.5,6.74-18.62s-2.73-10-6.83-10.78Z"/><path class="cls-17" d="M172.73,213.06c5.83-3.37,10.58-.67,10.6,6s-4.7,14.87-10.53,18.23-10.59.67-10.61-6S166.89,216.43,172.73,213.06Zm-3.24,12.57a7.21,7.21,0,0,0,3.26-5.65c0-2.08-1.48-2.91-3.29-1.87a7.17,7.17,0,0,0-3.26,5.65c0,2.08,1.47,2.92,3.29,1.87"/><path class="cls-9" d="M164.05,215.5c-4.09,5.56-6.76,12.5-6.75,18.62s2.72,10,6.83,10.79l-9.4,5.43c-1,.57-1.8.11-1.8-1l-.07-25.3a4,4,0,0,1,1.78-3.09Z"/><path class="cls-4" d="M169.46,218.11c1.81-1,3.28-.21,3.29,1.87a7.21,7.21,0,0,1-3.26,5.65c-1.82,1.05-3.29.21-3.29-1.87A7.17,7.17,0,0,1,169.46,218.11Z"/><path class="cls-13" d="M181.39,205.49c4.1.83,6.81,4.67,6.83,10.78s-2.66,13.06-6.74,18.62a29.34,29.34,0,0,1-8.67,8.07c-3.21,1.86-6.2,2.45-8.68,1.95-4.11-.83-6.81-4.67-6.83-10.79s2.66-13.06,6.75-18.62a29.26,29.26,0,0,1,8.66-8.06C175.92,205.58,178.91,205,181.39,205.49Zm-8.59,31.84c5.83-3.36,10.54-11.53,10.53-18.23s-4.77-9.41-10.6-6-10.56,11.53-10.54,18.24,4.77,9.4,10.61,6"/></g></svg>