<svg xmlns="http://www.w3.org/2000/svg" viewBox="0 0 700 455"><defs><style>.cls-1{fill:#ececec;}.cls-2{fill:#00dfdf;}.cls-3{fill:#22efe9;}.cls-4{fill:#cecece;}.cls-5{fill:#d8d8d8;}.cls-6{fill:#a8a8a8;}.cls-7{fill:#e1e1e1;}.cls-8,.cls-9{fill:#f0f0f0;}.cls-9{stroke:#e1e1e1;stroke-width:2px;}.cls-25,.cls-46,.cls-9{stroke-linecap:round;stroke-linejoin:round;}.cls-10{fill:#f5f5f5;}.cls-11{fill:#1a2e35;}.cls-12,.cls-32,.cls-37{opacity:0.6;}.cls-12,.cls-15,.cls-16,.cls-18,.cls-28,.cls-32,.cls-33,.cls-34,.cls-35,.cls-45,.cls-49{isolation:isolate;}.cls-13{fill:#054641;}.cls-14,.cls-28,.cls-29,.cls-30,.cls-32,.cls-33,.cls-34,.cls-35,.cls-37,.cls-41,.cls-42,.cls-45{fill:#fff;}.cls-15,.cls-18,.cls-33,.cls-42{opacity:0.2;}.cls-16{fill:#e2e2e2;}.cls-17{fill:#34dacd;}.cls-19{fill:#ffc9a1;}.cls-20{fill:#fcb373;}.cls-21{fill:#007cff;}.cls-22{fill:#1f3238;}.cls-23,.cls-30,.cls-49{opacity:0.3;}.cls-24{fill:#f9b88c;}.cls-25,.cls-27,.cls-46{fill:none;}.cls-25{stroke:#263237;stroke-width:0.72px;}.cls-26{fill:#fd5652;}.cls-27,.cls-46{stroke:#1a2e35;stroke-width:0.5px;}.cls-27{stroke-miterlimit:10;}.cls-28{opacity:0.4;}.cls-29,.cls-35{opacity:0.1;}.cls-31{fill:#bdfffc;}.cls-36{fill:#d15b66;}.cls-38{fill:#ec873e;}.cls-39{fill:#263237;}.cls-40{fill:#171d1e;}.cls-41{opacity:0.8;}.cls-43{fill:#ffbdb8;}.cls-44{fill:#fd897b;}.cls-45{opacity:0.04;}.cls-47{fill:#db8f8d;}.cls-48{fill:#b82635;}</style></defs><title>Illustration</title><g id="Layer_2" data-name="Layer 2"><rect class="cls-1" x="15" y="363.83" width="670" height="0.33"/><rect class="cls-1" x="573.48" y="385.4" width="44.38" height="0.33"/><rect class="cls-1" x="447.19" y="389.04" width="11.65" height="0.34"/><rect class="cls-1" x="546.42" y="372.96" width="25.72" height="0.34"/><rect class="cls-1" x="85.3" y="375.21" width="57.88" height="0.33"/><rect class="cls-1" x="155.1" y="375.21" width="8.49" height="0.33"/><rect class="cls-1" x="191.17" y="380.87" width="125.53" height="0.33"/><path class="cls-1" d="M332.6,304.07H73.85c-4.22,0-7.65-2.48-7.65-5.52V36.17c0-3,3.43-5.52,7.65-5.52H332.6c4.21,0,7.65,2.48,7.65,5.52V298.55C340.25,301.59,336.81,304.07,332.6,304.07ZM73.85,30.89c-4,0-7.32,2.37-7.32,5.28V298.55c0,2.91,3.28,5.28,7.32,5.28H332.6c4,0,7.31-2.37,7.31-5.28V36.17c0-2.91-3.28-5.28-7.31-5.28Z"/><path class="cls-1" d="M622.44,304.07H363.68c-4.21,0-7.64-2.48-7.64-5.52V36.17c0-3,3.43-5.52,7.64-5.52H622.44c4.21,0,7.64,2.48,7.64,5.52V298.55C630.08,301.59,626.65,304.07,622.44,304.07ZM363.68,30.89c-4,0-7.31,2.37-7.31,5.28V298.55c0,2.91,3.28,5.28,7.31,5.28H622.44c4,0,7.31-2.37,7.31-5.28V36.17c0-2.91-3.28-5.28-7.31-5.28Z"/><path class="cls-2" d="M120.61,332.1s-6-13.05.86-25.91,8.81-15.88,4.45-18.52S119.57,298,119.57,298s-3.67-8.89-.64-18.19,4.93-24.46.79-26.09-.79,18.91-4.38,25.9a60,60,0,0,1-3.51-15.26c-.5-7.47.28-19.4-3-22.46s-5.36-1-2.15,15.54a172.91,172.91,0,0,1,3.19,29.9S102.78,265.67,98,265s-4.75,6.37-.68,12.45,11.94,17,13.23,22.56c0,0-7.79-16.28-14.8-11.29s6.1,14.82,11.94,18.37,9.9,25.83,9.9,25.83Z"/><path class="cls-3" d="M115.89,337.45s5.83-13.14-1.16-25.89-9-15.76-4.68-18.46,6.48,10.19,6.48,10.19,3.56-8.94.42-18.2-5.23-24.38-1.11-26.06,1,18.89,4.7,25.83a60.47,60.47,0,0,0,3.33-15.31c.4-7.48-.52-19.4,2.72-22.51s5.35-1,2.33,15.51a173.19,173.19,0,0,0-2.83,29.94s6.84-21.73,11.59-22.43,4.83,6.3.83,12.43-11.73,17.14-12.95,22.76c0,0,7.59-16.39,14.65-11.51s-5.92,14.91-11.71,18.55-9.59,26-9.59,26Z"/><polygon class="cls-4" points="142.75 328.08 94.65 328.08 98.54 362.5 138.85 362.5 142.75 328.08"/><path class="cls-5" d="M580.29,325.64c.17-1.17,4.16-28.69-3.83-38.18a8.62,8.62,0,0,0-6.63-3.27c-16.13-.38-18.33,12.57-18.35,12.71l1.9.29c.07-.47,2-11.43,16.4-11.08a6.74,6.74,0,0,1,5.21,2.58c7.44,8.85,3.44,36.38,3.4,36.66Z"/><path class="cls-5" d="M581.27,324.38l1.92-.06c0-.25-.64-25.35,11.73-30.54,12.12-5.07,17.57,5.37,17.79,5.81l1.72-.86c-.06-.13-6.46-12.51-20.26-6.72C580.59,297.7,581.23,323.29,581.27,324.38Z"/><path class="cls-5" d="M581.21,326.35c0-.4.12-40.09,7.86-51.7,7.43-11.15,19.41-5.9,19.92-5.67l.8-1.75c-.14-.07-14-6.17-22.33,6.35-8.06,12.09-8.17,51.12-8.17,52.77Z"/><path class="cls-2" d="M567.52,285.14s7,2.6,5,8.73-24.36,16.21-24.36,16.21-9.32-8.55-.76-22.45S567.33,280.76,567.52,285.14Z"/><path class="cls-2" d="M589.41,272.56s-5-.54-4.59-3.58,19.43-10.89,30.66,1.79c0,0-7.19,12.35-17.58,12.51S589.41,272.56,589.41,272.56Z"/><path class="cls-2" d="M594.54,292.9s-3.45-2.79.28-4.15,22-1,22.18,17.12c0,0-21.28,3.54-23.91-3.35S594.54,292.9,594.54,292.9Z"/><polygon class="cls-4" points="563.74 362.5 596.76 362.5 600.32 326.35 560.18 326.35 563.74 362.5"/><rect class="cls-6" x="558.41" y="322.36" width="43.67" height="7.98" transform="translate(1160.5 652.7) rotate(180)"/><circle class="cls-7" cx="566.09" cy="72.86" r="18.98"/><circle class="cls-8" cx="566.09" cy="72.86" r="16.14"/><polyline class="cls-9" points="566.86 61.79 566.86 73.07 574.33 68.84"/><ellipse id="_Path_" data-name="&lt;Path&gt;" class="cls-10" cx="350" cy="409.18" rx="259.81" ry="15.17"/><rect class="cls-11" x="121.75" y="77.3" width="204.84" height="137.45"/><polygon class="cls-11" points="168.02 153.09 161.78 153.09 161.78 392.56 148.13 395.46 148.13 397.87 163.79 397.87 166.01 397.87 181.67 397.87 181.67 395.46 168.02 392.56 168.02 153.09"/><polygon class="cls-11" points="286.56 392.56 286.56 153.09 280.32 153.09 280.32 392.56 266.67 395.46 266.67 397.87 282.33 397.87 284.56 397.87 300.21 397.87 300.21 395.46 286.56 392.56"/><g class="cls-12"><rect class="cls-13" x="121.75" y="77.3" width="204.84" height="137.45"/><polygon class="cls-13" points="168.02 153.09 161.78 153.09 161.78 392.56 148.13 395.46 148.13 397.87 163.79 397.87 166.01 397.87 181.67 397.87 181.67 395.46 168.02 392.56 168.02 153.09"/><polygon class="cls-13" points="286.56 392.56 286.56 153.09 280.32 153.09 280.32 392.56 266.67 395.46 266.67 397.87 282.33 397.87 284.56 397.87 300.21 397.87 300.21 395.46 286.56 392.56"/></g><rect class="cls-14" x="161.37" y="49.54" width="125.6" height="192.98" transform="translate(370.2 -78.14) rotate(90)"/><g class="cls-15"><polygon points="306.01 199.92 139.42 199.92 139.42 106.53 140.76 106.53 140.76 198.58 306.01 198.58 306.01 199.92"/></g><rect class="cls-16" x="148.13" y="184.42" width="7.2" height="13.49"/><rect class="cls-17" x="148.13" y="184.42" width="7.2" height="3.93"/><rect class="cls-16" x="162.83" y="162.84" width="7.2" height="35.07"/><rect class="cls-17" x="162.83" y="162.84" width="7.2" height="10.21"/><rect class="cls-16" x="177.53" y="170.93" width="7.2" height="26.98"/><rect class="cls-17" x="177.53" y="170.93" width="7.2" height="7.86"/><rect class="cls-16" x="192.23" y="158.53" width="7.2" height="39.39"/><rect class="cls-17" x="192.23" y="158.53" width="7.2" height="11.47"/><rect class="cls-16" x="206.93" y="147.08" width="7.2" height="50.84"/><rect class="cls-17" x="206.93" y="147.08" width="7.2" height="14.8"/><rect class="cls-16" x="221.63" y="138.42" width="7.2" height="59.5"/><rect class="cls-17" x="221.63" y="138.42" width="7.2" height="17.32"/><rect class="cls-16" x="236.34" y="148.43" width="7.2" height="49.48"/><rect class="cls-17" x="236.34" y="148.43" width="7.2" height="14.41"/><rect class="cls-16" x="251.04" y="146.27" width="7.2" height="51.64"/><rect class="cls-17" x="251.04" y="146.27" width="7.2" height="15.04"/><rect class="cls-16" x="265.74" y="133.09" width="7.2" height="64.82"/><rect class="cls-17" x="265.74" y="133.09" width="7.2" height="18.87"/><rect class="cls-16" x="280.44" y="119.81" width="7.2" height="78.1"/><rect class="cls-17" x="280.44" y="119.81" width="7.2" height="22.74"/><rect class="cls-16" x="295.14" y="108.2" width="7.2" height="89.71"/><rect class="cls-17" x="295.14" y="108.2" width="7.2" height="26.12"/><rect class="cls-18" x="177.53" y="92.42" width="89.14" height="3.71"/><path class="cls-19" d="M318.27,183.87,312,180.81a43,43,0,0,0-2-4c-.13.06-11.92-2.43-11.92-2.43s-.13,7,1.19,8.44,9.41,2.16,9.81,2.42,1.32-.58,1.32-.58l6.63,4.35Z"/><path class="cls-11" d="M386.35,131.45s-2.59-6-10.94-6-15.3,5-14.91,11.33-4.37,5.77-5.16,11.93,2.18,7.75,2.38,10.34-3.18,1.79-5.37,6.16-5,10.54,4.38,18.69,35.78,6.75,41.54,1.78,5.57-14.51,0-17.09-.39-2.19.2-8-4.57-7.95-4.17-12.53S396.09,131.84,386.35,131.45Z"/><path class="cls-2" d="M353.9,170.13v16.39s-1.41,1.75-3.51,4a54.32,54.32,0,0,1-7.26,6.62c-2.52,1.82-5.05,3.06-7.1,2.8-6.49-.83-24-10.89-24-10.89l2.92-7.73s19.88,10.22,21.07,9.17S350.29,171.06,353.9,170.13Z"/><path class="cls-18" d="M350.39,190.53a54.32,54.32,0,0,1-7.26,6.62c-.95-7.32,7.44-16.34,7.44-16.34S350.69,185.5,350.39,190.53Z"/><path class="cls-20" d="M356.2,229.49s-10.89,58.05-13.8,81.89C338.6,342.47,323.08,388,323.08,388l6.2,1.6s21.89-38.65,26.16-73.43c17.39-35.55,18.79-79.32,18.79-79.32Z"/><path class="cls-11" d="M311.52,402a9,9,0,0,1,3.19-.81h0s3.81-2.25,7.6-11l4.25,0a3.5,3.5,0,0,1,3.27,2.34,2,2,0,0,1,.12.59,22.37,22.37,0,0,1-.33,3.06,84.31,84.31,0,0,1-2.48,10l-.72-.18,1.31-6.35c.43-2.16-1.83-.07-2.89,2.1s-2.66,4.37-7.36,3.29C312,403.8,309.8,403,311.52,402Z"/><path class="cls-20" d="M367.51,228.56s1.35,59.05,3.44,83c2.71,31.21-3.07,78.92-3.07,78.92l6.41.29s13.42-42.35,10.4-77.26c9.66-38.37,2-81.49,2-81.49Z"/><path class="cls-11" d="M357.91,404a9,9,0,0,1,3.09-1.15h0s3.55-2.65,6.37-11.73l4.22-.49a3.5,3.5,0,0,1,3.5,2,1.91,1.91,0,0,1,.19.57,22.61,22.61,0,0,1,0,3.08,83.38,83.38,0,0,1-1.39,10.22l-.73-.1.61-6.45c.2-2.2-1.82.12-2.63,2.4s-2.18,4.62-7,4.06C358.59,405.68,356.31,405.14,357.91,404Z"/><path class="cls-20" d="M323.08,388s-5.31,11.11-8.37,13.26c0,0,4.1,2.44,8.37-3,5.52-7,6.87-5.07,6.87-5.07a19.29,19.29,0,0,0-.67-3.59C328.45,387.29,323.08,388,323.08,388Z"/><path class="cls-20" d="M368.53,387.86S367,392,365,396.5a19.69,19.69,0,0,1-4,6.32s3.49,1.13,5.37-1.06,5.11-10.09,8.72-9.18a8.17,8.17,0,0,0-.8-1.84C373.75,389.84,368.53,387.86,368.53,387.86Z"/><path class="cls-21" d="M352.47,219.8s-4.31,43-10.72,86.06a455.11,455.11,0,0,1-17.23,72.36l12.73,1.06s24.38-60.43,31.8-95.42c0,0,2.65,62-1.59,96.48l11.13-.53s27.17-116.72,6.9-158.77Z"/><path class="cls-22" d="M378.59,379.81l-11.13.53c4.24-34.46,1.6-96.48,1.6-96.48-1.88,8.83-4.84,19.27-8.21,30-10,31.66-23.6,65.45-23.6,65.45l-12.73-1.06a455.11,455.11,0,0,0,17.23-72.36c6.41-43.09,10.72-86.06,10.72-86.06l33,1.25C405.76,263.08,378.59,379.81,378.59,379.81Z"/><path class="cls-18" d="M369.06,283.86c-1.88,8.83-4.84,19.27-8.21,30-1.28-20.12,3.83-56.21,3.83-56.21Z"/><polygon class="cls-11" points="385.41 218.96 385.5 223.81 352.3 221.9 352.19 216.16 385.41 218.96"/><rect class="cls-14" x="359.67" y="217.44" width="7.28" height="5.52" transform="translate(710.24 465.42) rotate(-175.97)"/><rect class="cls-21" x="374.11" y="217.15" width="1.65" height="8.39" transform="translate(742.55 454.63) rotate(-178.16)"/><rect class="cls-2" x="374.11" y="217.15" width="1.65" height="8.39" transform="translate(742.55 454.63) rotate(-178.16)"/><rect class="cls-21" x="353.81" y="215.31" width="1.65" height="8.39" transform="translate(702.04 450.26) rotate(-178.16)"/><rect class="cls-2" x="353.81" y="215.31" width="1.65" height="8.39" transform="translate(702.04 450.26) rotate(-178.16)"/><path class="cls-11" d="M352.25,216.77,385.41,219c.52-8.24,1.12-10.78,3.6-20.6.8-3.18,1.79-6.73,3.07-10.83.68-2.19,1.43-4.54,2.28-7.07.63-1.92,1.31-4,2.07-6.11A97.58,97.58,0,0,0,382.66,171a106.2,106.2,0,0,0-14.89-1.57c-6.46,0-13.87.68-13.87.68s-1.06.25-1.72,7.09C351.58,183.64,350.93,193.4,352.25,216.77Z"/><path class="cls-23" d="M352.25,216.77,385.41,219c.52-8.24,1.12-10.78,3.6-20.6.8-3.18,1.79-6.73,3.07-10.83.68-2.19,1.43-4.54,2.28-7.07.63-1.92,1.31-4,2.07-6.11A97.58,97.58,0,0,0,382.66,171a106.2,106.2,0,0,0-14.89-1.57c-6.46,0-13.87.68-13.87.68s-1.06.25-1.72,7.09C351.58,183.64,350.93,193.4,352.25,216.77Z"/><path class="cls-19" d="M370.5,176.78c8.18-1.05,10.64-4.54,10.64-4.54-5.19-4.9-.88-13.38-.88-13.38l-9.84,1.84a27.9,27.9,0,0,1,.38,4.14c.08,6-2.62,6-2.62,6C366.45,174.11,370.5,176.78,370.5,176.78Z"/><path class="cls-18" d="M370.42,160.7a27.9,27.9,0,0,1,.38,4.14c6.65,0,9.46-6,9.46-6Z"/><path class="cls-19" d="M375.86,133.19c-8.56-.47-11.56,4-12.67,12.74-1.39,11,.63,18.93,11.45,17.16C389.34,160.69,390.06,134,375.86,133.19Z"/><path class="cls-24" d="M368.75,145.75a18,18,0,0,1-2.69,3.41,2.36,2.36,0,0,0,2.2,1.1Z"/><path class="cls-11" d="M374,145.34c0,.7.28,1.3.75,1.34s.89-.51.94-1.21-.28-1.3-.74-1.33S374.08,144.64,374,145.34Z"/><path class="cls-11" d="M375.16,144.18l-1.48-.71S374.34,144.81,375.16,144.18Z"/><path class="cls-11" d="M365.31,144.51c-.06.7.28,1.3.75,1.34s.89-.5.94-1.21-.28-1.3-.75-1.33S365.36,143.81,365.31,144.51Z"/><path class="cls-11" d="M366.45,143.36l-1.48-.72S365.63,144,366.45,143.36Z"/><path class="cls-25" d="M374.43,139.44a4.47,4.47,0,0,1,3.64,1.49"/><path class="cls-25" d="M368.23,138.74a4,4,0,0,0-3.45.51"/><path class="cls-11" d="M369.33,153.69a21.14,21.14,0,0,1,.83,3,5.24,5.24,0,0,0,.56,0c2.5-.11,3.62-1,4.11-1.93a3.55,3.55,0,0,0,.22-2.37,11.92,11.92,0,0,1-4.87,1.25Z"/><path class="cls-14" d="M370.18,153.64l.27.88c2.36-.11,4-.51,4.71-1.26a3.37,3.37,0,0,0-.11-.87A11.92,11.92,0,0,1,370.18,153.64Z"/><path class="cls-26" d="M370.72,156.69c2.5-.11,3.62-1,4.11-1.93a8.18,8.18,0,0,0-2.76.67A3.08,3.08,0,0,0,370.72,156.69Z"/><path class="cls-11" d="M384.42,148.12s-3.62-7.25-2.71-12.64c0,0-16.58-7.86-18.36,9.3,0,0-.81-15.37,13.91-14.9s13.48,22,5.54,28C382.8,157.85,386.65,152.65,384.42,148.12Z"/><path class="cls-11" d="M385.29,132.37s-6.7-6-12.79-4.83-5,9.14,3,12.19,9.67,7,9.67,7l7-6.23Z"/><path class="cls-27" d="M370.71,130s-2.85.2-2.06,4.44,6.83,6.38,12.53,8.36,5.23,4.23,5.23,4.23"/><path class="cls-19" d="M382.92,149.85a3.76,3.76,0,0,1,4.23-3.21c2.63.43,3.6,5.94-3.07,6.89C383.13,153.67,382.64,152.71,382.92,149.85Z"/><path class="cls-19" d="M388.72,173.15s-9.6,7.78-18.54,7.66-12.08-10.18-12.08-10.18S372,166.53,388.72,173.15Z"/><path class="cls-2" d="M396.43,174.35l-4.32,51.74-9.27.78c-1.36-7-1.6-18.15-1.42-28.63h0c.24-14.21,1.24-27.21,1.24-27.21C387.81,171.56,396.43,174.35,396.43,174.35Z"/><path class="cls-28" d="M384.14,184l2.5,3.84-5.22,10.39c.24-14.21,1.24-27.21,1.24-27.21l8,7.42Z"/><path class="cls-2" d="M364.78,169.37h0c-.21.38-4.82,8.76-8.49,24.82a181.13,181.13,0,0,0-4.09,29.61l-3.54-1.64s-1.66-40.08,5.25-52Z"/><path class="cls-28" d="M364.77,169.38c-.21.38-4.82,8.76-8.49,24.82l-1.65-10.34,3.47-3.05-3.47-6.61Z"/><path class="cls-2" d="M409.85,205.6c-1,2.22-2.82,2.43-4.65,1.53a11.93,11.93,0,0,1-4.1-3.82c-.83-1.2-2-3-3.09-4.89-2.45-4.12-5-8.68-5-8.68l3.43-15.39C401.37,176.71,411.7,201.62,409.85,205.6Z"/><path class="cls-18" d="M405.2,207.13a11.93,11.93,0,0,1-4.1-3.82c-.83-1.2-2-3-3.09-4.89a46.33,46.33,0,0,1,2.9-4.63l2.5,7s4.37,1,5.06,3.27C408.73,204.94,407.24,206.16,405.2,207.13Z"/><path class="cls-11" d="M405.05,187.11l-8.25,31.47a1.62,1.62,0,0,1-1.73,1.15l-21.91-2.92a1.2,1.2,0,0,1-1-1.52l8.26-31.47a1.61,1.61,0,0,1,1.73-1.15l21.9,2.92A1.18,1.18,0,0,1,405.05,187.11Z"/><path class="cls-29" d="M405.05,187.11l-8.25,31.47a1.62,1.62,0,0,1-1.73,1.15L374.16,217a1.2,1.2,0,0,1-1-1.53L381.4,184a1.61,1.61,0,0,1,1.72-1.15L404,185.59A1.18,1.18,0,0,1,405.05,187.11Z"/><path class="cls-30" d="M389.85,199.11a2.29,2.29,0,0,0-2.47,1.65,1.7,1.7,0,0,0,1.46,2.18,2.3,2.3,0,0,0,2.48-1.65A1.71,1.71,0,0,1,389.85,199.11Z"/><path class="cls-2" d="M406.83,213c-1.48.78-4.8-.4-5.82-.81l-.31-.12s-1.82-5.93,2.92-9.13a.39.39,0,0,1,.11-.06c1.5-.82,6.18.23,6.32,1.81C410.61,211,408.59,212.09,406.83,213Z"/><path class="cls-18" d="M404,208a7.51,7.51,0,0,1-2.94,4.26l-.31-.12s-1.82-5.93,2.92-9.13a.39.39,0,0,1,.11-.06C404.14,203.43,404.78,204.84,404,208Z"/><path class="cls-19" d="M397.12,200.43s3-.13,4.44,0,1,4.63,1,4.63l1.2.65s1,2.64-1.11,4l-1.08-.37a3,3,0,0,1-1.16,1.59c-.86.53-5.1-.66-5.1-.66Z"/><path class="cls-11" d="M273.57,244.53h-43l7.14-28.24a1.58,1.58,0,0,1,1.46-1.12h40.7a.86.86,0,0,1,.89,1.12Z"/><polygon class="cls-21" points="273.25 242.17 232.03 242.17 238.3 217.38 279.51 217.38 273.25 242.17"/><polygon class="cls-31" points="273.25 242.17 232.03 242.17 238.3 217.38 279.51 217.38 273.25 242.17"/><path class="cls-11" d="M254.81,243.62h-43.1v1.8a1.39,1.39,0,0,0,1.39,1.39h59.08a1.39,1.39,0,0,0,1.39-1.39v-1.8Z"/><path class="cls-32" d="M254.81,243.62h-43.1v1.8a1.39,1.39,0,0,0,1.39,1.39h59.08a1.39,1.39,0,0,0,1.39-1.39v-1.8Z"/><path class="cls-33" d="M234.63,243.62v.62h-7.51v-.62H211.71v1.8a1.39,1.39,0,0,0,1.39,1.39h40.32a1.39,1.39,0,0,0,1.39-1.39v-1.8Z"/><polygon class="cls-32" points="257.14 232.01 237.39 232.01 240.26 220.68 260 220.68 257.14 232.01"/><polygon class="cls-2" points="259.84 221.35 240.09 221.35 240.26 220.68 260 220.68 259.84 221.35"/><polygon class="cls-34" points="272.2 240.4 244.73 240.4 248.71 224.63 276.19 224.63 272.2 240.4"/><polygon class="cls-2" points="275.96 225.56 248.48 225.56 248.71 224.63 276.19 224.63 275.96 225.56"/><polygon class="cls-11" points="552.2 410.61 545.95 410.61 534.71 254.12 543 254.12 552.2 410.61"/><polygon class="cls-35" points="552.21 410.61 545.95 410.61 535.25 261.89 534.7 254.37 543 254.37 543.45 261.89 552.21 410.61"/><polygon class="cls-18" points="543.45 261.52 535.25 261.52 534.7 254.37 543 254.37 543.45 261.52"/><polygon class="cls-11" points="376.63 410.61 370.38 410.61 379.57 254.12 387.87 254.12 376.63 410.61"/><polygon class="cls-35" points="387.87 254.37 387.32 261.89 376.63 410.61 370.38 410.61 379.12 261.89 379.57 254.37 387.87 254.37"/><polygon class="cls-18" points="379.57 254.37 387.87 254.37 387.32 261.52 379.12 261.52 379.57 254.37"/><polygon class="cls-11" points="300.67 410.61 294.41 410.61 283.17 254.12 291.47 254.12 300.67 410.61"/><polygon class="cls-35" points="300.67 410.61 294.41 410.61 283.72 261.89 283.17 254.37 291.47 254.37 291.92 261.89 300.67 410.61"/><polygon class="cls-18" points="291.92 261.52 283.72 261.52 283.17 254.37 291.47 254.37 291.92 261.52"/><polygon class="cls-11" points="138.5 410.61 132.25 410.61 141.44 254.12 149.74 254.12 138.5 410.61"/><polygon class="cls-35" points="149.74 254.37 149.19 261.89 138.5 410.61 132.25 410.61 140.99 261.89 141.44 254.37 149.74 254.37"/><polygon class="cls-18" points="141.44 254.37 149.74 254.37 149.19 261.52 140.99 261.52 141.44 254.37"/><path class="cls-21" d="M134.87,250.2H549.58a0,0,0,0,1,0,0v6.13a1.7,1.7,0,0,1-1.7,1.7H136.57a1.7,1.7,0,0,1-1.7-1.7V250.2A0,0,0,0,1,134.87,250.2Z"/><path class="cls-13" d="M134.87,250.2H549.58a0,0,0,0,1,0,0v6.13a1.7,1.7,0,0,1-1.7,1.7H136.57a1.7,1.7,0,0,1-1.7-1.7V250.2A0,0,0,0,1,134.87,250.2Z"/><rect class="cls-18" x="134.87" y="250.2" width="414.72" height="3.92"/><path class="cls-21" d="M553.46,251.22H131a2.21,2.21,0,0,1-2.21-2.2h0a2.21,2.21,0,0,1,2.21-2.21H553.46a2.21,2.21,0,0,1,2.21,2.21h0A2.21,2.21,0,0,1,553.46,251.22Z"/><path class="cls-13" d="M553.46,251.22H131a2.21,2.21,0,0,1-2.21-2.2h0a2.21,2.21,0,0,1,2.21-2.21H553.46a2.21,2.21,0,0,1,2.21,2.21h0A2.21,2.21,0,0,1,553.46,251.22Z"/><path class="cls-11" d="M414.53,244.53h43.05l-7.14-28.24a1.57,1.57,0,0,0-1.45-1.12H408.28a.87.87,0,0,0-.89,1.12Z"/><polygon class="cls-21" points="414.85 242.17 456.07 242.17 449.8 217.38 408.59 217.38 414.85 242.17"/><polygon class="cls-31" points="414.85 242.17 456.07 242.17 449.8 217.38 408.59 217.38 414.85 242.17"/><path class="cls-11" d="M433.29,243.62h43.1v1.8a1.39,1.39,0,0,1-1.38,1.39H415.92a1.39,1.39,0,0,1-1.39-1.39v-1.8Z"/><path class="cls-32" d="M433.29,243.62h43.1v1.8a1.39,1.39,0,0,1-1.38,1.39H415.92a1.39,1.39,0,0,1-1.39-1.39v-1.8Z"/><path class="cls-33" d="M453.47,243.62v.62H461v-.62h15.41v1.8a1.39,1.39,0,0,1-1.38,1.39H434.68a1.4,1.4,0,0,1-1.39-1.39v-1.8Z"/><polygon class="cls-34" points="416.66 240.35 453.64 240.35 448.28 219.13 411.29 219.13 416.66 240.35"/><polygon class="cls-2" points="411.61 220.37 448.59 220.37 448.28 219.13 411.29 219.13 411.61 220.37"/><g id="_Group_" data-name="&lt;Group&gt;"><path class="cls-36" d="M508.73,399.47l10.57-.66a.67.67,0,0,1,.74.6h0l1,8.33a1.67,1.67,0,0,1-1.54,1.77c-3.7.17-5.47.07-10.12.32-2.85.17-8.48.78-12.42.4s-3.45-4.27-1.75-4.45c4-.46,9.37-3.43,11.9-5.68A2.64,2.64,0,0,1,508.73,399.47Z"/><path class="cls-36" d="M454.89,399.47l10.57-.66a.67.67,0,0,1,.73.6h0l1,8.33a1.66,1.66,0,0,1-1.54,1.77c-3.69.17-5.46.07-10.11.32-2.86.17-8.48.78-12.42.4s-3.46-4.27-1.76-4.45c4-.46,9.38-3.43,11.9-5.68A2.67,2.67,0,0,1,454.89,399.47Z"/><path class="cls-20" d="M494.57,240.11l-8.67,1.3a33.42,33.42,0,0,0-6.06-1.3,40.2,40.2,0,0,0-6.72,0s-3.93,1.47-3.93,5.24c0,0,9.17,2.45,12.69,1l12.69-1Z"/><path class="cls-21" d="M515.17,207c-5.4,5.59-9.09,27.2-10.07,28.68s-19.65,4.17-19.65,4.17-2,4.08,0,7.45c0,0,23.14-1.06,25.94-2.53s9.69-17.62,9.69-17.62a32.84,32.84,0,0,0-.91-11.12C518.61,209.16,515.17,207,515.17,207Z"/><path class="cls-37" d="M515.17,207c-5.4,5.59-9.09,27.2-10.07,28.68s-19.65,4.17-19.65,4.17-2,4.08,0,7.45c0,0,23.14-1.06,25.94-2.53s9.69-17.62,9.69-17.62a32.84,32.84,0,0,0-.91-11.12C518.61,209.16,515.17,207,515.17,207Z"/><path class="cls-38" d="M474.14,177.25a24.14,24.14,0,0,1-2.64,5.15,3.13,3.13,0,0,0,3.16.87Z"/><path class="cls-39" d="M472.67,175.72c.11.93.7,1.63,1.32,1.56s1-.89.93-1.82-.7-1.63-1.32-1.56S472.56,174.79,472.67,175.72Z"/><path class="cls-25" d="M472.91,172a1.76,1.76,0,0,1,1.52.54"/><path class="cls-20" d="M476.59,187.76c.22.41.46.8.71,1.18a13.18,13.18,0,0,0,7.87,5.42,11.72,11.72,0,0,0,9.9-2,11.87,11.87,0,0,0,3.09-3.53c3.37-5.72,1.92-11,.17-20a12.65,12.65,0,0,0-20-8C470.46,166.6,472.62,180.2,476.59,187.76Z"/><path class="cls-18" d="M483.28,193.76a13,13,0,0,0,1.89.6,11.72,11.72,0,0,0,9.9-2,13.56,13.56,0,0,0-2.36-2.63A18.25,18.25,0,0,0,483.28,193.76Z"/><path class="cls-20" d="M509.28,200c-3.39,5.12-19.64,7.13-19.64,7.13s-7.19-.14-6.31-2.6c3.8-1.66,5.25-4,5.45-6.56a12,12,0,0,0-.75-4.64,25.27,25.27,0,0,0-1-2.44l10.84-13.24C495.07,192.32,503.77,196.41,509.28,200Z"/><path class="cls-40" d="M474.09,160.28c3.08-4.82,5.81-4,5.81-4,2-4.05,13.46-4.21,19.3-.24s7.88,11.44,7.5,17.36c-.57,8.62-6,17.38-6,17.38h0c-6.8,1.82-12.5.33-12.93-3.27s-4.08-6.27-4.08-6.27c-3.34,1.13-6.37-2.6-6.37-2.6s-3.8-3.35-2.78-8S471.5,164.35,474.09,160.28Z"/><path class="cls-20" d="M484.93,178.89a6,6,0,0,1-2,4.73c-1.63,1.23-3.47-1-3.89-3.79-.35-2.44,0-6.11,2.1-6.16S485,176.33,484.93,178.89Z"/><path class="cls-40" d="M479,179s.92,7.82,3,10.93,1.85,4.17,4.73,4.66c0,0-1.62,2.16-3.08,1.85s-1.13-1.55-2.42-1.53-3.53-.88-3.29-2.21.49-1.7-1.22-2.85-2.3-3.76-1.38-4.84a3.12,3.12,0,0,1,2.68-.75l-.14-5.81Z"/><path class="cls-21" d="M486.25,204.57s2.62-11.77,18.42-11.66l4,5.83Z"/><path class="cls-41" d="M486.25,204.57s2.62-11.77,18.42-11.66l4,5.83Z"/><path class="cls-11" d="M488.9,350.3c6,22.75,15.41,52.1,15.41,52.1l16.57-1.27s-9-39.6-11.46-63.9c-1.52-15-1.39-27.42,3-28.38,2.77-.61,9.24-.59,17.52-.4V277.56c-23.25,4.78-46.4,13.79-48.16,21C479.32,308.74,483.62,330.27,488.9,350.3Z"/><path class="cls-18" d="M488.9,350.3c6.18-3.92,13.42-8.52,20.52-13.07-1.52-15-1.39-27.42,3-28.38,2.77-.61,9.24-.59,17.52-.4V277.56c-23.25,4.78-46.4,13.79-48.16,21C479.32,308.74,483.62,330.27,488.9,350.3Z"/><path class="cls-21" d="M498.36,268.37l-3.94-11.9s-2.84-22-17.21-49.8c0,0,17.3-12.29,36.48-10.46,14.75,1.41,28.63,39.24,33,69.18Z"/><path class="cls-36" d="M546.67,265.39l-48.31,3-3.95-11.9a99.1,99.1,0,0,0-2.06-10.15c-1.1-4.39-2.71-10-5.05-16.53a189.87,189.87,0,0,0-10.09-23.12s17.3-12.28,36.47-10.45C528.45,197.62,542.33,235.44,546.67,265.39Z"/><path class="cls-11" d="M498,274.53,496.5,262.8l47.4-7.8s15.5,30.71,7.91,45.77c-7,13.81-81,5.58-92.45,8.07s7.76,92.09,7.76,92.09l-16.57,1.26s-27.09-81.9-21.82-103.61C431,289.1,470.08,276.56,498,274.53Z"/><polygon points="545.64 260.33 523.67 263.21 522.96 259.98 544.97 256.78 545.64 260.33"/><polygon points="521.14 260 521.4 263.21 501.1 266.01 501.1 262.82 521.14 260"/><polygon points="499.84 263 499.84 266.01 496.9 266.4 496.9 263.49 499.84 263"/><path class="cls-18" d="M492.35,247.36a160,160,0,0,0-5.05-15.75,12.45,12.45,0,0,1,3.47-4.44S495.31,242,492.35,247.36Z"/><path class="cls-20" d="M454,243.43l-7.31-1.17a32.47,32.47,0,0,0-6.06-1.3,40.2,40.2,0,0,0-6.72,0s-3.93,1.47-3.93,5.24c0,0,9.17,2.45,12.69,1l10.8,2.44Z"/><path class="cls-21" d="M477.21,207c-3.41,3.75-1.42,34.45-2.53,36.55S448,241.42,448,241.42L446.31,249s30.06,8.84,35.57,8.94,8.88-32.42,8.88-32.42a28.13,28.13,0,0,0-4.8-10.3A27.58,27.58,0,0,0,477.21,207Z"/><path class="cls-36" d="M477.21,207c-3.41,3.75-1.42,34.45-2.53,36.55S448,241.42,448,241.42L446.31,249s30.06,8.84,35.57,8.94,8.88-32.42,8.88-32.42a28.13,28.13,0,0,0-4.8-10.3A27.58,27.58,0,0,0,477.21,207Z"/></g><path class="cls-6" d="M471.51,299H565.4a0,0,0,0,1,0,0v8.28a6.79,6.79,0,0,1-6.79,6.79H478.3a6.79,6.79,0,0,1-6.79-6.79V299A0,0,0,0,1,471.51,299Z" transform="translate(1036.9 613.04) rotate(180)"/><path class="cls-11" d="M534.59,261.65H482.9c-2.66,0-4.63,2.88-4,5.89l9.25,46.52h2.13l-7.87-40.77c-.58-3,1.38-5.87,4-5.87h47.13Z"/><path class="cls-11" d="M512.42,315.69V355a2.28,2.28,0,0,0,2.29,2.28h9.63a2.27,2.27,0,0,0,2.29-2.28v-39.3Z"/><circle class="cls-11" cx="569.79" cy="406.44" r="4.18"/><path class="cls-42" d="M567.7,406.44a2.09,2.09,0,1,1,2.09,2.08A2.08,2.08,0,0,1,567.7,406.44Z"/><path class="cls-11" d="M465.09,406.44a4.18,4.18,0,1,1,4.18,4.17A4.18,4.18,0,0,1,465.09,406.44Z"/><path class="cls-42" d="M467.18,406.44a2.09,2.09,0,1,1,2.09,2.08A2.09,2.09,0,0,1,467.18,406.44Z"/><path class="cls-11" d="M516.07,388.11V343.19H523v44.92c26.9.69,43.25,10.1,46.52,12.16a1.29,1.29,0,0,1,.61,1.11v3.74a1.32,1.32,0,0,1-1.32,1.32h0a1.32,1.32,0,0,1-1.14-.67l-1.6-2.8A151.27,151.27,0,0,0,523,395.84v7.38a1.7,1.7,0,0,1-1.71,1.71h-3.49a1.71,1.71,0,0,1-1.71-1.71v-7.38A151.14,151.14,0,0,0,473,403l-1.6,2.8a1.32,1.32,0,0,1-1.15.67h0a1.32,1.32,0,0,1-1.32-1.32v-3.74a1.31,1.31,0,0,1,.61-1.11C472.82,398.21,489.17,388.8,516.07,388.11Z"/><rect class="cls-11" x="517.26" y="402.26" width="4.53" height="8.35" transform="translate(1039.06 812.87) rotate(180)"/><rect class="cls-18" x="512.42" y="315.69" width="14.21" height="16.33"/><path class="cls-11" d="M468.94,311.64v4.69a2.25,2.25,0,0,0,2.07,2.4H565.9a2.25,2.25,0,0,0,2.06-2.4v-4.69a2.25,2.25,0,0,0-2.06-2.4H471A2.26,2.26,0,0,0,468.94,311.64Z"/><path class="cls-11" d="M512.6,314.06H568s17.59-28.89,17.59-76.62V219.91a13.14,13.14,0,0,0-13.22-13H548.85a13.14,13.14,0,0,0-13.21,12.68C535,244.13,531.29,297.39,512.6,314.06Z"/><path class="cls-42" d="M524.77,314.06h40.68a4.21,4.21,0,0,0,3.74-2.23c4-7.63,16.36-34.4,16.36-74.39V219.91a13.13,13.13,0,0,0-13.21-13H552.05a13.13,13.13,0,0,0-13.21,12.68c-.61,22-3.6,66.83-17.56,88A4.17,4.17,0,0,0,524.77,314.06Z"/><path class="cls-18" d="M468.94,311.64v4.69a2.25,2.25,0,0,0,2.06,2.4h42.52a3,3,0,0,0,2.79-3.24v-3a3,3,0,0,0-2.79-3.24H471A2.26,2.26,0,0,0,468.94,311.64Z"/><g id="_Group_2" data-name="&lt;Group&gt;"><path class="cls-43" d="M216.15,211.38l-4.06,1-.94-3.27a3,3,0,0,1-2.87,0A20.24,20.24,0,0,1,206.5,208c-1.81-1.2-3.95-2.83-3.95-2.83l3.13-6.39s1.37.55,3,1.28c2.36,1.06,5.32,2.47,5.85,3.22.88,1.27.44,3.65.44,3.65Z"/><path class="cls-18" d="M206.5,208c-1.81-1.2-3.95-2.83-3.95-2.83l3.13-6.39s1.37.55,3,1.28A11.34,11.34,0,0,1,206.5,208Z"/><polygon class="cls-44" points="272.23 358.99 265.51 361.62 260.67 352.51 256.28 344.22 263.73 339.75 268.23 349.93 272.23 358.99"/><polygon class="cls-18" points="268.23 349.93 260.67 352.51 256.28 344.22 263.73 339.75 268.23 349.93"/><path class="cls-11" d="M266.84,345l-9.15,4.91s-34.56-60.77-39.88-60.27-55.73,32.64-71.11,20.77-.41-47.59-.41-47.59,31.81-9.09,35.26-2.1a50.64,50.64,0,0,1,2.27,6.39c.68,2.19,1.19,4,1.19,4h0c1-.39,32.39-13.27,46.41-6.37C245.69,271.75,266.84,345,266.84,345Z"/><polygon class="cls-44" points="217.15 394.51 209.98 393.69 209.94 383.57 209.93 374.29 218.6 373.88 217.84 384.8 217.15 394.51"/><polygon class="cls-18" points="217.81 385.02 209.92 383.77 209.92 374.38 218.59 373.93 217.81 385.02"/><polygon class="cls-36" points="253.22 346.85 266.6 340.14 267.99 345.81 257.86 351.04 253.22 346.85"/><path class="cls-11" d="M170.46,310.47s2.2-.25,36-6.51c0,0,.76,43.24,2.37,75.47l10.41.34s14.94-71.54,13.19-82.34-14.61-12.27-14.61-12.27S195.51,302.5,170.46,310.47Z"/><path class="cls-45" d="M170.46,310.47s2.2-.25,36-6.51c0,0,.76,43.24,2.37,75.47l10.41.34s14.94-71.54,13.19-82.34-14.61-12.27-14.61-12.27S195.51,302.5,170.46,310.47Z"/><polygon class="cls-36" points="206.93 376.55 221.13 376.22 219.19 382.07 207.66 382.18 206.93 376.55"/><path class="cls-11" d="M285.6,370.91a9.74,9.74,0,0,0-3.48-.39h0s-4.34-1.81-9.58-10.45l-4.48.59A3.72,3.72,0,0,0,265,363.6a2.28,2.28,0,0,0-.05.64,26.69,26.69,0,0,0,.79,3.17,89.13,89.13,0,0,0,4.06,10.17l.74-.3-2.3-6.48c-.77-2.21,1.91-.35,3.33,1.79s3.44,4.2,8.22,2.4C285.34,372.85,287.54,371.7,285.6,370.91Z"/><path class="cls-44" d="M271.4,357.78s7.2,10.93,10.72,12.74c0,0-4,3.16-9.23-1.94-6.83-6.61-8-4.34-8-4.34a21.39,21.39,0,0,1,.18-3.87C265.65,357.86,271.4,357.78,271.4,357.78Z"/><path class="cls-11" d="M227.88,407.23a9.4,9.4,0,0,0-3.28-1.2h0s-3.79-2.79-6.83-12.42l-4.49-.49a3.72,3.72,0,0,0-3.71,2.11,2.27,2.27,0,0,0-.19.61,25.64,25.64,0,0,0,0,3.28A90.4,90.4,0,0,0,210.93,410l.78-.12L211,403c-.23-2.32,1.94.13,2.81,2.54s2.34,4.9,7.42,4.27C227.17,409.05,229.58,408.46,227.88,407.23Z"/><path class="cls-44" d="M217.2,391.11s4.4,12.32,7.4,14.92c0,0-4.6,2.13-8.51-4.08-5.07-8-6.71-6.11-6.71-6.11a21.15,21.15,0,0,1,1.09-3.71C211.6,389.82,217.2,391.11,217.2,391.11Z"/><path class="cls-46" d="M209,185.44a4.55,4.55,0,0,0-3.64,1.7"/><path class="cls-47" d="M207.9,191.33a18.31,18.31,0,0,0,2.9,3.34,2.42,2.42,0,0,1-2.19,1.23Z"/><path class="cls-11" d="M209.15,188.79c.1.71-.22,1.33-.69,1.4s-.93-.47-1-1.18.22-1.34.7-1.41S209.06,188.07,209.15,188.79Z"/><path class="cls-11" d="M207.94,187.66l1.47-.8S208.8,188.26,207.94,187.66Z"/><path class="cls-43" d="M190.64,205.87a2.49,2.49,0,0,0,.3.19,13.13,13.13,0,0,0,4.68,2c4.88.88,8.15.06,10.2-2.23h0c2.86-3.43,3.33-9.28,2.56-16.26a26.25,26.25,0,0,0-1.93-8.11s0-.1,0-.13a2.55,2.55,0,0,1-.13-.29,9.61,9.61,0,0,0-7.32-5.49,19.3,19.3,0,0,0-4.16-.27C181.15,175.82,179.79,198.57,190.64,205.87Z"/><path class="cls-18" d="M190.94,206.06a12.81,12.81,0,0,0,4.67,1.82c4.88.88,8.14-.1,10.19-2.43a13.63,13.63,0,0,1-8.7-.28C195.1,204.37,192.94,204.93,190.94,206.06Z"/><path class="cls-11" d="M206.46,181.38s1.22,9.54-7.66,14.1c0,0-3.41,10.14-9.14,10.57-7.82.57-15.26-10.23-13.1-21.7C179.35,169.47,201.58,167.18,206.46,181.38Z"/><path class="cls-43" d="M203.27,192.5c-.08-1.49-1.4-3.94-3.71-3.49s-3.43,6.47,2.54,7.5C203,196.66,203.42,195.62,203.27,192.5Z"/><path class="cls-11" d="M189.28,172s9-2.76,14.26.67c6.11,4,8.56,8.33,1.91,15.57,0,0-15.59-4.23-20.64-2.93a56.19,56.19,0,0,0-8.63,3C174.61,178.21,184.07,170.18,189.28,172Z"/><path class="cls-43" d="M197.86,207.14s-6.71,3.28-4.75,10.47L176,210.5s9.33-.59,8.86-7.15C184.88,203.35,194.65,199.6,197.86,207.14Z"/><path class="cls-11" d="M191.61,173.86s-5.1-14.69-16.67-12.15-10.67,14.95-2.4,18.79S192.41,182.88,191.61,173.86Z"/><path class="cls-11" d="M175.73,180.26s-10.21-.06-8.95,8.69a7.37,7.37,0,0,1,3.18-4s-3.09,2.36,0,6.46c0,0-1.24-2.67,3-4.53s15.77-1.69,13.62-7.4S175.73,180.26,175.73,180.26Z"/><path class="cls-46" d="M189.81,173.84s-2.46-17.88-16.89-14.27"/><path class="cls-46" d="M184.07,200.15s-10.52-5.31-8.65-13.74"/><path class="cls-46" d="M174.68,180.32s-9.21-.14-10,6.13"/><path class="cls-48" d="M177.19,210l4.18-3s13.71,1.86,13.85,10.6S177.19,210,177.19,210Z"/><path class="cls-11" d="M174.68,210s10.29-2,24.61,7.59c0,0,4.79,21-15.47,49.46l-38.4-2.41S155.82,222.68,174.68,210Z"/><path class="cls-49" d="M185,271.1l-13.07,6.57s4.33-7.24,11.88-10.6C184.5,269.26,185,271.1,185,271.1Z"/><path class="cls-36" d="M198.12,236.93a71.2,71.2,0,0,1-2.7,8.75,93.93,93.93,0,0,1-11.59,21.39l-38.41-2.41s10.4-42,29.27-54.65c0,0,10.28-2,24.6,7.6C199.29,217.61,201,225,198.12,236.93Z"/><path class="cls-48" d="M198.12,236.93a71.2,71.2,0,0,1-2.7,8.75,57,57,0,0,1,.08-9.48A7.71,7.71,0,0,1,198.12,236.93Z"/><path class="cls-11" d="M199.29,217.61s11.29,16.24,14.21,17.8S210.8,210,210.8,210l5.45-1.19s9.66,32.41,3.18,38-23.94-10.6-23.94-10.6a60.84,60.84,0,0,1,0-11.13A12.52,12.52,0,0,1,199.29,217.61Z"/><path class="cls-36" d="M199.29,217.61s11.29,16.24,14.21,17.8S210.8,210,210.8,210l5.45-1.19s9.66,32.41,3.18,38-23.94-10.6-23.94-10.6a60.84,60.84,0,0,1,0-11.13A12.52,12.52,0,0,1,199.29,217.61Z"/></g><path class="cls-21" d="M121.75,299h80.3a6.79,6.79,0,0,1,6.79,6.79v8.28a0,0,0,0,1,0,0H115a0,0,0,0,1,0,0v-8.28A6.79,6.79,0,0,1,121.75,299Z"/><path class="cls-6" d="M121.75,299h80.3a6.79,6.79,0,0,1,6.79,6.79v8.28a0,0,0,0,1,0,0H115a0,0,0,0,1,0,0v-8.28A6.79,6.79,0,0,1,121.75,299Z"/><path class="cls-11" d="M145.76,261.65h51.7c2.66,0,4.62,2.88,4,5.89l-9.24,46.52h-2.13L198,273.29c.58-3-1.38-5.87-4-5.87H146.82Z"/><path class="cls-11" d="M167.94,315.69V355a2.28,2.28,0,0,1-2.29,2.28H156a2.27,2.27,0,0,1-2.29-2.28v-39.3Z"/><path class="cls-11" d="M114.75,406.44a4.18,4.18,0,1,0-4.18,4.17A4.18,4.18,0,0,0,114.75,406.44Z"/><path class="cls-42" d="M112.66,406.44a2.09,2.09,0,1,0-2.09,2.08A2.09,2.09,0,0,0,112.66,406.44Z"/><path class="cls-11" d="M215.26,406.44a4.18,4.18,0,1,0-4.17,4.17A4.18,4.18,0,0,0,215.26,406.44Z"/><circle class="cls-42" cx="211.09" cy="406.44" r="2.09"/><path class="cls-11" d="M164.28,388.11V343.19h-6.91v44.92c-26.9.69-43.24,10.1-46.52,12.16a1.31,1.31,0,0,0-.61,1.11v3.74a1.33,1.33,0,0,0,1.32,1.32h0a1.32,1.32,0,0,0,1.15-.67l1.6-2.8a151.14,151.14,0,0,1,43.06-7.13v7.38a1.71,1.71,0,0,0,1.71,1.71h3.5a1.7,1.7,0,0,0,1.7-1.71v-7.38A151.17,151.17,0,0,1,207.35,403l1.6,2.8a1.32,1.32,0,0,0,1.14.67h0a1.33,1.33,0,0,0,1.33-1.32v-3.74a1.31,1.31,0,0,0-.61-1.11C207.53,398.21,191.19,388.8,164.28,388.11Z"/><rect class="cls-11" x="158.56" y="402.26" width="4.53" height="8.35"/><rect class="cls-18" x="153.73" y="315.69" width="14.21" height="16.33"/><path class="cls-11" d="M211.42,311.64v4.69a2.25,2.25,0,0,1-2.07,2.4H114.46a2.25,2.25,0,0,1-2.06-2.4v-4.69a2.25,2.25,0,0,1,2.06-2.4h94.89A2.26,2.26,0,0,1,211.42,311.64Z"/><path class="cls-11" d="M167.76,314.06H112.4s-17.59-28.89-17.59-76.62V219.91a13.14,13.14,0,0,1,13.22-13H131.5a13.13,13.13,0,0,1,13.21,12.68C145.4,244.13,149.06,297.39,167.76,314.06Z"/><path class="cls-42" d="M155.58,314.06H114.9a4.23,4.23,0,0,1-3.74-2.23c-4-7.63-16.35-34.4-16.35-74.39V219.91a13.13,13.13,0,0,1,13.21-13h20.29a13.12,13.12,0,0,1,13.2,12.68c.61,22,3.61,66.83,17.57,88A4.17,4.17,0,0,1,155.58,314.06Z"/><path class="cls-18" d="M211.42,311.64v4.69a2.25,2.25,0,0,1-2.06,2.4H166.83a3,3,0,0,1-2.78-3.24v-3a3,3,0,0,1,2.78-3.24h42.52A2.26,2.26,0,0,1,211.42,311.64Z"/></g></svg>