<svg xmlns="http://www.w3.org/2000/svg" viewBox="0 0 700 640"><defs><style>.cls-1{fill:#ececec;}.cls-2{fill:#f5f5f5;}.cls-3{fill:#e1e1e1;}.cls-4{fill:#fafafa;}.cls-5,.cls-8{fill:#fff;}.cls-6{fill:#1a2e35;}.cls-7{fill:#00dfdf;}.cls-8{fill-rule:evenodd;}.cls-9{fill:#054641;}.cls-10{fill:none;}.cls-11{fill:#63d4d4;}.cls-12{fill:#9bb5b3;}.cls-13{opacity:0.4;}.cls-14{fill:#ffbe9d;}.cls-15{fill:#eb996e;}.cls-16{fill:#375a64;}.cls-17{fill:#d15b66;}.cls-18{opacity:0.6;}.cls-19{opacity:0.3;}.cls-20{fill:#376b67;}.cls-21{fill:#ffbdb8;}.cls-22{opacity:0.2;isolation:isolate;}.cls-23{fill:#1f3238;}.cls-24{opacity:0.1;}</style></defs><title>Illustration</title><g id="Layer_9" data-name="Layer 9"><path class="cls-1" d="M85,490.18l-2.34.65-7.08-5.68-1.3-4.67s-3.67.79-1.55,6.78S74,491.82,74,491.82s-7.66,2.16-8.12,3c-.33.61,1.59,8.29,2.66,12.44A4.64,4.64,0,0,0,73,510.89a3.49,3.49,0,0,0,.86-.11c1.91-.54,11.25-4.81,11.25-4.81l4-1.13Z"/><polygon class="cls-1" points="91.37 487.04 94.38 503.42 90.38 504.54 86.02 488.88 91.37 487.04"/><path class="cls-2" d="M506.19,542.32v18.75h-3.14v2h3.14v12.55h58.52V564.24h-4.34v-2.49h4.34V558h1.93v-1.7h-2.29v-14Z"/><polygon class="cls-3" points="549.17 542.38 549.17 575.45 564.71 575.45 564.71 564.03 560.37 564.03 560.37 561.75 564.71 561.83 564.71 558.1 566.67 558.1 566.63 556.17 564.35 556.12 564.35 542.32 549.17 542.38"/><path class="cls-3" d="M550.27,562.84c0,.11-10.58.21-23.65.21S503,563,503,562.84s10.59-.21,23.65-.21S550.27,562.72,550.27,562.84Z"/><path class="cls-3" d="M550.27,560.93c0,.12-10.58.21-23.65.21s-23.65-.09-23.65-.21,10.59-.2,23.65-.2S550.27,560.82,550.27,560.93Z"/><path class="cls-3" d="M553.31,555.81c0,.11-10.59.21-23.65.21s-23.65-.1-23.65-.21,10.59-.21,23.65-.21S553.31,555.69,553.31,555.81Z"/><path class="cls-3" d="M553.6,569.78c0,.11-10.58.21-23.65.21s-23.65-.1-23.65-.21,10.59-.21,23.65-.21S553.6,569.66,553.6,569.78Z"/><rect class="cls-2" x="600.73" y="520.04" width="13.05" height="15.51"/><rect class="cls-3" x="542.21" y="519.03" width="58.97" height="17.5"/><path class="cls-3" d="M614.17,520.5H599.6V519h14.57a.74.74,0,0,1,.74.74h0A.74.74,0,0,1,614.17,520.5Z"/><path class="cls-3" d="M614.17,536.53H599.6v-1.47h14.57a.74.74,0,0,1,.74.73h0A.74.74,0,0,1,614.17,536.53Z"/><rect class="cls-1" x="589.57" y="519.03" width="6.97" height="17.5"/><rect class="cls-1" x="547.82" y="519.22" width="6.97" height="17.5"/><path class="cls-3" d="M613.77,522.61s-2.82.07-6.3.07-6.31,0-6.31-.07,2.82-.08,6.31-.08S613.77,522.56,613.77,522.61Z"/><path class="cls-3" d="M613.77,524.93c0,.05-2.82.08-6.3.08s-6.31,0-6.31-.08,2.82-.07,6.31-.07S613.77,524.89,613.77,524.93Z"/><path class="cls-3" d="M613.77,527.8s-2.82.07-6.3.07-6.31,0-6.31-.07,2.82-.08,6.31-.08S613.77,527.75,613.77,527.8Z"/><path class="cls-3" d="M613.77,530.66s-2.82.08-6.3.08-6.31,0-6.31-.08,2.82-.08,6.31-.08S613.77,530.62,613.77,530.66Z"/><path class="cls-3" d="M613.77,533.53s-2.82.07-6.3.07-6.31,0-6.31-.07,2.82-.08,6.31-.08S613.77,533.48,613.77,533.53Z"/><rect class="cls-1" x="559.3" y="526.22" width="26.53" height="3.15"/><rect class="cls-4" x="600.39" y="536.87" width="13.25" height="9.45"/><rect class="cls-2" x="544.16" y="536.53" width="56.38" height="10.14"/><path class="cls-2" d="M600.13,537.22h14.24a.35.35,0,0,0,.35-.35h0a.35.35,0,0,0-.35-.34H600.13Z"/><path class="cls-2" d="M600.13,546.67h14.24a.35.35,0,0,0,.35-.35h0a.35.35,0,0,0-.35-.34H600.13Z"/><path class="cls-3" d="M613.64,538.67s-2.93.08-6.55.08-6.55,0-6.55-.08,2.93-.08,6.55-.08S613.64,538.62,613.64,538.67Z"/><path class="cls-3" d="M613.64,540.46s-2.93.07-6.55.07-6.55,0-6.55-.07,2.93-.08,6.55-.08S613.64,540.41,613.64,540.46Z"/><path class="cls-3" d="M613.64,542.24s-2.93.08-6.55.08-6.55,0-6.55-.08,2.93-.07,6.55-.07S613.64,542.2,613.64,542.24Z"/><path class="cls-3" d="M613.64,544c0,.05-2.93.08-6.55.08s-6.55,0-6.55-.08,2.93-.08,6.55-.08S613.64,544,613.64,544Z"/><rect class="cls-1" x="602.13" y="547.57" width="13.52" height="25.62"/><rect class="cls-3" x="538.65" y="546.67" width="63.48" height="27.78"/><path class="cls-3" d="M616.71,574.45H600.39v-1.8h16.32a.9.9,0,0,1,.9.9h0A.9.9,0,0,1,616.71,574.45Z"/><path class="cls-3" d="M616.71,548.47H600.39v-1.8h16.32a.9.9,0,0,1,.9.9h0A.9.9,0,0,1,616.71,548.47Z"/><path class="cls-3" d="M615.65,551s-3,.08-6.76.08-6.76,0-6.76-.08,3-.07,6.76-.07S615.65,551,615.65,551Z"/><path class="cls-3" d="M615.65,554.29s-3,.08-6.76.08-6.76,0-6.76-.08,3-.08,6.76-.08S615.65,554.25,615.65,554.29Z"/><path class="cls-3" d="M615.65,557.58s-3,.07-6.76.07-6.76,0-6.76-.07,3-.08,6.76-.08S615.65,557.53,615.65,557.58Z"/><path class="cls-3" d="M615.65,560.86s-3,.08-6.76.08-6.76,0-6.76-.08,3-.08,6.76-.08S615.65,560.82,615.65,560.86Z"/><path class="cls-3" d="M615.65,564.15s-3,.08-6.76.08-6.76,0-6.76-.08,3-.08,6.76-.08S615.65,564.11,615.65,564.15Z"/><path class="cls-3" d="M615.65,567.43c0,.05-3,.08-6.76.08s-6.76,0-6.76-.08,3-.07,6.76-.07S615.65,567.39,615.65,567.43Z"/><path class="cls-3" d="M615.65,570.72s-3,.08-6.76.08-6.76,0-6.76-.08,3-.08,6.76-.08S615.65,570.68,615.65,570.72Z"/><path class="cls-1" d="M560.37,562.08v1.54c0,1.87-.93,2.93-2.72,2.93s-2.73-1.06-2.73-2.93v-6c0-1.86.93-2.92,2.73-2.92s2.72,1.06,2.72,2.92v1.13h-1.72v-1.24c0-.83-.37-1.15-.95-1.15s-1,.32-1,1.15v6.28c0,.83.37,1.13,1,1.13s.95-.3.95-1.13v-1.66Z"/><path class="cls-1" d="M561.34,557.57c0-1.86,1-2.92,2.77-2.92s2.78,1.06,2.78,2.92v6c0,1.87-1,2.93-2.78,2.93s-2.77-1.06-2.77-2.93Zm1.83,6.17c0,.83.36,1.15.94,1.15s.95-.32.95-1.15v-6.28c0-.83-.37-1.15-.95-1.15s-.94.32-.94,1.15Z"/><path class="cls-1" d="M568.07,554.78h1.83v10h3v1.67h-4.83Z"/><path class="cls-1" d="M573.55,557.57c0-1.86,1-2.92,2.78-2.92s2.77,1.06,2.77,2.92v6c0,1.87-1,2.93-2.77,2.93s-2.78-1.06-2.78-2.93Zm1.83,6.17c0,.83.36,1.15,1,1.15s.94-.32.94-1.15v-6.28c0-.83-.36-1.15-.94-1.15s-1,.32-1,1.15Z"/><path class="cls-1" d="M582,554.78v9c0,.83.36,1.13.94,1.13s.95-.3.95-1.13v-9h1.73v8.86c0,1.86-.93,2.93-2.73,2.93s-2.72-1.07-2.72-2.93v-8.86Z"/><path class="cls-1" d="M590.72,566.42a3.58,3.58,0,0,1-.17-1.43v-1.83c0-1.08-.36-1.48-1.19-1.48h-.64v4.74H586.9V554.78h2.75c1.9,0,2.71.88,2.71,2.68v.91a2.32,2.32,0,0,1-1.19,2.36c.91.38,1.21,1.27,1.21,2.48V565a3.52,3.52,0,0,0,.2,1.42Zm-2-10V560h.72c.68,0,1.1-.3,1.1-1.23v-1.15c0-.83-.29-1.2-.94-1.2Z"/><path class="cls-3" d="M560,540.52h-1.33l.07-.34h3.06l-.08.34h-1.33l-.68,3.43h-.4Z"/><path class="cls-3" d="M564.34,541.12l-2.07,3.2c-.35.54-.61.71-1,.71a.93.93,0,0,1-.68-.25l.21-.29a.65.65,0,0,0,.5.21c.24,0,.43-.11.65-.46l.2-.3-.71-2.82h.39l.59,2.41,1.55-2.41Z"/><path class="cls-3" d="M567.5,542.29a1.6,1.6,0,0,1-1.61,1.69,1.06,1.06,0,0,1-1.08-.62l-.32,1.64h-.39l.78-3.88h.36l-.09.45a1.45,1.45,0,0,1,1.11-.48A1.15,1.15,0,0,1,567.5,542.29Zm-.39,0a.83.83,0,0,0-.93-.88,1.24,1.24,0,0,0-1.23,1.33.83.83,0,0,0,.94.88A1.24,1.24,0,0,0,567.11,542.31Z"/><path class="cls-3" d="M568,542.78a1.61,1.61,0,0,1,1.64-1.69,1.17,1.17,0,0,1,1.29,1.2,1.62,1.62,0,0,1-1.64,1.69A1.17,1.17,0,0,1,568,542.78Zm2.54-.47a.83.83,0,0,0-.93-.88,1.24,1.24,0,0,0-1.23,1.33.82.82,0,0,0,.93.88A1.24,1.24,0,0,0,570.49,542.31Z"/><path class="cls-3" d="M574.55,541.12l-.5,2.49A1.51,1.51,0,0,1,572.4,545a1.78,1.78,0,0,1-1.26-.43l.23-.29a1.48,1.48,0,0,0,1.06.38,1.11,1.11,0,0,0,1.23-1l.07-.31a1.5,1.5,0,0,1-1.14.49,1.13,1.13,0,0,1-1.25-1.15,1.57,1.57,0,0,1,1.62-1.61,1.11,1.11,0,0,1,1.11.65l.11-.62Zm-.65,1.13c0-.51-.35-.82-.94-.82a1.2,1.2,0,0,0-1.23,1.25c0,.52.34.83.94.83A1.21,1.21,0,0,0,573.9,542.25Z"/><path class="cls-3" d="M577.05,541.09l-.07.38h-.1a1.12,1.12,0,0,0-1.15,1l-.29,1.44h-.38l.56-2.83H576l-.09.51A1.27,1.27,0,0,1,577.05,541.09Z"/><path class="cls-3" d="M580.31,541.12l-.57,2.83h-.37l.1-.44a1.48,1.48,0,0,1-1.11.47,1.14,1.14,0,0,1-1.24-1.2,1.6,1.6,0,0,1,1.61-1.69,1.08,1.08,0,0,1,1.08.62l.11-.59Zm-.64,1.19a.83.83,0,0,0-.93-.88,1.24,1.24,0,0,0-1.23,1.33.82.82,0,0,0,.93.88A1.24,1.24,0,0,0,579.67,542.31Z"/><path class="cls-3" d="M584,542.29a1.6,1.6,0,0,1-1.61,1.69,1.07,1.07,0,0,1-1.08-.62L581,545h-.38l.77-3.88h.37l-.1.45a1.45,1.45,0,0,1,1.11-.48A1.15,1.15,0,0,1,584,542.29Zm-.39,0a.83.83,0,0,0-.93-.88,1.24,1.24,0,0,0-1.23,1.33.83.83,0,0,0,.94.88A1.23,1.23,0,0,0,583.6,542.31Z"/><path class="cls-3" d="M587.43,542a1.82,1.82,0,0,1,0,.32l-.33,1.61h-.38l.32-1.61a1.3,1.3,0,0,0,0-.26c0-.41-.24-.64-.73-.64a1.11,1.11,0,0,0-1.16,1l-.3,1.52h-.38l.79-4h.39l-.32,1.59a1.38,1.38,0,0,1,1.08-.45A.89.89,0,0,1,587.43,542Z"/><path class="cls-3" d="M591,541.12l-2.08,3.2c-.35.54-.61.71-1,.71a.93.93,0,0,1-.68-.25l.21-.29a.65.65,0,0,0,.5.21c.24,0,.43-.11.65-.46l.2-.3-.7-2.82h.38l.59,2.41,1.55-2.41Z"/><path class="cls-1" d="M145.07,340.53h0a30.74,30.74,0,0,1-30.75-30.74h0A30.75,30.75,0,0,1,145.07,279h0a30.74,30.74,0,0,1,30.74,30.75h0A30.74,30.74,0,0,1,145.07,340.53Z"/><path class="cls-5" d="M145.07,290.19a19.6,19.6,0,1,0,19.6,19.6A19.59,19.59,0,0,0,145.07,290.19Zm0,3.41a16.13,16.13,0,0,1,9.87,3.38,19.79,19.79,0,0,1-8.15,6,75.68,75.68,0,0,0-5.69-8.88A16.24,16.24,0,0,1,145.07,293.6Zm-7.31,1.76a73,73,0,0,1,5.78,8.79,51.59,51.59,0,0,1-14.18,1.8A16.23,16.23,0,0,1,137.76,295.36Zm-8.88,14.43c0-.14,0-.28,0-.42a54.76,54.76,0,0,0,16.25-2.16c.38.78.74,1.56,1.09,2.34a25.24,25.24,0,0,0-13.61,10.58A16.08,16.08,0,0,1,128.88,309.79ZM145.07,326a16.13,16.13,0,0,1-9.94-3.43c3.22-5.05,7.32-8.33,12.41-9.85a64.44,64.44,0,0,1,3.34,12.18A16,16,0,0,1,145.07,326Zm9-2.73A66.79,66.79,0,0,0,150.92,312a32.68,32.68,0,0,1,10.12.32A16.21,16.21,0,0,1,154.05,323.25Zm-4.44-14.49c-.4-.92-.81-1.84-1.25-2.75a23.16,23.16,0,0,0,9.06-6.66,16.1,16.1,0,0,1,3.79,9.53A34.87,34.87,0,0,0,149.61,308.76Z"/><path class="cls-1" d="M42.65,272.33l-3.59,2-13.8-6.61-3.92-7.16s-5.73,2.7.06,11.71,3.77,7,3.77,7S13.43,285.74,13,287.3c-.3,1.13,5.78,13,9.13,19.4A7.82,7.82,0,0,0,30.79,311a5.71,5.71,0,0,0,1.36-.52c2.94-1.61,16.63-12.22,16.63-12.22L55,294.82Z"/><polygon class="cls-1" points="51.83 264.74 63.07 290.47 56.92 293.83 43.76 269.81 51.83 264.74"/><path class="cls-1" d="M123.35,377.06l-2.33-.37-3.92-7.9.76-4.63s-3.56-.81-4.12,5.33S113,374,113,374s-7.63-1.21-8.38-.65c-.54.4-2,7.94-2.73,12a4.51,4.51,0,0,0,2.43,5,3.37,3.37,0,0,0,.8.25C107,391,117,391,117,391l4,.66Z"/><polygon class="cls-1" points="130.2 376.87 126.19 392.53 122.21 391.88 124.74 376.31 130.2 376.87"/><path class="cls-1" d="M638.23,141.52l-2.32-.38L632,133.25l.76-4.64s-3.56-.81-4.13,5.33-.77,4.53-.77,4.53-7.63-1.22-8.37-.66c-.54.41-2,7.95-2.73,12a4.52,4.52,0,0,0,2.42,5,3.34,3.34,0,0,0,.8.24c1.91.31,11.88.35,11.88.35l4,.65Z"/><polygon class="cls-1" points="645.09 141.33 641.07 156.99 637.09 156.34 639.63 140.77 645.09 141.33"/><path class="cls-6" d="M687,575.24c0,.16-148.41.28-331.45.28s-331.48-.12-331.48-.28S172.46,575,355.55,575,687,575.09,687,575.24Z"/><path class="cls-7" d="M149.07,522.69h0a26.22,26.22,0,0,1-26.23-26.22h0a26.23,26.23,0,0,1,26.23-26.23h0a26.22,26.22,0,0,1,26.22,26.23h0A26.22,26.22,0,0,1,149.07,522.69Z"/><path class="cls-8" d="M163.44,495.74a14.12,14.12,0,0,0-28.22-.26c0,.21,0,.41,0,.62a13.86,13.86,0,0,0,2,7.24l-2.55,7.52,7.82-2.49a14.14,14.14,0,0,0,20.95-12.27C163.45,496,163.45,495.86,163.44,495.74Zm-14.11,12.14a11.81,11.81,0,0,1-6.54-1.95l-4.56,1.45,1.48-4.37a11.69,11.69,0,0,1-2.26-6.91,10.93,10.93,0,0,1,.06-1.15,11.88,11.88,0,0,1,23.65.23c0,.3,0,.61,0,.92A11.84,11.84,0,0,1,149.33,507.88Z"/><path class="cls-8" d="M155.8,498.93c-.35-.17-2.05-1-2.37-1.12s-.55-.17-.78.17-.9,1.12-1.09,1.34-.41.26-.76.09A9.31,9.31,0,0,1,148,497.7a10.21,10.21,0,0,1-1.93-2.37.5.5,0,0,1,.16-.7c.15-.16.34-.4.52-.6l.12-.17a3,3,0,0,0,.22-.41.63.63,0,0,0,0-.6c-.09-.17-.78-1.86-1.08-2.55s-.57-.57-.78-.57-.43,0-.66,0a1.24,1.24,0,0,0-.92.43,3.82,3.82,0,0,0-1.21,2.87,4.26,4.26,0,0,0,.18,1.17,7.85,7.85,0,0,0,1.23,2.38c.17.22,2.4,3.81,5.91,5.19s3.53.91,4.16.85a3.47,3.47,0,0,0,2.34-1.63,2.82,2.82,0,0,0,.2-1.64C156.38,499.19,156.14,499.1,155.8,498.93Z"/><path class="cls-7" d="M77.49,354.55h0a20.21,20.21,0,0,1-20.22-20.21h0a20.21,20.21,0,0,1,20.22-20.21h0A20.21,20.21,0,0,1,97.7,334.34h0A20.21,20.21,0,0,1,77.49,354.55Z"/><path class="cls-5" d="M71,336.21a.47.47,0,0,0,.69-.34c.06-.24.21-.85.28-1.11a.65.65,0,0,0-.2-.76,4,4,0,0,1-.91-2.71,6.53,6.53,0,0,1,6.79-6.6c3.7,0,5.74,2.26,5.74,5.28,0,4-1.76,7.33-4.37,7.33a2.13,2.13,0,0,1-2.18-2.65c.42-1.75,1.22-3.64,1.22-4.9a1.85,1.85,0,0,0-1.86-2.07c-1.48,0-2.66,1.53-2.66,3.57a5.3,5.3,0,0,0,.44,2.18s-1.51,6.4-1.78,7.52a15.88,15.88,0,0,0,0,5.24.19.19,0,0,0,.33.08A14.75,14.75,0,0,0,75,341.75c.17-.61,1-3.79,1-3.79a3.94,3.94,0,0,0,3.37,1.72c4.43,0,7.44-4,7.44-9.45,0-4.09-3.47-7.9-8.73-7.9-6.55,0-9.86,4.7-9.86,8.62C68.19,333.32,69.09,335.43,71,336.21Z"/><path class="cls-9" d="M53.21,451.09h0a27.67,27.67,0,0,1-27.68-27.67h0a27.67,27.67,0,0,1,27.68-27.67h0a27.67,27.67,0,0,1,27.67,27.67h0A27.67,27.67,0,0,1,53.21,451.09Z"/><path class="cls-5" d="M53.21,411c4,0,4.53,0,6.13.09a8.33,8.33,0,0,1,2.81.52,4.66,4.66,0,0,1,1.75,1.14A4.6,4.6,0,0,1,65,414.47a8.34,8.34,0,0,1,.53,2.82c.07,1.6.08,2.08.08,6.13s0,4.53-.08,6.13a8.4,8.4,0,0,1-.53,2.82,4.6,4.6,0,0,1-1.13,1.74,4.78,4.78,0,0,1-1.75,1.14,8.6,8.6,0,0,1-2.81.52c-1.6.07-2.08.09-6.13.09s-4.54,0-6.14-.09a8.66,8.66,0,0,1-2.81-.52,4.78,4.78,0,0,1-1.75-1.14,4.6,4.6,0,0,1-1.13-1.74,8.4,8.4,0,0,1-.53-2.82c-.07-1.6-.08-2.08-.08-6.13s0-4.53.08-6.13a8.34,8.34,0,0,1,.53-2.82,4.6,4.6,0,0,1,1.13-1.74,4.66,4.66,0,0,1,1.75-1.14,8.39,8.39,0,0,1,2.81-.52c1.6-.07,2.08-.09,6.14-.09m0-2.73c-4.13,0-4.64,0-6.26.09a11.11,11.11,0,0,0-3.68.7,7.47,7.47,0,0,0-2.69,1.75,7.56,7.56,0,0,0-1.75,2.69,11.19,11.19,0,0,0-.71,3.68c-.07,1.62-.09,2.14-.09,6.26s0,4.64.09,6.25a11.2,11.2,0,0,0,.71,3.69A7.52,7.52,0,0,0,40.58,436a7.22,7.22,0,0,0,2.69,1.75,10.83,10.83,0,0,0,3.68.71c1.62.07,2.13.09,6.26.09s4.63,0,6.25-.09a10.83,10.83,0,0,0,3.68-.71A7.22,7.22,0,0,0,65.83,436a7.52,7.52,0,0,0,1.75-2.68,11.2,11.2,0,0,0,.71-3.69c.07-1.61.09-2.13.09-6.25s0-4.64-.09-6.26a11.19,11.19,0,0,0-.71-3.68,7.56,7.56,0,0,0-1.75-2.69A7.47,7.47,0,0,0,63.14,409a11.11,11.11,0,0,0-3.68-.7c-1.62-.08-2.13-.09-6.25-.09"/><path class="cls-5" d="M53.21,415.63A7.79,7.79,0,1,0,61,423.42a7.8,7.8,0,0,0-7.79-7.79m0,12.85a5.06,5.06,0,1,1,5-5.06,5.06,5.06,0,0,1-5,5.06"/><path class="cls-5" d="M63.13,415.32a1.83,1.83,0,1,1-1.83-1.82,1.83,1.83,0,0,1,1.83,1.82"/><path class="cls-9" d="M120.64,273.74h0A16.67,16.67,0,0,1,104,257.07h0a16.67,16.67,0,0,1,16.67-16.66h0a16.66,16.66,0,0,1,16.67,16.66h0A16.67,16.67,0,0,1,120.64,273.74Z"/><path class="cls-5" d="M118.1,267.15h4.06V257H125l.3-3.4h-3.13v-1.94c0-.8.16-1.12.94-1.12h2.19V247h-2.81c-3,0-4.38,1.33-4.38,3.87v2.72H116V257h2.11Z"/><circle class="cls-5" cx="534.67" cy="172.83" r="24.04" transform="translate(-17.04 66.26) rotate(-6.98)"/><path class="cls-6" d="M558.71,172.83s-.05-.53-.11-1.53a10.75,10.75,0,0,0-.2-1.84,16.24,16.24,0,0,0-.5-2.48,22.72,22.72,0,0,0-2.66-6.38,23.9,23.9,0,0,0-28.71-10.22,22.47,22.47,0,0,0-6,3.25,26.71,26.71,0,0,0-2.71,2.31,27.17,27.17,0,0,0-2.34,2.77,23.76,23.76,0,0,0,0,28.24,27.17,27.17,0,0,0,2.34,2.77,26.71,26.71,0,0,0,2.71,2.31,22.47,22.47,0,0,0,6,3.25,23.93,23.93,0,0,0,28.72-10.22,23.42,23.42,0,0,0,2.66-6.37,17.79,17.79,0,0,0,.49-2.49,10.75,10.75,0,0,0,.2-1.84c.06-1,.11-1.53.11-1.53s0,.53-.05,1.53a11.61,11.61,0,0,1-.17,1.86,17.64,17.64,0,0,1-.48,2.49,22.43,22.43,0,0,1-2.63,6.43,24.09,24.09,0,0,1-16.25,11.42,24.24,24.24,0,0,1-12.69-1,22.68,22.68,0,0,1-6.12-3.28,28.61,28.61,0,0,1-2.74-2.33,27.9,27.9,0,0,1-2.38-2.8,24,24,0,0,1,0-28.58,27.9,27.9,0,0,1,2.38-2.8,28.61,28.61,0,0,1,2.74-2.33,22.68,22.68,0,0,1,6.12-3.28,24.07,24.07,0,0,1,28.94,10.39A22.72,22.72,0,0,1,558,167a17.92,17.92,0,0,1,.48,2.49,11.61,11.61,0,0,1,.17,1.86C558.7,172.3,558.71,172.83,558.71,172.83Z"/><path class="cls-10" d="M534.67,157.13a15.7,15.7,0,1,0,15.71,15.7A15.72,15.72,0,0,0,534.67,157.13Z"/><path class="cls-11" d="M534.67,157.13a12.18,12.18,0,0,1,3.87.36,15.67,15.67,0,0,1,8.81,5.69,15.83,15.83,0,0,1,2.38,15.11,15,15,0,0,1-2.17,4.06,15.23,15.23,0,0,1-3.4,3.4,15.9,15.9,0,0,1-19,0,15.23,15.23,0,0,1-3.4-3.4,15,15,0,0,1-2.17-4.06A15.83,15.83,0,0,1,522,163.18a15.63,15.63,0,0,1,8.81-5.69,12.12,12.12,0,0,1,3.86-.36,31.79,31.79,0,0,0-3.79.63A15.65,15.65,0,0,0,519.54,170a15.46,15.46,0,0,0,.7,8.07,14.7,14.7,0,0,0,2.1,3.89,14.37,14.37,0,0,0,3.27,3.24,15.28,15.28,0,0,0,18.13,0,15.35,15.35,0,0,0,5.37-7.13A15.4,15.4,0,0,0,547,163.49a15.63,15.63,0,0,0-8.48-5.73A31.73,31.73,0,0,0,534.67,157.13Z"/><path class="cls-10" d="M534.67,167.85a5,5,0,1,0,5,5A5,5,0,0,0,534.67,167.85Z"/><path class="cls-11" d="M534.67,167.85a2.31,2.31,0,0,1,1.25,0,5,5,0,0,1,2.92,1.79,5.19,5.19,0,0,1,.82,5,5.29,5.29,0,0,1-10,0,5.22,5.22,0,0,1,.83-5,5,5,0,0,1,2.91-1.79,2.28,2.28,0,0,1,1.25,0c0,.06-.44.07-1.18.29a5,5,0,0,0-2.57,1.83,4.68,4.68,0,1,0,7.51,0,5,5,0,0,0-2.57-1.83C535.12,167.92,534.67,167.91,534.67,167.85Z"/><path class="cls-2" d="M509.06,190.15c8.31-5.79,17.31-11.53,25.61-17.32"/><path class="cls-6" d="M534.67,172.83c.05.07-5.65,4-12.72,8.78s-12.84,8.61-12.89,8.54,5.65-4,12.73-8.78S534.63,172.77,534.67,172.83Z"/><path class="cls-6" d="M511.88,188.48a31.49,31.49,0,0,1-5.93-.22,15.71,15.71,0,0,1,3,0A15.5,15.5,0,0,1,511.88,188.48Z"/><path class="cls-6" d="M510.87,192.38a8,8,0,0,1,.3-2,7.6,7.6,0,0,1,.57-2,7.63,7.63,0,0,1-.29,2A7.38,7.38,0,0,1,510.87,192.38Z"/><path class="cls-6" d="M512.33,191.92a7.7,7.7,0,0,1,.23-2.12,7.84,7.84,0,0,1,.52-2.07,8,8,0,0,1-.24,2.12A8.24,8.24,0,0,1,512.33,191.92Z"/><path class="cls-6" d="M508.92,186.77a7.31,7.31,0,0,1,2.06.34,7.39,7.39,0,0,1,2,.62,8.41,8.41,0,0,1-2.07-.34A8.15,8.15,0,0,1,508.92,186.77Z"/><path class="cls-11" d="M634.79,299.52s.05.1.11.3a4.92,4.92,0,0,1,.12.92,7.05,7.05,0,0,1-.83,3.38,17.44,17.44,0,0,1-3.36,4.2l-4.77,5-.15.16-.17-.14-5.12-4.12c-1.77-1.43-3.85-3-4.92-5.37a5.6,5.6,0,0,1-.12-4.7,5.46,5.46,0,0,1,3.44-2.9,4.94,4.94,0,0,1,4.15.76,5.27,5.27,0,0,1,2.18,3.25l-.45,0a5.32,5.32,0,0,1,3.47-4.37,4.82,4.82,0,0,1,4.29.57,5,5,0,0,1,1.85,2.1,3.41,3.41,0,0,1,.24.7.68.68,0,0,1,0,.25s-.11-.33-.4-.89a5.13,5.13,0,0,0-1.87-1.94,4.56,4.56,0,0,0-4-.44,4.93,4.93,0,0,0-3.15,4.06l-.14,1.53-.31-1.5a4.8,4.8,0,0,0-2-2.93,4.49,4.49,0,0,0-3.73-.67,5,5,0,0,0-3.09,2.63,5.06,5.06,0,0,0,.13,4.25c1,2.23,3,3.73,4.75,5.18L626,313h-.32l4.83-4.92a18,18,0,0,0,3.38-4.06,7.22,7.22,0,0,0,.94-3.24C634.88,300,634.76,299.53,634.79,299.52Z"/><path class="cls-11" d="M607.94,285.88s0,.22.06.65.06,1.07.11,1.88c.1,1.66.24,4.08.41,7.17.34,6.22.83,15.17,1.42,26.19l-.21-.19,23-1.2H633l0,.24c.17,3.46.36,7.16.56,11l-.44-.16,10.39-11.51.08-.08h.11L669,318.54l7.75-.39-.26.29c-.63-12.69-1.22-24.78-1.77-35.91l.26.24-48.23,2.29-13.83.63-3.69.15-1,0h-.34a1.2,1.2,0,0,1,.31,0l.93-.07,3.63-.21,13.77-.76L675,282.27l.25,0,0,.26c.56,11.12,1.17,23.21,1.82,35.9v.27l-.27,0-7.76.38-25.26,1.26.18-.08-10.42,11.49-.41.46,0-.62c-.19-3.8-.37-7.49-.54-10.95l.26.23L609.75,322h-.2v-.2c-.51-11.08-.92-20.07-1.21-26.32-.13-3.08-.23-5.48-.31-7.13,0-.8,0-1.41-.07-1.85S607.94,285.88,607.94,285.88Z"/><path class="cls-6" d="M645.8,302.62l-2.83.14.14,2.75-.67,0-.14-2.76-2.82.15,0-.64,2.83-.15-.14-2.76.67,0,.14,2.77,2.83-.14Z"/><path class="cls-6" d="M649.8,296.87l.52,10.42-.76,0-.49-9.73-2.54.13,0-.68Z"/><path class="cls-6" d="M652.69,302c-.16-3.26,1.42-5.37,3.82-5.49s4.17,1.82,4.34,5.08S659.43,306.9,657,307,652.86,305.21,652.69,302Zm7.4-.37c-.15-2.91-1.58-4.52-3.55-4.42s-3.23,1.85-3.09,4.75,1.59,4.51,3.55,4.41S660.23,304.48,660.09,301.58Z"/><path class="cls-6" d="M662.49,301.46c-.16-3.26,1.41-5.37,3.81-5.49s4.18,1.82,4.34,5.08-1.42,5.36-3.81,5.48S662.65,304.71,662.49,301.46Zm7.39-.37c-.14-2.91-1.58-4.52-3.54-4.42s-3.24,1.85-3.09,4.75,1.58,4.51,3.54,4.41S670,304,669.88,301.09Z"/><rect class="cls-11" x="618.12" y="207.37" width="7.26" height="28.9"/><rect class="cls-11" x="606.18" y="205.19" width="7.26" height="31.08"/><rect class="cls-11" x="594.61" y="209.04" width="7.26" height="27.24"/><rect class="cls-11" x="582.86" y="213.29" width="7.26" height="22.98"/><path class="cls-6" d="M630.88,236.38c0,.15-11.93.27-26.64.27s-26.64-.12-26.64-.27,11.93-.28,26.64-.28S630.88,236.22,630.88,236.38Z"/><path class="cls-6" d="M627.85,209.16c0,.06-.83-.08-2.32,0a13.73,13.73,0,0,0-6,1.79,13,13,0,0,0-3.32,2.73c-1,1.17-2,2.58-3.06,4a11.69,11.69,0,0,1-4.31,3.64,15.71,15.71,0,0,1-5.93,1.17c-2.07.07-4.07,0-6,.05a27.66,27.66,0,0,0-5.46.75,13.58,13.58,0,0,0-7.75,4.76,10.3,10.3,0,0,0-2.17,5.77,17.43,17.43,0,0,0,.22,2.3,6.16,6.16,0,0,1-.43-2.3,10.17,10.17,0,0,1,2.06-6,12.08,12.08,0,0,1,3.26-3,16.48,16.48,0,0,1,4.68-2,27.5,27.5,0,0,1,5.56-.79c2-.1,4,0,6-.07a15.19,15.19,0,0,0,5.73-1.11,11.16,11.16,0,0,0,4.13-3.46c1.09-1.38,2-2.79,3.12-4a12.78,12.78,0,0,1,3.47-2.77,13.34,13.34,0,0,1,6.15-1.67,10.94,10.94,0,0,1,1.74.1A2.41,2.41,0,0,1,627.85,209.16Z"/><path class="cls-6" d="M578.56,202.31c.15,0,.28,7.75.28,17.31s-.13,17.31-.28,17.31-.28-7.75-.28-17.31S578.41,202.31,578.56,202.31Z"/><path class="cls-11" d="M609.26,398.29a5.11,5.11,0,1,1-2.9-6.62A5.11,5.11,0,0,1,609.26,398.29Z"/><path class="cls-11" d="M626.31,394a5.11,5.11,0,1,1-2.9-6.62A5.11,5.11,0,0,1,626.31,394Z"/><path class="cls-11" d="M618.43,414.15a5.13,5.13,0,1,1-2.74-7A5.36,5.36,0,0,1,618.43,414.15Z"/><path class="cls-11" d="M612.5,411.13c-.32.22-2.78-2.82-5.49-6.79s-4.65-7.36-4.33-7.58,2.78,2.82,5.49,6.79S612.82,410.91,612.5,411.13Z"/><path class="cls-11" d="M620.69,391.4c.11.37-3.22,1.67-7.44,2.91s-7.73,1.94-7.84,1.56,3.22-1.67,7.44-2.91S620.58,391,620.69,391.4Z"/><path class="cls-11" d="M546.51,445.26a5.61,5.61,0,0,1-.14-1.24,9.53,9.53,0,0,0-.17-1.5,14.23,14.23,0,0,0-.39-2,19.1,19.1,0,0,0-2.08-5.17,19.73,19.73,0,0,0-4.8-5.53,19.18,19.18,0,0,0-18-3.1,18.11,18.11,0,0,0-4.87,2.49,23.37,23.37,0,0,0-2.21,1.79,22.11,22.11,0,0,0-1.91,2.17,19,19,0,0,0-.55,22.49,22.11,22.11,0,0,0,1.81,2.26,20.82,20.82,0,0,0,2.11,1.89,18,18,0,0,0,4.75,2.72A19.27,19.27,0,0,0,543.25,455a18.63,18.63,0,0,0,2.33-5,14,14,0,0,0,.49-2,10.63,10.63,0,0,0,.24-1.48,5.8,5.8,0,0,1,.2-1.24,5.5,5.5,0,0,1,0,1.26,10.42,10.42,0,0,1-.14,1.51,15,15,0,0,1-.4,2.05,18.59,18.59,0,0,1-2.23,5.26,19.85,19.85,0,0,1-13.59,9.19,20.05,20.05,0,0,1-10.51-1.07,18.88,18.88,0,0,1-5-2.84,24.41,24.41,0,0,1-2.24-2,22,22,0,0,1-1.91-2.37,20,20,0,0,1,.57-23.75,22.13,22.13,0,0,1,2-2.27,21.67,21.67,0,0,1,2.32-1.88,18.9,18.9,0,0,1,5.16-2.58,20,20,0,0,1,10.54-.56,19.81,19.81,0,0,1,13.13,9.83,18.24,18.24,0,0,1,2,5.37,13.65,13.65,0,0,1,.3,2.06,9.44,9.44,0,0,1,.07,1.52A5.52,5.52,0,0,1,546.51,445.26Z"/><path class="cls-11" d="M542.6,433c0,.06-.31.37-1,.87l-1.26.91c-.25.17-.51.36-.8.54l-1,.51a22.08,22.08,0,0,1-11.5,2.89l-1.74-.07-1.67-.27-.81-.13-.78-.21c-.52-.14-1-.26-1.51-.42a25.11,25.11,0,0,1-4.88-2.25c-2.62-1.58-3.89-3-3.79-3.12s1.53,1.09,4.17,2.46a28.82,28.82,0,0,0,4.8,2c.47.13,1,.24,1.45.36l.75.19.78.12,1.6.23,1.66.07a23.92,23.92,0,0,0,11.13-2.5l1-.43c.29-.15.56-.32.82-.46l1.34-.74C542.12,433.17,542.55,433,542.6,433Z"/><path class="cls-11" d="M511.3,456.83c0-.06.31-.37,1-.88l1.26-.9c.25-.17.51-.37.8-.55l1-.5a22.14,22.14,0,0,1,11.51-2.9l1.74.08,1.67.26c.27.05.54.08.81.14l.78.21c.51.14,1,.26,1.5.41a25.43,25.43,0,0,1,4.88,2.25c2.63,1.59,3.9,3,3.8,3.12s-1.53-1.08-4.17-2.46a29.74,29.74,0,0,0-4.8-2c-.47-.14-1-.24-1.45-.37l-.75-.18-.78-.12-1.6-.24-1.66-.06a23.75,23.75,0,0,0-11.14,2.5l-1,.42-.83.47-1.33.73C511.78,456.7,511.34,456.89,511.3,456.83Z"/><path class="cls-11" d="M546.5,445.72c0,.29-8.77.32-19.57.06s-19.56-.72-19.55-1,8.77-.33,19.57-.07S546.51,445.42,546.5,445.72Z"/><path class="cls-11" d="M526,464.33c-.3,0-.33-8.77-.06-19.57s.71-19.54,1-19.54.32,8.77.06,19.57S526.34,464.34,526,464.33Z"/><path class="cls-11" d="M526,464.3c-.07.11-2.23-1.35-4.72-4.66a26.08,26.08,0,0,1-3.49-6.35,23.69,23.69,0,0,1-1.52-8.76,22.45,22.45,0,0,1,2-8.68,27,27,0,0,1,3.82-6.15c2.63-3.18,4.81-4.6,4.88-4.48s-1.86,1.72-4.28,4.95a28.76,28.76,0,0,0-3.51,6.08,22.3,22.3,0,0,0-1.81,8.3,23.7,23.7,0,0,0,1.37,8.4,28.17,28.17,0,0,0,3.18,6.25C524.21,462.54,526.15,464.18,526,464.3Z"/><path class="cls-11" d="M527.43,425.23c.07-.12,2.23,1.35,4.71,4.65a26.62,26.62,0,0,1,3.5,6.35,23.58,23.58,0,0,1,1.51,8.77,22.31,22.31,0,0,1-2,8.68,27.35,27.35,0,0,1-3.82,6.15c-2.64,3.18-4.81,4.59-4.88,4.48s1.86-1.72,4.28-4.95a29.19,29.19,0,0,0,3.51-6.08,22.7,22.7,0,0,0,1.81-8.3,24,24,0,0,0-1.37-8.41,28.62,28.62,0,0,0-3.19-6.25C529.26,427,527.32,425.35,527.43,425.23Z"/><path class="cls-12" d="M514.43,272.51a8.22,8.22,0,0,1-2.53.9,7.82,7.82,0,0,1-2.64.53,5.94,5.94,0,0,1,2.49-1.07A5.77,5.77,0,0,1,514.43,272.51Z"/><path class="cls-12" d="M525.08,271.6a17.56,17.56,0,0,1-5.35.13,5.77,5.77,0,0,1,2.66-.42A5.94,5.94,0,0,1,525.08,271.6Z"/><path class="cls-12" d="M535.65,273.2a7.68,7.68,0,0,1-2.66-.35,7.46,7.46,0,0,1-2.58-.75,10.44,10.44,0,0,1,5.24,1.1Z"/><path class="cls-12" d="M545.59,277.16a7.65,7.65,0,0,1-2.51-1,7.77,7.77,0,0,1-2.34-1.31,5.75,5.75,0,0,1,2.58.8A5.82,5.82,0,0,1,545.59,277.16Z"/><path class="cls-12" d="M554.32,283.33c-.11.12-1.07-.6-2.21-1.52s-2.05-1.7-2-1.83a5.83,5.83,0,0,1,2.31,1.39C553.62,282.31,554.42,283.22,554.32,283.33Z"/><path class="cls-12" d="M526.5,214.23c-.15,0-.23-.62-.16-1.36s.23-1.32.38-1.31.23.62.17,1.36S526.66,214.24,526.5,214.23Z"/><path class="cls-12" d="M525.58,225.26a13.8,13.8,0,0,1,.46-5.52,6.93,6.93,0,0,1,.05,2.79A7.17,7.17,0,0,1,525.58,225.26Z"/><path class="cls-12" d="M524.65,236.31a6.93,6.93,0,0,1,0-2.79,7.17,7.17,0,0,1,.51-2.73,6.85,6.85,0,0,1,0,2.78A7.31,7.31,0,0,1,524.65,236.31Z"/><path class="cls-12" d="M523.7,247.35a6.83,6.83,0,0,1,0-2.79,7.23,7.23,0,0,1,.51-2.73,7,7,0,0,1,0,2.78A7.25,7.25,0,0,1,523.7,247.35Z"/><path class="cls-12" d="M522.71,258.38a7.34,7.34,0,0,1,0-2.78,7.17,7.17,0,0,1,.53-2.73,7.1,7.1,0,0,1,0,2.78A7,7,0,0,1,522.71,258.38Z"/><path class="cls-12" d="M521.87,266.55c-.15,0-.2-.65-.12-1.37s.28-1.3.44-1.29.2.63.11,1.38S522,266.59,521.87,266.55Z"/><path class="cls-12" d="M554.9,271.09c.13.1-.5,1.12-1.4,2.3s-1.72,2.06-1.84,2,.5-1.12,1.4-2.3S554.78,271,554.9,271.09Z"/><path class="cls-12" d="M561.4,262.57a6.9,6.9,0,0,1-1.4,2.3c-.9,1.18-1.73,2.05-1.85,2a6.9,6.9,0,0,1,1.4-2.3C560.45,263.35,561.28,262.48,561.4,262.57Z"/><path class="cls-12" d="M567.89,254.05c.13.09-.5,1.12-1.4,2.3s-1.72,2-1.84,2,.5-1.13,1.4-2.3S567.77,254,567.89,254.05Z"/><path class="cls-12" d="M574.39,245.52a6.51,6.51,0,0,1-1.4,2.3c-.9,1.18-1.72,2.06-1.85,2a6.9,6.9,0,0,1,1.4-2.3C573.44,246.31,574.27,245.43,574.39,245.52Z"/><path class="cls-12" d="M574.89,306.16a7.74,7.74,0,0,1-1.34-2.33,8,8,0,0,1-1-2.49c.13-.08.85.91,1.5,2.25A5.86,5.86,0,0,1,574.89,306.16Z"/><path class="cls-12" d="M577.65,316.48a17.62,17.62,0,0,1-1.06-5.24,6.06,6.06,0,0,1,.88,2.55A6,6,0,0,1,577.65,316.48Z"/><path class="cls-12" d="M578,327.18a12.74,12.74,0,0,1,.11-5.36,13.19,13.19,0,0,1-.11,5.36Z"/><path class="cls-12" d="M576.23,337.74a12.9,12.9,0,0,1,1.13-5.24,6.73,6.73,0,0,1-.29,2.68A6.54,6.54,0,0,1,576.23,337.74Z"/><path class="cls-12" d="M572.62,347.81a6.81,6.81,0,0,1,.75-2.58,7,7,0,0,1,1.27-2.38,6.54,6.54,0,0,1-.75,2.59A6.44,6.44,0,0,1,572.62,347.81Z"/><path class="cls-12" d="M567.34,357.13a6.63,6.63,0,0,1,1.18-2.42c.78-1.25,1.53-2.2,1.66-2.12A6.46,6.46,0,0,1,569,355C568.21,356.27,567.47,357.22,567.34,357.13Z"/><path class="cls-12" d="M560.43,365.3a7,7,0,0,1,1.63-2.14c1-1.07,1.92-1.86,2-1.76s-.61,1.06-1.63,2.14S560.54,365.41,560.43,365.3Z"/><path class="cls-12" d="M552,371.85c-.08-.13.84-.91,2-1.75a6.63,6.63,0,0,1,2.36-1.3c.1.12-.82.9-2,1.75S552.05,372,552,371.85Z"/><path class="cls-12" d="M542.38,376.6a6.59,6.59,0,0,1,2.34-1.32,6.73,6.73,0,0,1,2.57-.82,12.76,12.76,0,0,1-4.91,2.14Z"/><path class="cls-12" d="M532.05,379.43a6.61,6.61,0,0,1,2.56-.86,6.68,6.68,0,0,1,2.67-.31,6.65,6.65,0,0,1-2.55.86A6.75,6.75,0,0,1,532.05,379.43Z"/><path class="cls-12" d="M521.38,380.19a6.83,6.83,0,0,1,2.67-.33,6.43,6.43,0,0,1,2.68.22,6.7,6.7,0,0,1-2.67.33A6.3,6.3,0,0,1,521.38,380.19Z"/><path class="cls-12" d="M510.77,378.77a6.79,6.79,0,0,1,2.69.22,6.7,6.7,0,0,1,2.57.77,6.33,6.33,0,0,1-2.68-.22A6.76,6.76,0,0,1,510.77,378.77Z"/><path class="cls-12" d="M582.13,315a13,13,0,0,1-5.36,0,13,13,0,0,1,5.36,0Z"/><path class="cls-12" d="M592.85,315a13,13,0,0,1-5.36,0,13,13,0,0,1,5.36,0Z"/><path class="cls-12" d="M602,315c0,.15-.84.28-1.88.28s-1.89-.13-1.89-.28.85-.28,1.89-.28S602,314.83,602,315Z"/><path class="cls-12" d="M566.91,366.31c-.1.12-1.1-.55-2.24-1.5s-2-1.81-1.87-1.93a6.61,6.61,0,0,1,2.23,1.5C566.17,365.33,567,366.19,566.91,366.31Z"/><path class="cls-12" d="M575.14,373.18c-.1.12-1.1-.56-2.24-1.5s-2-1.82-1.87-1.93a6.72,6.72,0,0,1,2.23,1.5C574.4,372.19,575.24,373.06,575.14,373.18Z"/><path class="cls-12" d="M583.37,380c-.1.12-1.1-.55-2.24-1.5s-2-1.81-1.88-1.93,1.1.55,2.24,1.5S583.47,379.92,583.37,380Z"/><path class="cls-12" d="M590.66,386.13c-.1.11-.89-.38-1.77-1.12s-1.51-1.42-1.41-1.54.89.38,1.77,1.12S590.76,386,590.66,386.13Z"/><path class="cls-12" d="M524.41,385a13,13,0,0,1,0-5.36,13,13,0,0,1,0,5.36Z"/><path class="cls-12" d="M524.41,395.75a13,13,0,0,1,0-5.36,13,13,0,0,1,0,5.36Z"/><path class="cls-12" d="M524.41,406.46a13,13,0,0,1,0-5.36,13,13,0,0,1,0,5.36Z"/><path class="cls-12" d="M524.41,413.68c-.15,0-.28-.42-.28-.93s.13-.93.28-.93.28.42.28.93S524.57,413.68,524.41,413.68Z"/><g class="cls-13"><polygon class="cls-4" points="439.61 87.61 420.11 62.6 415.34 94.05 389.61 93.18 408.69 118.23 383.36 137.81 415.69 125.8 420.22 157.29 441.92 136.18 469.26 155.18 463.27 127.55 494.3 122.66 470.17 108.42 484.24 84.15 459.74 98.04 457.19 63.65 439.61 87.61"/><path class="cls-6" d="M408.69,118.23s-.6.44-1.74,1.31l-5,3.84-19.12,14.67-.65.5.76-.31c4.42-1.83,9.44-3.63,14.95-5.55s11.51-4,17.76-6.53l-.21-.12,4.8,31.25,0,.34.25-.24,21.64-21.24-.25,0,26.92,18.7.43.3-.11-.51-5.62-27.19-.18.24,30.82-4.84.61-.1-.53-.31L473.3,110.3l-3.25-1.9.07.32c2.68-3.9,5-8,7.33-12s4.5-8.09,6.63-12.13l.34-.66-.64.37L459.3,98.08l.32.17q-.62-9-1.22-17.67-.27-4.33-.52-8.61c-.08-1.42-.15-2.83-.22-4.24,0-.71-.06-1.41-.08-2.11l0-1.05v-.51a3.88,3.88,0,0,0,0-.41l-.25-.34-.08.1-17.82,24.4h.31L420.42,62.52l-.24-.31-.07.39q-2.78,17.31-5,31.28l.15-.11L389.62,93h-.23l.14.18,14.2,18.63,3.69,4.82,1.27,1.64s-.4-.55-1.22-1.63l-3.63-4.84L389.7,93l-.09.17,25.6.87h.13l0-.12q2.28-14,5.09-31.28l-.3.08L439.43,88l.16.2.15-.21,17.84-24.38-.33-.24a1.64,1.64,0,0,0-.09.63v.54l0,1c0,.7.05,1.41.08,2.12.07,1.41.14,2.82.21,4.25.17,2.84.35,5.71.52,8.61q.6,8.69,1.21,17.67l0,.34.3-.17L484,84.69l-.3-.29c-2.13,4-4.33,8.08-6.62,12.11s-4.65,8.08-7.31,12l-.14.19.21.12,3.25,1.9L494,122.85l.08-.4-30.83,4.85-.22,0,0,.2c1.95,9.41,3.86,18.59,5.65,27.23l.32-.22-26.93-18.68-.14-.1-.11.12-21.62,21.26.3.1c-1.76-11.32-3.39-21.87-4.85-31.25l0-.19-.17.08c-6.24,2.58-12.23,4.62-17.73,6.56s-10.53,3.75-15,5.6l.11.18L402,123.42c2.17-1.7,3.84-3,5-3.87S408.69,118.23,408.69,118.23Z"/><path class="cls-6" d="M442,112.92a2.58,2.58,0,1,0,2.58-2.58A2.58,2.58,0,0,0,442,112.92Z"/><path class="cls-6" d="M434.18,112.92a2.58,2.58,0,1,0,2.58-2.58A2.57,2.57,0,0,0,434.18,112.92Z"/><path class="cls-6" d="M426.33,112.92a2.58,2.58,0,1,0,2.57-2.58A2.57,2.57,0,0,0,426.33,112.92Z"/></g><path class="cls-6" d="M439.64,219.51a80.81,80.81,0,0,1-4.28-13.27,28.18,28.18,0,0,1,.32-13.81c.21-.68,2.05-5.23,2.75-5.2.5,0-.55,4.23-.27,4.65a23.91,23.91,0,0,1,3.49,13.78,63.61,63.61,0,0,1-2,13.85"/><path class="cls-14" d="M464.93,271.91c-7.21.26-23.84-19.54-24.25-26.74l-2.51-43.36c-1-11.63,4.85-21.93,16.5-22.65h1.08a20.85,20.85,0,0,1,20.87,19.11c.85,10.08,1.66,21.23,1.62,26.64-.1,11.21-11.3,13-11.3,13s.09,2.59.24,5.88c.34,7.37,4.69,27.85-2.69,28.12Z"/><path class="cls-15" d="M466.94,237.9a27.05,27.05,0,0,1-14.6-4.26s3.54,8.41,14.71,7.36Z"/><path class="cls-6" d="M473.42,206.89a1.59,1.59,0,0,1-1.53,1.62,1.54,1.54,0,0,1-1.66-1.43,1.6,1.6,0,0,1,1.54-1.62A1.52,1.52,0,0,1,473.42,206.89Z"/><path class="cls-6" d="M474.26,203.23c-.2.2-1.41-.69-3.13-.68s-3,.88-3.17.67.11-.47.66-.87a4.39,4.39,0,0,1,2.53-.8,4.31,4.31,0,0,1,2.5.8C474.18,202.75,474.36,203.13,474.26,203.23Z"/><path class="cls-6" d="M457.62,207.6a1.6,1.6,0,0,1-1.54,1.62,1.52,1.52,0,0,1-1.65-1.43,1.59,1.59,0,0,1,1.53-1.62A1.53,1.53,0,0,1,457.62,207.6Z"/><path class="cls-6" d="M457.39,203.68c-.2.21-1.42-.68-3.14-.67s-3,.88-3.16.67.1-.47.66-.87a4.35,4.35,0,0,1,5,0C457.3,203.21,457.49,203.59,457.39,203.68Z"/><path class="cls-6" d="M463.61,216.89a11.18,11.18,0,0,1,2.8-.52c.43,0,.85-.13.92-.43a2.19,2.19,0,0,0-.29-1.3l-1.32-3.35c-1.82-4.75-3.14-8.67-3-8.74s1.83,3.73,3.65,8.49l1.26,3.36a2.53,2.53,0,0,1,.23,1.72,1.12,1.12,0,0,1-.72.65,2.67,2.67,0,0,1-.75.1A11.28,11.28,0,0,1,463.61,216.89Z"/><path class="cls-6" d="M457.21,197.25c-.23.44-1.9,0-3.94-.05s-3.72.28-3.93-.17c-.09-.21.25-.61,1-1a6.8,6.8,0,0,1,6,.17C457,196.63,457.32,197,457.21,197.25Z"/><path class="cls-6" d="M473.84,199.2c-.35.4-1.76,0-3.45,0s-3.1.32-3.44-.08c-.15-.2.07-.59.69-1a5.51,5.51,0,0,1,2.79-.7,5.37,5.37,0,0,1,2.76.74C473.79,198.61,474,199,473.84,199.2Z"/><path class="cls-14" d="M439.11,210.1c-.19-.08-7.7-2.25-7.43,5.41s7.9,5.8,7.91,5.58S439.11,210.1,439.11,210.1Z"/><path class="cls-15" d="M437.15,218.27s-.13.1-.35.21a1.36,1.36,0,0,1-1,.06,3.29,3.29,0,0,1-1.63-2.91,4.44,4.44,0,0,1,.3-1.92,1.57,1.57,0,0,1,1-1.06.68.68,0,0,1,.8.34c.11.21.07.36.11.37s.16-.13.08-.44a.83.83,0,0,0-.31-.47,1,1,0,0,0-.75-.17,1.86,1.86,0,0,0-1.35,1.24,4.52,4.52,0,0,0-.39,2.15c.11,1.54.95,3,2.07,3.23a1.43,1.43,0,0,0,1.21-.24C437.14,218.46,437.17,218.29,437.15,218.27Z"/><path class="cls-6" d="M471.11,185.81c1.21-.74-2.69-4.58-5.79-5.83-4.7-1.88-11.78-2.86-16-1.47-5,1.68-9.17,4.41-11.53,9.17a30.15,30.15,0,0,0-2.7,15.52,9.13,9.13,0,0,0,1.29,4.63c1.14,1.64,3.24,2.62,3.26,5a3.2,3.2,0,0,0,.89,2.3c1.47,1.43,3.12-.05,3.85-1.49,1.55-3.07,1.58-6.66,1.57-10.1a22.13,22.13,0,0,0-.81-7.26c-.43-1.26-1.08-2.44-1.44-3.72a4.59,4.59,0,0,1,.37-3.84,4.47,4.47,0,0,1,.59-.66,8,8,0,0,1,7.86-1.86c4.38,1.34,11.84,3.29,13.69,1.74,2.68-2.23,3.28-3.63,3.28-3.63Z"/><path class="cls-6" d="M458.93,218c-.11,0-.15.44,0,1.1a4.19,4.19,0,0,0,1.48,2.18,7.15,7.15,0,0,0,2.29,1.2c.62.19,1,.24,1.07.14s-.29-.34-.84-.66a17.38,17.38,0,0,1-2-1.3C459.5,219.56,459.17,218,458.93,218Z"/><polygon class="cls-14" points="536.04 339.72 482.38 343.34 480.61 325.46 545.55 327.83 536.04 339.72"/><path class="cls-16" d="M574.16,281.28c0,.07.65,1.3.65,1.3-4.29,9.15-19.86,42.29-19.86,42.29L534.48,336l-50.06.26-.12-2.7,25.25-11.34,32.17-.65,15.73-35a3.15,3.15,0,0,1,2.14-1.77Z"/><path class="cls-6" d="M534.48,336a11,11,0,0,0,1.24-2.1c.71-1.32,1.65-3.15,2.66-5.2s1.89-3.9,2.51-5.26a11.79,11.79,0,0,0,.91-2.25,11.26,11.26,0,0,0-1.24,2.09c-.7,1.32-1.65,3.16-2.66,5.2s-1.9,3.91-2.51,5.27A11.79,11.79,0,0,0,534.48,336Z"/><polygon class="cls-6" points="529.63 331.75 508.21 332.01 523.97 322.87 541.26 322.48 529.63 331.75"/><path class="cls-6" d="M484.3,333.52a1.8,1.8,0,0,0,.53,0h1.49l5.51-.09c4.65-.09,11.07-.14,18.17-.19s13.52-.16,18.17-.34c2.33-.08,4.21-.17,5.5-.26l1.5-.11a2.75,2.75,0,0,0,.52-.07,2,2,0,0,0-.53,0l-1.49,0-5.51.09c-4.65.08-11.07.13-18.17.19s-13.52.16-18.17.33c-2.33.09-4.21.18-5.5.27l-1.5.11A2,2,0,0,0,484.3,333.52Z"/><path class="cls-6" d="M537.48,334.34a5.07,5.07,0,0,0,.33-.62q.35-.69.87-1.8c.77-1.63,1.82-3.9,3.12-6.68,2.6-5.7,6.16-13.49,10.08-22.1,2.77-6.14,5.34-11.87,7.51-16.68l-.15.12,11.32-2.84,3.15-.82a6.78,6.78,0,0,0,1.1-.34,7.44,7.44,0,0,0-1.13.21l-3.19.7-11.36,2.66-.1,0,0,.09c-2.18,4.81-4.78,10.52-7.57,16.65-3.88,8.63-7.38,16.45-9.95,22.17l-3,6.74c-.32.77-.58,1.38-.78,1.85A3.3,3.3,0,0,0,537.48,334.34Z"/><path class="cls-14" d="M549.68,321.82s-.92-.85-2.6,1.5-4.34,9.1-4.34,9.1l-3.2,1.63s2.72-3.49,2.66-4.87-2.24-1.29-3.34.74a56.89,56.89,0,0,1-4.38,6s1.27,4,1.56,3.76,5.71-.72,5.71-.72l1.45-.76s3.65-.16,3.8-1.16,6-5.42,6-6.31l-.26-5.72s2.46-6.84,1.84-7.51S551.38,315.51,549.68,321.82Z"/><path class="cls-15" d="M549.29,321.73s.1,0,.26.07a.56.56,0,0,1,.35.55v0c-.19.73-.41,1.87-.65,3.26s-.49,3-.93,4.74a8.3,8.3,0,0,1-1.6,3.1l-1.7,2.41a14.43,14.43,0,0,0-1.45,2.3,13.27,13.27,0,0,0,1.75-2.08l1.79-2.34a14.3,14.3,0,0,0,1-1.46,7.21,7.21,0,0,0,.72-1.79,43.42,43.42,0,0,0,.86-4.81c.17-1.25.32-2.34.45-3.28v0h0a.7.7,0,0,0-.57-.65C549.38,321.66,549.29,321.72,549.29,321.73Z"/><path class="cls-15" d="M550.69,333.3a17,17,0,0,0,1.26-4.06,17.81,17.81,0,0,0,.75-4.19,17,17,0,0,0-1.26,4.06A17.81,17.81,0,0,0,550.69,333.3Z"/><path class="cls-15" d="M540.33,328.47s.15,0,.4.06a1.42,1.42,0,0,1,.89.31c.25.26.17.77-.07,1.3l-.76,1.83-.78,1.79c-.27.53-.57,1-.8,1.39-.48.8-.67,1.36-.6,1.38s.36-.44.91-1.18a13.28,13.28,0,0,0,.91-1.36c.27-.55.56-1.17.84-1.82l.73-1.85a2.87,2.87,0,0,0,.21-.91,1.1,1.1,0,0,0-.33-.83,1.41,1.41,0,0,0-1.16-.25C540.46,328.38,540.32,328.44,540.33,328.47Z"/><path class="cls-17" d="M464.79,535l-5.09,21.11s19.76,12.26,19.2,16.25l-41.29-8.38,6.56-33.22Z"/><path class="cls-3" d="M447.3,551.68a1.73,1.73,0,0,0-1.56,1.69,1.66,1.66,0,0,0,1.66,1.56,1.81,1.81,0,0,0,1.64-1.8,1.72,1.72,0,0,0-1.91-1.43"/><g class="cls-18"><path class="cls-5" d="M437.61,563.93l.79-3.32,39.3,9.28s1.67,1.17,1.2,2.42Z"/></g><path class="cls-6" d="M460.42,556c-.05.2-1.08.09-2.2.53s-1.83,1.19-2,1.07.37-1.22,1.74-1.74S460.5,555.81,460.42,556Z"/><path class="cls-6" d="M464.38,558.66c0,.2-.93.37-1.79,1.08s-1.24,1.58-1.44,1.53-.09-1.22,1-2.08S464.42,558.47,464.38,558.66Z"/><path class="cls-6" d="M465.79,564.34c-.19,0-.27-1.06.48-2.06s1.77-1.24,1.82-1.06-.65.66-1.25,1.49S466,564.36,465.79,564.34Z"/><path class="cls-6" d="M461,551.05c-.12.17-1-.3-2.15-.45s-2.11,0-2.18-.17.93-.74,2.29-.54S461.17,550.91,461,551.05Z"/><path class="cls-17" d="M450.69,540.5l0,21.72s22.08,7.26,22.48,11.28l-42.11,1.56-1.43-33.84Z"/><path class="cls-3" d="M437.63,560.87a1.73,1.73,0,0,0-1.12,2,1.66,1.66,0,0,0,2,1.13,1.82,1.82,0,0,0,1.17-2.14,1.73,1.73,0,0,0-2.19-.94"/><g class="cls-18"><path class="cls-5" d="M431.09,575.06v-3.42l40.37-.22s1.91.75,1.75,2.08Z"/></g><path class="cls-6" d="M451.39,562c0,.2-1,.33-2,1s-1.49,1.59-1.69,1.51.07-1.27,1.28-2.1S451.43,561.79,451.39,562Z"/><path class="cls-6" d="M455.88,563.64c.05.2-.83.58-1.49,1.48s-.84,1.82-1,1.82-.38-1.16.47-2.26S455.86,563.44,455.88,563.64Z"/><path class="cls-6" d="M458.58,568.83c-.19,0-.51-1,0-2.11s1.43-1.63,1.52-1.46-.48.79-.86,1.74S458.78,568.81,458.58,568.83Z"/><path class="cls-6" d="M450.84,557c-.08.19-1-.06-2.2.06s-2.05.52-2.16.35.73-.94,2.1-1.06S450.93,556.86,450.84,557Z"/><path class="cls-6" d="M417.53,383.06l.77,17.14,7.6,66.56s-1.41,32.52-2.35,50.88c-.81,16,2.93,43.49,2.93,43.49l26.79-1.2,5.44-92.66,3.37-57.78,9.18-26.64Z"/><polygon class="cls-6" points="489.63 382.88 487.27 476.26 463.3 547.22 462.24 551.48 446.06 548.33 450.56 382.75 489.63 382.88"/><path class="cls-16" d="M462,410.18a1.93,1.93,0,0,1,0,.39q0,.42,0,1.14c0,1,0,2.49.06,4.37.06,3.8,0,9.29-.05,16.08-.2,13.58-.87,32.34-2.29,53s-3.12,39.37-4.38,52.89c-.65,6.74-1.18,12.2-1.54,16-.19,1.87-.34,3.33-.44,4.35-.06.48-.1.86-.13,1.13a2,2,0,0,1-.06.39,1.66,1.66,0,0,1,0-.39c0-.28,0-.66.08-1.14.08-1,.19-2.48.34-4.35.33-3.81.8-9.28,1.39-16,1.17-13.53,2.84-32.22,4.23-52.89s2.15-39.41,2.44-53c.13-6.79.21-12.28.2-16.08,0-1.88,0-3.35,0-4.37,0-.48,0-.86,0-1.14A2.87,2.87,0,0,1,462,410.18Z"/><path class="cls-16" d="M437.83,383.85a3.37,3.37,0,0,1-.07,1,15.61,15.61,0,0,1-.64,2.63,17.17,17.17,0,0,1-12.87,11.32,15.34,15.34,0,0,1-2.68.3,3.23,3.23,0,0,1-1-.06c0-.09,1.41-.07,3.6-.59a17.86,17.86,0,0,0,12.61-11.09C437.58,385.24,437.74,383.83,437.83,383.85Z"/><path class="cls-16" d="M462.69,386.8a1.38,1.38,0,1,1-1.44-1.31A1.37,1.37,0,0,1,462.69,386.8Z"/><path class="cls-16" d="M486.83,398.76a8.81,8.81,0,0,1-2-1.69,21.23,21.23,0,0,1-3.6-5.12,20.8,20.8,0,0,1-2-5.95,8.43,8.43,0,0,1-.18-2.58c.08,0,.18,1,.53,2.51a25.35,25.35,0,0,0,2.05,5.8,25.75,25.75,0,0,0,3.42,5.1C486.16,398,486.89,398.7,486.83,398.76Z"/><path class="cls-17" d="M462.59,249.58l-23.12-17.76-4.36,7.41s-18.79,15.11-22.29,19.29L420.58,323s-3.67,34.22-3.88,36.92-2.24,26.29-2.24,26.29c-.2,4.46,3.7,9.69,4.45,9.65,0,0,3.55-4.66,7.59-4.5s31.66,6.3,31.66,6.3L491,388.75l-6.45-65.15-3.14-43.66-3.64-16.59-6.84-6.23-3.6-10.88s-.92,13.8-1.11,13.31S462.59,249.58,462.59,249.58Z"/><path class="cls-6" d="M435.76,240.35a7.92,7.92,0,0,0,.94,1.18c.64.72,1.59,1.75,2.81,3,2.42,2.48,5.95,5.72,9.77,9.35,1.88,1.8,3.65,3.54,5.2,5.18l.18.2.18-.2c2.35-2.56,4-5,5.32-6.6l1.51-1.89a3.78,3.78,0,0,0,.53-.69,4.14,4.14,0,0,0-.65.59c-.39.4-.95,1-1.62,1.8-1.37,1.56-3.1,3.95-5.45,6.45h.36c-1.54-1.67-3.3-3.43-5.19-5.23-3.83-3.64-7.39-6.82-9.87-9.23-1.25-1.19-2.24-2.18-2.93-2.86A9.31,9.31,0,0,0,435.76,240.35Z"/><path class="cls-6" d="M478.67,356.22a.81.81,0,0,0,0-.25c0-.2,0-.44-.06-.74-.07-.69-.16-1.64-.28-2.84-.28-2.5-.67-6-1.16-10.4-1-8.79-2.44-20.92-4.11-34.31s-3.27-25.51-4.54-34.26c-.62-4.38-1.18-7.91-1.59-10.35-.22-1.19-.39-2.12-.51-2.8l-.15-.73c0-.16-.06-.25-.07-.24a1.17,1.17,0,0,0,0,.25c0,.2.06.44.1.73.1.69.24,1.63.41,2.82.35,2.5.83,6,1.43,10.37,1.17,8.77,2.71,20.88,4.38,34.28s3.17,25.47,4.27,34.28c.55,4.35,1,7.89,1.32,10.39.16,1.19.29,2.13.38,2.82l.12.73C478.65,356.14,478.67,356.22,478.67,356.22Z"/><g class="cls-19"><path d="M485.16,329.64c-2.46,1.37-5.33,1.94-7.75,3.39a28.47,28.47,0,0,0-4.63,3.87c-10.16,9.57-23.16,16.7-37.1,17.57-4.78.3-9.93-.26-13.64-3.3-2-1.68-3.56-4.35-2.91-6.9.78-3.11,4.21-4.64,7.23-5.73l28.17-10.21a130.44,130.44,0,0,1,18.07-5.56,64.44,64.44,0,0,1,12.62-1.32"/></g><path class="cls-6" d="M455.27,370.91c.08.13,6.8-3.9,15-9s14.82-9.33,14.74-9.45-6.8,3.9-15,9S455.19,370.79,455.27,370.91Z"/><path class="cls-6" d="M478.11,392.29a6.18,6.18,0,0,0-.1-1.35c-.09-1-.21-2.19-.36-3.64-.27-3.08-.49-7.35-.64-12.07s-.33-9-.48-12.09c-.08-1.46-.15-2.69-.21-3.66a6.07,6.07,0,0,0-.15-1.34,8,8,0,0,0-.06,1.35c0,1,0,2.2,0,3.66.05,3.1.16,7.38.32,12.1s.43,9,.81,12.09c.18,1.54.37,2.78.52,3.63A6,6,0,0,0,478.11,392.29Z"/><g class="cls-19"><path d="M442.83,319.39c-2.82-9.13-3.06-19.76-3.24-29.26-1.41,6.59-2.86,16.65-3.95,23.56l3,6.45Z"/></g><g class="cls-19"><path d="M466.21,259.55a4.2,4.2,0,0,1-1.12-.75c-1-1.31-1.58-2.89-2.56-4.22a75,75,0,0,0-6.91,8c-3.49-3.32-7-6.66-10.16-10.28a81.52,81.52,0,0,1-7-9.22l16.19,15.8,7.93-9.29Z"/></g><path class="cls-6" d="M467,251a20.92,20.92,0,0,0,1.62,3.44c1,1.9,2.24,3.16,2.35,3s-.93-1.41-1.88-3.28A10.78,10.78,0,0,0,467,251Z"/><path class="cls-6" d="M443.7,263.34a3.91,3.91,0,0,0-.58-1,17.07,17.07,0,0,0-2-2.34,37,37,0,0,0-3.48-3,16,16,0,0,0-4.87-2.84,13.52,13.52,0,0,0-5.64-.32,39.57,39.57,0,0,0-4.49.89c-1.27.29-2.29.54-3,.73a4.17,4.17,0,0,0-1.08.34,5.45,5.45,0,0,0,1.13-.14c.71-.12,1.75-.31,3-.56s2.77-.6,4.46-.77a13.67,13.67,0,0,1,5.43.34,16.47,16.47,0,0,1,4.73,2.73c1.37,1,2.57,2,3.52,2.85C442.75,262,443.62,263.4,443.7,263.34Z"/><path class="cls-14" d="M477,313.85l-.14,13s-18.89,9.89-31.37,13.7-27.36,4-27.36,4l4.35-21.38Z"/><path class="cls-14" d="M514.41,314.83a2.75,2.75,0,0,0-1.52-2.6c-1.72-1-5.35-3.09-5.35-3.09l-10.69-.49L477,313.85l-.14,13s10.25.11,12.62-.09,8.88-2.6,8.88-2.6,11.16.91,11.66.27,1.17-1.38.45-1.79-9.36-2.22-9.36-2.22l5.7-.7s8.44,1.39,9,1.09,1.35-1.38.79-2.15l-.57-.77a1.78,1.78,0,0,0-1-2.16l-.8-.22Z"/><path class="cls-15" d="M499.23,315.36a7.24,7.24,0,0,0,2.58.31c1.6.05,3.84-.31,6.15.26a33,33,0,0,1,3.2,1.18,24.39,24.39,0,0,0,2.69.85,9.14,9.14,0,0,0,2.57.4,23.57,23.57,0,0,0-2.47-.75c-.76-.23-1.65-.54-2.62-.93a25.9,25.9,0,0,0-3.24-1.24,12.16,12.16,0,0,0-3.48-.29c-1.07,0-2,.13-2.81.16C500.22,315.41,499.24,315.28,499.23,315.36Z"/><path class="cls-15" d="M500,312.32a5.28,5.28,0,0,0,2.31.19,12.43,12.43,0,0,1,5.39.46c2,.74,3.86,1.47,5.2,1.93a10.8,10.8,0,0,0,2.21.68,9.76,9.76,0,0,0-2.08-1c-1.31-.55-3.12-1.32-5.17-2.07a8.33,8.33,0,0,0-3.07-.54c-1,0-1.8.13-2.51.2C500.9,312.32,500,312.25,500,312.32Z"/><path class="cls-17" d="M412.82,258.52s-5.33,9.39-6,13.88-.8,51.54.13,52.39a24.38,24.38,0,0,0,2.53,1.89s-5.06,1.34-3.39,3.95a47,47,0,0,0,3.33,4.53s1.15,8.64,2.12,8.82a70.86,70.86,0,0,1,6.5,3s15.21-9.1,16.42-13.61,4.14-13.57,4.14-13.57l-2.94-6.11L442,275.51s3.75-12.3-4.21-16.9S415.5,253.4,412.82,258.52Z"/><path class="cls-6" d="M440.75,282.75a3.84,3.84,0,0,0-.14.57c-.07.42-.18,1-.31,1.68-.27,1.52-.65,3.66-1.12,6.34-.93,5.49-2.24,13.21-3.79,22.31v.08l0,.07c.94,1.95,1.93,4,2.94,6.11v-.19c-1.34,4.31-2.74,9-4.25,13.78l-.26.61-.38.57a8.76,8.76,0,0,1-.86,1.07,12.91,12.91,0,0,1-1,1c-.32.33-.66.64-1,.94a51.45,51.45,0,0,1-4.23,3.39c-2.86,2.11-5.74,4-8.49,5.68h.23c-1.39-.7-2.74-1.36-4.07-2-.67-.31-1.32-.61-2-.87l-.26-.09c-.08,0-.24-.05-.24-.07a.82.82,0,0,1-.2-.29,5.75,5.75,0,0,1-.35-.93,63.73,63.73,0,0,1-1.43-7.4v-.05l0,0c-.84-1-1.58-2-2.25-2.92-.34-.46-.65-.92-1-1.36-.16-.23-.25-.45-.37-.66a1.73,1.73,0,0,1-.07-.67,2.89,2.89,0,0,1,1.64-1.85,10.7,10.7,0,0,1,1.95-.81l.19-.06-.17-.1c-.89-.57-1.53-1-1.95-1.35s-.62-.48-.63-.47,0,0,.13.15.24.22.44.39a23.75,23.75,0,0,0,1.92,1.43l0-.16a9.78,9.78,0,0,0-2,.78,5.41,5.41,0,0,0-1.08.73,2.22,2.22,0,0,0-.73,1.28,1.87,1.87,0,0,0,.08.81,4.53,4.53,0,0,0,.39.72c.29.46.6.92.93,1.39.66.95,1.39,1.95,2.24,3l-.05-.1a61.11,61.11,0,0,0,1.38,7.47,6.79,6.79,0,0,0,.36,1,1.07,1.07,0,0,0,.44.51l.27.09.24.08c.65.25,1.3.55,2,.86,1.32.62,2.67,1.29,4.05,2l.12.07.12-.07c2.78-1.7,5.66-3.57,8.55-5.68a54.31,54.31,0,0,0,4.28-3.42c.35-.3.7-.62,1-1a13.52,13.52,0,0,0,1-1,9.11,9.11,0,0,0,.9-1.13c.14-.2.28-.4.41-.61l.3-.7c1.53-4.83,2.91-9.47,4.23-13.79l0-.1,0-.09c-1-2.11-2-4.16-3-6.11l0,.15c1.46-9.11,2.71-16.84,3.59-22.34.42-2.69.75-4.84,1-6.36l.24-1.69A4.36,4.36,0,0,0,440.75,282.75Z"/><path class="cls-6" d="M409.2,326.51a2.59,2.59,0,0,0,.81.29,7.51,7.51,0,0,0,2.33.25,3.86,3.86,0,0,0,1.6-.48,12,12,0,0,0,1.56-1c1.05-.77,2.12-1.69,3.3-2.58,2.36-1.8,4.57-3.32,6.16-4.44a18.15,18.15,0,0,0,2.53-1.9,17.71,17.71,0,0,0-2.74,1.58c-1.65,1-3.9,2.52-6.27,4.33-1.2.9-2.27,1.84-3.27,2.61a6.3,6.3,0,0,1-2.91,1.5,8.59,8.59,0,0,1-2.25-.08A3.17,3.17,0,0,0,409.2,326.51Z"/><path class="cls-6" d="M409.4,335.16a2.67,2.67,0,0,0,1,.18,5.46,5.46,0,0,0,2.73-.61,46.1,46.1,0,0,0,7.49-5.21,75,75,0,0,0,6.49-6.39c.79-.86,1.41-1.57,1.83-2.07s.64-.78.61-.81a28.56,28.56,0,0,0-2.71,2.62c-1.64,1.64-3.89,3.94-6.57,6.24a57.14,57.14,0,0,1-7.31,5.28,5.62,5.62,0,0,1-2.56.74A6.68,6.68,0,0,0,409.4,335.16Z"/><g class="cls-19"><path d="M427.27,316.91a18.7,18.7,0,0,1-3.58,4.17l-6.37,6.08c-1.22,1.16-2.67,2.41-4.35,2.25a5.69,5.69,0,0,1-2.36-1c-.67-.42-1.41-1.05-1.26-1.82a6.55,6.55,0,0,0,5.62-.85,18.83,18.83,0,0,0,1.95-1.73c3-2.88,6.68-4.95,10.31-7"/></g><path class="cls-15" d="M475.91,327a6.08,6.08,0,0,0,1.32.1l3.59.06,5.32,0h3.14a8.94,8.94,0,0,0,1.68-.36l1.65-.47c2.28-.68,4.44-1.36,6.38-2h-.09c3,.13,5.47.23,7.25.28l2.06,0a2.69,2.69,0,0,0,.75,0,3.07,3.07,0,0,0-.74-.12l-2.06-.17c-1.77-.14-4.28-.31-7.23-.49h-.09l-6.38,1.94-1.64.47a7.59,7.59,0,0,1-1.57.35l-3.13,0-5.31.1-3.59.11A7.39,7.39,0,0,0,475.91,327Z"/><rect class="cls-9" x="178.84" y="127.61" width="188.7" height="447.45" rx="20.91"/><rect class="cls-20" x="163.57" y="127.79" width="188.7" height="447.45" rx="22.55"/><path class="cls-5" d="M323.82,134.93l-25.64,0c-3.43,0-6.22,3.45-6.22,7.7v5.51c0,4.26-2.79,7.71-6.23,7.7l-50-.07c-3.44,0-6.23-3.46-6.23-7.72V142.5c0-4.25-2.79-7.71-6.22-7.71l-9,0-22.44,0c-11.14,0-20.17,10.68-20.16,23.88l.17,383.32c0,13.2,9,23.9,20.18,23.92l132,.19c11.15,0,20.18-10.68,20.17-23.88L344,158.85C344,145.65,335,135,323.82,134.93Z"/><path class="cls-6" d="M323.82,134.93l.78,0a13.7,13.7,0,0,1,2.3.25,18.69,18.69,0,0,1,8.2,3.75,24,24,0,0,1,4.52,4.93,25,25,0,0,1,3.39,7.32,28.07,28.07,0,0,1,.88,4.47,43.06,43.06,0,0,1,.2,4.88c0,3.36,0,6.95,0,10.74,0,30.35.08,74.25.15,128.5s.09,118.86.15,190.59q0,13.44,0,27.23,0,6.89,0,13.85,0,3.48,0,7a59.34,59.34,0,0,1-.22,7,26.23,26.23,0,0,1-1.71,6.9,23.71,23.71,0,0,1-3.54,6.2,22.06,22.06,0,0,1-5.29,4.86,18.35,18.35,0,0,1-6.75,2.6,47.3,47.3,0,0,1-7.23.26h-7.23l-14.57,0-59.53-.08-30.45,0-15.37,0a18.57,18.57,0,0,1-7.63-1.55,20.2,20.2,0,0,1-6.36-4.51,25.38,25.38,0,0,1-6.63-13.9,48.9,48.9,0,0,1-.34-7.73v-7.67q0-15.35,0-30.46,0-30.24,0-59.55c0-39,0-76.69,0-112.56s0-70,0-101.86q0-23.92,0-46.16,0-11.1,0-21.76c.06-7.12,2.79-14.19,7.88-18.82a18.72,18.72,0,0,1,8.87-4.67,15.06,15.06,0,0,1,2.48-.33c.83-.06,1.65-.07,2.47-.06h4.87l18.85,0h4.54c.76,0,1.49,0,2.27,0a5.42,5.42,0,0,1,2.19.66,7.22,7.22,0,0,1,3,3.32,9.74,9.74,0,0,1,.83,4.3v4.29a9.93,9.93,0,0,0,.61,4.07,7.06,7.06,0,0,0,2.37,3.23,5.25,5.25,0,0,0,1.77.88,7.06,7.06,0,0,0,2,.19l30,.06,13.24,0h6.16a5.79,5.79,0,0,0,4.68-2.88,9,9,0,0,0,1.32-5.22c0-1.79,0-3.53,0-5.21a8.82,8.82,0,0,1,1.39-4.66,6.37,6.37,0,0,1,3.59-2.73,7.89,7.89,0,0,1,2.15-.16H305l6.69,0,9.08,0,3.1,0s-1.05,0-3.1,0l-9.08,0H299a8.36,8.36,0,0,0-2.11.17,6.18,6.18,0,0,0-3.48,2.67,8.75,8.75,0,0,0-1.35,4.57v5.2a9.34,9.34,0,0,1-1.34,5.34,6.05,6.05,0,0,1-4.87,3h-19.4l-30,0a7.18,7.18,0,0,1-2-.2,5.47,5.47,0,0,1-1.87-.93A7.36,7.36,0,0,1,230,151.4a10.31,10.31,0,0,1-.64-4.19v-4.29a9.48,9.48,0,0,0-.81-4.16,6.87,6.87,0,0,0-2.82-3.16,5.25,5.25,0,0,0-2.05-.62c-.72,0-1.49,0-2.24,0H193.2c-.82,0-1.64,0-2.45.07a13.38,13.38,0,0,0-2.42.32,18.3,18.3,0,0,0-8.68,4.58c-5,4.55-7.68,11.52-7.74,18.53s0,14.36,0,21.76q0,22.22,0,46.16c0,31.9,0,66,.07,101.86s.05,73.53.07,112.56q0,29.28,0,59.55,0,15.12,0,30.46v7.67a48.67,48.67,0,0,0,.33,7.65A24.88,24.88,0,0,0,179,559.7a19.76,19.76,0,0,0,6.19,4.38,17.88,17.88,0,0,0,7.4,1.5l15.37,0,30.45,0,59.53.09,14.57,0h7.23a46.89,46.89,0,0,0,7.14-.26,17.73,17.73,0,0,0,6.55-2.51,21.35,21.35,0,0,0,5.16-4.74,23,23,0,0,0,3.46-6.07,25.47,25.47,0,0,0,1.68-6.76,57.88,57.88,0,0,0,.21-7V517.62q0-13.78,0-27.23c0-71.73,0-136.33,0-190.59s0-98.15,0-128.5c0-3.79,0-7.38,0-10.74a42.75,42.75,0,0,0-.19-4.86,27.7,27.7,0,0,0-.86-4.44A24.76,24.76,0,0,0,339.5,144a23.48,23.48,0,0,0-4.47-4.92,18.67,18.67,0,0,0-8.14-3.78,13.39,13.39,0,0,0-2.29-.28Z"/><polygon class="cls-21" points="216.55 525.99 213.74 567.68 231.74 569.89 240.35 527.31 216.55 525.99"/><path class="cls-7" d="M214,562.18l-.17,1.19s-21.35,5.42-22.08,9.24L232,577.79l1.18-13.46A23.25,23.25,0,0,1,214,562.18Z"/><path class="cls-5" d="M228.52,568.08a1.66,1.66,0,0,1,.89,2,1.58,1.58,0,0,1-2,.9,1.76,1.76,0,0,1-.94-2.15,1.66,1.66,0,0,1,2.18-.71"/><path class="cls-5" d="M232,577.79l.28-3.24-38.68-3.78s-1.9.55-1.86,1.84Z"/><path class="cls-6" d="M213.64,563.46c0,.2,1,.42,1.84,1.17s1.29,1.65,1.48,1.6,0-1.23-1-2.13S213.62,563.28,213.64,563.46Z"/><path class="cls-6" d="M209.19,564.67c-.07.18.74.63,1.3,1.54s.64,1.82.84,1.84.46-1.08-.26-2.21S209.22,564.48,209.19,564.67Z"/><path class="cls-6" d="M206.14,569.41c.18.07.58-.88.21-2s-1.23-1.69-1.34-1.54.4.8.68,1.75S206,569.37,206.14,569.41Z"/><path class="cls-6" d="M289.24,190.35c.45-2.88,3-5.09,5.87-5.78a15,15,0,0,1,8.57.86,20.48,20.48,0,0,1,8.25,5.13,12.38,12.38,0,0,1,3.48,8.89c-.16,3.06-1.69,6.13-.84,9.07.65,2.23,2.54,3.87,4.44,5.21s3.95,2.62,5.23,4.56,1.48,4.84-.24,6.41c-1.54,1.39-4.29,1.55-4.93,3.51-.4,1.22.28,2.5.65,3.73a9.71,9.71,0,0,1-1.25,7.8,16.33,16.33,0,0,1-6,5.41c-4.14,2.34-9.31,3.44-13.69,1.57a13.18,13.18,0,0,1-5.4-4.44,20.85,20.85,0,0,1-3.58-11,62.34,62.34,0,0,1,.76-11.73"/><path class="cls-6" d="M287.72,236.94A12.06,12.06,0,0,0,303,225c-.08-3.49-1.66-7.06-.57-10.38.74-2.28,2.65-4.06,3.3-6.37.95-3.46-1.13-6.95-3.13-9.93a23.05,23.05,0,0,0-4.37-5.3,7.83,7.83,0,0,0-6.39-1.89"/><path class="cls-6" d="M255.48,191.48c.2,2.64-1.54,5-3.3,7s-3.71,4.05-4.09,6.66c-.67,4.65,3.87,8.95,2.94,13.55-.51,2.46-2.52,4.44-2.88,6.93s.94,4.76,2.54,6.59,3.54,3.36,5,5.34c0,0,2.94,4.83,12,1.73"/><path class="cls-6" d="M296,195.51c.07-2.39-2.14-4.24-4.37-5.12s-4.7-1.2-6.69-2.54c-1.76-1.18-2.94-3-4.43-4.54a14.73,14.73,0,0,0-24.78,6.76c-.86,3.41-.28,7.44,2.41,9.71,3.12,2.62,7.74,2,11.74,1.22s8.51-1.62,11.85.72c2,1.42,3.17,3.72,4.4,5.85s2.77,4.31,5.09,5.11,5.49-.58,5.58-3"/><path class="cls-21" d="M286.61,196a4,4,0,0,1,3.57,4.07h0l-2.39,54.09c-.1,6.39-9.44,10-16.28,9.82h0c-6.9-.17-7.12-3.55-7.21-9.63-.14-10.15-.13-14-.14-13.91s-8.72-1.46-10.5-12.85c-.89-5.67-.58-15-.09-22.54.45-6.83,5-15.2,11.79-14.46Z"/><path class="cls-6" d="M255.59,212.55A1.45,1.45,0,0,0,257,214a1.4,1.4,0,0,0,1.51-1.31,1.47,1.47,0,0,0-1.4-1.48A1.4,1.4,0,0,0,255.59,212.55Z"/><path class="cls-6" d="M255.21,208.65c.18.2,1.29-.62,2.86-.61s2.72.79,2.89.6-.1-.43-.6-.79a3.89,3.89,0,0,0-2.31-.72,3.81,3.81,0,0,0-2.28.73C255.29,208.23,255.12,208.57,255.21,208.65Z"/><path class="cls-6" d="M270.18,212.82a1.46,1.46,0,0,0,1.41,1.48,1.39,1.39,0,0,0,1.5-1.31,1.46,1.46,0,0,0-1.4-1.48A1.4,1.4,0,0,0,270.18,212.82Z"/><path class="cls-6" d="M271,209.43c.18.19,1.29-.62,2.86-.61s2.72.79,2.89.6-.1-.43-.6-.8a4.06,4.06,0,0,0-2.31-.72,4,4,0,0,0-2.28.73C271.1,209,270.93,209.35,271,209.43Z"/><path class="cls-6" d="M265.29,221.85a10.21,10.21,0,0,0-2.55-.46c-.4,0-.78-.13-.85-.4a2.13,2.13,0,0,1,.27-1.19l1.2-3.05c1.65-4.35,2.85-7.92,2.68-8s-1.66,3.41-3.32,7.75l-1.14,3.08a2.29,2.29,0,0,0-.22,1.57,1,1,0,0,0,.66.59,2.55,2.55,0,0,0,.68.09A10.18,10.18,0,0,0,265.29,221.85Z"/><g class="cls-22"><path d="M264.16,240.44a28.89,28.89,0,0,0,15.26-4s-3.86,7.82-15.26,6.73Z"/></g><path class="cls-6" d="M270.33,205.61c.15.43,1.72.23,3.57.46s3.33.73,3.57.35c.11-.19-.14-.59-.74-1a6.14,6.14,0,0,0-2.66-.93,6,6,0,0,0-2.79.32C270.61,205.07,270.26,205.41,270.33,205.61Z"/><path class="cls-6" d="M255.44,205.17c.32.36,1.55,0,3,0s2.73.24,3-.13c.12-.18-.07-.54-.62-.88a4.87,4.87,0,0,0-4.86.12C255.48,204.63,255.31,205,255.44,205.17Z"/><path class="cls-6" d="M294.56,233.46a10.1,10.1,0,0,1-12-11.18c.35-2.79,1.86-5.64.89-8.28-1.28-3.5-6.19-4.58-7.49-8.07-.76-2-.08-4.41-.93-6.4s-2.78-2.94-4.69-3.64-4-1.17-5.58-2.42-2.61-3.6-1.57-5.36a107.77,107.77,0,0,1,24.88,6c1.85.69,3.81,1.53,4.91,3.18s1.1,4,1,6.1q-.7,15.33-1.43,30.67"/><path class="cls-16" d="M300.57,196.47a.81.81,0,0,1,.19.46,1.69,1.69,0,0,1-.44,1.37,2.81,2.81,0,0,1-2,1,6.42,6.42,0,0,1-2.89-.86,8.05,8.05,0,0,0-3.32-1,16.86,16.86,0,0,0-4,.37,27.7,27.7,0,0,1-4.55.58,6.55,6.55,0,0,1-4.66-1.7,13.65,13.65,0,0,1-2.69-4.16,20.23,20.23,0,0,0-2.17-3.91,6.37,6.37,0,0,0-6.57-2.4,6.65,6.65,0,0,0-4,2.93,17.66,17.66,0,0,0-.84,1.69,1.54,1.54,0,0,1,.09-.49,6.3,6.3,0,0,1,.55-1.31,6.72,6.72,0,0,1,4.06-3.22,6.59,6.59,0,0,1,3.65.07,6.8,6.8,0,0,1,3.45,2.39,21,21,0,0,1,2.27,4,13.22,13.22,0,0,0,2.56,4,6,6,0,0,0,4.26,1.55,27.89,27.89,0,0,0,4.46-.54,17.44,17.44,0,0,1,4.14-.32,8.21,8.21,0,0,1,3.47,1.1,6.46,6.46,0,0,0,2.7.9,2.66,2.66,0,0,0,1.87-.85,1.63,1.63,0,0,0,.49-1.2C300.63,196.64,300.54,196.48,300.57,196.47Z"/><path class="cls-16" d="M301.85,197.55c-.14.13-1.88-2.77-5.39-4.75s-6.85-2.07-6.82-2.26a5.17,5.17,0,0,1,2.17,0,13.89,13.89,0,0,1,4.95,1.72,14.11,14.11,0,0,1,4,3.4A5.35,5.35,0,0,1,301.85,197.55Z"/><path class="cls-16" d="M289.08,190a1.14,1.14,0,0,1-.16.34,3.6,3.6,0,0,1-.74.77,5,5,0,0,1-3.77.84,9.48,9.48,0,0,1-4.92-2.94c-1.55-1.5-3-3.43-5.07-4.62a8.88,8.88,0,0,0-6.53-.83,8.62,8.62,0,0,0-4.57,3,9.46,9.46,0,0,0-1.73,3.32c-.25.86-.3,1.36-.35,1.35s0-.13,0-.37a5,5,0,0,1,.14-1,9,9,0,0,1,6.38-6.73,9.37,9.37,0,0,1,7,.84c2.24,1.29,3.66,3.27,5.15,4.75a9.37,9.37,0,0,0,4.63,2.92,4.92,4.92,0,0,0,3.56-.62A7.28,7.28,0,0,0,289.08,190Z"/><path class="cls-16" d="M288.55,238.35a1.72,1.72,0,0,0,.51.14,8,8,0,0,0,1.49.15,11.6,11.6,0,0,0,5.39-1.21,12.52,12.52,0,0,0,5.74-5.8,14.39,14.39,0,0,0,1-9.93,28.71,28.71,0,0,1-1-5,8,8,0,0,1,1.13-4.43,16.2,16.2,0,0,0,1.76-4,9.57,9.57,0,0,0,.11-3.86,10.17,10.17,0,0,0-2.35-5,7,7,0,0,0-1.1-1c-.27-.2-.42-.3-.44-.28s.54.48,1.33,1.49a10.35,10.35,0,0,1,2.09,4.89,9.14,9.14,0,0,1-.19,3.65,16.14,16.14,0,0,1-1.76,3.88,10.86,10.86,0,0,0-1,2.22,7.91,7.91,0,0,0-.28,2.53,27.48,27.48,0,0,0,1,5.11,13.9,13.9,0,0,1-.87,9.49,12.2,12.2,0,0,1-10.57,7C289.27,238.42,288.56,238.29,288.55,238.35Z"/><path class="cls-16" d="M308.72,187.93a3.73,3.73,0,0,0-1.94-1,7.63,7.63,0,0,0-9,4.14,3.68,3.68,0,0,0-.5,2.13c.11,0,.28-.79.93-1.91a7.86,7.86,0,0,1,8.48-3.89C307.94,187.63,308.67,188,308.72,187.93Z"/><path class="cls-16" d="M300.3,195.11a5.09,5.09,0,0,0-.05-.74,3.87,3.87,0,0,1,.51-2,5.45,5.45,0,0,1,2.35-2.21,4.94,4.94,0,0,1,4.17-.11,7.67,7.67,0,0,1,3.72,3.57,11.39,11.39,0,0,1,1.16,5.9,38.36,38.36,0,0,1-1.07,6.75,28.78,28.78,0,0,0-.87,7.41,22.12,22.12,0,0,0,1.93,7.23,64.87,64.87,0,0,1,2.48,6.4,14.09,14.09,0,0,1,.51,6.05,17.77,17.77,0,0,1-1.58,5.09,41.18,41.18,0,0,1-4.17,6.62l-1.29,1.71a3.55,3.55,0,0,0-.42.62,3.27,3.27,0,0,0,.53-.54c.32-.36.8-.91,1.38-1.63a36.74,36.74,0,0,0,4.4-6.57,18.19,18.19,0,0,0,1.71-5.22,14.56,14.56,0,0,0-.48-6.3,59.67,59.67,0,0,0-2.46-6.48,21.89,21.89,0,0,1-1.86-7c-.21-5,1.81-9.62,1.88-14.11a12,12,0,0,0-1.28-6.19,8.17,8.17,0,0,0-4-3.74,5.34,5.34,0,0,0-4.52.21,5.74,5.74,0,0,0-2.42,2.43,3.69,3.69,0,0,0-.4,2.13A2.32,2.32,0,0,0,300.3,195.11Z"/><g class="cls-22"><path d="M265.89,225.67a7.54,7.54,0,0,0,1,1.92,2.55,2.55,0,0,0,1.81,1,2.28,2.28,0,0,0,1.94-1,3.67,3.67,0,0,0,.54-2.2c0-.69-.35-1.52-1-1.6a1.66,1.66,0,0,0-.84.18l-3.62,1.47"/></g><path class="cls-6" d="M267.33,228.65a5.1,5.1,0,0,0,1.93-.24,2.69,2.69,0,0,0,1.46-1.32,2.91,2.91,0,0,0,0-2.37,2.82,2.82,0,0,0-.31-.54c-.15-.15-.12-.15-.28-.12s-.38.15-.58.22l-.59.25-2.07.81a6.77,6.77,0,0,1-2,.59,6.56,6.56,0,0,1,1.79-1c.57-.28,1.25-.6,2-.94l.59-.26a5.46,5.46,0,0,1,.66-.28.84.84,0,0,1,.54,0,1,1,0,0,1,.4.32,2.9,2.9,0,0,1,.4.68,3.36,3.36,0,0,1-.11,2.9,3.08,3.08,0,0,1-1.83,1.49,3,3,0,0,1-1.57.06C267.49,228.81,267.32,228.69,267.33,228.65Z"/><path class="cls-6" d="M307.65,367.63c0,.13.05.28.07.41C307.67,367.6,307.62,367.22,307.65,367.63Z"/><path class="cls-21" d="M318.31,377.39l1.61,14.21,13,11.87a4.26,4.26,0,0,0,.5-3.27c-.59-1.48,3,1.93,3,1.93v8.16s2.22.89,3-1,1.18-8.9,1.18-8.9l-1-.74a3.79,3.79,0,0,0,1-3.27,11.54,11.54,0,0,0,.74-5.93,17.7,17.7,0,0,0-1.33-5.19l-10.64-11.88Z"/><path class="cls-6" d="M324.84,391.06a21.71,21.71,0,0,0,3.83,4.78,22.21,22.21,0,0,0,4.67,4c.1-.12-1.94-1.93-4.28-4.35S325,391,324.84,391.06Z"/><path class="cls-6" d="M334,393.66a42,42,0,0,0,6.58,6.75,20.15,20.15,0,0,0-3.09-3.57A20.35,20.35,0,0,0,334,393.66Z"/><path class="cls-6" d="M335.72,390.4a33.21,33.21,0,0,0,2.46,2.93,34.24,34.24,0,0,0,2.37,3A8.58,8.58,0,0,0,338.6,393,8.76,8.76,0,0,0,335.72,390.4Z"/><path class="cls-6" d="M337.22,387.05a13.27,13.27,0,0,0,1.92,2.35c1.1,1.25,1.92,2.33,2.06,2.25a6.59,6.59,0,0,0-1.64-2.61A6.51,6.51,0,0,0,337.22,387.05Z"/><path class="cls-16" d="M241.56,216.9a43,43,0,0,1-9.25-4.23,22.13,22.13,0,0,1,4.75,1.85A21.71,21.71,0,0,1,241.56,216.9Z"/><path class="cls-21" d="M226.55,238.72c-1.07,0-3.67,1.51-5.76,4.39l-.11.12c-1.48,1.93-2.88-3.58-3.13-5.63a2.16,2.16,0,0,0-2.91-1.67l-6.9,3.23-2,.06a2,2,0,0,0-1.31,2.44l3.29,10.89.07,3,13.81,1.87.22-7.44c.2-.87.48-1.88.85-3a9.42,9.42,0,0,1,1.52-2.91,17.65,17.65,0,0,1,2.48-2.72l.22-.15a1.34,1.34,0,0,0,.4-.34A1.21,1.21,0,0,0,226.55,238.72Z"/><path class="cls-7" d="M226.28,205.17s-8.07-1.54-19.64-12.06S189.35,168.34,188,168.45s-7.48-2.51-18.23,22.73S163.67,222.09,166,222s17.64-4.86,27.34-4,22.27,5.51,22.27,5.51Z"/><path class="cls-6" d="M243.68,218.27l-2.59,5.28-1.16,2.36a6.77,6.77,0,0,1-8.75,3.25l-17.34-5.49,9.35-23.11,17.41,8.65A6.78,6.78,0,0,1,243.68,218.27Z"/><path class="cls-6" d="M234,226.87l-5.16,10.88-2.76-.68-17.46,15-5.27-9.64s10.43-4.84,12.28-8.66-.44-4.61-.44-4.61l4.81-5.79Z"/><path class="cls-6" d="M170.68,191.61c-5.71,13.68-7.91,25.78-4.91,27s10.08-8.82,15.79-22.49,7.91-25.78,4.91-27S176.4,177.94,170.68,191.61Z"/><polygon class="cls-16" points="245.36 225.74 240.67 224.41 243.39 218.85 246.94 220.92 245.36 225.74"/><g class="cls-19"><polygon points="218.37 225.39 231.1 233.01 232.57 229.91 218.37 225.39"/></g><path class="cls-16" d="M240.22,220.21a26.72,26.72,0,0,1-5.24-1.87,26.73,26.73,0,0,1-5-2.42c.07-.16,2.42.68,5.25,1.86S240.29,220.05,240.22,220.21Z"/><path class="cls-16" d="M238.51,223.68c0,.08-.57,0-1.46-.28-.45-.13-1-.28-1.56-.47s-1.18-.47-1.83-.74a20.56,20.56,0,0,1-4.5-2.35c.08-.17,2.18.7,4.73,1.8.65.26,1.24.56,1.8.78s1.07.4,1.49.58C238,223.34,238.54,223.6,238.51,223.68Z"/><path class="cls-4" d="M183,188.26s-7.09-4.12-10.63,5.39,3.83,10.85,3.83,10.85A62.89,62.89,0,0,0,183,188.26Z"/><path class="cls-6" d="M190.11,176.84a10.79,10.79,0,0,1-.22,1.8c-.19,1.16-.45,2.83-.84,4.9-.26,1-.55,2.12-.87,3.31-.15.6-.32,1.22-.48,1.85-.09.32-.17.64-.26,1s-.22.64-.33,1c-.47,1.31-1,2.68-1.46,4.1l-.39,1.08c-.12.36-.3.71-.46,1.07l-1,2.16-1,2.16c-.17.35-.3.72-.49,1l-.55,1c-.74,1.32-1.44,2.6-2.12,3.81-.17.3-.32.61-.51.89l-.55.84c-.37.54-.72,1.08-1.06,1.59l-1.92,2.85c-1.29,1.65-2.37,2.95-3.11,3.86a9.71,9.71,0,0,1-1.21,1.36,11.69,11.69,0,0,1,1-1.5c.71-1,1.72-2.32,2.95-4l1.84-2.87c.34-.51.68-1.05,1-1.59l.54-.84c.18-.28.33-.59.5-.89l2.07-3.8.54-1c.19-.34.32-.7.49-1.05.32-.71.64-1.42,1-2.15s.66-1.44,1-2.14c.16-.36.34-.7.46-1.06l.39-1.07c.51-1.41,1-2.76,1.48-4.06.12-.33.25-.64.34-1l.27-1,.52-1.83c.33-1.18.64-2.27.93-3.28.43-2,.77-3.67,1-4.84A10.4,10.4,0,0,1,190.11,176.84Z"/><path class="cls-21" d="M212.23,233.85a1.58,1.58,0,0,0-.83,2c.53,1.5,1.39,3.86,2,5.29a3.94,3.94,0,0,0,.79,1.27,1.34,1.34,0,0,0,1.34.37,1.43,1.43,0,0,0,.8-1.27,4.23,4.23,0,0,0-.28-1.57c-.46-1.4-1.24-3.5-1.9-5.21a1.47,1.47,0,0,0-2-.85Z"/><path class="cls-21" d="M210.13,236.62a1.58,1.58,0,0,0-.82,2c.53,1.5,1.38,3.86,2,5.29a4,4,0,0,0,.78,1.27,1.36,1.36,0,0,0,1.35.37,1.46,1.46,0,0,0,.8-1.27,4.45,4.45,0,0,0-.29-1.57c-.45-1.41-1.23-3.51-1.9-5.21a1.47,1.47,0,0,0-2-.85Z"/><path class="cls-21" d="M208.11,238.37a1.35,1.35,0,0,0-.75,1.71c.48,1.3,1.26,3.34,1.84,4.58a3.53,3.53,0,0,0,.71,1.1,1.1,1.1,0,0,0,1.94-.78,3.39,3.39,0,0,0-.26-1.36c-.41-1.21-1.11-3-1.72-4.51a1.35,1.35,0,0,0-1.76-.74Z"/><path class="cls-21" d="M205.45,239a1.36,1.36,0,0,0-.75,1.72c.48,1.31,1.26,3.36,1.84,4.6a3.6,3.6,0,0,0,.72,1.11,1.11,1.11,0,0,0,2-.79,3.57,3.57,0,0,0-.26-1.36c-.41-1.22-1.12-3.05-1.73-4.54a1.36,1.36,0,0,0-1.77-.74Z"/><path d="M214.08,242.44a8.17,8.17,0,0,1-1.4-2.63,8.28,8.28,0,0,1-.89-2.85,8.17,8.17,0,0,1,1.4,2.63A8.34,8.34,0,0,1,214.08,242.44Z"/><path d="M211.79,244.74a21,21,0,0,1-2.49-6.28,10.17,10.17,0,0,1,1.51,3A10.65,10.65,0,0,1,211.79,244.74Z"/><path d="M209.4,245a7,7,0,0,1-1.51-2.61,6.91,6.91,0,0,1-.79-2.91,10.12,10.12,0,0,1,1.3,2.7A10.27,10.27,0,0,1,209.4,245Z"/><path class="cls-23" d="M309.93,455.43,302.65,397c4.74-11.07,6.46-22.12,5.07-29,.08.72.12,1.61-.07-.41-1.18-12.16-11.68-21.1-11.68-21.1l-3.52-14.75-45,6.32,1.7,24.7-29.1,102.47-5.29,86.62,23.5,2.75s9.21-43.31,11.7-61.41a249.64,249.64,0,0,0,2.33-29.62l22.08-33c2.61,13.64,5.57,30.47,7.09,39.25a23,23,0,0,0,4.89,10.69L344.16,526V498.6C338.67,485.48,309.93,455.43,309.93,455.43Z"/><path class="cls-16" d="M253.26,356.43a10.12,10.12,0,0,1-.94-2.45,44.44,44.44,0,0,1-1.89-12.47,10.07,10.07,0,0,1,.18-2.62,15.62,15.62,0,0,1,.22,2.6c.1,1.61.28,3.82.65,6.24s.84,4.59,1.22,6.15A14.87,14.87,0,0,1,253.26,356.43Z"/><path class="cls-16" d="M255.34,339.63s.17-.17.58-.26a2.63,2.63,0,0,1,1.72.25,2.67,2.67,0,0,1,1.53,2.1,3,3,0,0,1-1.43,2.83,2.78,2.78,0,0,1-3.15-.29,2.72,2.72,0,0,1-1.07-2.36,4.16,4.16,0,0,1,.51-1.65c.19-.36.33-.53.36-.52s0,.23-.16.6a4.88,4.88,0,0,0-.31,1.58,2.34,2.34,0,0,0,1,1.94,2.31,2.31,0,0,0,2.55.22,2.58,2.58,0,0,0,1.21-2.31,2.32,2.32,0,0,0-1.2-1.8A3.35,3.35,0,0,0,255.34,339.63Z"/><path class="cls-16" d="M284.9,351.54s-.27.15-.8.33a12.46,12.46,0,0,1-2.27.51,16.49,16.49,0,0,1-3.46.12,19.53,19.53,0,0,1-4.17-.79,19.19,19.19,0,0,1-3.87-1.76,16.52,16.52,0,0,1-2.76-2.1,11.38,11.38,0,0,1-1.56-1.73c-.32-.44-.49-.69-.46-.72s.82.9,2.28,2.16a19.83,19.83,0,0,0,2.76,1.95,20.89,20.89,0,0,0,3.78,1.66,20.55,20.55,0,0,0,4,.82,19,19,0,0,0,3.38,0C283.71,351.81,284.87,351.44,284.9,351.54Z"/><path class="cls-16" d="M299.36,395.61a6.47,6.47,0,0,1-.49.69c-.38.47-.87,1.1-1.49,1.89-1.24,1.68-3.05,4.11-5.21,7.16-4.34,6.09-10.2,14.61-16.62,24l-16.37,24.23-5,7.33-1.37,2a4.53,4.53,0,0,1-.51.67,4.9,4.9,0,0,1,.41-.73c.33-.51.75-1.19,1.29-2l4.82-7.43c4.11-6.26,9.82-14.88,16.24-24.32s12.33-17.93,16.76-24c2.21-3,4.06-5.42,5.36-7.06l1.57-1.83A4.07,4.07,0,0,1,299.36,395.61Z"/><path class="cls-6" d="M291.43,264.75c.09,0,.08-1.12.39-2.9a20.1,20.1,0,0,1,2.35-6.55,11.13,11.13,0,0,1,4.78-4.87,6.75,6.75,0,0,1,2.81-.45,1.71,1.71,0,0,0-.78-.21,4.87,4.87,0,0,0-2.17.3,10.66,10.66,0,0,0-5.11,5,18.16,18.16,0,0,0-2.27,6.78A8.5,8.5,0,0,0,291.43,264.75Z"/><path class="cls-7" d="M287.72,247.4l-23.56,3.65L260,254.68s-14.83,28.88-15.1,34.7c-.3,6.44,3.15,17.5,3.15,17.5l-3.39,25.5c-.5,2.93,1.4,5.74,2.68,5.74l40.7-5.45c5.3-1,7.48-3.82,7.15-6.89l-.6-5.68,17.38-58.21c1,3.44-.58-9.28-8.34-12.13C300.31,248.55,292.71,246.35,287.72,247.4Z"/><path class="cls-7" d="M262.14,253s-7.25,5.59-14.12,11.94S222.86,284,222.86,284l-1.27-26.59-13.81-1.87s-6.75,33.16-2.46,42.31,9.4,9.54,23.64,5,18.3-6.61,18.3-6.61Z"/><path class="cls-6" d="M258.5,256.92s-.13.13-.33.41-.51.74-.84,1.24c-.73,1.08-1.76,2.66-3,4.64a74.13,74.13,0,0,0-7.91,16.4,36.44,36.44,0,0,0-1.22,18.08,24.48,24.48,0,0,0,1.71,5.26,12.24,12.24,0,0,0,.68,1.34,2,2,0,0,0,.28.45s-.28-.67-.77-1.87a28.47,28.47,0,0,1-1.52-5.26A37.44,37.44,0,0,1,247,279.77a80.25,80.25,0,0,1,7.72-16.36c1.16-1.94,2.11-3.54,2.83-4.73l.75-1.29A2.51,2.51,0,0,0,258.5,256.92Z"/><path class="cls-7" d="M299.17,249.77s-7.33,9.6-7.73,18.41,13.16,61.65,13.16,61.65l11.89,48.24,14.8-5.46s-3.45-34.34-4.1-38.61c-1.37-8.88-7.22-26.2-8-36.21s-4.52-29.3-6.35-33.81S310.92,249.51,299.17,249.77Z"/><path class="cls-6" d="M292,273.05a1.72,1.72,0,0,0,0,.52c0,.4.1.89.17,1.47.17,1.28.46,3.11.87,5.38.8,4.52,2.1,10.74,3.64,17.57s3.06,13,4.21,17.46c.57,2.22,1.06,4,1.41,5.25l.42,1.42a2.72,2.72,0,0,0,.18.49,1.55,1.55,0,0,0-.07-.52l-.32-1.44c-.32-1.33-.74-3.12-1.25-5.3-1.05-4.55-2.47-10.69-4.05-17.48s-2.89-13-3.79-17.53c-.43-2.19-.78-4-1-5.33-.11-.58-.2-1.06-.28-1.46A1.56,1.56,0,0,0,292,273.05Z"/><g class="cls-24"><path d="M291,331.87c-2.33-2.35-2.82-5.9-3.19-9.19Q286,307,284.3,291.31c-.73-6.52-1.41-13.36,1.05-19.44a3.32,3.32,0,0,1,1.86-2.16,2.43,2.43,0,0,1,2.45,1c.56.74,2.15,1.82,2.38,2.73,2.38,9.32,3.41,18.5,5.78,27.83.63,2.46,1.45,2.37.9,4.85-.78,3.6-4.16,14-4.16,14s.48,3.76.62,5.95a5.7,5.7,0,0,1-4.2,5.82"/></g><path class="cls-4" d="M293.17,278.25a3.52,3.52,0,0,0,.8.58,19.13,19.13,0,0,0,2.4,1.29,8.58,8.58,0,0,0,4,.8A9.64,9.64,0,0,0,305,279.1a33.65,33.65,0,0,1,4.1-2.58,6,6,0,0,1,3.74-.61,4.16,4.16,0,0,1,2.28,1.15c.43.44.57.77.62.75a1.82,1.82,0,0,0-.46-.9,4.19,4.19,0,0,0-2.36-1.38,6.26,6.26,0,0,0-4,.53,30.83,30.83,0,0,0-4.19,2.58,9.65,9.65,0,0,1-4.36,1.78,8.59,8.59,0,0,1-3.8-.66C294.43,278.91,293.22,278.16,293.17,278.25Z"/><path class="cls-4" d="M247.27,277.13s.06.14.21.39a5.82,5.82,0,0,0,.8,1,8.86,8.86,0,0,0,4.1,2.32,14.61,14.61,0,0,0,7,.1,70.45,70.45,0,0,0,8.13-2.62,26.88,26.88,0,0,1,15.1-1,39.89,39.89,0,0,1,6.05,2,1.49,1.49,0,0,0-.38-.24,11.82,11.82,0,0,0-1.13-.59,24.42,24.42,0,0,0-4.45-1.56,26.17,26.17,0,0,0-7-.75,27.33,27.33,0,0,0-8.41,1.62,75.39,75.39,0,0,1-8.06,2.65,14.65,14.65,0,0,1-6.79,0,9.2,9.2,0,0,1-4-2.1C247.63,277.63,247.32,277.09,247.27,277.13Z"/><path class="cls-4" d="M238.62,272.46a5.46,5.46,0,0,0-.12,2.2,13.55,13.55,0,0,0,4.88,9.26,5.59,5.59,0,0,0,1.89,1.15c0-.08-.66-.54-1.63-1.44a16.09,16.09,0,0,1-3.15-4.1,15.78,15.78,0,0,1-1.6-4.91C238.69,273.3,238.71,272.46,238.62,272.46Z"/><g class="cls-24"><path d="M253.75,264c-11.13,11.17-20.69,23.59-24.79,38.81,6.35-2.08,12.36-4.1,16.33-5.75,0,0-1.19-6.27-.47-10,.88-4.52.88-8.3,8.93-23.09"/></g><path class="cls-6" d="M223.06,284a36,36,0,0,0-2.22,3.45,36.46,36.46,0,0,0-1.3,3.9,8.26,8.26,0,0,1,3.52-7.35Z"/></g></svg>