<svg xmlns="http://www.w3.org/2000/svg" viewBox="0 0 700 640"><defs><style>.cls-1{fill:#263238;}.cls-2{fill:#fff;}.cls-3{fill:#ebebeb;}.cls-4{fill:#f5f5f5;}.cls-5{fill:#054641;}.cls-6{opacity:0.3;}.cls-7{fill:none;}.cls-8{fill:#d6d6d6;}.cls-9{fill:#00e9e9;}.cls-10{opacity:0.2;}.cls-11{fill:#fafafa;}.cls-12{fill:#455a64;}.cls-13{opacity:0.6;}.cls-14{fill:#ffbe9d;}.cls-15{fill:#eb996e;}</style></defs><title>Illustration</title><g id="Layer_11" data-name="Layer 11"><g id="freepik--Floor--inject-12"><path class="cls-1" d="M516.94,541.93c0,.14-92.21.26-205.93.26s-205.95-.12-205.95-.26,92.19-.26,206-.26S516.94,541.79,516.94,541.93Z"/></g><g id="freepik--Window--inject-12"><rect class="cls-2" x="144.34" y="153.21" width="397.82" height="298.93"/><path class="cls-1" d="M542.16,452.14v-5.49c0-3.59,0-8.92-.07-15.89,0-13.9-.08-34.33-.14-60.41-.07-52.08-.18-126.75-.3-217.1l.58.57-397.79.12h0l.69-.69V452.18l-.62-.63,287.13.31,81.55.17,21.64.08h.11l-21.52.08-81.41.18-287.54.3h-.76v-.62c0-89.68,0-191.45-.07-298.93v-.7h.74l397.78.14h.58v.56c-.12,90.56-.21,165.34-.29,217.49-.07,26-.11,46.41-.14,60.29v19.77A6.56,6.56,0,0,1,542.16,452.14Z"/><path class="cls-1" d="M540.16,189.82a6.63,6.63,0,0,1-1,.07h-3l-11.34.12c-9.85.08-24.11.12-41.72.11-35.24,0-83.91-.26-137.66-.7l-137.67-1.1L166.09,188l-11.34-.14-3-.08a4.1,4.1,0,0,1-1,0,4.09,4.09,0,0,1,1-.06h3l11.34-.12c9.85-.08,24.1-.12,41.72-.12,35.23,0,83.91.26,137.68.7l137.65,1.11,41.73.32,11.33.14h3A4.77,4.77,0,0,1,540.16,189.82Z"/><path class="cls-1" d="M170.32,168.34a4.69,4.69,0,1,1-4.7-4.68h0A4.7,4.7,0,0,1,170.32,168.34Z"/><path class="cls-1" d="M189.06,168.34a4.69,4.69,0,1,1-4.7-4.68h0A4.69,4.69,0,0,1,189.06,168.34Z"/><circle class="cls-1" cx="203.11" cy="168.39" r="4.69"/><rect class="cls-3" x="213.67" y="363.34" width="81.75" height="61.2"/><rect class="cls-3" x="303.46" y="363.34" width="81.75" height="61.2"/><rect class="cls-3" x="408.09" y="363.34" width="81.75" height="61.2"/></g><g id="freepik--Rocket--inject-12"><path class="cls-4" d="M630.4,217.5c-2.49-46.14-50.71-69.35-75.38-72.35l-19.73,23.19C551.18,166,590.69,188,592.62,204s-10.23,36.35-26.23,37.81c-12.58,1.16-33.54-10-41.52-.23-20.16-18-54.61-16.47-73.15,3.15a50.4,50.4,0,0,0-67.07,41.87l74.25,43.1s30.94,27.73,52,10.66c7.2-5.84,9.95-14.21,10.65-22.3a11.06,11.06,0,0,0,4.21-.27c5.33-1.43,9.33-6.23,11.08-11.49a18.84,18.84,0,0,0,.56-2.06c18,4,42.62-.54,57.13-9.59C615.61,281.55,631.73,242.31,630.4,217.5Z"/><path class="cls-1" d="M530.12,250.53a2.71,2.71,0,0,1-.28-.36l-.73-1.09c-.32-.49-.72-1.09-1.24-1.76s-1.08-1.48-1.81-2.29a47.87,47.87,0,0,0-14.43-11.61,45.71,45.71,0,0,0-12-4.36,43.45,43.45,0,0,0-14.65-.67,47.5,47.5,0,0,0-29.3,15.23c-1.1,1.2-2.08,2.5-3,3.7l-.18.24-.25-.13a46.71,46.71,0,0,0-38.09-1.33,56.7,56.7,0,0,0-6,3,49.19,49.19,0,0,0-9.71,7.2,39.26,39.26,0,0,0-9.69,14.38c-.4.95-.67,1.82-.91,2.58s-.39,1.28-.54,1.93l-.32,1.2a1.47,1.47,0,0,1-.14.4,1.76,1.76,0,0,1,.07-.41l.25-1.22a14.68,14.68,0,0,1,.5-1.95c.21-.78.46-1.66.83-2.67a39.15,39.15,0,0,1,9.62-14.65,48.55,48.55,0,0,1,9.76-7.34,58,58,0,0,1,6.09-3.09,46.46,46.46,0,0,1,6.91-2.25,47.22,47.22,0,0,1,31.72,3.46l-.44.11a47.52,47.52,0,0,1,32.79-19.15,43.48,43.48,0,0,1,14.83.72,46.29,46.29,0,0,1,12.15,4.5,46.89,46.89,0,0,1,14.4,11.87,28.71,28.71,0,0,1,1.77,2.34q.64.87,1.2,1.8c.28.48.51.85.68,1.13A3.13,3.13,0,0,1,530.12,250.53Z"/><path class="cls-1" d="M544.46,240.89c-.08.1-1-.6-2.79-1.25a14.55,14.55,0,0,0-3.17-.78,16.73,16.73,0,0,0-4,0,17.28,17.28,0,0,0-3.86,1.07,14.26,14.26,0,0,0-2.85,1.6c-1.52,1.1-2.25,2-2.35,2s.12-.28.44-.72a9.55,9.55,0,0,1,1.61-1.63,12.71,12.71,0,0,1,2.89-1.8,14.65,14.65,0,0,1,8.21-1.13,12.6,12.6,0,0,1,3.28,1,8.74,8.74,0,0,1,2,1.15C544.28,240.66,544.49,240.86,544.46,240.89Z"/><path class="cls-1" d="M565.39,269s-.76-.37-2.19-.88a16,16,0,0,0-6.32-.9,15,15,0,0,0-8.82,3.41,15.76,15.76,0,0,0-5.61,10.21l-.07.56-.45-.31a23.82,23.82,0,0,0-4.89-2.39,24.87,24.87,0,0,0-13.75-.87,24.6,24.6,0,0,0-10.14,5.08,25.73,25.73,0,0,0-5.11,5.76c-1,1.55-1.42,2.48-1.47,2.44a2.91,2.91,0,0,1,.27-.69,15.32,15.32,0,0,1,1-1.89,24.59,24.59,0,0,1,15.33-11.31,25,25,0,0,1,19.17,3.3l-.54.25a16.25,16.25,0,0,1,5.9-10.65,15.41,15.41,0,0,1,9.19-3.4,15.78,15.78,0,0,1,6.44,1.12,12.26,12.26,0,0,1,1.58.79A2.08,2.08,0,0,1,565.39,269Z"/><path class="cls-1" d="M623,190.54a7.32,7.32,0,0,1,.55.93c.32.63.82,1.55,1.4,2.76A61.54,61.54,0,0,1,628.62,205a72.56,72.56,0,0,1,2,16.67,86.79,86.79,0,0,1-.51,9.93,96.15,96.15,0,0,1-1.7,10.55,110.11,110.11,0,0,1-13.93,34.63,63.39,63.39,0,0,1-6.8,9.1c-.91,1-1.65,1.71-2.18,2.18a5,5,0,0,1-.83.69,8,8,0,0,1,.74-.8c.5-.49,1.18-1.26,2.07-2.26a69.59,69.59,0,0,0,6.58-9.16A113.38,113.38,0,0,0,627.76,242a94.74,94.74,0,0,0,1.7-10.47,83.37,83.37,0,0,0,.55-9.87,74.08,74.08,0,0,0-1.85-16.59,67.48,67.48,0,0,0-3.5-10.66c-.52-1.22-1-2.14-1.34-2.8A7.69,7.69,0,0,1,623,190.54Z"/><path class="cls-1" d="M586.11,192.31a6.86,6.86,0,0,1,1.24,1.34,26.73,26.73,0,0,1,2.76,4,29.18,29.18,0,0,1-1,30.56,26,26,0,0,1-3,3.79,7.22,7.22,0,0,1-1.33,1.2,58.61,58.61,0,0,0,3.9-5.26,29.89,29.89,0,0,0,1-30.05A53.1,53.1,0,0,0,586.11,192.31Z"/><path class="cls-5" d="M537.28,156.58a47.32,47.32,0,0,0,13,13.2,4.23,4.23,0,0,0,6.33-4.92v-.1a172.3,172.3,0,0,0,19,12.66,5.19,5.19,0,0,0,7.5-6.28,79.64,79.64,0,0,0-36.49-42.5Z"/><g class="cls-6"><path d="M545,157.22a7.91,7.91,0,0,0,2.09,2.37,2.74,2.74,0,0,0,3,.19c1.33-.9,1.27-3.07,2.66-3.89s3.21.36,4.44,1.51l3.86,3.69c1,.91,2.23,1.88,3.44,1.34s1.42-2.43,1.13-3.84a20.81,20.81,0,0,0-12.4-14.85Z"/></g><path class="cls-5" d="M596.23,188.94a4.65,4.65,0,1,0,0-.33"/><path class="cls-4" d="M351.35,28.24c-3.75,5.85,4.46,26.28,23.3,52.43a178.23,178.23,0,0,0,40,40.2l108.61,69.67,18.35-28.61,10.65-16.59,18.36-28.61L472,53.5a180,180,0,0,0-30.49-15.69,213.74,213.74,0,0,0-32.79-10.26c-31.37-6.89-53.64-5.16-57.38.69"/><path class="cls-5" d="M502.45,73.07l.4-.13a81.24,81.24,0,0,1,69.8,8.68l13,8.35-34.54,14.32Z"/><path class="cls-1" d="M502.45,73.07l.26.16.7.44,2.67,1.72,10.13,6.38,35,22.32H551l31.47-13,3-1.33v.4l-7.65-4.93c-2.53-1.6-5-3.25-7.48-4.7a81.66,81.66,0,0,0-15-7.06,77.52,77.52,0,0,0-14.56-3.62c-2.31-.42-4.58-.55-6.75-.78a44.26,44.26,0,0,0-6.26-.16,80.92,80.92,0,0,0-18.65,2.32c-2.18.47-3.81,1-4.94,1.33l-1.72.5.43-.16,1.16-.46c1.12-.33,2.74-.94,4.93-1.43a78.38,78.38,0,0,1,18.72-2.47,61,61,0,0,1,6.29.13,64.13,64.13,0,0,1,6.78.75A78.57,78.57,0,0,1,555.49,73a82.59,82.59,0,0,1,15.12,7.07c2.52,1.46,4.95,3.1,7.48,4.71l7.69,5,.37.24-.41.17-3,1.33-31.49,13H551L516,81.9l-10-6.47-2.66-1.72c-.28-.19-.51-.32-.67-.44Z"/><path class="cls-5" d="M455.11,146.9v.41a80.14,80.14,0,0,0,36.48,59l12.84,8.24-1.34-36.85Z"/><path class="cls-1" d="M455.11,146.9l.21.12.67.42,2.66,1.65,9.91,6.3,34.69,22.11.1.07v.09c.38,10.35.81,21.7,1.25,33.59,0,1.12.08,2.24.12,3.27V215l-.37-.24-7.57-4.85c-2.48-1.61-4.95-3.13-7.3-4.78a81,81,0,0,1-12.56-10.66,76.77,76.77,0,0,1-9.23-11.64c-1.33-1.92-2.38-3.91-3.47-5.78a37.21,37.21,0,0,1-2.67-5.58A77.73,77.73,0,0,1,456,153.69c-.44-2.16-.57-3.86-.73-5-.07-.56-.12-1-.16-1.33a1.05,1.05,0,0,1,0-.44c0,.25.11.73.27,1.73s.34,2.85.81,5a79.42,79.42,0,0,0,5.61,17.7c.75,1.82,1.75,3.62,2.66,5.55a40.61,40.61,0,0,0,3.48,5.73,76.62,76.62,0,0,0,9.23,11.56,80.86,80.86,0,0,0,12.5,10.57c2.33,1.63,4.82,3.15,7.3,4.76l7.57,4.85-.36.2c0-1-.07-2.15-.12-3.25-.43-11.9-.84-23.26-1.22-33.61l.1.18-34.42-22.22-9.89-6.42L456,147.52l-.68-.45Z"/><path class="cls-5" d="M351.35,28.24c-3.08,4.41,1.33,17.77,12.15,35.64L392.71,24.5C371.7,21.92,355.28,22.58,351.35,28.24Z"/><line class="cls-7" x1="505.94" y1="179.5" x2="552.39" y2="106.15"/><path class="cls-1" d="M552.39,106.15c.1.08-10.2,16.56-23,36.8s-23.31,36.63-23.42,36.55,10.17-16.49,23-36.79S552.28,106.09,552.39,106.15Z"/><line class="cls-7" x1="509.02" y1="181.94" x2="555.46" y2="108.6"/><path class="cls-1" d="M555.46,108.6c.11,0-10.2,16.55-23,36.79S509.13,182,509,181.94s10.2-16.53,23-36.79S555.36,108.52,555.46,108.6Z"/><line class="cls-7" x1="512.54" y1="184.11" x2="558.98" y2="110.76"/><path class="cls-1" d="M559,110.76c.11.08-10.2,16.56-23,36.8s-23.31,36.63-23.41,36.55,10.2-16.53,23-36.79S558.87,110.7,559,110.76Z"/><line class="cls-7" x1="516.04" y1="186.28" x2="562.5" y2="112.93"/><path class="cls-1" d="M562.5,112.93c.1.08-10.22,16.56-23,36.8s-23.36,36.62-23.36,36.55,10.2-16.53,23-36.79S562.38,112.87,562.5,112.93Z"/><line class="cls-7" x1="519.56" y1="188.45" x2="566" y2="115.1"/><path class="cls-1" d="M566,115.06c.11,0-10.2,16.55-23,36.8s-23.31,36.62-23.41,36.55,10.2-16.53,23-36.79S565.89,115.06,566,115.06Z"/><path class="cls-1" d="M479,109.9a1.17,1.17,0,0,1,.56.24c.36.24.86.48,1.53.85,1.33.77,3.18,1.93,5.47,3.38,4.6,2.89,10.9,7,17.82,11.51s13.18,8.68,17.69,11.71l5.33,3.61,1.42,1a2.23,2.23,0,0,1,.48.38,4.07,4.07,0,0,1-.53-.31l-1.48-.92-5.41-3.49-17.71-11.6-17.74-11.61-5.33-3.49c-.64-.4-1.13-.75-1.48-.93Z"/><path class="cls-1" d="M502.45,73.07c.11.08-10.3,16.53-23.25,36.73s-23.53,36.56-23.64,36.5,10.31-16.52,23.25-36.74S502.35,73,502.45,73.07Z"/><path class="cls-1" d="M518.56,126.94a1,1,0,0,1,0-.65,2.78,2.78,0,0,1,3.43-2.24,2.82,2.82,0,0,1,.5,5.33,2.66,2.66,0,0,1-2.67-.16,2.74,2.74,0,0,1-1.14-1.33c-.14-.4-.11-.65-.08-.65s.06.22.25.58A2.76,2.76,0,0,0,520,129a2.32,2.32,0,0,0,2.31,0,2.42,2.42,0,0,0,1.11-3.24,2.46,2.46,0,0,0-1.54-1.28,2.34,2.34,0,0,0-2.24.48,2.81,2.81,0,0,0-.9,1.34C518.6,126.72,518.6,126.94,518.56,126.94Z"/><path class="cls-1" d="M497.82,113.09a1.21,1.21,0,0,1,0-.65,2.63,2.63,0,0,1,.85-1.58,2.66,2.66,0,0,1,2.59-.66,2.83,2.83,0,0,1,.49,5.33,2.64,2.64,0,0,1-2.66-.16A2.84,2.84,0,0,1,498,114a1.45,1.45,0,0,1-.09-.65,5.2,5.2,0,0,0,.27.58,2.71,2.71,0,0,0,1.13,1.19,2.29,2.29,0,0,0,2.29,0,2.43,2.43,0,0,0-.41-4.52,2.35,2.35,0,0,0-2.25.48,2.9,2.9,0,0,0-.9,1.33A5.36,5.36,0,0,1,497.82,113.09Z"/><path class="cls-1" d="M457.88,103.45a1.2,1.2,0,0,1,0-.65,2.8,2.8,0,0,1,.85-1.59,2.67,2.67,0,0,1,2.66-.65,2.82,2.82,0,0,1,.48,5.33,2.69,2.69,0,0,1-2.66-.16,2.77,2.77,0,0,1-1.13-1.33,1.1,1.1,0,0,1-.1-.66,6.21,6.21,0,0,1,.26.59,2.86,2.86,0,0,0,1.13,1.18,2.3,2.3,0,0,0,2.3,0A2.65,2.65,0,0,0,463,103.1a2.56,2.56,0,0,0-1.78-2.1,2.32,2.32,0,0,0-2.24.48,2.71,2.71,0,0,0-.9,1.33C457.92,103.22,457.92,103.45,457.88,103.45Z"/><path class="cls-1" d="M440.1,99.08c.08-.09,7.69,4.1,17,9.32s16.81,9.66,16.73,9.77-7.7-4.1-17-9.33S440,99.23,440.1,99.08Z"/><g class="cls-6"><path class="cls-5" d="M501.86,176.88s-31-20.94-46.75-30c5.42,7.76,11.66,16.58,19.19,22.33A39.53,39.53,0,0,0,501.86,176.88Z"/></g><circle class="cls-2" cx="426.19" cy="77.02" r="26.26"/><path class="cls-1" d="M452.44,78.53a3.08,3.08,0,0,1,0-.43V76.85a11.42,11.42,0,0,0-.12-2,19.32,19.32,0,0,0-.4-2.73A25.55,25.55,0,0,0,449.39,65,26.07,26.07,0,0,0,418.84,52.2a24.07,24.07,0,0,0-6.75,3.16A28,28,0,0,0,409,57.69a29.9,29.9,0,0,0-2.66,2.85,25.83,25.83,0,0,0-1.75,30.63,30.48,30.48,0,0,0,2.29,3.12,28.14,28.14,0,0,0,2.8,2.66,24.74,24.74,0,0,0,6.35,3.92,26,26,0,0,0,31.75-9.27,25.16,25.16,0,0,0,3.32-6.76,20.49,20.49,0,0,0,.72-2.66,13.5,13.5,0,0,0,.35-2c.06-.5.12-.92.17-1.24a1.42,1.42,0,0,1,.08-.41,3.08,3.08,0,0,1,0,.43c0,.32-.07.73-.11,1.24a11.55,11.55,0,0,1-.28,2,20.26,20.26,0,0,1-.66,2.66,24.67,24.67,0,0,1-3.2,6.93,26.46,26.46,0,0,1-18.5,11.55,26.73,26.73,0,0,1-13.88-1.91A26.88,26.88,0,0,1,404,91.5,25.75,25.75,0,0,1,400.56,84a28.41,28.41,0,0,1-.89-8.47,26.62,26.62,0,0,1,6.08-15.39,25.68,25.68,0,0,1,2.78-2.93,31.94,31.94,0,0,1,3.16-2.39,25.21,25.21,0,0,1,6.92-3.21A26.41,26.41,0,0,1,449.7,64.83,25.26,25.26,0,0,1,452.18,72a17.32,17.32,0,0,1,.34,2.77,12.65,12.65,0,0,1,.07,2V78.1A1.69,1.69,0,0,1,452.44,78.53Z"/><path class="cls-1" d="M351.35,28.24c0-.09.11-.17.17-.26a3.91,3.91,0,0,1,.6-.69,10.19,10.19,0,0,1,3.07-1.88A42.11,42.11,0,0,1,368.85,23,130.65,130.65,0,0,1,391,24.22a204.69,204.69,0,0,1,28.89,5.91q7.91,2.27,16.39,5.33a185.09,185.09,0,0,1,17.32,7.31,182.92,182.92,0,0,1,17.63,9.83l18.09,11.57,81.44,52.23.3.18-.19.3c-7.6,11.84-15.57,24.25-23.67,36.9s-16.09,25.06-23.69,36.91l-.17.29-.3-.18-81.47-52.25-18.06-11.62-8.58-5.54c-2.81-1.89-5.4-4-8-6a189.85,189.85,0,0,1-25.42-25.45,229,229,0,0,1-17-24.15,148.34,148.34,0,0,1-10.32-19.56,43,43,0,0,1-3.74-13.32,9.81,9.81,0,0,1,.39-3.57,3.74,3.74,0,0,1,.38-.84c.05-.09.1-.18.16-.27a5.81,5.81,0,0,0-.48,1.12,10.14,10.14,0,0,0-.32,3.55,43.7,43.7,0,0,0,3.84,13.32,150.26,150.26,0,0,0,10.4,19.47,232.76,232.76,0,0,0,17,24A190.58,190.58,0,0,0,407.26,115c2.51,2,5.12,4.1,7.89,6l8.63,5.53L441.85,138l81.49,52.21-.48.1,23.68-36.9,23.67-36.91.1.48L488.9,64.73,470.82,53.14a186.12,186.12,0,0,0-17.55-9.84c-5.82-2.85-11.6-5.23-17.22-7.32S425,32.07,419.7,30.57a206.1,206.1,0,0,0-28.79-6,132,132,0,0,0-22-1.34,42.68,42.68,0,0,0-13.63,2.27,10,10,0,0,0-3.07,1.8A8.11,8.11,0,0,0,351.35,28.24Z"/></g><g id="freepik--search-bar--inject-12"><path class="cls-2" d="M458.9,329.73H227.59a27.35,27.35,0,0,1-27.34-27.35h0A27.34,27.34,0,0,1,227.59,275H458.9a27.35,27.35,0,0,1,27.35,27.34h0A27.36,27.36,0,0,1,458.9,329.73Z"/><path class="cls-1" d="M451.84,274.46a91.44,91.44,0,0,1,10.52.27,26.93,26.93,0,0,1,9.53,3,27.92,27.92,0,0,1,12.21,13.32,29.13,29.13,0,0,1,2.12,8c.07.66.07,1.33.11,2V303c0,.64-.07,1.34-.1,1.91a18,18,0,0,1-.29,1.84l-.13.9-.23.88c-.16.59-.31,1.16-.45,1.72-.44,1.09-.74,2.21-1.26,3.21a22.87,22.87,0,0,1-1.54,2.89,21.34,21.34,0,0,1-1.77,2.54,26.85,26.85,0,0,1-8,7,19.57,19.57,0,0,1-2,1l-1,.46-.93.34c-.62.23-1.2.46-1.77.63l-1.63.41a19.57,19.57,0,0,1-2.75.5,14.85,14.85,0,0,1-2,.17l-1.64.35,1.63-.12a13.16,13.16,0,0,0,2-.2,23.21,23.21,0,0,0,2.74-.52l1.62-.43c.56-.19,1.13-.41,1.74-.64l.94-.35.94-.46a15.9,15.9,0,0,0,2-1,26.81,26.81,0,0,0,7.93-7,21.11,21.11,0,0,0,1.74-2.54,23.77,23.77,0,0,0,1.51-2.87,31.91,31.91,0,0,0,1.22-3.17c.15-.56.29-1.12.44-1.7l.23-.87.13-.89.28-1.82.08-1.87v-1.92a10.65,10.65,0,0,0-.12-2,28.74,28.74,0,0,0-2.12-7.88,27.6,27.6,0,0,0-12.07-13.07,27.12,27.12,0,0,0-9.32-3c-3.35-.37-6.88-.18-10.47-.22l-224.27.1a30.48,30.48,0,0,0-8,1.19,27.6,27.6,0,0,0-13.05,8.8,28,28,0,0,0-4,6.81,28.53,28.53,0,0,0-1.87,7.62,29.27,29.27,0,0,0,.4,7.76,27,27,0,0,0,20,20.95,28.53,28.53,0,0,0,3.67.67c1.25,0,2.48.17,3.74.15h36.63l100.84.08,67.93.1,18.48.07H434L366,329.7l-100.84.07H228.56c-1.25,0-2.54-.1-3.8-.15a30.08,30.08,0,0,1-3.77-.68,27.47,27.47,0,0,1-13.32-7.65,28.86,28.86,0,0,1-4.61-6.36,29.68,29.68,0,0,1-2.67-7.46,30.13,30.13,0,0,1-.39-8,27.65,27.65,0,0,1,19.4-23.88,30.49,30.49,0,0,1,8.17-1.23"/><circle class="cls-2" cx="448.41" cy="300.89" r="12.17" transform="translate(-81.42 405.21) rotate(-45)"/><path class="cls-1" d="M448.41,313.72a12.84,12.84,0,1,1,12.82-12.86v0A12.84,12.84,0,0,1,448.41,313.72Zm0-24.34A11.51,11.51,0,1,0,459.9,300.9h0a11.51,11.51,0,0,0-11.49-11.51Z"/><rect class="cls-1" x="462.71" y="305.24" width="1.33" height="12.19" transform="translate(-47.27 536.91) rotate(-57.73)"/></g><g id="freepik--Text--inject-12"><path class="cls-8" d="M238.66,306.86l1-2.24a7.48,7.48,0,0,0,4.22,1.33c1.75,0,2.47-.57,2.47-1.33,0-2.4-7.44-.76-7.44-5.5,0-2.17,1.76-4,5.33-4a8.63,8.63,0,0,1,4.44,1.12l-.91,2.25a7.21,7.21,0,0,0-3.54-1c-1.76,0-2.43.66-2.43,1.46,0,2.35,7.42.73,7.42,5.42,0,2.14-1.77,4-5.42,4A9.21,9.21,0,0,1,238.66,306.86Z"/><path class="cls-8" d="M260.66,304h-7.43a2.67,2.67,0,0,0,2.81,2,3.34,3.34,0,0,0,2.47-.95l1.51,1.64a5.11,5.11,0,0,1-4,1.59c-3.4,0-5.61-2.14-5.61-5.05a5,5,0,0,1,5-5.07h.3a4.84,4.84,0,0,1,5.1,4.58,4.17,4.17,0,0,1,0,.5A6.66,6.66,0,0,0,260.66,304Zm-7.46-1.67H258a2.45,2.45,0,0,0-4.84,0Z"/><path class="cls-8" d="M271,302.46v5.61h-2.67v-1.21a3.24,3.24,0,0,1-3,1.33c-2.29,0-3.66-1.33-3.66-3s1.22-3,4.2-3h2.27c0-1.22-.73-1.93-2.27-1.93a4.7,4.7,0,0,0-2.82.91l-1-2a7.58,7.58,0,0,1,4.24-1.18C269.29,298.11,271,299.49,271,302.46ZM268.19,305v-1h-1.95c-1.33,0-1.75.49-1.75,1.14s.59,1.19,1.61,1.19a2.09,2.09,0,0,0,2.07-1.33Z"/><path class="cls-8" d="M279.7,298.11v2.66h-.64a2.41,2.41,0,0,0-2.67,2.12,2.08,2.08,0,0,0,0,.61v4.64h-2.85v-9.82h2.67v1.33A4,4,0,0,1,279.7,298.11Z"/><path class="cls-8" d="M280.56,303.17a5.07,5.07,0,0,1,5.07-5.08l.41,0a4.48,4.48,0,0,1,4.39,2.5l-2.2,1.19a2.47,2.47,0,0,0-2.21-1.34,2.73,2.73,0,0,0,0,5.45,2.41,2.41,0,0,0,2.21-1.33l2.2,1.21a4.53,4.53,0,0,1-4.39,2.48,5.08,5.08,0,0,1-5.46-4.66C280.57,303.46,280.56,303.31,280.56,303.17Z"/><path class="cls-8" d="M302,302.45v5.62h-2.85v-5.21c0-1.58-.73-2.32-2-2.32s-2.35.84-2.35,2.67v4.85H292V294.52h2.85v4.76a4.25,4.25,0,0,1,3.12-1.17C300.34,298.11,302,299.45,302,302.45Z"/><path class="cls-8" d="M303.91,306.43a1.77,1.77,0,1,1,1.77,1.77A1.77,1.77,0,0,1,303.91,306.43Z"/><path class="cls-8" d="M308.69,306.43a1.77,1.77,0,1,1,1.77,1.77A1.77,1.77,0,0,1,308.69,306.43Z"/><path class="cls-8" d="M313.47,306.43a1.78,1.78,0,1,1,1.77,1.77A1.77,1.77,0,0,1,313.47,306.43Z"/></g><g id="freepik--Document--inject-12"><path class="cls-9" d="M151.06,113.84,108.12,91.2A6.07,6.07,0,0,1,105.58,83v0L137,23.51A6.1,6.1,0,0,1,145.19,21l27.29,14.38,9.6,32.86-22.8,43.08A6.1,6.1,0,0,1,151.06,113.84Z"/><g class="cls-6"><path class="cls-2" d="M172.48,35.35l-8.85,16.73A5.67,5.67,0,0,0,166,59.72l16.09,8.49Z"/></g><g class="cls-10"><path d="M163,53.66a6.29,6.29,0,0,0,1.55,7.73l.47.39C167,63.27,179.48,73,179.71,72.71s2.37-4.5,2.37-4.5L166,59.72S162,57.46,163,53.66Z"/></g><path class="cls-11" d="M160.34,49.5c-.11.21-4.64-2-10.13-4.87s-9.84-5.4-9.7-5.63,4.66,2,10.15,4.86S160.49,49.28,160.34,49.5Z"/><path class="cls-11" d="M168.18,65.78c-.11.22-7.53-3.47-16.56-8.24s-16.25-8.86-16.14-9.07S143,52,152,56.71,168.3,65.52,168.18,65.78Z"/><path class="cls-11" d="M167,75.19c-.11.21-8.18-3.83-18-9s-17.74-9.58-17.62-9.79,8.19,3.82,18,9S167.07,75,167,75.19Z"/><path class="cls-11" d="M163,82.63c-.12.22-8.19-3.82-18-9S127.26,64,127.38,63.81s8.18,3.83,18,9S163.16,82.42,163,82.63Z"/><path class="cls-11" d="M159.08,90.09c-.11.21-8.18-3.82-18-9s-17.73-9.58-17.62-9.79,8.19,3.84,18,9S159.16,89.88,159.08,90.09Z"/><path class="cls-11" d="M155.16,97.54c-.12.21-8.19-3.83-18-9s-17.74-9.59-17.62-9.8,8.18,3.82,18,9S155.27,97.32,155.16,97.54Z"/></g><g id="freepik--Folders--inject-12"><path class="cls-12" d="M362.73,560.74a6.92,6.92,0,0,1-5.88-7.83l8.57-59.59a5.75,5.75,0,0,1,6.66-4.65l5.59.82a6,6,0,0,0,5.78-2.43l1.56-2.28a6,6,0,0,1,5.78-2.42l26.64,3.82a6,6,0,0,1,4.66,3.43l1,2.26a6,6,0,0,0,4.65,3.42l33.9,4.88a5.74,5.74,0,0,1,5.07,6.32L458,567.43a6.92,6.92,0,0,1-7.83,5.86h0Z"/><g class="cls-6"><path d="M362.73,560.74a6.92,6.92,0,0,1-5.88-7.83l8.57-59.59a5.75,5.75,0,0,1,6.66-4.65l5.59.82a6,6,0,0,0,5.78-2.43l1.56-2.28a6,6,0,0,1,5.78-2.42l26.64,3.82a6,6,0,0,1,4.66,3.43l1,2.26a6,6,0,0,0,4.65,3.42l33.9,4.88a5.74,5.74,0,0,1,5.07,6.32L458,567.43a6.92,6.92,0,0,1-7.83,5.86h0Z"/></g><path class="cls-5" d="M424.35,494.83l-21.55-3.16-1.41-3.88a7.54,7.54,0,0,0-6.05-4.76l-21.07-3a6.67,6.67,0,0,0-7.71,5.33l-.34,2.46-9.33,64.69a7.58,7.58,0,0,0,6.66,8.34l85.66,12.42a7.58,7.58,0,0,0,8.75-6.12L466.75,506a5,5,0,0,0-4.19-5.64h0Z"/><rect class="cls-2" x="403.81" y="502.73" width="21.66" height="51.48" transform="translate(-167.44 863.7) rotate(-81.82)"/><path class="cls-1" d="M432.42,529.75c0,.19-7.88-.79-17.55-2.17s-17.49-2.67-17.45-2.87,7.89.79,17.56,2.18S432.45,529.56,432.42,529.75Z"/><path class="cls-1" d="M431.77,534.32c0,.18-7.88-.79-17.55-2.17s-17.49-2.67-17.46-2.87,7.88.79,17.55,2.17S431.8,534.13,431.77,534.32Z"/><path class="cls-9" d="M517.35,534.26a4.55,4.55,0,0,1-5.87-2.65h0l-14.12-36.89a3.77,3.77,0,0,1,2.32-4.78h0l3.47-1.34a4,4,0,0,0,2.54-3.23l.16-1.8a3.92,3.92,0,0,1,2.55-3.24L524.86,474a4,4,0,0,1,3.77.48l1.33,1a4,4,0,0,0,3.75.48l21-8a3.79,3.79,0,0,1,4.95,2l14.43,37.73a4.53,4.53,0,0,1-2.62,5.86l0,0Z"/><g class="cls-6"><path d="M517.35,534.26a4.55,4.55,0,0,1-5.87-2.65h0l-14.12-36.89a3.77,3.77,0,0,1,2.32-4.78h0l3.47-1.34a4,4,0,0,0,2.54-3.23l.16-1.8a3.92,3.92,0,0,1,2.55-3.24L524.86,474a4,4,0,0,1,3.77.48l1.33,1a4,4,0,0,0,3.75.48l21-8a3.79,3.79,0,0,1,4.95,2l14.43,37.73a4.53,4.53,0,0,1-2.62,5.86l0,0Z"/></g><path class="cls-5" d="M531.62,476.77l-13.32,5.08-2-1.77a4.9,4.9,0,0,0-5-.8l-13,5a4.36,4.36,0,0,0-2.66,5.55l.58,1.52,15.33,40.06a5,5,0,0,0,6.5,2.67l53-20.3a5,5,0,0,0,3.08-6.31l-14.49-37.86a3.28,3.28,0,0,0-4.24-1.87Z"/><rect class="cls-2" x="519.91" y="492.02" width="33.79" height="14.21" transform="translate(-142.98 224.93) rotate(-20.95)"/><path class="cls-1" d="M547.41,494.21a94.13,94.13,0,0,1-10.73,4.48,94.11,94.11,0,0,1-11,3.82A100.43,100.43,0,0,1,536.38,498,97.84,97.84,0,0,1,547.41,494.21Z"/><path class="cls-1" d="M548.48,497.05a100.2,100.2,0,0,1-10.65,4.46,96.36,96.36,0,0,1-11.07,3.8,179.27,179.27,0,0,1,21.72-8.26Z"/></g><g id="freepik--Character--inject-12"><path class="cls-9" d="M172.08,578.08l-.81,38.73,51,1.2c-.17-4.61-26.3-14.47-26.3-14.47l1.59-24.79Z"/><g class="cls-13"><path class="cls-2" d="M180.23,601.08a1.87,1.87,0,1,0,.81,3.64,1.88,1.88,0,1,0-.49-3.72,1.75,1.75,0,0,0-.51.14"/></g><g class="cls-13"><path class="cls-2" d="M171.27,616.81l.25-3.9,48.79,2.67s2.23,1,1.94,2.49Z"/></g><path class="cls-1" d="M196.77,603.31c0,.24-1.25.32-2.5,1.05s-1.92,1.69-2.15,1.6.18-1.45,1.71-2.3S196.84,603.1,196.77,603.31Z"/><path class="cls-1" d="M202.07,605.53c0,.23-1,.6-1.91,1.58s-1.15,2-1.34,2-.37-1.34.74-2.55S202.07,605.31,202.07,605.53Z"/><path class="cls-1" d="M205,611.65c-.23,0-.55-1.14.12-2.41s1.85-1.76,2-1.56-.64.86-1.17,1.92S205.19,611.63,205,611.65Z"/><path class="cls-1" d="M196.45,597.62c-.1.22-1.25-.13-2.66-.08s-2.52.45-2.67.26,1-1,2.67-1.07S196.6,597.45,196.45,597.62Z"/><path class="cls-1" d="M195.41,591.88a4.9,4.9,0,0,1-2.55-.07,12,12,0,0,1-2.67-.83,14.37,14.37,0,0,1-1.44-.78,3,3,0,0,1-.75-.58,1,1,0,0,1-.08-1.25,1.29,1.29,0,0,1,1.1-.52,3.41,3.41,0,0,1,.95.14,9.89,9.89,0,0,1,1.58.56,9.06,9.06,0,0,1,2.31,1.52c1.15,1,1.54,1.94,1.45,2s-.67-.66-1.85-1.55a10.58,10.58,0,0,0-2.24-1.27,12.47,12.47,0,0,0-1.47-.45c-.53-.15-1-.16-1.13,0s0,.12,0,.28a2.51,2.51,0,0,0,.55.42,13.43,13.43,0,0,0,1.33.76,13.22,13.22,0,0,0,2.45,1A17.25,17.25,0,0,1,195.41,591.88Z"/><path class="cls-1" d="M195.12,592.21a3.66,3.66,0,0,1-.61-2.34,7.26,7.26,0,0,1,.41-2.66,7.8,7.8,0,0,1,.69-1.46,2.15,2.15,0,0,1,1.67-1.18,1.21,1.21,0,0,1,1.05.71,2.72,2.72,0,0,1,.23.89,5.5,5.5,0,0,1,0,1.62,5.56,5.56,0,0,1-1.15,2.47,3.43,3.43,0,0,1-2.1,1.4,10.77,10.77,0,0,0,1.6-1.74,5.47,5.47,0,0,0,.86-2.25,4.69,4.69,0,0,0,0-1.4c0-.5-.25-.93-.45-.87a1.74,1.74,0,0,0-.92.77,8.28,8.28,0,0,0-.67,1.33,8.56,8.56,0,0,0-.56,2.4A17.8,17.8,0,0,0,195.12,592.21Z"/><path class="cls-9" d="M133.44,581.31l-4.91,38.42-50.62-6.29c.86-4.52,28.15-10.45,28.15-10.45l2-24.76Z"/><g class="cls-13"><path class="cls-2" d="M122,602.86a2,2,0,0,1,1.16,2.41,2,2,0,0,1-2.49,1.06,2.05,2.05,0,0,1-1.21-2.55,2.11,2.11,0,0,1,2.66-.84"/></g><g class="cls-13"><path class="cls-2" d="M128.53,619.73l.33-3.9-48.64-4.56s-2.31.59-2.31,2.17Z"/></g><path class="cls-1" d="M105.32,602.64c0,.24,1.2.5,2.34,1.4s1.65,2,1.89,1.89,0-1.45-1.34-2.51S105.3,602.42,105.32,602.64Z"/><path class="cls-1" d="M99.77,604.06c-.09.22.93.75,1.65,1.85s.84,2.15,1.08,2.18.57-1.33-.35-2.66S99.8,603.87,99.77,604.06Z"/><path class="cls-1" d="M96,609.69c.21.08.69-1,.21-2.4s-1.57-2-1.69-1.84.51,1,.88,2.08S95.77,609.64,96,609.69Z"/><path class="cls-1" d="M106.46,597.06c.08.23,1.25,0,2.66.31s2.42.81,2.57.62-.78-1.14-2.42-1.43S106.35,596.86,106.46,597.06Z"/><path class="cls-1" d="M108.35,591.54a5.06,5.06,0,0,0,2.53.29,11,11,0,0,0,2.74-.44,10.57,10.57,0,0,0,1.55-.55,3.44,3.44,0,0,0,.84-.46,1,1,0,0,0,.26-1.23,1.43,1.43,0,0,0-1-.68,3.86,3.86,0,0,0-1,0,9,9,0,0,0-1.64.32,8.86,8.86,0,0,0-2.52,1.16c-1.33.88-1.8,1.71-1.72,1.76s.76-.57,2.06-1.27a9.75,9.75,0,0,1,3.91-1.17c.56-.07,1,0,1.12.23s0,.13-.09.26a2.5,2.5,0,0,1-.62.34,11.64,11.64,0,0,1-1.42.56,14.83,14.83,0,0,1-2.56.58A16.87,16.87,0,0,0,108.35,591.54Z"/><path class="cls-1" d="M108.63,591.88a3.73,3.73,0,0,0,.94-2.24,7.43,7.43,0,0,0,0-2.66,6.75,6.75,0,0,0-.46-1.53,2.11,2.11,0,0,0-1.47-1.41,1.2,1.2,0,0,0-1.14.53,3.34,3.34,0,0,0-.36.85,4.63,4.63,0,0,0-.2,1.61,5.27,5.27,0,0,0,.77,2.67c.84,1.33,1.84,1.77,1.88,1.69a10.9,10.9,0,0,1-1.33-1.95,5.31,5.31,0,0,1-.52-2.35,4.36,4.36,0,0,1,.21-1.34c.13-.5.39-.89.59-.81a1.85,1.85,0,0,1,.78.89,7.92,7.92,0,0,1,.48,1.34,8.77,8.77,0,0,1,.2,2.45C108.87,591,108.55,591.88,108.63,591.88Z"/><path class="cls-1" d="M211.62,372.53l-79.36,2.55s-18.72,124.9-18.2,133.6l-11.53,90.57,33.56,1.18s5.33-29.39,9-49.5c2.46-13.32,6.93-33,8.14-44.18S174,417.51,174,417.51s-1.45,90.57-1.42,94.3-3.88,88.52-3.88,88.52H202c1.72-15.31,5.81-76.55,6.66-88.92,1.6-22.35,6.66-85.48,7.34-101.61S211.62,372.53,211.62,372.53Z"/><path class="cls-12" d="M206.39,373.14a14.67,14.67,0,0,1,0-5.68A13.93,13.93,0,0,1,206.39,373.14Z"/><path class="cls-12" d="M209.69,374.65a10.79,10.79,0,0,1,.6-7.19,27.1,27.1,0,0,1-.35,3.59A25.42,25.42,0,0,1,209.69,374.65Z"/><path class="cls-12" d="M180,368.7a3.11,3.11,0,0,0-1.67.94,2.27,2.27,0,0,0-.55,1.88,2.18,2.18,0,0,0,2.7,1.47,2.2,2.2,0,0,0,1.1-.75,2.38,2.38,0,0,0,.18-1.95,3,3,0,0,0-1.22-1.49,1.54,1.54,0,0,1,.56.15,2.33,2.33,0,0,1,1,1.2,2.57,2.57,0,1,1-4.11-.79,2.47,2.47,0,0,1,1.41-.73C179.84,368.59,180,368.67,180,368.7Z"/><path class="cls-12" d="M143.46,506.53a69.47,69.47,0,0,1-8.5-3.18,69.93,69.93,0,0,1-8.29-3.72,73.28,73.28,0,0,1,8.52,3.19A72,72,0,0,1,143.46,506.53Z"/><path class="cls-1" d="M139.18,184.8c.25-4.62,3.1-7.47,7.09-9.83a14.43,14.43,0,0,1,13.32-.6c2.79,1.34,5.24,3.6,8.31,4,5.06.65,9.84-4,14.79-2.86a6.58,6.58,0,0,1-.48,12.89c3.32.48,5.19,4.67,4,7.78s-4.69,4.92-8,5a18.39,18.39,0,0,1-9.46-3c-2.89-1.68-5.59-3.7-8.61-5.14a14.37,14.37,0,0,0-9.71-1.43c-4.39,1.16-7.49,5.33-8.62,9.67s-.65,9,0,13.5,1.54,9,1.12,13.5a1.68,1.68,0,0,1-.64,1.33c-.67.38-1.44-.25-1.93-.84a66.25,66.25,0,0,1-12.5-22.64c-1.53-4.79-2.37-9.47-.54-14.16s8-9.15,11.9-7.24"/><path class="cls-14" d="M134.88,207.12l7.39,45.65c1.33,8.52,6.93,16.77,20.3,14h0c11.43-3.3,10.57-11.52,9.08-21.66h0s12.58-3.26,11.44-16.05c-.53-6.18-2.66-18.8-4.78-30.2a23.88,23.88,0,0,0-25.89-19.46l-1.24.12C138,181.66,132.4,194,134.88,207.12Z"/><path class="cls-15" d="M171.65,245.08a31,31,0,0,1-17.1-3.23s5,9.48,17.62,7.06Z"/><path class="cls-1" d="M175.81,210a1.82,1.82,0,0,1-1.57,2,1.73,1.73,0,0,1-2-1.37s0,0,0-.08a1.82,1.82,0,0,1,1.57-2,1.74,1.74,0,0,1,2,1.4Z"/><path class="cls-1" d="M176.21,205.37c-.2.26-1.69-.63-3.65-.42s-3.3,1.34-3.54,1.11.08-.55.65-1.07a5,5,0,0,1,2.81-1.18,4.7,4.7,0,0,1,2.93.64C176.06,204.85,176.3,205.25,176.21,205.37Z"/><path class="cls-1" d="M158,212.82a1.84,1.84,0,0,1-1.57,2,1.74,1.74,0,0,1-2-1.38s0-.05,0-.08a1.83,1.83,0,0,1,1.57-2,1.75,1.75,0,0,1,2,1.41Z"/><path class="cls-1" d="M157.33,207.67c-.21.25-1.69-.63-3.64-.43s-3.31,1.34-3.55,1.12.08-.54.66-1.06a5,5,0,0,1,2.81-1.19,4.79,4.79,0,0,1,2.93.63C157.19,207.14,157.43,207.55,157.33,207.67Z"/><path class="cls-1" d="M165.54,221.51a12.63,12.63,0,0,1,3.13-.91c.49-.09,1-.24,1-.6a2.62,2.62,0,0,0-.48-1.45q-.9-1.74-1.86-3.66c-2.67-5.22-4.54-9.54-4.33-9.64a68.36,68.36,0,0,1,5.09,9.32l1.81,3.7a2.94,2.94,0,0,1,.45,1.93,1.25,1.25,0,0,1-.75.83,4.78,4.78,0,0,1-.83.2A13.57,13.57,0,0,1,165.54,221.51Z"/><path class="cls-1" d="M156.7,199.93c-.14.56-2.12.51-4.4,1s-4.08,1.34-4.42.88c-.16-.22.1-.76.81-1.33a7.88,7.88,0,0,1,6.66-1.44C156.28,199.29,156.75,199.68,156.7,199.93Z"/><path class="cls-1" d="M174.92,199.76c-.31.49-1.71.16-3.33.31s-3,.59-3.33.16c-.16-.22,0-.68.57-1.16a4.84,4.84,0,0,1,5.33-.38C174.81,199.09,175.05,199.53,174.92,199.76Z"/><path class="cls-14" d="M136.86,216.47c-.22-.08-9-1.71-7.87,7s9.66,5.76,9.63,5.5S136.86,216.47,136.86,216.47Z"/><path class="cls-15" d="M135.53,226a3.27,3.27,0,0,1-.37.28,1.54,1.54,0,0,1-1.13.17,3.79,3.79,0,0,1-2.19-3.14,4.91,4.91,0,0,1,.14-2.22,1.73,1.73,0,0,1,1-1.34.76.76,0,0,1,.95.3c.16.22.12.41.17.41s.16-.17,0-.52a.9.9,0,0,0-.41-.49,1.16,1.16,0,0,0-.87-.12,2.15,2.15,0,0,0-1.33,1.56,5.17,5.17,0,0,0-.2,2.5,4,4,0,0,0,2.66,3.46,1.64,1.64,0,0,0,1.34-.42C135.55,226.22,135.56,226,135.53,226Z"/><path class="cls-1" d="M177.27,187a16.59,16.59,0,0,0-6-5.64,28.65,28.65,0,0,0-17.07-4.25,23.28,23.28,0,0,0-15.62,7.78,24.46,24.46,0,0,0-5.48,13,36.22,36.22,0,0,0,1.33,14.16,10.75,10.75,0,0,0,3,5.45c1,.85,2.66,1.33,3.55.43a3.54,3.54,0,0,0,.82-2.12c1-6.9,1.93-14.32-1.19-20.55a20.13,20.13,0,0,1,5.45-6.13,10.38,10.38,0,0,1,7.82-1.88c4,.8,6.79,4.34,10.16,6.66a18.51,18.51,0,0,0,16.74,2Z"/><path class="cls-15" d="M167.27,226.8a8.65,8.65,0,0,1-.65,2.39,3,3,0,0,1-1.8,1.63,2.69,2.69,0,0,1-2.44-.73,4.3,4.3,0,0,1-1.12-2.36c-.13-.8,0-1.8.79-2.07a2.36,2.36,0,0,1,1,0l4.44.82"/><path class="cls-1" d="M166.34,230.51a6.27,6.27,0,0,1-2.24.19,3.17,3.17,0,0,1-2-1.16,3.33,3.33,0,0,1-.61-2.66,2.28,2.28,0,0,1,.23-.68c.12-.22.09-.2.28-.2a4.27,4.27,0,0,1,.7.12l.73.13,2.54.43a8.07,8.07,0,0,0,2.35.2,6.81,6.81,0,0,0-2.25-.72c-.72-.19-1.56-.38-2.5-.59l-.72-.16c-.27,0-.47-.12-.81-.15a1.12,1.12,0,0,0-.62.15,1.46,1.46,0,0,0-.37.45,3.42,3.42,0,0,0-.29.87,3.85,3.85,0,0,0,.81,3.25,3.56,3.56,0,0,0,2.42,1.24,3.34,3.34,0,0,0,1.79-.28C166.21,230.73,166.37,230.55,166.34,230.51Z"/><path class="cls-14" d="M198.77,208l2.06-.56L233,238.7l26.08,3.15S258.79,234,249,223.93c-8.79-9-29.24-19.63-36.17-25.14a10.56,10.56,0,0,0-3-1.79Z"/><path class="cls-14" d="M198.76,193.17l-3.29-.94-7.75-3.67-8.82,3.29s.2,3,2.52,2.18l-9.25,3.05s.76,2.2,1.17,2.35-5.42.62-5.42.62,0,3,5.53,2.92,7.67-1,7.67-1l4.44,1.19-.18,2.66-6-.09.28,3.38a72.7,72.7,0,0,0,7.78,1.2s9.32.13,11.85-1.09,5.75-3,5.75-3l4.84-9.22Z"/><path class="cls-15" d="M190.43,194.72c0,.08-.52-.17-1.33-.54a21.85,21.85,0,0,1-3.13-1.67h.4l-.36.23a8.94,8.94,0,0,1-3.64,1.33,4.77,4.77,0,0,1-1.59,0,19.83,19.83,0,0,0,4.87-1.86L186,192l.2-.13.2.15c1.08.74,2.21,1.33,3,1.8S190.5,194.66,190.43,194.72Z"/><path class="cls-15" d="M187.6,199.43a2.21,2.21,0,0,1-1.5-.18c-.89-.38-1.89-1.33-3.15-1.86h.32a13.7,13.7,0,0,1-1.79,1,12.65,12.65,0,0,1-5,1.23,4.54,4.54,0,0,1-2.1-.23,22.77,22.77,0,0,0,6.79-1.63,13.37,13.37,0,0,0,1.7-.94l.18-.09h.14c1.44.73,2.28,1.7,3.07,2.1S187.6,199.32,187.6,199.43Z"/><path class="cls-15" d="M195.85,202.32c0,.1-.68-.1-1.73-.08a7.14,7.14,0,0,0-3.83,1.16,6.42,6.42,0,0,0-1.91,1.87l-.08.12h-.12a9.9,9.9,0,0,1-3.16.39,10.19,10.19,0,0,1,3-1l-.2.13a6.24,6.24,0,0,1,2-2.14,6.61,6.61,0,0,1,4.24-1.07C195.28,201.86,195.89,202.25,195.85,202.32Z"/><path class="cls-7" d="M209.84,197l-11.08-3.83-3.29-.94-7.75-3.67-8.82,3.29s.2,3,2.52,2.18l-9.25,3.05s.76,2.2,1.17,2.35-5.42.62-5.42.62,0,3,5.53,2.92,7.67-1,7.67-1l4.44,1.19-.18,2.66-5.75-.25.6,3.73a61.84,61.84,0,0,0,7.17,1s9.32.13,11.85-1.09,5.75-3,5.75-3"/><path class="cls-15" d="M205,206.22a1.06,1.06,0,0,1-.26.17l-.84.48-3.23,1.75a10.82,10.82,0,0,1-2.43,1.09,22.17,22.17,0,0,1-3.13.5c-2.27.23-4.85.32-7.71.32h0l-3.48-.36a21.37,21.37,0,0,1-3.81-.65H180v-.17c-.19-1.16-.39-2.43-.6-3.72l-.07-.37h.37l5.76.24-.35.29c0-.81.12-1.72.17-2.66l.26.35-4.45-1.19h.23a23.17,23.17,0,0,1-6.66,1,15.29,15.29,0,0,1-3.51-.17,4.52,4.52,0,0,1-3.15-1.92,2.71,2.71,0,0,1-.35-1.14v-.31H168c1.34-.12,2.76-.24,4.11-.39l1-.13h.21v.07a.28.28,0,0,0-.08.29c0,.12.24.28.19.23a.77.77,0,0,1-.21-.14,1.92,1.92,0,0,1-.36-.5,15.5,15.5,0,0,1-.8-1.89l-.12-.34.33-.1,9.33-3,.21.61a2.35,2.35,0,0,1-1.17.13,1.74,1.74,0,0,1-1-.59,3.63,3.63,0,0,1-.75-2v-.22l.24-.1,8.83-3.25h.21l7.74,3.72h0l3.24.93,2.82,1,4.48,1.63,2.81,1a5,5,0,0,1,1,.4c-.34-.08-.67-.17-1-.28l-2.85-.92-4.52-1.51-2.82-.94-3.25-.88h0l-7.78-3.64h.23l-8.82,3.32.21-.32a3.15,3.15,0,0,0,.6,1.64,1.34,1.34,0,0,0,1.5.26l.21.63-9.23,3.06.21-.44a12.82,12.82,0,0,0,.76,1.79,1.85,1.85,0,0,0,.21.33h0a.8.8,0,0,0-.08.16h0c.14-.35,0-.09.1-.16h.09a.37.37,0,0,1,.12.2.34.34,0,0,1-.09.32c-.11.11-.08.07-.11.08h-.4l-1,.13c-1.34.16-2.67.28-4.12.4l.31-.33a1.93,1.93,0,0,0,.25.78,3.82,3.82,0,0,0,2.66,1.59,15.12,15.12,0,0,0,3.36.16,23.22,23.22,0,0,0,6.41-.93h.22l4.44,1.2h.26v.26c0,.92-.12,1.83-.17,2.67v.32h-.32l-5.74-.27.32-.36c.2,1.33.4,2.57.57,3.73l-.16-.21a26,26,0,0,0,3.63.62l3.45.39h0c2.83,0,5.4,0,7.65-.22a23,23,0,0,0,3.09-.42,10.8,10.8,0,0,0,2.4-1l3.28-1.63.86-.4C204.9,206.25,205,206.21,205,206.22Z"/><path class="cls-15" d="M193.87,196.19a10.35,10.35,0,0,1-3.42,3.48,10.48,10.48,0,0,1-4.41,2.1c-.08-.19,1.86-1.13,4-2.66S193.71,196.06,193.87,196.19Z"/><path class="cls-9" d="M258.77,240.87,233,238.7l-30.42,11.58-6.66,4.07,9.49,32.53s47.66-28.09,49.69-30.49A17.31,17.31,0,0,0,258.77,240.87Z"/><path class="cls-9" d="M121.05,264.78l-8.87,5.5,20.49,80.65L129,397.43c5.33,4.6,18.65,8.56,44,7.12s42.2-12.45,42.2-12.45l-2.43-47.83-5.76-54-6.46-36.91L181,254.81l-7.61-4.51L169.93,252l-4.36,12.12-11.38-8.23-13.32-6.41L136,258.56Z"/><path class="cls-1" d="M200.45,262.78a11.41,11.41,0,0,1,.69,1.79c.43,1.17,1,2.88,1.6,5a161.92,161.92,0,0,1,4,16.86,162.45,162.45,0,0,1,2.11,17.18c.15,2.21.21,4,.23,5.23a10.48,10.48,0,0,1,0,1.94,11.43,11.43,0,0,1-.23-1.92c-.12-1.33-.27-3.11-.45-5.21-.42-4.4-1.12-10.47-2.31-17.1s-2.6-12.57-3.73-16.85c-.54-2-1-3.74-1.33-5.06A8.61,8.61,0,0,1,200.45,262.78Z"/><path class="cls-1" d="M161.93,263.42a5.31,5.31,0,0,1-1.84-.68,11.63,11.63,0,0,1-4-3.45l.48-.13a45.21,45.21,0,0,1-2.39,11.66l-.14.42-.38-.25-.93-.65c-4.6-3.16-8.72-6-11.69-8.18l-3.49-2.55a7,7,0,0,1-1.23-1,6.86,6.86,0,0,1,1.33.79l3.61,2.37c3,2,7.22,4.85,11.8,8l1,.64-.53.17a49,49,0,0,0,2.5-11.47v-.71l.41.58a12.29,12.29,0,0,0,3.75,3.5C161.3,263.12,162,263.36,161.93,263.42Z"/><path class="cls-1" d="M180.16,256.24a42.11,42.11,0,0,1-4.33,4.92l-.23.25-.24-.26a31,31,0,0,0-2.89-2.95c-.56-.48-1.11-.93-1.66-1.33l-.81-.6-.19,0-.12.2-1.23,3.17a14.42,14.42,0,0,1-1.34,2.87,14,14,0,0,1,.86-3c.34-1,.72-2.08,1.1-3.22a.92.92,0,0,1,.47-.57.82.82,0,0,1,.77.12l.85.61c.58.41,1.15.88,1.71,1.33a24.85,24.85,0,0,1,2.93,3.05h-.48A43,43,0,0,1,180.16,256.24Z"/><path class="cls-12" d="M174.89,401.06a55.17,55.17,0,1,1-13.07,104.25h0a55.17,55.17,0,0,1,13.12-104.24Zm19.67,104.79a51.43,51.43,0,1,0-31.23-3.9A51.42,51.42,0,0,0,194.56,505.85Z"/><path class="cls-12" d="M185,513.13a58.12,58.12,0,1,1,19.9-3.55A57.5,57.5,0,0,1,185,513.13Zm.12-106.7a48.83,48.83,0,1,0-.07,97.65,48.23,48.23,0,0,0,9-.84h0a48.83,48.83,0,0,0-9-96.81Z"/><path class="cls-12" d="M50.84,401.42l.49-1.2c1-2.57,3.33-4.07,5.11-3.34l80.64,32.8c.4.16.53.76.3,1.34L134,439.46c-.24.57-.75.91-1.15.75L52.17,407.33C50.38,406.6,49.78,403.94,50.84,401.42Z"/><path class="cls-14" d="M126.14,308.51l-9.69,32.08,4.86,65.4L107,407.79s-16.38-55.65-14.75-65.72,8.31-39.4,8.31-39.4Z"/><path class="cls-14" d="M121.27,405.52l6.66,11.38,4.15,10.65-6.22-2.43s-2.66,12.86-3.74,13.19-4.08-.7-3.77-3.17a4.07,4.07,0,0,1-3.4,1.12c-1.89-.38-2.34-1.61-2.13-4,0,0-2.19,1.78-3.51.68a4,4,0,0,1-1.19-3.07s-2.86.24-3.26-1.24a24.47,24.47,0,0,1-.16-7.35c.33-1.62,1.72-8.23,1.72-8.23l.64-5.33Z"/><path class="cls-15" d="M119.71,427.73a12.06,12.06,0,0,0-1,3.65,12.2,12.2,0,0,0-.41,3.76,12.08,12.08,0,0,0,1-3.64A12.62,12.62,0,0,0,119.71,427.73Z"/><path class="cls-15" d="M113.88,426.25a7.61,7.61,0,0,0-.9,2.9,8,8,0,0,0-.3,3,15.75,15.75,0,0,0,1.2-5.94Z"/><path class="cls-15" d="M109,424.88a7.63,7.63,0,0,0-.45,2.51c-.23,1.33-.59,2.47-.42,2.53a4,4,0,0,0,1-2.43A4.64,4.64,0,0,0,109,424.88Z"/><path class="cls-15" d="M126.3,421.4a14,14,0,0,0-1.06,3.57,14.81,14.81,0,0,0-.7,3.66,9.63,9.63,0,0,0,1.27-3.51A10.2,10.2,0,0,0,126.3,421.4Z"/><path class="cls-9" d="M91.46,363.68c0-1.1-4.48-16.33-3.12-24.23s17.61-61.27,19.79-65.08a16.73,16.73,0,0,1,6.94-5.89A26.58,26.58,0,0,1,128,284.72c3.26,11.71,3.26,26.4,3.26,26.4l-13.07,32.4,1.56,18.41Z"/><path class="cls-1" d="M130.44,310.05c-.13,0,.12-2.39,0-6.23a55.42,55.42,0,0,0-5.6-22.31,57.22,57.22,0,0,0-3.33-5.85c-2.11-3.22-3.68-5-3.59-5.1a7.94,7.94,0,0,1,1.18,1.21,39.62,39.62,0,0,1,2.77,3.57A50.68,50.68,0,0,1,130.38,297a49.8,49.8,0,0,1,.5,6.79,36.71,36.71,0,0,1-.22,4.57A8.39,8.39,0,0,1,130.44,310.05Z"/><path class="cls-1" d="M129.6,316.83a23.46,23.46,0,0,1-1.33,4c-.94,2.46-2.37,5.81-4,9.45l-4.21,9.33a30.67,30.67,0,0,1-1.81,3.85,23.46,23.46,0,0,1,1.33-4c.94-2.46,2.37-5.81,4-9.46l4.21-9.32A32.14,32.14,0,0,1,129.6,316.83Z"/><path class="cls-1" d="M119,344.78a59.21,59.21,0,0,0-8.95-3.89,60.26,60.26,0,0,0-9.61-1.7,9.11,9.11,0,0,1,2.9-.15,28.41,28.41,0,0,1,6.91,1.18,27.91,27.91,0,0,1,6.42,2.84A8.74,8.74,0,0,1,119,344.78Z"/><path class="cls-2" d="M204,436.56c.12.14-10.38,9.32-23.46,20.52s-23.77,20.14-23.89,20,10.37-9.32,23.45-20.51S203.9,436.41,204,436.56Z"/><path class="cls-2" d="M217.52,436.56c.14.14-8.71,8-19.75,17.43s-20.07,17.06-20.2,16.92,8.72-8,19.75-17.44S217.4,436.41,217.52,436.56Z"/><path class="cls-1" d="M237.41,455.27a6.69,6.69,0,0,0-.08-.84c-.08-.56-.08-1.41-.16-2.49a10.91,10.91,0,0,0-.11-1.83l-.33-2.19c-.12-.8-.25-1.64-.4-2.55s-.45-1.83-.68-2.85a50.58,50.58,0,0,0-5.81-13.89,52.14,52.14,0,0,0-13.25-14.78l-2.25-1.68c-.8-.52-1.63-1-2.45-1.49a23.7,23.7,0,0,0-2.54-1.48l-2.67-1.33-1.33-.66-1.45-.51L201,405.63c-1-.33-2-.55-3.07-.83a28.17,28.17,0,0,0-3.15-.72,48.55,48.55,0,0,0-6.58-.75c-1.12,0-2.25-.15-3.4-.14l-3.43.19a9.25,9.25,0,0,0-1.75.11l-1.73.26c-1.16.2-2.34.33-3.5.57a55.25,55.25,0,0,0-6.94,2,53.87,53.87,0,0,0-6.78,3c-1.11.6-2.16,1.33-3.25,1.93-.53.34-1.09.64-1.6,1l-1.53,1.16a47.38,47.38,0,0,0-11.08,11.08l-1.2,1.6-1,1.72-1,1.71a13.39,13.39,0,0,0-1,1.78L137.16,435c-.48,1.33-.95,2.57-1.42,3.86a51.63,51.63,0,0,0,0,32.82c.48,1.33.95,2.57,1.42,3.85a38.68,38.68,0,0,0,1.77,3.67l.44.91.53.86,1,1.72,1.05,1.72,1.2,1.6a60.22,60.22,0,0,0,5.07,6,61.33,61.33,0,0,0,5.9,5l1.54,1.15c.52.38,1.08.66,1.61,1,1.09.64,2.14,1.33,3.23,1.93a53.28,53.28,0,0,0,6.8,3,55.25,55.25,0,0,0,6.94,2c1.16.24,2.34.37,3.5.57l1.73.27c.59.08,1.16.07,1.75.11l3.43.18c1.15,0,2.28-.09,3.4-.13a48.57,48.57,0,0,0,6.58-.76,24.34,24.34,0,0,0,3.15-.72c1-.28,2.08-.49,3.07-.81l2.93-1.08,1.45-.52,1.33-.65,2.67-1.33c.9-.42,1.7-1,2.54-1.48s1.65-1,2.45-1.49l2.25-1.68a51.75,51.75,0,0,0,13.25-14.79A50.35,50.35,0,0,0,235.65,468c.23-1,.57-1.94.68-2.85s.28-1.76.4-2.55.27-1.52.33-2.18.08-1.33.11-1.84c.08-1.07.13-1.89.16-2.48a3.54,3.54,0,0,1,.08-.85v.85c0,.56,0,1.41-.1,2.49,0,.55,0,1.17-.07,1.84a18,18,0,0,1-.3,2.2l-.37,2.56a29.07,29.07,0,0,1-.67,2.87,49.17,49.17,0,0,1-5.72,14,52.54,52.54,0,0,1-13.32,15l-2.27,1.7c-.8.52-1.64,1-2.46,1.52a26.9,26.9,0,0,1-2.56,1.51l-2.73,1.33-1.33.65-1.47.55-2.95,1.08c-1,.34-2.05.55-3.11.83a22.93,22.93,0,0,1-3.18.74,46.54,46.54,0,0,1-6.66.78c-1.14,0-2.28.16-3.43.15l-3.49-.17a9.46,9.46,0,0,1-1.76-.11l-1.76-.27c-1.17-.2-2.36-.33-3.54-.57a54.81,54.81,0,0,1-7-2.05,52.06,52.06,0,0,1-6.89-3c-1.1-.6-2.17-1.33-3.27-1.95-.55-.34-1.12-.63-1.64-1l-1.51-1.19a58.9,58.9,0,0,1-6-5.07,57.86,57.86,0,0,1-5.17-6.1l-1.22-1.61-1.05-1.75-1.07-1.74-.53-.87-.45-.93-1.84-3.72-1.44-3.9a52.27,52.27,0,0,1,0-33.3l1.44-3.87c.6-1.24,1.2-2.48,1.78-3.72a15.76,15.76,0,0,1,1-1.8l1.06-1.74,1.07-1.73,1.21-1.61a59.08,59.08,0,0,1,5.17-6.1,57.93,57.93,0,0,1,6-5.08l1.56-1.16c.52-.37,1.06-.72,1.62-1,1.11-.64,2.17-1.33,3.28-1.94a57.81,57.81,0,0,1,13.9-5.06c1.19-.24,2.37-.37,3.55-.57l1.75-.27c.59-.07,1.18-.07,1.76-.11l3.49-.17c1.15,0,2.29.11,3.42.15a46.37,46.37,0,0,1,6.66.78,28.89,28.89,0,0,1,3.19.73c1,.28,2.09.51,3.1.84l3,1.08,1.45.55,1.33.66,2.67,1.34a28.6,28.6,0,0,1,2.57,1.49c.82.5,1.66,1,2.46,1.52l2.26,1.7a52.11,52.11,0,0,1,13.32,15,49.08,49.08,0,0,1,5.73,14c.23,1,.56,2,.67,2.87s.25,1.77.37,2.56.24,1.53.29,2.2,0,1.33.08,1.84a17,17,0,0,0,.1,2.49A6.31,6.31,0,0,1,237.41,455.27Z"/><path class="cls-1" d="M218.08,483.07a18,18,0,0,1,1.33-1.79,47,47,0,0,0,7.33-43.11,55.85,55.85,0,0,0-2.22-5.58,14,14,0,0,1-.92-2,3.35,3.35,0,0,1,.33.46c.2.32.49.79.83,1.43a40.79,40.79,0,0,1,2.43,5.54,44.49,44.49,0,0,1-4,38.53,41.66,41.66,0,0,1-3.55,4.91c-.45.55-.85.95-1.1,1.23S218.11,483.08,218.08,483.07Z"/><path class="cls-1" d="M215.33,487.85c.09.17-.32.58-.92.93s-1.18.48-1.27.32.32-.59.92-.93S215.23,487.69,215.33,487.85Z"/><path class="cls-2" d="M146.65,477.69a3.11,3.11,0,0,1-.32-.63c-.18-.41-.48-1-.78-1.85a48,48,0,0,1-2.12-7.11,51.31,51.31,0,0,1,12.33-45.64,46.41,46.41,0,0,1,5.41-5.08c.67-.56,1.24-.94,1.61-1.22a2.2,2.2,0,0,1,.6-.37s-.72.65-2,1.8a55.59,55.59,0,0,0-5.22,5.19A52.45,52.45,0,0,0,143.92,468a58,58,0,0,0,1.92,7.09C146.36,476.77,146.71,477.67,146.65,477.69Z"/><path class="cls-2" d="M177.57,412.41a14.56,14.56,0,0,1-6.22.52,7,7,0,0,1,3.07-.61A7.28,7.28,0,0,1,177.57,412.41Z"/></g></g></svg>