<svg xmlns="http://www.w3.org/2000/svg" viewBox="0 0 570 588"><defs><style>.cls-1{fill:#dcedf9;}.cls-2{fill:#ececec;}.cls-3{fill:#00b2b2;}.cls-4{fill:#009c9c;}.cls-5{fill:#00dfdf;}.cls-6{fill:#00a8ff;}.cls-7{fill:#ffaa01;}.cls-8{fill:#fff;}.cls-9{fill:#ffcf83;}.cls-10{fill:#fee4b4;}.cls-11{fill:#e8ae69;}.cls-12{fill:#dda450;}.cls-13{fill:#1f3238;}.cls-14{fill:#517075;}.cls-15{fill:#375359;}.cls-16{fill:#007fe9;}.cls-17{fill:#fba691;}.cls-18{fill:#054641;}.cls-19{fill:#18292d;}.cls-20{fill:#303030;}.cls-21{fill:#2e3052;}.cls-22{fill:#212121;}.cls-23{fill:#ea9688;}.cls-24{fill:#d45c48;}.cls-25{fill:#ffb5a6;}.cls-26{fill:#fb876b;}.cls-27{fill:#053f3b;}.cls-28{fill:#043834;}</style></defs><title>Illustration</title><g id="Layer_3" data-name="Layer 3"><path class="cls-1" d="M555.25,313.77c-.43-15.3-14.68-21.23-24.19-10.16a47.73,47.73,0,0,0-11.63,27.65c-2.18,27.27,21.68,19.37,30.59,4.77C553.82,329.8,555.47,321.5,555.25,313.77Z"/><ellipse class="cls-2" cx="285.97" cy="511.36" rx="257.69" ry="20.74"/><path class="cls-3" d="M462.6,507.76a23.88,23.88,0,0,0,1.78,5.57h41.85c1.65-3.92,1.65-8-.79-11.49-15.25-21.71,3.56-21.28,6.54-36.12,3.27-16.29-12.24-7.87-7.54-29.68,6.38-29.55-7.45-43.74-14.44-26.68-6.6,16.09-3.21,22.68-19.35,34.74-13.39,10,10,26-3.29,41.84C461.7,492.68,461.25,500.74,462.6,507.76Z"/><path class="cls-4" d="M480.61,513.33c4.75-38.29,13.1-80.13,13.22-80.69a1.06,1.06,0,0,0-.83-1.24,1,1,0,0,0-1.24.82c-.12.57-8.52,42.65-13.28,81.11Z"/><path class="cls-5" d="M531.44,513.33c-.09-.31-.18-.63-.29-.94-11-32.29,12.05-25,21.07-42.25,9.89-18.93-12.29-14.11,1.36-39.34,18.49-34.19,6.53-56.68-8.24-38.13-13.93,17.49-12.11,26.84-36.38,35.93-20.12,7.54,3,35.71-19.1,50.47-9.4,6.29-12.85,16.07-13.72,25.22a30.34,30.34,0,0,0,.47,9Z"/><path class="cls-3" d="M498.24,513.33c19.34-44.26,43.13-89.92,43.45-90.55a1.35,1.35,0,1,0-2.4-1.25c-.33.63-24.54,47.09-44,91.8Z"/><path class="cls-3" d="M108.76,507.76a23.9,23.9,0,0,1-1.79,5.57H65.12c-1.65-3.92-1.64-8,.8-11.49,15.24-21.71-3.57-21.28-6.55-36.12-3.27-16.29,12.25-7.87,7.54-29.68-6.38-29.55,7.45-43.74,14.44-26.68C88,425.45,84.56,432,100.7,444.1c13.39,10-10,26,3.29,41.84C109.65,492.68,110.1,500.74,108.76,507.76Z"/><path class="cls-4" d="M90.75,513.33C86,475,77.64,433.2,77.53,432.64a1.06,1.06,0,0,1,2.07-.42c.11.57,8.51,42.65,13.27,81.11Z"/><path class="cls-5" d="M39.92,513.33c.08-.31.17-.63.28-.94,11-32.29-12.05-25-21.06-42.25C9.25,451.21,31.42,456,17.78,430.8c-18.5-34.19-6.54-56.68,8.23-38.13,13.93,17.49,12.11,26.84,36.38,35.93,20.12,7.54-3,35.71,19.1,50.47,9.41,6.29,12.86,16.07,13.72,25.22a30.68,30.68,0,0,1-.46,9Z"/><path class="cls-3" d="M73.11,513.33C53.78,469.07,30,423.41,29.66,422.78a1.35,1.35,0,1,1,2.4-1.25c.34.63,24.54,47.09,44,91.8Z"/><path class="cls-6" d="M161.51,513.32h3.18l-4.89-13.7a64.5,64.5,0,0,1,8.78-24.43c9.09-15.17,11.42-25.91,3.81-25.85-9.87.08-16.94,24.09-14.88,43.87L145.87,460.6c.47-4.21,2.2-12.27,8.34-22.4,8.11-13.41,14.38-29.14,4.39-28.28s-17.22,25-14.75,45l-9.71-27.19a35.39,35.39,0,0,1,5.26-14.18c5.12-8.45,9.07-18.36,2.77-17.82s-10.88,15.84-9.28,28.48l-2.06-5.76c-1.88-17.37-13.87-36.6-21.19-35s-.14,12.64,9.34,22.45a56.44,56.44,0,0,1,8.52,12.13l4,11.19c-7.13-8.7-17.57-14.94-22.1-11.84-5.21,3.57,4.12,8.74,13.43,12a38.92,38.92,0,0,1,10.77,5.67l12.32,34.52c-11.21-15.5-29.91-27.47-37.67-22.16-8.27,5.66,6.54,13.86,21.31,19.1a58.93,58.93,0,0,1,19,10.6l9.6,26.88c-10.82-16.94-31.5-30.89-39.76-25.23s6.54,13.87,21.31,19.1c11,3.91,17.45,9,20.53,12Z"/><path class="cls-1" d="M317.45,75.8a.81.81,0,0,1-.43-.06c-1.47-.63-2.34-.92-2.35-.92a.86.86,0,0,1,.55-1.64s.93.31,2.47,1a.86.86,0,0,1,.46,1.13A.84.84,0,0,1,317.45,75.8Z"/><path class="cls-1" d="M361.46,122.12c.58,1.56,1.13,3.18,1.63,4.8a.85.85,0,0,0,.92.6.45.45,0,0,0,.16,0,.86.86,0,0,0,.57-1.08c-.51-1.65-1.07-3.3-1.67-4.9a.86.86,0,0,0-1.61.61Z"/><path class="cls-1" d="M364.44,131.81c.39,1.62.75,3.29,1.06,5a.87.87,0,0,0,.94.7h.07a.86.86,0,0,0,.69-1c-.32-1.7-.68-3.4-1.09-5.06a.86.86,0,1,0-1.67.41Z"/><path class="cls-1" d="M368.08,157.89a.87.87,0,0,0,.77-.85c0-1.73,0-3.47,0-5.16a.86.86,0,1,0-1.72.05c.05,1.67.06,3.38,0,5.09a.87.87,0,0,0,.85.87Z"/><path class="cls-1" d="M367,140.82a.87.87,0,0,0-.74,1c.1.78.19,1.57.27,2.35s.18,1.8.25,2.71a.87.87,0,0,0,.93.79h0a.86.86,0,0,0,.77-.93c-.07-.92-.15-1.85-.25-2.75s-.18-1.6-.28-2.39a.86.86,0,0,0-.95-.75Z"/><path class="cls-1" d="M359.53,117.42a.87.87,0,0,0,.88.51.77.77,0,0,0,.26-.07.86.86,0,0,0,.44-1.14c-.71-1.57-1.47-3.14-2.27-4.66a.86.86,0,0,0-1.53.8C358.1,114.35,358.84,115.89,359.53,117.42Z"/><path class="cls-1" d="M321.61,77.88c1.48.76,3,1.59,4.45,2.46a.89.89,0,0,0,.53.11.85.85,0,0,0,.65-.42.86.86,0,0,0-.3-1.18c-1.5-.89-3-1.73-4.54-2.5a.86.86,0,1,0-.79,1.53Z"/><path class="cls-1" d="M334.48,86a.86.86,0,0,0,.61.18.88.88,0,0,0,.6-.34.86.86,0,0,0-.16-1.21c-1.37-1-2.79-2.06-4.21-3a.86.86,0,1,0-1,1.43C331.75,84,333.14,85,334.48,86Z"/><path class="cls-1" d="M342.17,92.64a.82.82,0,0,0,.69.24.85.85,0,0,0,.51-1.47c-1.23-1.2-2.51-2.38-3.82-3.5a.86.86,0,1,0-1.13,1.3C339.7,90.32,341,91.47,342.17,92.64Z"/><path class="cls-1" d="M349,100.15a.85.85,0,0,0,.76.32.93.93,0,0,0,.45-.18.88.88,0,0,0,.14-1.22c-1.08-1.34-2.21-2.66-3.37-3.94a.86.86,0,1,0-1.28,1.16C346.83,97.54,347.94,98.84,349,100.15Z"/><path class="cls-1" d="M354.81,108.45a.85.85,0,0,0,.83.41.81.81,0,0,0,.36-.12.87.87,0,0,0,.29-1.19c-.9-1.47-1.86-2.92-2.84-4.33a.87.87,0,0,0-1.42,1C353,105.59,353.93,107,354.81,108.45Z"/><polygon class="cls-5" points="317.43 69.89 321.21 55.9 274.91 56.29 317.43 69.89"/><polygon class="cls-3" points="274.91 56.29 315.19 73.27 315.29 73.32 317.02 76.19 317.43 69.89 274.91 56.29"/><polygon class="cls-4" points="317.02 76.19 313.27 75.6 315.29 73.32 317.02 76.19"/><polygon class="cls-5" points="310.22 71.18 315.29 73.32 304.85 85.08 274.91 56.29 310.22 71.18"/><rect class="cls-7" x="37.95" y="182.82" width="29.68" height="29.68" rx="4.26"/><path class="cls-8" d="M61.18,191.55c0-.21-.09-.41-.14-.62A4.64,4.64,0,0,0,60,189a4.5,4.5,0,0,0-1.21-1,1.37,1.37,0,0,0-1.8.35c-.83,1-1.65,2-2.47,3a1.42,1.42,0,0,0,.2,2c.45.4.92.77,1.38,1.14l.18.12a13.25,13.25,0,0,1-5.63,6.87l-1-.83-.52-.43a1.43,1.43,0,0,0-1.72-.09,2.79,2.79,0,0,0-.46.45c-.74.91-1.48,1.82-2.23,2.72a1.87,1.87,0,0,0-.44,1c0,.13,0,.26,0,.4a3.21,3.21,0,0,0,.4.67,5,5,0,0,0,1.49,1.08,4.2,4.2,0,0,0,2.11.43,8.73,8.73,0,0,0,1.44-.28A11.64,11.64,0,0,0,53.13,205,17.84,17.84,0,0,0,56,202.6a28.68,28.68,0,0,0,3.12-3.9,14.19,14.19,0,0,0,1.78-3.49,8,8,0,0,0,.39-1.94c0-.27,0-.54,0-.8Z"/><rect class="cls-7" x="493.96" y="354.58" width="30.13" height="30.13" rx="3.4"/><path class="cls-8" d="M518.66,369.08c0,3.75-2.11,5.7-4.63,5.7a3.16,3.16,0,0,1-3.1-1.71,3.07,3.07,0,0,1-3,1.71c-2.13,0-4.17-1.87-4.17-4.9s2-4.88,4.17-4.88a3.12,3.12,0,0,1,2.42,1v-.79h3.77v5.63c0,.82.34,1.08.77,1.08s1-.55,1-2.75c0-3.56-2.65-6.08-6.7-6.08a6.41,6.41,0,0,0-6.75,6.57,6.32,6.32,0,0,0,6.67,6.6,9.46,9.46,0,0,0,4-.86l.83,2.42a12,12,0,0,1-4.8.94c-5.92,0-9.72-4-9.72-9.1s3.8-9.07,9.8-9.07C514.86,360.56,518.66,364.35,518.66,369.08Zm-8.22.8c0-1.18-.61-1.79-1.42-1.79s-1.4.61-1.4,1.79.59,1.81,1.4,1.81S510.44,371.08,510.44,369.88Z"/><path class="cls-9" d="M513.55,191.33v96.12a16.25,16.25,0,0,1-16.25,16.26H267V139.36H461.59a51.95,51.95,0,0,1,52,52Z"/><path class="cls-10" d="M513.55,267.09v20.36a16.25,16.25,0,0,1-16.25,16.26H304.8V267.09Z"/><path class="cls-11" d="M321.31,185.66v118H217.19v-118a46.42,46.42,0,0,1,46.42-46.43h11.56A46.43,46.43,0,0,1,321.31,185.66Z"/><path class="cls-12" d="M321.31,185.66v118H228.74v-118a46.43,46.43,0,0,1,46.14-46.43h.29A46.43,46.43,0,0,1,321.31,185.66Z"/><path class="cls-9" d="M217.19,303.7l-39.65,69.81C163,399.16,172,419.94,197.59,419.94h11.56c25.6-.16,58-20.88,72.51-46.43l39.65-69.81Z"/><rect class="cls-9" x="217.19" y="296.96" width="104.12" height="6.74"/><circle class="cls-12" cx="430.1" cy="181.21" r="16.69"/><circle class="cls-13" cx="430.1" cy="178.03" r="16.69"/><path class="cls-9" d="M430.1,187.73a9.7,9.7,0,1,1,9.7-9.7A9.71,9.71,0,0,1,430.1,187.73Z"/><path class="cls-14" d="M432.9,66.35V177.69a2.8,2.8,0,0,1-5.59,0V66.35Z"/><polygon class="cls-13" points="472.53 87.1 427.31 87.1 427.31 61.92 472.53 61.92 462.25 74.51 472.53 87.1"/><polygon class="cls-15" points="432.9 87.1 432.9 88.62 427.31 90.57 427.31 87.1 432.9 87.1"/><rect class="cls-14" x="367.84" y="303.73" width="22.26" height="213.09"/><path class="cls-15" d="M340.33,499.83h77.28a10.7,10.7,0,0,1,10.7,10.7v7.69a0,0,0,0,1,0,0H329.63a0,0,0,0,1,0,0v-7.69A10.7,10.7,0,0,1,340.33,499.83Z"/><polygon class="cls-15" points="390.1 303.73 390.1 309.48 367.84 317.27 367.84 303.73 390.1 303.73"/><path class="cls-16" d="M186.54,226.1c8.26,30,35.47,38.42,35.47,38.42a81.7,81.7,0,0,0,24.41-9.27c-2-4.81-2.88-9.7-4-16.06-10,2.79-18.67,4.28-18.67,4.28-21.15-9.8-34-56.73-34-56.73C177.19,198.67,186.54,226.1,186.54,226.1Z"/><path class="cls-17" d="M115.39,467.48l-8.94,12s1.63,5.35,8.26,9.47l10.7-13.77Z"/><path class="cls-18" d="M113.22,485.22s4.19-.91,5.62.54,5,21.14,8.39,25.45,0,6.6-2.09,7.47S93.4,489.92,93.4,489.92s7.34-10.13,10.87-12.1S109.47,483.13,113.22,485.22Z"/><path class="cls-8" d="M113.77,496.71a.79.79,0,0,1,0-1.45,11.49,11.49,0,0,1,5.64-.94,5.25,5.25,0,0,1,4.11,3.52.8.8,0,0,1-.53,1,.75.75,0,0,1-.93-.53,3.73,3.73,0,0,0-2.93-2.43,10.13,10.13,0,0,0-4.77.84A.71.71,0,0,1,113.77,496.71Z"/><path class="cls-8" d="M113.28,493.56a.75.75,0,0,1-.42-.42.79.79,0,0,1,.4-1c.13-.06,3.2-1.39,5.64-.94a5.2,5.2,0,0,1,4.11,3.52.78.78,0,0,1-.53,1,.73.73,0,0,1-.93-.52,3.73,3.73,0,0,0-2.93-2.43c-2-.37-4.74.83-4.77.84A.71.71,0,0,1,113.28,493.56Z"/><path class="cls-8" d="M115.14,500a.72.72,0,0,1-.42-.42.79.79,0,0,1,.4-1c.13-.06,3.2-1.4,5.65-.95a5.2,5.2,0,0,1,4.1,3.52.8.8,0,0,1-.53,1,.74.74,0,0,1-.93-.53,3.72,3.72,0,0,0-2.93-2.42c-2-.37-4.74.83-4.77.84A.75.75,0,0,1,115.14,500Z"/><path class="cls-17" d="M170.29,488l1.35,14.89s4.8,2.88,12.48,1.51L182.86,487Z"/><path class="cls-18" d="M181.41,502.34s2.62-3.62,4.74-3.5,18.67,12.89,24.28,13.88S215,517.86,214,520s-44.49.91-44.49.91-1.61-14-.24-18S177,503.34,181.41,502.34Z"/><path class="cls-8" d="M192.18,511.82a.74.74,0,0,1-.6-.05.79.79,0,0,1-.34-1c.06-.12,1.56-3.11,3.74-4.32a5.21,5.21,0,0,1,5.4.09.8.8,0,0,1,.22,1.08.76.76,0,0,1-1.06.19,3.69,3.69,0,0,0-3.8,0,10.14,10.14,0,0,0-3.14,3.69A.76.76,0,0,1,192.18,511.82Z"/><path class="cls-8" d="M189.79,509.71a.78.78,0,0,1-.94-1.1,11.51,11.51,0,0,1,3.74-4.33,5.22,5.22,0,0,1,5.41.09.8.8,0,0,1,.21,1.08.75.75,0,0,1-1.06.19,3.74,3.74,0,0,0-3.8,0c-1.78,1-3.12,3.67-3.14,3.7A.73.73,0,0,1,189.79,509.71Z"/><path class="cls-8" d="M195.35,513.5a.78.78,0,0,1-.94-1.1,11.51,11.51,0,0,1,3.74-4.33,5.2,5.2,0,0,1,5.4.09.79.79,0,0,1,.22,1.08.76.76,0,0,1-1.06.2,3.69,3.69,0,0,0-3.8,0c-1.78,1-3.12,3.66-3.14,3.69A.73.73,0,0,1,195.35,513.5Z"/><path class="cls-19" d="M162,326.47l-9,74.81a249.61,249.61,0,0,0-15.84,25.08c-6.49,11.82-23.78,42.49-23.78,42.49l10.46,8L181,417.47l15.24-91.73Z"/><path class="cls-20" d="M126.33,476.63a11.61,11.61,0,0,1-4.75,5.31l-12.14-10.26a18.35,18.35,0,0,1,4.13-5.61Z"/><path class="cls-13" d="M115.69,329.56s16.13,39.66,37.09,70.58c0,0,3.13,30.09,8.49,46.11,2.34,7,6.88,40.24,6.88,40.24l15.9-.72-4.1-92.4-16.82-66.92Z"/><path class="cls-20" d="M185.53,485.23a13.37,13.37,0,0,1,0,8.25l-18.4.51a21.06,21.06,0,0,1-.76-8Z"/><path class="cls-5" d="M189.77,186.74c2.39,3,7.2,33.47,8,64.41,0,.71,0,1.42.05,2.13q.12,4.92.21,9.86c.07,3.24.13,6.48.18,9.7.09,5.26.17,10.45.23,15.44,0,.56,0,1.13,0,1.69.06,4.87.1,9.53.14,13.89,0,.57,0,1.13,0,1.69.05,6.55.08,12.34.08,17h0c0,.65,0,1.27,0,1.88,0,3.25,0,5.83,0,7.57a163.72,163.72,0,0,1-23.1,4.49l-.62.08-1,.12-.26,0c-1.33.15-2.66.28-4,.39a154.91,154.91,0,0,1-19.86.35l-1.74-.09-1.56-.1-.71,0-1.32-.1A161.61,161.61,0,0,1,115.26,332c-.05-3.83-.09-11.64-.11-21.7v-1.68c0-11.1,0-24.73.16-38.76,0-1.11,0-2.21,0-3.33,0-1.29,0-2.58,0-3.88,0-.21,0-.43,0-.65s0-.61,0-.92l0-1.82c0-.89,0-1.78,0-2.66,0-.67,0-1.35,0-2,0-1.33,0-2.67.07-4,.47-27.85,1.41-53.45,3.2-60a4.72,4.72,0,0,1,.51-1.31,8.52,8.52,0,0,1,.69-.88c.34-.38.73-.77,1.16-1.17,3-2.75,8.16-5.94,13.41-9l1.83-1c.09-.05,14.26-4.83,14.35-4.89l14.82,1S186.24,182.34,189.77,186.74Z"/><path class="cls-4" d="M130,226.87a.77.77,0,0,0-1.38-.47,76.51,76.51,0,0,0-11.68,23.15c-.54,1.74-1,3.42-1.42,5,0,.67,0,1.35,0,2,0,.88,0,1.77,0,2.66l0,1.82c0,.31,0,.61,0,.92s0,.44,0,.65a95.1,95.1,0,0,1,3-12.67,75.33,75.33,0,0,1,11.42-22.64.76.76,0,0,0,.16-.46Z"/><path class="cls-4" d="M133,307.71h0c16-.07,29.66-7.35,38.3-13.44a88.15,88.15,0,0,0,15.06-13.34.77.77,0,1,0-1.18-1A86.2,86.2,0,0,1,170.38,293c-8.46,6-21.8,13.08-37.39,13.15a.77.77,0,1,0,0,1.53Z"/><path class="cls-4" d="M149.67,313.15c13.89,0,27.73-7.91,28.36-8.27a.77.77,0,0,0-.77-1.34c-.16.1-16.45,9.4-30.9,7.91a.75.75,0,0,0-.84.68.77.77,0,0,0,.68.85A33.45,33.45,0,0,0,149.67,313.15Z"/><path class="cls-4" d="M145.69,197.73c13.38-3.71,24.61-15,25.12-15.55a.76.76,0,0,0,0-1.09.77.77,0,0,0-1.09,0c-.13.14-13.34,13.45-27.66,15.87a.77.77,0,0,0,.25,1.52A32,32,0,0,0,145.69,197.73Z"/><path class="cls-21" d="M134.5,135.27c0,13.53,8.32,22.86,21.85,22.86s23-10,23-23.56-8-23.78-21.54-23.78C141.55,110.79,134.5,121.75,134.5,135.27Z"/><path class="cls-22" d="M134.8,138.86s-4.73-7.15-2.22-12.66c2.58-5.7,1.27-4.45,1.92-8.74s3.76-6,7.5-6.67,1.17-4.92,6.35-6.46,9.33,3.86,12.67,1.44,11.51-3.61,13.81,0,4.34,3.59,6.79,3.47c2.95-.14,6.9,4.52,4.23,8.8s-7.16,2.58-6.54,5.53,4.42,8.14-.67,14.74C177.1,140.31,134.8,138.86,134.8,138.86Z"/><path class="cls-23" d="M137.53,141.1s-3.75-5-6.55-.87,1.16,16.39,8,13.4Z"/><path class="cls-24" d="M137.49,149.85a.58.58,0,0,1-.56-.43c-1.06-3.78-5-5.31-5-5.32a.59.59,0,0,1-.33-.75.56.56,0,0,1,.74-.33c.19.07,4.5,1.74,5.72,6.09a.57.57,0,0,1-.4.71A.4.4,0,0,1,137.49,149.85Z"/><path class="cls-24" d="M133.53,147.94a.61.61,0,0,1-.31-.09.58.58,0,0,1-.17-.8,5.33,5.33,0,0,1,2.17-1.75.58.58,0,0,1,.76.29.59.59,0,0,1-.29.77,4.2,4.2,0,0,0-1.67,1.32A.58.58,0,0,1,133.53,147.94Z"/><path class="cls-23" d="M176.27,141.1s3.76-5,6.56-.87-1.16,16.39-8,13.4Z"/><path class="cls-24" d="M176.32,149.85a.59.59,0,0,0,.56-.43c1.06-3.78,5-5.31,5-5.32a.59.59,0,0,0,.34-.75.58.58,0,0,0-.75-.33c-.18.07-4.5,1.74-5.72,6.09a.58.58,0,0,0,.4.71Z"/><path class="cls-24" d="M180.27,147.94a.62.62,0,0,0,.32-.09.59.59,0,0,0,.17-.8,5.33,5.33,0,0,0-2.17-1.75.58.58,0,1,0-.47,1.06,4.2,4.2,0,0,1,1.67,1.32A.56.56,0,0,0,180.27,147.94Z"/><path class="cls-25" d="M166.16,164v12.88a8.93,8.93,0,0,1-6,3.48c-5.64.67-11.76-5.3-11.76-5.3v-10.2Z"/><path class="cls-26" d="M166.16,164v5.4c-3.3,3.66-9.15,4.57-17.81,3.29v-7.83Z"/><path class="cls-25" d="M135.54,140.87c.05.7.11,1.42.18,2.14.18,1.81.42,3.68.76,5.53l0,.19c1.63,9,5.31,17.8,13.23,20.63,17.94,6.4,24.34-9,26.91-18,.28-1,.54-2.1.76-3.29l0-.14c.25-1.33.47-2.75.65-4.2.13-1.08.25-2.18.35-3.28.27-2.68.44-5.37.55-7.75a12.68,12.68,0,0,0-8.11-12.43c-7.36-2.83-18.53-5.07-29.12.94a12.71,12.71,0,0,0-6.45,10.81C135.27,134.55,135.3,137.6,135.54,140.87Z"/><path class="cls-22" d="M135.54,140.87c.05.7.11,1.42.18,2.14.18,1.81.42,3.68.76,5.53l0,.19c1.63,9,5.31,17.8,13.23,20.63,17.94,6.4,24.34-9,26.91-18,.28-1,.54-2.1.76-3.29l0-.14c.25-1.33.47-2.75.65-4.2.13-1.08.25-2.18.35-3.28l-2.68.7c-.77,4.06-1.92,10-3.43,12.74-2.35-5.74-15.43-1-15.43-1s-11.66-4.15-15.61,0a107.4,107.4,0,0,1-3.54-11.71Zm21,14.19c9.41-1.29,11.75,1.12,12.19,3.9a16.06,16.06,0,0,1-8,4.82c-3.23.74-9.77.67-14.55-3.09C145.67,158.52,145.13,152.19,156.53,155.06Z"/><path class="cls-22" d="M150.81,141.81c0,1.3-.67,2.36-1.5,2.36s-1.5-1.06-1.5-2.36.67-2.35,1.5-2.35S150.81,140.51,150.81,141.81Z"/><path class="cls-22" d="M168.16,141.81c0,1.3-.67,2.36-1.5,2.36s-1.49-1.06-1.49-2.36.67-2.35,1.49-2.35S168.16,140.51,168.16,141.81Z"/><path class="cls-22" d="M170.9,133.74s-4.72-1.86-8.36-.29l.37,2s5.33-.45,8,.63A3.54,3.54,0,0,0,170.9,133.74Z"/><path class="cls-22" d="M143.4,133.74s4.72-1.86,8.35-.29l-.36,2s-5.33-.45-8,.63A3.48,3.48,0,0,1,143.4,133.74Z"/><path class="cls-26" d="M157.49,152a6.22,6.22,0,0,1-2.13-.18.57.57,0,1,1,.3-1.11,3.51,3.51,0,0,0,2.33-.07.6.6,0,0,0,.22-.57c0-2-1.41-8.68-1.42-8.75a.57.57,0,0,1,.45-.68.59.59,0,0,1,.68.45,84.74,84.74,0,0,1,1.45,9,1.76,1.76,0,0,1-.67,1.5A2.35,2.35,0,0,1,157.49,152Z"/><path class="cls-8" d="M149.58,155.48c.48,2.38,2,6.76,7.34,6.76s6.79-4,7.3-6.76Z"/><path class="cls-22" d="M178.38,141.2h-2.62c.29-2.63-.67-5.81-1.46-7.93-1.79-4.8,2-6.92-1.06-9.33s-10.76-1.37-16.09-1.55-14-.1-16.09.39-.95,4-.18,6.67-2.57,5.68-3.13,8.47a12.27,12.27,0,0,0,0,3.28h-2.19c-.26-3.4-.29-6.56-.25-9.13a12.71,12.71,0,0,1,6.45-10.81c10.59-6,21.76-3.77,29.12-.94A12.68,12.68,0,0,1,179,132.75C178.87,135.34,178.67,138.29,178.38,141.2Z"/><rect class="cls-27" x="125.15" y="190.58" width="147.02" height="101.56" transform="translate(-113.94 240.8) rotate(-50.44)"/><polygon class="cls-28" points="206.33 152.35 211.35 156.49 214.76 254.66 117.72 269.84 112.7 265.69 209.91 250.66 206.33 152.35"/><polygon class="cls-28" points="191.01 253.41 193.7 327.08 190.99 330.37 189 328.72 186.25 253.58 191.01 253.41"/><polygon class="cls-28" points="282.89 215.59 284.63 217.02 281.67 220.6 208.81 231.87 208.08 227.16 282.89 215.59"/><polygon class="cls-18" points="112.69 265.69 209.91 250.66 206.33 152.34 112.69 265.69"/><path class="cls-17" d="M189.65,294.27h2.71a5.9,5.9,0,0,0,5.33-3.58,35.82,35.82,0,0,1,1.58-3.3c1.26-1.68,4.71-4.51,6-4.59s1,2.31.14,3.36a22.74,22.74,0,0,0-3.13,3.88c-.77,1.49,6.32,4.51,9.2,5.21s7.93-.84,8.42,1.55-3.3,2.73-3.3,2.73,1.11,2.15-2,3.93a2.89,2.89,0,0,1-1.47,3.23s.23,2.67-2.13,3.37-9.73,2.84-24.18-5.94Z"/><path class="cls-4" d="M140.05,232.9c5.46,20.63,10.81,29.74,10.81,29.74S157,272,169.57,280.85c8.74,6.15,22.79,13.42,22.79,13.42-2.43,3.15-4.14,9.38-3.2,11.24-29.2,0-54.73-27.66-54.73-27.66C114,242.29,112.66,213.34,113,202.79a20.18,20.18,0,0,1,3.24-10.45,10.46,10.46,0,0,1,3.93-3.82A21.29,21.29,0,0,1,132,202.06C135,212.34,140.05,232.9,140.05,232.9Z"/><path class="cls-17" d="M270.08,234.73s-6.49-2.3-9.48-1.06,5.29,5.72,5.29,5.72-10-5.33-11.76-3.18,7.86,7.61,7.86,7.61-7.34-2.58-8.84-1.06,5.36,5.79,5.36,5.79-6-1.45-7.29-.43,4.09,5.32,7.48,6.45,3.94-3.63,3.94-3.63,3.19-2.81,2.76-4.76c0,0,3.31-2.24,3.55-4.52C269,241.66,273.62,237.55,270.08,234.73Z"/></g></svg>