<svg xmlns="http://www.w3.org/2000/svg" viewBox="0 0 700 640"><defs><style>.cls-1{fill:#ebebeb;}.cls-2{fill:#e6e6e6;}.cls-3{fill:#f0f0f0;}.cls-4{fill:#fafafa;}.cls-14,.cls-16,.cls-5{fill:#fff;}.cls-6{opacity:0.4;}.cls-7{fill:#f5f5f5;}.cls-11,.cls-8{fill:#054641;}.cls-17,.cls-9{fill:#00dfe9;}.cls-10{fill:#263238;}.cls-11{opacity:0.1;}.cls-11,.cls-14,.cls-15,.cls-16,.cls-17{isolation:isolate;}.cls-12{fill:#ff8b7b;}.cls-13{fill:#ff5652;}.cls-14,.cls-15{opacity:0.2;}.cls-16{opacity:0.3;}.cls-17{opacity:0.5;}.cls-18{fill:#1a2e35;}</style></defs><title>Illustration</title><g id="Layer_10" data-name="Layer 10"><g id="freepik--background-complete--inject-51"><rect class="cls-1" x="13.32" y="510.08" width="673.36" height="0.34"/><rect class="cls-1" x="83.97" y="522.9" width="21.63" height="0.34"/><rect class="cls-1" x="243.8" y="519.26" width="72.09" height="0.34"/><rect class="cls-1" x="106.94" y="535.42" width="48.82" height="0.34"/><rect class="cls-1" x="523.92" y="519.08" width="58.17" height="0.34"/><rect class="cls-1" x="594.08" y="519.08" width="8.52" height="0.34"/><rect class="cls-1" x="440.23" y="527.47" width="72.58" height="0.34"/><path class="cls-1" d="M332.49,450h-260a7.69,7.69,0,0,1-7.67-7.69V76.79a7.67,7.67,0,0,1,7.67-7.62h260a7.68,7.68,0,0,1,7.69,7.68h0V442.33A7.69,7.69,0,0,1,332.49,450ZM72.45,69.43a7.36,7.36,0,0,0-7.34,7.36V442.33a7.35,7.35,0,0,0,7.34,7.35h260a7.36,7.36,0,0,0,7.36-7.35V76.79a7.38,7.38,0,0,0-7.36-7.36Z"/><path class="cls-1" d="M623.8,450h-260c-4.23,0-7.69-3.45-7.69,85.36V169.82c0-97.27,3.46-100.72,7.69-100.72h260a7.69,7.69,0,0,1,7.67,7.69V442.33A7.69,7.69,0,0,1,623.8,450Zm-260-380.59c-4,0-7.35,3.3-7.35,100.39V535.38c0-89,3.3-85.7,7.35-85.7h260a7.36,7.36,0,0,0,7.36-7.35V76.79a7.38,7.38,0,0,0-7.36-7.36Z"/><rect class="cls-2" x="417.11" y="102.91" width="181.42" height="318.03"/><path class="cls-2" d="M397.66,96.72H610.27a1.8,1.8,0,0,1,1.8,1.8h0a1.79,1.79,0,0,1-1.8,1.79H397.66a1.79,1.79,0,0,1-1.8-1.79h0A1.8,1.8,0,0,1,397.66,96.72Z"/><rect class="cls-3" x="409.4" y="102.91" width="185.53" height="318.03"/><rect class="cls-4" x="420.18" y="113.69" width="163.96" height="296.47"/><polygon class="cls-5" points="546.93 410.16 483.68 113.69 453.82 113.69 517.08 410.16 546.93 410.16"/><polygon class="cls-5" points="510.65 410.16 447.39 113.69 435.76 113.69 499.02 410.16 510.65 410.16"/><rect class="cls-2" x="420.18" y="113.69" width="1.37" height="296.47"/><g class="cls-6"><rect class="cls-3" x="584.03" y="93.49" width="18.54" height="383.23"/><rect class="cls-2" x="576.8" y="93.49" width="14.45" height="383.23"/><rect class="cls-3" x="565.48" y="93.49" width="18.54" height="383.23"/><rect class="cls-2" x="558.26" y="93.49" width="14.45" height="383.23"/><rect class="cls-3" x="546.93" y="93.49" width="18.54" height="383.23"/></g><g class="cls-6"><rect class="cls-3" x="427.09" y="93.49" width="10.69" height="383.23"/><rect class="cls-2" x="422.93" y="93.49" width="8.32" height="383.23"/><rect class="cls-3" x="416.39" y="93.49" width="10.69" height="383.23"/><rect class="cls-2" x="412.25" y="93.49" width="8.32" height="383.23"/><rect class="cls-3" x="405.7" y="93.49" width="10.69" height="383.23"/></g><rect class="cls-3" x="286.89" y="309.79" width="33.08" height="190.27"/><rect class="cls-3" x="96.48" y="500.05" width="217.15" height="10.03"/><rect class="cls-7" x="90.12" y="309.79" width="196.77" height="190.27"/><rect class="cls-3" x="290.97" y="302.4" width="34.73" height="7.38"/><rect class="cls-4" x="84.38" y="302.4" width="206.6" height="7.38"/><rect class="cls-3" x="103.13" y="388.6" width="170.75" height="36.48"/><rect class="cls-3" x="103.13" y="444.07" width="170.75" height="36.48"/><rect class="cls-7" x="145.16" y="385.04" width="86.68" height="7.12" rx="2.94"/><rect class="cls-3" x="103.13" y="333.03" width="170.75" height="36.48"/><rect class="cls-7" x="145.16" y="329.47" width="86.68" height="7.12" rx="2.94"/><rect class="cls-7" x="145.16" y="441.02" width="86.68" height="7.12" rx="2.94"/><rect class="cls-2" x="98.07" y="94.31" width="96.71" height="124.71"/><rect class="cls-7" x="90.96" y="94.31" width="101.45" height="124.71"/><rect class="cls-5" x="99.16" y="102.51" width="85.03" height="108.29"/><path class="cls-2" d="M122.4,149.65c2.86-6.09,13-14.67,14-17.51s-.27-10.26,1.94-11.31c5.45-2.62,9.43,4.67,9.18,10.59a90.75,90.75,0,0,1-1.09,10.67L167,144h2.31a5.15,5.15,0,0,1,5.24,5.08v.12a5,5,0,0,1-5,4.82h.24a5.15,5.15,0,0,1,5.23,5.06v.12a5,5,0,0,1-5,4.83h-2.29a5,5,0,0,1,5,5,4.44,4.44,0,0,1,0,.63h0a5,5,0,0,1-5,4.37H164a5,5,0,0,1,4.86,6.24,5.13,5.13,0,0,1-5,3.77H134.7a30.45,30.45,0,0,1-16.34-4.83l-.5-.33a3.91,3.91,0,0,1-1.83-3.32V154a3.91,3.91,0,0,1,3.19-3.85Z"/><rect class="cls-3" x="99.16" y="157.23" width="16.87" height="15.23"/><rect class="cls-2" x="229.1" y="140.47" width="96.71" height="124.71"/><rect class="cls-7" x="221.97" y="140.46" width="101.45" height="124.71"/><rect class="cls-5" x="230.18" y="148.68" width="85.03" height="108.29"/><path class="cls-2" d="M292,195.76c-2.86-6.08-13-14.65-14-17.51S278.18,168,276,167c-5.45-2.63-9.36,4.67-9.18,10.59a89.25,89.25,0,0,0,1.09,10.68l-20.53,1.89H245a5.15,5.15,0,0,0-5.22,5.07v.13a5,5,0,0,0,5,4.81h-.25a5.14,5.14,0,0,0-5.22,5.06v.14a5,5,0,0,0,5,4.82h2.29a5,5,0,0,0-5,5,4.44,4.44,0,0,0,0,.63h0a5,5,0,0,0,5,4.37h3.71a5,5,0,0,0-4.86,6.25,5.14,5.14,0,0,0,5,3.77h29.18A30.44,30.44,0,0,0,296,225.39l.49-.33a3.91,3.91,0,0,0,1.81-3.3V200.22a3.92,3.92,0,0,0-3.19-3.86Z"/><rect class="cls-3" x="298.34" y="203.38" width="16.87" height="15.23"/></g><g id="freepik--Shadow--inject-51"><ellipse id="freepik--path--inject-51" class="cls-7" cx="350" cy="555.66" rx="261.12" ry="15.24"/></g><g id="freepik--interaction-design--inject-51"><path class="cls-5" d="M369.62,397.63H290a16.16,16.16,0,0,1-16.4-15.91,16.63,16.63,0,0,1,.11-2.12l8.28-86a20.37,20.37,0,0,1,19.77-18h79.61a16.16,16.16,0,0,1,16.4,15.91,16.63,16.63,0,0,1-.11,2.12l-8.28,86A20.35,20.35,0,0,1,369.62,397.63Z"/><path class="cls-8" d="M369.62,398.37H290a16.83,16.83,0,0,1-17-18.85l8.35-86a21.09,21.09,0,0,1,20.51-18.71h79.6a16.91,16.91,0,0,1,17.05,18.86l-8.29,86A21.06,21.06,0,0,1,369.62,398.37ZM301.76,276.29a19.55,19.55,0,0,0-19,17.35l-8.28,86a15.39,15.39,0,0,0,13.48,17.09,15.8,15.8,0,0,0,2.06.11h79.62a19.52,19.52,0,0,0,19-17.35l8.3-86A15.68,15.68,0,0,0,393,281.37a15.44,15.44,0,0,0-11.64-5Z"/><path class="cls-9" d="M368.07,352.29l-8.82-21.71-2.93-7.23a5.09,5.09,0,0,0-6.51-2.7,6,6,0,0,0-3.89,7.58s0,.07,0,.11l-1.48-3.65A5.07,5.07,0,0,0,338,322h0a6,6,0,0,0-3.88,7.6.32.32,0,0,0,0,.09l-9.88-24.24a5.06,5.06,0,0,0-6.5-2.69,6,6,0,0,0-3.88,7.55c0,.05,0,.09,0,.14l.78,1.92a5.06,5.06,0,0,0-6.5-2.69,6,6,0,0,0-3.89,7.55l.05.14,9.43,23.08,6.31,21.39a17.05,17.05,0,0,1-6.29,0c-6.34-1-15.19,2.19-13.71,8.52.6,2.57,8.85,2.17,11.73,3.74s18.29,7.74,25.71,7.53a4.77,4.77,0,0,0,5.32.81L366,371.36a4.77,4.77,0,0,0,2.49-2.86A23,23,0,0,0,368.07,352.29Z"/><path class="cls-10" d="M370,309.54a.38.38,0,0,1-.21,0l-26-7.54a.75.75,0,0,1,.42-1.44l26,7.51a.77.77,0,0,1,.51.93A.73.73,0,0,1,370,309.54Z"/><polygon class="cls-10" points="346.49 297.3 337.76 299.46 343.98 305.93 346.49 297.3"/><path class="cls-5" d="M542,462.41H423.44a16.15,16.15,0,0,1-16.39-15.93,14.78,14.78,0,0,1,.11-2.1l22.89-238a20.34,20.34,0,0,1,19.76-18H568.32a16.13,16.13,0,0,1,16.28,18l-22.89,238A20.37,20.37,0,0,1,542,462.41Z"/><path class="cls-8" d="M541.94,463.19H423.42a16.89,16.89,0,0,1-17.15-16.62,16.58,16.58,0,0,1,.12-2.23l22.89-238a21.08,21.08,0,0,1,20.54-18.65H568.33a16.87,16.87,0,0,1,17.15,16.62,18.4,18.4,0,0,1-.11,2.23l-22.9,238A21.07,21.07,0,0,1,541.94,463.19ZM449.82,189.13a19.55,19.55,0,0,0-19,17.4l-22.89,238a15.65,15.65,0,0,0,3.9,12.13,15.46,15.46,0,0,0,11.64,5H542a19.55,19.55,0,0,0,19-17.35l22.89-238a15.35,15.35,0,0,0-13.42-17.09,13.63,13.63,0,0,0-2.12-.11Z"/><polygon class="cls-11" points="445.42 462.44 424.82 462.44 490.87 188.38 511.45 188.38 445.42 462.44"/><polygon class="cls-11" points="481.16 462.44 452.12 462.44 518.15 188.38 547.19 188.38 481.16 462.44"/><path class="cls-9" d="M480.94,453.33a8,8,0,0,1-8.13-7.78,8.47,8.47,0,0,1,.05-1.13,9.89,9.89,0,0,1,9.62-8.77,8,8,0,0,1,6,2.6,8.08,8.08,0,0,1,2,6.32A9.86,9.86,0,0,1,480.94,453.33Zm1.56-16.16a8.35,8.35,0,0,0-8.08,7.42,6.65,6.65,0,0,0,1.63,5.16,6.59,6.59,0,0,0,4.93,2.1,8.35,8.35,0,0,0,8.08-7.41,6.51,6.51,0,0,0-6.56-7.29Z"/><path class="cls-8" d="M535.93,463.19v-1.51a19.54,19.54,0,0,0,19-17.34l22.89-238a15.37,15.37,0,0,0-15.56-17.13v-1.52A16.94,16.94,0,0,1,575,193.19a17.17,17.17,0,0,1,4.29,13.34l-22.89,238A21.09,21.09,0,0,1,535.93,463.19Z"/><path class="cls-5" d="M452.62,254H373a16.21,16.21,0,0,1-16.27-18L365,150a20.36,20.36,0,0,1,19.76-18h79.62a16.14,16.14,0,0,1,16.25,18l-8.28,86A20.36,20.36,0,0,1,452.62,254Z"/><path class="cls-8" d="M452.62,254.7H373a16.89,16.89,0,0,1-17.15-16.62,16.67,16.67,0,0,1,.12-2.23l8.28-86a21.1,21.1,0,0,1,20.51-18.7h79.62a16.91,16.91,0,0,1,17.14,16.68,15.84,15.84,0,0,1-.11,2.18l-8.28,86A21.08,21.08,0,0,1,452.62,254.7ZM384.76,132.62a19.56,19.56,0,0,0-19,17.35l-8.28,86a15.6,15.6,0,0,0,3.91,12.19,15.42,15.42,0,0,0,11.63,5h79.62a19.56,19.56,0,0,0,19-17.35l8.28-86A15.6,15.6,0,0,0,476,137.7a15.42,15.42,0,0,0-11.63-5Z"/><path class="cls-10" d="M412.21,169.82a8.79,8.79,0,0,1-8.89-9.83,10.92,10.92,0,0,1,10.62-9.7,8.79,8.79,0,0,1,8.95,8.64,8.18,8.18,0,0,1-.06,1.21A10.92,10.92,0,0,1,412.21,169.82Zm1.73-18a9.43,9.43,0,0,0-9.13,8.34,7.3,7.3,0,0,0,6.36,8.13,7.18,7.18,0,0,0,1,0,9.43,9.43,0,0,0,9.13-8.33,7.32,7.32,0,0,0-6.36-8.14A7.18,7.18,0,0,0,413.94,151.8Z"/><path class="cls-10" d="M411.63,175.84a14.17,14.17,0,0,1-14.42-13.92,13.87,13.87,0,0,1,.1-1.93,17.69,17.69,0,0,1,17.21-15.7,14.3,14.3,0,0,1,10.78,4.61,14.48,14.48,0,0,1,3.59,11.24h0A17.71,17.71,0,0,1,411.63,175.84Zm2.89-30.05a16.16,16.16,0,0,0-15.71,14.35,12.65,12.65,0,0,0,11,14.1,13.57,13.57,0,0,0,1.8.09A16.16,16.16,0,0,0,427.36,160a13,13,0,0,0-3.22-10.08A12.8,12.8,0,0,0,414.52,145.79Zm13.59,14.27Z"/><path class="cls-9" d="M444.39,186.25a6.19,6.19,0,0,0-6.73,5.48l.39-4a4.9,4.9,0,0,0-4.27-5.46h0a6.19,6.19,0,0,0-6.74,5.47l.25-2.52a4.92,4.92,0,0,0-4.28-5.48h0a6.19,6.19,0,0,0-6.73,5.48v.37l2.19-22.9a4.91,4.91,0,0,0-4.27-5.48h0a6.19,6.19,0,0,0-6.73,5.48L405,188.49l-4.32,22.89a14.79,14.79,0,0,1-5.32-2.87c-4.93-3.82-13.91-4.77-15.54,1.83-.65,2.7,6.55,6,8.28,8.77s12.05,15.46,18.45,18.6h0a4.53,4.53,0,0,0,4.32,3.15h24.49a4.66,4.66,0,0,0,3.36-1.47,26.07,26.07,0,0,0,6.94-15.26l1.79-18.69h0l.71-7.43.29-2.93h0l.32-3.35a4.91,4.91,0,0,0-4.29-5.47Zm-17.8,5.47h0l.34-3.52Z"/><path class="cls-9" d="M508.77,330.78a34,34,0,0,0-2.06-6.46l2.19-5.46-9.74-10.77-5.61,1.65a32.48,32.48,0,0,0-6.2-2.69l-2.19-5H469.93l-3.17,5a39.54,39.54,0,0,0-6.73,2.69l-5.29-1.65-11.82,10.77,1.15,5.46a39.31,39.31,0,0,0-3.3,6.46l-5.29,2.69L434,348.71l4.78,2.69a32.4,32.4,0,0,0,2.06,6.46l-2.19,5.46,9.72,10.77,5.61-1.67a31.94,31.94,0,0,0,6.21,2.69l2.18,5h15.24l3.16-5a39.54,39.54,0,0,0,6.73-2.69l5.3,1.67,11.79-10.77-1.13-5.46a40.93,40.93,0,0,0,3.3-6.46l5.28-2.69,1.47-15.24ZM472.07,359a16,16,0,0,1-16.28-15.66,16.52,16.52,0,0,1,.12-2.22,20.2,20.2,0,0,1,19.62-17.9,16,16,0,0,1,16.27,15.67,15.14,15.14,0,0,1-.11,2.23A20.19,20.19,0,0,1,472.07,359Z"/><path class="cls-10" d="M550.46,277.64,547,277.3a19.6,19.6,0,0,0-2.7-3.06h0v-3.5l-8.44-3.61-2.94,2.25h0a22.27,22.27,0,0,0-4.32,0h0l-2.49-2.25L517,270.74l-.67,3.5A27.77,27.77,0,0,0,513,277.3h0l-3.54.34L505,286.35l2,2.7h0a24,24,0,0,0-.42,4.32l-2.5,2.69,2.77,8.7,3.48.34h0a19.53,19.53,0,0,0,2.76,3.06h0v3.51l8.36,3.61,2.94-2.25a20.79,20.79,0,0,0,4.32,0l2.51,2.25,9.05-3.61.67-3.51h0a23.72,23.72,0,0,0,3.35-3.06l3.54-.34,4.45-8.7-2-2.69h0a22.43,22.43,0,0,0,.42-4.32h0l2.5-2.7ZM533.68,307c-9.06,3.61-18.65-.52-21.43-9.24s2.33-18.7,11.4-22.31,18.65.52,21.42,9.24S542.74,303.4,533.68,307Z"/></g><g id="freepik--Character--inject-51"><path class="cls-12" d="M176,275.35l5.48,4-10.37,8.08a34.93,34.93,0,0,1-1.55-8.54,3.27,3.27,0,0,1,3.12-3.38Z"/><path class="cls-12" d="M183.29,289.61l-3.11,2.21a5.54,5.54,0,0,1-7.72-1.31,5.78,5.78,0,0,1-.65-1.2l-.72-1.87,10.37-8.08Z"/><path class="cls-12" d="M257.39,204.13c2.46,6.17,5,12.5,7.54,18.67,1.26,3.1,2.6,6.15,3.92,9.17s2.69,5.94,4.17,8.61a30.29,30.29,0,0,0,2.06,3.34c.92,1.15,1.93,2.37,3,3.59,2.13,2.45,4.4,4.92,6.73,7.41,4.58,4.94,9.24,10,13.76,15.08l-5.11,6a191.65,191.65,0,0,1-17.09-12c-2.7-2.16-5.47-4.4-8.08-6.84-1.35-1.2-2.7-2.51-4-3.91a39.41,39.41,0,0,1-3.83-5.07,159.07,159.07,0,0,1-10.06-19.07c-2.87-6.41-5.48-12.78-7.89-19.4Z"/><path class="cls-12" d="M309.1,278.22l.34-.92a5.3,5.3,0,0,0-2.43-6.41l-2.69-1.48-3.48,9.83,3.53,1.23A3.71,3.71,0,0,0,309.1,278.22Z"/><path class="cls-12" d="M204.76,201.24c-4.15,6.23-8.41,12.5-12.66,18.69l-6.37,9.29-6.15,9.15a9.53,9.53,0,0,0-1.07,3,37.63,37.63,0,0,0-.77,4.83c-.35,3.44-.53,7.06-.57,10.78-.08,7.31.11,14.88.38,22.31l-7.77,1.27a160.71,160.71,0,0,1-4.52-22.9,100.88,100.88,0,0,1-.81-12,58.36,58.36,0,0,1,.39-6.47,25.65,25.65,0,0,1,.67-3.6,19.13,19.13,0,0,1,.62-2,9.57,9.57,0,0,1,.42-1.05l.55-1.15.45-.81.35-.63.7-1.26,1.42-2.54c.95-1.68,1.94-3.32,2.91-5,1.95-3.3,4-6.57,6-9.8,4-6.5,8.29-12.82,12.74-19.1Z"/><path class="cls-10" d="M247.81,156.77c-.27.81,0,1.62.46,1.8s1.16-.31,1.43-1.1a1.5,1.5,0,0,0-.48-1.82C248.75,155.45,248.08,156,247.81,156.77Z"/><path class="cls-13" d="M247.65,158.36a31.93,31.93,0,0,0,1.53,8.28c-1.83.81-4-.69-4-.69Z"/><path class="cls-8" d="M246.58,162.92h-.21a3.52,3.52,0,0,1-2.76-1.54,6.72,6.72,0,0,1-.47-5.8c1.16-3.79,4.5-6.73,7.34-6.61a3.54,3.54,0,0,1,2.76,1.54,6.79,6.79,0,0,1,.47,5.8C252.58,160,249.41,162.92,246.58,162.92Zm3.67-13.27c-2.55,0-5.39,2.69-6.47,6.12a6.15,6.15,0,0,0,.38,5.23,2.86,2.86,0,0,0,2.25,1.25c2.59.16,5.58-2.61,6.65-6.14a6.14,6.14,0,0,0-.37-5.21,2.85,2.85,0,0,0-2.25-1.25Z"/><path class="cls-10" d="M250.53,152a.47.47,0,0,1-.27-.12,3.85,3.85,0,0,0-3.5-.6.52.52,0,0,1-.62-.36.47.47,0,0,1,.3-.59h0a4.89,4.89,0,0,1,4.44.82.49.49,0,0,1,0,.7A.48.48,0,0,1,250.53,152Z"/><path class="cls-12" d="M219.48,159.13c-1.35,8.53-.1,19.38-6.13,23.46,0,0,.93,8.08,15,10.77,15.4,2.88,8.49-6.33,8.49-6.33-8.08-3.6-7-9.84-4.62-15.47Z"/><path class="cls-10" d="M209.24,184.54c-.74-2.69-1.28-6.6,1.35-7,2.91-.45,21,1.49,31,6.82a9.45,9.45,0,0,0-1.55,7.52Z"/><path class="cls-9" d="M148.46,540.35a11.29,11.29,0,0,1-4.12-1.19.26.26,0,0,1-.13-.23.24.24,0,0,1,.16-.21c.13,0,3.32-1.35,4.74-.58a1.17,1.17,0,0,1,.66.75,1,1,0,0,1-.24,1.17A1.77,1.77,0,0,1,148.46,540.35ZM145.11,539c1.45.64,3.54,1.16,4,.7,0,0,.21-.18.08-.63a.71.71,0,0,0-.4-.46,6.66,6.66,0,0,0-3.72.36Z"/><path class="cls-9" d="M144.46,539.17a.25.25,0,0,1-.17-.06.23.23,0,0,1,0-.25c0-.13.9-3,2.29-3.71a1.32,1.32,0,0,1,1.1,0,.84.84,0,0,1,.63.85c0,1.19-2.57,2.92-3.71,3.23Zm2.7-3.67a.86.86,0,0,0-.39.09c-.89.45-1.59,2.1-1.89,2.92,1.2-.52,2.85-1.88,2.9-2.6a.42.42,0,0,0-.31-.36.8.8,0,0,0-.34,0Z"/><path class="cls-9" d="M240.69,545a18.51,18.51,0,0,1-3.24-.3.29.29,0,0,1-.2-.2.3.3,0,0,1,.12-.26c.53-.31,5.19-3,6.32-1.13a1,1,0,0,1,0,1.09C243.31,544.79,242,545,240.69,545Zm-2.44-.68c2,.29,4.63.26,5.08-.4a.6.6,0,0,0,0-.55c-.7-1-3.53.15-5.11.95Z"/><path class="cls-9" d="M237.51,544.68a.19.19,0,0,1-.15,0,.26.26,0,0,1-.11-.21c0-.13.18-3,1.47-4a1.81,1.81,0,0,1,1.35-.45c.7.08.9.43,1,.72.2,1.21-2.19,3.43-3.44,4Zm2.38-4.25a1.28,1.28,0,0,0-.85.33,5.7,5.7,0,0,0-1.25,3.23c1.27-.76,2.88-2.51,2.69-3.25,0,0,0-.25-.49-.3Z"/><polygon class="cls-12" points="225.97 544.44 236.46 544.44 236.56 520.14 226.07 520.14 225.97 544.44"/><polygon class="cls-12" points="132.8 536.01 142.98 538.57 153.11 516.06 142.93 513.5 132.8 536.01"/><path class="cls-10" d="M144,537.56l-11.43-2.87a.87.87,0,0,0-1,.48l-3.94,8.64a1.59,1.59,0,0,0,.81,2.09,1.18,1.18,0,0,0,.3.1c4,.93,6,1.19,11,2.45,3.1.78,9.43,2.7,13.67,3.77s5.74-3,4-3.88c-7.47-3.7-9.92-6.82-12-9.73A2.66,2.66,0,0,0,144,537.56Z"/><path class="cls-10" d="M236.34,543.21H224.88a.88.88,0,0,0-.87.72l-1.71,9.32a1.61,1.61,0,0,0,1.31,1.85l.27,0c4.13-.07,10.1-.31,15.3-.31,6.07,0,8.55.32,15.67.32,4.3,0,5.39-4.35,3.52-4.74-8.28-1.8-12.2-2-19.48-6.37A4.93,4.93,0,0,0,236.34,543.21Z"/><path class="cls-9" d="M201.32,181.86c-10,.43-25,24.89-25,24.89l17.51,17a157.71,157.71,0,0,0,16.07-19.55C217.35,193.16,211.54,181.43,201.32,181.86Z"/><path class="cls-14" d="M201.32,181.86c-10,.43-25,24.89-25,24.89l17.51,17a157.71,157.71,0,0,0,16.07-19.55C217.35,193.16,211.54,181.43,201.32,181.86Z"/><path class="cls-15" d="M205.52,199.64,192.7,222.53l.82.81s4.8-4.88,10.23-11.64Z"/><path class="cls-9" d="M249,239.36c-2.24,11.51-5.62,25.69-10.66,43.1l-55.21-10.34c.8-7.94,10.65-43.1,10.42-81.3a9.28,9.28,0,0,1,9.2-9.37l.62,0c2.69.16,5.75.43,8.7.83a209.86,209.86,0,0,1,23.46,4.43A109.28,109.28,0,0,1,251,192.59s3.77,6,.7,30.24C251,227.61,250.15,233.09,249,239.36Z"/><path class="cls-16" d="M249,239.36c-2.24,11.51-5.62,25.69-10.66,43.1l-55.21-10.34c.8-7.94,10.65-43.1,10.42-81.3a9.28,9.28,0,0,1,9.2-9.37l.62,0c2.69.16,5.75.43,8.7.83a209.86,209.86,0,0,1,23.46,4.43A109.28,109.28,0,0,1,251,192.59s3.77,6,.7,30.24C251,227.61,250.15,233.09,249,239.36Z"/><path class="cls-17" d="M249,239.36c-4.39-3-8.09-16.28-6-23.08l8.65,6.55C251,227.61,250.15,233.09,249,239.36Z"/><path class="cls-9" d="M238,199.21c-3.23,9.42,13.05,38.24,13.05,38.24l21.17-10S268,213.05,261,201.82C253.1,189.35,241.62,188.55,238,199.21Z"/><path class="cls-16" d="M238,199.21c-3.23,9.42,13.05,38.24,13.05,38.24l21.17-10S268,213.05,261,201.82C253.1,189.35,241.62,188.55,238,199.21Z"/><polygon class="cls-15" points="236.56 520.14 236.51 532.67 226.01 532.67 226.06 520.14 236.56 520.14"/><polygon class="cls-15" points="142.91 513.5 153.09 516.06 147.88 527.67 137.7 525.11 142.91 513.5"/><path class="cls-12" d="M221.9,145.24c-2.69,10.1-4.69,15.87-1.43,22.77a13.54,13.54,0,0,0,24,1.35c5-8.08,8.49-23.27.23-30.74a13.68,13.68,0,0,0-22.77,6.62Z"/><path class="cls-10" d="M239.12,155.36c2.48.17,7.79-3.45,8.08-6.82,2.62-1.49,7-3.43,7.68-6.57s1.82-14.52-4.83-12.2-5.46-1.05-11.71-2.47-7.74,1.79-13.25,1.88-3.11,5.6-3.11,5.6c-5.68-1.79-11,3.45-7.77,7.49s-2.3,4.21-1.19,9.73,5,12.49.81,11.36-1.64,8.08,10.55,7.71S241.36,158.51,239.12,155.36Z"/><polygon class="cls-8" points="253.28 156.53 239.21 151.91 239.41 151.28 253.49 155.89 253.28 156.53"/><path class="cls-12" d="M235.12,154a12.36,12.36,0,0,0,1.35,7.55c1.66,3.05,2.29,3.18,3.35.29,1-2.7,3.26-8.43.88-10.51S235.64,150.86,235.12,154Z"/><path class="cls-18" d="M218.69,278.84s-10.1,78.89-15.48,108.92c-5.89,32.9-50.14,138.71-50.14,138.71l-18.55-4.67s34.59-98.49,37.42-131c3.07-35.35,5.29-93.45,11.2-118.59Z"/><path class="cls-9" d="M157.55,520.32c.08,0-3.45,6.73-3.45,6.73l-20.92-5.28,1.75-6.35Z"/><path class="cls-15" d="M211.93,307.54a4.6,4.6,0,0,1,1.81,0C211,332.13,207,365,204,383.75,201.39,356.4,199,310.08,211.93,307.54Z"/><path class="cls-18" d="M238.22,282.5S243.61,356,243.61,388c.09,33.28-3.31,142.25-3.31,142.25H222.52s-8.8-107-10.84-139.72C209.44,354.89,202,275.7,202,275.7Z"/><path class="cls-12" d="M293.07,272.13l1.35-2.07a18.67,18.67,0,0,1,10.34-.53l-3.9,9.72L294.7,277a3.27,3.27,0,0,1-2-4.17A3.3,3.3,0,0,1,293.07,272.13Z"/><path class="cls-9" d="M243.47,523.16c.08,0-.71,7.38-.71,7.38H221.13L220.3,524Z"/></g></g></svg>