<svg xmlns="http://www.w3.org/2000/svg" viewBox="0 0 700 640"><defs><style>.cls-1{fill:#ececec;}.cls-2{fill:#1a2e35;}.cls-3{fill:#fff;}.cls-4{opacity:0.1;}.cls-5{fill:#1c7c70;}.cls-6{fill:#054641;}.cls-7{fill:#e1e1e1;}.cls-8{fill:#02dfdf;}.cls-9{opacity:0.5;}.cls-10{fill:#375a64;}.cls-11{fill:#ffbe9d;}.cls-12{fill:#eb996e;}.cls-13{opacity:0.6;}</style></defs><title>Illustration</title><g id="Layer_13" data-name="Layer 13"><rect class="cls-1" x="76.03" y="379.79" width="58.18" height="9.22"/><rect class="cls-1" x="76.03" y="413.34" width="58.18" height="9.22"/><rect class="cls-1" x="76.03" y="397.16" width="29.09" height="9.22"/><path class="cls-2" d="M650.91,610.61c0,.19-134.19.34-299.68.34s-299.71-.15-299.71-.34,134.16-.34,299.71-.34S650.91,610.42,650.91,610.61Z"/><rect class="cls-3" x="120.39" y="29.34" width="430.71" height="332.2"/><g class="cls-4"><rect class="cls-5" x="145.69" y="239.48" width="369.98" height="11.14"/></g><g class="cls-4"><rect class="cls-5" x="145.51" y="224.71" width="369.98" height="11.14"/></g><g class="cls-4"><rect class="cls-5" x="145.51" y="209.74" width="369.98" height="11.14"/></g><g class="cls-4"><rect class="cls-5" x="145.51" y="194.77" width="369.98" height="11.14"/></g><g class="cls-4"><rect class="cls-5" x="145.69" y="254.78" width="369.98" height="11.14"/></g><g class="cls-4"><rect class="cls-5" x="145.69" y="269.21" width="369.98" height="11.14"/></g><g class="cls-4"><rect class="cls-5" x="145.69" y="284.22" width="369.98" height="11.14"/></g><g class="cls-4"><rect class="cls-5" x="145.69" y="298.51" width="369.98" height="11.14"/></g><g class="cls-4"><rect class="cls-5" x="145.69" y="312.23" width="369.98" height="11.14"/></g><g class="cls-4"><rect class="cls-5" x="145.69" y="327.83" width="369.98" height="11.14"/></g><rect class="cls-6" x="120.39" y="29.01" width="431.14" height="24.73"/><path class="cls-2" d="M150.53,79.31h-2.67v-1h6.44v1h-2.67v6.81h-1.1Z"/><path class="cls-2" d="M154.19,83.18a3.06,3.06,0,1,1,3.06,3A2.93,2.93,0,0,1,154.19,83.18Zm5,0a2,2,0,1,0-2,2.08A1.93,1.93,0,0,0,159.23,83.18Z"/><path class="cls-2" d="M164.27,80.93a.75.75,0,1,1,1.49,0,.75.75,0,1,1-1.49,0Zm0,4.49a.75.75,0,1,1,1.49,0,.75.75,0,1,1-1.49,0Z"/><path class="cls-2" d="M145.7,124.94l.41-.85a4,4,0,0,0,2.54.89c1.33,0,1.9-.52,1.9-1.19,0-1.88-4.66-.69-4.66-3.55,0-1.19.92-2.2,3-2.2a4.52,4.52,0,0,1,2.47.68l-.36.88a4,4,0,0,0-2.11-.63c-1.31,0-1.87.55-1.87,1.22,0,1.88,4.66.71,4.66,3.53,0,1.18-.95,2.19-3,2.19A4.59,4.59,0,0,1,145.7,124.94Z"/><path class="cls-2" d="M158.5,120v5.83h-1v-.88a2.36,2.36,0,0,1-2,1,2.29,2.29,0,0,1-2.5-2.54V120h1v3.24c0,1.14.57,1.71,1.58,1.71a1.71,1.71,0,0,0,1.8-1.93v-3Z"/><path class="cls-2" d="M166.54,122.91a2.84,2.84,0,0,1-2.94,3,2.46,2.46,0,0,1-2.08-1v.92h-1v-8.16h1.05v3.21a2.51,2.51,0,0,1,2-.93A2.83,2.83,0,0,1,166.54,122.91Zm-1.06,0a2,2,0,1,0-2,2.06A1.93,1.93,0,0,0,165.48,122.91Z"/><path class="cls-2" d="M166,127.67l.34-.81a1.36,1.36,0,0,0,.86.27c.56,0,.86-.35.86-1V120h1.06v6.1a1.74,1.74,0,0,1-1.86,1.93A2.06,2.06,0,0,1,166,127.67Zm1.88-9.48a.7.7,0,0,1,.71-.69.69.69,0,1,1,0,1.37A.68.68,0,0,1,167.87,118.19Z"/><path class="cls-2" d="M176.36,123.26h-4.73a2,2,0,0,0,2.12,1.71,2.19,2.19,0,0,0,1.68-.71l.58.68a3.17,3.17,0,0,1-5.43-2,2.85,2.85,0,0,1,2.92-3,2.81,2.81,0,0,1,2.89,3C176.39,123,176.37,123.16,176.36,123.26Zm-4.73-.76h3.74a1.88,1.88,0,0,0-3.74,0Z"/><path class="cls-2" d="M177.3,122.91a2.91,2.91,0,0,1,3.08-3,2.62,2.62,0,0,1,2.38,1.24l-.81.52a1.81,1.81,0,0,0-1.58-.84,2.06,2.06,0,0,0,0,4.11,1.81,1.81,0,0,0,1.58-.84l.81.51a2.62,2.62,0,0,1-2.38,1.25A2.92,2.92,0,0,1,177.3,122.91Z"/><path class="cls-2" d="M187.47,125.48a2,2,0,0,1-1.28.41,1.67,1.67,0,0,1-1.85-1.83v-3.2h-1V120h1v-1.27h1.06V120h1.67v.87H185.4V124a.86.86,0,0,0,.91,1,1.32,1.32,0,0,0,.83-.28Z"/><path class="cls-2" d="M191.07,120.72a.74.74,0,0,1,.75-.75.75.75,0,0,1,0,1.5A.74.74,0,0,1,191.07,120.72Zm0,4.44a.74.74,0,0,1,.75-.75.73.73,0,0,1,.73.75.73.73,0,0,1-.73.76A.74.74,0,0,1,191.07,125.16Z"/><path class="cls-3" d="M135.55,41.37a2.68,2.68,0,1,1-2.68-2.68A2.68,2.68,0,0,1,135.55,41.37Z"/><path class="cls-3" d="M145.08,41.37a2.68,2.68,0,1,1-2.68-2.68A2.68,2.68,0,0,1,145.08,41.37Z"/><path class="cls-3" d="M154.61,41.37a2.68,2.68,0,1,1-2.68-2.68A2.68,2.68,0,0,1,154.61,41.37Z"/><path class="cls-2" d="M221,172.31s0-.11,0-.31l0-.89c0-.8,0-1.93,0-3.37,0-3-.07-7.23-.11-12.61l.19.2-77.28.14h0c.68-.68.19-.18.34-.33h0v8.71q0,4.31,0,8.46l-.33-.34,55,.15,16.3.1,4.4,0,1.16,0,.4,0-.36,0-1.11,0-4.34,0-16.21.1-55.26.15h-.34v-17.5h0c.15-.16-.34.33.34-.35h0l77.28.15h.2v.19c-.05,5.43-.08,9.73-.11,12.72,0,1.43,0,2.54,0,3.34,0,.35,0,.62,0,.84A.84.84,0,0,1,221,172.31Z"/><path class="cls-2" d="M268.72,172.31a1.62,1.62,0,0,1,0-.33c0-.25,0-.54,0-.91,0-.84,0-2-.06-3.44,0-3-.08-7.26-.13-12.5l.24.24-42.3.1.34-.34h0v4.44c0,1.47,0,2.93,0,4.37,0,2.87,0,5.66,0,8.34l-.32-.33,30.23.15,8.83.09,2.39.05a5.55,5.55,0,0,1,.85,0s-.25,0-.78,0l-2.31,0-8.75.09-30.46.15h-.33v-.32c0-2.68,0-5.47,0-8.34,0-1.44,0-2.9,0-4.37v-4.44h0c-.07.08.65-.64.35-.34l42.3.1H269v.24c-.06,5.3-.1,9.6-.13,12.65,0,1.42-.05,2.55-.06,3.38S268.73,172.32,268.72,172.31Z"/><path class="cls-2" d="M151.66,161.5h-2.78v-1h6.71v1h-2.78v7.1h-1.15Z"/><path class="cls-2" d="M156.34,160.56a.74.74,0,0,1,.76-.73.73.73,0,1,1-.76.73Zm.2,1.9h1.11v6.14h-1.11Z"/><path class="cls-2" d="M163.22,168.24a2.07,2.07,0,0,1-1.34.43,1.75,1.75,0,0,1-1.95-1.92v-3.37h-1v-.92h1v-1.34H161v1.34h1.77v.92H161v3.32a.91.91,0,0,0,1,1,1.4,1.4,0,0,0,.87-.29Z"/><path class="cls-2" d="M164.56,160h1.12v8.59h-1.12Z"/><path class="cls-2" d="M173.32,165.9h-5a2.08,2.08,0,0,0,2.22,1.8,2.3,2.3,0,0,0,1.78-.74l.61.72a3.11,3.11,0,0,1-2.42,1,3.07,3.07,0,0,1-3.3-3.14,3,3,0,0,1,3.08-3.12,3,3,0,0,1,3,3.16C173.34,165.66,173.33,165.8,173.32,165.9Zm-5-.8h3.94a2,2,0,0,0-3.94,0Z"/><polygon class="cls-2" points="208.7 162.98 216.06 162.98 212.38 166.66 208.7 162.98"/><polygon class="cls-2" points="255.41 162.98 262.77 162.98 259.09 166.66 255.41 162.98"/><path class="cls-7" d="M537.09,346.54c0-2-.09-76.55-.25-199.54l.25.25-400.9.09h0l.34-.34c0,70.33,0,137.84,0,199.54l-.32-.32,400.93.32-400.93.32h-.32v-.32c0-61.7,0-129.21,0-199.54v-.34h.37l400.9.08h.26V147C537.19,270,537.1,344.53,537.09,346.54Z"/><path class="cls-7" d="M537.09,139.38s0-.78,0-2.26,0-3.71,0-6.6c0-5.78,0-14.29-.08-25.27l.13.14-401.52.21h0l.34-.35v34.13l-.34-.34,285,.14,85.33.1,23.11.05,6,0c1.36,0,2.06,0,2.06,0l-2,0-6,0-23,0-85.25.1-285.28.15h-.34V104.91h.36l401.52.21h.14v.13c0,11-.06,19.55-.08,25.35q0,4.32,0,6.56C537.11,138.64,537.09,139.38,537.09,139.38Z"/><path class="cls-7" d="M537.09,98.05s0-.78,0-2.27,0-3.7,0-6.59c0-5.78,0-14.3-.08-25.27l.13.13-401.52.21h0l.34-.34V98l-.34-.34,285,.15,85.33.1L529,98l6,0,2.06,0-2,0-6,0-23,0-85.25.1-285.28.15h-.34V63.58h.36l401.52.21h.14v.13c0,11-.06,19.55-.08,25.35,0,2.87,0,5.07,0,6.56S537.09,98.05,537.09,98.05Z"/><path class="cls-2" d="M432.72,156.66a2.47,2.47,0,0,0-2.54,2.26h0v8.89h0a3.59,3.59,0,0,0,7.07,0h0v-7.16h-.69v6.86a2.86,2.86,0,0,1-5.71,0V159a1.86,1.86,0,0,1,3.7,0v7.22h0a1.07,1.07,0,0,1-2.05,0v-5.55h-.69V166h0v.26h0a1.73,1.73,0,0,0,3.38,0h0v-.15s0-.07,0-.12h0v-7h0A2.45,2.45,0,0,0,432.72,156.66Z"/><rect class="cls-2" x="329.06" y="160.58" width="10.11" height="1.6"/><rect class="cls-2" x="329.06" y="166.41" width="10.11" height="1.6"/><rect class="cls-2" x="329.06" y="163.6" width="5.05" height="1.6"/><rect class="cls-2" x="367.01" y="160.58" width="10.11" height="1.6"/><rect class="cls-2" x="367.01" y="166.41" width="10.11" height="1.6"/><rect class="cls-2" x="372.06" y="163.6" width="5.05" height="1.6"/><rect class="cls-2" x="348.3" y="160.58" width="10.11" height="1.6"/><rect class="cls-2" x="348.3" y="166.41" width="10.11" height="1.6"/><rect class="cls-2" x="348.3" y="163.6" width="10.11" height="1.6"/><polygon class="cls-2" points="402.42 167.48 394.16 167.48 394.16 160.69 398.44 160.69 398.44 162.13 395.59 162.13 395.59 166.05 400.99 166.05 400.99 164.62 402.42 164.62 402.42 167.48"/><polygon class="cls-2" points="407.19 167.48 403.67 167.48 403.67 166.05 405.76 166.05 405.76 162.13 400.36 162.13 400.36 163.95 398.93 163.95 398.93 160.69 407.19 160.69 407.19 167.48"/><polygon class="cls-2" points="410.54 163.55 414.94 163.55 412.74 165.6 410.54 163.55"/><path class="cls-2" d="M311,164.25v-3.81h1.25v3.76c0,1.39.63,2,1.72,2s1.7-.59,1.7-2v-3.76h1.24v3.81a3,3,0,1,1-5.91,0Z"/><path class="cls-2" d="M299.66,159.68h1.13l-1.58,7.88h-1.12Z"/><path class="cls-2" d="M289.06,165.4c0,1.36-1.13,2.16-3.24,2.16h-4.26v-7.88h4c2.07,0,3.09.84,3.09,2.06a1.86,1.86,0,0,1-1.06,1.71A2,2,0,0,1,289.06,165.4Zm-5.29-4.11v1.52h1.53c.74,0,1.13-.26,1.13-.77s-.39-.75-1.13-.75Zm3,3.86c0-.54-.41-.8-1.17-.8h-1.87V166h1.87C286.4,166,286.81,165.69,286.81,165.15Z"/><path class="cls-7" d="M323,172.78c-.19,0-.34-4.06-.34-9.06s.15-9.06.34-9.06.34,4.06.34,9.06S323.14,172.78,323,172.78Z"/><path class="cls-7" d="M383,172.78c-.19,0-.34-4.06-.34-9.06s.15-9.06.34-9.06.34,4.06.34,9.06S383.2,172.78,383,172.78Z"/><path class="cls-7" d="M419.35,173.15c-.19,0-.34-4.06-.34-9.06s.15-9.06.34-9.06.34,4.05.34,9.06S419.53,173.15,419.35,173.15Z"/><path class="cls-7" d="M446.92,172.61c-.19,0-.34-4.06-.34-9.06s.15-9.06.34-9.06.34,4,.34,9.06S447.11,172.61,446.92,172.61Z"/><path class="cls-2" d="M318.29,168.19c0,.19-1.82.34-4.06.34s-4.07-.15-4.07-.34,1.82-.34,4.07-.34S318.29,168,318.29,168.19Z"/><path class="cls-2" d="M238.84,159.68v7.88h-1.12v-6.9H236v-1Z"/><path class="cls-2" d="M246.1,166.58v1h-5.66v-.76l3.21-3.1c.83-.81,1-1.31,1-1.8,0-.81-.58-1.31-1.68-1.31a2.48,2.48,0,0,0-2,.86l-.76-.67a3.64,3.64,0,0,1,2.88-1.19c1.64,0,2.7.84,2.7,2.19a3.18,3.18,0,0,1-1.29,2.48l-2.41,2.32Z"/><path class="cls-7" d="M537.09,181.3c0,.19-89.91.34-200.79.34s-200.81-.15-200.81-.34S225.38,181,336.3,181,537.09,181.11,537.09,181.3Z"/><path class="cls-6" d="M551.1,361.54c0-2.34-.11-131.54-.28-332.2l.28.28-430.68.06h0l.34-.34c0,119.67,0,232.88,0,332.2l-.3-.31,430.71.31-430.71.3h-.31v-.3c0-99.32,0-212.53,0-332.2V29h.37l430.68.06h.28v.28C551.21,230,551.1,359.2,551.1,361.54Z"/><path class="cls-6" d="M382.73,132.49v28.57a9.54,9.54,0,0,0,9.54,9.54h34.92a3.32,3.32,0,0,1,2.61,1.27l8.57,18.68,10.33-18.38a3.34,3.34,0,0,1,2.47-1.11h36.65a9.54,9.54,0,0,0,9.54-9.54V132.31a9.54,9.54,0,0,0-9.55-9.54l-95.56.18A9.54,9.54,0,0,0,382.73,132.49Z"/><path class="cls-3" d="M406.71,157.17h-6v-5.64l13.76-15,.28-.07c1.93-.53,3.42-.31,4.46.64,1.74,1.59,1.27,4.52,1.21,4.85l-.05.28Zm-4-2h3.13l12.69-13.89a3.61,3.61,0,0,0-.64-2.78,2.53,2.53,0,0,0-2.33-.25l-12.85,14Z"/><path class="cls-3" d="M445.64,153.37v1.95H434.28V139.67h11.05v1.94h-8.81v4.81h7.84v1.9h-7.84v5.05Z"/><path class="cls-3" d="M460,138.73v16.59h-2.06v-1.88a5,5,0,0,1-4.22,2,6.05,6.05,0,0,1,0-12.1,5,5,0,0,1,4.14,1.91v-6.53Zm-2.12,10.66a4,4,0,1,0-4,4.18A3.9,3.9,0,0,0,457.86,149.39Z"/><path class="cls-3" d="M463.68,139.8a1.42,1.42,0,0,1,1.45-1.41,1.39,1.39,0,0,1,1.46,1.37,1.46,1.46,0,0,1-2.91,0Zm.38,3.67h2.15v11.85h-2.15Z"/><path class="cls-3" d="M477,154.62a4,4,0,0,1-2.6.83c-2.39,0-3.75-1.32-3.75-3.71v-6.51h-2v-1.76h2v-2.6h2.14v2.6h3.4v1.76h-3.4v6.42a1.74,1.74,0,0,0,1.86,2,2.7,2.7,0,0,0,1.68-.56Z"/><path class="cls-8" d="M176,574c-3.43-.17-4.44-5-3.16-8.2s3.8-6,3.83-9.45c0-3-1.86-5.68-2-8.65-.33-5.37,4.86-9.74,5.08-15.1.17-4.19-2.74-8.17-2-12.3.75-4.43,5.37-7.34,6.43-11.71,1.13-4.65-2.09-9.57-.86-14.19s6.66-8,5.89-12.69c-.26-1.55-1.2-2.91-1.62-4.43-1-3.51.95-7.17,3.27-10s5.16-5.29,6.6-8.64c2.2-5.14.67-11.4,3.27-16.35,2.17-4.12,7-6.9,7.6-11.52,2.44,4.16.05,9.45.61,14.24.36,3.12,2,5.94,3,8.92a23.26,23.26,0,0,1-1.82,18.6c-2.1,3.68-5.33,7.16-5.17,11.39.2,5.13,5.33,8.85,6.24,13.9,1.3,7.23-6.4,13.73-5.34,21,.28,1.88,1.14,3.64,1.3,5.53.54,6.42-6.74,11-7.85,17.3-.81,4.68,1.89,9.5.77,14.11-.86,3.56-3.93,6.74-3.17,10.32.32,1.55,1.34,2.86,2,4.32a8.24,8.24,0,0,1-1.29,8.51,7.15,7.15,0,0,1-8.28,1.7"/><g class="cls-9"><path class="cls-3" d="M198.76,570.39c-.62-1.46-1.64-2.77-2-4.32-.76-3.58,2.31-6.76,3.17-10.32,1.12-4.61-1.58-9.43-.77-14.11,1.11-6.34,8.39-10.88,7.85-17.3-.16-1.89-1-3.65-1.3-5.53-1.06-7.26,6.64-13.76,5.34-21-.91-5.05-6-8.77-6.24-13.9-.16-4.23,3.07-7.71,5.17-11.39a23.26,23.26,0,0,0,1.82-18.6c-1-3-2.61-5.8-3-8.92-.56-4.79,1.83-10.08-.61-14.24-.61,4.62-5.43,7.4-7.6,11.52-2.6,4.95-1.07,11.21-3.27,16.35-1.44,3.35-4.28,5.84-6.6,8.64s-4.24,6.47-3.27,10c.42,1.52,1.36,2.88,1.62,4.43.77,4.71-4.66,8.09-5.89,12.69s2,9.54.86,14.19c-1.06,4.37-5.68,7.28-6.43,11.71-.71,4.13,2.2,8.11,2,12.3-.22,5.36-5.41,9.73-5.08,15.1.18,3,2.07,5.67,2,8.65,0,3.43-2.56,6.27-3.83,9.45s-.27,8,3.16,8.2l13.19,6.62a7.15,7.15,0,0,0,8.28-1.7A8.24,8.24,0,0,0,198.76,570.39Z"/></g><path class="cls-8" d="M194.28,567.25a9.42,9.42,0,0,1-1.32-5.08c.35-2,3.67-3.68,4.49-7,1.07-4.32-.86-12,0-16.31,1.11-5.92,7.24-9.81,7-15.69-.08-1.73.17-6.35,0-8-.66-6.62,5.16-11.07,4.31-17.64-.59-4.59-5.35-10-5.36-14.68,0-3.89,2.79-7.3,4.64-10.83a24.32,24.32,0,0,0,2.1-17.24c-.73-2.68-2-5.17-2.19-8-.31-4.38,1.84-9.41-.06-13.07-.65,4.29-4.73,7.16-6.65,11.09-2.32,4.73-1.24,10.4-3.23,15.27-1.29,3.18-3.73,5.66-5.74,8.39s-3.71,6.23-3,9.39c.3,1.38,1,2.57,1.2,4,.49,4.29-4.11,7.75-5.28,12.07s1.35,8.66.27,13c-1,4.09-5,9.65-5.78,13.77-.72,3.85,2.77,6.35,2.5,10.22-.36,4.95-5.32,10.95-5.22,15.87,0,2.72,2.33,3.6,2.22,6.34-.14,3.16-2.79,9.45-4,12.46A8.56,8.56,0,0,0,176,574l14.73,7.31C197.31,578.15,197,571.76,194.28,567.25Z"/><path class="cls-2" d="M204.19,456a2,2,0,0,1,0,.32c0,.25,0,.57,0,1,0,.84,0,2.09-.15,3.68a18.35,18.35,0,0,1-1.33,5.69c-.87,2.16-2.7,4.1-4.44,6.32a11.65,11.65,0,0,0-2.09,3.85,12.85,12.85,0,0,0-.54,4.72c.16,3.32,1.18,6.79,1.67,10.56a16.17,16.17,0,0,1-.19,5.87,11.6,11.6,0,0,1-1.15,2.84,26,26,0,0,0-1.56,2.58c-.84,1.81-.51,3.94-.09,6,.22,1,.45,2.09.57,3.18a12.73,12.73,0,0,1-.08,3.32,26.13,26.13,0,0,1-2,6.19,52.18,52.18,0,0,0-2.28,5.79,15.12,15.12,0,0,0-.51,5.89,26,26,0,0,1,.21,5.84,17.57,17.57,0,0,1-1.86,5.26,21,21,0,0,0-1.86,4.78c-.62,3.26.3,6.38.24,9.27a24.78,24.78,0,0,1-1.7,7.54,26.32,26.32,0,0,0-1.43,5.6,8,8,0,0,0,.37,3.59c.3.77.53,1.16.49,1.17a6.82,6.82,0,0,1-.6-1.13,7.77,7.77,0,0,1-.49-3.65,25.75,25.75,0,0,1,1.35-5.68,25,25,0,0,0,1.59-7.45c0-1.41-.2-2.89-.36-4.44a16.89,16.89,0,0,1,.06-4.91c.64-3.42,3.14-6.34,3.66-10a25.83,25.83,0,0,0-.23-5.72,15.66,15.66,0,0,1,.52-6.1c1.13-4,3.57-7.66,4.28-11.91a12.4,12.4,0,0,0,.08-3.16c-.12-1-.35-2.09-.56-3.13-.42-2-.8-4.32.13-6.33a27,27,0,0,1,1.6-2.65,10.35,10.35,0,0,0,1.09-2.68,15.43,15.43,0,0,0,.2-5.66c-.46-3.71-1.48-7.21-1.62-10.61a13.56,13.56,0,0,1,.59-4.88,12.18,12.18,0,0,1,2.2-4c1.79-2.24,3.6-4.11,4.47-6.2a18.64,18.64,0,0,0,1.4-5.58c.18-1.58.22-2.82.26-3.66,0-.39,0-.71.05-1A1,1,0,0,1,204.19,456Z"/><path class="cls-8" d="M155,575.66c-4.8.7-7.52-5.73-6.62-10.49s3.62-9.38,2.72-14.14c-.77-4.14-4.13-7.37-5.19-11.44-1.93-7.34,4-14.81,2.89-22.31-.91-5.84-6-10.57-6.18-16.48-.17-6.34,5.44-11.64,5.71-18,.29-6.75-5.52-12.68-5.08-19.42s7-12.89,4.68-19.19c-.78-2.09-2.45-3.72-3.45-5.71-2.31-4.59-.66-10.19,1.79-14.71S151.93,415,153,410c1.65-7.73-2.19-16,.06-23.56,1.88-6.3,7.8-11.47,7.37-18,4.53,5.09,2.67,13.07,4.75,19.56,1.36,4.23,4.37,7.69,6.56,11.55a32.8,32.8,0,0,1,2.57,26.26c-1.9,5.67-5.42,11.38-4,17.2,1.68,7.05,9.8,10.79,12.44,17.54,3.78,9.66-5.11,20.78-1.64,30.55.89,2.52,2.56,4.73,3.3,7.3,2.52,8.75-6.33,17-6.13,26.13.16,6.69,5.22,12.64,4.94,19.34-.22,5.15-3.6,10.41-1.58,15.16.88,2.06,2.65,3.59,3.9,5.44a11.62,11.62,0,0,1,.55,12.15,10.11,10.11,0,0,1-11,4.62"/><g class="cls-9"><path class="cls-3" d="M185.5,564.45c-1.25-1.85-3-3.38-3.9-5.44-2-4.75,1.36-10,1.58-15.16.28-6.7-4.78-12.65-4.94-19.34-.2-9.1,8.65-17.38,6.13-26.13-.74-2.57-2.41-4.78-3.3-7.3-3.47-9.77,5.42-20.89,1.64-30.55C180.07,453.78,172,450,170.27,443c-1.39-5.82,2.13-11.53,4-17.2a32.8,32.8,0,0,0-2.57-26.26c-2.19-3.86-5.2-7.32-6.56-11.55-2.08-6.49-.22-14.47-4.75-19.56.43,6.56-5.49,11.73-7.37,18C150.8,394,154.64,402.28,153,410c-1.06,5-4.32,9.26-6.77,13.78s-4.1,10.12-1.79,14.71c1,2,2.67,3.62,3.45,5.71,2.36,6.3-4.23,12.47-4.68,19.19s5.37,12.67,5.08,19.42c-.27,6.34-5.88,11.64-5.71,18,.16,5.91,5.27,10.64,6.18,16.48,1.17,7.5-4.82,15-2.89,22.31,1.06,4.07,4.42,7.3,5.19,11.44.9,4.76-1.83,9.38-2.72,14.14s1.82,11.19,6.62,10.49L175,581.22a10.1,10.1,0,0,0,11-4.62A11.62,11.62,0,0,0,185.5,564.45Z"/></g><path class="cls-8" d="M178.44,561.33c-1.32-1.45-3.18-4.66-3.22-6.67-.05-2.81,4.08-6.11,4.31-10.95.3-6.27-4.47-16.33-4.52-22.59-.08-8.5,7.34-15.57,5.38-23.65-.57-2.37-1.5-8.84-2.2-11.16-2.72-9,4.12-16.74,1.14-25.61-2.07-6.2-10.15-12.35-11.44-18.88-1.07-5.38,1.86-10.87,3.46-16.27a34.35,34.35,0,0,0-1.82-24.46c-1.75-3.51-4.16-6.62-5.22-10.51-1.63-6,0-13.53-3.66-18.1.27,6.13-4.6,11.22-6.19,17.2-1.91,7.19,1.13,14.74-.29,22-.92,4.75-3.61,8.85-5.65,13.19s-3.44,9.65-1.61,13.84c.79,1.82,2.13,3.27,2.75,5.19,1.85,5.8-3.57,11.86-4,18.16s4.24,11.62,3.94,17.95c-.29,5.95-4.31,14.74-4.24,20.67.06,5.53,5.58,8,6.26,13.47.87,7-4.37,16.63-2.88,23.41.82,3.76,4.22,4.35,4.8,8.18.68,4.42-1.26,13.85-2,18.35s0,7.69,3.46,11.53l22.41,6.09C185.62,575.61,183.46,566.83,178.44,561.33Z"/><path class="cls-2" d="M161.7,404.52a56.46,56.46,0,0,1,1.15,6.92,25.8,25.8,0,0,1-.3,8.23,21.12,21.12,0,0,1-1.76,4.85c-.8,1.64-1.78,3.3-2.67,5.1a16.83,16.83,0,0,0-1.87,5.93,18.41,18.41,0,0,0,.55,6.71c1.13,4.59,3.5,9.11,5.2,14.2a22.86,22.86,0,0,1,1.33,8.13,15.83,15.83,0,0,1-.81,4.22,33.46,33.46,0,0,0-1.45,4c-.68,2.78.37,5.67,1.52,8.38.57,1.38,1.19,2.77,1.65,4.24A17.74,17.74,0,0,1,165,490a37.06,37.06,0,0,1-1.11,9.1,69.43,69.43,0,0,0-1.57,8.67,21.54,21.54,0,0,0,0,4.25,22.62,22.62,0,0,0,.87,4.08,37.23,37.23,0,0,1,1.89,8,25,25,0,0,1-1.13,7.76,29.31,29.31,0,0,0-1.26,7.16,23.16,23.16,0,0,0,1.2,6.66,62.58,62.58,0,0,1,1.68,6.12,22.41,22.41,0,0,1,.28,5.78c-.12,1.83-.34,3.53-.55,5.12a37.64,37.64,0,0,0-.44,8.16,11.31,11.31,0,0,0,1.53,4.88c.63,1,1.06,1.45,1,1.48a9.74,9.74,0,0,1-1.13-1.42,11,11,0,0,1-1.65-4.92,35.59,35.59,0,0,1,.34-8.22c.18-1.59.39-3.29.49-5.1a22.07,22.07,0,0,0-.31-5.68c-.39-2-1.06-4-1.71-6.07a23.3,23.3,0,0,1-1.25-6.79,29.56,29.56,0,0,1,1.25-7.29,24.48,24.48,0,0,0,1.08-7.6,37.32,37.32,0,0,0-1.88-7.89,23.88,23.88,0,0,1-.9-4.18,22.67,22.67,0,0,1,0-4.36,70.5,70.5,0,0,1,1.57-8.75,36.32,36.32,0,0,0,1.1-8.95,17.35,17.35,0,0,0-.76-4.43c-.45-1.43-1.06-2.8-1.64-4.19a26.81,26.81,0,0,1-1.47-4.26,9.83,9.83,0,0,1-.07-4.48,37.14,37.14,0,0,1,1.48-4.09,15.37,15.37,0,0,0,.79-4.05,22.26,22.26,0,0,0-1.29-7.93c-1.66-5-4-9.59-5.16-14.25a19.08,19.08,0,0,1-.52-6.89,16.87,16.87,0,0,1,1.95-6.06c.91-1.81,1.89-3.46,2.7-5.08a20.42,20.42,0,0,0,1.78-4.76,26.35,26.35,0,0,0,.39-8.13c-.19-2.24-.49-4-.66-5.14-.09-.57-.16-1-.21-1.34A3.13,3.13,0,0,1,161.7,404.52Z"/><path class="cls-8" d="M152,578.82c-2.74,1.34-5.61-2-6-5s.35-6.31-1.1-9c-1.27-2.33-3.9-3.61-5.33-5.84-2.56-4-.43-9.65-2.58-13.91-1.67-3.33-5.64-5.17-6.88-8.67-1.33-3.77,1-8-.06-11.87-1.13-4.1-5.76-6.52-6.79-10.64s1.72-9.07-.91-12.39c-.87-1.1-2.19-1.75-3.17-2.75-2.27-2.3-2.36-6-1.77-9.15s1.72-6.34,1.39-9.56c-.51-4.94-4.4-9.14-4.52-14.11-.1-4.13,2.45-8.37.93-12.21,3.69,2.17,4.12,7.31,6.62,10.78,1.63,2.27,4.1,3.76,6.16,5.65a20.62,20.62,0,0,1,6.61,15.22c0,3.76-1,7.86.91,11.07,2.37,3.9,8,4.57,10.84,8.1,4.13,5.05,1,13.42,4.92,18.6,1,1.33,2.45,2.33,3.39,3.73,3.2,4.74-.5,11.41,1.38,16.82,1.39,4,5.57,6.56,6.69,10.62.87,3.13-.14,6.93,2,9.38.92,1.06,2.28,1.63,3.39,2.5a7.32,7.32,0,0,1,2.67,7.17,6.35,6.35,0,0,1-5.69,4.89"/><g class="cls-9"><path class="cls-3" d="M168.07,566.2c-1.11-.87-2.47-1.44-3.39-2.5-2.13-2.45-1.12-6.25-2-9.38-1.12-4.06-5.3-6.64-6.69-10.62-1.88-5.41,1.82-12.08-1.38-16.82-.94-1.4-2.36-2.4-3.39-3.73-4-5.18-.79-13.55-4.92-18.6-2.88-3.53-8.47-4.2-10.84-8.1-1.95-3.21-.95-7.31-.91-11.07A20.62,20.62,0,0,0,128,470.16c-2.06-1.89-4.53-3.38-6.16-5.65-2.5-3.47-2.93-8.61-6.62-10.78,1.52,3.84-1,8.08-.93,12.21.12,5,4,9.17,4.52,14.11.33,3.22-.8,6.38-1.39,9.56s-.5,6.85,1.77,9.15c1,1,2.3,1.65,3.17,2.75,2.63,3.32-.12,8.28.91,12.39s5.66,6.54,6.79,10.64c1.07,3.85-1.27,8.1.06,11.87,1.24,3.5,5.21,5.34,6.88,8.67,2.15,4.26,0,9.89,2.58,13.91,1.43,2.23,4.06,3.51,5.33,5.84,1.45,2.68.71,6,1.1,9s3.25,6.34,6,5l13.1-.56a6.35,6.35,0,0,0,5.69-4.89A7.32,7.32,0,0,0,168.07,566.2Z"/></g><path class="cls-8" d="M163.24,565.7a8.35,8.35,0,0,1-3.22-3.37c-.57-1.67,1.26-4.45.46-7.39-1-3.81-5.83-8.9-7.07-12.64-1.69-5.08,1.39-10.74-1.35-15.2-.8-1.31-2.6-5-3.47-6.25-3.37-4.85-.77-10.82-4.27-15.55-2.44-3.31-8.46-5.43-10.5-9.08-1.68-3-1-6.87-1.07-10.41a21.57,21.57,0,0,0-5.82-14.29c-1.72-1.77-3.77-3.16-5.16-5.28-2.13-3.27-2.63-8.1-5.68-10.12,1.35,3.61-.59,7.6-.38,11.48.25,4.67,3.52,8.61,4.09,13.25.36,3-.46,6-.84,9s-.19,6.43,1.71,8.59a35.85,35.85,0,0,1,2.65,2.58c2.23,3.11.16,7.78,1.12,11.64s4.78,6.14,5.82,10c1,3.62.27,9.66,1.46,13.19,1.1,3.29,4.89,3.73,6.35,6.85,1.86,4,.6,10.8,2.8,14.57,1.22,2.09,3.36,1.79,4.46,4,1.26,2.51,1.91,8.53,2.32,11.37a7.58,7.58,0,0,0,4.3,6.24l14.59-.69C170.29,572.86,167.31,568,163.24,565.7Z"/><path class="cls-2" d="M122.91,475.09s.06.07.16.24.25.44.43.74c.36.65.89,1.62,1.48,2.92a16.59,16.59,0,0,1,1.43,5c.26,2.06-.33,4.35-.71,6.83a10.14,10.14,0,0,0,0,3.88,11.54,11.54,0,0,0,1.62,3.88c1.56,2.51,3.85,4.76,5.86,7.48a14.39,14.39,0,0,1,2.39,4.64,10.29,10.29,0,0,1,.33,2.72,24.22,24.22,0,0,0-.09,2.67c.13,1.76,1.29,3.26,2.51,4.66.61.72,1.25,1.43,1.81,2.23a10.55,10.55,0,0,1,1.37,2.62,22.82,22.82,0,0,1,1.1,5.68,43.33,43.33,0,0,0,.74,5.48,13.18,13.18,0,0,0,2.14,4.78,23.49,23.49,0,0,1,2.68,4.45,16.1,16.1,0,0,1,.83,4.9,18.6,18.6,0,0,0,.62,4.51c.91,2.78,3,4.81,4.17,7.08a21.89,21.89,0,0,1,1.94,6.6,23.67,23.67,0,0,0,1.3,5,7.19,7.19,0,0,0,1.83,2.63c.56.47.9.67.89.7a5.43,5.43,0,0,1-1-.61,6.94,6.94,0,0,1-2-2.62,22.77,22.77,0,0,1-1.41-5,22.19,22.19,0,0,0-2-6.46c-1.18-2.2-3.28-4.2-4.28-7.14s-.3-6.28-1.49-9.35a23.06,23.06,0,0,0-2.64-4.33,13.94,13.94,0,0,1-2.24-5c-.85-3.61-.54-7.5-1.82-11.09a10.29,10.29,0,0,0-1.3-2.48c-.54-.76-1.16-1.47-1.78-2.18-1.21-1.41-2.49-3-2.64-5a24.28,24.28,0,0,1,.1-2.74,9.43,9.43,0,0,0-.31-2.55,14.11,14.11,0,0,0-2.28-4.47c-2-2.68-4.26-4.95-5.84-7.54a12,12,0,0,1-1.65-4.05,10.7,10.7,0,0,1,0-4c.43-2.52,1-4.75.8-6.74a16.19,16.19,0,0,0-1.32-4.93c-.54-1.31-1-2.29-1.37-3l-.37-.76A1.35,1.35,0,0,1,122.91,475.09Z"/><rect class="cls-6" x="124.12" y="551.86" width="87.45" height="15.5"/><polygon class="cls-6" points="130.65 564.29 141.28 610.61 193.41 610.61 205.04 564.29 130.65 564.29"/><path class="cls-2" d="M211.52,567.38c0,.17-19.72.31-44.05.31s-44.06-.14-44.06-.31,19.72-.3,44.06-.3S211.52,567.21,211.52,567.38Z"/><path class="cls-10" d="M607.94,475.36s-29.59,13.51-58.37,13.51c-26.65,0-56.47-13.42-56.47-13.42Z"/><rect class="cls-10" x="546.56" y="476.65" width="11.42" height="119.56" transform="translate(1104.53 1072.86) rotate(180)"/><rect class="cls-10" x="501.09" y="591.26" width="101.31" height="7.01" transform="translate(1103.49 1189.54) rotate(180)"/><path class="cls-2" d="M590.52,601.29a7.74,7.74,0,1,0,7.74-7.73A7.73,7.73,0,0,0,590.52,601.29Z"/><path class="cls-2" d="M545.51,601.29a7.73,7.73,0,1,0,7.73-7.73A7.73,7.73,0,0,0,545.51,601.29Z"/><path class="cls-2" d="M493.36,601.29a7.73,7.73,0,1,0,7.73-7.73A7.73,7.73,0,0,0,493.36,601.29Z"/><rect class="cls-7" x="549.57" y="519.68" width="15.53" height="6.43" transform="translate(1114.67 1045.79) rotate(180)"/><rect class="cls-10" x="562.27" y="515.19" width="5.65" height="15.42" transform="translate(1130.19 1045.79) rotate(180)"/><path class="cls-10" d="M488,475.36H617.3a8.58,8.58,0,0,0,8.58-8.58h0a8.58,8.58,0,0,0-8.58-8.58H488a8.58,8.58,0,0,0-8.58,8.58h0A8.58,8.58,0,0,0,488,475.36Z"/><path class="cls-2" d="M607.11,249.4s10.41-4.06,10-12.93-12.38-17.65-11.67-31c.66-12.49-17.24-49.62-42.81-36.68a35.15,35.15,0,0,0-12.85.71c-8.25,2.35-10.82,10.24-15.7,18.06-7.52,12.06-12.63,21.55-9,30s5.16,10.86,2.34,18c-3.68,9.36-7.43,6.64-6.2,14.81l22.3.37,2.11-5.45.24,5.89L559,251Z"/><path class="cls-2" d="M543.52,181.92c.27,3.44-2,6.53-4.27,9.13s-4.81,5.3-5.29,8.72c-.85,6.06,5.11,11.65,3.92,17.65-.64,3.22-3.26,5.81-3.71,9.06s1.26,6.2,3.36,8.58,4.64,4.36,6.5,6.93c0,0,3.87,6.28,15.68,2.19"/><path class="cls-11" d="M553.65,177.53l29.4,6.23a5.5,5.5,0,0,1,5.13,5.38l-.35,63.63a19.81,19.81,0,0,1-4.15,12l-2.8,3.62c-6.4,8.25-19.35,7.42-24.23-1.8a6.72,6.72,0,0,1-.68-1.67,13.4,13.4,0,0,1-.28-1.44l-.56-6.2c-.28-5.67-.32-11.42-.33-11.37s-12-1.52-15.11-17c-1.54-7.71-1.64-20.44-1.39-30.87C538.53,188.63,544.28,176.91,553.65,177.53Z"/><path class="cls-2" d="M542.78,210a2,2,0,0,0,2,1.94,1.92,1.92,0,0,0,2-1.88,2,2,0,0,0-2-2A1.91,1.91,0,0,0,542.78,210Z"/><path class="cls-2" d="M541.32,204.52c.26.25,1.73-.93,3.88-1s3.77.93,4,.66-.16-.58-.87-1.06a5.5,5.5,0,0,0-3.21-.85A5.29,5.29,0,0,0,542,203.4C541.4,203.93,541.19,204.41,541.32,204.52Z"/><path class="cls-2" d="M562.07,209.47a2,2,0,0,0,2,1.95,1.92,1.92,0,0,0,2-1.89,2,2,0,0,0-2-1.94A1.91,1.91,0,0,0,562.07,209.47Z"/><path class="cls-2" d="M561.76,204c.26.25,1.74-.93,3.89-1s3.77.94,4,.67c.11-.12-.16-.59-.87-1.06a5.55,5.55,0,0,0-3.21-.86,5.29,5.29,0,0,0-3.08,1.13C561.84,203.41,561.64,203.89,561.76,204Z"/><path class="cls-2" d="M555.3,220.37a14.34,14.34,0,0,0-3.52-.49c-.55,0-1.07-.13-1.18-.5a2.76,2.76,0,0,1,.3-1.64c.47-1.35,1-2.77,1.47-4.25,2-6.05,3.47-11,3.22-11.09s-2.08,4.76-4.11,10.8c-.49,1.49-1,2.92-1.39,4.28a3.14,3.14,0,0,0-.21,2.16,1.38,1.38,0,0,0,.94.77,3.72,3.72,0,0,0,.94.1A13.43,13.43,0,0,0,555.3,220.37Z"/><path class="cls-12" d="M554.8,245.91a39.68,39.68,0,0,0,20.68-6.39s-4.83,11-20.5,10.15Z"/><path class="cls-12" d="M556.41,225.53a3.89,3.89,0,0,1,3.43-1.58,3.55,3.55,0,0,1,2.49,1.22,2.24,2.24,0,0,1,.27,2.56,2.6,2.6,0,0,1-2.79.82A8.17,8.17,0,0,1,557,227a2.52,2.52,0,0,1-.64-.62.73.73,0,0,1,0-.8"/><path class="cls-2" d="M561.7,221.62c-.35,0-.27,2.33-2.2,4.06s-4.44,1.58-4.44,1.91c0,.15.57.43,1.62.42a5.87,5.87,0,0,0,3.71-1.46,5.06,5.06,0,0,0,1.7-3.4C562.14,222.17,561.86,221.6,561.7,221.62Z"/><path class="cls-2" d="M561.88,197.61c.24.58,2.38.21,4.91.42s4.61.82,4.93.28c.14-.26-.24-.8-1.09-1.33a8.56,8.56,0,0,0-7.49-.53C562.23,196.86,561.78,197.33,561.88,197.61Z"/><path class="cls-2" d="M541.58,195.08c.39.48,1.86-.09,3.64-.18s3.31.2,3.64-.32c.14-.26-.12-.74-.8-1.18a5.31,5.31,0,0,0-5.86.41C541.59,194.34,541.4,194.85,541.58,195.08Z"/><path class="cls-2" d="M596.05,183.74c-2.18-6.41-10.95-13.43-19.22-16.6a15.66,15.66,0,0,0-14.22,1.67l-10.5,6.94a14.55,14.55,0,0,0,10.08,10.93c2.68.76,5.9.91,7.53,3.17s.78,5.73,2.34,8.12c2.15,3.3,7.85,3,9.49,6.61.71,1.57.39,3.46,1.13,5,1,2.07,6.34,4.61,8.51,3.87s2.1-4.46,2.78-6.42a10.35,10.35,0,0,0,.18-6.93C593.11,195.73,597.51,188,596.05,183.74Z"/><path class="cls-11" d="M584.77,215.45c0-1.17,1.2-4,2.34-4.18,3-.6,8.57-.57,8.93,7.21.48,10.64-10.29,8.93-10.33,8.62S584.92,219.46,584.77,215.45Z"/><path class="cls-12" d="M588.78,222.93s.19.12.51.25a1.84,1.84,0,0,0,1.38,0c1.11-.46,2-2.29,1.94-4.21a6.1,6.1,0,0,0-.64-2.62,2.12,2.12,0,0,0-1.46-1.36.94.94,0,0,0-1.07.55c-.13.31-.05.52-.11.54s-.23-.17-.17-.61a1.23,1.23,0,0,1,.39-.69,1.38,1.38,0,0,1,1-.31,2.57,2.57,0,0,1,2,1.56,6.28,6.28,0,0,1,.78,2.93c0,2.15-1,4.2-2.49,4.72a2,2,0,0,1-1.71-.21C588.81,223.18,588.74,223,588.78,222.93Z"/><path class="cls-11" d="M515.93,295.7l-18.8,49.06L461.74,347l-5.48,15.38L503,371.45s14,4.08,22.06-13.75l13.7-48.8Z"/><path class="cls-11" d="M428.14,354.67a2.33,2.33,0,0,0,2.25,1.32,3.43,3.43,0,0,0,.59-.12c1.34-.43,1.21-3.16,1.21-3.16l6.41-1s8.34,5.37,11.31,8.94,10.53.68,10.53.68l2.63-13.67-11.81-10.68s.73.64-.08-1.36-4.53-1.24-4.53-1.24c-.57-1-3-1.34-3-1.34l-10.35,1.19a7.14,7.14,0,0,0-5.19,3.26l-4.38,6.93s-2.31,5-1.94,6.15a2.08,2.08,0,0,0,2.42,1.36s.5,3.28,1.37,3.4a7.14,7.14,0,0,0,2.56-.62Z"/><path class="cls-12" d="M447.64,358.4a3.28,3.28,0,0,1-.61-.47l-1.73-1.39a74.86,74.86,0,0,0-6.81-4.69l.15,0L432.23,353l.22-.27a6.4,6.4,0,0,1-.12,1.57,3,3,0,0,1-.72,1.54,1.69,1.69,0,0,1-.85.39,2.31,2.31,0,0,1-.91.05,2.59,2.59,0,0,1-1.59-.88A2.47,2.47,0,0,1,428,355l-.06-.1,0-.05v0h0l.37.14h0l-.2.09-.83.29a6,6,0,0,1-.88.22,3.56,3.56,0,0,1-.47.05,1.11,1.11,0,0,1-.6-.11,1.89,1.89,0,0,1-.62-.85,6.23,6.23,0,0,1-.32-.88,16,16,0,0,1-.42-1.82l.38.26a2.43,2.43,0,0,1-2.39-.81,2,2,0,0,1-.44-1.29,5.35,5.35,0,0,1,.23-1.24,34.4,34.4,0,0,1,1.76-4.61v0l0,0,2.33-3.7,1.48-2.34a12.43,12.43,0,0,1,1.62-2.27,7.09,7.09,0,0,1,2.33-1.55,8.94,8.94,0,0,1,2.64-.54l9.76-1.1h.07a8.87,8.87,0,0,1,1.72.45,2.93,2.93,0,0,1,1.48,1l-.36-.11a3.59,3.59,0,0,1,3.33.18,4.18,4.18,0,0,1,1.64,2.62l-.07-.13c3.39,3.05,6.15,5.54,8.13,7.31.91.85,1.64,1.52,2.19,2a7.84,7.84,0,0,1,.74.74,5.52,5.52,0,0,1-.83-.63l-2.28-1.92-8.28-7.15-.05-.05,0-.09a3.63,3.63,0,0,0-1.45-2.27,3,3,0,0,0-2.8-.13l-.23.1-.13-.21a2.45,2.45,0,0,0-1.21-.78,8.24,8.24,0,0,0-1.59-.41h.08l-9.76,1.15a8.43,8.43,0,0,0-2.47.52,6.14,6.14,0,0,0-2.1,1.4,12.23,12.23,0,0,0-1.53,2.16l-1.48,2.34-2.34,3.7,0,0a34.82,34.82,0,0,0-1.74,4.51,5.64,5.64,0,0,0-.21,1.09,1.39,1.39,0,0,0,.31.88,1.82,1.82,0,0,0,1.75.59l.32-.06.06.32a14.41,14.41,0,0,0,.38,1.73,3.16,3.16,0,0,0,.67,1.39.8.8,0,0,0,.26,0,2.6,2.6,0,0,0,.39-.05,5.93,5.93,0,0,0,.81-.19c.26-.08.53-.17.78-.27l.19-.08h0l.38.14h0v0l0,0,0,.08a3.3,3.3,0,0,0,.22.3,2,2,0,0,0,1.24.7,1.67,1.67,0,0,0,.7,0,1.06,1.06,0,0,0,.59-.25,4,4,0,0,0,.7-2.67v-.24l.22,0,6.42-1h.08l.07,0a62.32,62.32,0,0,1,6.73,4.88c.74.62,1.29,1.13,1.66,1.48A3.46,3.46,0,0,1,447.64,358.4Z"/><path class="cls-12" d="M444.9,338a12.89,12.89,0,0,1-3.33,1,33.11,33.11,0,0,1-8.54.62l.34-.23c-.17.51-.36,1-.57,1.58a25.61,25.61,0,0,1-5.26,8.14,22.14,22.14,0,0,1-2.18,2c-.56.42-.88.63-.91.59s1.12-1,2.73-2.89a28.42,28.42,0,0,0,5-8.07c.22-.52.4-1,.57-1.53l.09-.25h.25a39.34,39.34,0,0,0,8.42-.39C443.6,338.21,444.87,337.89,444.9,338Z"/><path class="cls-12" d="M435.07,344c.17,0-.51,2.89-2.56,5.81s-4.47,4.55-4.56,4.41,2-2,4-4.8S434.87,344,435.07,344Z"/><path class="cls-12" d="M462.49,357.12a1.07,1.07,0,0,1-.33.2,7.4,7.4,0,0,1-1,.39,11.13,11.13,0,0,1-4.07.47,11.3,11.3,0,0,1-5.87-2.13,11.72,11.72,0,0,1-4.43-6.51l.38.24a26.45,26.45,0,0,1-7.5.36,24.79,24.79,0,0,1-2.76-.42,8.51,8.51,0,0,1-2.64-.86,2.15,2.15,0,0,1-1-1.13,2,2,0,0,1,.17-1.5,1.9,1.9,0,0,1,1.16-.9l1.2-.3c3.15-.76,6-1.31,8.43-1.69s4.38-.6,5.74-.72a12.06,12.06,0,0,1,2.12-.1,13.87,13.87,0,0,1-2.09.36c-1.35.21-3.3.5-5.69.94s-5.24,1-8.36,1.82l-1.18.31a1.23,1.23,0,0,0-.76.6,1.27,1.27,0,0,0-.11,1,1.42,1.42,0,0,0,.72.76,7.79,7.79,0,0,0,2.43.78,25.6,25.6,0,0,0,2.69.4,26.57,26.57,0,0,0,7.3-.32l.31-.06.07.3a11.32,11.32,0,0,0,4.13,6.22,11.13,11.13,0,0,0,5.57,2.17,12.13,12.13,0,0,0,4-.27C462,357.27,462.47,357.08,462.49,357.12Z"/><path class="cls-2" d="M450.33,532.58a2.65,2.65,0,0,1,0-1.17,7.8,7.8,0,0,1,1.18-3,4.14,4.14,0,0,1,.71-.86,1.35,1.35,0,0,1,1.32-.3,1,1,0,0,1,.59.59,1.27,1.27,0,0,1,0,.8,8.27,8.27,0,0,1-.61,1.19c-.46.78-.84,1.55-1.43,2.42a1.72,1.72,0,0,1-1.57.71,3.36,3.36,0,0,1-1.52-.68,12.63,12.63,0,0,1-2.24-2.06,13.35,13.35,0,0,1-.88-1.14,3.81,3.81,0,0,1-.66-1.32,1.24,1.24,0,0,1,.67-1.43,1.48,1.48,0,0,1,1.42.32,8.68,8.68,0,0,1,1.49,1.69,11.26,11.26,0,0,1,1.46,2.84,3,3,0,0,1,.26,1.14,24,24,0,0,0-2.12-3.69,9.65,9.65,0,0,0-1.43-1.51c-.28-.2-.63-.33-.84-.22a.62.62,0,0,0-.28.73,3.34,3.34,0,0,0,.58,1.07c.26.36.54.72.85,1.07a12.7,12.7,0,0,0,2.12,1.94,2.69,2.69,0,0,0,1.2.55,1,1,0,0,0,.95-.44c.49-.71,1-1.58,1.41-2.31a8.47,8.47,0,0,0,.59-1.07c.12-.34.05-.55-.18-.64-.54-.23-1.06.38-1.42.89A11.41,11.41,0,0,0,450.33,532.58Z"/><polygon class="cls-11" points="480.71 533.62 495.79 566.31 520.13 555.07 504.53 514.61 480.71 533.62"/><path class="cls-8" d="M492.94,564.13l8.82,16.81s-22.56,23.32-20.44,28.53l53-25.42-14.57-33.71Z"/><path class="cls-7" d="M517.05,570.78a2.38,2.38,0,0,1,2.68,1.75A2.3,2.3,0,0,1,518,575.2a2.53,2.53,0,0,1-2.83-1.87,2.39,2.39,0,0,1,2.09-2.58"/><g class="cls-13"><path class="cls-3" d="M534.35,584.05l-2.21-4.23-50,26s-1.87,2.16-.8,3.69Z"/></g><path class="cls-2" d="M500.77,581.08c.13.25,1.48-.25,3.15,0s2.88,1,3.07.77-.92-1.53-2.95-1.76S500.6,580.87,500.77,581.08Z"/><path class="cls-2" d="M496.31,586.05c.06.27,1.39.18,2.8.85s2.21,1.71,2.46,1.58-.28-1.68-2-2.49S496.2,585.8,496.31,586.05Z"/><path class="cls-2" d="M496.34,594.22c.26-.06,0-1.53-1.34-2.63s-2.83-1.08-2.83-.81,1.1.67,2.19,1.59S496.07,594.31,496.34,594.22Z"/><path class="cls-2" d="M498.24,574.6c.22.19,1.24-.74,2.75-1.34s2.87-.69,2.9-1-1.51-.68-3.28.05S498,574.46,498.24,574.6Z"/><path class="cls-2" d="M488,559.77l-39.75-99.5s.89-17,4-22.34,97.84-36.64,97.84-36.64,24.12-5.81,40.21,0,32.93,11.65,31.12,22.9c-2.63,16.43-16.87,33.56-16.87,33.56l-69.65,2.07-38,13.85,25.56,73.27Z"/><polygon class="cls-11" points="452.61 491.77 451.71 527.76 478.52 528.42 482.38 485.23 452.61 491.77"/><path class="cls-8" d="M450.12,524.55l.49,19s-30.54,11-30.94,16.58l58.81.6L480.29,524Z"/><path class="cls-7" d="M468.82,541.15a2.41,2.41,0,0,1,1.63,2.76,2.3,2.3,0,0,1-2.72,1.64,2.53,2.53,0,0,1-1.71-2.92,2.39,2.39,0,0,1,3-1.4"/><g class="cls-13"><path class="cls-3" d="M478.48,560.7l-.12-4.77L422,557.14s-2.63,1.12-2.35,3Z"/></g><path class="cls-2" d="M449.66,543.21c0,.29,1.44.43,2.84,1.37s2.15,2.15,2.41,2-.14-1.77-1.86-2.88S449.6,543,449.66,543.21Z"/><path class="cls-2" d="M443.46,545.7c-.06.28,1.17.78,2.14,2s1.23,2.51,1.52,2.5.48-1.63-.75-3.13S443.47,545.42,443.46,545.7Z"/><path class="cls-2" d="M439.89,553.05c.26.06.67-1.37-.05-2.95s-2.06-2.22-2.18-2,.7,1.08,1.27,2.39S439.6,553,439.89,553.05Z"/><path class="cls-2" d="M450.25,536.28c.11.27,1.44-.12,3.06,0s2.88.65,3,.41-1-1.28-3-1.41S450.11,536.06,450.25,536.28Z"/><path class="cls-2" d="M468.26,391.85S452.2,390.57,450.42,408s-3.54,98.74-3.54,98.74l37.52,3.13,5.81-83.1,59.87-25.47S479,389.62,468.26,391.85Z"/><path class="cls-2" d="M534.46,368.34s-9.75,27.33-7.89,30.37,26.92,15.58,26.92,15.58l62.71,24.08s6.44-10.24,6.44-26-21.81-44.05-21.81-44.05Z"/><path class="cls-10" d="M553.05,399.9a2,2,0,0,1-.3.16l-.89.41L548.39,402l-13,5.68-45,19.38.21-.29c-.57,8.21-1.19,17.07-1.82,26.25-1.53,21.44-2.94,41.2-4.05,56.85l0,.28-.28,0L457,507.73l-7.53-.7-2-.2a4,4,0,0,1-.67-.1,3.4,3.4,0,0,1,.67,0l2,.13,7.54.55,27.36,2.16-.3.26c1.07-15.65,2.43-35.42,3.9-56.86.64-9.17,1.27-18,1.85-26.25v-.2l.19-.08,45.1-19.15,13.12-5.5,3.51-1.44.92-.36A1,1,0,0,1,553.05,399.9Z"/><path class="cls-10" d="M602.92,402.63a8.88,8.88,0,0,1-1.76-.48l-4.72-1.52a101.65,101.65,0,0,0-15.8-4,46.11,46.11,0,0,0-16.18.2,66.71,66.71,0,0,0-6.49,1.88,7.79,7.79,0,0,1,1.64-.82,27.73,27.73,0,0,1,4.74-1.54,43.49,43.49,0,0,1,16.39-.42,87.43,87.43,0,0,1,15.86,4.22c2,.7,3.56,1.3,4.65,1.73A10.18,10.18,0,0,1,602.92,402.63Z"/><path class="cls-10" d="M594.06,388.23a44.44,44.44,0,0,0-5.49,0c-1.69.11-3.7.37-5.93.63s-4.69.57-7.23,1.05a33.61,33.61,0,0,0-12.29,4.56,39.23,39.23,0,0,0-4.26,3.43,4.88,4.88,0,0,1,.91-1.18,18.63,18.63,0,0,1,3.08-2.66,31.35,31.35,0,0,1,12.43-4.84c2.57-.48,5-.77,7.29-1s4.26-.43,6-.49a23.17,23.17,0,0,1,4.06.18A5,5,0,0,1,594.06,388.23Z"/><path class="cls-8" d="M511.23,290.65s11.22-18.71,14.33-22.49a25,25,0,0,1,9.19-6.74,19.08,19.08,0,0,1,4.37-1.29l16.13-3.57s0,11,11.57,11.69,21.25-15.39,21.25-15.39,18.64,2.88,23.1,5.18,11.47,5.2,15.33,24.52l2.7,18.89-32.14,3L594,352.18l-15.94,11.1s-44.19,11.48-47,12.24-3.76-71.1-3.76-71.1S515.93,297.08,511.23,290.65Z"/><path class="cls-2" d="M532.39,282.62a6.6,6.6,0,0,0-.62,1.37c-.37.9-.84,2.23-1.36,3.89a75.87,75.87,0,0,0-2.85,13.27,77,77,0,0,0-.44,13.57c.11,1.73.24,3.14.38,4.1a7.65,7.65,0,0,0,.27,1.48,6,6,0,0,0,0-1.51c-.06-1-.12-2.36-.17-4.09A88.89,88.89,0,0,1,530.85,288c.46-1.67.86-3,1.15-3.93A7.19,7.19,0,0,0,532.39,282.62Z"/><path class="cls-2" d="M598.23,281.48a5.62,5.62,0,0,1,0,1.46c0,1.08-.09,2.41-.16,4-.16,3.51-.37,8-.61,13.06s-.51,9.72-.76,13.06c-.13,1.67-.25,3-.35,4a5.89,5.89,0,0,1-.22,1.44,5.68,5.68,0,0,1,0-1.45c0-1.09.08-2.41.13-4,.15-3.5.34-8,.56-13.06s.53-9.72.81-13.06c.14-1.67.27-3,.38-3.95A7.07,7.07,0,0,1,598.23,281.48Z"/><path class="cls-11" d="M533.76,360.84l60.51-13.17,2.79-43.25L624,301.93s-1.89,29.51-2,38.36c-.39,25.51-9,29.89-13.33,33.34S531,375.52,531,375.52Z"/><path class="cls-11" d="M499.41,368.68a2.31,2.31,0,0,0,2.25,1.31,2.54,2.54,0,0,0,.59-.11c1.34-.43,1.21-3.16,1.21-3.16l6.41-1.05s8.34,5.38,11.31,8.95,10.54.67,10.54.67l2.62-13.66L522.54,351s.72.64-.09-1.36-4.53-1.24-4.53-1.24c-.57-1-3-1.34-3-1.34l-10.35,1.19a7.14,7.14,0,0,0-5.19,3.26L495,358.39s-2.31,5-1.94,6.15a2.08,2.08,0,0,0,2.42,1.36s.51,3.28,1.37,3.4a7.14,7.14,0,0,0,2.56-.62Z"/><path class="cls-12" d="M521.44,358.86c0,.11-1.38,0-3.59.08a31.68,31.68,0,0,0-8.45,1.58,29.91,29.91,0,0,0-4.36,1.87c-1.25.7-2.56,1.28-3,2.19a1.24,1.24,0,0,0,.12,1.23,1.6,1.6,0,0,0,.78.66,2.59,2.59,0,0,0,.91.14s-.33.28-1,.11a2,2,0,0,1-1-.69,1.67,1.67,0,0,1-.24-1.62,3.29,3.29,0,0,1,1.29-1.46c.56-.37,1.15-.74,1.81-1.1a27.2,27.2,0,0,1,13.09-3.37A12,12,0,0,1,521.44,358.86Z"/><path class="cls-12" d="M522.17,365.47c0,.19-4.23,0-9.4.32s-9.35.94-9.38.74a10.37,10.37,0,0,1,2.7-.65,58.17,58.17,0,0,1,6.64-.75,59.43,59.43,0,0,1,6.69,0A10.36,10.36,0,0,1,522.17,365.47Z"/><path class="cls-12" d="M499.47,368.42a5.12,5.12,0,0,1-.13-1.1,24.8,24.8,0,0,1,0-3,14.61,14.61,0,0,1,.29-2.1,6.57,6.57,0,0,1,1-2.25,14,14,0,0,1,3.88-4,19.58,19.58,0,0,1,5-2.51,18,18,0,0,1,4.47-.68c1.28,0,2.31,0,3,0a3.92,3.92,0,0,1,1.1.11,32.86,32.86,0,0,1-4.1.35,19.12,19.12,0,0,0-4.32.79,20.46,20.46,0,0,0-4.76,2.47,14.13,14.13,0,0,0-3.75,3.77,7.85,7.85,0,0,0-1.34,4.06C499.55,366.83,499.61,368.42,499.47,368.42Z"/><path class="cls-12" d="M514.42,349.64c0,.1-1.54.14-4,.42s-6.19.54-8.36,3.83c-2.36,3-4.36,5.8-5.23,8.12a20.21,20.21,0,0,0-1,3.87,2.63,2.63,0,0,1-.06-1.09,10.53,10.53,0,0,1,.6-3c.8-2.44,2.78-5.36,5.15-8.37a11.37,11.37,0,0,1,2-2,7.43,7.43,0,0,1,2.44-1.15,22,22,0,0,1,4.39-.69A15.2,15.2,0,0,1,514.42,349.64Z"/><path class="cls-12" d="M518.92,372.41a3.28,3.28,0,0,1-.62-.47l-1.73-1.39a71.52,71.52,0,0,0-6.81-4.69l.15,0L503.5,367l.22-.27a6.47,6.47,0,0,1-.12,1.57,2.87,2.87,0,0,1-.72,1.54,1.69,1.69,0,0,1-.85.39,2.31,2.31,0,0,1-.91.05,2.64,2.64,0,0,1-1.59-.88,2.47,2.47,0,0,1-.28-.38l-.06-.1,0,0v0h0c-.09,0,.71.26.37.13h0l-.2.08c-.27.11-.55.21-.83.3a7.54,7.54,0,0,1-.88.22,3.39,3.39,0,0,1-.47.05,1.14,1.14,0,0,1-.6-.12,1.82,1.82,0,0,1-.62-.84,6.23,6.23,0,0,1-.32-.88,14.09,14.09,0,0,1-.41-1.82l.37.26a2.41,2.41,0,0,1-2.39-.82,2,2,0,0,1-.44-1.29,5.55,5.55,0,0,1,.23-1.24,34.14,34.14,0,0,1,1.77-4.61h0l0,0c.74-1.18,1.53-2.44,2.33-3.7l1.48-2.34a11.71,11.71,0,0,1,1.63-2.27,6.8,6.8,0,0,1,2.32-1.55,9,9,0,0,1,2.64-.55l9.76-1.09H515a8.77,8.77,0,0,1,1.71.45,2.87,2.87,0,0,1,1.48,1l-.35-.11a3.57,3.57,0,0,1,3.32.18,4.2,4.2,0,0,1,1.65,2.62l-.08-.13,8.13,7.31,2.19,2a6.58,6.58,0,0,1,.74.74,5.52,5.52,0,0,1-.83-.63l-2.28-1.92-8.28-7.15,0-.05,0-.09a3.76,3.76,0,0,0-1.45-2.28,3.08,3.08,0,0,0-2.81-.12l-.22.1-.14-.21a2.41,2.41,0,0,0-1.2-.79,9.14,9.14,0,0,0-1.6-.4H515l-9.76,1.15a8.75,8.75,0,0,0-2.47.51,6.32,6.32,0,0,0-2.1,1.41,12.23,12.23,0,0,0-1.53,2.16l-1.48,2.34-2.34,3.7,0,0a35.26,35.26,0,0,0-1.74,4.5,5.89,5.89,0,0,0-.21,1.1,1.39,1.39,0,0,0,.31.88,1.82,1.82,0,0,0,1.75.59l.32-.06.06.31a14.15,14.15,0,0,0,.38,1.74,3.28,3.28,0,0,0,.67,1.39.73.73,0,0,0,.26,0,2.58,2.58,0,0,0,.39,0,5.93,5.93,0,0,0,.81-.19c.26-.08.53-.17.78-.27l.2-.08h0l.38.14h0l0,0,0,0,0,.09.22.3a2.08,2.08,0,0,0,1.24.7,1.66,1.66,0,0,0,.7,0,1.06,1.06,0,0,0,.59-.25,4,4,0,0,0,.7-2.68v-.23l.22,0,6.42-1h.08l.07,0a63.92,63.92,0,0,1,6.73,4.87c.74.63,1.3,1.14,1.66,1.49A3.49,3.49,0,0,1,518.92,372.41Z"/><polygon class="cls-10" points="576.24 391.06 566.06 391.06 566.06 393.31 588.35 610.66 600.23 610.66 576.24 391.06"/><path class="cls-2" d="M576.24,391.06s0,.4.1,1.15.19,1.87.34,3.32c.31,2.92.76,7.21,1.34,12.73,1.18,11.06,2.89,27,5,46.86,4.29,39.59,10.24,94.44,16.86,155.57l.34-.38H588.35l.34.31C578.2,508.31,569.22,421.77,566.17,393.3h0c0-1,0-1.66,0-2.25l-.1.1,7.68-.06,1.88,0,.62,0-.59,0-1.86,0-7.73-.06H566v2.35h0c2.78,28.5,11.56,115.06,22,217.37l0,.31h12.57l0-.38c-6.74-61.21-12.79-116.14-17.16-155.79-2.2-19.77-4-35.72-5.21-46.76-.62-5.48-1.1-9.74-1.43-12.64-.17-1.43-.29-2.52-.38-3.27S576.24,391.06,576.24,391.06Z"/><polygon class="cls-2" points="396.37 391.06 386.19 391.06 386.19 393.37 407.4 610.61 417.86 610.61 396.37 391.06"/><polygon class="cls-10" points="618.77 393.31 255.9 393.7 255.77 384.12 618.77 384.12 618.77 393.31"/><polygon class="cls-10" points="306.95 391.06 317.13 391.06 317.13 393.37 295.92 610.61 285.46 610.61 306.95 391.06"/><path class="cls-2" d="M306.49,393.9s0,.39-.09,1.13-.17,1.84-.3,3.27c-.27,2.88-.67,7.1-1.19,12.55-1,10.89-2.55,26.65-4.43,46.18-3.79,39-9,93.09-14.88,153.32l-.28-.31h10.45l-.28.26c9.91-100.59,18.3-185.8,21.09-214.1h0c0-1.07,0-1.7,0-2.3l.08.08-7.69-.05-1.87,0c-.41,0-.62,0-.62,0h.59l1.86,0,7.73-.05h.08v.09c0,.6,0,1.23,0,2.3h0c-2.74,28.3-11,113.52-20.71,214.13l0,.26H285l0-.31c6-60.3,11.28-114.43,15.13-153.5,1.95-19.5,3.52-35.23,4.6-46.11.55-5.41,1-9.61,1.26-12.47.15-1.41.26-2.49.34-3.23S306.49,393.9,306.49,393.9Z"/><polygon class="cls-10" points="453.99 391.89 443.81 391.89 443.81 394.19 465.02 610.61 475.48 610.61 453.99 391.89"/><path class="cls-2" d="M454.45,394.73s0,.39.09,1.12.17,1.83.3,3.26c.27,2.86.67,7.07,1.18,12.49,1.05,10.86,2.56,26.56,4.43,46l14.89,152.74.28-.31H465.17l.28.26C455.54,510.09,447.14,425.21,444.36,397h0c0-1.06,0-1.69,0-2.29l-.08.08,7.68-.05,1.88,0h.62l-.6,0-1.85,0-7.73,0h-.08v.08c0,.6,0,1.23,0,2.29h0c2.74,28.2,11,113.1,20.7,213.32l0,.26h11l0-.31c-5.94-60.07-11.28-114-15.13-152.92-1.94-19.42-3.51-35.09-4.59-45.93-.55-5.39-1-9.57-1.27-12.42-.14-1.41-.26-2.48-.33-3.22S454.45,394.73,454.45,394.73Z"/><path class="cls-2" d="M617.42,393.37c0-.18-73.17-.33-163.39-.33s-163.41.15-163.41.33,73.15.33,163.41.33S617.42,393.55,617.42,393.37Z"/><path class="cls-7" d="M390.11,316.83l79.7.64c2.59,0,5.06,1.25,5.44,3.8L484,379.36h41a2.4,2.4,0,0,1,0,4.79H393.9l-9-61.31A5.23,5.23,0,0,1,390.11,316.83Z"/><path class="cls-2" d="M390.11,316.83a4.15,4.15,0,0,0-1.26.11,5.29,5.29,0,0,0-4,4.57,15.35,15.35,0,0,0,.29,3.28c.34,2.34.72,5,1.15,8.09,1.76,12.17,4.29,29.73,7.39,51.31l0,.21h.21l127.21.07h3.42a3.38,3.38,0,0,0,1.81-.34,2.71,2.71,0,0,0,0-4.75,3.36,3.36,0,0,0-1.8-.34H484l.3.27c-3.13-20.81-6.06-40.21-8.68-57.62a4.49,4.49,0,0,0-1.48-3,5.81,5.81,0,0,0-3-1.34,27.13,27.13,0,0,0-3.22-.12l-3.13,0-12-.08L431.4,317,401,316.81l-8.12,0h-2.1l-.71,0,.71,0,2.1,0L401,317l30.36.34,21.32.21,12,.11,3.13,0a26.86,26.86,0,0,1,3.13.12,5.4,5.4,0,0,1,2.78,1.22,4,4,0,0,1,1.3,2.72c2.6,17.42,5.49,36.83,8.6,57.64l0,.26h40.83a2.66,2.66,0,0,1,1.49.25,2.08,2.08,0,0,1,.94,2.53,2.05,2.05,0,0,1-.93,1.1,2.7,2.7,0,0,1-1.5.26h-3.42l-127.21.07.24.21c-3.2-21.56-5.8-39.1-7.6-51.27-.46-3-.86-5.74-1.22-8.09a14.64,14.64,0,0,1-.32-3.23,5.09,5.09,0,0,1,.92-2.47,5.28,5.28,0,0,1,2.95-2A9.2,9.2,0,0,1,390.11,316.83Z"/><path class="cls-3" d="M438.33,349.75a5,5,0,1,1-5-5A5,5,0,0,1,438.33,349.75Z"/><path class="cls-2" d="M480.74,383.61c-.12,0-2.65-14.77-5.67-33s-5.37-33.09-5.26-33.11,2.65,14.77,5.67,33S480.85,383.6,480.74,383.61Z"/></g></svg>