<svg xmlns="http://www.w3.org/2000/svg" xmlns:xlink="http://www.w3.org/1999/xlink" viewBox="0 0 700 640"><defs><style>.cls-1,.cls-39{fill:#ededed;}.cls-1,.cls-38,.cls-5{opacity:0.95;}.cls-2{fill:#c1d4d4;}.cls-3{fill:#4598e6;}.cls-4{fill:#f5f5f5;}.cls-5{fill:url(#linear-gradient);}.cls-6{fill:#42897d;}.cls-7{fill:#eea886;}.cls-8{fill:#434343;}.cls-9{fill:#a77860;}.cls-10{fill:#0e2d3d;}.cls-11{fill:#d15b66;}.cls-12{fill:#1a2e35;}.cls-13{fill:#183c59;}.cls-14{fill:#616161;}.cls-15{fill:#e0cec7;}.cls-16{fill:#eea987;}.cls-17{fill:#054641;}.cls-18{fill:#376b67;}.cls-19{fill:#fff;}.cls-20{fill:#ececec;}.cls-21{fill:#344052;}.cls-22{fill:#eb4747;}.cls-23{fill:#393d63;}.cls-24{fill:#decbc4;}.cls-25{fill:#e8734d;}.cls-26{fill:#9daa71;}.cls-27{fill:#8e9961;}.cls-28{fill:#f5e2d9;}.cls-29{fill:#1f3238;}.cls-30{fill:#292c47;}.cls-31{fill:#424773;}.cls-32{fill:#142329;}.cls-33{fill:#3a3f47;}.cls-34{fill:#e2d2ca;}.cls-35{fill:#323657;}.cls-36{fill:#00dfdf;}.cls-37{opacity:0.3;}</style><linearGradient id="linear-gradient" x1="342.31" y1="347.45" x2="342.31" y2="165.52" gradientUnits="userSpaceOnUse"><stop offset="0" stop-color="#d1d7e0"/><stop offset="1" stop-color="#ebebff"/></linearGradient></defs><title>Illustration</title><g id="Layer_15" data-name="Layer 15"><rect class="cls-1" x="256.93" y="127.3" width="170.75" height="170.75" rx="58.67"/><rect class="cls-2" x="302.78" y="259.18" width="79.05" height="3.91"/><rect class="cls-2" x="313.98" y="271.48" width="56.66" height="3.91"/><rect class="cls-1" x="455.77" y="186.52" width="233.69" height="274.3" rx="69.12"/><rect class="cls-3" x="561.73" y="348.34" width="18.53" height="3.43"/><rect class="cls-2" x="491.36" y="379.79" width="107.85" height="6.65"/><rect class="cls-2" x="491.36" y="411.7" width="87.21" height="6.65"/><rect class="cls-2" x="491.36" y="395.75" width="51.13" height="6.65"/><path class="cls-3" d="M627.43,213.88v3.35h19.76v18.55h3.36v-21.9Zm-134.21,21.9h3.35V217.23h19.77v-3.35H493.22Zm154,95.71V350H627.43v3.36h23.12V331.49Zm-150.62,0h-3.35V353.4h23.12V350H496.57Z"/><path class="cls-3" d="M640.08,418.84a19.77,19.77,0,1,1,19.77-19.77A19.79,19.79,0,0,1,640.08,418.84Zm0-35.71A15.94,15.94,0,1,0,656,399.07,16,16,0,0,0,640.08,383.13Z"/><polygon class="cls-3" points="638.82 406.85 629.84 397.87 632.55 395.17 638.82 401.44 647.62 392.64 650.32 395.35 638.82 406.85"/><path class="cls-4" d="M652,573c0,8.29-143.59,15-320.72,15S10.54,581.27,10.54,573s143.59-15,320.71-15S652,564.69,652,573Z"/><rect class="cls-5" x="284.76" y="133.69" width="115.09" height="98.75"/><path class="cls-6" d="M386.27,193.8c-3.79-10-12.9-14.63-17.2-16.07l-7.14-2.33-10.87-3.5H333.15s-6.2,2.08-12.79,4.39h0c-6.07,2.13-12.47,4.46-14.62,5.54-4.51,2.25-12.08,18.32-13.61,20.16a141,141,0,0,0-7.76,14.2h19.29c2-3.5,3.61-6.22,3.61-6.22s1.22,2.68,2.7,6.22h61.82c1-4.11,1.59-9.29,1.59-9.29s3.31,4.5,6.93,9.29h17.81C393.78,208.92,388.4,199.46,386.27,193.8Z"/><path class="cls-7" d="M344.24,122.68s14,2.2,11.88,24.12-14.5,20.11-15.32,20.09-12.41.4-13.32-26.35C327.48,140.54,327.09,120.75,344.24,122.68Z"/><path class="cls-7" d="M356.33,140.61s1.54-1.64,2.1,0-2.09,9.05-2.19,9.4c0,0-.28.64-.65.29S356.33,140.61,356.33,140.61Z"/><path class="cls-7" d="M327.86,140.33s-1.5-1.67-2.1,0,1.9,9.09,2,9.44c0,0,.27.65.64.3S327.86,140.33,327.86,140.33Z"/><path class="cls-8" d="M356.33,144l-2,2.68s.06-5.88-.26-6.8-.82-3.74-1.09-4.4-12-4-22.41,1c0,0,.46,4.23-.54,4.6s-.51,6.89-.51,6.89L327.86,146s-2.52-16.86-1.9-18.62,2.61-12.32,23.92-6c0,0,6.64-1.41,8,3.18S356.33,144,356.33,144Z"/><path class="cls-7" d="M352.8,171.5s-1.8-.88-1.8-.88c-.87-2-.22-10.18-.22-10.18s-17.84-4.54-17.33-1.07-1.54,11.54-1.54,11.54l-9.15,4.54s9.75,26.18,21,22.8,15.44-23.74,15.44-23.74Z"/><path class="cls-9" d="M333.71,163.23a10.57,10.57,0,0,0,7.86,3.71c3.28,0,5.64-.92,8.91-4.11,0,0-1.42,6-8.89,6.62C341.59,169.45,336.18,170.13,333.71,163.23Z"/><path class="cls-10" d="M282.21,251.13s10.29,5,7.75,18.73-3.67,15.55-.83,20.9,6.21,28.18,3.65,32.5-31.71-19-35.76-38.59,2.57-28.3,4.9-31.54S273.12,246.52,282.21,251.13Z"/><path class="cls-11" d="M278.33,569h2.33V558a31.24,31.24,0,0,1,7.44,7.27c2.88,4.21,6.82,3.85,12.83,3.58s5.75-2.69,5.21-6.1-6.64-4.48-8.62-5-6.45-8.26-7.89-10.14a26.15,26.15,0,0,1-3-5s-1.12-4.58-6.68,0-3.95,13.37-3.32,14.17S278.33,569,278.33,569Z"/><path class="cls-7" d="M290.08,557.71c2.06,1.35,7.44,0,7.44,0-1.52-2-10.9-15.16-10.9-15.16-5.69-3.32-7.94,1.25-7.94,1.25C281,544.51,288,556.36,290.08,557.71Z"/><path class="cls-7" d="M350.06,354.77s3.74.71,5-1c1.09-1.5,3.57-2.64,4.33-3,1-.47,3.61-3.09,4.22-1.81s-4.06,4.53-4.9,5.4,4.58,1.27,5.51,2.12-.21,9.8-3.9,9.1-7.18-3.87-7.86-3.87a22.24,22.24,0,0,1-2.7-.4Z"/><path class="cls-7" d="M363.41,356.07s11.17,2.89,11.75,3.7.39,1.41-.67,1.19l-10.86-2.48s12.64,5.64,13.26,6.2c.37.33.06,1.5-.51,1.44S363,361.18,363,361.18s11.8,5.28,12.18,5.91a.89.89,0,0,1-1.12,1.22c-.9-.33-12.12-4.61-12.12-4.61s8.34,4.38,8.35,5.1c0,.44-.21,1.47-2.33.27s-7.41-3.5-7.41-3.5Z"/><path class="cls-11" d="M248.1,569.73h1.44v-8.07a17.56,17.56,0,0,1,3.72,6.48c1.16,3.86,5.34,5,11.71,4.82s6.46-2.69,5.92-6.46-5.92-5.74-5.92-5.74c-2.42-2.15-8.44-11.08-8.44-11.08a8.4,8.4,0,0,0-6.88,1.41c-3,2.45-2.09,8-2,9.4S248.1,569.73,248.1,569.73Z"/><path class="cls-12" d="M252.5,377.39s-7.59,9.87-9.65,21.57,1.21,51,1.13,56.79-5.48,20.19-4.4,31.09S244.9,552,244.9,552l11.63-2.31s-.67-55.31,0-59.88,2-21.26,2.3-23.14,17.08-51.35,17.08-59.79S270.8,363.62,252.5,377.39Z"/><path class="cls-12" d="M290.63,381.24s12.47,47.6,13.95,54.19,3.62,12,3.62,14.83c0,6.5-2.41,16.93-2.41,16.93L290,542.92H274.87s8.4-45.43,8.63-54.32,7.08-21.54,5.74-25.31-21.67-47.24-21.67-47.24S252.18,367.43,290.63,381.24Z"/><path class="cls-7" d="M265,560.76l-8.44-11.08-6.88,1.41a31.14,31.14,0,0,0,5.2,8.69C258.81,564.2,265,560.76,265,560.76Z"/><path class="cls-11" d="M285.48,300.37a15.52,15.52,0,0,1,9,4.64,59.68,59.68,0,0,1,8.55,13c1,2.22,15.28,22.8,16,23.26s7.91,2.86,12.66,4.45c7.33,2.47,22,7.81,22,7.81l-2.92,9.24s-27.63-9-34.55-10.74C307.82,350,288.34,325,288.34,325S273.82,308,285.48,300.37Z"/><path class="cls-12" d="M276.5,296.76s6.66,3.14,9,3.61,11.28,12.11,12.85,16.37,0,10.64-3.24,18.13-.18,10-1.66,17.48-1,35.52-.73,39.68-43.29,10.47-51.89,2.89c0,0,5.82-25.26,12.72-32.47,1.49-1.56,1.33-11.95.31-14.54S241.36,326,241.36,326s-.85-19.61,4.16-23.5c4.35-3.37,16.19-4.58,18.32-5.32S272.16,296.11,276.5,296.76Z"/><path class="cls-7" d="M279.68,289.07s-.2,1.84-.43,4.32c-.08,1-.18,2.06-.27,3.17a75.64,75.64,0,0,0-.35,8.71s-6.92,6.94-14.79-8.09a20.66,20.66,0,0,0,.82-14.64C262.17,274.1,279.68,289.07,279.68,289.07Z"/><path class="cls-13" d="M299.05,337.63s1.67-11.08-.1-17.82a43,43,0,0,1-3.18,14Z"/><path class="cls-7" d="M258.52,298.24s4.76,14.06,17.83,13,6.2-11.87,6.2-11.87a29.42,29.42,0,0,0-4.17-2c-.92-.17-14.45-.35-14.45-.35Z"/><path class="cls-11" d="M282.55,299.4s6.84,18.93,6.84,38.23.56,50.74,2.95,60.66,9.19,40.63,9.19,40.63l5.33-2.75s-12.82-49-13.79-52.54.74-40.86,1.66-44,4.83-17,4.22-20.9c-.77-4.87-5.32-12.07-12.68-18.26Z"/><path class="cls-11" d="M261.11,297.65a197.4,197.4,0,0,1,6.41,31.07c2.15,17.45-6.62,98.44-12.5,116.82l-22.8-3.67s4.91-57.25,11.57-67.67,8.78-19.63,1.59-41.38,3.15-32.51,3.15-32.51S259.11,297.88,261.11,297.65Z"/><polygon class="cls-14" points="285.7 355.42 258.06 403.3 227.33 385.56 253.77 336.99 285.7 355.42"/><polygon class="cls-15" points="282.37 357.07 257.82 399.59 230.53 383.83 254.01 340.7 282.37 357.07"/><polygon class="cls-14" points="273.31 353.25 275.04 350.26 264 343.89 261.85 346.63 273.31 353.25"/><path class="cls-7" d="M272,387.22a5.91,5.91,0,0,1-1.81-.26s-1-.56-1.68-.92a5.58,5.58,0,0,0-.56-.25,10.55,10.55,0,0,1-3.08-1.3,70.81,70.81,0,0,1-5.55-5.86l2.05-3.11,1.49-3.18s9.09.58,10.32,1.24l.34.21a13,13,0,0,1,1.92,2c.18.15,1.82,1.76,1.76,2.44a2.26,2.26,0,0,1-1.09,1.89,5.33,5.33,0,0,1-1.14,2.71,3.35,3.35,0,0,1-1.61,2.46S273,387,272,387.22Z"/><path class="cls-11" d="M253.26,300.37s-8.39-2.41-13.2,6.84-4.79,13.2-5.43,17.71c-.6,4.27-3.34,15.91-3.62,17.12s-6.49,15.54-3.64,20.55,31.91,19.86,31.73,21,5-11.21,5-11.21-11.76-6.55-13.68-8.57c-3.13-3.28-9.73-6.81-8.37-10.87,1.59-4.78,6.37-20.89,7.48-23.25S260.34,303.37,253.26,300.37Z"/><path class="cls-16" d="M280.72,252.65s14.94,4.7,6.83,30.49-28.52-3-26.39-18.7S280.72,252.65,280.72,252.65Z"/><path class="cls-10" d="M289.08,267.7a33.73,33.73,0,0,1-19.86,8.2s-4.77,5.6-5.14,7.8c0,0-11.09-18.9,2.54-30.23S294.09,263,289.08,267.7Z"/><path class="cls-16" d="M269.37,276.41c-.09-1.88-1.25-6.15-4-5s.17,9.89,2,9.36C267.35,280.82,269.6,280.85,269.37,276.41Z"/><path class="cls-9" d="M279.25,293.39c-.08,1-.18,2.06-.27,3.17,0,0-6.59-.39-11-10.21C268.26,286.78,273.1,293.88,279.25,293.39Z"/><path class="cls-17" d="M115.62,529.22c9.58-6.74,20.79-53.7,21.46-81.67.35-14.33,4.58-20.3,8.32-25.56,3.57-5,6.65-9.38,4.86-19.37-3.44-19.07,5.59-27.31,5.68-27.39l-1-1.19c-.4.35-9.81,8.84-6.2,28.86,1.68,9.33-1.09,13.23-4.59,18.17-3.68,5.18-8.26,11.63-8.61,26.44-.72,30-12.18,74.36-20.79,80.42Z"/><path class="cls-17" d="M95.53,515.53c-.9-2-1.84-4.17-2.9-6.41-5.47-11.56-10.32-13.46-18.35-16.61-2-.77-4.19-1.65-6.63-2.74-11.51-5.17-9.28-12.8-7.32-19.52.28-.94.55-1.88.79-2.81,1-3.95-.93-5.94-3.88-8.94a33.68,33.68,0,0,1-7-9.4c-2.29-4.8-1.12-7.37.27-8.69,2.91-2.76,9.65-2.25,16,1.22a22.84,22.84,0,0,1,5.32,4.58c4.05,4.24,9.1,9.52,21.85,9.58,7.27,0,11.25,1,13.32,3.36,2.34,2.63,1.89,6.56,1.28,12-.21,1.89-.45,4-.59,6.34A36.92,36.92,0,0,0,115,501.3c4.86,5.79,10.84,17.79,8.26,25.17-1.08,3.1-3.5,5-7.2,5.79a20.24,20.24,0,0,1-4,.44C103.11,532.7,99.85,525.31,95.53,515.53ZM65.74,443c-5.67-3.1-11.76-3.73-14.15-1.46-1.82,1.73-1,4.68.07,6.86a31.77,31.77,0,0,0,6.72,9c3.08,3.14,5.51,5.63,4.27,10.45-.24.94-.52,1.9-.8,2.85-2,6.7-3.8,13,6.45,17.63,2.4,1.08,4.61,1.95,6.56,2.71,8.11,3.19,13.46,5.29,19.21,17.41,1.06,2.26,2,4.39,2.91,6.45,5,11.23,8,18,18.79,15.82,3.11-.63,5.13-2.23,6-4.76,2.27-6.51-3.18-17.91-8-23.63a37.78,37.78,0,0,1-7.71-24.92c.14-2.35.39-4.51.6-6.41.56-5,1-8.69-.9-10.79-1.71-1.92-5.45-2.79-12.14-2.83-13.43-.06-18.73-5.61-23-10.07A21.88,21.88,0,0,0,65.74,443Z"/><path class="cls-17" d="M115.91,541.85l1.58-.08c-.07-1.49-2.07-36.53-16.14-46.79C85.91,483.73,81,471.63,78.73,463.52,76,454,62.09,451.4,61.5,451.29l-.27,1.56c.13,0,13.51,2.49,16,11.1,2.38,8.34,7.38,20.77,23.22,32.31C113.88,506.08,115.89,541.5,115.91,541.85Z"/><path class="cls-17" d="M113.23,549.73c-3.31-1.64-3.19-8.27-3-18.31.23-12.68.55-30-6.09-46-7-17-.76-21.93,5.32-26.73,6.81-5.37,13.25-10.44.9-33.34-5.67-10.52-7.47-17.64-5.67-22.39s6.79-6.54,12.09-8.48c9.15-3.35,19.52-7.14,18.18-26.51-.41-5.93.29-9.58,2.2-11.48,2.07-2.07,5.13-1.85,8.67-1.59,5.35.39,11.4.84,16.68-6.05.55-1.72,5.59-17.07,11.62-19.7a4.32,4.32,0,0,1,3.7,0h0c4.16,2,6.58,4.36,7.39,7.22,1.4,5-2.25,10.62-6.49,17.14-6.65,10.24-14.18,21.85-6.37,35.66,10.34,18.26,4.88,24.65-2.68,33.5-4.33,5.06-9.23,10.81-12.51,20.18-2.64,7.53,1.86,14.71,6.21,21.66,5.46,8.72,11.11,17.73-.78,25.55-19.65,12.93-39.06,55.13-39.25,55.56l-.08.17-.15.12c-3.62,2.84-6.26,4.19-8.24,4.19A3.56,3.56,0,0,1,113.23,549.73Zm48.49-61c10.59-7,5.83-14.57.31-23.38-4.34-6.92-9.26-14.77-6.37-23,3.38-9.65,8.39-15.51,12.81-20.68,7.4-8.67,12.29-14.4,2.5-31.69-8.29-14.65-.13-27.21,6.42-37.31,4-6.19,7.5-11.54,6.29-15.84-.68-2.4-2.82-4.44-6.55-6.22h0a2.73,2.73,0,0,0-2.37,0C169.16,333,164,349.28,164,349.44l0,.13-.09.11c-5.81,7.69-12.65,7.19-18.14,6.78-3.28-.24-5.87-.43-7.43,1.13s-2.11,4.89-1.74,10.25c1.43,20.56-10,24.75-19.21,28.11-5.17,1.89-9.63,3.52-11.16,7.55-1.63,4.29.15,11,5.58,21.07,13,24.08,5.72,29.81-1.31,35.35-5.88,4.63-11.43,9-4.84,24.87,6.77,16.28,6.45,33.84,6.22,46.66-.16,8.75-.28,15.66,2.13,16.87,1.41.7,4.12-.49,8-3.54C123.55,541.37,142.14,501.62,161.72,488.73Z"/><path class="cls-18" d="M82.22,365.79c10-3.43,7.92,15.84,12.14,30.11s47,6.22,29.06,41.93,22.71,11.95,10.56,43.11-1,64.5-14.26,56-7.42-47.73-21.15-52.39-16-10.11-2.38-22.78-35.63-25.27-23.48-50.87S70.66,369.75,82.22,365.79Z"/><path class="cls-19" d="M115.12,534.92c1.26-5.34,12-52.29,2-58-8.83-5-8.61-24.46-7.23-42.83,1.22-16.26-19.67-23.86-20.56-24.18l-.53,1.49c.21.08,20.64,7.52,19.51,22.57-1.42,18.87-1.57,38.89,8,44.33,7.61,4.31.61,42.05-2.74,56.22Z"/><polygon class="cls-20" points="152.85 518.2 138.57 572.37 106.66 572.37 92.38 518.2 152.85 518.2"/><rect class="cls-1" x="444.45" y="64.07" width="125.45" height="112.98" rx="48.23"/><rect class="cls-3" x="501.73" y="155.68" width="9.95" height="1.84"/><path class="cls-21" d="M515.7,54.18s8,4.4,5.47,15.22S517.66,81.65,519.73,86s3.88,22.7,1.68,26.05-24.57-16.35-27-32.12,3.1-22.46,5.09-25S508.63,50.16,515.7,54.18Z"/><path class="cls-7" d="M530.75,143.64h-8.58c-.42-4.24-.8-7.18-.72-7.62.13-.72-8.54-23.45-9.35-25.33s-4-6.92-4.41-11.67,5.78-6.66,5.78-6.66c8.35,1.49,11.18,13,11.18,13s3.51,23.45,5.29,30A41.79,41.79,0,0,1,530.75,143.64Z"/><path class="cls-22" d="M526.43,111.06l-12.78,5.39s-11.75-29.15-1.9-25.9S526,99.9,526.43,111.06Z"/><path class="cls-22" d="M523.59,124.79c-.38,2.89-1.9,13.14-1.56,15.91.06.46.24,1.51.53,2.94H491.74c.82-2.93,1.57-5.52,2-7,1.49-5,.06-6.29-.7-10.26a80.46,80.46,0,0,0-2.45-7.84c-.38-1.11-.77-2.28-1.14-3.44a70.74,70.74,0,0,1-2.38-11c-1.86-11.86,7.26-13,7.26-13,3.39-.62,9.31-2.45,9.31-2.45l9.27,1.93a10.12,10.12,0,0,1,2.17,1.28h0a16.33,16.33,0,0,1,2.09,1.82,56.42,56.42,0,0,1,5,7.29c.62,1,1.24,2,1.82,3,1.89,3.26,3.22,5.89,3.18,8.86S524,121.89,523.59,124.79Z"/><path class="cls-7" d="M512.93,90.55s5.81,9.93,3.65,10.67-13.55-1.77-18-11.14C498.59,90.08,506.06,86.68,512.93,90.55Z"/><path class="cls-7" d="M512.1,95.09s-5.16,2.18-9.83-5c0,0,1.25-8.16-1.4-12.88s11.6,5.66,11.6,5.66-.23,1-.47,2.41c-.12.73-.25,1.59-.34,2.5-.08.75-.15,1.55-.17,2.34A12.83,12.83,0,0,0,512.1,95.09Z"/><path class="cls-23" d="M499.29,106.2c-1.06,5.47-8.68,12.31-8.68,12.31-.38-1.12-.77-2.28-1.14-3.44A49.9,49.9,0,0,0,499.29,106.2Z"/><path class="cls-7" d="M497.38,110.55c-.49,2-2.71,22.16-2.47,22.84.15.4,1.22,5.06,2.3,10.25h-9.95c-1-3.34-1.62-6.12-1.48-7.69.64-6.8-1.67-28.48-1.67-28.48s-2.06-13.12,8.82-14.76c0,0,6.43.85,6.82,5.6S497.86,108.57,497.38,110.55Z"/><path class="cls-22" d="M483.31,113.34l13.51,3.15s10.71-20.8,1.06-24.6C487.71,87.89,480.87,102,483.31,113.34Z"/><path class="cls-16" d="M514.45,55.33s11.74,4.31,4.3,24.56S496.12,76.44,498.42,64,514.45,55.33,514.45,55.33Z"/><path class="cls-21" d="M520.55,67.64a26.9,26.9,0,0,1-16.14,5.79s-2.32,5.67-2.7,7.4c0,0-9.82-16.86,1.47-25.38S524.72,64.11,520.55,67.64Z"/><path class="cls-16" d="M505.76,74.65c0-1.5-.77-5-3-4.1s-.24,7.89,1.26,7.53C504,78.08,505.77,78.2,505.76,74.65Z"/><path class="cls-9" d="M511.5,89.76a12.41,12.41,0,0,1-7.71-7c4.48,5.8,7.87,5,7.87,5C511.58,88.52,511.57,89,511.5,89.76Z"/><path class="cls-3" d="M537,84.52v1.8h10.61v10h1.8V84.52ZM465,96.28h1.8v-10h10.61v-1.8H465Zm82.66,51.37v10H537v1.8h12.41V147.65Zm-80.86,0H465v11.77h12.41v-1.8H466.75Z"/><rect class="cls-3" x="335.66" y="240.1" width="13.29" height="2.46"/><path class="cls-3" d="M382.13,145v2.41h14.18v13.3h2.4V145ZM285.9,160.75h2.41v-13.3h14.17V145H285.9Zm110.41,68.62v13.31H382.13v2.4h16.58V229.37Zm-108,0H285.9v15.71h16.58v-2.4H288.31Z"/><path class="cls-24" d="M639.17,330H627.93c-.21-.45-.37-.84-.51-1.15-3.33-7.88-20.52-25.94-20.52-25.94v.08l0,.08s0,.09,0,.15a.24.24,0,0,0,0,.09l0,.08c-.71,2.63-4.17,15.74-5.9,26.61H524.8c-.17-1-.38-2-.61-2.85a60.27,60.27,0,0,1-1.47-7.87c0-.13,0-.24,0-.37-.06-.46-.11-.92-.15-1.37a72.2,72.2,0,0,1-.12-12.59c-.22.46-1.75,6.09-3.77,13.05-1.11,3.81-2.36,8-3.6,12h-18l22.54-65c.5-.39,6.35-3.22,10.61-5.25s9.61-5.12,14.36-7.72c2.42-1.33,4.71-2.53,6.7-3.44l.3-.14h0l5.46-2.49h0l1.42-.13c4.58-.44,18.78-1.77,23.54-2.05.39,0,.72,0,1-.05h.47a59.52,59.52,0,0,1,7.38,2.53l.44.16.55.21,1,.39,2.11.83.75.3c7.7,3.05,16.53,6.83,18.62,8.34,1.39,1,5.7,9.12,10.7,19.18C630.43,292.81,637,317.68,639.17,330Z"/><path class="cls-7" d="M583.35,241.43c-.2,10.23-20,15.82-20,15.82s-8.28-10.38-6.3-11.38c.77-.39,1.09-1.94,1.19-3.67a35.21,35.21,0,0,0-.12-4.64c0-.72-.11-1.19-.11-1.19s2.83-3,6.43-6.54c6.29-6.22,14.93-14.18,14.94-11a2.91,2.91,0,0,1-.07.6C577.79,226.55,583.35,241.43,583.35,241.43Z"/><path class="cls-9" d="M575.73,226.45h0c0,.06-.88,1.32-2.32,3.12-3,3.82-8.75,10.1-15.17,12.63a35.21,35.21,0,0,0-.12-4.64,10.1,10.1,0,0,1-2-.24,61.65,61.65,0,0,1,4.3-6.3l4-1.19Z"/><path class="cls-7" d="M579.53,219c-1.72,3.72-3.34,6.42-3.8,7.49h0a13,13,0,0,1-2.32,3.12c-3.26,3.52-9.32,8.15-15.29,8a10.1,10.1,0,0,1-2-.24c-2.41-.52-5.25-1.64-6.82-4.7-12.35-24.19-3.4-44-3.4-44s33.77-9.55,39,.62C588.7,196.41,583.55,210.2,579.53,219Z"/><path class="cls-25" d="M545.94,188.66s-3.14-.17-3.92-6.12.79-7.5.79-7.5,13.94-5.84,19-6.6,17.31-1.49,20.2,1.81c0,0,7-1.63,8.92,10,3,18.47-10.33,36.4-10.33,36.4S580.67,204.6,578,203s-5,2.2-5,2.2l-5.44,1s8.26-17.85-1.65-18.51S551.61,189.7,545.94,188.66Z"/><path class="cls-7" d="M573.2,200.39c.52-5.31,10.13-7.34,9.49-1.77s-5.38,10.92-7.57,10.73S572.81,204.44,573.2,200.39Z"/><path class="cls-26" d="M629.46,276.08c-3.13-10-5.84-18-7.05-18.83-2.1-1.5-18.77-6.09-26.69-9.19l-.75-.3-2.11-.83-1-.39-.55-.21-.44-.16s0,0,0,0a130.55,130.55,0,0,0-8.73,11.17c-8.18,11.62-18.84,30.45-17.2,47.84.52,5.58,1.17,13.59,2.26,22.58.07.71.16,1.43.26,2.15h36.9c.45-9.41,1.26-21.8,2.47-26.61l0-.08a.24.24,0,0,1,0-.09c0-.05,0-.1,0-.15l0-.08v0s8.93,14,9.39,27.05h23.22C638.38,317.79,634.83,293.28,629.46,276.08Z"/><path class="cls-26" d="M551.44,248.62s-2.78,9.28-6.38,32.44h0c-.13.78-.25,1.57-.38,2.38,0,.09,0,.19,0,.29-.08.52-.16,1.07-.24,1.62l0,.2c-.06.36-.12.73-.17,1.11-.13.91-.27,1.85-.41,2.8-1.35,9.45-3.15,24.47-5,40.49H524.23c-.8-4.45-1.54-8.5-1.48-11.28a1.46,1.46,0,0,0-.07.19c-1.16,3.23-2.45,6.74-3.75,10.15-.11.32-.23.63-.35.94H493.44l25-65.52c.5-.39,6.95-3.86,11.22-5.89,4.45-2.12,10.07-4.73,15.06-7,2.39-1.11,4.63-2.13,6.53-3Z"/><path class="cls-27" d="M585.36,271.54,575.73,277l4.11,4.19-9,48.78H567.4c-1.25-9.86-2-18.71-2.52-24.73-2.52-26.88,24.31-57.2,26-59.05,1.29.49,2.68,1,4.12,1.59Z"/><path class="cls-27" d="M551.59,248.37s-3.6,11.75-7.79,41.09c-1.35,9.44-3.16,24.47-5,40.49h-1.42l-1.86-46.09,4.58-5L536,273.8l8.73-22.29c2.39-1.11,4.63-2.13,6.53-3Z"/><path class="cls-28" d="M591.34,246.28l-8-4.85s-.22,4.38-20,15.82L569,273.07Z"/><path class="cls-28" d="M558.09,243.64s.31,4.73,5.26,13.61l-11,14.29-.8-23.17Z"/><path class="cls-29" d="M563.38,257.25s2.13,8.5,1.36,10.88c0,0-4.67,1.7-8-.43A37.32,37.32,0,0,1,563.38,257.25Z"/><path class="cls-29" d="M560.81,286.14A213.78,213.78,0,0,0,559.4,330H550c-.12-1.85-.24-3.77-.36-5.79-1.74-30.22,8.94-57.22,8.94-57.22l4.77-1.2S561.84,279.1,560.81,286.14Z"/><path class="cls-27" d="M523.05,305c-.36,7.26-.3,13.7-.3,13.7h0s0,.23,0,.56c0-.13,0-.25,0-.37-1.16,3.23-2.45,6.74-3.75,10.15-.3-4-.37-7.64-.29-11.06.52-20.33,6.92-31,6.92-31C524.09,290.5,523.39,298.1,523.05,305Z"/><polygon class="cls-30" points="435.54 330.04 405.62 346.48 375.58 299.21 411.92 286.59 435.54 330.04"/><polygon class="cls-19" points="433.64 328.62 405.67 344 377.57 299.79 411.55 287.98 433.64 328.62"/><path class="cls-7" d="M443.89,320.35s-5.21-2.49-7.49-3.79-8.17-3.09-8.64-3.51-17.43-1.47-18.46-2.36-2,2.08,2.37,3,10.5,3.32,10.84,5-4.51,2.13-5,3.54.14,1.1.84,1.4,5.76-2.5,8-1.7,5.64-.31,7.35.27,10,3.38,10,3.38Z"/><path class="cls-7" d="M404.17,340.55s-4.38-3.94-6.49-5.58-6.09-6.49-6.68-6.78-8.17-15.85-9.41-16.47,1.17-2.72,3.79,1,7.22,8.61,9,8.25.24-5.08,1.38-6.09,1.09-.3,1.65.24-.12,6.41,1.5,8.2,1.91,5.43,3.12,6.81l7.09,8.13Z"/><path class="cls-31" d="M498.37,551s.94,6.57,1.06,7.56S510,558,510,558l.84-7.82S499.67,550.05,498.37,551Z"/><path class="cls-32" d="M499.32,557.69s-3.3,4-6.48,5.69-8.21,2.4-10.09,4.19c-1.36,1.29-5,6.84,8.29,6.73s19.63.78,21.05-1.35-2.06-15.7-2.06-15.7S506.9,558.38,499.32,557.69Z"/><path class="cls-31" d="M423.8,551s.94,6.57,1.06,7.56,10.53-.58,10.53-.58l.84-7.82S425.1,550.05,423.8,551Z"/><path class="cls-32" d="M424.75,557.69s-3.3,4-6.49,5.69-14.92,3.14-16.81,4.92c-1.36,1.29-3.62,6.48,15,6,13.24-.35,19.63.78,21-1.35s-2.06-15.7-2.06-15.7S432.51,558.45,424.75,557.69Z"/><path class="cls-29" d="M489.75,382.22s9.78,15.53,9.05,29.58,3.55,29.38,5,44.05c1.64,16.35,8.34,55.07,8.59,63.82s-1,36.69-1,36.69l-13.42.31s-11.27-67.7-14.18-74.61-17.39-56.14-17.88-61.67S489.75,382.22,489.75,382.22Z"/><path class="cls-29" d="M438.27,384.32s-7.37,38.49-8.34,47.09-1.62,41.6-2.11,47-3.24,70.3-5.84,78.29h17.16s13.16-47.21,13.16-69.54,10.17-48.55,16.74-63.29,21.6-15.08,25.63-42.42C494.67,381.42,443.74,375.65,438.27,384.32Z"/><path class="cls-7" d="M473.43,251.59s-13.12-4.9-19.18,5.09-5.47,30,1.15,32.45,16.56,1.18,19.94-5.08,6.45-15.29,6.3-21.33S476.88,253.33,473.43,251.59Z"/><path class="cls-7" d="M456.83,289.59s.54,3.54-.36,5.29,17,1.79,17,1.79a119.08,119.08,0,0,1,4.21-17.52C480.44,271.13,456.83,289.59,456.83,289.59Z"/><path class="cls-33" d="M477.68,279.15s-1.23,2-6.28,1.25-11.2-7.5-13.3-8.24-2.13-2-2.13-2l-1.32,1.92-2.24.14s2-6-1-8.45,3.19-19.43,19.37-13.78c0,0,12.43,3.43,12,10.49S480.47,275.63,477.68,279.15Z"/><path class="cls-34" d="M455.41,294.67s0-3.34,1.56-3.66,16.69-1.77,18.55-1v3.88S471.94,296.05,455.41,294.67Z"/><path class="cls-7" d="M456.3,267.62c.29-1.19,3.3-4.58,4.46-.95s-1.75,8.51-3.36,8.09S455.59,270.62,456.3,267.62Z"/><path class="cls-35" d="M395.17,334.08h0C395.1,334.12,395.08,334.13,395.17,334.08Z"/><path class="cls-36" d="M500.78,419.23A138.67,138.67,0,0,1,479,423.11c-13.73,1.52-48-.54-48.24-2.17s7.37-60.38,6.94-63.41-.66-13.81-.66-13.81c-.17,3-3.18,15-6.82,21.6-1.31,2.38-5.71,9.83-7.84,8.14-10.27-8.21-26.18-39.12-27.19-39.38.85-.37,7.54-3.45,8.48-3.77s8.23,7.58,12.73,12.44c2,2.17,3.42,3.75,3.42,3.75,1.3-2.92,6-21.3,7.49-27.66,3.31-14.35,2.8-14.95,2.8-14.95,10-3,25.29-9.22,25.29-9.22l20.11-.82s18.46,4.06,25.73,7.35c.69.31.69,16.47,2.58,20.7l-6,12.72s-3.49,25.19-4.21,36.39C493.27,376.15,500.78,419.23,500.78,419.23Z"/><path class="cls-36" d="M504.67,342.88c-.53,1.69-2.91,3.12-4.46,3.75A5.84,5.84,0,0,1,497,347l-.79-.15h0l-13.78-2.56s-3-34.73,18.83-43.05C501.83,301.39,509.49,327.33,504.67,342.88Z"/><g class="cls-37"><path d="M500.21,346.63h0A5.84,5.84,0,0,1,497,347l-.79-.15h0l1.36-17.75Z"/></g><g class="cls-37"><path d="M419.83,346.5l-1.68,7.13s-1.83-7.16-1.74-10.88C418.41,344.92,419.83,346.5,419.83,346.5Z"/></g><path class="cls-33" d="M477.17,252.77s17.2-2.16.29,26.58Z"/><polygon class="cls-30" points="389.41 296.67 387.66 293.67 401.44 288.92 403.18 291.9 389.41 296.67"/><g class="cls-38"><polygon class="cls-39" points="652.11 167.93 661.87 167.93 658.88 161.74 649.12 161.74 652.11 167.93"/><polygon class="cls-39" points="647.54 167.93 649.87 167.93 646.88 161.74 644.56 161.74 647.54 167.93"/><polygon class="cls-39" points="613.83 160.55 653.34 160.55 652.03 157.46 612.52 157.46 613.83 160.55"/></g><rect class="cls-1" x="385.81" y="56.75" width="16.74" height="5.05" rx="0.91"/><rect class="cls-1" x="385.81" y="68.84" width="16.74" height="5.05" rx="0.91"/><rect class="cls-1" x="385.81" y="80.94" width="16.74" height="5.05" rx="0.91"/><g class="cls-38"><rect class="cls-39" x="409.47" y="56.75" width="4.76" height="5.05" rx="0.91"/></g><g class="cls-38"><rect class="cls-39" x="409.47" y="68.84" width="4.76" height="5.05" rx="0.91"/></g><g class="cls-38"><rect class="cls-39" x="409.47" y="80.94" width="4.76" height="5.05" rx="0.91"/></g><polygon class="cls-39" points="348.5 334.28 366.01 334.28 360.65 323.16 343.14 323.16 348.5 334.28"/><polygon class="cls-39" points="340.3 334.28 344.48 334.28 339.11 323.16 334.94 323.16 340.3 334.28"/></g></svg>