<svg xmlns="http://www.w3.org/2000/svg" viewBox="0 0 700 640"><defs><style>.cls-1{fill:#fafafa;}.cls-2,.cls-5{fill:#e1e1e1;}.cls-2,.cls-3{fill-rule:evenodd;}.cls-3,.cls-4{fill:#ececec;}.cls-6{fill:#f5f5f5;}.cls-7{fill:#455a64;}.cls-8{fill:#263238;}.cls-9{fill:#00dfdf;}.cls-10{opacity:0.2;}.cls-11{fill:#fff;}.cls-12{fill:#ffbe9d;}.cls-13{fill:#eb996e;}.cls-14{fill:#d15b66;}.cls-15{fill:#1a2e35;}.cls-16{opacity:0.3;}.cls-17{fill:#c1525f;}</style></defs><title>Hire Page Illustration</title><g id="Layer_7" data-name="Layer 7"><path class="cls-1" d="M124.11,182h-5.87a4.64,4.64,0,0,0-1.77.19,2.85,2.85,0,0,0-1.4,1.24,3.09,3.09,0,0,0-.33.94,5.92,5.92,0,0,0,0,1v1.08a5.22,5.22,0,0,1-.07,1.11,3,3,0,0,1-1.31,1.89,2.88,2.88,0,0,1-1.15.41c-.42,0-.83,0-1.25,0H89.62a3.07,3.07,0,0,1-.85-.08,2.87,2.87,0,0,1-1.46-.9,3,3,0,0,1-.72-1.59,6.53,6.53,0,0,1,0-.88v-.88a4.77,4.77,0,0,0-.18-1.73,2.78,2.78,0,0,0-1-1.37,2.74,2.74,0,0,0-1.68-.46H70.1a9,9,0,0,0-7.24,3.2A8.91,8.91,0,0,0,61,189c-.09.34-.12.7-.18,1.05s0,.6,0,.9V335.3a9.11,9.11,0,0,0,.36,2.85,9,9,0,0,0,3.49,4.8,9.3,9.3,0,0,0,5.75,1.57h53.4c1.9,0,3.81,0,5.68,0a9,9,0,0,0,5.09-2,9.54,9.54,0,0,0,1.83-2,8.77,8.77,0,0,0,1.13-2.47,9.41,9.41,0,0,0,.34-2.69V321.86c0-28.41,0-54,.05-75.48s0-38.87,0-50.89v-4.25a9.14,9.14,0,0,0-.66-3.63,8.85,8.85,0,0,0-1.7-2.68,8.47,8.47,0,0,0-2-1.67,8.68,8.68,0,0,0-3.37-1.18,9.15,9.15,0,0,0-.92-.09l-.31,0h-4.84Z"/><path class="cls-1" d="M634.15,182h-5.88a4.61,4.61,0,0,0-1.76.19,2.81,2.81,0,0,0-1.4,1.24,3.09,3.09,0,0,0-.33.94,5.92,5.92,0,0,0,0,1v1.08a6,6,0,0,1-.07,1.11,3,3,0,0,1-1.31,1.89,2.93,2.93,0,0,1-1.16.41c-.42,0-.82,0-1.24,0h-21.3a3.14,3.14,0,0,1-.86-.08,2.87,2.87,0,0,1-1.46-.9,3,3,0,0,1-.71-1.59,6.53,6.53,0,0,1,0-.88v-.88a4.77,4.77,0,0,0-.18-1.73,2.84,2.84,0,0,0-1-1.37,2.77,2.77,0,0,0-1.69-.46H580.13a9.29,9.29,0,0,0-4,.74,9.18,9.18,0,0,0-3.28,2.46A8.91,8.91,0,0,0,571,189a9.21,9.21,0,0,0-.18,1.05c0,.3,0,.6-.05.9V335.3a9.42,9.42,0,0,0,.37,2.85,9,9,0,0,0,3.49,4.8,9.27,9.27,0,0,0,5.75,1.57h53.4c1.9,0,3.81,0,5.68,0a8.94,8.94,0,0,0,5.08-2,9.59,9.59,0,0,0,1.84-2,9.06,9.06,0,0,0,1.13-2.47,9.78,9.78,0,0,0,.34-2.69V321.86c0-28.41,0-54,0-75.48s0-38.87.05-50.89c0-1.5,0-2.92,0-4.25a9.14,9.14,0,0,0-.66-3.63,8.85,8.85,0,0,0-1.7-2.68,8.51,8.51,0,0,0-2-1.67,8.63,8.63,0,0,0-3.37-1.18,9,9,0,0,0-.91-.09l-.31,0h-4.84Z"/><path class="cls-2" d="M301.14,66.7a29.59,29.59,0,0,1,.19,7.8l6,4L303,89.68l-7.15-1.05a29,29,0,0,1-5.37,5.65l1.4,7.09L281,106.22l-4.32-5.79a29.52,29.52,0,0,1-7.79.19l-4,6-11.15-4.3,1-7.15a29.89,29.89,0,0,1-5.65-5.37L242,91.19l-4.85-10.93L242.94,76a29.1,29.1,0,0,1-.19-7.79l-6-4L241.05,53,248.2,54a29.27,29.27,0,0,1,5.37-5.65l-1.4-7.09,10.93-4.85,4.32,5.8a29.1,29.1,0,0,1,7.79-.19l4-6,11.15,4.3-1,7.15A29.64,29.64,0,0,1,295,52.86l7.08-1.4,4.85,10.93-5.79,4.31ZM284,66.62a12.82,12.82,0,1,0-6.52,16.93A12.82,12.82,0,0,0,284,66.62Z"/><path class="cls-3" d="M340.49,37.75a17.28,17.28,0,0,1,.11,4.65l3.59,2.4-2.57,6.67-4.27-.63a17.06,17.06,0,0,1-3.21,3.37l.84,4.24-6.53,2.89-2.57-3.46a17.78,17.78,0,0,1-4.66.12l-2.4,3.58L312.16,59l.62-4.27a17.29,17.29,0,0,1-3.37-3.2l-4.23.83-2.9-6.53,3.46-2.57a17.28,17.28,0,0,1-.11-4.65L302,36.21l2.57-6.66,4.27.62a17.63,17.63,0,0,1,3.21-3.37l-.84-4.23,6.53-2.89,2.58,3.45A17.69,17.69,0,0,1,325,23l2.4-3.58L334.07,22l-.62,4.27a17.64,17.64,0,0,1,3.37,3.21l4.23-.83,2.9,6.52-3.46,2.58Zm-10.24,0a7.66,7.66,0,1,0-3.9,10.11A7.67,7.67,0,0,0,330.25,37.7Z"/><path class="cls-4" d="M597.87,519.87c5.29-2.73,11.53-3.08,17.41-2.11,3.16.52,6.45,1.47,8.6,3.84s2.56,6.55.09,8.59c-1.47,1.21-3.52,1.39-5.42,1.37-4.61,0-9.71-.86-13.39,1.91-2.1,1.58-3.5,4.2-6,5s-5.22-.69-6.52-2.9a10.18,10.18,0,0,1-.74-7.48A11.44,11.44,0,0,1,597.87,519.87Z"/><path class="cls-4" d="M585.73,496.45c3.24,4.62,9.53,3.09,12.45.27s4.16-6.92,5.28-10.82c2.56-8.91,5.15-18.27,3.24-27.35a15.15,15.15,0,0,0-3.49-7.43,8,8,0,0,0-7.52-2.51c-3.18.84-5.15,3.95-6.57,6.91a65.32,65.32,0,0,0-6.45,28c0,4.5.52,9.23,3.06,12.95"/><path class="cls-4" d="M576.84,503.09c3.51-4.18,4.18-10.26,2.62-15.49s-5.1-9.68-9.18-13.31a49.26,49.26,0,0,0-16.42-9.69,17.47,17.47,0,0,0-7.39-1.26,7.75,7.75,0,0,0-6.2,3.75c-1.73,3.3-.07,7.3,1.72,10.56a125,125,0,0,0,10.79,16.43c3.23,4.17,6.94,8.29,11.87,10.17s10,1.66,12.66-1.76"/><path class="cls-5" d="M585.51,566.23a10.44,10.44,0,0,0,.3-2.11c.14-1.53.33-3.45.55-5.73a83.7,83.7,0,0,1,1.29-8.42,65.58,65.58,0,0,1,3.06-9.93,36.64,36.64,0,0,1,5.07-9,19,19,0,0,1,6.41-5.33,17.93,17.93,0,0,1,5.4-1.68,10.21,10.21,0,0,0,2.1-.31,9.77,9.77,0,0,0-2.13,0,16.29,16.29,0,0,0-5.63,1.47,18.86,18.86,0,0,0-6.77,5.37,35.65,35.65,0,0,0-5.25,9.17,60.48,60.48,0,0,0-3,10.09,70.37,70.37,0,0,0-1.12,8.52c-.18,2.44-.25,4.41-.28,5.77A10.14,10.14,0,0,0,585.51,566.23Z"/><path class="cls-5" d="M585.91,561.81a3.88,3.88,0,0,0,.05-1v-2.79c0-2.42,0-5.93.12-10.25.21-8.65,1-18,2.4-31.09,1.36-12.34,3.19-26.7,5.12-36,.41-2.12.83-4,1.22-5.71s.69-3.12,1-4.29.48-2,.65-2.71a5.82,5.82,0,0,0,.18-1,3.57,3.57,0,0,0-.34.91c-.22.7-.48,1.59-.81,2.67s-.73,2.6-1.15,4.27-.9,3.57-1.35,5.69A315.68,315.68,0,0,0,587.62,514c-1.45,13.15-2.1,25.13-2.15,33.8-.05,4.33,0,7.84.15,10.27.07,1.13.12,2.05.17,2.78A4.14,4.14,0,0,0,585.91,561.81Z"/><path class="cls-5" d="M586,538.71a19.56,19.56,0,0,0,0-2.91,77.55,77.55,0,0,0-.89-7.89,105.27,105.27,0,0,0-2.56-11.5,96.26,96.26,0,0,0-4.81-13.61,72.41,72.41,0,0,0-14.13-22,34.93,34.93,0,0,0-3.32-3.09c-.51-.43-1-.86-1.42-1.2l-1.29-.89a18.91,18.91,0,0,0-2.45-1.57c-.14.19,3.48,2.32,8,7.17a76.47,76.47,0,0,1,13.77,21.91,106.61,106.61,0,0,1,4.84,13.49A116.28,116.28,0,0,1,584.45,528c.6,3.28.95,6,1.16,7.82A17.57,17.57,0,0,0,586,538.71Z"/><polygon class="cls-5" points="563.64 579.46 565.95 611.17 606.69 611.17 609 579.46 563.64 579.46"/><rect class="cls-5" x="559.71" y="566.96" width="54.16" height="12.5"/><polygon class="cls-4" points="559.71 609.95 559.71 613.42 562.25 613.42 612.97 613.42 612.97 609.95 559.71 609.95"/><polygon class="cls-5" points="564.74 619.52 562.25 613.42 611.03 613.42 608.12 619.52 564.74 619.52"/><path class="cls-6" d="M608.25,589.82a1.31,1.31,0,0,1-.19.29l-.61.81-2.37,3-.11.13-.1-.14L599,585.89h.33L593.63,594l-.18.25-.2-.24-6.8-8.1h.39l-.38.47L580.38,594l-.21.25L580,594l-5.75-8.13.34,0L567.51,594l-.13.14-.1-.16-2.21-3.72c-.23-.41-.42-.73-.57-1a.2.2,0,1,1,.06,0c.17.25.38.56.63.95l2.33,3.65h-.22c1.81-2.13,4.17-4.9,7-8.16l.17-.21.16.23,5.79,8.08H580l6.08-7.64.37-.47.19-.24.2.24c2.39,2.84,4.68,5.59,6.79,8.11l-.38,0,5.8-8.09.17-.24.16.24,5.71,8.15h-.21c1-1.24,1.87-2.23,2.47-3l.66-.76C608.16,589.9,608.24,589.81,608.25,589.82Z"/><path class="cls-6" d="M609.57,579.25c0,.14-10.21.25-22.79.25s-22.8-.11-22.8-.25,10.2-.25,22.8-.25S609.57,579.11,609.57,579.25Z"/><path class="cls-6" d="M611.63,613.76c0,.14-11.09.25-24.77.25s-24.78-.11-24.78-.25,11.09-.25,24.78-.25S611.63,613.62,611.63,613.76Z"/><path class="cls-7" d="M658.18,620.19c0,.2-138,.37-308.17.37s-308.19-.17-308.19-.37,138-.38,308.19-.38S658.18,620,658.18,620.19Z"/><rect class="cls-8" x="115.21" y="551.47" width="81.83" height="11.24"/><path class="cls-8" d="M197.19,562.85H115.07V551.33h82.12Zm-81.84-.28h81.56v-11H115.35Z"/><polygon class="cls-8" points="122.8 558.97 134.58 617.08 178.16 617.08 189.55 562.71 122.8 558.97"/><polygon class="cls-7" points="122.8 611.59 129.08 620.22 182.06 620.22 189.55 611.59 122.8 611.59"/><path class="cls-8" d="M153.06,560.67c-.17,0-.37-26.92-.47-60.13s0-60.13.13-60.13.36,26.92.46,60.13S153.22,560.67,153.06,560.67Z"/><path class="cls-8" d="M171.28,493.3a2.55,2.55,0,0,1-.21.62c-.2.46-.44,1-.74,1.74l-.53,1.26q-.26.7-.54,1.53l-.63,1.75c-.22.62-.4,1.3-.61,2a83.08,83.08,0,0,0-2.29,10,124.7,124.7,0,0,0-1.27,12.53,170.22,170.22,0,0,0,.65,22.89c.26,2.92.53,5.28.72,6.91.09.76.16,1.39.21,1.88a2.75,2.75,0,0,1,0,.66,3,3,0,0,1-.15-.64c-.08-.49-.18-1.11-.31-1.87-.26-1.62-.59-4-.91-6.9a150.16,150.16,0,0,1-.82-23,114.67,114.67,0,0,1,1.32-12.59,75.87,75.87,0,0,1,2.43-10.05c.22-.7.41-1.38.64-2l.68-1.75.59-1.52.59-1.24.83-1.7A3.52,3.52,0,0,1,171.28,493.3Z"/><path class="cls-8" d="M169.19,471.52a5.23,5.23,0,0,1-.26.89c-.21.62-.49,1.46-.85,2.5l-.63,1.81c-.2.67-.42,1.39-.65,2.17-.48,1.56-1,3.33-1.53,5.32-.26,1-.54,2-.82,3.11s-.5,2.23-.77,3.41c-.57,2.34-1,4.89-1.51,7.54-.9,5.35-1.7,11.26-2.24,17.5s-.75,12.2-.83,17.62.06,10.32.28,14.42c.07,2.05.2,3.9.31,5.53s.2,3,.3,4.17.15,2,.2,2.63a5.43,5.43,0,0,1,0,.93,5.63,5.63,0,0,1-.15-.91c-.07-.66-.18-1.53-.31-2.63s-.27-2.54-.4-4.17-.29-3.48-.39-5.53c-.28-4.11-.39-9-.4-14.44s.26-11.41.78-17.67,1.36-12.18,2.29-17.54c.54-2.66,1-5.21,1.57-7.56.28-1.18.54-2.31.8-3.41s.59-2.12.86-3.11c.52-2,1.11-3.76,1.62-5.31l.7-2.16c.25-.65.47-1.25.68-1.79.4-1,.72-1.86.95-2.47A6.23,6.23,0,0,1,169.19,471.52Z"/><path class="cls-8" d="M147.88,565.43a1.16,1.16,0,0,1,0-.31c0-.25,0-.55-.07-.93q-.09-1.29-.24-3.57c-.2-3.14-.48-7.61-.83-13.11-.71-11.07-1.73-26.36-3.6-43.18-1-8.41-2.05-16.4-3.2-23.64-.61-3.61-1.16-7.05-1.79-10.25s-1.2-6.18-1.77-8.9-1.13-5.15-1.62-7.3-.93-4-1.31-5.5-.65-2.63-.85-3.47q-.13-.56-.21-.9a1.47,1.47,0,0,1-.05-.32,1.2,1.2,0,0,1,.11.3c.07.23.15.53.26.89l1,3.45c.41,1.49.91,3.33,1.41,5.47s1.14,4.58,1.71,7.3,1.24,5.68,1.83,8.89,1.23,6.64,1.85,10.25c1.18,7.25,2.3,15.24,3.25,23.66,1.87,16.84,2.83,32.15,3.44,43.23.3,5.54.51,10,.63,13.12.06,1.52.1,2.71.13,3.57l0,.93A1.57,1.57,0,0,1,147.88,565.43Z"/><path class="cls-9" d="M152.39,453.35c-.36-3.81-4.21-6.69-8-6.73s-7.4,2.26-9.75,5.29-3.63,6.73-4.69,10.41c-2.58,9-4,18.43-2.88,27.71s4.87,18.43,11.53,25c1.08,1.06,2.48,2.13,4,1.81a4.86,4.86,0,0,0,2.1-1.29,62,62,0,0,0,20.12-47.16c-.1-3.53-.57-7.2-2.52-10.14s-6.51-6.07-9.84-4.89"/><path class="cls-9" d="M123.79,422.81l-5.4,9.77c-.12.22-.29.48-.55.5s-.5-.24-.65-.48l-14.26-21.89,3.28-1.86Z"/><g class="cls-10"><path d="M123.79,422.81l-5.4,9.77c-.12.22-.29.48-.55.5s-.5-.24-.65-.48l-14.26-21.89,3.28-1.86Z"/></g><path class="cls-9" d="M152.72,440.41,104.06,411.7a2.28,2.28,0,0,1-1.18-1.19c-.19-.72.35-1.42.86-1.95a33.54,33.54,0,0,1,26-10.22A29.69,29.69,0,0,1,153.25,413c4.7,8.39,4.85,19.49-.53,27.45"/><path class="cls-8" d="M111.08,402.54a2.28,2.28,0,0,1,.63-.08c.42,0,1-.1,1.84-.09a35.68,35.68,0,0,1,6.75.54,39.28,39.28,0,0,1,9.62,2.92,39.39,39.39,0,0,1,21.87,25.57,36.69,36.69,0,0,1,1.21,6.66,12.63,12.63,0,0,1,.07,1.42,2.39,2.39,0,0,1-.37,1.06,7.9,7.9,0,0,0,.07-2.45,40.44,40.44,0,0,0-39.22-35.49C112,402.56,111.08,402.59,111.08,402.54Z"/><path class="cls-8" d="M146.13,420.6a12.16,12.16,0,0,1-2.46,1.11c-1.55.61-3.71,1.4-6.14,2.17s-4.64,1.38-6.26,1.77a12.05,12.05,0,0,1-2.65.51,13,13,0,0,1,2.54-.91l6.2-1.93,6.17-2A13.12,13.12,0,0,1,146.13,420.6Z"/><path class="cls-8" d="M138.47,400a20.54,20.54,0,0,1,.58,5.42,21.41,21.41,0,0,1-.3,5.45c-.17,0-.21-2.44-.29-5.43A34.83,34.83,0,0,1,138.47,400Z"/><path class="cls-8" d="M103.64,411.16a20.64,20.64,0,0,1,3.53-1.25c2.21-.68,5.29-1.54,8.72-2.37s6.57-1.46,8.85-1.86a21.31,21.31,0,0,1,3.71-.5,27.25,27.25,0,0,1-3.63.91c-2.25.5-5.37,1.19-8.79,2s-6.51,1.62-8.74,2.2A26.46,26.46,0,0,1,103.64,411.16Z"/><path class="cls-9" d="M132.19,445.08c-4.18-3.17-8.6-3.8-13.85-3.59a42.53,42.53,0,0,0-15.17,3.91C95,449,87.26,454.29,82.35,461.79s-6.6,17.42-2.93,25.59a3.62,3.62,0,0,0,1.66,2,4,4,0,0,0,2.74-.21c9.34-3,18.73-6.11,27.31-10.88s16.39-11.39,21-20.06a17.48,17.48,0,0,0,2.21-6.66,8.25,8.25,0,0,0-2.15-6.5"/><path class="cls-8" d="M132.28,444.09a3.37,3.37,0,0,1-.67.28l-2,.67-1.42.47c-.51.19-1.06.42-1.65.65-1.18.47-2.55.95-4,1.65l-2.29,1c-.79.37-1.59.82-2.43,1.25-1.69.83-3.4,1.89-5.22,3a90.4,90.4,0,0,0-11.05,8.19,89.34,89.34,0,0,0-9.53,9.92c-1.3,1.67-2.57,3.23-3.61,4.8-.54.78-1.08,1.51-1.55,2.25l-1.32,2.13c-.88,1.34-1.53,2.64-2.15,3.75-.31.56-.6,1.08-.85,1.56L81.94,487,81,488.87a3.1,3.1,0,0,1-.35.63,2.73,2.73,0,0,1,.25-.68l.81-1.9.61-1.37c.23-.5.52-1,.81-1.59.6-1.13,1.22-2.45,2.08-3.81.42-.69.85-1.41,1.3-2.17s1-1.49,1.53-2.28c1-1.59,2.29-3.17,3.59-4.86a79.85,79.85,0,0,1,20.72-18.23c1.84-1.07,3.57-2.12,5.28-2.94.85-.42,1.65-.87,2.46-1.22l2.31-1c1.46-.68,2.85-1.13,4-1.58.6-.22,1.15-.43,1.67-.6l1.44-.43,2-.57A3.6,3.6,0,0,1,132.28,444.09Z"/><path class="cls-8" d="M99.59,461.8a100.42,100.42,0,0,1-10.18,3.27,100.07,100.07,0,0,1-10.35,2.73,96,96,0,0,1,10.18-3.28C94.91,462.86,99.54,461.64,99.59,461.8Z"/><path class="cls-8" d="M99.17,484.26a16.44,16.44,0,0,1-.23-3.17c0-2-.06-4.68,0-7.67s.25-5.7.41-7.65a16.64,16.64,0,0,1,.4-3.15,18,18,0,0,1,0,3.17c-.06,2.15-.14,4.76-.23,7.65s-.14,5.5-.19,7.65A19.45,19.45,0,0,1,99.17,484.26Z"/><path class="cls-8" d="M118.41,474.45c-.16,0-.67-5.49-1.14-12.3s-.73-12.33-.56-12.34.67,5.5,1.14,12.3S118.57,474.44,118.41,474.45Z"/><path class="cls-8" d="M94.46,449.28a18.46,18.46,0,0,1,3.26-.1c2,0,4.79.07,7.85.17s5.85.23,7.86.35a18.36,18.36,0,0,1,3.24.31,17.17,17.17,0,0,1-3.25.1c-2,0-4.79-.07-7.86-.17s-5.85-.23-7.86-.35A18.2,18.2,0,0,1,94.46,449.28Z"/><path class="cls-8" d="M140.64,516.29a2.87,2.87,0,0,1-.07-.65c0-.49,0-1.11-.08-1.87-.07-1.62-.09-4,0-6.89s.25-6.37.6-10.2.93-8,1.71-12.41,1.78-8.5,2.77-12.23,2.06-7,3-9.78,1.81-4.95,2.45-6.46c.31-.7.55-1.27.75-1.72a2.65,2.65,0,0,1,.29-.59,2.92,2.92,0,0,1-.19.63c-.16.46-.37,1.05-.63,1.76-.58,1.53-1.36,3.75-2.28,6.51s-1.92,6.07-2.91,9.79-1.91,7.83-2.71,12.19-1.35,8.54-1.75,12.36-.62,7.26-.73,10.16-.16,5.26-.15,6.88c0,.76,0,1.38,0,1.87A2.51,2.51,0,0,1,140.64,516.29Z"/><path class="cls-8" d="M143.21,484.44a13,13,0,0,1-1.94,2.13c-1.26,1.25-3.05,2.94-5.09,4.73s-3.94,3.34-5.35,4.42a13.18,13.18,0,0,1-2.37,1.65,15.21,15.21,0,0,1,2.11-2l5.23-4.54,5.19-4.59A14.62,14.62,0,0,1,143.21,484.44Z"/><path class="cls-8" d="M158.61,496.84a22.56,22.56,0,0,1-2.07-2.86l-4.8-7-4.91-7a24.67,24.67,0,0,1-2-2.94,21.05,21.05,0,0,1,2.3,2.69c1.35,1.71,3.15,4.13,5.05,6.86s3.54,5.27,4.68,7.13A19.32,19.32,0,0,1,158.61,496.84Z"/><path class="cls-8" d="M150.54,457.83c.09.14-5,3.58-11.42,7.69s-11.66,7.34-11.74,7.2,5-3.57,11.42-7.69S150.46,457.7,150.54,457.83Z"/><path class="cls-8" d="M165,473.4a97.55,97.55,0,0,1-7.74-7.15,96,96,0,0,1-7.33-7.57,97.55,97.55,0,0,1,7.74,7.15A96,96,0,0,1,165,473.4Z"/><path class="cls-9" d="M168.6,473.09l4.39-.37a21.73,21.73,0,0,0,8.87-2.71,35.46,35.46,0,0,1,4.13-2.08c5.43-2.18,11.49-1.79,17.33-2.08a71.78,71.78,0,0,0,27.57-7.05,2.75,2.75,0,0,0,1.2-1.09c.9-1.64-.77-3.11-2.22-4-7.39-4.56-14.93-9.18-23.32-11.44s-17.91-1.88-25.07,3c-8.4,5.79-11.46,17.66-12.88,27.77"/><path class="cls-8" d="M232.19,457.17a3.8,3.8,0,0,1-.75-.35l-2.08-1.09c-1.8-1-4.4-2.35-7.69-3.92a71.16,71.16,0,0,0-11.9-4.59A39.36,39.36,0,0,0,194.35,446a26.35,26.35,0,0,0-14.06,6A31.12,31.12,0,0,0,173,462.29a85.39,85.39,0,0,0-3.19,8l-.78,2.22a4.27,4.27,0,0,1-.31.76,4.2,4.2,0,0,1,.2-.8c.17-.57.39-1.32.68-2.25a72.87,72.87,0,0,1,3-8.11,31.1,31.1,0,0,1,7.34-10.51,26.76,26.76,0,0,1,14.34-6.22,39.48,39.48,0,0,1,15.65,1.31,69.66,69.66,0,0,1,11.93,4.74c3.28,1.63,5.85,3.08,7.62,4.1l2,1.18A4.44,4.44,0,0,1,232.19,457.17Z"/><path class="cls-8" d="M221.64,462.84c-.09.13-5.83-3.59-12.83-8.3s-12.59-8.65-12.5-8.78,5.83,3.58,12.83,8.3S221.73,462.7,221.64,462.84Z"/><path class="cls-8" d="M215.52,445.45a13.79,13.79,0,0,1-4.19.76,14.31,14.31,0,0,1-4.26-.06,28.25,28.25,0,0,1,4.21-.43A29,29,0,0,1,215.52,445.45Z"/><path class="cls-8" d="M190.37,442.18a11,11,0,0,1-1.88,2.94,12.38,12.38,0,0,1-2.39,2.71,11.24,11.24,0,0,1,1.89-2.94A12.49,12.49,0,0,1,190.37,442.18Z"/><path class="cls-8" d="M195.52,466.22a14.65,14.65,0,0,1-2.77-1.5c-1.65-1-3.9-2.48-6.29-4.22s-4.51-3.39-6-4.59a18.16,18.16,0,0,1-2.38-2,16.32,16.32,0,0,1,2.63,1.71L186.8,460c2.39,1.73,4.58,3.25,6.18,4.35A19,19,0,0,1,195.52,466.22Z"/><path class="cls-9" d="M175.06,491.74c-4.19-1.1-9.18,3-10,7.22s.73,8.59,2.59,12.5c4.13,8.65,9.82,16.68,17.32,22.66s16.9,9.8,26.49,9.75c-1.77-8.22.47-16.82-.52-25.17a32.75,32.75,0,0,0-29-28.72c-2.68-.28-5.77-.7-6.84,1.76"/><path class="cls-8" d="M211.42,543.87a2.62,2.62,0,0,1-.6-.28,10.8,10.8,0,0,1-1.57-1.05,16.35,16.35,0,0,1-4.13-5.53c-.67-1.3-1.42-2.7-2.15-4.26s-1.46-3.23-2.25-5a48.51,48.51,0,0,0-2.77-5.33,42.17,42.17,0,0,0-3.81-5.18c-2.87-3.37-5.94-6.28-8.61-9.07a58.8,58.8,0,0,1-6.57-7.88,29.11,29.11,0,0,1-3.21-6.13c-.27-.77-.46-1.37-.56-1.79a3,3,0,0,1-.13-.65c.06,0,.29.86.9,2.36a32.11,32.11,0,0,0,3.34,6,62.65,62.65,0,0,0,6.61,7.74c2.68,2.75,5.78,5.66,8.67,9.06a41.62,41.62,0,0,1,3.86,5.26,48.55,48.55,0,0,1,2.77,5.4l2.2,5c.71,1.56,1.43,3,2.07,4.28a17,17,0,0,0,3.92,5.55C210.62,543.42,211.45,543.81,211.42,543.87Z"/><path class="cls-8" d="M189.76,537a11.94,11.94,0,0,1,.38-2.82c.33-1.73.87-4.1,1.59-6.68s1.51-4.88,2.13-6.52a13.36,13.36,0,0,1,1.14-2.61,14.6,14.6,0,0,1-.75,2.74c-.52,1.67-1.23,4-2,6.55s-1.32,4.91-1.75,6.61A16.33,16.33,0,0,1,189.76,537Z"/><path class="cls-8" d="M210.62,516.85a18,18,0,0,1-3-.68c-1.8-.47-4.3-1.12-7.07-1.74s-5.3-1.11-7.13-1.46a18.14,18.14,0,0,1-3-.65,14,14,0,0,1,3,.24c1.86.25,4.41.67,7.2,1.3s5.28,1.34,7.06,1.91A13.54,13.54,0,0,1,210.62,516.85Z"/><path class="cls-8" d="M174.21,522.71a18.05,18.05,0,0,1,.46-3.26c.36-2,1-4.75,1.73-7.75s1.62-5.69,2.28-7.62a15.68,15.68,0,0,1,1.2-3.06,23,23,0,0,1-.81,3.19c-.55,2-1.32,4.64-2.1,7.63s-1.43,5.72-1.9,7.69A19.56,19.56,0,0,1,174.21,522.71Z"/><path class="cls-8" d="M201,499.25c0,.16-5.24-.26-11.68-.94s-11.63-1.37-11.61-1.53a116.39,116.39,0,0,1,11.68,1C195.83,498.41,201,499.09,201,499.25Z"/><path class="cls-7" d="M197.18,562.67c0,.16-18.38.29-41.05.29s-41-.13-41-.29,18.37-.3,41.05-.3S197.18,562.5,197.18,562.67Z"/><path class="cls-7" d="M184.39,586.32c0,.16-12.38.29-27.66.29s-27.66-.13-27.66-.29,12.38-.29,27.66-.29S184.39,586.16,184.39,586.32Z"/><path class="cls-7" d="M183.91,589.7c0,.16-12.17.29-27.17.29s-27.18-.13-27.18-.29,12.16-.29,27.18-.29S183.91,589.54,183.91,589.7Z"/><path class="cls-7" d="M184.88,583.53c0,.16-12.81.29-28.61.29s-28.62-.13-28.62-.29,12.81-.29,28.62-.29S184.88,583.37,184.88,583.53Z"/><path class="cls-1" d="M203.76,121.06l-9.36,0a7.13,7.13,0,0,0-2.82.3,4.42,4.42,0,0,0-2.23,2,4.55,4.55,0,0,0-.53,1.5,9.94,9.94,0,0,0-.07,1.65v1.72a7.68,7.68,0,0,1-.11,1.78,4.74,4.74,0,0,1-2.09,3,4.56,4.56,0,0,1-1.84.65c-.66.06-1.31,0-2,0h-34a4.84,4.84,0,0,1-1.36-.14,4.38,4.38,0,0,1-2.33-1.43,4.76,4.76,0,0,1-1.14-2.54,9.41,9.41,0,0,1,0-1.4v-1.4a7.71,7.71,0,0,0-.28-2.76,4.52,4.52,0,0,0-1.68-2.18,4.38,4.38,0,0,0-2.69-.75H117.61a15,15,0,0,0-6.31,1.2,14.63,14.63,0,0,0-5.24,3.91,14.42,14.42,0,0,0-3,6c-.14.55-.18,1.12-.28,1.68s0,.95-.07,1.43V365.61a15.1,15.1,0,0,0,.58,4.54,14.3,14.3,0,0,0,5.56,7.65,14.92,14.92,0,0,0,9.18,2.52h29.05l37.74,0,18.39,0c3,0,6.07,0,9.06,0a14.25,14.25,0,0,0,8.11-3.14,15.23,15.23,0,0,0,2.93-3.23,14.24,14.24,0,0,0,1.8-4,15.12,15.12,0,0,0,.54-4.29v-4.36q0-8.7,0-17.2c0-45.31.05-86.12.07-120.4s.06-62,.08-81.17q0-3.6,0-6.79a14.68,14.68,0,0,0-1.06-5.79,14.08,14.08,0,0,0-2.71-4.27,13.39,13.39,0,0,0-3.26-2.66,13.79,13.79,0,0,0-5.38-1.9,13.37,13.37,0,0,0-1.46-.13l-.49,0-2,0Z"/><path class="cls-8" d="M211.64,121.23h.5a10.59,10.59,0,0,1,1.46.11,14.44,14.44,0,0,1,8.68,4.53,14.64,14.64,0,0,1,2.74,4.29,14.93,14.93,0,0,1,1.07,5.84q0,3.19,0,6.79c0,19.17,0,46.9.05,81.17s0,75.09,0,120.4v21.56a15.51,15.51,0,0,1-.55,4.39,14.45,14.45,0,0,1-1.84,4.06,15.51,15.51,0,0,1-3,3.32,14.52,14.52,0,0,1-8.3,3.23c-3,.09-6,0-9,0H185.11l-37.61,0H118.56a15.24,15.24,0,0,1-9.37-2.59,14.71,14.71,0,0,1-5.71-7.88,15.76,15.76,0,0,1-.6-4.87v-4.85q0-9.67,0-19.24,0-19.1,0-37.61c0-24.66,0-48.45,0-71.11s0-44.19,0-64.35q0-15.1,0-29.16v-3.49c0-.58,0-1.16.08-1.74s.15-1.16.3-1.72a14.56,14.56,0,0,1,8.36-10.08,15,15,0,0,1,6.4-1.21h21.53a4.58,4.58,0,0,1,2.83.79,4.76,4.76,0,0,1,1.76,2.32,7.65,7.65,0,0,1,.29,2.84v1.4a10.33,10.33,0,0,0,0,1.37,4.56,4.56,0,0,0,1.07,2.41,4.28,4.28,0,0,0,2.2,1.36,4.67,4.67,0,0,0,1.3.13h6.51l19,0H183c.66,0,1.33,0,2,0a4.31,4.31,0,0,0,1.76-.62,4.55,4.55,0,0,0,2-2.9,7.89,7.89,0,0,0,.11-1.75v-1.72a10.45,10.45,0,0,1,.08-1.68,4.78,4.78,0,0,1,.54-1.54,4.53,4.53,0,0,1,2.3-2,7.07,7.07,0,0,1,2.86-.3l9.33,0,5.74,0,1.95,0-1.95,0H204l-9.33,0a7.1,7.1,0,0,0-2.81.3,4.4,4.4,0,0,0-2.22,2,4.55,4.55,0,0,0-.53,1.5,9.94,9.94,0,0,0-.07,1.65c0,.57,0,1.14,0,1.72a8.29,8.29,0,0,1-.12,1.78,4.68,4.68,0,0,1-2.08,3,4.46,4.46,0,0,1-1.83.65c-.67.06-1.31,0-2,0H149.14a5.23,5.23,0,0,1-1.36-.13,4.47,4.47,0,0,1-2.32-1.44,4.76,4.76,0,0,1-1.14-2.54,11,11,0,0,1,0-1.4V127a7.49,7.49,0,0,0-.28-2.76,4.44,4.44,0,0,0-1.67-2.18,4.33,4.33,0,0,0-2.68-.75H118.11a14.34,14.34,0,0,0-11.5,5.11,14.34,14.34,0,0,0-3,6c-.15.55-.19,1.12-.29,1.68s-.07,1.14-.08,1.71v3.49q0,14,0,29.16c0,20.16,0,41.69,0,64.35s0,46.45,0,71.11v61.7a15.54,15.54,0,0,0,.58,4.76,14.35,14.35,0,0,0,5.55,7.66,14.84,14.84,0,0,0,9.14,2.51H147.5l37.61,0,18.32,0c3,0,6,0,9,0a14.19,14.19,0,0,0,8.09-3.14,14.94,14.94,0,0,0,2.92-3.23,14.37,14.37,0,0,0,1.79-3.95,15.12,15.12,0,0,0,.54-4.29v-4.36q0-8.7,0-17.2c0-45.31,0-86.12.06-120.4s.06-62,.08-81.17q0-3.6,0-6.79a14.68,14.68,0,0,0-1-5.79,14.06,14.06,0,0,0-2.7-4.27,14.39,14.39,0,0,0-8.61-4.56,13.24,13.24,0,0,0-1.45-.13Z"/><path class="cls-8" d="M214.43,144.53c0,.06-2.38.13-5.31.15s-5.32,0-5.32-.06,2.38-.14,5.31-.16S214.43,144.47,214.43,144.53Z"/><path class="cls-8" d="M214.45,147.25c0,.06-2.38.13-5.31.15s-5.31,0-5.31-.07,2.37-.13,5.31-.15S214.45,147.18,214.45,147.25Z"/><path class="cls-8" d="M214.47,150c0,.07-2.38.14-5.31.16s-5.31,0-5.31-.07,2.38-.13,5.31-.15S214.47,149.9,214.47,150Z"/><path class="cls-8" d="M117.81,153.07l.22,0,.61,0,2.27-.05-.06.06c0-.5,0-1,0-1.64,0-.31,0-.6,0-1a.87.87,0,0,1,.76-.7c.36,0,.69,0,1.08,0a.88.88,0,0,1,.75.87c0,.77,0,1.57,0,2.4l-.1-.1,2.86,0-.11.11c0-1.15,0-2.35,0-3.57,0-.3,0-.6,0-.91a.93.93,0,0,0-.4-.67l-1.25-1.23c-.41-.41-.81-.81-1.21-1.19l-.58-.58c-.21-.2-.36-.4-.6-.44a.75.75,0,0,0-.65.12c-.18.15-.36.36-.53.53-.36.35-.7.7-1,1-.65.67-1.32,1.28-1.81,1.86a2.05,2.05,0,0,0-.14,1.07v1c0,.62,0,1.16,0,1.62s0,.76,0,1a2.39,2.39,0,0,1,0,.38,2.37,2.37,0,0,1,0-.35q0-.41,0-1c0-.47,0-1,0-1.64,0-.32,0-.66,0-1v-.57a1.19,1.19,0,0,1,.15-.6c.53-.64,1.17-1.22,1.82-1.91l1-1c.19-.18.34-.36.56-.55a.94.94,0,0,1,.83-.16,1.43,1.43,0,0,1,.68.49l.59.57,1.21,1.19,1.25,1.23a1.8,1.8,0,0,1,.32.35.83.83,0,0,1,.15.48c0,.3,0,.61,0,.91q0,1.83,0,3.57v.11h-.11l-2.86,0h-.11V153c0-.83,0-1.63,0-2.4a.69.69,0,0,0-.58-.69c-.33,0-.71,0-1,0a.69.69,0,0,0-.62.55c0,.29,0,.62,0,.92v1.7h-3.17Z"/><path class="cls-8" d="M189.94,248.27c0,.41-11.38.74-25.41.74s-25.42-.33-25.42-.74,11.38-.75,25.42-.75S189.94,247.85,189.94,248.27Z"/><rect class="cls-9" x="139.93" y="173.72" width="49.34" height="65.65" transform="translate(-42.86 370) rotate(-89.68)"/><polygon class="cls-9" points="131.64 231.04 154.74 200.49 168.84 219.76 178.53 209.56 197.29 231.4 131.64 231.04"/><path class="cls-9" d="M175,196.85a5.17,5.17,0,1,1-5.14-5.2A5.18,5.18,0,0,1,175,196.85Z"/><g class="cls-10"><polygon points="131.64 231.04 154.74 200.49 168.84 219.76 178.53 209.56 197.29 231.4 131.64 231.04"/></g><g class="cls-10"><path d="M175,196.85a5.17,5.17,0,1,1-5.14-5.2A5.18,5.18,0,0,1,175,196.85Z"/></g><path class="cls-8" d="M209.72,266.43c0,.41-20.17.74-45.06.74s-45.06-.33-45.06-.74,20.17-.75,45.06-.75S209.72,266,209.72,266.43Z"/><path class="cls-8" d="M209.72,279c0,.41-20.17.75-45.06.75s-45.06-.34-45.06-.75,20.17-.75,45.06-.75S209.72,278.58,209.72,279Z"/><path class="cls-8" d="M209.72,291.55c0,.41-20.17.75-45.06.75s-45.06-.34-45.06-.75,20.17-.74,45.06-.74S209.72,291.14,209.72,291.55Z"/><path class="cls-8" d="M209.72,304.12c0,.41-20.17.74-45.06.74s-45.06-.33-45.06-.74,20.17-.75,45.06-.75S209.72,303.7,209.72,304.12Z"/><path class="cls-8" d="M209.72,316.68c0,.41-20.17.74-45.06.74s-45.06-.33-45.06-.74,20.17-.75,45.06-.75S209.72,316.27,209.72,316.68Z"/><path class="cls-8" d="M190.34,328.15c0,.21-2.9.39-7.58.53s-11.15.22-18.29.22-13.61-.09-18.3-.22-7.57-.32-7.57-.53,2.89-.39,7.57-.53,11.15-.22,18.3-.22,13.61.09,18.29.22S190.34,327.94,190.34,328.15Z"/><path class="cls-1" d="M328.85,100H318.44a8.18,8.18,0,0,0-3.13.34,4.92,4.92,0,0,0-2.48,2.21,5.26,5.26,0,0,0-.58,1.67,11.14,11.14,0,0,0-.08,1.84V108a9,9,0,0,1-.12,2,5.25,5.25,0,0,1-2.32,3.35,4.89,4.89,0,0,1-2.05.72c-.74.07-1.46,0-2.2,0H267.72a5.54,5.54,0,0,1-1.51-.15,4.94,4.94,0,0,1-2.59-1.6,5.35,5.35,0,0,1-1.27-2.83,11.82,11.82,0,0,1-.05-1.57c0-.51,0-1,0-1.56a8.31,8.31,0,0,0-.31-3.07,5,5,0,0,0-1.86-2.44,4.81,4.81,0,0,0-3-.82h-24a15.87,15.87,0,0,0-12.82,5.69,16,16,0,0,0-3.3,6.66c-.16.61-.21,1.24-.32,1.87s-.06,1.06-.08,1.6V220.18c0,1.4,0,2.76,0,4.16,0,4.21,0,8.51,0,12.79V372.71a16.91,16.91,0,0,0,.65,5.06,16,16,0,0,0,6.18,8.54,16.5,16.5,0,0,0,10.19,2.8H265.9l41.94,0,20.44,0c3.36,0,6.74.05,10.05-.05a15.83,15.83,0,0,0,9-3.49,16.69,16.69,0,0,0,3.26-3.61,16,16,0,0,0,2-4.4,16.81,16.81,0,0,0,.6-4.78V368q0-9.71,0-19.18c0-50.54,0-96.05.07-134.28s.07-69.15.09-90.54q0-4,0-7.56a16.46,16.46,0,0,0-1.17-6.46,15.89,15.89,0,0,0-3-4.77,16.14,16.14,0,0,0-9.61-5.08A12.22,12.22,0,0,0,338,100l-.55,0-2.18,0Z"/><path class="cls-8" d="M337.55,99.82l.55,0a11.6,11.6,0,0,1,1.62.12A16,16,0,0,1,349.4,105a15.9,15.9,0,0,1,3.06,4.79,16.71,16.71,0,0,1,1.2,6.51c0,2.37,0,4.9,0,7.57,0,21.38,0,52.31.05,90.53s0,83.74,0,134.28v24.05a17.34,17.34,0,0,1-.62,4.9,16.31,16.31,0,0,1-2.05,4.52,17.31,17.31,0,0,1-3.34,3.71,16.22,16.22,0,0,1-9.27,3.59c-3.36.1-6.7,0-10.08.05H308l-41.94,0H233.72a16.94,16.94,0,0,1-10.45-2.88,16.46,16.46,0,0,1-6.36-8.79,17.86,17.86,0,0,1-.67-5.43V367q0-10.8,0-21.46,0-21.3,0-41.95c0-27.5,0-54,0-79.31s0-49.28,0-71.76q0-16.86,0-32.52c0-1.31,0-2.6,0-3.9,0-.64.05-1.3.09-1.94s.16-1.29.32-1.91a16.32,16.32,0,0,1,3.38-6.8,16.58,16.58,0,0,1,6-4.45,16.84,16.84,0,0,1,7.14-1.35h24a5.08,5.08,0,0,1,3.16.88,5.33,5.33,0,0,1,2,2.58,8.8,8.8,0,0,1,.33,3.17v1.56a12.86,12.86,0,0,0,0,1.53,5.09,5.09,0,0,0,1.2,2.68,4.79,4.79,0,0,0,2.45,1.53,5.85,5.85,0,0,0,1.45.14h7.27l21.16,0,9.33,0c.74,0,1.49,0,2.18,0a4.84,4.84,0,0,0,2-.69A5.09,5.09,0,0,0,312,109.8a8.41,8.41,0,0,0,.12-1.94c0-.65,0-1.29,0-1.92a11.78,11.78,0,0,1,.08-1.88,5.29,5.29,0,0,1,.61-1.71,5,5,0,0,1,2.56-2.27,8,8,0,0,1,3.19-.34l10.4,0,6.41,0c1.44,0,2.18,0,2.18,0l-2.18,0-6.41,0-10.4,0a7.84,7.84,0,0,0-3.14.34,4.9,4.9,0,0,0-2.48,2.2,5.34,5.34,0,0,0-.58,1.67,11.21,11.21,0,0,0-.08,1.85c0,.63,0,1.27,0,1.92a9.55,9.55,0,0,1-.13,2,5.29,5.29,0,0,1-2.32,3.36,5,5,0,0,1-2,.72c-.75.06-1.46,0-2.21,0H267.83a6,6,0,0,1-1.51-.14,5.06,5.06,0,0,1-2.59-1.61,5.35,5.35,0,0,1-1.27-2.83,11.67,11.67,0,0,1,0-1.56v-1.56a8.56,8.56,0,0,0-.32-3.08,5,5,0,0,0-1.86-2.43,4.81,4.81,0,0,0-3-.83h-24a16,16,0,0,0-12.82,5.69,16.06,16.06,0,0,0-3.3,6.66c-.16.61-.21,1.25-.32,1.87s-.08,1.27-.09,1.91V120q0,15.64,0,32.52c0,22.48,0,46.49,0,71.76s0,51.81,0,79.31v68.82a17.17,17.17,0,0,0,.65,5.3,16,16,0,0,0,6.18,8.54A16.51,16.51,0,0,0,233.72,389h10.84L266,389l41.94,0h20.44c3.37,0,6.74.05,10.06,0a15.82,15.82,0,0,0,9-3.5,16.91,16.91,0,0,0,3.25-3.61,15.75,15.75,0,0,0,2-4.4,16.76,16.76,0,0,0,.6-4.78v-4.87q0-9.71,0-19.18c0-50.54.05-96.05.07-134.28s.07-69.15.09-90.53c0-2.67,0-5.2,0-7.57a16.31,16.31,0,0,0-1.17-6.46,16.15,16.15,0,0,0-3-4.77,16.08,16.08,0,0,0-9.6-5.07,12.74,12.74,0,0,0-1.63-.15Z"/><path class="cls-8" d="M340.65,125.81c0,.07-2.65.15-5.92.17s-5.93,0-5.93-.07,2.65-.15,5.92-.18S340.65,125.74,340.65,125.81Z"/><path class="cls-8" d="M340.67,128.84c0,.07-2.65.15-5.92.17s-5.92,0-5.92-.07,2.65-.15,5.92-.18S340.67,128.77,340.67,128.84Z"/><path class="cls-8" d="M340.7,131.87c0,.07-2.65.15-5.92.18s-5.93,0-5.93-.08,2.65-.15,5.92-.17S340.7,131.8,340.7,131.87Z"/><path class="cls-8" d="M232.89,135.33h.25l.68,0,2.53-.06-.07.07q0-.84,0-1.83c0-.34,0-.66,0-1.06a1,1,0,0,1,.85-.78c.41,0,.76,0,1.21,0a1,1,0,0,1,.83,1c0,.86,0,1.75,0,2.68l-.12-.12,3.19,0-.12.13c0-1.29,0-2.62,0-4,0-.34,0-.68,0-1a1,1,0,0,0-.44-.76l-1.4-1.37-1.35-1.33-.65-.64a1.53,1.53,0,0,0-.66-.5.86.86,0,0,0-.73.14c-.19.17-.4.4-.59.59l-1.15,1.15c-.72.75-1.47,1.43-2,2.08a2.19,2.19,0,0,0-.16,1.19c0,.4,0,.77,0,1.12,0,.69,0,1.3,0,1.82s0,.84,0,1.15a3.53,3.53,0,0,1,0,.42s0-.12,0-.38,0-.69,0-1.14,0-1.13,0-1.83c0-.36,0-.74,0-1.14,0-.21,0-.42,0-.63a1.34,1.34,0,0,1,.17-.67c.59-.72,1.3-1.36,2-2.13l1.14-1.17c.2-.2.37-.4.62-.61a1.1,1.1,0,0,1,.92-.18,1.68,1.68,0,0,1,.77.55l.65.64,1.35,1.32,1.4,1.37a2.77,2.77,0,0,1,.36.39,1,1,0,0,1,.16.54c0,.34,0,.68,0,1,0,1.36,0,2.69,0,4v.13h-.12l-3.19,0h-.12v-.12c0-.93,0-1.82,0-2.67a.78.78,0,0,0-.65-.78c-.36,0-.8,0-1.15,0a.78.78,0,0,0-.69.62c0,.32,0,.69,0,1,0,.66,0,1.27,0,1.83v.07h-2.65l-.67,0Z"/><path class="cls-9" d="M297.4,151.93a10.7,10.7,0,1,1-10.69-10.7A10.69,10.69,0,0,1,297.4,151.93Z"/><path class="cls-11" d="M290.38,156.24H283v-.9a3.67,3.67,0,0,1,3.67-3.67h0a3.67,3.67,0,0,1,3.67,3.67Z"/><path class="cls-11" d="M288.86,149.77a2.16,2.16,0,1,1-2.15-2.16A2.16,2.16,0,0,1,288.86,149.77Z"/><path class="cls-8" d="M313.34,180.2c0,.46-12.69.83-28.34.83s-28.35-.37-28.35-.83,12.69-.83,28.35-.83S313.34,179.74,313.34,180.2Z"/><rect class="cls-9" x="233.15" y="202.42" width="36.79" height="48.94" transform="translate(23.25 477.16) rotate(-89.68)"/><polygon class="cls-9" points="226.97 245.15 244.19 222.38 254.7 236.74 261.92 229.14 275.91 245.42 226.97 245.15"/><path class="cls-9" d="M259.29,219.66a3.86,3.86,0,1,1-3.83-3.87A3.85,3.85,0,0,1,259.29,219.66Z"/><g class="cls-10"><polygon points="226.97 245.15 244.19 222.38 254.7 236.74 261.92 229.14 275.91 245.42 226.97 245.15"/></g><g class="cls-10"><path d="M259.29,219.66a3.86,3.86,0,1,1-3.83-3.87A3.85,3.85,0,0,1,259.29,219.66Z"/></g><rect class="cls-9" x="240.81" y="242.76" width="85.04" height="113.14" transform="translate(-17.58 580.99) rotate(-89.68)"/><polygon class="cls-9" points="226.52 341.53 266.33 288.9 290.63 322.1 307.33 304.52 339.66 342.17 226.52 341.53"/><path class="cls-9" d="M301.24,282.62a8.91,8.91,0,1,1-8.86-9A8.9,8.9,0,0,1,301.24,282.62Z"/><g class="cls-10"><polygon points="226.52 341.53 266.33 288.9 290.63 322.1 307.33 304.52 339.66 342.17 226.52 341.53"/></g><g class="cls-10"><path d="M301.24,282.62a8.91,8.91,0,1,1-8.86-9A8.9,8.9,0,0,1,301.24,282.62Z"/></g><rect class="cls-9" x="297.76" y="202.42" width="36.79" height="48.94" transform="translate(87.5 541.77) rotate(-89.68)"/><polygon class="cls-9" points="291.58 245.15 308.8 222.38 319.31 236.74 326.53 229.14 340.52 245.42 291.58 245.15"/><circle class="cls-9" cx="320.04" cy="219.64" r="3.85" transform="translate(-67.63 239.06) rotate(-37.33)"/><g class="cls-10"><polygon points="291.58 245.15 308.8 222.38 319.31 236.74 326.53 229.14 340.52 245.42 291.58 245.15"/></g><g class="cls-10"><circle cx="320.04" cy="219.64" r="3.85" transform="translate(-67.63 239.06) rotate(-37.33)"/></g><path class="cls-1" d="M527.72,40.57l-15.5,0c-1.52,0-3.15-.16-4.66.51a7.36,7.36,0,0,0-3.7,3.28,7.83,7.83,0,0,0-.86,2.49,15.46,15.46,0,0,0-.12,2.74v2.86a13.41,13.41,0,0,1-.18,3,7.83,7.83,0,0,1-3.46,5,7.47,7.47,0,0,1-3,1.07c-1.11.1-2.18,0-3.29,0H436.68a8.6,8.6,0,0,1-2.25-.22A7.47,7.47,0,0,1,430.57,59a7.88,7.88,0,0,1-1.89-4.21,16.55,16.55,0,0,1-.08-2.33V50.09a12.54,12.54,0,0,0-.47-4.58,7.45,7.45,0,0,0-2.77-3.62,7.18,7.18,0,0,0-4.46-1.23H385.14A23.73,23.73,0,0,0,366,49.13,23.83,23.83,0,0,0,361.12,59c-.24.91-.31,1.86-.48,2.79s-.08,1.58-.1,2.37V446.5a24.8,24.8,0,0,0,.95,7.53,23.79,23.79,0,0,0,9.21,12.71,24.59,24.59,0,0,0,15.18,4.17H402l31.94,0,62.47.05,30.44,0c5,0,10,.08,15-.07a23.49,23.49,0,0,0,13.43-5.2,25.51,25.51,0,0,0,4.85-5.37,23.47,23.47,0,0,0,3-6.55,24.8,24.8,0,0,0,.9-7.12v-7.24q0-14.44,0-28.55c0-75.22.08-143,.11-199.85s.1-102.92.14-134.75c0-4,0-7.73,0-11.25a24.52,24.52,0,0,0-1.74-9.63A24,24,0,0,0,558,48.34a22.93,22.93,0,0,0-5.4-4.41,22.68,22.68,0,0,0-8.9-3.14,18.74,18.74,0,0,0-2.42-.22l-.81-.06-3.25,0Z"/><path class="cls-8" d="M540.74,40.65l.82,0a17.36,17.36,0,0,1,2.41.19A22.33,22.33,0,0,1,552.92,44a23,23,0,0,1,5.44,4.41,23.92,23.92,0,0,1,4.54,7.12,24.71,24.71,0,0,1,1.78,9.68c0,3.52,0,7.26,0,11.23,0,31.77,0,77.72.08,134.5s0,124.4,0,199.48V446.1a25.62,25.62,0,0,1-.91,7.27,24.27,24.27,0,0,1-3,6.72,25.78,25.78,0,0,1-5,5.51,24.11,24.11,0,0,1-13.76,5.34c-5,.15-10,0-15,.07H496.78l-62.31,0h-48A25.23,25.23,0,0,1,371,466.65a24.35,24.35,0,0,1-9.45-13,26.32,26.32,0,0,1-1-8.07v-8q0-16,0-31.88,0-31.65,0-62.32c0-40.86,0-80.28.05-117.82s0-73.22.05-106.61q0-25.05,0-48.32V64.77c0-1,.08-1.93.13-2.89s.25-1.91.49-2.84a24.28,24.28,0,0,1,5-10.1,24.21,24.21,0,0,1,19.43-8.62l20.78,0h14.9a7.57,7.57,0,0,1,4.69,1.31,7.85,7.85,0,0,1,2.92,3.83,12.84,12.84,0,0,1,.48,4.71v2.32a17,17,0,0,0,.07,2.27,7.61,7.61,0,0,0,1.78,4A7,7,0,0,0,435,61.06a7.67,7.67,0,0,0,2.15.21H448l31.43,0,13.86,0c1.09,0,2.21,0,3.24,0a7.09,7.09,0,0,0,2.92-1,7.55,7.55,0,0,0,3.34-4.8,13.43,13.43,0,0,0,.19-2.9c0-1,0-1.91,0-2.85a16.09,16.09,0,0,1,.12-2.78,8.24,8.24,0,0,1,.9-2.55A7.51,7.51,0,0,1,507.8,41c1.56-.68,3.23-.47,4.73-.5l15.46,0,9.51,0,3.24,0s-1.1,0-3.24,0l-9.51,0-15.46,0c-1.52,0-3.15-.16-4.65.5a7.3,7.3,0,0,0-3.69,3.28,7.86,7.86,0,0,0-.86,2.48,15.46,15.46,0,0,0-.12,2.74c0,.94,0,1.89,0,2.85a14.07,14.07,0,0,1-.19,2.95,7.78,7.78,0,0,1-3.45,5,7.3,7.3,0,0,1-3,1.08c-1.11.1-2.17,0-3.28,0h-56.1a9,9,0,0,1-2.24-.22,7.45,7.45,0,0,1-3.85-2.39,7.91,7.91,0,0,1-1.88-4.2,16.46,16.46,0,0,1-.08-2.32V50.22a12.46,12.46,0,0,0-.47-4.57A7.49,7.49,0,0,0,425.89,42a7.17,7.17,0,0,0-4.45-1.23H385.76a23.72,23.72,0,0,0-19.05,8.46,23.91,23.91,0,0,0-4.9,9.89c-.24.91-.31,1.85-.48,2.78s-.11,1.89-.12,2.84v5.78q0,23.25,0,48.32c0,33.39,0,69.06,0,106.61s0,77,0,117.82v62.32q0,15.83,0,31.88v8a25.48,25.48,0,0,0,1,7.88,23.71,23.71,0,0,0,9.19,12.69,24.51,24.51,0,0,0,15.14,4.16H402.6l31.87,0,62.31,0,30.36,0c5,0,10,.08,14.94-.07a23.46,23.46,0,0,0,13.4-5.19,25.37,25.37,0,0,0,4.83-5.36,23.54,23.54,0,0,0,3-6.54,25.06,25.06,0,0,0,.89-7.1q0-3.63,0-7.23,0-14.42,0-28.5c0-75.08.08-142.69.11-199.48s.1-102.73.13-134.5c0-4,0-7.71,0-11.23a24.57,24.57,0,0,0-1.74-9.61,23.77,23.77,0,0,0-4.48-7.08A23.81,23.81,0,0,0,544,40.93a20.81,20.81,0,0,0-2.41-.22Z"/><path class="cls-8" d="M545.35,79.26c0,.11-3.94.22-8.8.26s-8.8,0-8.8-.11,3.94-.22,8.8-.26S545.35,79.16,545.35,79.26Z"/><path class="cls-8" d="M545.39,83.77c0,.1-3.94.21-8.8.25s-8.8,0-8.8-.11,3.94-.22,8.8-.26S545.39,83.66,545.39,83.77Z"/><path class="cls-8" d="M545.42,88.27c0,.1-3.93.22-8.79.26s-8.8,0-8.81-.12,3.94-.21,8.8-.25S545.42,88.17,545.42,88.27Z"/><path class="cls-8" d="M385.27,93.41a1.61,1.61,0,0,1,.37,0l1,0,3.75-.09-.1.11c0-.84,0-1.75,0-2.73,0-.5,0-1,0-1.57a1.43,1.43,0,0,1,1.26-1.15c.61,0,1.14,0,1.8,0a1.46,1.46,0,0,1,1.23,1.45c0,1.27,0,2.6.05,4l-.18-.17,4.74,0-.18.19c0-1.91,0-3.89-.05-5.91,0-.51,0-1,0-1.51a1.58,1.58,0,0,0-.67-1.12l-2.07-2-2-2-1-1a2.27,2.27,0,0,0-1-.73,1.27,1.27,0,0,0-1.09.21c-.29.24-.59.58-.88.87-.59.58-1.15,1.16-1.7,1.71-1.07,1.11-2.19,2.13-3,3.09a3.43,3.43,0,0,0-.24,1.77v1.67c0,1,0,1.92,0,2.69s0,1.25,0,1.72a4.43,4.43,0,0,1,0,.62,3.92,3.92,0,0,1,0-.57c0-.46,0-1-.05-1.69s0-1.68-.06-2.72c0-.53,0-1.1,0-1.7,0-.3,0-.61,0-.93a1.94,1.94,0,0,1,.27-1c.87-1.08,1.92-2,3-3.17L390,79.91c.3-.3.55-.6.91-.91a1.61,1.61,0,0,1,1.38-.27,2.5,2.5,0,0,1,1.13.81l1,1,2,2,2.08,2a4.19,4.19,0,0,1,.53.57,1.64,1.64,0,0,1,.25.8c0,.5,0,1,0,1.52,0,2,0,4,0,5.9v.18h-.19l-4.74,0h-.17v-.18c0-1.37,0-2.7,0-4a1.15,1.15,0,0,0-1-1.15c-.54,0-1.19,0-1.72,0a1.18,1.18,0,0,0-1,.93c-.05.47,0,1,0,1.51v2.83h-.1l-3.83,0-1,0A2.06,2.06,0,0,1,385.27,93.41Z"/><rect class="cls-6" x="378.2" y="117.21" width="166.23" height="30.24" rx="12.75"/><path class="cls-8" d="M531.68,147.45s.32,0,1-.08a13.51,13.51,0,0,0,2.74-.54,13,13,0,0,0,4-2.1,12.71,12.71,0,0,0,4.8-8.33,33.64,33.64,0,0,0,.11-4.07,26.62,26.62,0,0,0-.2-4.43,12.32,12.32,0,0,0-1.65-4.43,12.54,12.54,0,0,0-8.39-5.83,34.11,34.11,0,0,0-5.77-.22h-6.15L391,117.52a12.45,12.45,0,0,0-12.4,11.41c-.11,1.5,0,3.09-.05,4.63a14.37,14.37,0,0,0,.47,4.5,12.48,12.48,0,0,0,5.15,7,11.94,11.94,0,0,0,4,1.72,18.22,18.22,0,0,0,4.38.33h25.85l59,.07,39.75.1,10.81,0,2.81,0,1,0-1,0-2.81,0-10.81.06-39.75.09-59,.07H392.53a19.14,19.14,0,0,1-4.51-.34,12.88,12.88,0,0,1-4.23-1.8,13.16,13.16,0,0,1-5.4-7.39,15,15,0,0,1-.5-4.66c0-1.56-.05-3.08.05-4.69a13.09,13.09,0,0,1,13-12l131.16.09h6.15a34.41,34.41,0,0,1,5.85.25,12.93,12.93,0,0,1,10.28,10.59,27.55,27.55,0,0,1,.17,4.49,32.48,32.48,0,0,1-.14,4.11,12.23,12.23,0,0,1-1,3.58,12.71,12.71,0,0,1-3.89,4.86,12.45,12.45,0,0,1-6.85,2.55Z"/><path class="cls-8" d="M534.24,131.61c-.06,0,0-.49-.29-1.31a5.43,5.43,0,0,0-2-2.87,5.21,5.21,0,1,0,0,8.36,5.48,5.48,0,0,0,2-2.88c.24-.82.23-1.31.29-1.3s0,.12,0,.35a4.22,4.22,0,0,1-.1,1,5.44,5.44,0,0,1-2,3.16,5.68,5.68,0,0,1-5.41.89,5.75,5.75,0,0,1,0-10.83,5.68,5.68,0,0,1,5.41.89,5.47,5.47,0,0,1,2,3.16,4.26,4.26,0,0,1,.1,1C534.28,131.49,534.26,131.61,534.24,131.61Z"/><path class="cls-8" d="M537.26,141.05c-.13.12-1.33-1-2.68-2.44a10.88,10.88,0,0,1-2.23-2.87c.13-.12,1.33,1,2.68,2.45A10.75,10.75,0,0,1,537.26,141.05Z"/><path class="cls-5" d="M400.64,129.3h-3v-.77h6.83v.77h-3V137h-.89Z"/><path class="cls-5" d="M410.6,134.06h-5.31a2.35,2.35,0,0,0,2.5,2.21,2.51,2.51,0,0,0,1.94-.83l.48.55a3.35,3.35,0,0,1-5.77-2.19,3.09,3.09,0,1,1,6.17,0C410.61,133.87,410.6,134,410.6,134.06Zm-5.31-.63h4.5a2.25,2.25,0,0,0-4.5,0Z"/><path class="cls-5" d="M416.21,137l-2-2.65-2,2.65h-1l2.51-3.26-2.39-3.08h1l1.9,2.48,1.9-2.48H417l-2.38,3.08,2.53,3.26Z"/><path class="cls-5" d="M422,136.58a2,2,0,0,1-1.34.45,1.68,1.68,0,0,1-1.85-1.84v-3.84h-1.14v-.72h1.14v-1.39h.85v1.39h1.93v.72h-1.93v3.79a1,1,0,0,0,1.1,1.15,1.39,1.39,0,0,0,.94-.32Z"/><path class="cls-9" d="M491.59,176.24c0,.17-12.17.31-27.17.31s-27.18-.14-27.18-.31,12.17-.31,27.18-.31S491.59,176.07,491.59,176.24Z"/><path class="cls-8" d="M534.92,187.39c0,.17-21.87.31-48.83.31s-48.85-.14-48.85-.31,21.87-.31,48.85-.31S534.92,187.22,534.92,187.39Z"/><path class="cls-8" d="M533.77,195.36c0,.17-21.61.31-48.26.31s-48.27-.14-48.27-.31,21.61-.31,48.27-.31S533.77,195.19,533.77,195.36Z"/><path class="cls-8" d="M494.24,203c0,.17-12.76.31-28.5.31s-28.5-.14-28.5-.31,12.76-.31,28.5-.31S494.24,202.79,494.24,203Z"/><path class="cls-9" d="M491.59,236.86c0,.17-12.17.31-27.17.31s-27.18-.14-27.18-.31,12.17-.31,27.18-.31S491.59,236.69,491.59,236.86Z"/><path class="cls-8" d="M534.92,248c0,.17-21.87.31-48.83.31s-48.85-.14-48.85-.31,21.87-.31,48.85-.31S534.92,247.84,534.92,248Z"/><path class="cls-8" d="M533.77,256c0,.17-21.61.31-48.26.31s-48.27-.14-48.27-.31,21.61-.31,48.27-.31S533.77,255.81,533.77,256Z"/><path class="cls-8" d="M494.24,263.58c0,.17-12.76.31-28.5.31s-28.5-.14-28.5-.31,12.76-.31,28.5-.31S494.24,263.41,494.24,263.58Z"/><path class="cls-9" d="M491.59,297.48c0,.17-12.17.31-27.17.31s-27.18-.14-27.18-.31,12.17-.31,27.18-.31S491.59,297.31,491.59,297.48Z"/><path class="cls-8" d="M534.92,308.63c0,.17-21.87.31-48.83.31s-48.85-.14-48.85-.31,21.87-.31,48.85-.31S534.92,308.46,534.92,308.63Z"/><path class="cls-8" d="M533.77,316.6c0,.17-21.61.31-48.26.31s-48.27-.14-48.27-.31,21.61-.31,48.27-.31S533.77,316.43,533.77,316.6Z"/><path class="cls-8" d="M494.24,324.2c0,.17-12.76.31-28.5.31s-28.5-.14-28.5-.31,12.76-.31,28.5-.31S494.24,324,494.24,324.2Z"/><path class="cls-9" d="M491.59,358.1c0,.17-12.17.31-27.17.31s-27.18-.14-27.18-.31,12.17-.31,27.18-.31S491.59,357.93,491.59,358.1Z"/><path class="cls-8" d="M534.92,369.25c0,.17-21.87.31-48.83.31s-48.85-.14-48.85-.31,21.87-.31,48.85-.31S534.92,369.08,534.92,369.25Z"/><path class="cls-8" d="M533.77,377.22c0,.17-21.61.31-48.26.31s-48.27-.14-48.27-.31,21.61-.31,48.27-.31S533.77,377.05,533.77,377.22Z"/><path class="cls-8" d="M494.24,384.82c0,.17-12.76.3-28.5.3s-28.5-.13-28.5-.3,12.76-.31,28.5-.31S494.24,384.64,494.24,384.82Z"/><path class="cls-9" d="M491.59,418.29c0,.17-12.17.31-27.17.31s-27.18-.14-27.18-.31,12.17-.31,27.18-.31S491.59,418.12,491.59,418.29Z"/><path class="cls-8" d="M534.92,429.45c0,.17-21.87.3-48.83.3s-48.85-.13-48.85-.3,21.87-.31,48.85-.31S534.92,429.27,534.92,429.45Z"/><path class="cls-8" d="M533.77,437.41c0,.17-21.61.31-48.26.31s-48.27-.14-48.27-.31,21.61-.31,48.27-.31S533.77,437.24,533.77,437.41Z"/><path class="cls-8" d="M494.24,445c0,.17-12.76.31-28.5.31s-28.5-.14-28.5-.31,12.76-.31,28.5-.31S494.24,444.84,494.24,445Z"/><rect class="cls-9" x="384.45" y="170.42" width="33.27" height="44.27" transform="translate(206.3 592.56) rotate(-89.68)"/><polygon class="cls-9" points="378.86 209.06 394.44 188.47 403.94 201.46 410.48 194.58 423.13 209.31 378.86 209.06"/><path class="cls-9" d="M408.09,186a3.49,3.49,0,1,1-3.46-3.5A3.48,3.48,0,0,1,408.09,186Z"/><g class="cls-10"><polygon points="378.86 209.06 394.44 188.47 403.94 201.46 410.48 194.58 423.13 209.31 378.86 209.06"/></g><g class="cls-10"><path d="M408.09,186a3.49,3.49,0,1,1-3.46-3.5A3.48,3.48,0,0,1,408.09,186Z"/></g><rect class="cls-9" x="384.45" y="230.27" width="33.27" height="44.27" transform="translate(146.46 652.07) rotate(-89.68)"/><polygon class="cls-9" points="378.86 268.91 394.44 248.32 403.94 261.31 410.48 254.43 423.13 269.16 378.86 268.91"/><path class="cls-9" d="M408.09,245.86a3.49,3.49,0,1,1-3.46-3.51A3.48,3.48,0,0,1,408.09,245.86Z"/><g class="cls-10"><polygon points="378.86 268.91 394.44 248.32 403.94 261.31 410.48 254.43 423.13 269.16 378.86 268.91"/></g><g class="cls-10"><path d="M408.09,245.86a3.49,3.49,0,1,1-3.46-3.51A3.48,3.48,0,0,1,408.09,245.86Z"/></g><rect class="cls-9" x="384.45" y="290.11" width="33.27" height="44.27" transform="translate(86.61 711.59) rotate(-89.68)"/><polygon class="cls-9" points="378.86 328.76 394.44 308.16 403.94 321.16 410.48 314.27 423.13 329 378.86 328.76"/><path class="cls-9" d="M408.09,305.71a3.49,3.49,0,1,1-3.46-3.51A3.48,3.48,0,0,1,408.09,305.71Z"/><g class="cls-10"><polygon points="378.86 328.76 394.44 308.16 403.94 321.16 410.48 314.27 423.13 329 378.86 328.76"/></g><g class="cls-10"><path d="M408.09,305.71a3.49,3.49,0,1,1-3.46-3.51A3.48,3.48,0,0,1,408.09,305.71Z"/></g><rect class="cls-9" x="384.45" y="349.96" width="33.27" height="44.27" transform="translate(26.76 771.1) rotate(-89.68)"/><polygon class="cls-9" points="378.86 388.61 394.44 368.01 403.94 381 410.48 374.12 423.13 388.85 378.86 388.61"/><path class="cls-9" d="M408.09,365.55a3.49,3.49,0,1,1-3.46-3.5A3.48,3.48,0,0,1,408.09,365.55Z"/><g class="cls-10"><polygon points="378.86 388.61 394.44 368.01 403.94 381 410.48 374.12 423.13 388.85 378.86 388.61"/></g><g class="cls-10"><path d="M408.09,365.55a3.49,3.49,0,1,1-3.46-3.5A3.48,3.48,0,0,1,408.09,365.55Z"/></g><rect class="cls-9" x="384.45" y="409.52" width="33.27" height="44.27" transform="translate(-32.79 830.32) rotate(-89.68)"/><polygon class="cls-9" points="378.86 448.16 394.44 427.57 403.94 440.56 410.48 433.68 423.13 448.41 378.86 448.16"/><path class="cls-9" d="M408.09,425.11a3.49,3.49,0,1,1-3.46-3.5A3.48,3.48,0,0,1,408.09,425.11Z"/><g class="cls-10"><polygon points="378.86 448.16 394.44 427.57 403.94 440.56 410.48 433.68 423.13 448.41 378.86 448.16"/></g><g class="cls-10"><path d="M408.09,425.11a3.49,3.49,0,1,1-3.46-3.5A3.48,3.48,0,0,1,408.09,425.11Z"/></g><path class="cls-12" d="M371.15,242.6l.87-3.43a12.74,12.74,0,0,0-.15-6.82l-3.58-12a4.45,4.45,0,0,0-2.06-2.6c-2.72-1.56-8.1-4.58-8.56-4.2-3.3,2.74,4.07,7.58,4.07,7.58s2.84,3.16.59,5.51c-2.56,2.67-7.36-3.19-7.36-3.19s.25-.61.48-.49,2.51,2,4.63,2V221.1l-4.35-2.73a4.4,4.4,0,0,0-3.24-.57l-1.51.32a3.83,3.83,0,0,0-2.38,1.62l-1.43,2.15-.61.82a2.74,2.74,0,0,0-.29,2.76L347,227l-.95,1.33a4.12,4.12,0,0,0-.49,3.83l7.35,10.1L363.76,260l11.78-12.65Z"/><path class="cls-13" d="M348.35,232.09a2.57,2.57,0,0,1-.39-.73,2,2,0,0,1,.36-1.88l.05-.07,0-.08a2.1,2.1,0,0,0-.13-.26,17.82,17.82,0,0,0-1.57-2.88,19.56,19.56,0,0,0,1.31,3c.05.09.09.18.13.26l0-.15a2.14,2.14,0,0,0-.32,2.12C348,232,348.34,232.13,348.35,232.09Z"/><path class="cls-13" d="M349.25,218.91a3.37,3.37,0,0,0-.23,2,15.84,15.84,0,0,0,2,4.68,6.44,6.44,0,0,1,.69,1.36,3.81,3.81,0,0,1,.08,1.45,3.49,3.49,0,0,0,.26,2.17,4.07,4.07,0,0,0,1.43,1.48s-1-.1-1.71-1.32a3.7,3.7,0,0,1-.39-2.36,3.49,3.49,0,0,0-.1-1.29,6.31,6.31,0,0,0-.65-1.26,13.54,13.54,0,0,1-1.91-4.87A2.2,2.2,0,0,1,349.25,218.91Z"/><path class="cls-13" d="M355.05,223.31a8.14,8.14,0,0,0-.55-1.61c-.44-.84-.93-1.48-.82-1.57s.73.44,1.22,1.36S355.19,223.38,355.05,223.31Z"/><polygon class="cls-14" points="375.18 303.37 379.67 308.99 402.95 281.01 372.46 240.9 357.39 252.72 375.18 303.37"/><polygon class="cls-14" points="478.8 574.06 480.73 619.52 505.27 618.97 503.44 573.42 478.8 574.06"/><path class="cls-8" d="M492.78,617.53c.21,0-.18-10-.85-22.23s-1.39-22.21-1.59-22.19.17,10,.85,22.23S492.58,617.54,492.78,617.53Z"/><polygon class="cls-15" points="480.6 616.38 505.14 615.75 505.27 618.97 480.73 619.52 480.6 616.38"/><path class="cls-8" d="M504.69,604.41a3.79,3.79,0,0,0-.68-1,17,17,0,0,0-2.29-2.23,16.16,16.16,0,0,0-4.09-2.47,12.79,12.79,0,0,0-5.77-1.06,13,13,0,0,0-9.37,4.6,11,11,0,0,0-1.67,2.75,3,3,0,0,0-.34,1.13,24.74,24.74,0,0,1,2.41-3.54,13.09,13.09,0,0,1,9-4.2,15,15,0,0,1,9.5,3.2C503.53,603.2,504.59,604.5,504.69,604.41Z"/><g class="cls-16"><polygon points="503.96 586.38 504.16 591.39 479.55 591.83 479.39 588.06 503.96 586.38"/></g><path class="cls-14" d="M421,576.78l1.2,27.67s-27.72,10.51-28,15.64L448,619.7l-.1-43.19Z"/><path class="cls-5" d="M438.46,602.1a2.2,2.2,0,0,1,1.54,2.51,2.12,2.12,0,0,1-2.47,1.55,2.32,2.32,0,0,1-1.62-2.66,2.21,2.21,0,0,1,2.75-1.34"/><path class="cls-15" d="M448,619.69v-4.32l-52,2s-2.4,1.07-2.11,2.76Z"/><path class="cls-8" d="M421.73,604.63c0,.26,1.33.37,2.64,1.21s2,1.95,2.25,1.84-.16-1.63-1.76-2.62S421.67,604.38,421.73,604.63Z"/><path class="cls-8" d="M416.07,607c-.06.25,1.09.69,2,1.8s1.17,2.3,1.43,2.28.42-1.51-.73-2.87S416.08,606.76,416.07,607Z"/><path class="cls-8" d="M412.9,613.83c.24.06.6-1.27-.09-2.71s-1.93-2-2-1.79.66,1,1.21,2.19S412.64,613.81,412.9,613.83Z"/><path class="cls-8" d="M422.16,598.25c.11.24,1.32-.14,2.82,0s2.66.56,2.79.33-1-1.16-2.75-1.25S422,598,422.16,598.25Z"/><path class="cls-8" d="M421.15,592.29a5,5,0,0,0,2.71,0,11.87,11.87,0,0,0,2.83-.9,12.36,12.36,0,0,0,1.55-.83,3.41,3.41,0,0,0,.82-.65,1.15,1.15,0,0,0,.11-1.4,1.46,1.46,0,0,0-1.17-.6,3.36,3.36,0,0,0-1,.15,9.23,9.23,0,0,0-1.68.59,9.62,9.62,0,0,0-2.49,1.66c-1.25,1.17-1.67,2.16-1.58,2.21s.73-.74,2-1.71a10.06,10.06,0,0,1,2.41-1.38,9.06,9.06,0,0,1,1.55-.49c.57-.16,1.06-.17,1.21.09,0,.09.06.13-.06.3a2.41,2.41,0,0,1-.6.47,13.06,13.06,0,0,1-1.42.83,14.28,14.28,0,0,1-2.62,1A20.83,20.83,0,0,0,421.15,592.29Z"/><path class="cls-8" d="M421.5,592.67a4.35,4.35,0,0,0,.69-2.63,8.62,8.62,0,0,0-.39-3,8.88,8.88,0,0,0-.7-1.64,2.24,2.24,0,0,0-1.74-1.36,1.27,1.27,0,0,0-1.12.77,3.83,3.83,0,0,0-.28,1,6.21,6.21,0,0,0,0,1.83,6.27,6.27,0,0,0,1.17,2.79c1.07,1.39,2.18,1.7,2.2,1.61s-.84-.63-1.66-2a6.24,6.24,0,0,1-.87-2.54,5.46,5.46,0,0,1,0-1.56c.08-.58.3-1,.51-1s.73.43,1,.88a9.65,9.65,0,0,1,.68,1.47,9.42,9.42,0,0,1,.54,2.7C421.63,591.64,421.36,592.63,421.5,592.67Z"/><g class="cls-16"><polygon points="447.96 593.1 447.9 599.24 421.99 599.24 421.99 593.67 447.96 593.1"/></g><path class="cls-12" d="M534.83,132.63l3.85,14.91s1.44,8.24-2.42,8.23c-3.39,0-3.71-4.42-3.71-4.42s1.68-9-2.75-8.52c-.62.07-2.24,6.29-3,9.46a4.64,4.64,0,0,0,.47,3.42L533.63,167a13.32,13.32,0,0,0,5,5l3.21,1.83.41,6.73,18,.28-5.48-21-2.29-12.82a4.28,4.28,0,0,0-3.23-2.39l-1.69-.25-.64-1.62a2.85,2.85,0,0,0-2.28-1.77l-1-.13-1.48-3.64c-.49-1.21-4-9.14-5.32-9.12C536.81,128.17,533.88,129,534.83,132.63Z"/><path class="cls-13" d="M547.67,150.69a13.37,13.37,0,0,0-.34-1.64,6.19,6.19,0,0,0-2.45-3.12,17.66,17.66,0,0,1-1.35-3.9,5.32,5.32,0,0,1-.19-1.69s.12.64.4,1.64a24,24,0,0,0,1.37,3.76c.27.24.59.46.88.73a5.24,5.24,0,0,1,.74.84,5.31,5.31,0,0,1,.8,1.68,4.41,4.41,0,0,1,.18,1.24A1,1,0,0,1,547.67,150.69Z"/><path class="cls-13" d="M550.41,149.17a2.64,2.64,0,0,0-.26-.82,2.17,2.17,0,0,0-1.67-1.09h-.1l0-.09-.1-.29a18.92,18.92,0,0,1-1-3.25,18.53,18.53,0,0,1,1.31,3.15c0,.1.07.19.1.28l-.12-.09a2.21,2.21,0,0,1,1.82,1.29C550.57,148.8,550.46,149.2,550.41,149.17Z"/><path class="cls-12" d="M444.46,221.3l32.64-.42-3.64-27.8s2.23-.47,2.38-12.57.7-32.63.7-32.63h0a42,42,0,0,0-42.23,5.31l-1.79,1.38Z"/><path class="cls-12" d="M436.31,169.44c-.21-.09-8.31-2.46-8,5.81s8.51,6.29,8.51,6.06S436.31,169.44,436.31,169.44Z"/><path class="cls-12" d="M475.14,167.71c.2-.09,7.57-2.08,7.31,6.19s-8.51,6.3-8.52,6.06S475.14,167.71,475.14,167.71Z"/><path class="cls-8" d="M433.63,168.51c1.24,6.93,1,10.57,2.14,15.2,1.8,7.32,5.44,12.93,12,16.59s15.51,3.59,21.18-1.39c3.93-3.45,6.72-7.35,7.3-12.56s1.17-14.41,1.2-19.64c.07-9.44.7-18.46.7-18.46l-27-4.88-15.35,9.12Z"/><path class="cls-8" d="M461.45,204.47c0,.2-2.09.72-4.73.42s-4.6-1.26-4.52-1.43,2.07.41,4.6.68S461.41,204.26,461.45,204.47Z"/><path class="cls-8" d="M434.93,180.29c-.79-7.1-1.3-15.22-2.41-22.7-.41-2.81-1.42-6.86-1.17-9.69s.53-5.75,1.78-8.31a11.67,11.67,0,0,1,18.19-3.66,8.76,8.76,0,0,1,16,3.69,6.08,6.08,0,0,1,10,6.1,5.93,5.93,0,0,1,4,9.09c-1.25,1.93-3.5,3-4.88,4.82a6.91,6.91,0,0,0-.41,7.46"/><path class="cls-7" d="M472.38,154.64a2,2,0,0,1-.3.78,5.52,5.52,0,0,1-1.57,1.76,5.65,5.65,0,0,1-3.51,1.11,6,6,0,0,1-4.32-2l.57-.15a5.59,5.59,0,0,1-3.6,4.13,6.42,6.42,0,0,1-6.08-.76,9.08,9.08,0,0,1-3.42-4.48l.65.07a7.61,7.61,0,0,1-6.11,3.35,7,7,0,0,1-5.13-2.1,7.11,7.11,0,0,1-1.86-3.16,3.06,3.06,0,0,1-.16-1.31,12.31,12.31,0,0,1,.4,1.23,7.55,7.55,0,0,0,1.94,2.9,6.62,6.62,0,0,0,4.79,1.81,7,7,0,0,0,5.51-3.11l.4-.62.26.69a8.45,8.45,0,0,0,3.15,4.1,5.73,5.73,0,0,0,5.39.72,5,5,0,0,0,3.23-3.57l.12-.69.45.53a5.57,5.57,0,0,0,3.85,1.92,5.42,5.42,0,0,0,3.26-.89A7.8,7.8,0,0,0,472.38,154.64Z"/><path class="cls-7" d="M472.33,151.36a7.38,7.38,0,0,0-1.15-3,4.89,4.89,0,0,0-2.84-1.9,5.12,5.12,0,0,0-4.11.78l-.65.47.07-.81a6.27,6.27,0,0,0-.28-2.37,6.49,6.49,0,0,0-3.32-3.86,6.31,6.31,0,0,0-4.2-.37,8.9,8.9,0,0,0-3.51,2s.16-.4.67-.92a6.79,6.79,0,0,1,7.33-1.32,7,7,0,0,1,3.75,4.26,6.65,6.65,0,0,1,.29,2.68l-.58-.34a5.67,5.67,0,0,1,4.7-.82,5.3,5.3,0,0,1,3.08,2.27,5.24,5.24,0,0,1,.83,2.38C472.45,151.05,472.37,151.37,472.33,151.36Z"/><path class="cls-7" d="M455.14,151.6c-.11,0,0-.47,0-1.13a5.26,5.26,0,0,0-.84-2.44c-.54-.86-1.19-1.73-1.56-2.2s-.8-.12-.86-.17,0-.18.18-.33a.91.91,0,0,1,1,.09,5.52,5.52,0,0,1,.93.94,8.51,8.51,0,0,1,.95,1.28,4.54,4.54,0,0,1,.73,2.85C455.55,151.27,455.22,151.65,455.14,151.6Z"/><path class="cls-7" d="M439.14,141.21c-.08,0,0-.64.5-1.51a4.23,4.23,0,0,1,1.23-1.29,3.2,3.2,0,0,1,2.2-.48,5.23,5.23,0,0,1,3.27,2c.6.76.88,1.29.8,1.35s-.51-.34-1.19-1a5.67,5.67,0,0,0-3-1.66,3.14,3.14,0,0,0-2.89,1.33C439.51,140.72,439.25,141.26,439.14,141.21Z"/><path class="cls-7" d="M443.34,176.27c-.16.11-1.77-2.11-2.85-5.28s-1.19-5.9-1-5.91.65,2.6,1.71,5.67S443.53,176.15,443.34,176.27Z"/><path class="cls-7" d="M447,178.25c-.19.09-1.17-1.55-2-3.76s-1.18-4.08-1-4.14.87,1.71,1.69,3.88S447.15,178.16,447,178.25Z"/><path class="cls-7" d="M469.67,178.81c.18,0,.56,3.39-.93,7.27s-4,6.21-4.11,6.06,2-2.6,3.41-6.33S469.44,178.8,469.67,178.81Z"/><path class="cls-7" d="M473.3,172.78c.16-.08,1.21,2.87.52,6.55s-2.67,6.08-2.8,5.94,1.45-2.58,2.06-6.08S473.07,172.83,473.3,172.78Z"/><polyline class="cls-15" points="462.85 400.66 470.79 477.18 476.49 592.42 506.9 592.42 507.72 347.15 420.66 353.36 402.62 482.05 418.24 594.68 451.61 594.68 443.79 487.58 462.85 400.66"/><path class="cls-7" d="M462.85,400.66c.14.16-2.51,2.77-5.91,5.83s-6.28,5.43-6.42,5.28,2.5-2.77,5.91-5.84S462.71,400.51,462.85,400.66Z"/><path class="cls-7" d="M462.77,399.13c-.21,0,0-4.41.16-9.82s.36-9.81.56-9.81.4,4.4.19,9.83S463,399.15,462.77,399.13Z"/><path class="cls-7" d="M472.82,370.57a2.28,2.28,0,0,1,.49-.05l1.5-.09,5.77-.29,20.62-.86h.35v.35c0,6.44,0,13.72,0,21.41v.67l-.24.09-13.41,5.37-.13,0-.12,0-11.86-4.12-.19-.06,0-.19c-.87-6.68-1.59-12.25-2.11-16.24-.23-1.86-.41-3.35-.54-4.46s-.17-1.55-.15-1.53a3.65,3.65,0,0,1,.09.43c.06.33.13.73.21,1.21.18,1.12.42,2.63.71,4.52.6,3.93,1.42,9.4,2.41,16l-.21-.26,11.89,4h-.25l13.4-5.4-.24.35V391c0-7.69,0-15,0-21.41l.35.34-20.39.51-5.86.1-1.58,0A3.85,3.85,0,0,1,472.82,370.57Z"/><path class="cls-7" d="M428.92,370.94a1.69,1.69,0,0,1,.44,0l1.35-.06,5.22-.16,18.81-.44h.34v.35c-.2,6.35-.44,13.68-.69,21.47v.2l-.17.1L452,393.78,441,401l-.19.12-.2-.12-12.42-7.56-.16-.1v-.18c.23-6.67.43-12.23.57-16.21.08-1.86.14-3.35.19-4.46a13,13,0,0,1,.11-1.52,2.79,2.79,0,0,1,0,.44v1.21q0,1.7,0,4.53c-.06,3.94-.14,9.43-.24,16l-.15-.28L441,400.35h-.39l11-7.21,2.18-1.43-.17.31c.28-7.8.55-15.12.78-21.47l.34.34-18.61.1h-5.29l-1.42,0Z"/><path class="cls-7" d="M498.33,405.61a21.29,21.29,0,0,1-4.12-.13c-2.54-.19-6-.54-9.89-1s-7.32-1.06-9.82-1.52a21.31,21.31,0,0,1-4-.93,24.19,24.19,0,0,1,4.1.4l9.84,1.3,9.84,1.26A22.65,22.65,0,0,1,498.33,405.61Z"/><path class="cls-7" d="M497.62,490.91s-.12.44-.72,1a4.82,4.82,0,0,1-3.11,1.06,7.35,7.35,0,0,1-4.54-1.74,31.61,31.61,0,0,1-4.14-4.19,57.23,57.23,0,0,1-6.16-8.67,17.73,17.73,0,0,1-1.92-4,42.85,42.85,0,0,1,2.38,3.68,74.18,74.18,0,0,0,6.27,8.45,35.32,35.32,0,0,0,4,4.14,7,7,0,0,0,4.12,1.75,4.82,4.82,0,0,0,2.92-.75C497.33,491.22,497.57,490.87,497.62,490.91Z"/><path class="cls-7" d="M437.56,493.59s-.05.39-.41,1a6.14,6.14,0,0,1-2.1,2,8.07,8.07,0,0,1-4.17,1.09,9.78,9.78,0,0,1-5-1.59,17.8,17.8,0,0,1-6.05-7.21,16.18,16.18,0,0,1-1.5-3.58,24.07,24.07,0,0,1,2,3.33,19.14,19.14,0,0,0,6,6.82A9.57,9.57,0,0,0,430.9,497a8,8,0,0,0,3.89-.87A8.53,8.53,0,0,0,437.56,493.59Z"/><path class="cls-7" d="M439.5,482.05a7.52,7.52,0,0,1-2.5,1.45,19.71,19.71,0,0,1-13.73.57,7.71,7.71,0,0,1-2.61-1.24c.07-.24,4.13,1.7,9.49,1.43S439.41,481.82,439.5,482.05Z"/><path class="cls-14" d="M538.47,212H494.13s-6-3.47-8.93-2.88-5.45,3.69-5.45,3.69l5.87,48.85L500,251l53.45-5.56a17.06,17.06,0,0,0,12.23-5.35h0a17,17,0,0,0,4.5-13.67l-9.89-52.54-20.28.67-.8,13.33Z"/><path class="cls-14" d="M416.42,224.3a27.16,27.16,0,0,0-10.71,12.44c-2.59,6.21-20.24,37.2-29.55,53.42a15.34,15.34,0,0,0,2.22,18.23h0c5.65,5.91,12.41,3.61,20.66.92,3.7-1.2,20.34-26.74,20.34-26.74Z"/><polygon class="cls-14" points="424.13 335.08 413.97 247.61 416.42 224.3 442.3 213.27 475.81 211.07 507.73 214.59 500.27 304.3 508.44 354.9 419.04 358.94 424.13 335.08"/><path class="cls-8" d="M424.09,334.71c-.21,0-2.65-19.46-5.44-43.51s-4.89-43.57-4.68-43.6,2.64,19.46,5.43,43.51S424.29,334.68,424.09,334.71Z"/><path class="cls-8" d="M507.08,234.21a4.33,4.33,0,0,1,0,.79c-.06.6-.12,1.34-.21,2.25-.21,2.06-.49,4.85-.84,8.25-.7,7.06-1.67,16.63-2.73,27.21S501.45,293,500.93,300c-.25,3.41-.45,6.21-.6,8.27-.07.9-.13,1.64-.18,2.24a3.86,3.86,0,0,1-.11.79,3,3,0,0,1,0-.79c0-.6,0-1.35,0-2.26,0-2,.17-4.79.35-8.29.39-7,1.13-16.64,2.14-27.28s2.1-20.25,3-27.2c.43-3.48.8-6.29,1.08-8.22.14-.9.25-1.64.34-2.23A3,3,0,0,1,507.08,234.21Z"/><path class="cls-8" d="M491.69,321.3a12.26,12.26,0,0,1-1.41,1.73,20.4,20.4,0,0,1-1.82,1.89,29.77,29.77,0,0,1-2.58,2.33,36.74,36.74,0,0,1-3.36,2.56c-1.22.9-2.64,1.7-4.11,2.57a51,51,0,0,1-21.14,6.31c-1.71.07-3.33.19-4.85.1a38.15,38.15,0,0,1-4.21-.29,32.7,32.7,0,0,1-3.43-.54,20.38,20.38,0,0,1-2.56-.58,12.17,12.17,0,0,1-2.13-.68c0-.16,3.09.79,8.18,1.27a38.41,38.41,0,0,0,4.16.19c1.5.06,3.1-.07,4.79-.16a53.38,53.38,0,0,0,20.86-6.23c1.45-.85,2.87-1.61,4.09-2.48a38.37,38.37,0,0,0,3.37-2.45C489.54,323.65,491.57,321.18,491.69,321.3Z"/><path class="cls-17" d="M444.43,337.63c-4.34-1.25-4.59-5.34-2.91-7.11s4.42-2,6.83-1.64,4.79,1.15,7.22,1c4-.27,7.31-3,10.07-5.91s5.38-6.08,9-7.73,8.68-1.07,10.59,2.42a7.6,7.6,0,0,1-.44,7.27,17,17,0,0,1-5.38,5.27,44,44,0,0,1-35,6.45"/><path class="cls-8" d="M497.3,213.77c0-.19,3.35,1.16,5.82,4.62s2.74,7,2.56,7-.78-3.28-3.17-6.54S497.17,214,497.3,213.77Z"/><path class="cls-1" d="M494.2,212.78a4.1,4.1,0,0,0-.74-.44,3.77,3.77,0,0,0-2.4-.15,6.7,6.7,0,0,0-3.3,2,37,37,0,0,1-3.65,3.72,10.86,10.86,0,0,1-6,1.85c-2.28.11-4.7-.13-7.24-.2a144.5,144.5,0,0,0-16.56.37,106.22,106.22,0,0,0-29.3,6.46c-3.6,1.39-6.41,2.73-8.34,3.7l-2.19,1.16c-.51.26-.78.38-.78.38s.25-.16.75-.43l2.17-1.21a83.83,83.83,0,0,1,8.31-3.8,104.23,104.23,0,0,1,29.35-6.57,138.26,138.26,0,0,1,16.6-.33c2.55.07,5,.32,7.22.22A10.73,10.73,0,0,0,484,217.7a38.24,38.24,0,0,0,3.66-3.67,6.89,6.89,0,0,1,3.39-2,3.8,3.8,0,0,1,2.46.21A2.38,2.38,0,0,1,494.2,212.78Z"/><path class="cls-1" d="M504.25,230.7s-.31-.1-.9-.2a9.11,9.11,0,0,0-2.62-.08,14.27,14.27,0,0,0-4,1.06,47.43,47.43,0,0,0-4.91,2.53,27.58,27.58,0,0,1-6.18,2.65,38.65,38.65,0,0,1-7.62,1.23c-5.42.34-11.38.43-17.62.91-12.5.86-23.74,2.37-31.84,3.69-4.05.65-7.32,1.27-9.57,1.68l-2.6.49c-.59.11-.91.15-.91.15l.9-.21,2.58-.55c2.26-.44,5.51-1.09,9.56-1.77,8.1-1.37,19.35-2.92,31.85-3.78,6.25-.48,12.23-.56,17.63-.88a39.8,39.8,0,0,0,7.58-1.2,27.8,27.8,0,0,0,6.14-2.6,48,48,0,0,1,5-2.5,14.41,14.41,0,0,1,4.06-1,8.82,8.82,0,0,1,2.64.14A4.1,4.1,0,0,1,504.25,230.7Z"/><path class="cls-1" d="M504.47,255.36s-1.13.53-3.22,1.35a92.85,92.85,0,0,1-9,3,135.59,135.59,0,0,1-31,4.63,284.3,284.3,0,0,1-31.34-.75l-9.47-.73-2.57-.23-.9-.1s.31,0,.9,0l2.58.17,9.48.64a300.3,300.3,0,0,0,31.3.65,138.38,138.38,0,0,0,30.92-4.53c3.86-1.06,6.93-2.11,9-2.9,1.06-.37,1.86-.72,2.41-.93Z"/><path class="cls-1" d="M501.07,283.83s-1.05.46-3,1.13a61.64,61.64,0,0,1-8.51,2.18,87.12,87.12,0,0,1-12.95,1.32c-4.9.17-10.29,0-15.93-.33-11.28-.74-21.49-1.54-28.9-1.28-3.7.1-6.68.33-8.74.58-1,.1-1.82.23-2.37.29s-.82.09-.82.09a74.59,74.59,0,0,1,11.93-1.17c7.41-.32,17.65.45,28.92,1.19,5.64.34,11,.5,15.91.35a87.77,87.77,0,0,0,12.92-1.26,65,65,0,0,0,8.5-2.07c1-.29,1.74-.6,2.26-.76S501.07,283.83,501.07,283.83Z"/><path class="cls-1" d="M498.31,305.86s-4.09,1.35-10.88,2.9c-3.39.79-7.46,1.57-12,2.28s-9.58,1.23-14.88,1.57-10.37.34-15,.23-8.74-.43-12.2-.81c-6.92-.73-11.15-1.57-11.15-1.57s.27,0,.78.09l2.22.31c1.92.29,4.71.62,8.17,1s7.59.61,12.19.74,9.64.05,14.94-.25,10.31-.9,14.86-1.55,8.61-1.44,12-2.2,6.12-1.43,8-1.95l2.17-.57C498.05,305.91,498.31,305.86,498.31,305.86Z"/><path class="cls-1" d="M501.38,313.91l-.76.28-2.18.79c-1.89.7-4.59,1.8-7.89,3.25s-7.18,3.28-11.59,5.09a75.7,75.7,0,0,1-14.83,4.54c-10.86,2.09-20.92,1.8-28.1,1.55-3.6-.15-6.52-.34-8.53-.47l-2.31-.16c-.53,0-.81-.08-.81-.08l.81,0,2.32.1,8.53.37c7.18.2,17.22.45,28-1.63a77,77,0,0,0,14.78-4.49c4.41-1.8,8.3-3.61,11.62-5s6-2.5,7.93-3.17S501.38,313.91,501.38,313.91Z"/><path class="cls-1" d="M505.92,337.92s-1,.68-2.89,1.75a57.39,57.39,0,0,1-8.37,3.84c-7.28,2.78-18,4.83-29.86,5s-22.61-.72-30.37-1.05c-3.88-.19-7-.3-9.2-.35l-2.5,0-.87,0,.87,0h2.5c2.18,0,5.32.08,9.21.25,7.77.27,18.49,1.18,30.35,1s22.52-2.22,29.79-4.94a61.24,61.24,0,0,0,8.4-3.74c1-.49,1.67-1,2.17-1.23S505.92,337.92,505.92,337.92Z"/><path class="cls-1" d="M519.43,249.37a1.41,1.41,0,0,1,.07-.37c.09-.32.18-.66.28-1,.25-.89.57-2.19.91-3.8a58.61,58.61,0,0,0-.39-25.6c-.38-1.6-.74-2.89-1-3.77-.11-.37-.21-.71-.31-1a1.87,1.87,0,0,1-.08-.37,1.8,1.8,0,0,1,.14.35l.36,1c.32.87.71,2.16,1.12,3.76a55.57,55.57,0,0,1,.39,25.69c-.37,1.62-.72,2.91-1,3.79l-.33,1A2.47,2.47,0,0,1,519.43,249.37Z"/><path class="cls-1" d="M540.9,244.12a1.41,1.41,0,0,1,0-.33c0-.3,0-.61,0-.95.05-.82.08-2,.06-3.48a53.72,53.72,0,0,0-5.06-22.2c-.62-1.33-1.16-2.39-1.56-3.11l-.45-.84a1.38,1.38,0,0,1-.13-.3,2.06,2.06,0,0,1,.19.27c.15.26.31.52.49.81.43.7,1,1.75,1.65,3.08a50.68,50.68,0,0,1,3.82,10.85,51.36,51.36,0,0,1,1.27,11.44c0,1.47-.07,2.67-.16,3.49l-.09.94A1.45,1.45,0,0,1,540.9,244.12Z"/><path class="cls-1" d="M569.93,234.05a2.53,2.53,0,0,1-.28-.29l-.73-.87c-.63-.76-1.57-1.83-2.78-3.12a70.15,70.15,0,0,0-22.25-15.93c-1.6-.73-2.92-1.28-3.85-1.62l-1-.42a2.34,2.34,0,0,1-.37-.17,2,2,0,0,1,.39.11l1.07.37c.94.31,2.28.83,3.9,1.53a66.12,66.12,0,0,1,22.32,16c1.19,1.31,2.11,2.41,2.71,3.19.25.34.48.63.69.91A2.47,2.47,0,0,1,569.93,234.05Z"/><path class="cls-1" d="M563.35,193a5.17,5.17,0,0,1-.93,0l-2.51,0c-2.12,0-5-.07-8.29,0s-6.17.18-8.28.29l-2.51.13a6,6,0,0,1-.93,0,5.2,5.2,0,0,1,.92-.13c.59-.07,1.44-.15,2.5-.23,2.12-.17,5-.33,8.3-.39s6.17,0,8.3.1l2.51.14A6.5,6.5,0,0,1,563.35,193Z"/><path class="cls-1" d="M399,250.51a4,4,0,0,1,.55.57c.33.39.83.93,1.46,1.57a38.43,38.43,0,0,0,5.44,4.53c2.28,1.57,4.47,2.8,6.06,3.68l1.89,1a4.27,4.27,0,0,1,.68.41,4.81,4.81,0,0,1-.74-.31c-.46-.21-1.12-.53-1.93-.95a53.08,53.08,0,0,1-6.13-3.61,32.8,32.8,0,0,1-5.42-4.63,20.38,20.38,0,0,1-1.4-1.64A5.4,5.4,0,0,1,399,250.51Z"/><path class="cls-1" d="M405.16,238.9s.33.5,1,1.16a21.06,21.06,0,0,0,2.93,2.32c1.22.82,2.36,1.49,3.21,2a14.89,14.89,0,0,1,1.37.73,20.69,20.69,0,0,1-7.66-4.85A3.44,3.44,0,0,1,405.16,238.9Z"/><path class="cls-1" d="M415.47,288.39a1.58,1.58,0,0,1-.32-.15l-.88-.46c-.76-.4-1.84-1-3.14-1.87a64.7,64.7,0,0,1-9.44-7.49,60.11,60.11,0,0,1-7.88-9.13,36.38,36.38,0,0,1-1.95-3.09l-.48-.88a2.51,2.51,0,0,1-.15-.31s.08.09.2.28l.53.85c.45.73,1.12,1.78,2,3a65.86,65.86,0,0,0,7.91,9,71.49,71.49,0,0,0,9.36,7.53c1.27.87,2.34,1.52,3.08,1.95l.85.51C415.38,288.31,415.48,288.38,415.47,288.39Z"/><path class="cls-8" d="M375.18,303.37a7.13,7.13,0,0,1-.27-1.66,27.71,27.71,0,0,1-.1-4.59,29.63,29.63,0,0,1,4.82-14.25c3.11-5,6-9.48,8.07-12.72l2.52-3.8a7.34,7.34,0,0,1,1-1.34,6.88,6.88,0,0,1-.76,1.5l-2.32,3.93c-2,3.3-4.76,7.84-7.88,12.82a30.88,30.88,0,0,0-4.92,13.9C375,301,375.34,303.36,375.18,303.37Z"/><path class="cls-1" d="M400.56,309.23a19,19,0,0,1-5-.74A23.5,23.5,0,0,1,379,291.88a18.72,18.72,0,0,1-.75-5,1.68,1.68,0,0,1,.06.35c0,.23.06.56.13,1a24.22,24.22,0,0,0,.76,3.6,24.31,24.31,0,0,0,20.07,17.23c.43.07.77.09,1,.12Z"/><path class="cls-1" d="M386,259.72a1.26,1.26,0,0,1-.26.18l-.75.46c-.66.38-1.59,1-2.71,1.78a38.69,38.69,0,0,0-13.16,16.48c-.52,1.26-.91,2.3-1.13,3-.1.29-.19.57-.28.84s-.11.29-.12.28a1.18,1.18,0,0,1,.06-.3l.22-.86a28.75,28.75,0,0,1,1.06-3.07A36.54,36.54,0,0,1,382.16,262a27.88,27.88,0,0,1,2.77-1.71l.79-.41A1.29,1.29,0,0,1,386,259.72Z"/><path class="cls-1" d="M377.86,249a5,5,0,0,1-.82.29c-.54.16-1.3.44-2.23.81a26.18,26.18,0,0,0-6.66,4,38.44,38.44,0,0,0-5.4,5.65c-.62.79-1.11,1.44-1.44,1.9a4.49,4.49,0,0,1-.54.68,4.23,4.23,0,0,1,.45-.75c.3-.48.76-1.15,1.36-2a34.12,34.12,0,0,1,5.38-5.75,23.88,23.88,0,0,1,6.77-4,19.31,19.31,0,0,1,2.28-.73A5.54,5.54,0,0,1,377.86,249Z"/></g></svg>