<svg xmlns="http://www.w3.org/2000/svg" viewBox="0 0 700 640"><defs><style>.cls-1{fill:#fff;}.cls-2{fill:#e1e1e1;}.cls-3{opacity:0.3;}.cls-4{fill:#ececec;}.cls-5{fill:#1a2e35;}.cls-6{opacity:0.2;}.cls-7{fill:#00dfdf;}.cls-8{opacity:0.5;}.cls-9{fill:#d15b66;}.cls-10{fill:#254147;}.cls-11{fill:#fafafa;}.cls-12{fill:#ffbe9d;}.cls-13{opacity:0.6;}.cls-14{fill:#375a64;}.cls-15{fill:#0a1619;}.cls-16{fill:#eb996e;}.cls-17{fill:#1f3238;}.cls-18{fill:#054641;}</style></defs><title>Hire Page Illustration</title><g id="Layer_5" data-name="Layer 5"><rect class="cls-1" x="102.82" y="129.84" width="174.64" height="116.93"/><path class="cls-2" d="M277.46,246.77s0-.73,0-2.12,0-3.47,0-6.17c0-5.41,0-13.35-.06-23.52,0-20.31-.08-49.52-.13-85.12l.25.25-174.63.07h0l.31-.32c0,41.66,0,81.27,0,116.93l-.29-.28,125.82.14,35.94.08,9.56,0,2.47,0h.85s-.27,0-.81,0l-2.44,0-9.5,0-35.88.08-126,.14h-.29v-.29c0-35.66,0-75.27,0-116.93v-.31h.32l174.63.06h.25v.25c-.06,35.67-.1,64.92-.13,85.28,0,10.14-.05,18.06-.07,23.46,0,2.68,0,4.73,0,6.12S277.46,246.77,277.46,246.77Z"/><path class="cls-2" d="M102.82,140.28c0-.17,39.07-.31,87.24-.31s87.26.14,87.26.31-39.06.31-87.26.31S102.82,140.45,102.82,140.28Z"/><g class="cls-3"><path class="cls-2" d="M109.71,135a1.4,1.4,0,1,1-1.4-1.4A1.4,1.4,0,0,1,109.71,135Z"/></g><g class="cls-3"><circle class="cls-2" cx="113.11" cy="135.01" r="1.4"/></g><g class="cls-3"><path class="cls-2" d="M119.23,135a1.4,1.4,0,1,1-1.4-1.4A1.39,1.39,0,0,1,119.23,135Z"/></g><rect class="cls-2" x="117.83" y="152.47" width="46.58" height="46.58"/><path class="cls-2" d="M253.51,165.64c0,.17-18.17.31-40.57.31s-40.58-.14-40.58-.31,18.16-.31,40.58-.31S253.51,165.47,253.51,165.64Z"/><path class="cls-2" d="M253.51,174.3c0,.17-18.17.31-40.57.31s-40.58-.14-40.58-.31,18.16-.32,40.58-.32S253.51,174.12,253.51,174.3Z"/><path class="cls-2" d="M253.51,183c0,.18-18.17.32-40.57.32s-40.58-.14-40.58-.32,18.16-.31,40.58-.31S253.51,182.78,253.51,183Z"/><path class="cls-2" d="M220.32,191.61a11.89,11.89,0,0,1-1.89.12l-5.13.1c-4.34.06-10.34.09-17,.09s-12.62,0-17-.09l-5.14-.1a11.82,11.82,0,0,1-1.88-.12,11.82,11.82,0,0,1,1.88-.12l5.14-.1c4.34-.06,10.33-.09,17-.09s12.62,0,17,.09l5.13.1A11.89,11.89,0,0,1,220.32,191.61Z"/><rect class="cls-2" x="120.75" y="214.76" width="21.89" height="21.89"/><rect class="cls-2" x="160.45" y="214.76" width="21.89" height="21.89"/><rect class="cls-2" x="200.16" y="214.76" width="21.89" height="21.89"/><rect class="cls-2" x="239.86" y="214.76" width="21.89" height="21.89"/><rect class="cls-1" x="246.62" y="41.46" width="163.71" height="66.5"/><path class="cls-2" d="M410.33,108s0-.4,0-1.18,0-1.94,0-3.45c0-3,0-7.5-.05-13.24,0-11.48-.06-28.08-.1-48.62l.18.18-163.7.07h0l.26-.25c0,23.28,0,45.76,0,66.49l-.25-.24,117.38.11,34.05.07,9.11,0,2.36,0h.81l-.78,0h-2.33l-9.06,0-34,.06-117.55.12h-.25V108c0-20.73,0-43.21,0-66.49V41.2h.27l163.7.07h.19v.19c0,20.59-.08,37.23-.1,48.73,0,5.73,0,10.17-.05,13.2,0,1.49,0,2.63,0,3.41S410.33,108,410.33,108Z"/><path class="cls-2" d="M246.78,50.42c0-.14,36.6-.26,81.73-.26s81.73.12,81.73.26-36.59.26-81.73.26S246.78,50.57,246.78,50.42Z"/><g class="cls-3"><path class="cls-4" d="M253.64,46.41a1.19,1.19,0,1,1-1.19-1.19A1.19,1.19,0,0,1,253.64,46.41Z"/></g><g class="cls-3"><path class="cls-4" d="M257.71,46.41a1.19,1.19,0,1,1-1.19-1.19A1.19,1.19,0,0,1,257.71,46.41Z"/></g><g class="cls-3"><circle class="cls-4" cx="260.53" cy="46.41" r="1.19"/></g><rect class="cls-2" x="260.53" y="61.23" width="39.54" height="39.54"/><path class="cls-2" d="M399,71.83c0,.14-20.35.26-45.45.26s-45.45-.12-45.45-.26,20.35-.26,45.45-.26S399,71.69,399,71.83Z"/><path class="cls-2" d="M399,79.88c0,.15-20.35.26-45.45.26s-45.45-.11-45.45-.26,20.35-.25,45.45-.25S399,79.74,399,79.88Z"/><path class="cls-2" d="M366.63,87.94a2.2,2.2,0,0,1-.6,0l-1.7.05-6.27.08-20.69.08-20.69-.08L310.41,88l-1.7-.05a2.2,2.2,0,0,1-.6,0,2.2,2.2,0,0,1,.6,0l1.7,0,6.27-.08,20.69-.08,20.69.08,6.27.08,1.7,0A2.2,2.2,0,0,1,366.63,87.94Z"/><path class="cls-5" d="M666.46,588.24c0,.2-139.17.36-310.81.36s-310.84-.16-310.84-.36,139.14-.36,310.84-.36S666.46,588,666.46,588.24Z"/><g class="cls-6"><rect class="cls-7" x="418.44" y="156.33" width="195.44" height="159.22"/></g><g class="cls-8"><rect class="cls-7" x="404.55" y="166.45" width="195.44" height="159.22"/></g><rect class="cls-1" x="385.4" y="177.53" width="200.65" height="163.47"/><path class="cls-5" d="M586.05,341s0-1,0-3,0-4.91,0-8.73c0-7.65,0-18.84-.08-33.12,0-28.54-.09-69.37-.16-118.61l.3.31-200.63.06h0l.36-.37c0,59.12,0,114.93,0,163.47l-.32-.32,145,.16,41,.09,10.87,0,2.8,0,1,0-.92,0-2.76,0-10.81,0-41,.08-145.2.17h-.32V341c0-48.54,0-104.35,0-163.47v-.36h.38l200.63.06h.31v.3c-.07,49.32-.12,90.22-.16,118.8,0,14.25-.06,25.42-.08,33.05,0,3.79,0,6.7,0,8.67S586.05,341,586.05,341Z"/><path d="M409.86,201.16l-2.16.79,2.16.78v.81l-3.08-1.17v-.84l3.08-1.18Z"/><path d="M414.94,199.68v4.53h-1.05v-1.86h-2.06v1.86h-1.05v-4.53h1.05v1.79h2.06v-1.79Z"/><path d="M416.94,200.54H415.5v-.86h3.94v.86H418v3.67h-1.05Z"/><path d="M424.12,204.21v-2.72l-1.34,2.24h-.47L421,201.55v2.66h-1v-4.53h.87l1.69,2.82,1.67-2.82h.86l0,4.53Z"/><path d="M426.17,199.68h1.05v3.68h2.27v.85h-3.32Z"/><path d="M433,201.53v.84l-3.08,1.17v-.81l2.15-.78-2.15-.79v-.81Z"/><path class="cls-7" d="M408,325.12l-2.16.79,2.16.78v.81L405,326.33v-.84l3.08-1.17Z"/><path class="cls-7" d="M410.34,322.73h.9l-2.14,6.09h-.9Z"/><path class="cls-7" d="M415.64,323.64v4.53h-1.05v-1.85h-2v1.85h-1.05v-4.53h1.05v1.79h2v-1.79Z"/><path class="cls-7" d="M417.65,324.5H416.2v-.86h3.94v.86H418.7v3.67h-1.05Z"/><path class="cls-7" d="M424.83,328.17v-2.71l-1.33,2.23H423l-1.32-2.18v2.66h-1v-4.53h.87l1.7,2.82,1.67-2.82h.86v4.53Z"/><path class="cls-7" d="M426.88,323.64h1.05v3.68h2.27v.85h-3.32Z"/><path class="cls-7" d="M433.72,325.49v.84l-3.07,1.17v-.81l2.15-.78-2.15-.79v-.8Z"/><path d="M424.07,213.55l-2.3.89,2.3.89v.53l-2.9-1.14v-.56l2.9-1.14Z"/><path d="M429.07,212.18v4.52h-.65v-2h-2.6v2h-.64v-4.52h.64v1.94h2.6v-1.94Z"/><path d="M433.71,216.14v.56h-3.29v-4.52h3.2v.56h-2.55v1.39h2.27v.55h-2.27v1.46Z"/><path d="M437.64,215.57h-2.41l-.5,1.13h-.66l2.05-4.52h.64l2.06,4.52h-.68Zm-.23-.52-1-2.21-1,2.21Z"/><path d="M439.48,212.18h1.91a2.27,2.27,0,1,1,0,4.52h-1.91Zm1.87,4a1.71,1.71,0,1,0,0-3.4h-1.22v3.4Z"/><path d="M447.48,214.16v.56l-2.9,1.14v-.53l2.3-.89-2.3-.89V213Z"/><path d="M424.07,229.06l-2.3.89,2.3.89v.53l-2.9-1.14v-.56l2.9-1.14Z"/><path d="M426.08,228.25h-1.56v-.56h3.75v.56h-1.55v4h-.64Z"/><path d="M429,227.69h.65v4.53H429Z"/><path d="M431.87,228.25h-1.55v-.56h3.74v.56h-1.55v4h-.64Z"/><path d="M434.77,227.69h.64v4h2.45v.57h-3.09Z"/><path d="M441.89,231.65v.57h-3.28v-4.53h3.19v.56h-2.55v1.39h2.27v.55h-2.27v1.46Z"/><path d="M445.59,229.67v.56l-2.9,1.14v-.53L445,230l-2.3-.89v-.53Z"/><path d="M448.44,227.69h.64v4h2.45v.57h-3.09Z"/><path d="M451.82,230.5a1.79,1.79,0,1,1,1.79,1.75A1.71,1.71,0,0,1,451.82,230.5Zm2.94,0a1.16,1.16,0,1,0-2.31,0,1.16,1.16,0,1,0,2.31,0Z"/><path d="M458.09,228.75v.61h-.15a1,1,0,0,0-1.08,1.16v1.71h-.62v-3.43h.6v.57A1.31,1.31,0,0,1,458.09,228.75Z"/><path d="M461.9,230.71h-2.78a1.16,1.16,0,0,0,1.24,1,1.3,1.3,0,0,0,1-.41l.34.4a1.87,1.87,0,0,1-3.19-1.2,1.68,1.68,0,0,1,1.72-1.75,1.65,1.65,0,0,1,1.69,1.77A1.28,1.28,0,0,1,461.9,230.71Zm-2.78-.45h2.2a1.08,1.08,0,0,0-1.1-1A1.06,1.06,0,0,0,459.12,230.26Z"/><path d="M468.46,230.24v2h-.62v-1.91c0-.67-.32-1-.89-1s-1,.4-1,1.14v1.77h-.62v-1.91c0-.67-.33-1-.89-1a1,1,0,0,0-1,1.14v1.77h-.62v-3.43h.59v.51a1.41,1.41,0,0,1,1.19-.55,1.28,1.28,0,0,1,1.19.64,1.55,1.55,0,0,1,1.32-.64A1.32,1.32,0,0,1,468.46,230.24Z"/><path d="M471.23,227.73a.41.41,0,0,1,.42-.41.4.4,0,0,1,.42.39.42.42,0,0,1-.84,0Zm.11,1.06H472v3.43h-.62Z"/><path d="M476.69,230.5a1.66,1.66,0,0,1-1.73,1.75,1.48,1.48,0,0,1-1.2-.55v1.77h-.62v-4.68h.6v.54a1.47,1.47,0,0,1,1.22-.58A1.66,1.66,0,0,1,476.69,230.5Zm-.62,0a1.16,1.16,0,1,0-1.16,1.21A1.13,1.13,0,0,0,476.07,230.5Z"/><path d="M477.12,231.85l.26-.49a2.16,2.16,0,0,0,1.2.36c.57,0,.81-.18.81-.47,0-.77-2.16-.1-2.16-1.47,0-.61.55-1,1.43-1a2.5,2.5,0,0,1,1.24.31l-.26.5a1.8,1.8,0,0,0-1-.28c-.54,0-.81.21-.81.48,0,.81,2.18.15,2.18,1.48,0,.62-.57,1-1.49,1A2.41,2.41,0,0,1,477.12,231.85Z"/><path d="M484,228.79v3.43h-.59v-.52a1.42,1.42,0,0,1-1.17.55,1.34,1.34,0,0,1-1.47-1.49v-2h.62v1.9c0,.67.33,1,.92,1a1,1,0,0,0,1.06-1.14v-1.77Z"/><path d="M490.86,230.24v2h-.62v-1.91c0-.67-.33-1-.89-1a1,1,0,0,0-1,1.14v1.77h-.62v-1.91c0-.67-.32-1-.89-1a1,1,0,0,0-1,1.14v1.77h-.62v-3.43h.6v.51a1.4,1.4,0,0,1,1.18-.55,1.26,1.26,0,0,1,1.19.64,1.55,1.55,0,0,1,1.32-.64A1.32,1.32,0,0,1,490.86,230.24Z"/><path d="M496.48,229.06l-2.3.89,2.3.89v.53l-2.9-1.14v-.56l2.9-1.14Z"/><path d="M498.86,226.77h.56l-2.13,6.09h-.56Z"/><path d="M501,228.25H499.4v-.56h3.75v.56h-1.56v4H501Z"/><path d="M503.85,227.69h.65v4.53h-.65Z"/><path d="M506.75,228.25H505.2v-.56h3.74v.56h-1.55v4h-.64Z"/><path d="M509.65,227.69h.64v4h2.45v.57h-3.09Z"/><path d="M516.77,231.65v.57h-3.28v-4.53h3.19v.56h-2.55v1.39h2.27v.55h-2.27v1.46Z"/><path d="M520.47,229.67v.56l-2.9,1.14v-.53l2.3-.89-2.3-.89v-.53Z"/><path d="M424.07,244.57l-2.3.89,2.3.89v.53l-2.9-1.14v-.56l2.9-1.14Z"/><path d="M426.45,242.28H427l-2.13,6.09h-.56Z"/><path d="M431.34,243.2v4.53h-.64v-2h-2.6v2h-.65V243.2h.65v1.94h2.6V243.2Z"/><path d="M436,247.16v.57H432.7V243.2h3.19v.56h-2.54v1.39h2.27v.55h-2.27v1.46Z"/><path d="M439.91,246.59h-2.4l-.5,1.14h-.67l2.05-4.53H439l2.06,4.53h-.68Zm-.22-.51-1-2.22-1,2.22Z"/><path d="M441.76,243.2h1.91a2.27,2.27,0,1,1,0,4.53h-1.91Zm1.87,4a1.71,1.71,0,1,0,0-3.4h-1.22v3.4Z"/><path d="M449.75,245.18v.56l-2.9,1.14v-.53l2.3-.89-2.3-.89V244Z"/><path d="M412.05,258l-2.29.88,2.29.89v.54l-2.9-1.15v-.56l2.9-1.14Z"/><path d="M417.06,260c0,.78-.59,1.23-1.74,1.23h-2.16v-4.53h2c1,0,1.63.44,1.63,1.17a1.15,1.15,0,0,0,.24,2.13Zm-3.25-2.78v1.45h1.33c.65,0,1-.24,1-.72s-.38-.73-1-.73Zm2.59,2.73c0-.52-.38-.75-1.1-.75h-1.49v1.5h1.49C416,260.66,416.4,260.44,416.4,259.91Z"/><path d="M417.69,258.92a2.41,2.41,0,1,1,2.41,2.32A2.3,2.3,0,0,1,417.69,258.92Zm4.16,0a1.76,1.76,0,1,0-1.75,1.74A1.7,1.7,0,0,0,421.85,258.92Z"/><path d="M423.48,256.66h1.91a2.27,2.27,0,1,1,0,4.53h-1.91Zm1.87,4a1.71,1.71,0,1,0,0-3.4h-1.22v3.4Z"/><path d="M430.36,259.62v1.57h-.64v-1.58l-1.8-2.95h.69l1.45,2.39,1.46-2.39h.64Z"/><path d="M435.46,258.64v.56l-2.9,1.15v-.54l2.31-.89-2.31-.88v-.54Z"/><path d="M412.05,273.55l-2.29.88,2.29.89v.54l-2.9-1.15v-.55l2.9-1.15Z"/><path d="M417.06,272.17v4.53h-.65v-2h-2.6v2h-.65v-4.53h.65v1.95h2.6v-1.95Z"/><path d="M419.44,272.17v4.53h-.64v-4h-1v-.56Z"/><path d="M423.45,274.16v.55l-2.9,1.15v-.54l2.31-.89-2.31-.88V273Z"/><path d="M426.36,272.17h.48v4.11h2.53v.42h-3Z"/><path d="M429.67,275a1.73,1.73,0,1,1,1.74,1.73A1.68,1.68,0,0,1,429.67,275Zm3,0a1.27,1.27,0,1,0-1.26,1.32A1.24,1.24,0,0,0,432.67,275Z"/><path d="M435.78,273.27v.45h-.11a1.09,1.09,0,0,0-1.14,1.25v1.74h-.46v-3.4h.44V274A1.27,1.27,0,0,1,435.78,273.27Z"/><path d="M439.54,275.14h-2.85a1.27,1.27,0,0,0,1.34,1.18,1.34,1.34,0,0,0,1-.44l.26.29a1.64,1.64,0,0,1-1.31.56,1.69,1.69,0,0,1-1.79-1.73,1.66,1.66,0,1,1,3.32,0S439.54,275.09,439.54,275.14Zm-2.85-.34h2.42a1.21,1.21,0,0,0-2.42,0Z"/><path d="M446.1,274.73v2h-.46v-1.93c0-.72-.37-1.09-1-1.09a1.1,1.1,0,0,0-1.14,1.23v1.79h-.46v-1.93c0-.72-.36-1.09-1-1.09a1.1,1.1,0,0,0-1.14,1.23v1.79h-.46v-3.4h.44v.62a1.38,1.38,0,0,1,1.25-.65,1.23,1.23,0,0,1,1.21.72,1.47,1.47,0,0,1,1.34-.72A1.29,1.29,0,0,1,446.1,274.73Z"/><path d="M448.93,272.22a.34.34,0,0,1,.67,0,.34.34,0,0,1-.67,0Zm.1,1.08h.46v3.4H449Z"/><path d="M454.22,275a1.65,1.65,0,0,1-1.7,1.73,1.48,1.48,0,0,1-1.29-.67V278h-.46V273.3h.44V274a1.49,1.49,0,0,1,1.31-.7A1.65,1.65,0,0,1,454.22,275Zm-.46,0a1.27,1.27,0,1,0-1.27,1.32A1.26,1.26,0,0,0,453.76,275Z"/><path d="M454.68,276.31l.2-.36a2.13,2.13,0,0,0,1.22.38c.64,0,.91-.22.91-.56,0-.88-2.21-.18-2.21-1.53,0-.56.48-1,1.35-1a2.23,2.23,0,0,1,1.2.32l-.2.37a1.73,1.73,0,0,0-1-.3c-.62,0-.89.24-.89.57,0,.92,2.21.22,2.21,1.53,0,.59-.52,1-1.41,1A2.27,2.27,0,0,1,454.68,276.31Z"/><path d="M461.38,273.3v3.4h-.44v-.62a1.36,1.36,0,0,1-1.23.65,1.31,1.31,0,0,1-1.43-1.46v-2h.46v1.92c0,.73.37,1.1,1,1.1a1.11,1.11,0,0,0,1.16-1.24V273.3Z"/><path d="M468.28,274.73v2h-.46v-1.93c0-.72-.37-1.09-1-1.09a1.1,1.1,0,0,0-1.14,1.23v1.79h-.46v-1.93c0-.72-.36-1.09-1-1.09a1.1,1.1,0,0,0-1.14,1.23v1.79h-.46v-3.4h.44v.62a1.38,1.38,0,0,1,1.25-.65,1.23,1.23,0,0,1,1.21.72,1.48,1.48,0,0,1,1.34-.72A1.29,1.29,0,0,1,468.28,274.73Z"/><path d="M474.32,271.9v4.8h-.44V276a1.48,1.48,0,0,1-1.32.7,1.73,1.73,0,0,1,0-3.46,1.49,1.49,0,0,1,1.3.67v-2Zm-.46,3.1a1.27,1.27,0,1,0-1.26,1.32A1.24,1.24,0,0,0,473.86,275Z"/><path d="M475.25,275a1.73,1.73,0,1,1,1.73,1.73A1.68,1.68,0,0,1,475.25,275Zm3,0a1.27,1.27,0,1,0-1.27,1.32A1.25,1.25,0,0,0,478.25,275Z"/><path d="M479.64,271.9h.46v4.8h-.46Z"/><path d="M481,275a1.73,1.73,0,1,1,1.73,1.73A1.68,1.68,0,0,1,481,275Zm3,0a1.27,1.27,0,1,0-1.27,1.32A1.25,1.25,0,0,0,484,275Z"/><path d="M487.15,273.27v.45H487a1.1,1.1,0,0,0-1.15,1.25v1.74h-.46v-3.4h.44V274A1.3,1.3,0,0,1,487.15,273.27Z"/><path d="M489.25,276.31l.21-.36a2.06,2.06,0,0,0,1.2.38c.65,0,.92-.22.92-.56,0-.88-2.21-.18-2.21-1.53,0-.56.48-1,1.35-1a2.25,2.25,0,0,1,1.2.32l-.2.37a1.73,1.73,0,0,0-1-.3c-.62,0-.89.24-.89.57,0,.92,2.21.22,2.21,1.53,0,.59-.52,1-1.41,1A2.27,2.27,0,0,1,489.25,276.31Z"/><path d="M492.78,272.22a.33.33,0,0,1,.33-.32.33.33,0,1,1,0,.65A.33.33,0,0,1,492.78,272.22Zm.1,1.08h.46v3.4h-.46Z"/><path d="M496.41,276.49a1.1,1.1,0,0,1-.72.24.9.9,0,0,1-1-1v-2.06h-.61v-.38h.61v-.75h.46v.75h1v.38h-1v2c0,.4.2.62.58.62a.76.76,0,0,0,.51-.18Z"/><path d="M501.5,274.59v2.11h-.43v-.53a1.29,1.29,0,0,1-1.18.56c-.77,0-1.24-.4-1.24-1s.34-1,1.31-1h1.09v-.21c0-.58-.33-.9-1-.9a1.76,1.76,0,0,0-1.13.4l-.21-.34a2.17,2.17,0,0,1,1.39-.46A1.2,1.2,0,0,1,501.5,274.59Zm-.45,1.09v-.56H500c-.66,0-.87.26-.87.61s.31.64.85.64A1.11,1.11,0,0,0,501.05,275.68Z"/><path d="M508.36,274.73v2h-.45v-1.93c0-.72-.37-1.09-1-1.09a1.1,1.1,0,0,0-1.14,1.23v1.79h-.46v-1.93c0-.72-.36-1.09-1-1.09a1.1,1.1,0,0,0-1.14,1.23v1.79h-.46v-3.4h.44v.62a1.38,1.38,0,0,1,1.25-.65,1.23,1.23,0,0,1,1.21.72,1.47,1.47,0,0,1,1.34-.72A1.28,1.28,0,0,1,508.36,274.73Z"/><path d="M512.58,275.14h-2.84a1.25,1.25,0,0,0,1.33,1.18,1.37,1.37,0,0,0,1.05-.44l.26.29a1.8,1.8,0,0,1-3.1-1.17,1.66,1.66,0,1,1,3.31,0S512.58,275.09,512.58,275.14Zm-2.84-.34h2.41a1.19,1.19,0,0,0-1.21-1.14A1.18,1.18,0,0,0,509.74,274.8Z"/><path d="M515.31,276.49a1.09,1.09,0,0,1-.71.24.9.9,0,0,1-1-1v-2.06H513v-.38h.61v-.75h.46v.75h1v.38h-1v2a.55.55,0,0,0,.59.62.75.75,0,0,0,.5-.18Z"/><path d="M516.61,276.38a1.14,1.14,0,0,1-.09.37l-.28.89h-.31l.22-.94a.32.32,0,0,1-.23-.32.33.33,0,0,1,.34-.35A.34.34,0,0,1,516.61,276.38Z"/><path d="M518.93,275a1.68,1.68,0,0,1,1.76-1.73,1.5,1.5,0,0,1,1.33.67l-.35.24a1.13,1.13,0,0,0-1-.51,1.33,1.33,0,0,0,0,2.65,1.12,1.12,0,0,0,1-.5l.35.24a1.5,1.5,0,0,1-1.33.67A1.68,1.68,0,0,1,518.93,275Z"/><path d="M522.51,275a1.73,1.73,0,1,1,1.74,1.73A1.68,1.68,0,0,1,522.51,275Zm3,0a1.27,1.27,0,1,0-1.26,1.32A1.24,1.24,0,0,0,525.51,275Z"/><path d="M530,274.73v2h-.46v-1.93a1,1,0,0,0-1-1.09,1.12,1.12,0,0,0-1.19,1.23v1.79h-.46v-3.4h.44v.62a1.42,1.42,0,0,1,1.29-.65A1.31,1.31,0,0,1,530,274.73Z"/><path d="M530.81,276.31,531,276a2.07,2.07,0,0,0,1.21.38c.64,0,.91-.22.91-.56,0-.88-2.21-.18-2.21-1.53,0-.56.48-1,1.35-1a2.23,2.23,0,0,1,1.2.32l-.2.37a1.7,1.7,0,0,0-1-.3c-.62,0-.89.24-.89.57,0,.92,2.21.22,2.21,1.53,0,.59-.52,1-1.4,1A2.28,2.28,0,0,1,530.81,276.31Z"/><path d="M537.41,275.14h-2.85a1.25,1.25,0,0,0,1.34,1.18,1.37,1.37,0,0,0,1-.44l.26.29a1.8,1.8,0,0,1-3.1-1.17,1.66,1.66,0,1,1,3.31,0Zm-2.85-.34H537a1.21,1.21,0,0,0-2.41,0Z"/><path d="M538,275a1.68,1.68,0,0,1,1.76-1.73,1.5,1.5,0,0,1,1.33.67l-.34.24a1.16,1.16,0,0,0-1-.51,1.33,1.33,0,0,0,0,2.65,1.15,1.15,0,0,0,1-.5l.34.24a1.5,1.5,0,0,1-1.33.67A1.68,1.68,0,0,1,538,275Z"/><path d="M543.82,276.49a1.14,1.14,0,0,1-.72.24.9.9,0,0,1-1-1v-2.06h-.61v-.38h.61v-.75h.46v.75h1v.38h-1v2a.55.55,0,0,0,.59.62.73.73,0,0,0,.5-.18Z"/><path d="M547.49,275.14h-2.85a1.26,1.26,0,0,0,1.34,1.18,1.35,1.35,0,0,0,1-.44l.26.29a1.64,1.64,0,0,1-1.31.56,1.69,1.69,0,0,1-1.79-1.73,1.66,1.66,0,1,1,3.32,0S547.49,275.09,547.49,275.14Zm-2.85-.34h2.41a1.18,1.18,0,0,0-1.2-1.14A1.19,1.19,0,0,0,544.64,274.8Z"/><path d="M550.22,276.49a1.1,1.1,0,0,1-.72.24.9.9,0,0,1-1-1v-2.06h-.61v-.38h.61v-.75H549v.75h1v.38h-1v2a.54.54,0,0,0,.59.62.75.75,0,0,0,.5-.18Z"/><path d="M554.12,273.3v3.4h-.44v-.62a1.36,1.36,0,0,1-1.22.65,1.32,1.32,0,0,1-1.44-1.46v-2h.46v1.92c0,.73.37,1.1,1,1.1a1.11,1.11,0,0,0,1.16-1.24V273.3Z"/><path d="M558.36,275.14h-2.84a1.25,1.25,0,0,0,1.34,1.18,1.37,1.37,0,0,0,1-.44l.26.29a1.8,1.8,0,0,1-3.1-1.17,1.66,1.66,0,1,1,3.31,0S558.36,275.09,558.36,275.14Zm-2.84-.34h2.41a1.21,1.21,0,0,0-2.41,0Z"/><path d="M561,273.27v.45h-.11a1.09,1.09,0,0,0-1.14,1.25v1.74h-.46v-3.4h.44V274A1.27,1.27,0,0,1,561,273.27Z"/><path d="M411.93,282.34v2.11h-.44v-.53a1.29,1.29,0,0,1-1.17.57c-.77,0-1.24-.4-1.24-1s.33-1,1.31-1h1.08v-.2c0-.59-.33-.9-1-.9a1.74,1.74,0,0,0-1.14.4l-.2-.35a2.14,2.14,0,0,1,1.38-.45A1.21,1.21,0,0,1,411.93,282.34Zm-.46,1.09v-.55H410.4c-.66,0-.87.25-.87.6s.32.64.86.64A1.08,1.08,0,0,0,411.47,283.43Z"/><path d="M416.29,279.65v4.8h-.44v-.67a1.48,1.48,0,0,1-1.31.71,1.73,1.73,0,0,1,0-3.46,1.48,1.48,0,0,1,1.29.67v-2.05Zm-.45,3.1a1.27,1.27,0,1,0-1.26,1.33A1.24,1.24,0,0,0,415.84,282.75Z"/><path d="M417.46,280a.34.34,0,0,1,.68,0,.33.33,0,0,1-.34.34A.34.34,0,0,1,417.46,280Zm.11,1.07H418v3.4h-.46Z"/><path d="M422.76,282.75a1.65,1.65,0,0,1-1.7,1.74,1.48,1.48,0,0,1-1.29-.68v1.9h-.46v-4.66h.44v.67a1.48,1.48,0,0,1,1.31-.69A1.64,1.64,0,0,1,422.76,282.75Zm-.46,0a1.27,1.27,0,1,0-1.27,1.33A1.25,1.25,0,0,0,422.3,282.75Z"/><path d="M423.59,280a.34.34,0,1,1,.33.33A.33.33,0,0,1,423.59,280Zm.1,1.07h.46v3.4h-.46Z"/><path d="M425,284.07l.2-.37a2,2,0,0,0,1.21.39c.65,0,.91-.23.91-.56,0-.89-2.2-.19-2.2-1.53,0-.56.48-1,1.34-1a2.38,2.38,0,0,1,1.21.31l-.2.37a1.75,1.75,0,0,0-1-.29c-.61,0-.88.24-.88.56,0,.92,2.2.23,2.2,1.54,0,.58-.51,1-1.4,1A2.31,2.31,0,0,1,425,284.07Z"/><path d="M428.25,282.75A1.67,1.67,0,0,1,430,281a1.47,1.47,0,0,1,1.33.67l-.34.23a1.16,1.16,0,0,0-1-.5,1.33,1.33,0,0,0,0,2.65,1.16,1.16,0,0,0,1-.5l.34.23a1.49,1.49,0,0,1-1.33.68A1.68,1.68,0,0,1,428.25,282.75Z"/><path d="M432.12,280a.34.34,0,1,1,.34.33A.34.34,0,0,1,432.12,280Zm.11,1.07h.46v3.4h-.46Z"/><path d="M437.1,282.48v2h-.46v-1.92a1,1,0,0,0-1-1.09,1.11,1.11,0,0,0-1.19,1.23v1.78H434v-3.4h.44v.63a1.4,1.4,0,0,1,1.29-.65A1.3,1.3,0,0,1,437.1,282.48Z"/><path d="M441.5,281.05v3a1.49,1.49,0,0,1-1.7,1.7,2.38,2.38,0,0,1-1.58-.52l.23-.35a2,2,0,0,0,1.34.46c.86,0,1.25-.39,1.25-1.23v-.44a1.51,1.51,0,0,1-1.32.66,1.65,1.65,0,1,1,0-3.29,1.53,1.53,0,0,1,1.34.67v-.65Zm-.44,1.62a1.3,1.3,0,1,0-1.3,1.25A1.22,1.22,0,0,0,441.06,282.67Z"/><path d="M447.44,282.9H444.6a1.25,1.25,0,0,0,1.34,1.18,1.34,1.34,0,0,0,1-.45l.26.3a1.7,1.7,0,0,1-1.32.56,1.69,1.69,0,0,1-1.78-1.74,1.66,1.66,0,1,1,3.31,0S447.44,282.84,447.44,282.9Zm-2.84-.35H447a1.21,1.21,0,0,0-2.41,0Z"/><path d="M448.38,279.65h.46v4.8h-.46Z"/><path d="M450,280a.34.34,0,1,1,.33.33A.33.33,0,0,1,450,280Zm.1,1.07h.46v3.4h-.46Z"/><path d="M453.65,284.25a1.09,1.09,0,0,1-.71.24.9.9,0,0,1-1-1v-2.06h-.61v-.39h.61v-.74h.46v.74h1v.39h-1v2a.54.54,0,0,0,.59.62.8.8,0,0,0,.5-.17Z"/><path d="M454.94,284.13a1,1,0,0,1-.09.38l-.27.89h-.31l.22-.94a.32.32,0,0,1-.23-.33.34.34,0,1,1,.68,0Z"/><path d="M457.14,284.07l.21-.37a2,2,0,0,0,1.21.39c.64,0,.91-.23.91-.56,0-.89-2.21-.19-2.21-1.53,0-.56.48-1,1.35-1a2.32,2.32,0,0,1,1.2.31l-.2.37a1.72,1.72,0,0,0-1-.29c-.61,0-.89.24-.89.56,0,.92,2.21.23,2.21,1.54,0,.58-.52,1-1.4,1A2.34,2.34,0,0,1,457.14,284.07Z"/><path d="M463.74,282.9h-2.85a1.25,1.25,0,0,0,1.34,1.18,1.34,1.34,0,0,0,1-.45l.26.3a1.8,1.8,0,0,1-3.1-1.18,1.66,1.66,0,1,1,3.31,0Zm-2.85-.35h2.41a1.21,1.21,0,0,0-2.41,0Z"/><path d="M467.78,279.65v4.8h-.44v-.67a1.48,1.48,0,0,1-1.31.71,1.73,1.73,0,0,1,0-3.46,1.48,1.48,0,0,1,1.29.67v-2.05Zm-.45,3.1a1.27,1.27,0,1,0-1.26,1.33A1.24,1.24,0,0,0,467.33,282.75Z"/><path d="M473.86,279.65v4.8h-.44v-.67a1.48,1.48,0,0,1-1.32.71,1.65,1.65,0,0,1-1.69-1.74A1.64,1.64,0,0,1,472.1,281a1.49,1.49,0,0,1,1.3.67v-2.05Zm-.46,3.1a1.27,1.27,0,1,0-1.26,1.33A1.24,1.24,0,0,0,473.4,282.75Z"/><path d="M475,280a.34.34,0,0,1,.34-.33.33.33,0,1,1,0,.66A.34.34,0,0,1,475,280Zm.1,1.07h.46v3.4h-.46Z"/><path d="M479.44,282.34v2.11H479v-.53a1.29,1.29,0,0,1-1.17.57c-.77,0-1.24-.4-1.24-1s.33-1,1.31-1H479v-.2c0-.59-.33-.9-1-.9a1.69,1.69,0,0,0-1.13.4l-.21-.35a2.16,2.16,0,0,1,1.38-.45A1.21,1.21,0,0,1,479.44,282.34Zm-.46,1.09v-.55h-1.07c-.66,0-.87.25-.87.6s.32.64.86.64A1.08,1.08,0,0,0,479,283.43Z"/><path d="M486.3,282.48v2h-.46v-1.92c0-.72-.36-1.09-1-1.09a1.09,1.09,0,0,0-1.14,1.23v1.78h-.46v-1.92c0-.72-.37-1.09-1-1.09a1.1,1.1,0,0,0-1.14,1.23v1.78h-.45v-3.4h.44v.62a1.34,1.34,0,0,1,1.24-.64,1.2,1.2,0,0,1,1.21.71,1.48,1.48,0,0,1,1.35-.71A1.28,1.28,0,0,1,486.3,282.48Z"/><path d="M490.23,281.3l-2.29.89,2.29.89v.53l-2.9-1.14v-.56l2.9-1.14Z"/><path d="M492.62,279h.56L491,285.1h-.56Z"/><path d="M497.51,279.93v4.52h-.65v-2h-2.6v2h-.64v-4.52h.64v1.94h2.6v-1.94Z"/><path d="M499.9,279.93v4.52h-.64v-4h-1v-.56Z"/><path d="M503.91,281.91v.56l-2.9,1.14v-.53l2.3-.89-2.3-.89v-.53Z"/><path d="M412.05,296.81l-2.29.89,2.29.89v.53l-2.9-1.14v-.56l2.9-1.14Z"/><path d="M416.82,297c0,1-.71,1.57-1.89,1.57h-1.12V300h-.65v-4.53h1.77C416.11,295.44,416.82,296,416.82,297Zm-.65,0c0-.65-.43-1-1.26-1h-1.1v2h1.1C415.74,298,416.17,297.66,416.17,297Z"/><path d="M420.48,297.42V298l-2.9,1.14v-.53l2.3-.89-2.3-.89v-.53Z"/><path d="M426,296.81l-2.3.89,2.3.89v.53l-2.9-1.14v-.56l2.9-1.14Z"/><path d="M427.09,295.44h.65V300h-.65Z"/><path d="M433.29,300v-3.3l-1.63,2.74h-.3l-1.64-2.72V300h-.62v-4.53h.53l1.89,3.18,1.86-3.18h.54V300Z"/><path d="M438.4,297.68H439v1.76a2.68,2.68,0,0,1-1.71.58,2.32,2.32,0,1,1,0-4.64,2.26,2.26,0,0,1,1.74.7l-.4.4a1.79,1.79,0,0,0-1.31-.52,1.74,1.74,0,1,0,0,3.48,1.88,1.88,0,0,0,1.06-.29Z"/><path d="M441.58,299.45l.24-.51a2.28,2.28,0,0,0,1.49.53c.78,0,1.12-.31,1.12-.7,0-1.11-2.74-.41-2.74-2.09,0-.7.54-1.3,1.73-1.3a2.69,2.69,0,0,1,1.46.41l-.22.51a2.33,2.33,0,0,0-1.24-.36c-.77,0-1.1.32-1.1.71,0,1.11,2.74.42,2.74,2.08,0,.69-.55,1.29-1.75,1.29A2.71,2.71,0,0,1,441.58,299.45Z"/><path d="M449,300l-1-1.4-.29,0h-1.12V300H446v-4.53h1.76c1.18,0,1.89.59,1.89,1.58a1.44,1.44,0,0,1-1,1.43l1.08,1.52Zm0-3c0-.65-.43-1-1.26-1h-1.1v2h1.1C448.58,298,449,297.66,449,297Z"/><path d="M450.34,297.7a2.29,2.29,0,0,1,2.4-2.32,2.25,2.25,0,0,1,1.72.71l-.42.41a1.69,1.69,0,0,0-1.28-.54,1.74,1.74,0,1,0,0,3.48,1.69,1.69,0,0,0,1.28-.54l.42.41a2.41,2.41,0,0,1-4.12-1.61Z"/><path d="M455.13,296.68H458v.51h-2.9Zm0,1.53H458v.51h-2.9Z"/><path d="M460.6,295.44h.55l0,1.74h-.46Zm1.18,0h.54l-.05,1.74h-.46Z"/><path d="M463.4,295.44h.65v4h2.45V300h-3.1Z"/><path d="M466.79,298.25a1.78,1.78,0,1,1,1.79,1.75A1.71,1.71,0,0,1,466.79,298.25Zm2.94,0a1.16,1.16,0,1,0-1.15,1.21A1.13,1.13,0,0,0,469.73,298.25Z"/><path d="M473.05,296.5v.61h-.14a1,1,0,0,0-1.08,1.16V300h-.62v-3.43h.59v.57A1.33,1.33,0,0,1,473.05,296.5Z"/><path d="M476.87,298.46h-2.78a1.16,1.16,0,0,0,1.24,1,1.27,1.27,0,0,0,1-.41l.34.4a1.87,1.87,0,0,1-3.19-1.2,1.68,1.68,0,0,1,1.72-1.75,1.65,1.65,0,0,1,1.69,1.77A1.28,1.28,0,0,1,476.87,298.46Zm-2.78-.45h2.2a1.08,1.08,0,0,0-1.1-1A1.06,1.06,0,0,0,474.09,298Z"/><path d="M483.43,298v2h-.62v-1.91c0-.67-.32-1-.89-1a1,1,0,0,0-1,1.14V300h-.62v-1.91c0-.67-.32-1-.88-1a1,1,0,0,0-1,1.14V300h-.62v-3.43h.59v.51a1.41,1.41,0,0,1,1.19-.55,1.28,1.28,0,0,1,1.19.64,1.55,1.55,0,0,1,1.32-.64A1.32,1.32,0,0,1,483.43,298Z"/><path d="M486.2,295.48a.41.41,0,0,1,.42-.41.4.4,0,0,1,.42.39.41.41,0,0,1-.42.42A.41.41,0,0,1,486.2,295.48Zm.11,1.06h.62V300h-.62Z"/><path d="M491.66,298.25a1.66,1.66,0,0,1-1.73,1.75,1.46,1.46,0,0,1-1.2-.55v1.77h-.62v-4.68h.6v.54a1.46,1.46,0,0,1,1.22-.58A1.66,1.66,0,0,1,491.66,298.25Zm-.62,0a1.16,1.16,0,1,0-1.16,1.21A1.13,1.13,0,0,0,491,298.25Z"/><path d="M492.09,299.6l.25-.49a2.22,2.22,0,0,0,1.21.36c.57,0,.81-.18.81-.47,0-.77-2.16-.1-2.16-1.47,0-.61.55-1,1.43-1a2.5,2.5,0,0,1,1.24.31l-.26.5a1.8,1.8,0,0,0-1-.28c-.54,0-.81.21-.81.48,0,.81,2.17.15,2.17,1.48,0,.62-.57,1-1.48,1A2.41,2.41,0,0,1,492.09,299.6Z"/><path d="M499,296.54V300h-.59v-.52a1.4,1.4,0,0,1-1.16.55,1.35,1.35,0,0,1-1.48-1.49v-2h.62v1.9c0,.67.34,1,.93,1a1,1,0,0,0,1.06-1.14v-1.77Z"/><path d="M505.83,298v2h-.63v-1.91c0-.67-.32-1-.88-1a1,1,0,0,0-1,1.14V300h-.62v-1.91c0-.67-.32-1-.89-1a1,1,0,0,0-1,1.14V300h-.62v-3.43h.6v.51a1.37,1.37,0,0,1,1.18-.55,1.26,1.26,0,0,1,1.19.64,1.55,1.55,0,0,1,1.32-.64A1.32,1.32,0,0,1,505.83,298Z"/><path d="M506.78,295.44h.54l0,1.74h-.46Zm1.17,0h.55l-.05,1.74H508Z"/><path d="M512.23,297.42V298l-2.9,1.14v-.53l2.31-.89-2.31-.89v-.53Z"/><path d="M516,296.81l-2.29.89,2.29.89v.53L513.1,298v-.56l2.89-1.14Z"/><path d="M518.38,294.52h.56l-2.13,6.09h-.57Z"/><path d="M523,297c0,1-.71,1.57-1.89,1.57H520V300h-.65v-4.53h1.76C522.32,295.44,523,296,523,297Zm-.64,0c0-.65-.44-1-1.27-1H520v2h1.09C522,298,522.39,297.66,522.39,297Z"/><path d="M526.7,297.42V298l-2.9,1.14v-.53l2.3-.89-2.3-.89v-.53Z"/><path d="M412.05,312.33l-2.29.88,2.29.89v.54l-2.9-1.15v-.56l2.9-1.14Z"/><path d="M414.44,310H415l-2.14,6.09h-.56Z"/><path d="M419.33,314.25c0,.78-.59,1.23-1.73,1.23h-2.16V311h2c1,0,1.62.44,1.62,1.17a1.08,1.08,0,0,1-.61,1A1.09,1.09,0,0,1,419.33,314.25Zm-3.25-2.78v1.45h1.33c.66,0,1-.24,1-.72s-.38-.73-1-.73Zm2.6,2.73c0-.52-.39-.75-1.11-.75h-1.49V315h1.49C418.29,315,418.68,314.73,418.68,314.2Z"/><path d="M420,313.21a2.41,2.41,0,1,1,2.41,2.32A2.3,2.3,0,0,1,420,313.21Zm4.17,0a1.76,1.76,0,1,0-1.76,1.74A1.7,1.7,0,0,0,424.13,313.21Z"/><path d="M425.76,311h1.91a2.27,2.27,0,1,1,0,4.53h-1.91Zm1.87,4a1.7,1.7,0,1,0,0-3.4H426.4v3.4Z"/><path d="M432.64,313.91v1.57H432V313.9L430.2,311h.69l1.45,2.38,1.45-2.38h.64Z"/><path d="M437.74,312.93v.56l-2.9,1.15v-.54l2.3-.89-2.3-.88v-.54Z"/><path class="cls-5" d="M586.05,191.13c0,.21-44.76.37-100,.37s-100-.16-100-.37,44.75-.36,100-.36S586.05,190.93,586.05,191.13Z"/><path class="cls-5" d="M392.11,184a1.29,1.29,0,1,1-1.29-1.29A1.28,1.28,0,0,1,392.11,184Z"/><circle class="cls-5" cx="395.76" cy="184" r="1.29"/><path class="cls-5" d="M402,184a1.29,1.29,0,1,1-1.29-1.29A1.28,1.28,0,0,1,402,184Z"/><path class="cls-2" d="M398.81,342.35c-.2,0-.36-33.93-.36-75.78s.16-75.79.36-75.79.37,33.92.37,75.79S399,342.35,398.81,342.35Z"/><rect class="cls-7" x="568.17" y="269.16" width="74.71" height="53.25"/><path class="cls-1" d="M593.37,293.88v10.57h-2.45v-4.33h-4.8v4.33h-2.45V293.88h2.45v4.17h4.8v-4.17Z"/><path class="cls-1" d="M598.06,295.88h-3.38v-2h9.21v2h-3.38v8.57h-2.45Z"/><path class="cls-1" d="M605.2,293.88h2.45v8.58H613v2H605.2Z"/><path class="cls-1" d="M623.94,304.45v-6.34l-3.11,5.23h-1.11l-3.09-5.09v6.2h-2.3V293.88h2l3.95,6.57,3.9-6.57h2l0,10.57Z"/><path class="cls-1" d="M643.46,277.06c0,.13-16.86.23-37.66.23s-37.66-.1-37.66-.23,16.86-.24,37.66-.24S643.46,276.93,643.46,277.06Z"/><path class="cls-1" d="M574.27,273.17a1,1,0,0,1-2,0,1,1,0,0,1,2,0Z"/><path class="cls-1" d="M577.93,273.17a1,1,0,1,1-1-.88A1,1,0,0,1,577.93,273.17Z"/><path class="cls-1" d="M581.6,273.17a1,1,0,0,1-2,0,1,1,0,0,1,2,0Z"/><rect class="cls-7" x="79.17" y="268.39" width="55.07" height="39.26"/><path class="cls-1" d="M134.67,274.22c0,.09-12.43.17-27.76.17s-27.76-.08-27.76-.17,12.43-.18,27.76-.18S134.67,274.12,134.67,274.22Z"/><path class="cls-1" d="M83.67,271.35a.75.75,0,1,1-.74-.65A.7.7,0,0,1,83.67,271.35Z"/><path class="cls-1" d="M86.37,271.35a.75.75,0,1,1-.74-.65A.7.7,0,0,1,86.37,271.35Z"/><path class="cls-1" d="M89.07,271.35a.75.75,0,1,1-.74-.65A.7.7,0,0,1,89.07,271.35Z"/><path class="cls-9" d="M492.31,117.11A10.3,10.3,0,0,1,503,106.65a9.85,9.85,0,0,1,7.34,2.85l-.94,1a8.64,8.64,0,0,0-6.34-2.45,9.08,9.08,0,1,0,0,18.16,8.67,8.67,0,0,0,6.34-2.48l.94,1a9.84,9.84,0,0,1-7.34,2.89A10.3,10.3,0,0,1,492.31,117.11Z"/><path class="cls-9" d="M513.18,124.77l.68-1.12a9.78,9.78,0,0,0,6.81,2.6c4.12,0,6-1.8,6-4,0-6.19-12.88-2.48-12.88-10.08,0-2.92,2.24-5.48,7.31-5.48a11.06,11.06,0,0,1,6.22,1.85l-.56,1.21a10.19,10.19,0,0,0-5.66-1.74c-4,0-5.81,1.86-5.81,4.13,0,6.19,12.88,2.53,12.88,10,0,2.92-2.32,5.45-7.42,5.45C517.63,127.57,514.68,126.42,513.18,124.77Z"/><path class="cls-9" d="M531.13,124.77l.68-1.12a9.76,9.76,0,0,0,6.8,2.6c4.13,0,6-1.8,6-4,0-6.19-12.88-2.48-12.88-10.08,0-2.92,2.24-5.48,7.31-5.48a11.06,11.06,0,0,1,6.22,1.85l-.56,1.21A10.19,10.19,0,0,0,539,108c-4,0-5.81,1.86-5.81,4.13,0,6.19,12.88,2.53,12.88,10,0,2.92-2.33,5.45-7.43,5.45C535.58,127.57,532.63,126.42,531.13,124.77Z"/><path class="cls-9" d="M563.64,143.93s0-.38,0-1.09,0-1.78,0-3.14c0-2.77,0-6.79-.07-11.94,0-10.31-.09-25.11-.15-43.18l.29.29-91.9.07h0l.36-.36c0,21.08,0,41.15,0,59.35l-.33-.33,66.1.16,19,.09,5.06,0,1.31,0,.46,0a1.91,1.91,0,0,1-.42,0l-1.28,0-5,0-18.89.09-66.32.17h-.34v-.34c0-18.2,0-38.27,0-59.35v-.36h.37l91.9.07h.28v.29c-.06,18.14-.11,33-.15,43.36,0,5.12,0,9.12-.07,11.87q0,2,0,3.09C563.66,143.59,563.64,143.93,563.64,143.93Z"/><path class="cls-9" d="M563.64,93.39c0,.2-20.59.36-46,.36s-46-.16-46-.36,20.58-.37,46-.37S563.64,93.19,563.64,93.39Z"/><path class="cls-9" d="M478.53,89.06a1.13,1.13,0,1,1-1.12-1A1.06,1.06,0,0,1,478.53,89.06Z"/><path class="cls-9" d="M482.62,89.06a1.13,1.13,0,1,1-1.12-1A1.06,1.06,0,0,1,482.62,89.06Z"/><path class="cls-9" d="M486.7,89.06a1.13,1.13,0,1,1-1.12-1A1.06,1.06,0,0,1,486.7,89.06Z"/><path class="cls-10" d="M213.21,346.76l36.44,123A12.85,12.85,0,0,0,262,479l147.83.41A13.67,13.67,0,0,0,423.5,465h0A13.67,13.67,0,0,0,409.85,452H353.31L308,325.89H228.8A16.25,16.25,0,0,0,213.21,346.76Z"/><path class="cls-5" d="M338.28,462.14c0,.28-15.07.52-33.66.52s-33.66-.24-33.66-.52,15.07-.52,33.66-.52S338.28,461.85,338.28,462.14Z"/><path class="cls-5" d="M224.08,329.8c.28-.09,10.34,29.35,22.48,65.76s21.77,66,21.5,66.1-10.34-29.35-22.48-65.77S223.81,329.89,224.08,329.8Z"/><polygon class="cls-10" points="332.14 588.24 323.13 588.03 323.13 478.96 332.14 478.96 332.14 588.24"/><polygon class="cls-10" points="285.7 587.74 369.56 587.74 331.57 574.54 322.56 574.54 285.7 587.74"/><path class="cls-9" d="M264.49,297.69,278.36,367l-2.47,52,93.27-15.51L365.5,358l-.07-37.64,22.88,44.32,17.8-34.4-32.6-59.06h0a54.9,54.9,0,0,0-21.33-13.81,44.24,44.24,0,0,0-13.37-2.57h0a53.51,53.51,0,0,1-32.29,0c-1.31.17-3.13.34-5.42.61l-.42.05a41.23,41.23,0,0,0-36,38.78Z"/><path class="cls-9" d="M301.09,255.44s-38.32.29-43.07,40.77l-.65,29.68,33-.29Z"/><path class="cls-11" d="M392.65,307.51c0,.29-30.16.52-67.35.52s-67.36-.23-67.36-.52,30.15-.52,67.36-.52S392.65,307.22,392.65,307.51Z"/><path class="cls-11" d="M392.65,313.93c0,.29-30.16.52-67.35.52s-67.36-.23-67.36-.52,30.15-.52,67.36-.52S392.65,313.64,392.65,313.93Z"/><path class="cls-11" d="M390.49,302.19c0,.29-29.67.52-66.27.52s-66.28-.23-66.28-.52,29.67-.52,66.28-.52S390.49,301.91,390.49,302.19Z"/><path class="cls-5" d="M364.93,364.64c-.28,0-.16-16.41.29-36.64s1-36.62,1.33-36.61.16,16.4-.29,36.64S365.22,364.65,364.93,364.64Z"/><path class="cls-12" d="M351.83,338s18.13,1.3,21.39,6.09,8.24,18.46,6.36,18.56a5.17,5.17,0,0,1-3.26-1l-5-8.81s.8,8.51-2.17,8.68-17.69,3.11-17.69,3.11Z"/><path class="cls-9" d="M257.39,318l-.07,46.74a17.75,17.75,0,0,0,21.51,16.38l73.09-15.06-.15-30L288.7,348.19l-.84-31.73Z"/><path class="cls-5" d="M299.09,377.37a4.93,4.93,0,0,1,1-.27l2.84-.64,10.74-2.27,38.05-7.78-.38.46c0-9.41,0-19.81-.05-30.79l.61.51L339,339.06l-50.23,9.56-.54.11,0-.55c.47-13.91.87-25.5,1.15-33.7.17-4,.3-7.16.4-9.42.05-1,.1-1.84.13-2.47a3.37,3.37,0,0,1,.1-.85,5.37,5.37,0,0,1,0,.86v2.48c0,2.26-.09,5.42-.15,9.42-.19,8.2-.46,19.79-.79,33.69l-.52-.44,50.2-9.71,12.85-2.46.61-.12v.62c0,11,0,21.38,0,30.79v.38l-.37.07-38.12,7.41-10.8,2-2.86.5A4.93,4.93,0,0,1,299.09,377.37Z"/><path class="cls-5" d="M341,255.44a2.46,2.46,0,0,1,.3.69,13.37,13.37,0,0,1,.56,2.06,16.89,16.89,0,0,1-.34,7.87,20.75,20.75,0,0,1-6.34,9.79,19.7,19.7,0,0,1-13.31,5,18,18,0,0,1-13.15-5.34,18.55,18.55,0,0,1-4.9-10.58,16.79,16.79,0,0,1,.92-7.82,11.6,11.6,0,0,1,.94-1.93c.25-.42.4-.63.43-.61s-.44.93-1,2.67a17.47,17.47,0,0,0-.58,7.6,18.1,18.1,0,0,0,4.86,10,17.24,17.24,0,0,0,12.46,5,19,19,0,0,0,12.67-4.7,20.35,20.35,0,0,0,6.27-9.28,17.72,17.72,0,0,0,.65-7.59C341.24,256.45,340.91,255.47,341,255.44Z"/><path class="cls-11" d="M344.54,368.53c-.14,0-.09-1.77,0-4.61s.24-6.75.27-11.08-.06-8.24-.14-11.08-.11-4.6,0-4.61.43,1.73.7,4.57.47,6.77.44,11.13-.28,8.29-.58,11.12S344.68,368.55,344.54,368.53Z"/><path class="cls-11" d="M340.77,369.3c-.15,0-.16-1.76-.13-4.58,0-3.22.07-6.93.12-11s0-7.79,0-11c0-2.82,0-4.57.18-4.57s.36,1.73.55,4.55.34,6.73.32,11-.2,8.22-.42,11S340.91,369.31,340.77,369.3Z"/><path class="cls-9" d="M414,555l13.81,38L447.39,620a4.15,4.15,0,0,1-1.15,5.95h0a4.12,4.12,0,0,1-3.78.32c-7.91-3.28-36.93-15.49-37.78-18.33-1-3.29-19.73-44.2-19.73-44.2Z"/><g class="cls-13"><path class="cls-1" d="M446.24,625.93l-42.55-20.55.62,1.59a6.27,6.27,0,0,0,2.85,3.24c3.49,1.88,13.24,6.87,35.18,16.09a4.19,4.19,0,0,0,3.9-.37Z"/></g><g class="cls-13"><path class="cls-1" d="M406.69,590.2a2.5,2.5,0,0,1,1.83,2.8,2.42,2.42,0,0,1-2.76,1.84,2.64,2.64,0,0,1-1.92-3c.37-1.18,2-2.14,3.08-1.6"/></g><path class="cls-5" d="M431.2,612.8c.26,0,.34-2.28,2.17-4.22s4.06-2.27,4-2.52c0-.1-.6-.21-1.53,0a6.58,6.58,0,0,0-4.78,5.21C430.94,612.23,431.1,612.81,431.2,612.8Z"/><path class="cls-5" d="M435.85,616.81c.25.09,1-1.61,2.71-2.92s3.53-1.65,3.5-1.91-2.09-.33-4,1.2S435.62,616.78,435.85,616.81Z"/><path class="cls-5" d="M423.68,608.28c.25.11,1.36-2.51,3.88-4.8s5.18-3.22,5.09-3.48-3,.34-5.69,2.83S423.46,608.24,423.68,608.28Z"/><path class="cls-5" d="M418.52,597.06c.18.19,1.93-1.49,4.6-2.65s5.08-1.34,5.07-1.6-2.57-.48-5.42.79S418.33,596.93,418.52,597.06Z"/><path class="cls-5" d="M414.18,586c.2.17,1.81-1.9,4.72-2.89s5.44-.43,5.49-.69c0-.1-.56-.41-1.63-.58a9,9,0,0,0-7.67,2.69C414.36,585.32,414.09,585.94,414.18,586Z"/><path class="cls-5" d="M418,581a3.41,3.41,0,0,0-.5-1.45,10.64,10.64,0,0,0-2.59-3.29,4.73,4.73,0,0,0-2.7-1.37,1.7,1.7,0,0,0-1.62,1,2.75,2.75,0,0,0,.07,1.94,5.86,5.86,0,0,0,6.75,3.19,6.82,6.82,0,0,0,4.94-5.74,2.38,2.38,0,0,0-.61-1.87,1.63,1.63,0,0,0-1.91-.18,5.81,5.81,0,0,0-2,2.25,11.85,11.85,0,0,0-1.43,3.94,3.62,3.62,0,0,0-.08,1.53,19,19,0,0,1,2-5.14,5.47,5.47,0,0,1,1.77-1.93.88.88,0,0,1,1,.1,1.59,1.59,0,0,1,.33,1.25,6.08,6.08,0,0,1-4.33,4.93,5.1,5.1,0,0,1-5.78-2.63,2,2,0,0,1-.1-1.35.9.9,0,0,1,.88-.58,4.28,4.28,0,0,1,2.31,1.11A15.64,15.64,0,0,1,418,581Z"/><path class="cls-9" d="M472.29,545,471.1,576s31,11.6,31.36,17.33l-60-.16-.12-48.25Z"/><g class="cls-13"><path class="cls-1" d="M452.54,573.31a2.45,2.45,0,0,0-1.7,2.79,2.34,2.34,0,0,0,2.75,1.71,2.59,2.59,0,0,0,1.79-3c-.4-1.14-2-2-3.06-1.47"/></g><g class="cls-13"><path class="cls-1" d="M442.43,593.13l0-4.81,57.69,1.92s2.66,1.17,2.36,3Z"/></g><path class="cls-5" d="M472.07,575.66c0,.29-1.48.42-2.92,1.36s-2.22,2.17-2.49,2.05.17-1.81,1.94-2.92S472.13,575.39,472.07,575.66Z"/><path class="cls-5" d="M478.36,578.28c.07.28-1.21.78-2.2,2s-1.29,2.55-1.59,2.54-.47-1.67.8-3.19S478.35,578,478.36,578.28Z"/><path class="cls-5" d="M481.91,585.82c-.26.07-.67-1.4.09-3s2.13-2.24,2.25-2-.72,1.1-1.32,2.43S482.21,585.8,481.91,585.82Z"/><path class="cls-5" d="M471.56,568.58c-.12.27-1.47-.14-3.12,0s-2.95.62-3.11.37,1.1-1.29,3.05-1.39S471.7,568.35,471.56,568.58Z"/><g class="cls-3"><polygon points="472.05 551.16 471.84 556.67 442.34 556.33 442.31 551.36 472.05 551.16"/></g><path class="cls-5" d="M471.69,562.34c0,.12-1.16.3-3,0a13.2,13.2,0,0,1-3.14-1,15.32,15.32,0,0,1-1.73-.92,3.81,3.81,0,0,1-.9-.71,1.27,1.27,0,0,1-.13-1.56,1.61,1.61,0,0,1,1.28-.67,4.1,4.1,0,0,1,1.13.16,11.42,11.42,0,0,1,1.87.65,10.49,10.49,0,0,1,2.76,1.82c1.39,1.3,1.87,2.39,1.77,2.45s-.81-.82-2.23-1.89a12,12,0,0,0-2.67-1.52,12.5,12.5,0,0,0-1.73-.54c-.63-.16-1.18-.17-1.34.11-.06.11-.07.15.07.34a3,3,0,0,0,.66.52,15.3,15.3,0,0,0,1.59.91,16.38,16.38,0,0,0,2.9,1.12A21.62,21.62,0,0,1,471.69,562.34Z"/><path class="cls-5" d="M471.3,562.76c-.1,0-.68-1-.78-2.91a9.61,9.61,0,0,1,.42-3.29,9.44,9.44,0,0,1,.77-1.82,2.47,2.47,0,0,1,1.92-1.52,1.4,1.4,0,0,1,1.25.85,3.91,3.91,0,0,1,.31,1.1,6.83,6.83,0,0,1,0,2,7,7,0,0,1-1.3,3.11c-1.17,1.55-2.4,1.9-2.42,1.8s.92-.71,1.82-2.21a6.67,6.67,0,0,0,1-2.82,6,6,0,0,0-.05-1.74c-.09-.63-.33-1.15-.57-1.09s-.8.48-1.05,1a9.41,9.41,0,0,0-.75,1.62,10.71,10.71,0,0,0-.59,3C471.15,561.61,471.46,562.71,471.3,562.76Z"/><path class="cls-5" d="M442.37,396.82c-35.46,3.67-82.48,8.49-82.48,8.49L366.3,463s69.08-18.26,68.58-16.78,3.2,122.83,3.2,122.83h41.6l.78-137.42A34.55,34.55,0,0,0,442.37,396.82Z"/><path class="cls-5" d="M275,420.11V438c0,12.19,13.88,25.11,26.06,25.11h9.42c7.43,0,19.06-5.41,25.05-9.79l3.61-2.63,43.31,134.18S432,576,432,574.44,398.48,464.53,383,414.25c-6.32-20.53-28.32-32.47-48.64-25.5-.69.24-1.39.5-2.08.77C310.06,398.4,275,420.11,275,420.11Z"/><path class="cls-14" d="M432,574.44a2.16,2.16,0,0,1-.22-.48c-.15-.38-.32-.85-.55-1.44-.47-1.26-1.15-3.13-2-5.57-1.67-4.85-3.94-11.91-6.71-20.65-5.53-17.49-12.93-41.71-21-68.49-4-13.41-7.83-26.17-11.3-37.79l-4.91-16.5q-1.15-3.87-2.23-7.47a65.89,65.89,0,0,0-2.25-6.79,27.89,27.89,0,0,0-7-9.91,58.78,58.78,0,0,0-7.33-5.71c-2.12-1.42-3.81-2.47-5-3.17l-1.31-.81c-.29-.19-.43-.29-.42-.31a1.83,1.83,0,0,1,.48.22l1.35.72c1.19.64,2.92,1.63,5.09,3a56.39,56.39,0,0,1,7.5,5.61A28.21,28.21,0,0,1,381.59,409a66.85,66.85,0,0,1,2.34,6.84q1.11,3.6,2.29,7.46c1.56,5.16,3.24,10.68,5,16.47,3.51,11.62,7.35,24.37,11.39,37.76,8.07,26.75,15.38,51,20.7,68.58,2.68,8.7,4.86,15.77,6.39,20.75.76,2.38,1.35,4.26,1.78,5.62.18.6.33,1.08.45,1.47A1.7,1.7,0,0,1,432,574.44Z"/><path class="cls-14" d="M442.49,429c.26.18-2.1,3.72-4.07,8.53s-2.85,9-3.16,8.91.13-4.38,2.2-9.31S442.29,428.78,442.49,429Z"/><path class="cls-14" d="M450.44,434.53c.12.29-3.46,1.86-7.18,4.81s-6.12,6-6.37,5.83,1.84-3.62,5.73-6.65S450.37,434.28,450.44,434.53Z"/><path class="cls-14" d="M382.94,584.88c-.27.09-12-35.82-26.13-80.19s-25.41-80.43-25.14-80.52,12,35.82,26.13,80.2S383.22,584.8,382.94,584.88Z"/><polygon class="cls-14" points="329.79 375.56 471.56 376.92 498 302.19 394.88 302.89 370.95 370.09 329.79 370.7 329.79 375.56"/><path class="cls-7" d="M437.28,346a5.74,5.74,0,1,1,6.49-4.88A5.73,5.73,0,0,1,437.28,346Z"/><path class="cls-15" d="M318.22,173.29c1.34-5,5.08-7.42,9.95-9.08a16.07,16.07,0,0,1,14.65,2.37c2.74,2.09,4.88,5.12,8.14,6.25,5.35,1.86,11.63-2.15,16.76.26A7.31,7.31,0,0,1,364.26,187c3.5,1.27,4.58,6.26,2.54,9.37s-6.23,4.29-9.89,3.6-6.85-2.9-9.62-5.39-5.24-5.3-8.2-7.56-6.55-4-10.26-3.77c-5,.28-9.35,4.07-11.59,8.58s-2.76,9.66-3,14.69-.37,10.15-1.86,15c-.17.56-.44,1.2-1,1.37-.81.25-1.51-.61-1.91-1.37A73.89,73.89,0,0,1,301,194c-.57-5.57-.42-10.85,2.64-15.54s10.81-8.14,14.61-5.18"/><path class="cls-12" d="M308.49,196.63l-2.57,56.43c-.44,9.6.88,23.78,16.08,23.78h0c13.2-1,17.09-13.32,17.49-22.27.19-4.25.36-7.79.41-8.23,0,0,14.43-.7,16.11-14.87.82-6.85,1.34-21.09,1.67-34a26.57,26.57,0,0,0-23.77-27.09l-1.36-.15C317.69,169.54,308.79,181.76,308.49,196.63Z"/><path class="cls-16" d="M339.94,246.14A33.24,33.24,0,0,1,322,238.91s3.29,10.68,17.58,10.91Z"/><path class="cls-5" d="M352.54,206.56a2,2,0,0,1-2.17,1.83,2,2,0,0,1-1.9-2,2,2,0,0,1,2.17-1.83A1.94,1.94,0,0,1,352.54,206.56Z"/><path class="cls-5" d="M353.89,204.13c-.27.24-1.69-1.06-3.87-1.29s-3.9.7-4.1.41c-.11-.13.2-.58.95-1a5.61,5.61,0,0,1,3.32-.65,5.42,5.42,0,0,1,3.05,1.36C353.85,203.52,354,204,353.89,204.13Z"/><path class="cls-5" d="M331.07,205a2,2,0,0,1-2.17,1.84,2,2,0,0,1-1.89-2.05,2,2,0,0,1,2.17-1.84A2,2,0,0,1,331.07,205Z"/><path class="cls-5" d="M332.42,202.26c-.28.23-1.7-1.06-3.88-1.29s-3.89.69-4.1.4c-.11-.13.2-.58.95-1a5.61,5.61,0,0,1,3.32-.65,5.35,5.35,0,0,1,3.05,1.35C332.37,201.65,332.55,202.15,332.42,202.26Z"/><path class="cls-5" d="M338.61,219.27a15,15,0,0,1,3.61-.26c.56,0,1.1,0,1.24-.42a2.89,2.89,0,0,0-.2-1.69c-.38-1.41-.78-2.88-1.2-4.42-1.64-6.28-2.77-11.42-2.51-11.48s1.79,5,3.43,11.25c.39,1.55.77,3,1.13,4.43a3.29,3.29,0,0,1,.05,2.22,1.4,1.4,0,0,1-1,.72,4,4,0,0,1-1,0A14.06,14.06,0,0,1,338.61,219.27Z"/><path class="cls-5" d="M332,220.1c.36,0,.11,2.38,2,4.28s4.39,1.9,4.38,2.23c0,.16-.62.4-1.68.32A5.94,5.94,0,0,1,333,225.2a5.19,5.19,0,0,1-1.49-3.58C331.54,220.62,331.87,220.07,332,220.1Z"/><path class="cls-5" d="M333.89,193.77c-.28.57-2.43.06-5,.1s-4.73.51-5-.06c-.13-.27.29-.79,1.19-1.27a8.69,8.69,0,0,1,7.64,0C333.59,193,334,193.5,333.89,193.77Z"/><path class="cls-5" d="M353.76,197.74c-.43.45-1.88-.22-3.68-.44s-3.37,0-3.67-.58c-.13-.27.16-.74.88-1.13a5.12,5.12,0,0,1,3.09-.5,5.2,5.2,0,0,1,2.84,1.31C353.8,197,354,197.51,353.76,197.74Z"/><path class="cls-12" d="M308.53,207.26c-.23-.13-9.44-3.92-10.16,5.81s9.2,8.45,9.23,8.18S308.53,207.26,308.53,207.26Z"/><path class="cls-16" d="M304.9,217.34s-.17.1-.47.21a1.72,1.72,0,0,1-1.27-.06c-1-.46-1.74-2.15-1.66-3.91a5.73,5.73,0,0,1,.65-2.4,2,2,0,0,1,1.38-1.2.86.86,0,0,1,1,.54c.11.28,0,.47.09.49s.22-.15.17-.56a1.07,1.07,0,0,0-.34-.63,1.29,1.29,0,0,0-.92-.32,2.36,2.36,0,0,0-1.88,1.38,5.62,5.62,0,0,0-.79,2.67c-.08,2,.78,3.87,2.16,4.38a1.81,1.81,0,0,0,1.57-.14C304.87,217.57,304.94,217.36,304.9,217.34Z"/><path class="cls-15" d="M361,194.87a20.63,20.63,0,0,1-17.77-6c-3.14-3.3-5.35-7.79-9.54-9.58a11.57,11.57,0,0,0-8.94.27,22.42,22.42,0,0,0-7.33,5.43c2,7.5-.73,15.35-3.39,22.64a3.92,3.92,0,0,1-1.37,2.12c-1.24.76-2.89-.11-3.78-1.27-1.42-1.84-1.79-4.28-1.95-6.6a40.21,40.21,0,0,1,1.76-15.73,27.37,27.37,0,0,1,8.93-12.92,25.91,25.91,0,0,1,18.78-4.9A31.78,31.78,0,0,1,354,176.8a18.56,18.56,0,0,1,5.23,7.5"/><path class="cls-7" d="M88.29,494.78c5-2.56,10.83-2.9,16.35-2,3,.49,6.06,1.38,8.08,3.61s2.4,6.15.08,8.06c-1.38,1.14-3.3,1.31-5.09,1.29-4.32-.05-9.12-.81-12.57,1.79-2,1.48-3.28,3.95-5.64,4.68a5.57,5.57,0,0,1-6.12-2.73,9.51,9.51,0,0,1-.69-7A10.72,10.72,0,0,1,88.29,494.78Z"/><path class="cls-7" d="M76.9,472.79c3,4.34,8.95,2.91,11.69.26s3.9-6.5,5-10.16c2.41-8.37,4.84-17.15,3-25.67a14.31,14.31,0,0,0-3.28-7,7.44,7.44,0,0,0-7.06-2.35c-3,.78-4.83,3.7-6.17,6.48a61.23,61.23,0,0,0-6,26.26c0,4.23.49,8.67,2.87,12.16"/><path class="cls-7" d="M68.55,479c3.3-3.92,3.93-9.63,2.46-14.54S66.23,455.4,62.4,452A46.19,46.19,0,0,0,47,442.89,16.58,16.58,0,0,0,40,441.71a7.31,7.31,0,0,0-5.82,3.52c-1.62,3.1-.06,6.85,1.62,9.92A118.42,118.42,0,0,0,46,470.57c3,3.91,6.51,7.78,11.14,9.54s9.43,1.56,11.88-1.64"/><path class="cls-5" d="M76.7,538.29a9.72,9.72,0,0,0,.27-2c.14-1.44.32-3.24.53-5.38a76.94,76.94,0,0,1,1.21-7.9,60.35,60.35,0,0,1,2.87-9.33,34.25,34.25,0,0,1,4.76-8.43,17.69,17.69,0,0,1,6-5,16.71,16.71,0,0,1,5.06-1.58,9,9,0,0,0,2-.29,10.32,10.32,0,0,0-2,0,15.35,15.35,0,0,0-5.28,1.38,17.66,17.66,0,0,0-6.35,5.05,33.28,33.28,0,0,0-4.94,8.6A57.47,57.47,0,0,0,78,522.88a66.7,66.7,0,0,0-1,8c-.17,2.29-.23,4.14-.26,5.42A8.8,8.8,0,0,0,76.7,538.29Z"/><path class="cls-5" d="M77.07,534.15a4.13,4.13,0,0,0,.05-.92c0-.68,0-1.55,0-2.61,0-2.28,0-5.56.12-9.62.2-8.12.9-16.86,2.25-29.19,1.28-11.58,3-25.06,4.81-33.83.39-2,.78-3.79,1.15-5.36s.65-2.93.94-4,.45-1.88.61-2.54a3.82,3.82,0,0,0,.16-.91,3.49,3.49,0,0,0-.32.86l-.76,2.51c-.34,1.09-.68,2.44-1.08,4s-.84,3.36-1.27,5.35a296.47,296.47,0,0,0-5,31.4c-1.35,12.34-2,23.58-2,31.72,0,4.08,0,7.37.15,9.64.06,1.07.11,1.93.16,2.62A3.45,3.45,0,0,0,77.07,534.15Z"/><path class="cls-5" d="M77.12,512.47a16.48,16.48,0,0,0,0-2.74c-.1-1.76-.34-4.3-.83-7.41a99.25,99.25,0,0,0-2.41-10.79,89.35,89.35,0,0,0-4.52-12.78,67.92,67.92,0,0,0-13.26-20.64,33.24,33.24,0,0,0-3.11-2.9c-.48-.4-.91-.81-1.34-1.13l-1.21-.83a18.06,18.06,0,0,0-2.3-1.48c-.13.18,3.26,2.18,7.55,6.74a71.77,71.77,0,0,1,12.92,20.57,98.31,98.31,0,0,1,4.54,12.65c1.19,4,2,7.62,2.57,10.69s.89,5.6,1.09,7.34A19,19,0,0,0,77.12,512.47Z"/><polygon class="cls-17" points="56.16 550.72 58.34 580.48 96.58 580.48 98.75 550.72 56.16 550.72"/><rect class="cls-17" x="52.47" y="538.98" width="50.84" height="11.73"/><polygon class="cls-14" points="52.47 579.34 52.47 582.6 54.86 582.6 102.47 582.6 102.47 579.34 52.47 579.34"/><polygon class="cls-14" points="57.2 588.32 54.86 582.6 100.65 582.6 97.92 588.32 57.2 588.32"/><path class="cls-2" d="M98,560.44s-.05.1-.18.28l-.57.75-2.23,2.86-.1.12-.09-.13-5.48-7.57h.32l-5.39,7.63-.17.24-.19-.23-6.39-7.6h.37l-.35.44-5.71,7.16-.19.24-.18-.25-5.39-7.63.31,0c-2.65,3-4.91,5.59-6.64,7.56l-.11.14-.09-.15c-.88-1.47-1.58-2.65-2.08-3.5l-.54-.93a1.68,1.68,0,0,1-.16-.33,1.68,1.68,0,0,1,.22.3c.16.23.35.53.59.89l2.19,3.43-.21,0,6.53-7.65.17-.2.14.21c1.66,2.31,3.49,4.86,5.44,7.6h-.36l5.7-7.18.35-.44.18-.23.19.23,6.37,7.61-.36,0,5.44-7.59.16-.23.16.23,5.36,7.65h-.2l2.32-2.78.62-.71A1.72,1.72,0,0,1,98,560.44Z"/><path class="cls-14" d="M99.28,550.52c0,.13-9.58.24-21.4.24s-21.4-.11-21.4-.24,9.58-.24,21.4-.24S99.28,550.39,99.28,550.52Z"/><path class="cls-5" d="M101.21,582.92c0,.13-10.41.23-23.25.23s-23.26-.1-23.26-.23,10.41-.24,23.26-.24S101.21,582.78,101.21,582.92Z"/><polygon class="cls-17" points="553.27 240.23 526.71 351.34 534.14 351.34 560.31 240.23 553.27 240.23"/><path class="cls-17" d="M543.07,313.41c-.48,2,12,62.6,12,62.6h-6l-9.45-48Z"/><rect class="cls-7" x="507.09" y="456.08" width="124.44" height="131.93"/><rect class="cls-5" x="631.54" y="475.36" width="6.11" height="6.11"/><rect class="cls-5" x="631.54" y="494.76" width="6.11" height="6.11"/><rect class="cls-5" x="631.54" y="514.16" width="6.11" height="6.11"/><rect class="cls-5" x="631.54" y="533.56" width="6.11" height="6.11"/><path class="cls-5" d="M637.87,515.94a10.16,10.16,0,0,1,1.88-.41A30.82,30.82,0,0,1,645,515a14.11,14.11,0,0,1,7.56,2,8.77,8.77,0,0,1,4.2,8.37,10.48,10.48,0,0,1-1.59,4.79,12.46,12.46,0,0,1-3.21,3.4,16.34,16.34,0,0,1-7.28,2.87,23.5,23.5,0,0,1-5.26.18,8.13,8.13,0,0,1-1.91-.26,11.51,11.51,0,0,1,1.92,0,28.47,28.47,0,0,0,5.16-.4,16.59,16.59,0,0,0,7-2.91,10.7,10.7,0,0,0,4.48-7.7,8.18,8.18,0,0,0-3.84-7.76,13.88,13.88,0,0,0-7.21-2,40.59,40.59,0,0,0-5.19.26A9.82,9.82,0,0,1,637.87,515.94Z"/><path class="cls-5" d="M636.35,496.66a2.22,2.22,0,0,1,.59-.35,11.06,11.06,0,0,1,1.81-.74,14.3,14.3,0,0,1,7.14-.39,6.35,6.35,0,0,1,2.28.9,4,4,0,0,1,1.61,2.17,6.3,6.3,0,0,1-1.4,5.57,6.15,6.15,0,0,1-2.57,1.89,4,4,0,0,1-3.37-.18,3.43,3.43,0,0,1-1.94-2.93,3.53,3.53,0,0,1,2-3,5.37,5.37,0,0,1,3.56-.37,7.21,7.21,0,0,1,3.1,1.48,8.35,8.35,0,0,1,3.1,5.54,7.8,7.8,0,0,1-1.59,5.53,11.38,11.38,0,0,1-3.82,3.23,18.29,18.29,0,0,1-6.94,1.8c-.84.07-1.5.09-1.94.1a2.15,2.15,0,0,1-.68,0c0-.05.93-.12,2.59-.34a19.32,19.32,0,0,0,6.72-2,10.86,10.86,0,0,0,3.59-3.13,7.28,7.28,0,0,0,1.41-5.09,7.77,7.77,0,0,0-2.88-5.07,6.71,6.71,0,0,0-2.81-1.33,4.78,4.78,0,0,0-3.08.31,2.83,2.83,0,0,0-1.59,2.38,2.77,2.77,0,0,0,1.55,2.31,3.31,3.31,0,0,0,2.8.15,5.57,5.57,0,0,0,2.3-1.67,5.67,5.67,0,0,0,1.33-5,4.2,4.2,0,0,0-3.42-2.74,14.61,14.61,0,0,0-7,.17C637.21,496.28,636.38,496.72,636.35,496.66Z"/><path class="cls-5" d="M636.42,477.72a3.61,3.61,0,0,1,1.35-.25,9.91,9.91,0,0,1,3.74.53,10.62,10.62,0,0,1,4.65,3.13,10.61,10.61,0,0,1,.39,13,10.65,10.65,0,0,1-4.45,3.41,9.78,9.78,0,0,1-3.69.75,3.71,3.71,0,0,1-1.37-.16A13.87,13.87,0,0,0,641.9,497,10.6,10.6,0,0,0,646,493.7a10.18,10.18,0,0,0-.38-12.14,10.48,10.48,0,0,0-4.31-3.08A14.21,14.21,0,0,0,636.42,477.72Z"/><path class="cls-5" d="M544.05,386a12.58,12.58,0,0,1,1,2.46,46,46,0,0,1,1.65,7.49c.52,3.3,1,7.35,1.39,12.06s.83,10.08,1.58,16c.2,1.47.43,3,.73,4.49a20.07,20.07,0,0,0,1.35,4.5,16.25,16.25,0,0,0,3.05,3.76,23.29,23.29,0,0,0,4,3.11,23.84,23.84,0,0,0,10,3.42,19.84,19.84,0,0,0,11-1.9,13.28,13.28,0,0,0,7.1-8.92,10.11,10.11,0,0,0-.42-5.93,10.43,10.43,0,0,0-3.86-4.67,11.72,11.72,0,0,0-5.89-2,9.33,9.33,0,0,0-6,1.75,6.6,6.6,0,0,0-2,2.38,4.87,4.87,0,0,0-.39,3.05,7.37,7.37,0,0,0,3.86,4.91,17.71,17.71,0,0,0,6.35,1.75,56.94,56.94,0,0,0,6.62.46,103,103,0,0,0,13-.73c8.49-.95,16.69-2.31,24.6-2.4s15.53,1,21.9,4.14a25.51,25.51,0,0,1,8.15,6.09,18.86,18.86,0,0,1,4.24,8.36,22.65,22.65,0,0,1-2.42,15.7,26.58,26.58,0,0,1-8.27,8.82,30.74,30.74,0,0,1-6.84,3.49,20.17,20.17,0,0,1-2.56.77s.21-.09.64-.23,1-.37,1.87-.68a32.31,32.31,0,0,0,6.72-3.58,26.39,26.39,0,0,0,8.08-8.79,22.2,22.2,0,0,0,2.27-15.39,18.26,18.26,0,0,0-4.15-8.1,25.09,25.09,0,0,0-8-5.92c-6.27-3-13.82-4.16-21.63-4s-16,1.47-24.53,2.44a106,106,0,0,1-13.08.75,58.34,58.34,0,0,1-6.7-.47,18.37,18.37,0,0,1-6.61-1.84,8.1,8.1,0,0,1-4.23-5.41,5.74,5.74,0,0,1,.45-3.49,7.26,7.26,0,0,1,2.24-2.64,10.08,10.08,0,0,1,6.43-1.9,12.37,12.37,0,0,1,6.25,2.09,11.22,11.22,0,0,1,4.12,5,10.92,10.92,0,0,1,.44,6.34,14,14,0,0,1-7.47,9.36,20.44,20.44,0,0,1-11.37,1.94,24.62,24.62,0,0,1-14.41-6.74,16.6,16.6,0,0,1-3.15-3.94,20.65,20.65,0,0,1-1.36-4.63c-.3-1.54-.53-3.05-.72-4.53-.72-5.92-1.07-11.3-1.48-16s-.78-8.77-1.25-12.06a51.27,51.27,0,0,0-1.52-7.49,17.76,17.76,0,0,0-.65-1.87C544.12,386.21,544.05,386,544.05,386Z"/><path class="cls-5" d="M624.46,582.49s0-.2,0-.59,0-.95,0-1.68c0-1.5,0-3.69,0-6.54,0-5.73,0-14.09-.09-24.71,0-21.24-.09-51.5-.16-87.71l.32.32L512,461.63h0l.36-.37c0,44.57,0,86.21-.05,121.23l-.31-.31,81.52.16,22.85.08,6,0c1.37,0,2.09,0,2.09,0l-2,0-6,0-22.78.08L512,582.8h-.31v-.31c0-35,0-76.66,0-121.23v-.36H512l112.49,0h.32v.32c-.07,36.29-.12,66.63-.16,87.91,0,10.59-.07,18.93-.09,24.64,0,2.82,0,5,0,6.48,0,.71,0,1.26,0,1.65S624.46,582.49,624.46,582.49Z"/><path class="cls-5" d="M592.78,476.17a.58.58,0,1,1-.58-.58A.58.58,0,0,1,592.78,476.17Z"/><path class="cls-5" d="M596,476.17a.58.58,0,1,1-.58-.58A.58.58,0,0,1,596,476.17Z"/><path class="cls-5" d="M599.14,476.17a.58.58,0,1,1-.58-.58A.58.58,0,0,1,599.14,476.17Z"/><path class="cls-5" d="M602.31,476.17a.57.57,0,0,1-.57.58.58.58,0,0,1,0-1.16A.57.57,0,0,1,602.31,476.17Z"/><path class="cls-5" d="M605.49,476.17a.58.58,0,0,1-.58.58.58.58,0,0,1,0-1.16A.58.58,0,0,1,605.49,476.17Z"/><path class="cls-5" d="M608.67,476.17a.58.58,0,1,1-.58-.58A.58.58,0,0,1,608.67,476.17Z"/><path class="cls-5" d="M611.85,476.17a.58.58,0,1,1-.58-.58A.58.58,0,0,1,611.85,476.17Z"/><circle class="cls-5" cx="609.81" cy="478.31" r="0.58"/><circle class="cls-5" cx="606.55" cy="478.31" r="0.58"/><path class="cls-5" d="M603.88,478.31a.58.58,0,1,1-.58-.58A.58.58,0,0,1,603.88,478.31Z"/><circle class="cls-5" cx="600.05" cy="478.31" r="0.58"/><circle class="cls-5" cx="596.8" cy="478.31" r="0.58"/><path class="cls-5" d="M594.12,478.31a.57.57,0,0,1-.57.58.58.58,0,1,1,0-1.16A.57.57,0,0,1,594.12,478.31Z"/><path class="cls-5" d="M592.78,480.73a.58.58,0,0,1-1.16,0,.58.58,0,0,1,1.16,0Z"/><path class="cls-5" d="M596,480.73a.58.58,0,0,1-1.16,0,.58.58,0,0,1,1.16,0Z"/><path class="cls-5" d="M599.14,480.73a.58.58,0,0,1-1.16,0,.58.58,0,1,1,1.16,0Z"/><path class="cls-5" d="M602.31,480.73a.56.56,0,0,1-.57.57.57.57,0,0,1-.58-.57.58.58,0,0,1,.58-.58A.57.57,0,0,1,602.31,480.73Z"/><path class="cls-5" d="M605.49,480.73a.57.57,0,0,1-.58.57.56.56,0,0,1-.57-.57.57.57,0,0,1,.57-.58A.58.58,0,0,1,605.49,480.73Z"/><path class="cls-5" d="M608.67,480.73a.58.58,0,0,1-1.16,0,.58.58,0,0,1,1.16,0Z"/><path class="cls-5" d="M611.85,480.73a.58.58,0,0,1-1.16,0,.58.58,0,1,1,1.16,0Z"/><path class="cls-5" d="M610.38,482.86a.57.57,0,0,1-.57.58.58.58,0,1,1,0-1.16A.57.57,0,0,1,610.38,482.86Z"/><path class="cls-5" d="M607.13,482.86a.58.58,0,0,1-.58.58.58.58,0,0,1,0-1.16A.58.58,0,0,1,607.13,482.86Z"/><path class="cls-5" d="M603.88,482.86a.58.58,0,1,1-.58-.58A.58.58,0,0,1,603.88,482.86Z"/><path class="cls-5" d="M600.63,482.86a.58.58,0,1,1-.58-.58A.58.58,0,0,1,600.63,482.86Z"/><path class="cls-5" d="M597.38,482.86a.58.58,0,1,1-.58-.58A.58.58,0,0,1,597.38,482.86Z"/><path class="cls-5" d="M594.12,482.86a.57.57,0,0,1-.57.58.58.58,0,1,1,0-1.16A.57.57,0,0,1,594.12,482.86Z"/><path class="cls-5" d="M592.78,485.28a.58.58,0,1,1-.58-.58A.58.58,0,0,1,592.78,485.28Z"/><path class="cls-5" d="M596,485.28a.58.58,0,1,1-.58-.58A.58.58,0,0,1,596,485.28Z"/><path class="cls-5" d="M599.14,485.28a.58.58,0,1,1-.58-.58A.58.58,0,0,1,599.14,485.28Z"/><path class="cls-5" d="M602.31,485.28a.57.57,0,0,1-.57.58.58.58,0,1,1,0-1.16A.57.57,0,0,1,602.31,485.28Z"/><path class="cls-5" d="M605.49,485.28a.58.58,0,0,1-.58.58.58.58,0,0,1,0-1.16A.58.58,0,0,1,605.49,485.28Z"/><path class="cls-5" d="M608.67,485.28a.58.58,0,1,1-.58-.58A.58.58,0,0,1,608.67,485.28Z"/><path class="cls-5" d="M611.85,485.28a.58.58,0,1,1-.58-.58A.58.58,0,0,1,611.85,485.28Z"/><circle class="cls-5" cx="609.81" cy="487.41" r="0.58"/><circle class="cls-5" cx="606.55" cy="487.41" r="0.58"/><path class="cls-5" d="M603.88,487.41a.58.58,0,1,1-.58-.57A.58.58,0,0,1,603.88,487.41Z"/><circle class="cls-5" cx="600.05" cy="487.41" r="0.58"/><circle class="cls-5" cx="596.8" cy="487.41" r="0.58"/><path class="cls-5" d="M594.12,487.41a.57.57,0,0,1-.57.58.58.58,0,1,1,0-1.15A.57.57,0,0,1,594.12,487.41Z"/><path class="cls-2" d="M548.79,345.85a7.08,7.08,0,0,1,2.27.4,12.65,12.65,0,0,1,5.5,3.59,23.91,23.91,0,0,1,4.86,9.2,90.82,90.82,0,0,1,3.06,13.48c1.55,10.15,1.78,22.4.89,35.92a21.06,21.06,0,0,1-3.13,10,12.52,12.52,0,0,1-3.93,3.8,8.81,8.81,0,0,1-5.44,1.3,8.46,8.46,0,0,1-5.17-2.41,6.29,6.29,0,0,1-1.52-2.53,5.37,5.37,0,0,1,0-3,6.39,6.39,0,0,1,3.89-4.39,4.65,4.65,0,0,1,3.08,0,5.54,5.54,0,0,1,2.46,1.86,7.59,7.59,0,0,1,1.35,5.78,15.77,15.77,0,0,1-2,5.49,21.27,21.27,0,0,1-28.59,8.29,24.2,24.2,0,0,1-7.53-6.49,31.47,31.47,0,0,1-4.57-8.18,53.68,53.68,0,0,1-3.06-16.47c-.27-5.12,0-9.76-.5-13.77a22.8,22.8,0,0,0-1.29-5.45,15.52,15.52,0,0,0-2.33-4.07,11.74,11.74,0,0,0-5.18-3.83,17.3,17.3,0,0,0-2.22-.53,7.12,7.12,0,0,1,2.27.4,11.49,11.49,0,0,1,5.35,3.79,15.52,15.52,0,0,1,2.43,4.12,23.35,23.35,0,0,1,1.38,5.52c.55,4.06.3,8.71.61,13.8a53.05,53.05,0,0,0,3.1,16.27,31.31,31.31,0,0,0,4.51,8,23.73,23.73,0,0,0,7.35,6.29,20.63,20.63,0,0,0,20-.31,20.92,20.92,0,0,0,7.68-7.75,15.42,15.42,0,0,0,1.92-5.23,6.86,6.86,0,0,0-1.22-5.24,4.83,4.83,0,0,0-2.13-1.62,3.9,3.9,0,0,0-2.59,0,5.7,5.7,0,0,0-3.44,3.88,5,5,0,0,0,1.39,4.85,7.68,7.68,0,0,0,4.72,2.2,8.15,8.15,0,0,0,5-1.19,12,12,0,0,0,3.72-3.59,20.49,20.49,0,0,0,3-9.64c.92-13.44.75-25.68-.73-35.77A90.88,90.88,0,0,0,561,359.17a23.72,23.72,0,0,0-4.68-9.14,12.77,12.77,0,0,0-5.34-3.64A14.47,14.47,0,0,0,548.79,345.85Z"/><rect class="cls-2" x="491.51" y="366.03" width="46.33" height="8.83"/><rect class="cls-17" x="142.98" y="457.29" width="60.43" height="130.09"/><path class="cls-14" d="M198.21,573.68s0-.2,0-.56,0-.93,0-1.62c0-1.44,0-3.53,0-6.22,0-5.44-.06-13.33-.1-23.24,0-19.83-.1-47.75-.16-80.24l.34.34-50.55,0h0l.36-.36c0,43.46-.07,82.92-.1,111.88l-.26-.26,36.91.14,10.09.06,2.64,0,.92,0s-.28,0-.86,0l-2.6,0-10,.07-37.07.14h-.27v-.26c0-29-.06-68.42-.1-111.88v-.37h.38l50.55,0h.35v.35c-.07,32.58-.13,60.58-.17,80.47,0,9.88-.07,17.74-.09,23.16,0,2.66,0,4.73-.05,6.15,0,.68,0,1.2,0,1.58A5,5,0,0,1,198.21,573.68Z"/><path class="cls-14" d="M195.09,471.26s0-.48-.07-1.35-.05-2.18-.09-3.77l.16.16c-7.82.12-24.58.2-44,.2h0l.36-.36h0v5.1l-.36-.36c12.3,0,23.23.09,31.14.16l9.35.11,2.56.05a9,9,0,0,1,.92,0,3.75,3.75,0,0,1-.83.05l-2.47.05-9.27.11c-7.89.07-19,.15-31.4.16h-.36v-5.47h0l.36-.36h0c19.39,0,36.15.08,44,.2h.16v.16c0,1.63-.07,2.91-.09,3.86A10,10,0,0,1,195.09,471.26Z"/><path class="cls-14" d="M155.55,475c0,.2-.91.36-2,.36s-2-.16-2-.36.91-.37,2-.37S155.55,474.75,155.55,475Z"/><path class="cls-14" d="M193.91,481.66c0,.2-9.35.36-20.89.36s-20.91-.16-20.91-.36,9.36-.36,20.91-.36S193.91,481.46,193.91,481.66Z"/><path class="cls-14" d="M194.09,489.77c0,.2-9.19.36-20.53.36S153,490,153,489.77s9.2-.36,20.55-.36S194.09,489.57,194.09,489.77Z"/><circle class="cls-7" cx="173.01" cy="508.71" r="3.33"/><path class="cls-14" d="M163.64,508.56c0,.2-2,.36-4.44.36s-4.45-.16-4.45-.36,2-.36,4.45-.36S163.64,508.36,163.64,508.56Z"/><path class="cls-14" d="M190.64,507.7c0,.2-1.9.37-4.23.37s-4.23-.17-4.23-.37,1.89-.36,4.23-.36S190.64,507.5,190.64,507.7Z"/><path class="cls-5" d="M145.05,522.57a11.81,11.81,0,0,1-2.26-.41,19.66,19.66,0,0,1-6-2.77,25.6,25.6,0,0,1-7.21-7.52,43.44,43.44,0,0,1-5.26-12.78,52.22,52.22,0,0,1-1.67-16.67,34.23,34.23,0,0,1,6.35-18,28.71,28.71,0,0,1,7.57-7.19,26.32,26.32,0,0,1,4.87-2.42,25.87,25.87,0,0,1,5.38-1.28c3.69-.52,7.46-.45,11.23-.67a27.87,27.87,0,0,0,11-2.54,12.4,12.4,0,0,0,6.85-8.42,11.77,11.77,0,0,0-11.74-14.37,8.43,8.43,0,0,0-4.66,1.73,5.06,5.06,0,0,0-2,4.21,6.76,6.76,0,0,0,6.22,6,10.26,10.26,0,0,0,8-3.58,19.24,19.24,0,0,0,3.86-7.58,67.58,67.58,0,0,0,1.61-7.82,129.49,129.49,0,0,0,.73-24.14c-.14-2.82-.25-5-.33-6.57,0-.73-.06-1.3-.08-1.72a4.26,4.26,0,0,1,0-.58,3.39,3.39,0,0,1,.07.58c0,.42.09,1,.16,1.71.12,1.5.29,3.71.47,6.57a124.58,124.58,0,0,1-.52,24.22,66.14,66.14,0,0,1-1.57,7.91,19.78,19.78,0,0,1-3.95,7.82,10.83,10.83,0,0,1-8.47,3.81,7.38,7.38,0,0,1-6.85-6.6,5.75,5.75,0,0,1,2.19-4.78,9.1,9.1,0,0,1,5-1.89A12.45,12.45,0,0,1,176.65,442a12,12,0,0,1-2.56,5.27,14.36,14.36,0,0,1-4.67,3.65,28.4,28.4,0,0,1-11.32,2.61c-3.81.22-7.56.15-11.17.65a26,26,0,0,0-5.24,1.24,25.39,25.39,0,0,0-4.73,2.34,28,28,0,0,0-7.41,7,33.62,33.62,0,0,0-6.29,17.69A51.92,51.92,0,0,0,124.83,499a43.62,43.62,0,0,0,5.1,12.69,25.71,25.71,0,0,0,7,7.51,20.53,20.53,0,0,0,5.87,2.86c.72.21,1.27.34,1.65.42A5.3,5.3,0,0,1,145.05,522.57Z"/><rect class="cls-5" x="124.46" y="255.5" width="143.1" height="98.27"/><rect class="cls-5" x="184.95" y="340.36" width="19.48" height="37.07"/><polygon class="cls-18" points="138.7 376.01 138.7 389.35 212.53 389.35 212.53 588.03 219.33 588.03 219.33 389.35 527.69 390.87 527.69 588.03 534.35 588.03 534.35 390.5 581.94 390.88 581.94 374.86 138.7 376.01"/><polygon class="cls-5" points="185.95 386.75 215.06 407.72 212.53 410.15 183.18 388.03 185.95 386.75"/><polygon class="cls-5" points="561.79 388.71 528.01 412.76 530.54 415.19 564.56 389.99 561.79 388.71"/><rect class="cls-5" x="246.07" y="371.1" width="76.31" height="5.62"/></g></svg>