<svg xmlns="http://www.w3.org/2000/svg" viewBox="0 0 700 640"><defs><style>.cls-1{fill:#f5f5f5;}.cls-2{fill:#e1e1e1;}.cls-3{fill:#e8e8e8;}.cls-4{fill:#376b67;}.cls-5{opacity:0.2;}.cls-23,.cls-24,.cls-6{fill:#fff;}.cls-7{fill:#37474f;}.cls-8{fill:#263238;}.cls-13,.cls-9{fill:#455a64;}.cls-10{opacity:0.15;}.cls-11{fill:#00dfdf;}.cls-12{fill:#f0f0f0;}.cls-13,.cls-19{opacity:0.8;}.cls-14{fill:#ececec;}.cls-15{fill:#1e5954;}.cls-16{fill:#054641;}.cls-17{fill:#043834;}.cls-18,.cls-19{fill:#fafafa;}.cls-20,.cls-21,.cls-23{opacity:0.3;}.cls-22{opacity:0.1;}.cls-24{opacity:0.4;}.cls-25{fill:#d15b66;}.cls-26{fill:#ffa8a7;}.cls-27{fill:#1f3238;}.cls-28{fill:#b82635;}.cls-29{fill:#f28f8f;}</style></defs><title>Hire Page Illustration</title><g id="Layer_8" data-name="Layer 8"><ellipse id="Floor" class="cls-1" cx="350" cy="451.93" rx="314.6" ry="181.63"/><path id="Shadow" class="cls-2" d="M450.67,499.81a17.11,17.11,0,0,0-2.51-8.83h0a16.72,16.72,0,0,0-1.08-1.65l-.05-.08c-.38-.51-.77-1-1.18-1.45l-.12-.12a14.7,14.7,0,0,0-1.27-1.23l-.12-.09a12.16,12.16,0,0,0-1.39-1c-.28-.17-.55-.32-.82-.46l-.36-.16c-.15-.06-.29-.14-.43-.19a4.62,4.62,0,0,0-.6-.19l-.16-.05a4.56,4.56,0,0,0-.7-.14h0a4.46,4.46,0,0,0-2.6.4h0c-7.18,3.61-48.6,30-67.66,41.84l-9.45,5.73a2.3,2.3,0,0,0-.7.66l-.07.11a2.15,2.15,0,0,0-.21.4c0,.09-.07.19-.1.28s-.08.24-.11.37a2.17,2.17,0,0,0,0,.25c-.44.24-1,.52-1.56.86l-1.4.75a54.67,54.67,0,0,0-10.77-8c-13.07-7.55-30.38-11.7-48.75-11.7s-35.68,4.15-48.74,11.7c-13.54,7.81-21,18.36-21,29.71s7.45,21.9,21,29.71c13.07,7.54,30.38,11.7,48.75,11.7s35.68-4.16,48.75-11.7c13.53-7.81,21-18.36,21-29.71a27.27,27.27,0,0,0-4.44-14.68l1.25-.68a2.79,2.79,0,0,0,2.68.27l.05,0c6.47-3.57,69.52-30.44,82.41-37.35h0C449.61,504.23,450.59,502.42,450.67,499.81ZM339.19,576.9c-11.28,6.52-26.48,10.1-42.79,10.1s-31.5-3.58-42.79-10.1c-9.69-5.59-15-12.48-15-19.39s5.33-13.8,15-19.39c11.28-6.52,26.48-10.1,42.79-10.1s31.51,3.58,42.79,10.1c9.69,5.59,15,12.48,15,19.39S348.88,571.31,339.19,576.9Z"/><path id="Shadow-2" data-name="Shadow" class="cls-3" d="M460.3,340.2l-63.95-37a13,13,0,0,0-11.77,0L59.72,490.76c-3.25,1.87-3.25,4.91,0,6.79l64,37a13,13,0,0,0,11.77,0l121.74-70.29,18.71,10.88c9.91,5.72,26,5.72,35.89,0l55.79-32c9.91-5.72,9.91-15,0-20.71l-18.7-10.87L460.3,347C463.55,345.12,463.55,342.07,460.3,340.2Z"/><ellipse id="Shadow-3" data-name="Shadow" class="cls-2" cx="567.58" cy="479.14" rx="62.71" ry="36.2"/><g id="Plants"><path class="cls-4" d="M603.2,438.26c0-8.49-1.68-24.14,5.5-38.81,5.21-10.63,14.52-21,23.19-19.93,8.06,1,8.8,13.35,1.08,21.85s-17.54,20.23-19.68,39l-5.55,13.93Z"/><g class="cls-5"><path d="M603.2,438.26c0-8.49-1.68-24.14,5.5-38.81,5.21-10.63,14.52-21,23.19-19.93,8.06,1,8.8,13.35,1.08,21.85s-17.54,20.23-19.68,39l-5.55,13.93Z"/></g><path class="cls-6" d="M606.1,444.22a.6.6,0,0,0,.49-.61c-1-24.13,6.87-44.17,22.71-57.94a.59.59,0,0,0-.77-.89c-16.12,14-24.12,34.38-23.12,58.88a.59.59,0,0,0,.61.57Z"/><path class="cls-4" d="M601.67,468.6a30,30,0,0,0,14.92,4.16c9.09.21,12.44-4.57,12.44-4.57s-4.62-7.87-10-9.53a50.18,50.18,0,0,1,16.28,4.26s5.44-.65,6.49-9.22c0,0-3.88-4.56-15-5.81,0,0,6.35-2.53,16.14-1.39.74.19,2.33-10.93,2.59-16s-1.73-4.75-5.72-5.26-17.21.6-19.34,3-2.38,9.86-2.38,9.86-2.86-3.79-2.8-7.53a13.91,13.91,0,0,0-8.17,1.3c-4.13,2.09-5.46,3.76-5.66,6.93s-.47,7.92.8,11.6c0,0-3.76-6.06-3.57-11.34a55.23,55.23,0,0,0-3.84,8C593.06,451.75,595.16,462.93,601.67,468.6Z"/><path class="cls-6" d="M601.82,469.17a.58.58,0,0,0,.41-.38c5.17-15.86,29.5-36.73,38.79-39.87a.58.58,0,0,0,.37-.74.56.56,0,0,0-.74-.37c-9.48,3.19-34.28,24.46-39.54,40.61a.59.59,0,0,0,.38.74A.53.53,0,0,0,601.82,469.17Z"/></g><g id="Device"><g id="Monitor"><path class="cls-7" d="M311.78,469.75,359.85,442c4.95-2.86,7.43-6.61,7.43-10.36s0-6.69,0-6.69l-45.23-25.67a10.56,10.56,0,0,1-4.78-8.29V331.69l-84,48.52v59.26a10.56,10.56,0,0,0,4.78,8.28l37.78,22C285.81,475.47,301.88,475.47,311.78,469.75Z"/><path class="cls-8" d="M253.49,450v6.66l-15.38-8.87a10.57,10.57,0,0,1-4.78-8.29V380.21l16-9.23c.33,4.06.69,8.26,1,12.35l-11.21,6.49v46.3a10.52,10.52,0,0,0,4.78,8.29Z"/><path class="cls-9" d="M239.13,436.13a10.59,10.59,0,0,0,4.78,8.29l32,18.64c9.91,5.73,26,5.73,35.89,0l48.09-27.79c9.91-5.72,9.91-15,0-20.71l-32-18.67a10.54,10.54,0,0,1-4.79-8.28V341.31l-83.95,48.51Z"/><path class="cls-10" d="M337.61,401.54h0l-9.74-5.63a10.54,10.54,0,0,1-4.79-8.28V341.31l-83.95,48.51v46.31a10.59,10.59,0,0,0,4.78,8.29l9.58,5.53Z"/><path class="cls-7" d="M367.29,424.92v6.68c0,3.76-2.48,7.49-7.43,10.36l-48.07,27.78c-4.75,2.76-10.91,4.14-17.13,4.25v-6.66a36,36,0,0,0,17.13-4.25l48.07-27.8C364.81,432.43,367.29,428.67,367.29,424.92Z"/><path class="cls-9" d="M104.33,500.06c3.1,1.79,8.29,1.69,11.59-.21L440.59,312.4a13.22,13.22,0,0,0,6-10.36V17.86c0-3.81-2.51-8.35-5.61-10.14s-8.29-1.7-11.59.21L104.7,195.38a13.21,13.21,0,0,0-6,10.36V489.92C98.72,493.73,101.23,498.27,104.33,500.06Z"/><path class="cls-7" d="M115.92,499.84,440.59,312.39a13.18,13.18,0,0,0,6-10.35V17.85c0-3.81-2.67-5.36-6-3.45L115.93,201.85a13.18,13.18,0,0,0-6,10.36V496.39C109.94,500.2,112.62,501.75,115.92,499.84Z"/><path class="cls-11" d="M121.16,458.85V215.93a8,8,0,0,1,3.59-6.22l307-177.25c2-1.14,3.58-.21,3.58,2.08l0,242.92a7.92,7.92,0,0,1-3.59,6.21l-307,177.25C122.77,462.06,121.16,461.13,121.16,458.85Z"/><path class="cls-11" d="M121.16,458.85V215.93a8,8,0,0,1,3.59-6.22l307-177.25c2-1.14,3.58-.21,3.58,2.08l0,242.92a7.92,7.92,0,0,1-3.59,6.21l-307,177.25C122.77,462.06,121.16,461.13,121.16,458.85Z"/><path class="cls-11" d="M277.64,394.62a3.58,3.58,0,0,1-1.8-.47c-1.28-.74-2-2.24-2-4.22a13,13,0,0,1,5.95-10.31h0c1.72-1,3.37-1.13,4.65-.39s2,2.23,2,4.22a13,13,0,0,1-5.95,10.31A5.79,5.79,0,0,1,277.64,394.62Zm5-14.5a4.45,4.45,0,0,0-2.16.68h0a11.64,11.64,0,0,0-5.27,9.13,2.76,2.76,0,0,0,4.59,2.65,11.67,11.67,0,0,0,5.27-9.13,3.33,3.33,0,0,0-1.3-3.05A2.23,2.23,0,0,0,282.65,380.12Z"/></g></g><g id="Window"><path class="cls-12" d="M488.68,78.18,172.48,260.52v233a4,4,0,0,0,6.05,3.5l5.63-3.25L482.78,321.63a13,13,0,0,0,5.9-10.21Z"/><path class="cls-2" d="M487.32,80.53V311.42a11.72,11.72,0,0,1-5.22,9L183.48,492.63l-5.63,3.26a2.62,2.62,0,0,1-1.32.36,2.73,2.73,0,0,1-1.87-.76,2.65,2.65,0,0,1-.82-1.93V261.3L487.32,80.53m1.36-2.35L172.48,260.52v233a4.06,4.06,0,0,0,4.05,4.05,3.92,3.92,0,0,0,2-.55l5.63-3.25L482.78,321.63a13,13,0,0,0,5.9-10.21V78.18Z"/><polygon class="cls-13" points="481.18 73.85 164.96 256.18 172.48 260.52 488.68 78.18 481.18 73.85"/><path class="cls-14" d="M174.6,497.12a4.08,4.08,0,0,1-2.12-3.56v-233L165,256.17V487.93a6.26,6.26,0,0,0,3.14,5.42l6.21,3.6.3.17Z"/><path class="cls-11" d="M165,256.28V240.55a6.57,6.57,0,0,1,2.94-5.11L478.24,56.53a6.48,6.48,0,0,1,5.88,0l1.62.93a6.52,6.52,0,0,1,2.94,5.1V78.3L172.48,260.62Z"/><path class="cls-15" d="M165,256.28V240.55a6.57,6.57,0,0,1,2.94-5.11L478.24,56.53a6.48,6.48,0,0,1,5.88,0l1.62.93a6.52,6.52,0,0,1,2.94,5.1V78.3L172.48,260.62Z"/><path class="cls-11" d="M172.48,244.9a6.59,6.59,0,0,1,2.93-5.12L485.74,60.86c1.62-.94,2.94-.19,2.94,1.69V78.3L172.48,260.62Z"/><path class="cls-16" d="M172.48,244.9a6.59,6.59,0,0,1,2.93-5.12L485.74,60.86c1.62-.94,2.94-.19,2.94,1.69V78.3L172.48,260.62Z"/><path class="cls-11" d="M173.34,242a6.06,6.06,0,0,0-.86,2.91v15.72L165,256.28V240.55a6.06,6.06,0,0,1,.86-2.9Z"/><path class="cls-17" d="M173.34,242a6.06,6.06,0,0,0-.86,2.91v15.72L165,256.28V240.55a6.06,6.06,0,0,1,.86-2.9Z"/><path class="cls-18" d="M474.88,77.58c0,1.76,1.23,2.48,2.76,1.6a6.11,6.11,0,0,0,2.76-4.78c0-1.76-1.24-2.48-2.76-1.6A6.08,6.08,0,0,0,474.88,77.58Z"/><path class="cls-18" d="M463.84,84c0,1.76,1.24,2.47,2.76,1.59a6.11,6.11,0,0,0,2.76-4.78c0-1.76-1.24-2.47-2.76-1.59A6.11,6.11,0,0,0,463.84,84Z"/><path class="cls-18" d="M452.8,90.33c0,1.76,1.24,2.47,2.76,1.59a6.08,6.08,0,0,0,2.76-4.78c0-1.76-1.23-2.47-2.76-1.59A6.11,6.11,0,0,0,452.8,90.33Z"/><path class="cls-18" d="M172.48,260.62V493.56a4,4,0,0,0,6.05,3.5l5.63-3.25L253.26,454V214l-80.78,46.58Z"/><polygon class="cls-18" points="258.78 217.97 258.78 444.22 482.05 315.32 482.05 89.07 258.78 217.97"/><path class="cls-11" d="M234.77,241.38l-51.53,29.77a3.83,3.83,0,0,0-1.73,3v5.37c0,1.1.77,1.54,1.73,1l51.53-29.77a3.83,3.83,0,0,0,1.73-3v-5.37C236.5,241.27,235.72,240.82,234.77,241.38Z"/><path class="cls-19" d="M234.77,241.38l-51.53,29.77a3.83,3.83,0,0,0-1.73,3v5.37c0,1.1.77,1.54,1.73,1l51.53-29.77a3.83,3.83,0,0,0,1.73-3v-5.37C236.5,241.27,235.72,240.82,234.77,241.38Z"/><path class="cls-9" d="M246.24,243.5,244.73,242a6.77,6.77,0,0,0,.48-2.42,2.86,2.86,0,0,0-1.14-2.61,1.79,1.79,0,0,0-1.85.08,6.08,6.08,0,0,0-2.38,4.93,2.87,2.87,0,0,0,1.13,2.61,1.6,1.6,0,0,0,.82.22,2.06,2.06,0,0,0,1-.3,4.06,4.06,0,0,0,1.35-1.38l1.25,1.2a.57.57,0,0,0,.41.16.6.6,0,0,0,.41-1Zm-4,0a.64.64,0,0,1-.65.09c-.25-.15-.54-.64-.54-1.58a5,5,0,0,1,1.79-3.9.91.91,0,0,1,.43-.13.59.59,0,0,1,.23,0c.24.15.53.64.53,1.58A4.93,4.93,0,0,1,242.22,243.51Z"/><path class="cls-9" d="M182.77,296.25l-1.16.67c-.07,0-.12,0-.12-.1v-3.13a.28.28,0,0,1,.12-.23l1.16-.67c.07,0,.12,0,.12.09V296A.3.3,0,0,1,182.77,296.25Z"/><path class="cls-9" d="M184.5,295.25l-1.16.67c-.06,0-.12,0-.12-.1v-3.13a.31.31,0,0,1,.12-.23l1.16-.67c.07,0,.12,0,.12.09V295A.3.3,0,0,1,184.5,295.25Z"/><path class="cls-9" d="M186.23,294.25l-1.15.67c-.07,0-.13,0-.13-.1v-3.13a.29.29,0,0,1,.13-.23l1.15-.67c.07,0,.12,0,.12.09V294A.3.3,0,0,1,186.23,294.25Z"/><path class="cls-9" d="M182.77,300.28l-1.16.67c-.07,0-.12,0-.12-.09v-3.13a.3.3,0,0,1,.12-.24l1.16-.66c.07,0,.12,0,.12.09v3.13A.28.28,0,0,1,182.77,300.28Z"/><path class="cls-9" d="M184.5,299.28l-1.16.67c-.06,0-.12,0-.12-.09v-3.13a.33.33,0,0,1,.12-.24l1.16-.66c.07,0,.12,0,.12.09v3.13A.28.28,0,0,1,184.5,299.28Z"/><path class="cls-9" d="M186.23,298.28l-1.15.67c-.07,0-.13,0-.13-.09v-3.13a.31.31,0,0,1,.13-.24l1.15-.66c.07,0,.12,0,.12.09v3.13A.28.28,0,0,1,186.23,298.28Z"/><path class="cls-9" d="M183,311l-1.42-.87c-.06,0-.06-.16,0-.26l1.42-2.51c.07-.12.17-.1.17,0v3.38C183.12,310.85,183,311,183,311Z"/><path class="cls-9" d="M182.35,309l1.88-1.08v.89l-1.88,1.08c-.16.09-.29,0-.29-.28A.76.76,0,0,1,182.35,309Z"/><polygon class="cls-9" points="184.58 307.75 185.22 307.38 185.22 308.27 184.58 308.64 184.58 307.75"/><path class="cls-9" d="M186.94,306.83v3.27a.78.78,0,0,1-.29.62c-.16.09-.29,0-.29-.28v-2.83l-.79.45v-.89l1.08-.62C186.81,306.46,186.94,306.58,186.94,306.83Z"/><path class="cls-9" d="M183.5,318.29c-1.32.91-2.22,3.43-2,5.29s1.25,1.64,1.36,2.44c0,.08.06.11.13.08l1.26-.72a.33.33,0,0,0,.13-.23c.14-1,1.43-2.31,1.44-4.85C185.86,318.35,184.79,317.4,183.5,318.29Z"/><path class="cls-9" d="M184.26,327.42l-1.22.71c-.09.05-.15,0-.15-.12v-1.12a.34.34,0,0,1,.15-.29l1.22-.71c.09-.05.15,0,.15.12v1.12A.35.35,0,0,1,184.26,327.42Z"/><path class="cls-9" d="M183.8,291.86a7.43,7.43,0,0,0-2.22,4.69,4.91,4.91,0,0,0,.33,2.56l-.42,2.14c0,.17.07.27.17.16l1.23-1.35a1.9,1.9,0,0,0,1.79-.52,7.43,7.43,0,0,0,2.22-4.7C187.19,291.85,185.63,290.35,183.8,291.86Zm.44,7c-1.13.66-2.05-.23-2.05-2a5.45,5.45,0,0,1,2.05-4.35c1.14-.65,2.06.23,2.06,2A5.41,5.41,0,0,1,184.24,298.86Z"/><path class="cls-9" d="M183.8,333.09a7.45,7.45,0,0,0-2.22,4.69,5,5,0,0,0,.33,2.57l-.42,2.13c0,.18.07.27.17.16l1.23-1.34a1.91,1.91,0,0,0,1.79-.53,7.4,7.4,0,0,0,2.22-4.69C187.19,333.08,185.63,331.58,183.8,333.09Zm.44,7c-1.13.65-2.05-.24-2.05-2a5.42,5.42,0,0,1,2.05-4.35c1.14-.66,2.06.23,2.06,2A5.43,5.43,0,0,1,184.24,340.1Z"/><path class="cls-9" d="M185.54,348.2a2.88,2.88,0,0,1-1.09,2.3c-.6.34-1.08-.12-1.08-1.05a2.84,2.84,0,0,1,1.08-2.29C185.05,346.81,185.54,347.28,185.54,348.2Z"/><path class="cls-9" d="M187.4,348.53a1.91,1.91,0,0,1-.72,1.53c-.4.23-.72-.08-.72-.7a1.91,1.91,0,0,1,.72-1.53C187.08,347.6,187.4,347.92,187.4,348.53Z"/><path class="cls-9" d="M185.73,354.78l-2.56,1.48V353a2.22,2.22,0,0,1,.93-1.77l.71-.41c.51-.3.92,0,.92.7Z"/><path class="cls-9" d="M186.79,350.43l-.7.41v3.74l1.33-.77v-2.9C187.42,350.45,187.14,350.23,186.79,350.43Z"/><path class="cls-9" d="M181.5,351.93c0,.62.33.93.73.7a1.91,1.91,0,0,0,.72-1.53c0-.61-.32-.93-.72-.7A1.91,1.91,0,0,0,181.5,351.93Z"/><path class="cls-9" d="M182.11,353.14l.71-.41v3.74l-1.33.76v-2.9A1.49,1.49,0,0,1,182.11,353.14Z"/><path class="cls-2" d="M194,288.92,224.2,271.5c.81-.47,1.47-.14,1.47.74a3.16,3.16,0,0,1-1.47,2.44L194,292.1c-.81.47-1.47.14-1.47-.74A3.16,3.16,0,0,1,194,288.92Z"/><path class="cls-2" d="M194,303.12,224.2,285.7c.81-.47,1.47-.14,1.47.74a3.17,3.17,0,0,1-1.47,2.45L194,306.31c-.81.47-1.47.13-1.47-.75A3.16,3.16,0,0,1,194,303.12Z"/><path class="cls-2" d="M194,317.32,224.2,299.9c.81-.47,1.47-.13,1.47.75a3.16,3.16,0,0,1-1.47,2.44L194,320.51c-.81.47-1.47.14-1.47-.75A3.17,3.17,0,0,1,194,317.32Z"/><path class="cls-2" d="M194,331.53,224.2,314.1c.81-.46,1.47-.13,1.47.75a3.16,3.16,0,0,1-1.47,2.44L194,334.71c-.81.47-1.47.14-1.47-.74A3.14,3.14,0,0,1,194,331.53Z"/><path class="cls-2" d="M194,345.73l30.18-17.42c.81-.47,1.47-.14,1.47.74a3.16,3.16,0,0,1-1.47,2.44L194,348.91c-.81.47-1.47.14-1.47-.74A3.16,3.16,0,0,1,194,345.73Z"/><path class="cls-9" d="M199.54,357.32l30.17-17.42c.82-.47,1.48-.13,1.48.75a3.16,3.16,0,0,1-1.47,2.44l-30.18,17.42c-.81.47-1.47.14-1.47-.74A3.17,3.17,0,0,1,199.54,357.32Z"/><path class="cls-2" d="M199.54,366.92l30.17-17.42c.82-.47,1.48-.14,1.48.74a3.17,3.17,0,0,1-1.47,2.45l-30.18,17.42c-.81.46-1.47.13-1.47-.75A3.16,3.16,0,0,1,199.54,366.92Z"/><path class="cls-2" d="M199.54,376.51l30.17-17.42c.82-.47,1.48-.13,1.48.75a3.16,3.16,0,0,1-1.47,2.44L199.54,379.7c-.81.47-1.47.14-1.47-.74A3.17,3.17,0,0,1,199.54,376.51Z"/><path class="cls-2" d="M205.41,382.61l30.18-17.42c.81-.47,1.47-.13,1.47.75a3.16,3.16,0,0,1-1.47,2.44L205.41,385.8c-.81.47-1.47.13-1.47-.75A3.16,3.16,0,0,1,205.41,382.61Z"/><path class="cls-9" d="M198.36,390.87l2.45-4.33c.1-.16.1-.38,0-.44l-2.45-1.49c-.12-.07-.29.16-.29.39v5.81C198.07,391,198.24,391.08,198.36,390.87Z"/><path class="cls-2" d="M205.41,392.17l30.18-17.42c.81-.47,1.47-.13,1.47.75a3.16,3.16,0,0,1-1.47,2.44l-30.18,17.42c-.81.47-1.47.14-1.47-.74A3.17,3.17,0,0,1,205.41,392.17Z"/><path class="cls-9" d="M198.36,400.43l2.45-4.33c.1-.16.1-.38,0-.44l-2.45-1.49c-.12-.07-.29.16-.29.39v5.82C198.07,400.61,198.24,400.64,198.36,400.43Z"/><path class="cls-2" d="M205.41,401.73l30.18-17.42c.81-.47,1.47-.13,1.47.75a3.16,3.16,0,0,1-1.47,2.44l-30.18,17.42c-.81.47-1.47.14-1.47-.74A3.17,3.17,0,0,1,205.41,401.73Z"/><path class="cls-9" d="M198.36,410l2.45-4.33c.1-.16.1-.38,0-.43l-2.45-1.5c-.12-.07-.29.16-.29.39v5.82C198.07,410.17,198.24,410.2,198.36,410Z"/><path class="cls-2" d="M205.41,411.29l30.18-17.42c.81-.47,1.47-.13,1.47.75a3.16,3.16,0,0,1-1.47,2.44l-30.18,17.42c-.81.47-1.47.14-1.47-.74A3.17,3.17,0,0,1,205.41,411.29Z"/><path class="cls-9" d="M198.36,419.55l2.45-4.32c.1-.17.1-.39,0-.44l-2.45-1.5c-.12-.07-.29.16-.29.39v5.82C198.07,419.73,198.24,419.76,198.36,419.55Z"/><path class="cls-2" d="M205.41,420.86l30.18-17.43c.81-.46,1.47-.13,1.47.75a3.16,3.16,0,0,1-1.47,2.44L205.41,424c-.81.47-1.47.14-1.47-.74A3.14,3.14,0,0,1,205.41,420.86Z"/><path class="cls-9" d="M198.36,429.11l2.45-4.32c.1-.17.1-.39,0-.44l-2.45-1.5c-.12-.07-.29.16-.29.39v5.82C198.07,429.29,198.24,429.32,198.36,429.11Z"/><path class="cls-2" d="M205.41,430.42,235.59,413c.81-.47,1.47-.14,1.47.74a3.16,3.16,0,0,1-1.47,2.44L205.41,433.6c-.81.47-1.47.14-1.47-.74A3.14,3.14,0,0,1,205.41,430.42Z"/><path class="cls-9" d="M198.36,438.67l2.45-4.32c.1-.17.1-.39,0-.44l-2.45-1.5c-.12-.07-.29.16-.29.39v5.82C198.07,438.85,198.24,438.88,198.36,438.67Z"/><path class="cls-2" d="M205.41,440l30.18-17.42c.81-.47,1.47-.14,1.47.74a3.16,3.16,0,0,1-1.47,2.44l-30.18,17.42c-.81.47-1.47.14-1.47-.74A3.16,3.16,0,0,1,205.41,440Z"/><path class="cls-9" d="M198.36,448.23l2.45-4.32c.1-.17.1-.38,0-.44l-2.45-1.5c-.12-.07-.29.16-.29.39v5.82C198.07,448.41,198.24,448.44,198.36,448.23Z"/><path class="cls-2" d="M205.41,449.54l30.18-17.42c.81-.47,1.47-.14,1.47.74a3.16,3.16,0,0,1-1.47,2.44l-30.18,17.42c-.81.47-1.47.14-1.47-.74A3.16,3.16,0,0,1,205.41,449.54Z"/><path class="cls-9" d="M198.36,457.79l2.45-4.32c.1-.17.1-.38,0-.44l-2.45-1.49c-.12-.08-.29.15-.29.38v5.82C198.07,458,198.24,458,198.36,457.79Z"/><path class="cls-12" d="M265.77,249,365,191.74a3.26,3.26,0,0,0,1.47-2.55V163.91c0-.94-.66-1.32-1.47-.85l-99.18,57.25a3.26,3.26,0,0,0-1.47,2.55v25.29C264.3,249.09,265,249.47,265.77,249Z"/><path class="cls-9" d="M274.42,231.16a.15.15,0,0,1,0-.06l.65-2.72-.9.52h-.06a.15.15,0,0,1,0-.08v-.49a.36.36,0,0,1,0-.1.14.14,0,0,1,.06-.07l1.44-.84a0,0,0,0,1,.06,0s0,0,0,.07v.43a1.31,1.31,0,0,1,0,.27l-.66,2.72,0,.1a.1.1,0,0,1-.05.06l-.43.25s0,0-.05,0A.08.08,0,0,1,274.42,231.16Z"/><path class="cls-9" d="M276.83,226.58a.86.86,0,0,1,.38-.12.42.42,0,0,1,.27.12.58.58,0,0,1,.16.31,1.93,1.93,0,0,1,.07.44v.83a3.24,3.24,0,0,1-.07.52,1.76,1.76,0,0,1-.16.49,1.73,1.73,0,0,1-.27.43,1.35,1.35,0,0,1-.38.33.9.9,0,0,1-.39.12.42.42,0,0,1-.27-.12.58.58,0,0,1-.16-.31,1.93,1.93,0,0,1-.07-.44v-.83a3.24,3.24,0,0,1,.07-.52,1.76,1.76,0,0,1,.16-.49,1.73,1.73,0,0,1,.27-.43A1.4,1.4,0,0,1,276.83,226.58Zm.32,1.88q0-.41,0-.78c0-.08,0-.14,0-.2a.37.37,0,0,0-.06-.14.15.15,0,0,0-.09-.06.26.26,0,0,0-.15.05.34.34,0,0,0-.16.13.46.46,0,0,0-.09.17,1,1,0,0,0-.06.2,1.5,1.5,0,0,0,0,.22q0,.39,0,.78a1.12,1.12,0,0,0,0,.2.26.26,0,0,0,.06.14.15.15,0,0,0,.09.06.32.32,0,0,0,.16,0,.37.37,0,0,0,.15-.13.46.46,0,0,0,.09-.17.66.66,0,0,0,.06-.2A1.5,1.5,0,0,0,277.15,228.46Z"/><path class="cls-9" d="M278.91,226.06a2,2,0,0,1,0,.35,1.27,1.27,0,0,1,0,.28,1.13,1.13,0,0,1-.24.49.67.67,0,0,1-.2.17.48.48,0,0,1-.21.06.24.24,0,0,1-.14,0,.35.35,0,0,1-.09-.16,1.5,1.5,0,0,1,0-.24v-.35a2.36,2.36,0,0,1,0-.28,1.14,1.14,0,0,1,.09-.26,1.18,1.18,0,0,1,.14-.22.68.68,0,0,1,.21-.17.4.4,0,0,1,.2-.07.2.2,0,0,1,.15.06.43.43,0,0,1,.09.15A.88.88,0,0,1,278.91,226.06Zm.76-1a.19.19,0,0,1,0-.09.12.12,0,0,1,.06-.06l.25-.14s0,0,.05,0,0,0,0,.06v0a.08.08,0,0,1,0,0l-1.49,3.87a.39.39,0,0,1,0,.09.13.13,0,0,1-.07.06l-.24.15a.06.06,0,0,1-.06,0,.08.08,0,0,1,0-.06v0a0,0,0,0,1,0,0Zm-1.36,1.66a.46.46,0,0,0,0,.16s0,0,.09,0a.27.27,0,0,0,.09-.12.53.53,0,0,0,0-.2,1.5,1.5,0,0,0,0-.3.37.37,0,0,0,0-.17s0,0-.09,0a.14.14,0,0,0-.09.11.88.88,0,0,0,0,.2Zm2,.14a2,2,0,0,1,0,.35,1.27,1.27,0,0,1,0,.28,1.14,1.14,0,0,1-.09.26.86.86,0,0,1-.15.22.65.65,0,0,1-.2.17.4.4,0,0,1-.21.07.17.17,0,0,1-.14-.06.32.32,0,0,1-.09-.15,1.5,1.5,0,0,1,0-.24v-.35a2.36,2.36,0,0,1,0-.28,1.14,1.14,0,0,1,.09-.26.79.79,0,0,1,.14-.23.87.87,0,0,1,.21-.17.45.45,0,0,1,.2-.06.25.25,0,0,1,.15,0,.34.34,0,0,1,.08.16A.86.86,0,0,1,280.31,226.88Zm-.6.67a.53.53,0,0,0,0,.17s0,0,.09,0a.2.2,0,0,0,.09-.11.56.56,0,0,0,0-.2,1.6,1.6,0,0,0,0-.31.32.32,0,0,0,0-.16s-.05,0-.09,0a.18.18,0,0,0-.09.12.77.77,0,0,0,0,.2Z"/><path class="cls-9" d="M274.4,223.37l-1-1.54a20,20,0,0,0-2.35,6.34l1.6-.12A15,15,0,0,1,274.4,223.37Z"/><path class="cls-9" d="M277.21,220.33v-2.6a11.33,11.33,0,0,0-3.8,4.1l1,1.54A8.42,8.42,0,0,1,277.21,220.33Z"/><path class="cls-9" d="M272.43,230.46a13.19,13.19,0,0,1,.23-2.41l-1.6.12a17.34,17.34,0,0,0-.32,3.27,12.11,12.11,0,0,0,.32,2.89l1.6-1.73A9.23,9.23,0,0,1,272.43,230.46Z"/><path class="cls-11" d="M283.37,221.06a5.33,5.33,0,0,0-2.35-3.62,3.79,3.79,0,0,0-3.81.29v2.6a2.8,2.8,0,0,1,2.81-.21,3.94,3.94,0,0,1,1.74,2.68,9.21,9.21,0,0,1,.24,2.14,13.3,13.3,0,0,1-.24,2.41A14.6,14.6,0,0,1,280,232a8.22,8.22,0,0,1-2.81,3,2.77,2.77,0,0,1-2.81.21,4,4,0,0,1-1.74-2.67l-1.6,1.73a5.32,5.32,0,0,0,2.35,3.63,3.77,3.77,0,0,0,3.8-.29,11.27,11.27,0,0,0,3.81-4.1,20,20,0,0,0,2.35-6.35,17.15,17.15,0,0,0,.32-3.26A12.14,12.14,0,0,0,283.37,221.06Z"/><path class="cls-9" d="M293.37,213.94l30.17-17.42c.82-.47,1.47-.14,1.47.74a3.13,3.13,0,0,1-1.47,2.44l-30.17,17.42c-.81.47-1.47.14-1.47-.74A3.16,3.16,0,0,1,293.37,213.94Z"/><path class="cls-2" d="M293.37,220.36l52.25-30.16c.81-.47,1.47-.13,1.47.75a3.16,3.16,0,0,1-1.47,2.44l-52.25,30.16c-.81.47-1.47.13-1.47-.75A3.16,3.16,0,0,1,293.37,220.36Z"/><path class="cls-12" d="M373.39,186.86l99.17-57.26a3.23,3.23,0,0,0,1.47-2.55V101.77c0-.94-.65-1.32-1.47-.85l-99.17,57.25a3.26,3.26,0,0,0-1.47,2.54V186C371.92,187,372.58,187.33,373.39,186.86Z"/><path class="cls-9" d="M382.52,166.7a1.89,1.89,0,0,1,.08-.53,2.53,2.53,0,0,1,.19-.48,2,2,0,0,1,.29-.39,1,1,0,0,1,.33-.27.72.72,0,0,1,.33-.11.45.45,0,0,1,.28.06.63.63,0,0,1,.2.25,1.18,1.18,0,0,1,.07.45,2,2,0,0,1,0,.25,1.84,1.84,0,0,1,0,.25c0,.08-.05.15-.07.23s0,.15-.08.22l-.57,1.55,0,.08a.23.23,0,0,1-.07.07l-.48.27s0,0,0,0a.11.11,0,0,1,0-.06s0,0,0,0a0,0,0,0,1,0,0l.39-1.06a.6.6,0,0,1-.29,0,.37.37,0,0,1-.23-.1.58.58,0,0,1-.17-.25A1.12,1.12,0,0,1,382.52,166.7Zm1.21-.7a.78.78,0,0,0,0-.16.15.15,0,0,0-.08-.08.17.17,0,0,0-.1,0,.28.28,0,0,0-.12,0l-.13.1a.78.78,0,0,0-.1.15.87.87,0,0,0-.07.17.57.57,0,0,0,0,.18.35.35,0,0,0,0,.16.22.22,0,0,0,.07.09l.1,0a.38.38,0,0,0,.13,0,.53.53,0,0,0,.12-.1.56.56,0,0,0,.1-.15.89.89,0,0,0,.08-.17A1.1,1.1,0,0,0,383.73,166Z"/><path class="cls-9" d="M385.42,163.86a.86.86,0,0,1,.39-.12.42.42,0,0,1,.27.12.65.65,0,0,1,.16.31,1.51,1.51,0,0,1,.06.44c0,.14,0,.27,0,.42s0,.28,0,.41a2.37,2.37,0,0,1-.06.52,2,2,0,0,1-.16.49,1.73,1.73,0,0,1-.27.43,1.55,1.55,0,0,1-.39.33.86.86,0,0,1-.39.12.37.37,0,0,1-.26-.12.66.66,0,0,1-.17-.31,2.75,2.75,0,0,1-.06-.44v-.83a4.43,4.43,0,0,1,.06-.51,2.11,2.11,0,0,1,.17-.5,2.34,2.34,0,0,1,.26-.43A1.55,1.55,0,0,1,385.42,163.86Zm.33,1.88q0-.41,0-.78a1.06,1.06,0,0,0,0-.2.26.26,0,0,0-.05-.14.14.14,0,0,0-.1-.06.26.26,0,0,0-.15.05.47.47,0,0,0-.15.13.46.46,0,0,0-.09.17,1.17,1.17,0,0,0-.06.2,1.5,1.5,0,0,0,0,.22q0,.4,0,.78a1,1,0,0,0,0,.2.26.26,0,0,0,.06.14.1.1,0,0,0,.09.06.21.21,0,0,0,.15,0,.44.44,0,0,0,.15-.12.42.42,0,0,0,.1-.17.73.73,0,0,0,.06-.21A1.5,1.5,0,0,0,385.75,165.74Z"/><path class="cls-9" d="M387.51,163.34a2.16,2.16,0,0,1,0,.36,1.24,1.24,0,0,1,0,.27,1.14,1.14,0,0,1-.09.26.91.91,0,0,1-.15.23.82.82,0,0,1-.2.17.52.52,0,0,1-.21.07.18.18,0,0,1-.14-.06.35.35,0,0,1-.09-.16,1.5,1.5,0,0,1,0-.24v-.35a2.36,2.36,0,0,1,0-.28,1.14,1.14,0,0,1,.09-.26.83.83,0,0,1,.14-.22A.68.68,0,0,1,387,163a.37.37,0,0,1,.2-.07.2.2,0,0,1,.15.06.34.34,0,0,1,.08.16A.73.73,0,0,1,387.51,163.34Zm.75-1a.73.73,0,0,1,.05-.09s0,0,.06-.06l.25-.14s0,0,.05,0,0,0,0,.06v0a.08.08,0,0,1,0,0l-1.49,3.87a.39.39,0,0,1,0,.09.13.13,0,0,1-.07.06l-.24.15a.06.06,0,0,1-.06,0,.08.08,0,0,1,0,0,0,0,0,0,1,0,0,0,0,0,0,1,0,0ZM386.91,164a.4.4,0,0,0,0,.16s0,0,.09,0a.27.27,0,0,0,.09-.12.53.53,0,0,0,0-.2,1.5,1.5,0,0,0,0-.3.3.3,0,0,0,0-.16s-.05,0-.09,0a.14.14,0,0,0-.09.11.88.88,0,0,0,0,.2Zm2,.14a2,2,0,0,1,0,.35,1.26,1.26,0,0,1,0,.28.79.79,0,0,1-.08.26,1.14,1.14,0,0,1-.15.23.78.78,0,0,1-.2.16.4.4,0,0,1-.21.07.17.17,0,0,1-.14-.06.32.32,0,0,1-.09-.15,1.5,1.5,0,0,1,0-.24v-.35a2.36,2.36,0,0,1,0-.28,1.14,1.14,0,0,1,.09-.26.79.79,0,0,1,.14-.23,1.2,1.2,0,0,1,.21-.17.45.45,0,0,1,.2-.06.25.25,0,0,1,.15,0,.6.6,0,0,1,.08.16A.86.86,0,0,1,388.91,164.16Zm-.6.67a.47.47,0,0,0,0,.17s0,0,.09,0a.2.2,0,0,0,.09-.11.94.94,0,0,0,0-.2,1.5,1.5,0,0,0,0-.3.52.52,0,0,0,0-.17s0,0-.09,0a.18.18,0,0,0-.09.12.88.88,0,0,0,0,.2Z"/><path class="cls-9" d="M385.73,157.66v-2.6a11.27,11.27,0,0,0-3.81,4.1l1,1.54A8.33,8.33,0,0,1,385.73,157.66Z"/><path class="cls-11" d="M391.88,158.39a5.33,5.33,0,0,0-2.35-3.62,3.77,3.77,0,0,0-3.8.29v2.6a2.78,2.78,0,0,1,2.8-.2,3.89,3.89,0,0,1,1.74,2.67,8.7,8.7,0,0,1,.24,2.14,12.39,12.39,0,0,1-.24,2.41,14.83,14.83,0,0,1-1.73,4.68,8.59,8.59,0,0,1-2.81,3,2.8,2.8,0,0,1-2.81.21,3.94,3.94,0,0,1-1.74-2.68,8.7,8.7,0,0,1-.24-2.14,12.46,12.46,0,0,1,.24-2.41,14.6,14.6,0,0,1,1.74-4.68l-1-1.54a20,20,0,0,0-2.35,6.35,17.15,17.15,0,0,0-.32,3.26,12.26,12.26,0,0,0,.32,2.9,5.33,5.33,0,0,0,2.35,3.62,3.79,3.79,0,0,0,3.81-.29,11.33,11.33,0,0,0,3.8-4.1h0a20,20,0,0,0,2.35-6.34,17.34,17.34,0,0,0,.32-3.27A12.26,12.26,0,0,0,391.88,158.39Z"/><path class="cls-9" d="M401.85,151.27,432,133.85c.81-.47,1.47-.14,1.47.74A3.14,3.14,0,0,1,432,137l-30.18,17.43c-.81.46-1.47.13-1.47-.75A3.16,3.16,0,0,1,401.85,151.27Z"/><path class="cls-2" d="M401.85,157.69l52.26-30.16c.81-.47,1.47-.13,1.47.75a3.16,3.16,0,0,1-1.47,2.44l-52.26,30.16c-.81.47-1.47.13-1.47-.75A3.16,3.16,0,0,1,401.85,157.69Z"/><path class="cls-9" d="M275.88,255.93,297,243.68c.81-.47,1.47-.14,1.47.74a3.14,3.14,0,0,1-1.47,2.44l-21.16,12.26c-.82.47-1.48.14-1.48-.74A3.16,3.16,0,0,1,275.88,255.93Z"/><path class="cls-2" d="M473.3,149.87h0m-.62.36V311.87a1.9,1.9,0,0,1-.8,1.37L265.66,432.3V270.66a2,2,0,0,1,.79-1.38L269,267.8a4.62,4.62,0,0,0,2.15-3.73v-9.35a2,2,0,0,1,.79-1.37l29.61-17.09V245a2.22,2.22,0,0,0,2.17,2.41,2.7,2.7,0,0,0,1.34-.38l167.59-96.75M302.2,235.9h0m171-87.38a1.31,1.31,0,0,0-.66.2L304.41,245.8a1.31,1.31,0,0,1-.66.2c-.48,0-.81-.38-.81-1.05V235.6c0-.66-.33-1-.82-1a1.35,1.35,0,0,0-.65.2l-30.18,17.43a3.24,3.24,0,0,0-1.47,2.54v9.35a3.26,3.26,0,0,1-1.47,2.55l-2.58,1.49a3.26,3.26,0,0,0-1.47,2.55V433c0,.67.33,1.05.82,1.05a1.28,1.28,0,0,0,.65-.2L472.56,314.42a3.24,3.24,0,0,0,1.48-2.55V149.57c0-.67-.33-1-.81-1Z"/><path class="cls-2" d="M277.6,277.71a1.39,1.39,0,0,1-.72-.19,1.69,1.69,0,0,1-.77-1.54v-6.16a4,4,0,0,1,1.81-3.14l16.4-9.45a1.57,1.57,0,0,1,2.49,1.44v6.16A4,4,0,0,1,295,268l-16.4,9.45A2.07,2.07,0,0,1,277.6,277.71Zm1-9.85a2.6,2.6,0,0,0-1.13,2V276c0,.24.06.35.09.37a.55.55,0,0,0,.36-.11l16.4-9.45a2.59,2.59,0,0,0,1.13-2v-6.16c0-.24-.06-.35-.09-.37a.55.55,0,0,0-.36.11Z"/><path class="cls-2" d="M279.57,270.4l10.69-6.2c.54-.31,1-.09,1,.49a2.1,2.1,0,0,1-1,1.63l-10.69,6.2c-.54.32-1,.09-1-.49A2.1,2.1,0,0,1,279.57,270.4Z"/><path class="cls-9" d="M292.75,263.18l.88,1.26c0,.05.1,0,.14-.08l.88-2.28c0-.11,0-.21-.07-.17l-1.77,1A.2.2,0,0,0,292.75,263.18Z"/><path class="cls-11" d="M275.34,337.42c.78-.45,1.42-.08,1.42.82a3.14,3.14,0,0,1-1.42,2.46c-.78.45-1.42.09-1.42-.82A3.17,3.17,0,0,1,275.34,337.42Z"/><path class="cls-11" d="M286.38,324.68c.78-.45,1.42-.09,1.42.82a3.14,3.14,0,0,1-1.42,2.45c-.78.46-1.42.09-1.42-.82A3.14,3.14,0,0,1,286.38,324.68Z"/><path class="cls-11" d="M297.42,318.3c.78-.45,1.42-.08,1.42.82a3.14,3.14,0,0,1-1.42,2.46c-.79.45-1.42.09-1.42-.82A3.14,3.14,0,0,1,297.42,318.3Z"/><path class="cls-11" d="M308.46,314.73c.78-.45,1.41-.09,1.41.82a3.16,3.16,0,0,1-1.41,2.46c-.79.45-1.42.08-1.42-.82A3.11,3.11,0,0,1,308.46,314.73Z"/><path class="cls-11" d="M319.51,303.25c.78-.45,1.42-.08,1.42.82a3.14,3.14,0,0,1-1.42,2.46c-.79.45-1.42.08-1.42-.82A3.14,3.14,0,0,1,319.51,303.25Z"/><path class="cls-11" d="M330.53,299.19c.79-.46,1.42-.09,1.42.81a3.11,3.11,0,0,1-1.42,2.46c-.78.45-1.41.09-1.41-.82A3.13,3.13,0,0,1,330.53,299.19Z"/><path class="cls-11" d="M341.57,286.44c.78-.45,1.42-.09,1.42.82a3.14,3.14,0,0,1-1.42,2.45c-.78.46-1.42.09-1.42-.82A3.14,3.14,0,0,1,341.57,286.44Z"/><path class="cls-11" d="M352.61,283.25c.78-.45,1.42-.08,1.42.82a3.14,3.14,0,0,1-1.42,2.46c-.78.45-1.42.08-1.42-.82A3.14,3.14,0,0,1,352.61,283.25Z"/><path class="cls-11" d="M363.65,248.2c.78-.45,1.42-.09,1.42.82a3.17,3.17,0,0,1-1.42,2.46c-.78.45-1.42.08-1.42-.82A3.14,3.14,0,0,1,363.65,248.2Z"/><path class="cls-11" d="M374.69,267.32c.78-.45,1.42-.09,1.42.82a3.17,3.17,0,0,1-1.42,2.46c-.79.45-1.42.08-1.42-.82A3.11,3.11,0,0,1,374.69,267.32Z"/><path class="cls-11" d="M385.73,267.32c.78-.45,1.41-.09,1.41.82a3.16,3.16,0,0,1-1.41,2.46c-.79.45-1.42.08-1.42-.82A3.11,3.11,0,0,1,385.73,267.32Z"/><path class="cls-11" d="M396.76,267.32c.79-.45,1.42-.09,1.42.82a3.14,3.14,0,0,1-1.42,2.46c-.78.45-1.41.08-1.41-.82A3.13,3.13,0,0,1,396.76,267.32Z"/><path class="cls-11" d="M407.8,248.2c.79-.45,1.42-.09,1.42.82a3.14,3.14,0,0,1-1.42,2.46c-.78.45-1.42.08-1.42-.82A3.14,3.14,0,0,1,407.8,248.2Z"/><path class="cls-11" d="M418.84,244.54c.78-.45,1.42-.09,1.42.82a3.14,3.14,0,0,1-1.42,2.45c-.78.46-1.42.09-1.42-.82A3.14,3.14,0,0,1,418.84,244.54Z"/><path class="cls-11" d="M429.92,229.08c.78-.45,1.42-.08,1.42.82a3.17,3.17,0,0,1-1.42,2.46c-.78.45-1.42.08-1.42-.82A3.14,3.14,0,0,1,429.92,229.08Z"/><ellipse class="cls-11" cx="440.92" cy="230.72" rx="2.01" ry="1.16" transform="translate(20.67 497.23) rotate(-60)"/><ellipse class="cls-11" cx="451.96" cy="230.72" rx="2.01" ry="1.16" transform="translate(26.19 506.79) rotate(-60)"/><path class="cls-11" d="M463,222.71c.78-.45,1.41-.09,1.41.82A3.13,3.13,0,0,1,463,226c-.79.46-1.42.09-1.42-.82A3.11,3.11,0,0,1,463,222.71Z"/><path class="cls-11" d="M275.31,339.42a.31.31,0,0,1-.22-.09.32.32,0,0,1,0-.47l11.14-12.81s.05-.06.09-.07l11-6.33,11-3.58,11-11.41a.3.3,0,0,1,.13-.09l10.95-4,11-12.69a.34.34,0,0,1,.16-.1l10.86-3.14,11-34.87a.35.35,0,0,1,.28-.24.34.34,0,0,1,.33.17l10.94,19,10.87,0,10.82,0,10.94-19a.32.32,0,0,1,.19-.15l10.93-3.63,11-15.37a.35.35,0,0,1,.28-.14h22l11-6.33a.34.34,0,0,1,.34.59l-11,6.37a.34.34,0,0,1-.17.05h-21.9l-10.94,15.31a.31.31,0,0,1-.17.13L408,250.12l-11,19a.35.35,0,0,1-.3.17h0l-11,0-11.06,0h0a.36.36,0,0,1-.3-.17l-10.65-18.45L352.93,285a.35.35,0,0,1-.23.23l-10.94,3.15-11,12.68a.42.42,0,0,1-.14.09l-11,4-11,11.42a.42.42,0,0,1-.14.09l-11,3.58-10.84,6.26L275.57,339.3A.34.34,0,0,1,275.31,339.42Z"/><path class="cls-2" d="M275.34,346.11a.69.69,0,0,1-.59-.34.67.67,0,0,1,.25-.92L462.66,236.5a.68.68,0,0,1,.68,1.18L275.68,346A.6.6,0,0,1,275.34,346.11Z"/><path class="cls-11" d="M275.34,331.05c.78-.45,1.42-.08,1.42.82a3.17,3.17,0,0,1-1.42,2.46c-.78.45-1.42.08-1.42-.82A3.14,3.14,0,0,1,275.34,331.05Z"/><path class="cls-11" d="M286.38,311.93c.78-.45,1.42-.08,1.42.82a3.17,3.17,0,0,1-1.42,2.46c-.78.45-1.42.08-1.42-.82A3.14,3.14,0,0,1,286.38,311.93Z"/><ellipse class="cls-11" cx="297.42" cy="311.18" rx="2.01" ry="1.16" transform="translate(-120.78 413.19) rotate(-60)"/><path class="cls-11" d="M308.46,286.44c.78-.45,1.41-.09,1.41.82a3.13,3.13,0,0,1-1.41,2.45c-.79.46-1.42.09-1.42-.82A3.11,3.11,0,0,1,308.46,286.44Z"/><path class="cls-11" d="M319.51,292.81c.78-.45,1.42-.08,1.42.82a3.14,3.14,0,0,1-1.42,2.46c-.79.45-1.42.08-1.42-.82A3.11,3.11,0,0,1,319.51,292.81Z"/><path class="cls-11" d="M330.54,289.63c.78-.46,1.41-.09,1.41.81a3.13,3.13,0,0,1-1.41,2.46c-.79.45-1.42.09-1.42-.82A3.11,3.11,0,0,1,330.54,289.63Z"/><path class="cls-11" d="M341.57,280.07c.78-.46,1.42-.09,1.42.81a3.14,3.14,0,0,1-1.42,2.46c-.78.45-1.42.09-1.42-.82A3.14,3.14,0,0,1,341.57,280.07Z"/><path class="cls-11" d="M352.61,267.32c.78-.45,1.42-.09,1.42.82a3.17,3.17,0,0,1-1.42,2.46c-.78.45-1.42.08-1.42-.82A3.14,3.14,0,0,1,352.61,267.32Z"/><path class="cls-11" d="M363.65,264.13c.78-.45,1.42-.08,1.42.82a3.14,3.14,0,0,1-1.42,2.46c-.78.45-1.42.08-1.42-.82A3.17,3.17,0,0,1,363.65,264.13Z"/><path class="cls-11" d="M374.69,254.57c.78-.45,1.42-.08,1.42.82a3.14,3.14,0,0,1-1.42,2.46c-.79.45-1.42.08-1.42-.82A3.14,3.14,0,0,1,374.69,254.57Z"/><path class="cls-11" d="M385.73,254.57c.78-.45,1.41-.08,1.41.82a3.13,3.13,0,0,1-1.41,2.46c-.79.45-1.42.08-1.42-.82A3.14,3.14,0,0,1,385.73,254.57Z"/><path class="cls-11" d="M396.76,229.08c.79-.45,1.42-.08,1.42.82a3.14,3.14,0,0,1-1.42,2.46c-.78.45-1.41.08-1.41-.82A3.13,3.13,0,0,1,396.76,229.08Z"/><path class="cls-11" d="M407.8,241.74c.79-.46,1.42-.09,1.42.82A3.11,3.11,0,0,1,407.8,245c-.78.45-1.42.09-1.42-.82A3.14,3.14,0,0,1,407.8,241.74Z"/><path class="cls-11" d="M418.84,229.08c.78-.45,1.42-.08,1.42.82a3.17,3.17,0,0,1-1.42,2.46c-.78.45-1.42.08-1.42-.82A3.14,3.14,0,0,1,418.84,229.08Z"/><path class="cls-11" d="M429.88,222.71c.78-.45,1.42-.09,1.42.82a3.14,3.14,0,0,1-1.42,2.45c-.78.46-1.42.09-1.42-.82A3.14,3.14,0,0,1,429.88,222.71Z"/><path class="cls-11" d="M440.92,222.71c.78-.45,1.42-.09,1.42.82a3.14,3.14,0,0,1-1.42,2.45c-.78.46-1.42.09-1.42-.82A3.11,3.11,0,0,1,440.92,222.71Z"/><path class="cls-11" d="M452,216.33c.78-.45,1.42-.08,1.42.82a3.14,3.14,0,0,1-1.42,2.46c-.79.45-1.42.09-1.42-.82A3.14,3.14,0,0,1,452,216.33Z"/><path class="cls-11" d="M463,216.33c.78-.45,1.41-.08,1.41.82a3.13,3.13,0,0,1-1.41,2.46c-.79.45-1.42.09-1.42-.82A3.14,3.14,0,0,1,463,216.33Z"/><path class="cls-11" d="M275.34,333a.34.34,0,0,1-.17,0,.33.33,0,0,1-.12-.46l11.11-19.17a.35.35,0,0,1,.23-.16l10.79-2.3,11-23a.35.35,0,0,1,.2-.18.39.39,0,0,1,.28,0l10.92,6.31L330.37,291l11-9.5,11-12.72a.39.39,0,0,1,.17-.11l11-3.17,11-9.51a.4.4,0,0,1,.23-.08H385.5l10.95-25.29a.38.38,0,0,1,.26-.2.34.34,0,0,1,.31.12L407.8,243l10.78-12.45.09-.08L429.75,224a.34.34,0,0,1,.17-.05h10.95l10.92-6.3a.34.34,0,0,1,.17-.05h11a.34.34,0,1,1,0,.68H452.05l-10.92,6.31a.33.33,0,0,1-.17,0H430L419.06,231l-11,12.71a.35.35,0,0,1-.51,0l-10.69-12.34-10.82,25a.35.35,0,0,1-.31.2H374.81L363.87,266l-.13.07-10.94,3.16-11,12.67-11.05,9.59a.33.33,0,0,1-.13.07l-11,3.19a.3.3,0,0,1-.26,0l-10.74-6.2-10.88,22.78a.37.37,0,0,1-.23.19l-10.81,2.3-11.05,19A.32.32,0,0,1,275.34,333Z"/><g class="cls-20"><path d="M275.34,331.05c.78-.45,1.42-.08,1.42.82a3.17,3.17,0,0,1-1.42,2.46c-.78.45-1.42.08-1.42-.82A3.14,3.14,0,0,1,275.34,331.05Z"/><path d="M286.38,311.93c.78-.45,1.42-.08,1.42.82a3.17,3.17,0,0,1-1.42,2.46c-.78.45-1.42.08-1.42-.82A3.14,3.14,0,0,1,286.38,311.93Z"/><ellipse cx="297.42" cy="311.18" rx="2.01" ry="1.16" transform="translate(-120.78 413.19) rotate(-60)"/><path d="M308.46,286.44c.78-.45,1.41-.09,1.41.82a3.13,3.13,0,0,1-1.41,2.45c-.79.46-1.42.09-1.42-.82A3.11,3.11,0,0,1,308.46,286.44Z"/><path d="M319.51,292.81c.78-.45,1.42-.08,1.42.82a3.14,3.14,0,0,1-1.42,2.46c-.79.45-1.42.08-1.42-.82A3.11,3.11,0,0,1,319.51,292.81Z"/><path d="M330.54,289.63c.78-.46,1.41-.09,1.41.81a3.13,3.13,0,0,1-1.41,2.46c-.79.45-1.42.09-1.42-.82A3.11,3.11,0,0,1,330.54,289.63Z"/><path d="M341.57,280.07c.78-.46,1.42-.09,1.42.81a3.14,3.14,0,0,1-1.42,2.46c-.78.45-1.42.09-1.42-.82A3.14,3.14,0,0,1,341.57,280.07Z"/><path d="M352.61,267.32c.78-.45,1.42-.09,1.42.82a3.17,3.17,0,0,1-1.42,2.46c-.78.45-1.42.08-1.42-.82A3.14,3.14,0,0,1,352.61,267.32Z"/><path d="M363.65,264.13c.78-.45,1.42-.08,1.42.82a3.14,3.14,0,0,1-1.42,2.46c-.78.45-1.42.08-1.42-.82A3.17,3.17,0,0,1,363.65,264.13Z"/><path d="M374.69,254.57c.78-.45,1.42-.08,1.42.82a3.14,3.14,0,0,1-1.42,2.46c-.79.45-1.42.08-1.42-.82A3.14,3.14,0,0,1,374.69,254.57Z"/><path d="M385.73,254.57c.78-.45,1.41-.08,1.41.82a3.13,3.13,0,0,1-1.41,2.46c-.79.45-1.42.08-1.42-.82A3.14,3.14,0,0,1,385.73,254.57Z"/><path d="M396.76,229.08c.79-.45,1.42-.08,1.42.82a3.14,3.14,0,0,1-1.42,2.46c-.78.45-1.41.08-1.41-.82A3.13,3.13,0,0,1,396.76,229.08Z"/><path d="M407.8,241.74c.79-.46,1.42-.09,1.42.82A3.11,3.11,0,0,1,407.8,245c-.78.45-1.42.09-1.42-.82A3.14,3.14,0,0,1,407.8,241.74Z"/><path d="M418.84,229.08c.78-.45,1.42-.08,1.42.82a3.17,3.17,0,0,1-1.42,2.46c-.78.45-1.42.08-1.42-.82A3.14,3.14,0,0,1,418.84,229.08Z"/><path d="M429.88,222.71c.78-.45,1.42-.09,1.42.82a3.14,3.14,0,0,1-1.42,2.45c-.78.46-1.42.09-1.42-.82A3.14,3.14,0,0,1,429.88,222.71Z"/><path d="M440.92,222.71c.78-.45,1.42-.09,1.42.82a3.14,3.14,0,0,1-1.42,2.45c-.78.46-1.42.09-1.42-.82A3.11,3.11,0,0,1,440.92,222.71Z"/><path d="M452,216.33c.78-.45,1.42-.08,1.42.82a3.14,3.14,0,0,1-1.42,2.46c-.79.45-1.42.09-1.42-.82A3.14,3.14,0,0,1,452,216.33Z"/><path d="M463,216.33c.78-.45,1.41-.08,1.41.82a3.13,3.13,0,0,1-1.41,2.46c-.79.45-1.42.09-1.42-.82A3.14,3.14,0,0,1,463,216.33Z"/><path d="M275.34,333a.34.34,0,0,1-.17,0,.33.33,0,0,1-.12-.46l11.11-19.17a.35.35,0,0,1,.23-.16l10.79-2.3,11-23a.35.35,0,0,1,.2-.18.39.39,0,0,1,.28,0l10.92,6.31L330.37,291l11-9.5,11-12.72a.39.39,0,0,1,.17-.11l11-3.17,11-9.51a.4.4,0,0,1,.23-.08H385.5l10.95-25.29a.38.38,0,0,1,.26-.2.34.34,0,0,1,.31.12L407.8,243l10.78-12.45.09-.08L429.75,224a.34.34,0,0,1,.17-.05h10.95l10.92-6.3a.34.34,0,0,1,.17-.05h11a.34.34,0,1,1,0,.68H452.05l-10.92,6.31a.33.33,0,0,1-.17,0H430L419.06,231l-11,12.71a.35.35,0,0,1-.51,0l-10.69-12.34-10.82,25a.35.35,0,0,1-.31.2H374.81L363.87,266l-.13.07-10.94,3.16-11,12.67-11.05,9.59a.33.33,0,0,1-.13.07l-11,3.19a.3.3,0,0,1-.26,0l-10.74-6.2-10.88,22.78a.37.37,0,0,1-.23.19l-10.81,2.3-11.05,19A.32.32,0,0,1,275.34,333Z"/></g><path class="cls-2" d="M281.12,283.76l10.69-6.2c.54-.31,1-.09,1,.49a2.1,2.1,0,0,1-1,1.63l-10.69,6.2c-.54.32-1,.09-1-.49A2.1,2.1,0,0,1,281.12,283.76Z"/><path class="cls-11" d="M275.34,286.44c.78-.45,1.42-.09,1.42.82a3.14,3.14,0,0,1-1.42,2.45c-.78.46-1.42.09-1.42-.81A3.14,3.14,0,0,1,275.34,286.44Z"/><path class="cls-21" d="M275.34,286.44c.78-.45,1.42-.09,1.42.82a3.14,3.14,0,0,1-1.42,2.45c-.78.46-1.42.09-1.42-.81A3.14,3.14,0,0,1,275.34,286.44Z"/><path class="cls-2" d="M281.12,290.12l10.69-6.21c.54-.31,1-.09,1,.5a2.1,2.1,0,0,1-1,1.63l-10.69,6.2c-.54.31-1,.09-1-.5A2.1,2.1,0,0,1,281.12,290.12Z"/><path class="cls-11" d="M275.34,292.81c.78-.45,1.42-.08,1.42.82a3.14,3.14,0,0,1-1.42,2.46c-.78.45-1.42.08-1.42-.82A3.14,3.14,0,0,1,275.34,292.81Z"/><path class="cls-11" d="M275.34,377.73a.38.38,0,0,1-.24-.09.34.34,0,0,1,0-.48l5.6-5.76,5.5-.7,5.55-7.17,5.56.76,5.4-4.88,5.51-3.3,5.62-7.79,5.58,1.75,5.37-4.8a.34.34,0,1,1,.45.51l-5.65,5.05-5.48-1.72-5.48,7.54L303.11,360l-5.58,5-5.48-.75-5.49,7.09L281,372l-5.43,5.59A.35.35,0,0,1,275.34,377.73Z"/><path class="cls-9" d="M277.52,359.09l.14-.12.15-.1a1.57,1.57,0,0,1,.84-.26,1,1,0,0,1,.66.25,1.68,1.68,0,0,1,.44.7,3.53,3.53,0,0,1,.16,1.09,5.46,5.46,0,0,1-.16,1.27,6,6,0,0,1-.44,1.21,4.7,4.7,0,0,1-.66,1,3.27,3.27,0,0,1-.84.71,1.6,1.6,0,0,1-.83.25,1,1,0,0,1-.67-.25,1.61,1.61,0,0,1-.43-.7,3.21,3.21,0,0,1-.16-1.09,5.36,5.36,0,0,1,0-.7c0-.23.08-.45.14-.67s.12-.42.19-.63l.21-.59,1.47-4.18a2.2,2.2,0,0,0,.09-.21.42.42,0,0,1,.16-.19l.46-.26c.05,0,.09,0,.12,0a.27.27,0,0,1,0,.17.28.28,0,0,1,0,.1l0,.08Zm-1,3.54a2.17,2.17,0,0,0,.09.65,1.09,1.09,0,0,0,.26.45.66.66,0,0,0,.42.17,1,1,0,0,0,.55-.16,2.26,2.26,0,0,0,.56-.47,3.18,3.18,0,0,0,.41-.66,4,4,0,0,0,.27-.75,3.35,3.35,0,0,0,.09-.76,2.19,2.19,0,0,0-.09-.66,1,1,0,0,0-.27-.44.62.62,0,0,0-.41-.18,1.09,1.09,0,0,0-.56.16,2.07,2.07,0,0,0-.55.48,3.7,3.7,0,0,0-.42.66,3.6,3.6,0,0,0-.26.74A3.44,3.44,0,0,0,276.49,362.63Z"/><path class="cls-9" d="M281.28,360.63a1.6,1.6,0,0,0,.11.33.45.45,0,0,0,.22.23.65.65,0,0,0,.38,0,2,2,0,0,0,.62-.26,2.37,2.37,0,0,0,.48-.37,2.28,2.28,0,0,0,.39-.52,2.35,2.35,0,0,0,.27-.65,2.64,2.64,0,0,0,.1-.76,1.73,1.73,0,0,0-.09-.62.58.58,0,0,0-.27-.3.64.64,0,0,0-.39,0,2.18,2.18,0,0,0-.49.21l-.67.38c-.06,0-.11,0-.15,0a.23.23,0,0,1-.07-.2v-.44a.64.64,0,0,1,0-.23c0-.08.05-.15.08-.22l1.46-3.25L281,355.32a.12.12,0,0,1-.15,0,.24.24,0,0,1-.07-.2v-.45a.54.54,0,0,1,.07-.27.42.42,0,0,1,.15-.19l3.18-1.84a.12.12,0,0,1,.16,0,.25.25,0,0,1,.06.19V353a.67.67,0,0,1,0,.24,1.53,1.53,0,0,1-.11.27l-1.43,3.2a1.57,1.57,0,0,1,.74-.23.87.87,0,0,1,.58.17,1.29,1.29,0,0,1,.37.58,3.06,3.06,0,0,1,.13,1,4.61,4.61,0,0,1-.16,1.23,5.36,5.36,0,0,1-.43,1.1,4.12,4.12,0,0,1-.64.89,3.09,3.09,0,0,1-.78.64,2.26,2.26,0,0,1-.93.34,1,1,0,0,1-.65-.13,1.1,1.1,0,0,1-.38-.49,2.32,2.32,0,0,1-.13-.73.63.63,0,0,1,.05-.22.33.33,0,0,1,.13-.15l.37-.22c.06,0,.11,0,.14,0A.21.21,0,0,1,281.28,360.63Z"/><path class="cls-9" d="M286.08,357.86a2.19,2.19,0,0,0,.12.33.49.49,0,0,0,.22.23.58.58,0,0,0,.38,0,1.82,1.82,0,0,0,.62-.26,2.18,2.18,0,0,0,.47-.36,2.57,2.57,0,0,0,.4-.52,3.42,3.42,0,0,0,.27-.65,2.68,2.68,0,0,0,.1-.76,1.57,1.57,0,0,0-.1-.63.54.54,0,0,0-.26-.29.63.63,0,0,0-.39,0,2,2,0,0,0-.49.21l-.67.39a.13.13,0,0,1-.16,0,.28.28,0,0,1-.06-.2v-.45a.66.66,0,0,1,0-.23l.09-.22,1.45-3.25-2.32,1.35a.13.13,0,0,1-.16,0,.3.3,0,0,1-.06-.2v-.45a.74.74,0,0,1,.06-.28.41.41,0,0,1,.16-.18l3.18-1.84a.12.12,0,0,1,.15,0,.28.28,0,0,1,.07.2v.45a1.2,1.2,0,0,1,0,.24l-.11.27-1.43,3.2a1.72,1.72,0,0,1,.74-.24.81.81,0,0,1,.57.18,1.17,1.17,0,0,1,.37.58,3,3,0,0,1,.14,1,5.08,5.08,0,0,1-.16,1.24,5.29,5.29,0,0,1-.44,1.09,4.83,4.83,0,0,1-.63.9,3.43,3.43,0,0,1-.78.63,2.34,2.34,0,0,1-.94.35.94.94,0,0,1-1-.63,2,2,0,0,1-.14-.72.49.49,0,0,1,.06-.23.31.31,0,0,1,.12-.15l.37-.21q.09-.06.15,0A.26.26,0,0,1,286.08,357.86Z"/><path class="cls-2" d="M276.34,382.12,324,354.48c.55-.31,1-.09,1,.5a2.07,2.07,0,0,1-1,1.62l-47.69,27.64c-.54.32-1,.09-1-.49A2.1,2.1,0,0,1,276.34,382.12Z"/><path class="cls-2" d="M276.34,350.24,287,344c.54-.31,1-.09,1,.5a2.1,2.1,0,0,1-1,1.63l-10.69,6.2c-.54.31-1,.09-1-.5A2.1,2.1,0,0,1,276.34,350.24Z"/><path class="cls-11" d="M275.34,415.94a.34.34,0,0,1-.24-.58l5.6-5.76,5.53-.7,5.58-4.87,5.37-1.47,5.6-11.15,5.62,2.75,5.42-4.77.09,0,5.38-1,5.43-9.39a.33.33,0,0,1,.46-.13.35.35,0,0,1,.13.47L319.72,389,314.13,390l-5.62,5-5.42-2.65-5.44,10.82-5.59,1.52-5.53,4.89-5.51.7-5.43,5.58A.36.36,0,0,1,275.34,415.94Z"/><g class="cls-20"><path d="M275.34,415.94a.34.34,0,0,1-.24-.58l5.6-5.76,5.53-.7,5.58-4.87,5.37-1.47,5.6-11.15,5.62,2.75,5.42-4.77.09,0,5.38-1,5.43-9.39a.33.33,0,0,1,.46-.13.35.35,0,0,1,.13.47L319.72,389,314.13,390l-5.62,5-5.42-2.65-5.44,10.82-5.59,1.52-5.53,4.89-5.51.7-5.43,5.58A.36.36,0,0,1,275.34,415.94Z"/></g><path class="cls-9" d="M278.16,402.4a.71.71,0,0,1-.06.28.52.52,0,0,1-.16.19l-.33.19a.12.12,0,0,1-.15,0,.3.3,0,0,1-.07-.2V396l-1.3,2.29a.35.35,0,0,1-.17.17.12.12,0,0,1-.14,0l-.19-.28a.29.29,0,0,1,0-.22.62.62,0,0,1,.09-.27l1.72-3a.8.8,0,0,1,.13-.16l.13-.09.33-.19a.13.13,0,0,1,.16,0,.28.28,0,0,1,.06.2Z"/><path class="cls-9" d="M281.69,396.13a5.27,5.27,0,0,0,.36-.9,3.55,3.55,0,0,0,.12-1,1.44,1.44,0,0,0-.25-.95c-.16-.2-.43-.19-.79,0a1.89,1.89,0,0,0-.48.4,2.69,2.69,0,0,0-.33.54,3,3,0,0,0-.21.62c-.05.21-.09.43-.12.65a.88.88,0,0,1-.09.26.35.35,0,0,1-.12.14l-.38.22a.09.09,0,0,1-.12,0,.19.19,0,0,1,0-.16,4.74,4.74,0,0,1,.13-1,5.34,5.34,0,0,1,.38-1.08,5,5,0,0,1,.59-1,2.86,2.86,0,0,1,.8-.72,1.51,1.51,0,0,1,.79-.24.79.79,0,0,1,.56.25,1.38,1.38,0,0,1,.34.65,3.45,3.45,0,0,1,.12,1,5.7,5.7,0,0,1,0,.74,4.11,4.11,0,0,1-.13.7,5.28,5.28,0,0,1-.24.7,7.28,7.28,0,0,1-.36.76l-1.8,3.63,2.47-1.42a.12.12,0,0,1,.16,0,.27.27,0,0,1,.06.2v.44a.71.71,0,0,1-.06.28.41.41,0,0,1-.16.18l-3.48,2a.1.1,0,0,1-.15,0,.27.27,0,0,1-.06-.2v-.44a.75.75,0,0,1,0-.26,2.15,2.15,0,0,1,.13-.32Z"/><path class="cls-9" d="M288.08,391.62c0,.37,0,.71,0,1s0,.68,0,1.06a9.49,9.49,0,0,1-.13,1.42,6.64,6.64,0,0,1-.38,1.31,4.78,4.78,0,0,1-.63,1.08,3.2,3.2,0,0,1-.92.8,1.58,1.58,0,0,1-.92.26.88.88,0,0,1-.63-.35,2.2,2.2,0,0,1-.38-.87,6.8,6.8,0,0,1-.13-1.27c0-.37,0-.72,0-1.05s0-.68,0-1.06a9.49,9.49,0,0,1,.13-1.42,6.64,6.64,0,0,1,.38-1.31,4.85,4.85,0,0,1,.63-1.09,3.2,3.2,0,0,1,.92-.8,1.58,1.58,0,0,1,.92-.26.93.93,0,0,1,.63.36,2.2,2.2,0,0,1,.38.87A6.82,6.82,0,0,1,288.08,391.62Zm-3.36,4a2.53,2.53,0,0,0,.34,1.54c.22.25.54.25,1,0a2.39,2.39,0,0,0,1-1.11,5,5,0,0,0,.34-1.94c0-.38,0-.73,0-1.06s0-.68,0-1.05a2.53,2.53,0,0,0-.34-1.54c-.22-.26-.54-.26-1,0a2.32,2.32,0,0,0-1,1.12,5.05,5.05,0,0,0-.34,1.95c0,.37,0,.72,0,1.05S284.71,395.29,284.72,395.66Z"/><path class="cls-2" d="M276.34,420.32,324,392.69c.55-.32,1-.1,1,.49a2.07,2.07,0,0,1-1,1.63l-47.69,27.64c-.54.31-1,.09-1-.5A2.13,2.13,0,0,1,276.34,420.32Z"/><path class="cls-2" d="M276.34,388.44l10.69-6.2c.54-.31,1-.09,1,.5a2.1,2.1,0,0,1-1,1.62l-10.69,6.21c-.54.31-1,.09-1-.5A2.1,2.1,0,0,1,276.34,388.44Z"/><path class="cls-11" d="M341.57,339.42a.33.33,0,0,1-.26-.13.34.34,0,0,1,.05-.48l5.52-4.4,5.56-6.35,5.64-.82,5.38-1.22,5.58-6.58,5.48,1,5.5-8.71,5.59.09L391,307a.34.34,0,0,1,.48,0,.34.34,0,0,1,0,.48l-5.6,5-5.48-.09-5.54,8.78-5.55-1-5.47,6.46-5.63,1.27-5.42.78-5.43,6.21-5.57,4.44A.32.32,0,0,1,341.57,339.42Z"/><path class="cls-9" d="M343.75,320.78l.15-.13a.65.65,0,0,1,.15-.1,1.52,1.52,0,0,1,.83-.25.92.92,0,0,1,.66.25,1.56,1.56,0,0,1,.44.7,3.44,3.44,0,0,1,.16,1.09,5.59,5.59,0,0,1-.16,1.27,5.91,5.91,0,0,1-.44,1.2,4.47,4.47,0,0,1-.66,1,3.05,3.05,0,0,1-.83.71,1.57,1.57,0,0,1-.84.25,1,1,0,0,1-.66-.25,1.56,1.56,0,0,1-.44-.7,3.17,3.17,0,0,1-.16-1.09,5.36,5.36,0,0,1,.05-.7c0-.23.09-.45.14-.66s.12-.43.19-.64l.21-.59L344,318a2.2,2.2,0,0,0,.09-.21.35.35,0,0,1,.16-.18l.46-.27a.09.09,0,0,1,.12,0,.29.29,0,0,1,.05.17.36.36,0,0,1,0,.11l0,.08Zm-1,3.53a2.08,2.08,0,0,0,.09.65,1.1,1.1,0,0,0,.27.45.62.62,0,0,0,.41.18,1,1,0,0,0,.56-.17,2.19,2.19,0,0,0,.55-.47,3.18,3.18,0,0,0,.41-.66,4,4,0,0,0,.27-.75,3.35,3.35,0,0,0,.09-.76,2.19,2.19,0,0,0-.09-.66,1.13,1.13,0,0,0-.27-.44.62.62,0,0,0-.41-.18,1,1,0,0,0-.55.17,1.9,1.9,0,0,0-.56.47,3.18,3.18,0,0,0-.41.66,4,4,0,0,0-.27.75A3.35,3.35,0,0,0,342.72,324.31Z"/><path class="cls-9" d="M349.35,318.78a6.37,6.37,0,0,0,.37-.9,4,4,0,0,0,.12-1,1.53,1.53,0,0,0-.25-1c-.17-.2-.44-.19-.8,0a1.86,1.86,0,0,0-.48.4,2.62,2.62,0,0,0-.33.53,3.23,3.23,0,0,0-.21.62c0,.22-.09.43-.12.65a.88.88,0,0,1-.09.26.49.49,0,0,1-.12.15l-.37.21a.09.09,0,0,1-.13,0,.19.19,0,0,1-.05-.16,4.74,4.74,0,0,1,.13-1,5.93,5.93,0,0,1,.38-1.07,5.1,5.1,0,0,1,.59-1,2.68,2.68,0,0,1,.8-.71,1.63,1.63,0,0,1,.79-.25.88.88,0,0,1,.56.25,1.49,1.49,0,0,1,.35.65,4,4,0,0,1,.11,1,5.86,5.86,0,0,1,0,.75,4.19,4.19,0,0,1-.13.69,5.28,5.28,0,0,1-.24.7c-.1.24-.21.5-.35.77L348,323l2.46-1.42a.12.12,0,0,1,.16,0,.28.28,0,0,1,.06.2v.45a.66.66,0,0,1-.06.27.38.38,0,0,1-.16.19l-3.48,2a.12.12,0,0,1-.15,0,.3.3,0,0,1-.06-.2V324a.75.75,0,0,1,0-.26,2.15,2.15,0,0,1,.13-.32Z"/><path class="cls-9" d="M354.84,311.48a.12.12,0,0,1,.16,0,.28.28,0,0,1,.06.2v.45a2.32,2.32,0,0,1,0,.24c0,.1,0,.2-.07.3l-1.79,8.17a2.41,2.41,0,0,1-.08.25.4.4,0,0,1-.16.18l-.37.21a.09.09,0,0,1-.13,0,.21.21,0,0,1-.06-.17v-.06s0-.06,0-.11l1.81-8.18-2.65,1.53a.11.11,0,0,1-.16,0,.25.25,0,0,1-.06-.19v-.45a.74.74,0,0,1,.06-.28.52.52,0,0,1,.16-.19Z"/><path class="cls-2" d="M342.57,343.8l47.7-27.64c.54-.31,1-.09,1,.5a2.12,2.12,0,0,1-1,1.63l-47.7,27.64c-.54.31-1,.09-1-.5A2.1,2.1,0,0,1,342.57,343.8Z"/><path class="cls-2" d="M342.57,311.92l10.69-6.2c.54-.32,1-.09,1,.49a2.1,2.1,0,0,1-1,1.63L342.57,314c-.54.32-1,.09-1-.49A2.1,2.1,0,0,1,342.57,311.92Z"/><path class="cls-11" d="M341.57,377.62a.34.34,0,0,1-.17-.05.34.34,0,0,1-.12-.47l5.64-9.25,5.68,1,5.34-1.46,5.52-6.73,5.48-1.39,5.58-9.94,5.7,1.66,5.36-1,5.44-4.84a.34.34,0,0,1,.45.51l-5.58,5-.09,0-5.61,1.07-5.34-1.55-5.46,9.72-5.55,1.4L358.32,368l-.1,0-5.59,1.53-.08,0-5.29-1-5.4,8.85A.34.34,0,0,1,341.57,377.62Z"/><g class="cls-20"><path d="M341.57,377.62a.34.34,0,0,1-.17-.05.34.34,0,0,1-.12-.47l5.64-9.25,5.68,1,5.34-1.46,5.52-6.73,5.48-1.39,5.58-9.94,5.7,1.66,5.36-1,5.44-4.84a.34.34,0,0,1,.45.51l-5.58,5-.09,0-5.61,1.07-5.34-1.55-5.46,9.72-5.55,1.4L358.32,368l-.1,0-5.59,1.53-.08,0-5.29-1-5.4,8.85A.34.34,0,0,1,341.57,377.62Z"/></g><path class="cls-9" d="M344.12,361.59a.59.59,0,0,1-.11.09l-.1.06a1.64,1.64,0,0,1-.75.24.93.93,0,0,1-.65-.19,1.47,1.47,0,0,1-.46-.66,3.32,3.32,0,0,1-.17-1.15,5,5,0,0,1,.16-1.26,6.12,6.12,0,0,1,.44-1.18,5,5,0,0,1,.65-1,2.89,2.89,0,0,1,.78-.68,1.59,1.59,0,0,1,.84-.26.93.93,0,0,1,.64.25,1.54,1.54,0,0,1,.4.69,3.48,3.48,0,0,1,.14,1.09,4,4,0,0,1-.06.66c0,.24-.1.47-.16.71s-.14.47-.21.69l-.21.62-1.47,4.18a2.2,2.2,0,0,0-.09.21.42.42,0,0,1-.16.19l-.46.26c-.05,0-.09,0-.12,0a.27.27,0,0,1,0-.17.31.31,0,0,1,0-.1l0-.08Zm1.05-3.51a2.22,2.22,0,0,0-.09-.67,1,1,0,0,0-.26-.43.7.7,0,0,0-.4-.15,1.08,1.08,0,0,0-.51.16,1.93,1.93,0,0,0-.51.44,2.73,2.73,0,0,0-.4.6,3.51,3.51,0,0,0-.26.73,3.46,3.46,0,0,0-.09.78,2.22,2.22,0,0,0,.09.67,1,1,0,0,0,.26.42.57.57,0,0,0,.4.15.94.94,0,0,0,.51-.16,1.83,1.83,0,0,0,.51-.43,2.92,2.92,0,0,0,.4-.61,3.82,3.82,0,0,0,.26-.72A3.39,3.39,0,0,0,345.17,358.08Z"/><path class="cls-9" d="M347.27,360.66a1.17,1.17,0,0,0,.11.33.45.45,0,0,0,.22.23.58.58,0,0,0,.38,0,1.89,1.89,0,0,0,.62-.25,2.37,2.37,0,0,0,.48-.37,2.28,2.28,0,0,0,.39-.52,2.48,2.48,0,0,0,.27-.65,2.64,2.64,0,0,0,.1-.76,1.73,1.73,0,0,0-.09-.62.5.5,0,0,0-.66-.31,1.54,1.54,0,0,0-.49.21l-.67.38a.11.11,0,0,1-.15,0,.23.23,0,0,1-.07-.2v-.44a.69.69,0,0,1,.05-.24c0-.08.05-.15.08-.21l1.45-3.25L347,355.35a.13.13,0,0,1-.16,0,.28.28,0,0,1-.06-.2v-.45a.66.66,0,0,1,.06-.27.45.45,0,0,1,.16-.19l3.18-1.84a.12.12,0,0,1,.15,0,.26.26,0,0,1,.07.2v.45a1.2,1.2,0,0,1,0,.24,1.53,1.53,0,0,1-.11.27l-1.43,3.2a1.72,1.72,0,0,1,.74-.24.87.87,0,0,1,.58.18,1.32,1.32,0,0,1,.37.58,3.06,3.06,0,0,1,.13,1,4.61,4.61,0,0,1-.16,1.23,5.05,5.05,0,0,1-.43,1.09,4.56,4.56,0,0,1-.64.9,3.28,3.28,0,0,1-.78.64,2.26,2.26,0,0,1-.93.34,1,1,0,0,1-.65-.13,1,1,0,0,1-.38-.49,2.11,2.11,0,0,1-.13-.73.59.59,0,0,1,.05-.22.35.35,0,0,1,.13-.16l.37-.21a.12.12,0,0,1,.14,0A.26.26,0,0,1,347.27,360.66Z"/><path class="cls-2" d="M342.57,382l47.7-27.64c.54-.31,1-.09,1,.49a2.1,2.1,0,0,1-1,1.63l-47.7,27.64c-.54.31-1,.09-1-.5A2.1,2.1,0,0,1,342.57,382Z"/><path class="cls-2" d="M342.57,350.12l10.69-6.2c.54-.31,1-.09,1,.5a2.13,2.13,0,0,1-1,1.63l-10.69,6.2c-.54.31-1,.09-1-.5A2.13,2.13,0,0,1,342.57,350.12Z"/><path class="cls-11" d="M413.32,277.39c2.36-1.36,4.53-1.43,6.29-.47l-6.29,17Z"/><path class="cls-11" d="M407,284.19a18.79,18.79,0,0,1,6.29-6.8v16.5Z"/><path class="cls-11" d="M403.14,294.67A32.84,32.84,0,0,1,407,284.19l6.29,9.7Z"/><path class="cls-21" d="M407,284.19a32.84,32.84,0,0,0-3.89,10.48l10.18-.78v-16.5A18.79,18.79,0,0,0,407,284.19Z"/><path class="cls-11" d="M419.61,276.92c1.81,1,3.19,3.05,3.9,6l-10.19,11Z"/><path class="cls-11" d="M403.14,304.87a20.61,20.61,0,0,1-.53-4.8,29.32,29.32,0,0,1,.53-5.4l10.18-.78Z"/><path class="cls-11" d="M423.51,293.1a33.15,33.15,0,0,1-3.9,10.49l-6.29-9.7Z"/><path class="cls-11" d="M413.32,310.38c-2.35,1.36-4.52,1.43-6.29.47l6.29-17Z"/><path class="cls-11" d="M403.14,304.87l10.18-11-6.29,17C405.22,309.87,403.84,307.8,403.14,304.87Z"/><path class="cls-11" d="M423.51,282.91a20.46,20.46,0,0,1,.53,4.79,29.23,29.23,0,0,1-.53,5.4l-10.19.79Z"/><path class="cls-11" d="M419.61,303.59a18.59,18.59,0,0,1-6.29,6.79V293.89Z"/><path class="cls-9" d="M408,318.8l10.69-6.21c.54-.31,1-.09,1,.5a2.12,2.12,0,0,1-1,1.63L408,320.92c-.54.31-1,.09-1-.5A2.1,2.1,0,0,1,408,318.8Z"/><path class="cls-2" d="M405.62,326.55l15.4-8.94c.55-.31,1-.09,1,.5a2.09,2.09,0,0,1-1,1.63l-15.4,8.93c-.54.32-1,.09-1-.49A2.1,2.1,0,0,1,405.62,326.55Z"/><path class="cls-2" d="M405.62,332.94,421,324c.55-.31,1-.09,1,.5a2.07,2.07,0,0,1-1,1.62l-15.4,8.94c-.54.31-1,.09-1-.5A2.1,2.1,0,0,1,405.62,332.94Z"/><path class="cls-2" d="M405.62,339.32l15.4-8.93c.55-.31,1-.09,1,.49a2.07,2.07,0,0,1-1,1.63l-15.4,8.94c-.54.31-1,.09-1-.5A2.13,2.13,0,0,1,405.62,339.32Z"/><path class="cls-11" d="M452,255c2.35-1.35,4.52-1.42,6.29-.46l-6.29,17Z"/><path class="cls-11" d="M445.67,261.8A18.62,18.62,0,0,1,452,255v16.5Z"/><path class="cls-11" d="M441.77,272.28a33.1,33.1,0,0,1,3.9-10.48l6.29,9.7Z"/><path class="cls-11" d="M458.25,254.54c1.81,1,3.19,3,3.89,6L452,271.5Z"/><path class="cls-11" d="M441.77,282.48a20.55,20.55,0,0,1-.53-4.8,29.4,29.4,0,0,1,.53-5.4L452,271.5Z"/><path class="cls-11" d="M462.14,270.71a32.81,32.81,0,0,1-3.89,10.49L452,271.5Z"/><path class="cls-11" d="M452,288c-2.36,1.36-4.53,1.43-6.29.47l6.29-17Z"/><path class="cls-11" d="M441.77,282.48l10.19-11-6.29,17C443.86,287.48,442.48,285.41,441.77,282.48Z"/><path class="cls-21" d="M445.67,261.8a33.1,33.1,0,0,0-3.9,10.48,29.4,29.4,0,0,0-.53,5.4,20.55,20.55,0,0,0,.53,4.8c.71,2.93,2.09,5,3.9,6l6.29-17V255A18.62,18.62,0,0,0,445.67,261.8Z"/><path class="cls-11" d="M462.14,260.52a20.46,20.46,0,0,1,.53,4.79,29.23,29.23,0,0,1-.53,5.4L452,271.5Z"/><path class="cls-11" d="M458.25,281.2A18.67,18.67,0,0,1,452,288V271.5Z"/><path class="cls-9" d="M446.61,296.49l10.69-6.2c.54-.32,1-.09,1,.49a2.1,2.1,0,0,1-1,1.63l-10.69,6.2c-.54.32-1,.09-1-.49A2.1,2.1,0,0,1,446.61,296.49Z"/><path class="cls-2" d="M444.26,304.24l15.4-8.93c.54-.32,1-.09,1,.49a2.1,2.1,0,0,1-1,1.63l-15.4,8.94c-.54.31-1,.09-1-.5A2.12,2.12,0,0,1,444.26,304.24Z"/><path class="cls-2" d="M444.26,310.63l15.4-8.93c.54-.32,1-.1,1,.49a2.1,2.1,0,0,1-1,1.63l-15.4,8.93c-.54.32-1,.1-1-.49A2.1,2.1,0,0,1,444.26,310.63Z"/><path class="cls-2" d="M444.26,317l15.4-8.94c.54-.31,1-.09,1,.5a2.12,2.12,0,0,1-1,1.63l-15.4,8.93c-.54.31-1,.09-1-.49A2.1,2.1,0,0,1,444.26,317Z"/></g><g id="Glass"><path class="cls-11" d="M451.75,476.17c.18-5.23-3.28-11.71-7.72-14.48-2.2-1.36-4.22-1.56-5.73-.79h0c-9.09,4.56-73,45.52-77.06,47.54l-.05,0a2.9,2.9,0,0,0-1.3,2.63,9.17,9.17,0,0,0,3.9,7.3,2.91,2.91,0,0,0,2.91.38l.06,0c6.47-3.56,69.52-30.43,82.41-37.34h0C450.69,480.59,451.66,478.78,451.75,476.17Z"/><path class="cls-22" d="M449.24,467.34a16.47,16.47,0,0,0-5.21-5.65c-2.19-1.36-4.21-1.56-5.71-.8-.3.17-.4.22-.19.1-8.3,4.25-55.84,34.58-71.84,44.44l-.1.06-.65.4-.2.12-.36.22-.43.26,0,0c-1.69,1-2.84,1.71-3.28,1.93l-.05,0a1.74,1.74,0,0,0-.38.29,3.21,3.21,0,0,0-.92,2.34,7,7,0,0,0,.05.91c0,.12,0,.24.06.36s.06.37.11.56.07.3.11.45l.18.52c0,.13.09.26.14.39l0,.06Z"/><path class="cls-11" d="M363.77,518.4a9.13,9.13,0,0,1-3.88-7.27c.09-2.63,2-3.63,4.2-2.24a9.13,9.13,0,0,1,3.88,7.27C367.88,518.78,366,519.79,363.77,518.4Z"/><path class="cls-7" d="M344.68,520.16a7,7,0,0,0,3,5.58,2.24,2.24,0,0,0,2.22.3h0l15.45-8.23h0a2.22,2.22,0,0,0,1-2,7,7,0,0,0-3-5.58,2.21,2.21,0,0,0-2.23-.3h0l-15.45,8.22h0A2.2,2.2,0,0,0,344.68,520.16Z"/><path class="cls-8" d="M345.68,518.14a2.2,2.2,0,0,0-1,2,5.9,5.9,0,0,0,.47,2.38l19.92-10.63a6,6,0,0,0-1.71-1.7,2.21,2.21,0,0,0-2.23-.3l-15.45,8.22Z"/><path class="cls-11" d="M364.5,533.87c0-9.9-6.54-19.8-19.63-27.36-26.17-15.11-68.6-15.11-94.77,0C237,514.07,230.47,524,230.47,533.87h0v18.24c0,9.9,6.54,19.81,19.63,27.36,26.17,15.11,68.6,15.11,94.77,0C358,571.92,364.5,562,364.5,552.11V533.87ZM253.34,512.13c11.69-6.75,27.36-10.47,44.15-10.47s32.46,3.72,44.14,10.47C352.2,518.23,358,526,358,533.87s-5.82,15.65-16.39,21.75c-11.68,6.75-27.36,10.46-44.14,10.46s-32.46-3.71-44.15-10.46c-10.57-6.1-16.39-13.83-16.39-21.75S242.77,518.23,253.34,512.13Z"/><path class="cls-23" d="M250.09,561.23c26.17,15.11,68.61,15.11,94.78,0s26.17-39.61,0-54.72-68.61-15.11-94.78,0S223.92,546.12,250.09,561.23ZM237,533.87c0-7.92,5.82-15.64,16.38-21.74,11.69-6.75,27.37-10.47,44.15-10.47s32.46,3.72,44.15,10.47C352.2,518.23,358,526,358,533.87s-5.82,15.65-16.39,21.75c-11.69,6.75-27.37,10.46-44.15,10.46s-32.46-3.71-44.15-10.46C242.77,549.52,237,541.79,237,533.87Z"/><path class="cls-11" d="M236.94,533.87a18.05,18.05,0,0,0,2.62,9.13c2.66-4.6,7.34-8.92,13.78-12.63,11.68-6.75,27.36-10.47,44.15-10.47s32.46,3.72,44.13,10.47c6.45,3.71,11.13,8,13.8,12.63a18.12,18.12,0,0,0,2.6-9.13c0-7.92-5.82-15.64-16.4-21.75-11.67-6.74-27.36-10.46-44.13-10.46s-32.47,3.72-44.15,10.46C242.76,518.23,236.94,526,236.94,533.87Z"/><path class="cls-22" d="M236.94,533.87a18.05,18.05,0,0,0,2.62,9.13c2.66-4.6,7.34-8.92,13.78-12.63,11.68-6.75,27.36-10.47,44.15-10.47s32.46,3.72,44.13,10.47c6.45,3.71,11.13,8,13.8,12.63a18.12,18.12,0,0,0,2.6-9.13c0-7.92-5.82-15.64-16.4-21.75-11.67-6.74-27.36-10.46-44.13-10.46s-32.47,3.72-44.15,10.46C242.76,518.23,236.94,526,236.94,533.87Z"/><path class="cls-24" d="M253.33,520.38c11.69-6.74,27.37-10.46,44.15-10.46s32.46,3.72,44.15,10.46c8.72,5,14.2,11.18,15.85,17.62-1.65,6.45-7.13,12.58-15.85,17.62-11.69,6.75-27.37,10.46-44.15,10.46s-32.46-3.71-44.15-10.46c-8.72-5-14.19-11.17-15.85-17.62C239.14,531.56,244.61,525.42,253.33,520.38Z"/><path class="cls-22" d="M281.69,571.49v18.22c-11.57-1.6-22.55-5-31.59-10.24C237,571.92,230.46,562,230.46,552.11V533.87a23,23,0,0,1,.81-6h0c-3.17,11.78,3.1,24.25,18.82,33.33C259.14,566.46,270.12,569.87,281.69,571.49Z"/></g><g id="Character"><path class="cls-25" d="M601.11,460.12c.79.32,1,1.85,1,4.88,0,2.29.44,6.31-2.26,7.05s-6.63.24-8.3-2c-2.09-2.75-3.49-5.15-6.48-8.51-2.59-2.92-5.41-5.65-6.39-9.68-.89-3.63-.05-5.19,2.45-6.18,3.42-1.37,8.65,3.47,11.29,4.28C594.71,450.69,600.31,459.8,601.11,460.12Z"/><path class="cls-26" d="M601.17,457.31l-.08,3.72s-3.94,2.89-9.41.05c-.15-.37-.85-5.35-.85-5.35Z"/><path class="cls-25" d="M570.5,480.88A62,62,0,0,1,572,487c.4,2.26,1,6,.15,7.7s-3.92,2.7-8.69,2.56c-3.08-.1-7.93,1.89-11.27,3.65s-10.52,2.42-14.11,1.91c-4.23-.59-8.56-3.14-9.21-4.91s.31-3.58,10.39-7.61c.09,0,14-4.21,18.94-9.43Z"/><path class="cls-26" d="M570.59,476.85s-.07,2.76-.1,4.34-1.93,3.89-6.75,3.61c-3.39-.2-5.73-1.16-5.53-3.95l.09-4Z"/><path class="cls-27" d="M604.7,408a101.56,101.56,0,0,0-4-19.48s1.7-16.68,2.69-32.51c1.08-17.11,2.07-25.91-1.29-50.61,0,0-52.43-4.71-53.86,15s.6,70.21,1.05,78.92,1.79,16.43,3.27,30.56c1.46,13.94,5.69,46.89,5.69,46.89,6.23,3.55,12.29,0,12.29,0s4.78-39.47,4.6-49.51a85.61,85.61,0,0,0-3.31-22s1.41-16.29,2.66-30.46,2.37-21,2.73-27.14l1.2-.56s.66,24.51,1.12,33.22,1.65,17.07,3.8,33.27c1.87,14.06,7.7,43.84,7.7,43.84,6.23,3.56,10.08-.22,10.08-.22S606.13,420.2,604.7,408Z"/><path class="cls-8" d="M577.27,347.76s13.55-6.3,20.39-12.1c0,0-6.43,8.63-14.69,12.34,0,0-3.59,30.35-3.56,29.74l-1-30Z"/><polygon class="cls-26" points="567.88 234.96 569.92 253.06 587.02 252.2 585.12 231.07 567.88 234.96"/><path class="cls-28" d="M593.46,241.89c6.37-.3,9.6.66,12.46,6.15s4,21.9,5,30.35,1.25,14.43-2.24,15.3-17,1.24-17,1.24Z"/><path class="cls-25" d="M604.21,251.27c-.93-5.07-7.59-10.39-13.82-9.38l-4.24.72c-.74,3-9.09,4.95-17.06,3.07-2.41.63-10.32,2.11-12.32,2.78-5.73,1.9-8.09,7.54-9,26.23,0,0,.46,42.32.24,50.75,14.15,6,29,6.13,37.24,4.52,17.17-3.34,19.39-10.38,19.39-10.38l-2.55-19.36S606.29,262.73,604.21,251.27Z"/><path class="cls-28" d="M568.55,240.93l.13,1.14a25.48,25.48,0,0,0,10.5,0c5.55-1.24,6.67-2.81,6.67-2.81l-.11-1.29s1.38-.51,2.11,1.61a24.63,24.63,0,0,1,.8,2.6s.64,3.89-5.89,5.87a20.17,20.17,0,0,1-16.26-1.78l-2.56.55s2.21-5.11,2.88-6.15a1.7,1.7,0,0,1,1.6-.88Z"/><polygon class="cls-9" points="516.36 221.51 482.46 239.21 499.3 285.26 530.94 267.54 516.36 221.51"/><polygon class="cls-1" points="514.8 226.02 486.36 240.87 501.27 280.46 527.81 265.6 514.8 226.02"/><path class="cls-10" d="M508.8,230.3s-.25-.63-.55-1.41-2.67-.32-5.29,1l-5,2.59c-2.61,1.35-4.48,3.08-4.18,3.85l.55,1.41Z"/><path class="cls-25" d="M508.25,224.66c-.19-.49-1.22-.41-2.3.18l-2,1.06s-1.21-3.05-5.72-.94-3.48,5.63-3.48,5.63l-2.08,1.15c-1.15.63-2,1.55-1.83,2l.25.9,17.47-9.12Z"/><path class="cls-11" d="M506.37,226.7c-1.63.8-2.27,1.19-1.8,2.39.53,1.37,1,2.35,1,2.35l-7.72,4s-.65-1.74-.93-2.41-.85-1-2.07-.35l-.46-.49L506.6,226Z"/><path class="cls-28" d="M506.37,226.7c-1.63.8-2.27,1.19-1.8,2.39.53,1.37,1,2.35,1,2.35l-7.72,4s-.65-1.74-.93-2.41-.85-1-2.07-.35l-.46-.49L506.6,226Z"/><path class="cls-25" d="M509.13,230.37s-.24-.63-.55-1.41-2.67-.31-5.29,1l-5,2.58c-2.62,1.35-4.49,3.08-4.19,3.86l.55,1.41Z"/><path class="cls-26" d="M556.77,248.46c-7.82.68-11.16,2.11-17,12.7-6.38,11.5-18.64,32.31-20.19,34.94-2.17,3.65-2.57,9.21-.71,12.57,1.75,3.13,7.28,4.57,13.55-2.51,7.45-8.43,21.33-29,21.33-29S565.5,261.61,556.77,248.46Z"/><path class="cls-26" d="M522.09,311.08c-6-.73-20-19.74-24-25.95A44.39,44.39,0,0,0,486,272.32c-6.35-4.69-5.43-11.9-2.65-18.5.95-2.29,4.21-.8,4.21-.8l1.14,3.13,2,5.43c1.35,1.25,2.11,1.66,2.2,1.28.17-.7-1-3.62-1-6.66,0-3.66,2.6-1.25,3.36,0a45.16,45.16,0,0,1,2.71,6c1.28,3.28.75,6.59,2.31,8.83s22.46,22.26,22.46,22.26Z"/><path class="cls-28" d="M558.28,248.05c-4.74-.12-10.44.64-14.85,6.37s-22.08,36.92-22.08,36.92l-9.91-8.89s-6.24,3.6-7.63,10.78a107.73,107.73,0,0,0,9,12.18c4.19,4.6,8.86,7.79,12.69,6.37s7.75-4.45,16-15.93,17.25-25,17.25-25S564.42,257.56,558.28,248.05Z"/><path class="cls-29" d="M555.83,212.79s-4.27,6.48-3.78,7.12,3.63,1.21,3.63,1.21Z"/><path class="cls-8" d="M557.83,217a5.09,5.09,0,1,1,5.09-5.09A5.1,5.1,0,0,1,557.83,217Zm0-9.05a4,4,0,1,0,3.95,4A4,4,0,0,0,557.83,207.91Z"/><path class="cls-26" d="M567.68,194.88c-8.63,1.82-11.13,5.61-11.94,19.34-.85,14.33.61,18.84,2.5,20.77,1.27,1.3,8.33,1.54,11.9.56,4.46-1.23,14.54-4.81,19.26-12,5.56-8.48,7-20,1.07-24.7C582.1,192.19,571.2,194.13,567.68,194.88Z"/><path class="cls-29" d="M568,236l-.4-2.64a17.16,17.16,0,0,1-8.86,2C560.38,236.13,564.68,236.36,568,236Z"/><polygon class="cls-8" points="553.22 210.81 568.58 212.79 567.96 213.87 553.22 211.96 553.22 210.81"/><path class="cls-8" d="M554.27,200.41a4.76,4.76,0,0,0,2-.11,3.08,3.08,0,0,0,1,3.6,4.34,4.34,0,0,0,3.87.51,3.72,3.72,0,0,0-.42,2.67,4.33,4.33,0,0,0,4.47,3.23c.09,2,.12,4,2.26,4.88,0,0,1.37-5.3,5.83-4.63s5.11,6.4,2.27,9.88-5.44,2.17-5.47,2.15c.26.13.35,1.82.44,2.14a15.78,15.78,0,0,0,1.15,2.9,13.89,13.89,0,0,0,4,4.74c2.34,1.72,5.2,2.95,8.11,2.25a8.71,8.71,0,0,0,5.9-4.75,5.07,5.07,0,0,1,1-1.71,5.54,5.54,0,0,1,2.2-1,6.46,6.46,0,0,0,3.65-9.12,5.93,5.93,0,0,0,2.27-10.36,7.1,7.1,0,0,0,3.06-7.72,7.22,7.22,0,0,0-5.1-4.89c-1.75-.51-1.08-.78-1.62-2.49a6.25,6.25,0,0,0-7.95-4.1,6,6,0,0,0-4.32-4.64,5.92,5.92,0,0,0-3-.12c-.72.19-2.2.85-2.46,1.54-.91-.9-1.21-2.08-2.32-2.89a6.61,6.61,0,0,0-3.92-1.3,6.7,6.7,0,0,0-5.72,3.36,8.05,8.05,0,0,0-6-2.53,6.56,6.56,0,0,0-5.5,3.35,5.59,5.59,0,0,0,.74,6.28,6.45,6.45,0,0,0-3.34,2.89,4.06,4.06,0,0,0,.47,4.51,3.49,3.49,0,0,0,1.69,1.26A5.43,5.43,0,0,0,554.27,200.41Z"/><path class="cls-8" d="M567.36,218.22l.16-6a3,3,0,0,0-.16,6Z"/></g></g></svg>