<svg id="Layer_1" data-name="Layer 1" xmlns="http://www.w3.org/2000/svg" viewBox="0 0 80 80"><defs><style>.cls-1{fill:#fff;}</style></defs><title>Data-backup</title><path class="cls-1" d="M57.22,52.86a42.82,42.82,0,0,0-.11-5.11,5.12,5.12,0,0,0-4.26-4.29.71.71,0,0,1-.7-.74A12.24,12.24,0,0,0,28,42.19a1.47,1.47,0,0,1-1.3,1.41,5.12,5.12,0,0,0-3.86,5q0,4.68,0,9.34c0,.54-.16.64-.66.64-5.93,0-11.5-4.24-13.45-10.23A15,15,0,0,1,21.43,29c.49,0,.51-.3.56-.63A17.82,17.82,0,0,1,29.81,15.9,18.22,18.22,0,0,1,58,28.31c.06.38.13.61.62.65a14.92,14.92,0,0,1,1.73,29.39,13.81,13.81,0,0,1-2.72.22c-.4,0-.46-.14-.46-.5C57.23,56.45,57.22,54.83,57.22,52.86Z"/><path class="cls-1" d="M40,67.25c-3.8,0-7.6,0-11.4,0-1.77,0-2.54-.78-2.54-2.56Q26,56.86,26,49a2.19,2.19,0,0,1,2.44-2.48H29c.64,0,1.49.28,1.85-.12s.11-1.18.1-1.8a9.53,9.53,0,0,1,.38-2.76,9.07,9.07,0,0,1,17.77,2.47v.07c0,.7-.31,1.67.13,2s1.36.11,2.06.11c1.55,0,2.36.48,2.65,1.6a3,3,0,0,1,.09.79V64.87a2.14,2.14,0,0,1-2.39,2.38C47.74,67.26,43.85,67.25,40,67.25Z"/><path class="cls-1" d="M40,46.54c-1.42,0-2.84,0-4.26,0-.42,0-.53-.11-.5-.51a18.64,18.64,0,0,1,.11-2.59,4.79,4.79,0,0,1,9.49.81c0,.6,0,1.2,0,1.8,0,.44-.15.5-.53.49C42.86,46.53,41.42,46.54,40,46.54Z"/></svg>