<svg id="Layer_1" data-name="Layer 1" xmlns="http://www.w3.org/2000/svg" viewBox="0 0 80 80"><defs><style>.cls-1{fill:#fff;}</style></defs><title>Instant support</title><path class="cls-1" d="M39,8c-.09.16-.24.12-.38.11s0,0,0-.08a.05.05,0,0,1,0,0Z"/><path class="cls-1" d="M41.4,8.11c-.15,0-.29.05-.39-.11h.38s0,0,0,.07S41.41,8.11,41.4,8.11Z"/><path class="cls-1" d="M38.64,8a.41.41,0,0,1,0,.11c-.1,0-.21,0-.24-.11Z"/><path class="cls-1" d="M41.4,8.11a.41.41,0,0,1,0-.11h.25s0,0,0,.07,0,0,0,0Z"/><path class="cls-1" d="M41.64,8.11V8h.25C41.86,8.16,41.75,8.12,41.64,8.11Z"/><path class="cls-1" d="M67.36,64.56a38.09,38.09,0,0,0-2.13-5.32A12.07,12.07,0,0,0,62,55.1a10.73,10.73,0,0,0-6.57-2.19c-1.47,0-2.94,0-4.49,0a14.18,14.18,0,0,0,2.9-3,1,1,0,0,1,.93-.4,8.82,8.82,0,0,0,2.35-.24,9.6,9.6,0,0,0,7.43-9.38c0-2.2,0-4.41,0-6.61a26.3,26.3,0,0,0-.17-3.55A24.79,24.79,0,0,0,46.06,8.61,22.67,22.67,0,0,0,42.14,8h-.25c-.08.09-.19.06-.29.06h-.22c-.13,0-.26,0-.37-.06H39c-.1.1-.23.05-.34.06s-.2,0-.28-.06h-.62c-.55.13-1.11.08-1.66.16a23.12,23.12,0,0,0-8.62,3.16,24,24,0,0,0-7.57,7.12A24.5,24.5,0,0,0,15.5,32.07c-.06,2.62,0,5.24,0,7.87a9.33,9.33,0,0,0,3.73,7.55,9.11,9.11,0,0,0,5.85,2,1.22,1.22,0,0,1,1.12.39,14.32,14.32,0,0,0,2.88,3c-1.93.1-3.82-.08-5.72.13a10.15,10.15,0,0,0-7.8,4.89,29.48,29.48,0,0,0-3,6.85A5.66,5.66,0,0,0,17.92,72Q40,72,62.11,72a4.89,4.89,0,0,0,1.61-.21A5.7,5.7,0,0,0,67.36,64.56ZM24.06,27.33a11.63,11.63,0,0,0-.63,2.79c0,.36-.13.49-.52.49a9.71,9.71,0,0,0-3,.21c-.3.1-.27-.08-.25-.3A20.52,20.52,0,0,1,34.09,12.65a19.57,19.57,0,0,1,14,.8A20.48,20.48,0,0,1,59.16,24.94a19.92,19.92,0,0,1,1.36,6,9.81,9.81,0,0,0-3.42-.31c-.34,0-.44-.1-.49-.44a16.82,16.82,0,0,0-8.84-12.71A15.26,15.26,0,0,0,37.65,15.7C30.81,16.85,26.37,20.87,24.06,27.33ZM47.22,57.2l-6.89,9.31c-.19.26-.3.47-.6.06C37.39,63.37,35,60.19,32.66,57c0,0,0-.07,0-.17H47.37C47.47,57,47.29,57.1,47.22,57.2Zm-9.28-4.33c-5.72-1-9.27-4.52-10.73-10.13a17,17,0,0,1-.31-4.34c0-.39.23-.31.45-.31,1.56,0,3.12,0,4.68,0a9.33,9.33,0,0,0,7.71-3.48c.22-.27.32-.29.54,0a9.38,9.38,0,0,0,7.78,3.5c1.51,0,3,0,4.55,0,.38,0,.52.07.53.5A15.23,15.23,0,0,1,52,45.15a.63.63,0,0,1-.69.44c-2.5,0-5,0-7.49,0a1.86,1.86,0,0,0-1.74,2.69,1.88,1.88,0,0,0,1.84,1h5.24C45.87,52.3,42.17,53.64,37.94,52.87Z"/></svg>