<svg id="Layer_1" data-name="Layer 1" xmlns="http://www.w3.org/2000/svg" viewBox="0 0 80 80"><defs><style>.cls-1{fill:#fff;}</style></defs><title>Personalized service</title><path class="cls-1" d="M8,47.13a3.08,3.08,0,0,1,1.71-1.52c.75-.32,1.45-.73,2.2-1a3.53,3.53,0,0,1,4.44,1.51c1.29,2.37,2.45,4.8,3.66,7.22q3,5.93,5.92,11.86A3.79,3.79,0,0,1,24,70.77c-.65.33-1.29.66-1.95,1a1.86,1.86,0,0,1-2.71-.93Q13.74,59.54,8.12,48.26A.74.74,0,0,0,8,48.13Z"/><path class="cls-1" d="M42.75,8c.19.23.46.11.69.16a7.72,7.72,0,0,1,5.9,8.28,7.59,7.59,0,0,1-7.88,6.8,7.78,7.78,0,0,1-7.19-7.13,7.74,7.74,0,0,1,6.29-8c.11,0,.26,0,.31-.13Z"/><path class="cls-1" d="M41.1,64.5H30.35a.75.75,0,0,1-.81-.47Q24.47,53.82,19.37,43.63a.59.59,0,0,1,.15-.87,20.62,20.62,0,0,1,5.62-4c5.19-2.14,10-1.55,14.32,2.15A4.08,4.08,0,0,0,42.39,42c2.91-.06,5.83,0,8.75,0a3.73,3.73,0,0,1,3.62,5,3.78,3.78,0,0,1-3.69,2.46c-2.42,0-4.84,0-7.25,0A1.84,1.84,0,0,0,42,52a1.71,1.71,0,0,0,1.66,1.21c3,0,5.91,0,8.87,0a3.92,3.92,0,0,0,3-1.54l9.74-12a3.73,3.73,0,0,1,6.06,4.33c-2.47,3.63-5,7.22-7.52,10.81-1.3,1.86-2.5,3.79-3.94,5.54a11,11,0,0,1-8.8,4.1C47.76,64.52,44.43,64.5,41.1,64.5Z"/><path class="cls-1" d="M41.79,34.5H32.73a2,2,0,0,1-2.23-2.2A13,13,0,0,1,31.61,26a15,15,0,0,1,1.46-2.31c.3-.41.45-.34.77,0A11,11,0,0,0,42.54,27a10.7,10.7,0,0,0,7.21-3.27c.35-.35.5-.42.85,0a11.28,11.28,0,0,1,2.52,6.89c0,.63,0,1.25,0,1.88a1.89,1.89,0,0,1-2,2Z"/></svg>