<?xml version="1.0" encoding="utf-8"?>
<!-- Generator: Adobe Illustrator 23.0.2, SVG Export Plug-In . SVG Version: 6.00 Build 0)  -->
<svg version="1.1" id="Layer_1" xmlns="http://www.w3.org/2000/svg" xmlns:xlink="http://www.w3.org/1999/xlink" x="0px" y="0px"
	 viewBox="0 0 80 80" style="enable-background:new 0 0 80 80;" xml:space="preserve">
<style type="text/css">
	.st0{fill:#FFFFFF;}
</style>
<g>
	<path class="st0" d="M72,40c0-4.2-5.3-8.3-13.5-10.8c1.9-8.3,1-14.9-2.6-17c-0.8-0.5-1.8-0.7-2.9-0.7v2.9c0.6,0,1.1,0.1,1.5,0.3
		c1.8,1,2.5,4.9,1.9,9.9c-0.1,1.2-0.4,2.5-0.7,3.8c-2.6-0.6-5.3-1.1-8.3-1.4c-1.8-2.4-3.6-4.6-5.4-6.5c4.3-4,8.2-6.1,11-6.1v-2.9
		c-3.6,0-8.3,2.6-13,7c-4.8-4.4-9.4-6.9-13-6.9v2.9c2.7,0,6.7,2.1,11,6.1c-1.8,1.9-3.7,4.1-5.4,6.5c-3,0.3-5.7,0.8-8.3,1.4
		c-0.3-1.3-0.5-2.6-0.7-3.8c-0.6-5,0.1-8.9,1.9-9.9c0.4-0.2,0.9-0.3,1.5-0.3v-2.9c-1.1,0-2.1,0.2-3,0.7c-3.7,2.1-4.5,8.7-2.6,17
		C13.3,31.8,8,35.8,8,40c0,4.2,5.3,8.3,13.5,10.8c-1.9,8.3-1,14.9,2.6,17c0.9,0.5,1.8,0.7,2.9,0.7c3.6,0,8.3-2.6,13-7
		c4.8,4.4,9.4,6.9,13,6.9c1.1,0,2.1-0.2,3-0.7c3.7-2.1,4.5-8.7,2.6-17C66.7,48.3,72,44.2,72,40L72,40z M55,31.3
		c-0.5,1.7-1.1,3.4-1.8,5.1c-0.5-1-1.1-2.1-1.7-3.1c-0.6-1-1.2-2.1-1.9-3C51.5,30.5,53.3,30.9,55,31.3L55,31.3z M49,45.2
		c-1,1.8-2.1,3.4-3.1,5C44,50.3,42,50.4,40,50.4c-2,0-3.9-0.1-5.9-0.3C33,48.6,32,47,31,45.2c-1-1.7-1.9-3.4-2.7-5.2
		c0.8-1.8,1.7-3.5,2.7-5.2c1-1.8,2.1-3.4,3.1-5c1.9-0.2,3.9-0.3,5.9-0.3c2,0,3.9,0.1,5.9,0.3c1.1,1.5,2.1,3.2,3.2,5
		c1,1.7,1.9,3.4,2.7,5.2C50.9,41.7,50,43.5,49,45.2L49,45.2z M53.3,43.5c0.7,1.8,1.3,3.5,1.8,5.2c-1.7,0.4-3.5,0.8-5.4,1
		c0.6-1,1.3-2,1.9-3.1C52.2,45.6,52.7,44.5,53.3,43.5L53.3,43.5z M40,57.4c-1.2-1.3-2.4-2.7-3.6-4.2c1.2,0,2.4,0.1,3.6,0.1
		c1.2,0,2.4,0,3.6-0.1C42.4,54.8,41.2,56.2,40,57.4z M30.3,49.7c-1.9-0.3-3.6-0.6-5.4-1c0.5-1.7,1.1-3.4,1.8-5.2
		c0.5,1,1.1,2.1,1.7,3.1C29.1,47.7,29.7,48.8,30.3,49.7z M40,22.6c1.2,1.3,2.4,2.6,3.6,4.2c-1.2,0-2.4-0.1-3.6-0.1
		c-1.2,0-2.4,0-3.6,0.1C37.5,25.2,38.8,23.8,40,22.6z M30.3,30.3c-0.6,1-1.3,2-1.9,3.1c-0.6,1-1.2,2.1-1.7,3.1
		c-0.7-1.8-1.3-3.5-1.8-5.2C26.6,30.9,28.4,30.5,30.3,30.3L30.3,30.3z M18.5,46.6c-4.6-2-7.6-4.5-7.6-6.6s3-4.6,7.6-6.6
		c1.1-0.5,2.4-0.9,3.6-1.3c0.7,2.6,1.7,5.2,2.9,7.9c-1.2,2.7-2.2,5.4-2.9,7.9C20.9,47.5,19.6,47.1,18.5,46.6L18.5,46.6z M25.5,65.3
		c-1.8-1-2.5-4.9-1.9-9.9c0.1-1.2,0.4-2.5,0.7-3.8c2.6,0.6,5.4,1.1,8.3,1.4c1.8,2.4,3.6,4.6,5.4,6.5c-4.3,4-8.2,6.1-11,6.1
		C26.4,65.6,25.9,65.5,25.5,65.3L25.5,65.3z M56.5,55.3c0.6,5-0.1,8.9-1.9,9.9c-0.4,0.2-0.9,0.3-1.5,0.3c-2.7,0-6.7-2.2-11-6.1
		c1.8-1.9,3.7-4.1,5.4-6.5c3-0.3,5.7-0.8,8.3-1.4C56.1,52.8,56.3,54.1,56.5,55.3z M61.5,46.6c-1.1,0.5-2.3,0.9-3.6,1.3
		c-0.7-2.6-1.7-5.2-2.9-7.9c1.2-2.7,2.2-5.4,2.9-7.9c1.3,0.4,2.5,0.8,3.7,1.3c4.6,2,7.6,4.5,7.6,6.6C69.1,42,66.1,44.7,61.5,46.6
		L61.5,46.6z"/>
	<circle class="st0" cx="40" cy="40" r="6"/>
</g>
</svg>
