<?xml version="1.0" encoding="utf-8"?>
<!-- Generator: Adobe Illustrator 23.0.2, SVG Export Plug-In . SVG Version: 6.00 Build 0)  -->
<svg version="1.1" id="Layer_1" xmlns="http://www.w3.org/2000/svg" xmlns:xlink="http://www.w3.org/1999/xlink" x="0px" y="0px"
	 viewBox="0 0 80 80" style="enable-background:new 0 0 80 80;" xml:space="preserve">
<style type="text/css">
	.st0{fill:#FFFFFF;}
</style>
<path class="st0" d="M8,46.2h43.7v4.7H11.1c-1.7,0-3.1-1.4-3.1-3.1V46.2z M62.6,27.5v-6.2c0-1.7-1.4-3.1-3.1-3.1H11.1
	c-1.7,0-3.1,1.4-3.1,3.1v21.9h43.7V32.2c0-2.6,2.1-4.7,4.7-4.7H62.6z M42.3,58.7h-3.5L37.9,54h-5.2l-0.9,4.7h-3.5
	c-0.9,0-1.6,0.7-1.6,1.6s0.7,1.6,1.6,1.6h14c0.9,0,1.6-0.7,1.6-1.6S43.2,58.7,42.3,58.7z M54.8,57.2c0,0.9,0.7,1.6,1.6,1.6h14
	c0.9,0,1.6-0.7,1.6-1.6v-2.3H54.8V57.2z M70.4,30.6h-14c-0.9,0-1.6,0.7-1.6,1.6v2.3H72v-2.3C72,31.3,71.3,30.6,70.4,30.6z
	 M54.8,51.7H72v-14H54.8V51.7z"/>
</svg>
