<?xml version="1.0" encoding="utf-8"?>
<!-- Generator: Adobe Illustrator 23.0.2, SVG Export Plug-In . SVG Version: 6.00 Build 0)  -->
<svg version="1.1" id="Layer_1" xmlns="http://www.w3.org/2000/svg" xmlns:xlink="http://www.w3.org/1999/xlink" x="0px" y="0px"
	 viewBox="0 0 80 80" style="enable-background:new 0 0 80 80;" xml:space="preserve">
<style type="text/css">
	.st0{fill:#FFFFFF;}
</style>
<g>
	<path class="st0" d="M67.3,10H12.7C10.1,10,8,12.1,8,14.7v6.7c0,2.6,2.1,4.7,4.7,4.7h54.7c2.6,0,4.7-2.1,4.7-4.7v-6.7
		C72,12.1,69.9,10,67.3,10z"/>
	<path class="st0" d="M70,34H44.7c-1.1,0-2,0.9-2,2s0.9,2,2,2H70c1.1,0,2-0.9,2-2S71.1,34,70,34z M70,42H44.7c-1.1,0-2,0.9-2,2
		s0.9,2,2,2H70c1.1,0,2-0.9,2-2S71.1,42,70,42z M70,50H44.7c-1.1,0-2,0.9-2,2s0.9,2,2,2H70c1.1,0,2-0.9,2-2S71.1,50,70,50z M70,58
		H44.7c-1.1,0-2,0.9-2,2s0.9,2,2,2H70c1.1,0,2-0.9,2-2S71.1,58,70,58z M70,66H44.7c-1.1,0-2,0.9-2,2s0.9,2,2,2H70c1.1,0,2-0.9,2-2
		S71.1,66,70,66z"/>
	<path class="st0" d="M37.3,38v28c0,0.6-0.1,1.2-0.4,1.7c-0.4,0.9-1.1,1.6-2.1,1.9c-0.5,0.2-1,0.3-1.5,0.3H12c-2.2,0-4-1.8-4-4V38
		c0-2.2,1.8-4,4-4h21.3C35.5,34,37.3,35.8,37.3,38z"/>
</g>
</svg>
