<?xml version="1.0" encoding="utf-8"?>
<!-- Generator: Adobe Illustrator 23.0.2, SVG Export Plug-In . SVG Version: 6.00 Build 0)  -->
<svg version="1.1" id="Layer_1" xmlns="http://www.w3.org/2000/svg" xmlns:xlink="http://www.w3.org/1999/xlink" x="0px" y="0px"
	 viewBox="0 0 80 80" style="enable-background:new 0 0 80 80;" xml:space="preserve">
<style type="text/css">
	.st0{fill:#FFFFFF;}
</style>
<g>
	<path class="st0" d="M31.9,63.2h-1.5v3.9h-2.1v-9.8h3.6c0.5,0,0.9,0,1.4,0.2c0.4,0.1,0.8,0.3,1.1,0.5c0.3,0.2,0.6,0.6,0.7,0.9
		c0.2,0.4,0.3,0.9,0.3,1.4c0.1,0.8-0.3,1.7-0.9,2.2C33.7,63,32.8,63.3,31.9,63.2z M31.7,59.1h-1.3v2.4h1.3c0.2,0,0.4,0,0.6,0
		c0.2,0,0.3-0.1,0.5-0.2c0.1-0.1,0.3-0.2,0.4-0.3c0.1-0.2,0.1-0.4,0.1-0.6c0-0.2,0-0.4-0.1-0.6c-0.1-0.1-0.1-0.3-0.3-0.4
		C32.6,59.1,32.1,59,31.7,59.1z M39.6,67.2c-0.7,0-1.5-0.2-2.1-0.6c-0.4-0.2-0.7-0.4-0.9-0.7c-0.3-0.4-0.5-0.7-0.7-1.2l1.8-0.8
		c0.1,0.2,0.2,0.4,0.3,0.6c0.1,0.2,0.3,0.3,0.4,0.5c0.2,0.1,0.4,0.2,0.6,0.3c0.2,0.1,0.5,0.1,0.7,0.1c0.2,0,0.4,0,0.5-0.1
		c0.2,0,0.3-0.1,0.5-0.2c0.1-0.1,0.3-0.2,0.3-0.3c0.1-0.2,0.1-0.4,0.1-0.6c0-0.3-0.2-0.7-0.5-0.8c-0.4-0.3-0.9-0.5-1.3-0.7
		c-0.8-0.3-1.6-0.7-2.3-1.2c-0.5-0.5-0.8-1.2-0.8-1.9c0-0.8,0.3-1.5,0.9-1.9c0.7-0.5,1.5-0.8,2.3-0.8c0.7,0,1.5,0.2,2.1,0.6
		c0.3,0.2,0.6,0.4,0.8,0.7c0.3,0.3,0.5,0.7,0.6,1.1l-1.9,0.6c-0.1-0.3-0.3-0.7-0.6-0.9c-0.3-0.2-0.7-0.4-1-0.4c-0.1,0-0.3,0-0.4,0
		c-0.1,0-0.3,0.1-0.4,0.1c-0.3,0.1-0.4,0.4-0.4,0.7c0,0.1,0,0.3,0.1,0.4c0.1,0.2,0.3,0.3,0.4,0.4c0.5,0.3,0.9,0.5,1.4,0.6
		c0.7,0.2,1.4,0.6,2,1.1c0.6,0.5,1,1.2,0.9,2c0.1,0.9-0.3,1.7-0.9,2.3C41.5,67,40.5,67.3,39.6,67.2z M47.8,67.1h-3.2v-9.9h3.2
		c0.7,0,1.4,0.1,2,0.4c0.5,0.2,1,0.6,1.4,1c0.4,0.5,0.7,1,0.8,1.6c0.2,0.7,0.3,1.3,0.3,2c0,0.7-0.1,1.4-0.3,2.1
		c-0.2,0.6-0.5,1.1-0.9,1.5C50.3,66.7,49.1,67.2,47.8,67.1z M47.8,59h-1.1v6.2h1.1c0.4,0,0.8-0.1,1.2-0.2c0.3-0.2,0.6-0.4,0.7-0.7
		c0.2-0.3,0.3-0.6,0.4-1c0.1-0.4,0.1-0.8,0.1-1.2c0-0.5,0-0.9-0.2-1.4c-0.1-0.3-0.2-0.7-0.4-1C49.2,59.3,48.5,59,47.8,59L47.8,59z"
		/>
	<path class="st0" d="M64.1,24.3C64.1,24.2,64.1,24.2,64.1,24.3C64,24.1,64,24.1,64,24.1L48.2,8.3c0,0-0.1,0-0.1-0.1
		c0,0-0.1-0.1-0.1-0.1L47.9,8H20.1c-2.4,0-4.4,2-4.4,4.4v55.2c0,2.4,2,4.4,4.4,4.4h39.7c2.4,0,4.4-2,4.4-4.4V24.4L64.1,24.3z
		 M48.5,11.8l12,12h-9.8c-1.2,0-2.2-1-2.2-2.2V11.8z M38.7,20.5c1.5,0,2.7,1.2,2.7,2.7c0,1.5-1.2,2.7-2.7,2.7
		c-1.5,0-2.7-1.2-2.7-2.7c0,0,0,0,0,0C36,21.7,37.2,20.5,38.7,20.5z M22.3,38.5l6.5-17.3c0.2-0.6,0.8-0.9,1.4-0.6
		c0.3,0.1,0.5,0.3,0.6,0.6l5.8,12.5c0.3,0.6,0.9,0.8,1.5,0.5c0.2-0.1,0.3-0.2,0.4-0.3l3.7-4.9c0.4-0.5,1.1-0.6,1.5-0.2
		c0.1,0.1,0.1,0.1,0.2,0.2l7.5,9.3c0.4,0.5,0.3,1.2-0.2,1.6c-0.2,0.2-0.4,0.2-0.7,0.2H23.4c-0.6,0-1.1-0.5-1.1-1.1
		C22.3,38.8,22.3,38.6,22.3,38.5z M62.1,67.6c0,1.2-1,2.2-2.2,2.2H20.1c-1.2,0-2.2-1-2.2-2.2V50.4h15.2l3,3.4
		c0.2,0.2,0.5,0.4,0.8,0.4h25.2V67.6z"/>
</g>
</svg>
