<svg xmlns="http://www.w3.org/2000/svg" viewBox="0 0 360 360"><defs><style>.cls-1{fill:#ececec;}.cls-2{fill:#f5f5f5;}.cls-3{fill:#e1e1e1;}.cls-4{fill:#1a2e35;}.cls-5{fill:#00dfdf;}.cls-6{opacity:0.2;}.cls-7{fill:#fff;}.cls-8{fill:#375a64;}.cls-9{fill:#054641;}.cls-10{fill:#ffbf9d;}.cls-11{fill:#ff9a6c;}.cls-12{fill:#d15b66;}.cls-13{opacity:0.3;}.cls-14{fill:#0e1416;}.cls-15{fill:#dd8f82;}.cls-16{fill:#7c4236;}.cls-17{fill:#376b67;}</style></defs><title>process-illustration</title><g id="Layer_10" data-name="Layer 10"><rect class="cls-1" x="26.87" y="284.35" width="12.63" height="29.1"/><rect class="cls-1" x="69.72" y="284.35" width="12.63" height="29.1"/><rect class="cls-2" x="48.29" y="257.87" width="12.63" height="55.59"/><rect class="cls-2" x="91.14" y="257.87" width="12.63" height="55.59"/><rect class="cls-1" x="112.56" y="259.46" width="12.63" height="54"/><rect class="cls-1" x="155.41" y="259.46" width="12.63" height="54"/><rect class="cls-1" x="198.25" y="259.46" width="12.63" height="54"/><rect class="cls-2" x="133.98" y="231.12" width="12.63" height="82.33"/><rect class="cls-2" x="176.83" y="239.18" width="12.63" height="74.28"/><rect class="cls-1" x="261.54" y="259.46" width="12.63" height="54"/><rect class="cls-2" x="240.11" y="269.82" width="12.63" height="43.63"/><rect class="cls-1" x="306.34" y="230.64" width="12.63" height="82.81"/><rect class="cls-2" x="284.92" y="269.82" width="12.63" height="43.63"/><rect class="cls-2" x="327.79" y="269.82" width="12.63" height="43.63"/><rect class="cls-1" x="219.67" y="250.56" width="12.63" height="62.9"/><path class="cls-3" d="M142.51,231.12a3.25,3.25,0,1,1-3.25-3.25A3.26,3.26,0,0,1,142.51,231.12Z"/><path class="cls-3" d="M139.26,237a5.9,5.9,0,1,1,5.9-5.9A5.91,5.91,0,0,1,139.26,237Zm0-11.32a5.42,5.42,0,1,0,5.42,5.42A5.42,5.42,0,0,0,139.26,225.7Z"/><polygon class="cls-1" points="141.85 222.84 141.68 216.45 143.28 216.47 140.3 212.83 137.31 216.51 138.97 216.52 139.13 222.82 141.85 222.84"/><path class="cls-3" d="M36.78,271.06a3.25,3.25,0,1,1-3.25-3.25A3.24,3.24,0,0,1,36.78,271.06Z"/><path class="cls-3" d="M33.53,277.08a5.9,5.9,0,1,1,5.9-5.9A5.91,5.91,0,0,1,33.53,277.08Zm0-11.33A5.43,5.43,0,1,0,39,271.18,5.43,5.43,0,0,0,33.53,265.75Z"/><polygon class="cls-1" points="31.57 250.92 31.75 257.56 30.09 257.54 33.19 261.33 36.29 257.5 34.57 257.49 34.4 250.94 31.57 250.92"/><polygon class="cls-1" points="203.42 237.02 203.59 243.66 201.93 243.64 205.03 247.43 208.13 243.6 206.41 243.59 206.24 237.03 203.42 237.02"/><path class="cls-3" d="M242.53,295.91l-38-35.67c-24.1-11.64-61.3-28.79-65.64-28.54C134,232,41.77,268.35,6.65,282.34L6,280.61c5.17-2.06,126.65-50.42,132.8-50.78h.13c6.75,0,60.42,25.82,66.56,28.78l.23.16,37.16,34.87c7.06-3.73,47.47-25.05,48.16-25.35.24-.11.88-.37,56.46-.37v1.87c-21.32,0-53.36,0-55.8.25-2.11,1.07-32.44,17.07-48.53,25.56Z"/><path class="cls-3" d="M208.28,258.66a3.25,3.25,0,1,1-3.25-3.25A3.26,3.26,0,0,1,208.28,258.66Z"/><path class="cls-3" d="M205,264.68a5.9,5.9,0,1,1,5.9-5.9A5.91,5.91,0,0,1,205,264.68Zm0-11.32a5.42,5.42,0,1,0,5.42,5.42A5.42,5.42,0,0,0,205,253.36Z"/><path class="cls-3" d="M294.62,268.34a3.25,3.25,0,1,1-3.25-3.24A3.25,3.25,0,0,1,294.62,268.34Z"/><path class="cls-3" d="M291.37,274.36a5.9,5.9,0,1,1,5.9-5.89A5.9,5.9,0,0,1,291.37,274.36Zm0-11.32a5.43,5.43,0,1,0,5.42,5.43A5.43,5.43,0,0,0,291.37,263Z"/><polygon class="cls-1" points="289.62 249.05 289.79 255.69 288.13 255.67 291.23 259.46 294.33 255.63 292.61 255.62 292.44 249.06 289.62 249.05"/><path class="cls-2" d="M295.39,187.8a28.42,28.42,0,1,1,28.87,28.09A28.52,28.52,0,0,1,295.39,187.8Zm42-.68A13.59,13.59,0,1,0,324,201,13.63,13.63,0,0,0,337.39,187.12Z"/><path class="cls-3" d="M295.39,187.8a28.52,28.52,0,0,1,28-29l.24,14.89A13.65,13.65,0,0,0,324,201l.24,14.9A28.51,28.51,0,0,1,295.39,187.8Z"/><path class="cls-1" d="M320.8,156.51a32.47,32.47,0,0,1,33.25,32.34l-17.35.28c-.14-8.8-6.84-14.35-15.61-14.21Z"/><path class="cls-2" d="M33.08,169.87l15.69-12.43a20,20,0,1,1-23.64-5.94Z"/><path class="cls-3" d="M28.82,149.47,34.34,164,46,154.06S39.83,147.69,28.82,149.47Z"/><path class="cls-4" d="M333.2,331.77c0,.1-68.94.19-154,.19s-154-.09-154-.19,68.93-.19,154-.19S333.2,331.66,333.2,331.77Z"/><path class="cls-5" d="M49.58,83a13.86,13.86,0,1,0-23.39.58l-1.8,3L34.8,92.86s1.07-1.65,2-3.14A13.84,13.84,0,0,0,49.58,83Z"/><path class="cls-4" d="M31.06,90.55l.1-.14.31-.4c.27-.35.67-.87,1.2-1.52s1.2-1.43,2-2.29a19.87,19.87,0,0,1,3.06-2.66,13,13,0,0,1,2-1.19,2.53,2.53,0,0,1,1.25-.25,1.46,1.46,0,0,1,1.11.72.92.92,0,0,1,.09.69.94.94,0,0,1-.41.58,2,2,0,0,1-1.4.24,3.73,3.73,0,0,1-2.36-1.65,3.85,3.85,0,0,1-.49-3,2.9,2.9,0,0,1,.75-1.41,1.24,1.24,0,0,1,1.58-.18.9.9,0,0,1,.35.78,1.23,1.23,0,0,1-.34.79,2.7,2.7,0,0,1-1.55.68,4.13,4.13,0,0,1-3.25-.86,3.62,3.62,0,0,1-1.27-3.09,2.09,2.09,0,0,1,.79-1.49,1.07,1.07,0,0,1,.83-.21,1,1,0,0,1,.69.51,1.32,1.32,0,0,1,.19.82,2.13,2.13,0,0,1-.23.79,3.92,3.92,0,0,1-1,1.25,4.12,4.12,0,0,1-5.53-.15,2.16,2.16,0,0,1-.73-1.21,1.06,1.06,0,0,1,.62-1.18.87.87,0,0,1,.69.06,1.21,1.21,0,0,1,.5.45,2,2,0,0,1,.24,1.25c-.09.82-.23,1.59-.34,2.33-.49,3-1,5.35-1.37,7-.18.82-.34,1.46-.44,1.89-.06.2-.1.37-.13.48l0,.17s0-.06,0-.17l.1-.49c.1-.44.24-1.08.42-1.89.35-1.64.84-4,1.31-7,.11-.74.24-1.53.33-2.33a1.89,1.89,0,0,0-.22-1.17,1,1,0,0,0-1-.45.93.93,0,0,0-.53,1,2.08,2.08,0,0,0,.69,1.12,4.09,4.09,0,0,0,2.57,1.09A4,4,0,0,0,36,76.75a1.54,1.54,0,0,0,0-1.46.83.83,0,0,0-1.28-.24A1.92,1.92,0,0,0,34,76.42a3.45,3.45,0,0,0,1.21,2.94,4,4,0,0,0,3.12.82,2.53,2.53,0,0,0,1.44-.63,1,1,0,0,0,.3-.68.71.71,0,0,0-.28-.64,1,1,0,0,0-.71-.16,1.13,1.13,0,0,0-.65.33,2.7,2.7,0,0,0-.71,1.33,3.66,3.66,0,0,0,2.72,4.46A1.82,1.82,0,0,0,41.75,84,.82.82,0,0,0,42,82.88a1.3,1.3,0,0,0-1-.64,2.44,2.44,0,0,0-1.19.23,12,12,0,0,0-2,1.17,20.3,20.3,0,0,0-3.07,2.62c-.83.86-1.5,1.64-2,2.28L31.5,90c-.14.17-.25.29-.32.39Z"/><path class="cls-4" d="M32.84,94.3,23.9,88.94a.79.79,0,0,1-.27-1.08h0a.79.79,0,0,1,1.08-.27L33.65,93A.77.77,0,0,1,33.91,94h0A.78.78,0,0,1,32.84,94.3Z"/><path class="cls-4" d="M32.49,94.89l-8.94-5.37a.78.78,0,0,0-1.07.27.77.77,0,0,0,.26,1.07l1,.59-.19,3.26a1,1,0,0,0,.49.92l3.19,1.92a1,1,0,0,0,1.05,0L31,95.83l.66.4A.79.79,0,0,0,32.76,96,.78.78,0,0,0,32.49,94.89Z"/><g class="cls-6"><path class="cls-7" d="M34.61,63.75a10.13,10.13,0,0,1,3.33-.15,7.25,7.25,0,0,1,2.15.57c.48.22.71.42.67.52-.08.25-1.17,0-2.87.11a11.41,11.41,0,0,0-10.21,6.92c-.71,1.55-.91,2.65-1.16,2.63s-.21-.3-.24-.82a7.07,7.07,0,0,1,.27-2.21,9.86,9.86,0,0,1,1.37-3,10.87,10.87,0,0,1,2.89-2.94"/></g><g class="cls-6"><path class="cls-7" d="M43.31,66.92c-.75-.46-1.29-1.06-1.13-1.51.09-.22.35-.34.72-.34a2.43,2.43,0,0,1,1.29.4,2.6,2.6,0,0,1,1,1,.72.72,0,0,1,0,.8"/></g><path class="cls-8" d="M28,97.65s-.19-.22-.51-.56a6.19,6.19,0,0,0-1.4-1.1,5.9,5.9,0,0,0-1.67-.62,5.65,5.65,0,0,1-.73-.14,2.2,2.2,0,0,1,.75,0,5,5,0,0,1,1.74.59A5.29,5.29,0,0,1,27.57,97,2.62,2.62,0,0,1,28,97.65Z"/><path class="cls-8" d="M31,95.87s-1.66-.9-3.66-2.09-3.59-2.2-3.56-2.24,1.66.89,3.65,2.09S31,95.83,31,95.87Z"/><path class="cls-8" d="M29.82,96.6a6.2,6.2,0,0,1-.93-.44c-.57-.3-1.34-.72-2.18-1.21s-1.59-1-2.12-1.29a6,6,0,0,1-.85-.6,5.88,5.88,0,0,1,.91.49l2.14,1.26L29,96.05A5.17,5.17,0,0,1,29.82,96.6Z"/><rect class="cls-7" x="149.12" y="176.01" width="63.93" height="42.16" rx="3.89"/><path class="cls-4" d="M209.17,218.18s.18,0,.52-.06a3.81,3.81,0,0,0,1.45-.52,4,4,0,0,0,1.59-1.88,9.78,9.78,0,0,0,.26-3.4c0-5.21,0-12.73-.06-22q0-3.5,0-7.3v-1.92a11.21,11.21,0,0,0-.08-1.93,3.75,3.75,0,0,0-2.45-2.78,5.27,5.27,0,0,0-2-.21H193l-40,0a3.71,3.71,0,0,0-3.64,2.93,5.9,5.9,0,0,0-.09,1.27V194.5c0,6.69,0,13.15,0,19.29a4.34,4.34,0,0,0,.39,2.16,3.73,3.73,0,0,0,1.46,1.56,3.83,3.83,0,0,0,2.06.51h10.67l15.21,0,22,.06,6,0,1.56,0c.35,0,.53,0,.53,0h-.53l-1.56,0-6,0-22,.06-15.21,0H153.19a4.22,4.22,0,0,1-2.21-.55,4.05,4.05,0,0,1-1.59-1.69,4.7,4.7,0,0,1-.43-2.3c0-6.14,0-12.6,0-19.29V180.39a6.81,6.81,0,0,1,.09-1.34,4.05,4.05,0,0,1,1.42-2.3,4.14,4.14,0,0,1,2.56-.91l40,0h15.38a5.5,5.5,0,0,1,2.09.23,4,4,0,0,1,2.63,3,11.08,11.08,0,0,1,.08,2V183c0,2.54,0,5,0,7.3,0,9.29,0,16.81-.06,22v1.84a4.11,4.11,0,0,1-.3,1.6,3.9,3.9,0,0,1-1.65,1.9,3.56,3.56,0,0,1-1.47.49A3.52,3.52,0,0,1,209.17,218.18Z"/><rect class="cls-5" x="177.78" y="200.5" width="2.45" height="9.76"/><rect class="cls-5" x="157.29" y="199.08" width="2.45" height="11.18"/><rect class="cls-5" x="162.41" y="196.75" width="2.45" height="13.51"/><rect class="cls-5" x="167.53" y="197.49" width="2.45" height="12.77"/><rect class="cls-5" x="172.65" y="193.17" width="2.45" height="17.09"/><rect class="cls-5" x="182.9" y="193.26" width="2.45" height="17"/><rect class="cls-5" x="188.02" y="198.84" width="2.45" height="11.42"/><rect class="cls-5" x="193.14" y="194.01" width="2.45" height="16.25"/><rect class="cls-5" x="198.27" y="190.34" width="2.45" height="19.91"/><rect class="cls-5" x="203.39" y="193.92" width="2.45" height="16.34"/><path class="cls-4" d="M175.48,184.3c0,.1-4.36.19-9.73.19s-9.73-.09-9.73-.19,4.36-.19,9.73-.19S175.48,184.19,175.48,184.3Z"/><path class="cls-7" d="M213.77,21.16h30.7A2.8,2.8,0,0,1,247.28,24v30.7a2.81,2.81,0,0,1-2.81,2.81H223.23l-8.54,7v-7h-.92A2.81,2.81,0,0,1,211,54.67V24A2.81,2.81,0,0,1,213.77,21.16Z"/><path class="cls-9" d="M211,21.16h36.32a0,0,0,0,1,0,0V28a4.65,4.65,0,0,1-4.65,4.65h-27A4.68,4.68,0,0,1,211,27.94V21.16A0,0,0,0,1,211,21.16Z" transform="translate(458.24 53.78) rotate(180)"/><path class="cls-4" d="M226.72,37.28V49.63h-2.86V39.57h-2.47V37.28Z"/><path class="cls-4" d="M238.54,37.28v1.85L234,49.63h-3.1l4.42-10h-4.09v2h-2.54V37.28Z"/><path class="cls-4" d="M224.05,27.66c0,.07,2.49.12,5.57.12s5.58-.05,5.58-.12-2.5-.11-5.58-.11S224.05,27.6,224.05,27.66Z"/><path class="cls-4" d="M213.77,21.16a.94.94,0,0,0-.19,0,2.38,2.38,0,0,0-.56.08,2.84,2.84,0,0,0-1.71,1.3,2.89,2.89,0,0,0-.39,1.54c0,.59,0,1.23,0,1.92,0,1.38,0,3,0,4.74,0,3.55,0,7.86,0,12.78q0,3.69,0,7.82V54.5a3.38,3.38,0,0,0,.15,1.09,2.94,2.94,0,0,0,1.44,1.68,3,3,0,0,0,1.1.3c.39,0,.76,0,1.14,0l-.11-.1v7.27l.17-.15,8.55-7-.07,0h21.28a3.2,3.2,0,0,0,1-.18,3,3,0,0,0,1.5-1.24,3.26,3.26,0,0,0,.36-.91,5.21,5.21,0,0,0,.06-1V48.75c0-4.89,0-9.6,0-14.09,0-2.24,0-4.43,0-6.55V25a10,10,0,0,0,0-1.54,3,3,0,0,0-.69-1.39,2.88,2.88,0,0,0-1.27-.82,4.36,4.36,0,0,0-1.47-.15h-8.16l-16.08,0-4.37,0-1.14,0h1.14l4.37,0,16.08,0h8.16a4.16,4.16,0,0,1,1.41.14,2.76,2.76,0,0,1,1.19.77,2.7,2.7,0,0,1,.63,1.29,9.41,9.41,0,0,1,.05,1.51v9.7c0,4.49,0,9.2,0,14.09v5.56a4.49,4.49,0,0,1-.06.91,2.78,2.78,0,0,1-.33.84,2.72,2.72,0,0,1-1.38,1.14,5.38,5.38,0,0,1-1.85.17H223.19l0,0-8.54,7,.17.09V57.38h-.1c-.38,0-.76,0-1.12,0a2.82,2.82,0,0,1-1-.28,2.74,2.74,0,0,1-1.48-2.59V51.34q0-4.12,0-7.82c0-4.92,0-9.23,0-12.78,0-1.77,0-3.36,0-4.74s-.18-2.6.36-3.43A2.73,2.73,0,0,1,213,21.28,3.42,3.42,0,0,1,213.77,21.16Z"/><rect class="cls-3" x="222.56" y="17.6" width="2.36" height="8.2" rx="1.14"/><path class="cls-4" d="M223.7,25.8a1.37,1.37,0,0,1-.67-.28,1.09,1.09,0,0,1-.4-.71c0-.33,0-.74,0-1.16,0-.89,0-1.91,0-3,0-.58,0-1.18,0-1.8A1,1,0,0,1,223,18a1.07,1.07,0,0,1,.81-.31,1,1,0,0,1,.77.36,1.06,1.06,0,0,1,.26.81v1.8c0,1.13,0,2.16,0,3v.62a2.35,2.35,0,0,1,0,.54,1.09,1.09,0,0,1-.44.69,1.41,1.41,0,0,1-.69.23s.07,0,.2,0a1.13,1.13,0,0,0,.54-.18,1.18,1.18,0,0,0,.52-.73,3.64,3.64,0,0,0,0-.57v-.62c0-.88,0-1.91,0-3,0-.58,0-1.18,0-1.8a1.33,1.33,0,0,0-.31-1,1.3,1.3,0,0,0-2.29.88c0,.62,0,1.22,0,1.8,0,1.14,0,2.16,0,3,0,.43,0,.81,0,1.17a1.14,1.14,0,0,0,1,1C223.63,25.82,223.7,25.81,223.7,25.8Z"/><rect class="cls-3" x="233.65" y="17.6" width="2.36" height="8.2" rx="1.14"/><path class="cls-4" d="M234.79,25.8a1.37,1.37,0,0,1-.67-.28,1.09,1.09,0,0,1-.4-.71c0-.33,0-.74,0-1.16,0-.89,0-1.91,0-3,0-.58,0-1.18,0-1.8a1,1,0,0,1,.3-.78,1.07,1.07,0,0,1,.81-.31,1,1,0,0,1,.77.36,1.1,1.1,0,0,1,.26.81v1.8c0,1.13,0,2.16,0,3v.62a3.09,3.09,0,0,1,0,.54,1.09,1.09,0,0,1-.44.69,1.41,1.41,0,0,1-.69.23s.06,0,.2,0a1.13,1.13,0,0,0,.54-.18,1.18,1.18,0,0,0,.52-.73,2.73,2.73,0,0,0,0-.57v-.62c0-.88,0-1.91,0-3v-1.8a1.3,1.3,0,1,0-2.59-.08c0,.62,0,1.22,0,1.8,0,1.14,0,2.16,0,3,0,.43,0,.81,0,1.17a1.22,1.22,0,0,0,.47.78,1.17,1.17,0,0,0,.53.21C234.72,25.82,234.79,25.81,234.79,25.8Z"/><path class="cls-10" d="M250.09,150.66l2.64,3.3v-5.67H261s.92,13,.72,15.75a22,22,0,0,1-1,4.24,4.87,4.87,0,0,1-8.05,2,27.56,27.56,0,0,1-2.6-2.89c-3.69-4.74-9.82-16.3-9.82-16.3l6.4-3.86Z"/><path class="cls-11" d="M249.57,150.05a9.64,9.64,0,0,0,1.08,1.45c.7.87,1.68,2.07,2.78,3.36s2.16,2.44,3,3.21a5.67,5.67,0,0,0,1.41,1.14,16.8,16.8,0,0,0-1.22-1.34c-.75-.81-1.76-2-2.87-3.26A42.62,42.62,0,0,0,249.57,150.05Z"/><path class="cls-10" d="M294.79,76.56l.37,30.17c.07,5.13-.89,12.68-9,12.41h0c-7-.77-8.89-7.42-9-12.2,0-2.28,0-4.17-.07-4.4,0,0-7.68-.63-8.33-8.22-.32-3.67-.35-11.28-.3-18.17a14.19,14.19,0,0,1,13.17-14l.74-.06C290.36,61.94,294.89,68.62,294.79,76.56Z"/><path class="cls-11" d="M277.14,102.54a18.43,18.43,0,0,0,9.69-3.65s-2,5.73-9.65,5.6Z"/><path class="cls-4" d="M281.5,79.26c.15.16,1-.55,2.3-.58s2.22.59,2.35.42-.09-.35-.5-.64a3.18,3.18,0,0,0-3.72.12C281.55,78.9,281.42,79.19,281.5,79.26Z"/><path class="cls-4" d="M280.8,82.33a1,1,0,0,0,1.07,1,1,1,0,0,0,1-1,1,1,0,0,0-1.07-1A1,1,0,0,0,280.8,82.33Z"/><path class="cls-4" d="M278.31,88.11a8,8,0,0,0-1.92-.2c-.3,0-.59,0-.65-.25a1.48,1.48,0,0,1,.13-.9l.72-2.33a37.8,37.8,0,0,0,1.54-6.09,39.89,39.89,0,0,0-2,6c-.24.82-.46,1.6-.68,2.34a1.83,1.83,0,0,0-.07,1.19.79.79,0,0,0,.53.4,2.31,2.31,0,0,0,.51,0A7.17,7.17,0,0,0,278.31,88.11Z"/><path class="cls-4" d="M282,73.85c.12.28,1.14.07,2.36.13s2.22.33,2.36.06-.12-.39-.54-.64a4,4,0,0,0-3.6-.15C282.19,73.47,282,73.71,282,73.85Z"/><path class="cls-4" d="M270,75.75c.13.23,1.12,0,2.33-.06s2.2.12,2.32-.12-.14-.32-.56-.51a4.21,4.21,0,0,0-1.78-.29,4.28,4.28,0,0,0-1.77.44C270.09,75.42,269.9,75.64,270,75.75Z"/><path class="cls-10" d="M294.58,82.23c.12-.06,5.11-1.92,5.32,3.29s-5.06,4.34-5.07,4.2S294.58,82.23,294.58,82.23Z"/><path class="cls-11" d="M296.34,87.68s.09.06.25.12a.91.91,0,0,0,.67,0,2.25,2.25,0,0,0,1-2.06,3,3,0,0,0-.31-1.29,1.05,1.05,0,0,0-.71-.67.45.45,0,0,0-.52.27c-.07.15,0,.25-.06.26s-.11-.08-.08-.3a.57.57,0,0,1,.19-.33.65.65,0,0,1,.5-.15,1.26,1.26,0,0,1,1,.77,3,3,0,0,1,.37,1.43A2.35,2.35,0,0,1,297.35,88a1,1,0,0,1-.83-.11C296.35,87.8,296.32,87.69,296.34,87.68Z"/><path class="cls-4" d="M279.54,91.72c-.06-.13,1-.44,1.68-1.4a5.49,5.49,0,0,0,.72-1.36c.15-.37.27-.61.33-.59s0,.27,0,.68a3.77,3.77,0,0,1-.67,1.52,3.11,3.11,0,0,1-1.33,1C279.82,91.75,279.55,91.76,279.54,91.72Z"/><path class="cls-4" d="M258.43,69.33a1.28,1.28,0,0,1,.58-.72A3.77,3.77,0,0,1,261,68.3a11,11,0,0,0,5.71-1.74,25.55,25.55,0,0,1,2.66-3.22c2.3-2.37,4.19-4,6.15-4.78a17.7,17.7,0,0,1,9.42-.74,7.14,7.14,0,0,1,5.38,5.55,5.5,5.5,0,0,1,5.51-.52l.05,0c2,.72,3.15,2.84,3.74,4.89s.85,4.24,1.93,6.08c.23.38.5.84.3,1.24a.84.84,0,0,1-.89.39A2.52,2.52,0,0,1,300,75c.22.53.45,1.07.67,1.61a4.78,4.78,0,0,1-2.19-.15A46.09,46.09,0,0,1,297,81.88a3,3,0,0,0-2.13.52c-.71.63-1,1.82-2.19,1.37-.6-.23-1.14-1.48-1.34-2.08a29.66,29.66,0,0,1-1.28-12.55A9.48,9.48,0,0,0,287.16,67l.09.08c-2.13-.74-4.53-1.46-6.54-.47-1.56.78-2.48,2.4-3.65,3.69a12,12,0,0,1-8.5,3.93c-.11,2.13.07,5.16,0,7.29l-1.8-3.42v0c-.15-.25-.27-.51-.39-.76l0-.08h0c-.19-.4-.36-.81-.6-1.21h0a1.33,1.33,0,0,1-1.95-1.78,2.82,2.82,0,0,1,.64-.65,2.11,2.11,0,0,1-2,.52,1.65,1.65,0,0,1-1.17-1.64,1.4,1.4,0,0,1,.84-1.13,4.73,4.73,0,0,1-2.71-.6C258.77,70.51,258.25,70,258.43,69.33Z"/><path class="cls-8" d="M287.88,64.24a6.61,6.61,0,0,1,.76.7,5.48,5.48,0,0,1,1.17,2.52,9.57,9.57,0,0,1,.19,1.93c0,.7-.05,1.45-.1,2.24a18.49,18.49,0,0,0-.06,2.49,8.55,8.55,0,0,0,.17,1.31,2.73,2.73,0,0,0,.54,1.28,1.14,1.14,0,0,0,1.07.36,1.67,1.67,0,0,0,1-.55,3.89,3.89,0,0,0,.73-1.93l-.15,0a6.07,6.07,0,0,0,.92,1.59,2.25,2.25,0,0,0,1.48.81,1.47,1.47,0,0,0,.78-.14,1.27,1.27,0,0,0,.53-.52,1.2,1.2,0,0,0,.16-.68,1,1,0,0,0-.24-.59l-.08.07a4.93,4.93,0,0,0,1.63,1.23,5,5,0,0,0,.51.2l.18,0-.17-.07-.49-.22a5,5,0,0,1-1.58-1.25l-.08.08a1,1,0,0,1,.05,1.13,1.18,1.18,0,0,1-.48.46,1.3,1.3,0,0,1-.71.11,2.12,2.12,0,0,1-1.37-.76,6,6,0,0,1-.89-1.56l-.11-.24-.05.26a3.78,3.78,0,0,1-.7,1.85,1.51,1.51,0,0,1-.86.48,1,1,0,0,1-.91-.3,2.64,2.64,0,0,1-.5-1.19,9.5,9.5,0,0,1-.17-1.29,20.12,20.12,0,0,1,.05-2.47c.05-.79.1-1.54.09-2.25a9.79,9.79,0,0,0-.22-2,5.32,5.32,0,0,0-1.24-2.54A3,3,0,0,0,287.88,64.24Z"/><path class="cls-8" d="M264.38,71.63l.06.05.19.14A2.54,2.54,0,0,0,265,72a3.87,3.87,0,0,0,.46.24,6.75,6.75,0,0,0,3.26.59,8.6,8.6,0,0,0,4.58-1.7,14.77,14.77,0,0,0,3.94-4.54c.55-.92,1-1.86,1.5-2.73a9.87,9.87,0,0,1,1.7-2.31,5.17,5.17,0,0,1,2.18-1.33,3.6,3.6,0,0,1,1.16-.13,4.06,4.06,0,0,1,1.06.2,4.44,4.44,0,0,1,1.58,1,4.64,4.64,0,0,1,.86,1.11,5.88,5.88,0,0,1,.39,1.14.6.6,0,0,0,0-.08l0-.23a4.29,4.29,0,0,0-.29-.86,4.42,4.42,0,0,0-2.46-2.15,4.3,4.3,0,0,0-1.09-.22,3.81,3.81,0,0,0-1.2.13,5.35,5.35,0,0,0-2.27,1.35,10.29,10.29,0,0,0-1.73,2.34c-.51.88-1,1.82-1.5,2.73a14.86,14.86,0,0,1-3.89,4.5,8.47,8.47,0,0,1-4.49,1.7,6.88,6.88,0,0,1-3.22-.52A9.91,9.91,0,0,1,264.38,71.63Z"/><path class="cls-8" d="M263.69,68.29s.09.08.27.19a5.4,5.4,0,0,0,.81.41,7.26,7.26,0,0,0,1.27.42,9,9,0,0,0,1.64.22,8.58,8.58,0,0,0,1.64-.11,8.09,8.09,0,0,0,1.3-.34,5,5,0,0,0,.83-.36,1.6,1.6,0,0,0,.29-.17s-.44.19-1.16.41a8.1,8.1,0,0,1-1.28.3,9.31,9.31,0,0,1-1.62.09,9.71,9.71,0,0,1-1.6-.2,10.46,10.46,0,0,1-1.27-.37C264.11,68.51,263.7,68.27,263.69,68.29Z"/><path class="cls-4" d="M269.9,79.26c.15.16,1-.55,2.3-.58s2.22.59,2.36.42-.1-.35-.51-.64a3.18,3.18,0,0,0-3.72.12C270,78.9,269.82,79.19,269.9,79.26Z"/><path class="cls-4" d="M270.17,82.33a1,1,0,0,0,1.06,1,1,1,0,0,0,1-1,1,1,0,0,0-1.06-1A1,1,0,0,0,270.17,82.33Z"/><path class="cls-12" d="M309.8,306.12l1.58,19L317,339.73a2,2,0,0,1-1.25,2.56h0a2,2,0,0,1-1.76-.32c-3.18-2.47-14.65-11.52-14.78-12.7-.17-1.53-3.09-20.18-3.09-20.18Z"/><path class="cls-4" d="M315.7,342.29l-16.86-15.18.17,1.4c.11.77.12,1.19.63,1.67a164,164,0,0,0,14.12,12.11,2.2,2.2,0,0,0,1.94,0Z"/><path class="cls-7" d="M302.16,321.19a1.18,1.18,0,0,1,.48,1.5,1.13,1.13,0,0,1-1.48.49,1.23,1.23,0,0,1-.5-1.58,1.17,1.17,0,0,1,1.59-.35"/><path class="cls-4" d="M310.49,334.48c.11,0,.44-1,1.5-1.65a5.88,5.88,0,0,1,2.14-.65c0-.05-.24-.17-.69-.19a3.2,3.2,0,0,0-1.67.48,3.11,3.11,0,0,0-1.15,1.3C310.44,334.18,310.44,334.47,310.49,334.48Z"/><path class="cls-4" d="M312.11,336.87c.1.07.64-.61,1.59-1a15.16,15.16,0,0,1,1.82-.44,2.15,2.15,0,0,0-2,.05C312.46,335.93,312,336.83,312.11,336.87Z"/><path class="cls-4" d="M307.64,331.49A18.49,18.49,0,0,1,310,329.8a18.13,18.13,0,0,1,2.74-.95,5.34,5.34,0,0,0-5.09,2.64Z"/><path class="cls-4" d="M306.68,325.77c.06.11,1.06-.44,2.41-.63s2.47,0,2.5-.11a4.82,4.82,0,0,0-4.91.74Z"/><path class="cls-4" d="M306.07,320.21a9.74,9.74,0,0,1,2.5-.72,9.58,9.58,0,0,1,2.58.36s-.21-.26-.67-.46a4.22,4.22,0,0,0-3.81.27C306.24,319.93,306,320.17,306.07,320.21Z"/><path class="cls-4" d="M308.43,318.43a1.73,1.73,0,0,0-.05-.72,5.06,5.06,0,0,0-.77-1.81,2.17,2.17,0,0,0-1.06-.95.78.78,0,0,0-.86.26,1.3,1.3,0,0,0-.21.89,2.76,2.76,0,0,0,2.67,2.28,3.19,3.19,0,0,0,3-2,1.13,1.13,0,0,0-.05-.93.78.78,0,0,0-.84-.32,2.9,2.9,0,0,0-1.18.78,5.68,5.68,0,0,0-1.13,1.61c-.2.42-.25.68-.22.69a8.82,8.82,0,0,1,1.56-2.08,2.5,2.5,0,0,1,1-.66.41.41,0,0,1,.46.17.76.76,0,0,1,0,.61,2.84,2.84,0,0,1-2.57,1.7,2.4,2.4,0,0,1-2.3-1.9,1,1,0,0,1,.12-.63.43.43,0,0,1,.48-.15,2,2,0,0,1,.91.79A7.88,7.88,0,0,1,308.43,318.43Z"/><path class="cls-12" d="M264.89,307.1l.7,16.06s-16.09,6.11-16.25,9.09l31.19-.25-.07-25.07Z"/><path class="cls-3" d="M275.22,321.73a1.27,1.27,0,0,1,.89,1.45,1.22,1.22,0,0,1-1.42.9,1.35,1.35,0,0,1-.94-1.54,1.27,1.27,0,0,1,1.59-.77"/><path class="cls-4" d="M280.53,332l-.11-2.52-29.86,1.18s-1.39.61-1.22,1.59Z"/><path class="cls-4" d="M265.08,323c0,.16.77.22,1.52.7s1.16,1.12,1.3,1.06-.09-.94-1-1.51S265.05,322.86,265.08,323Z"/><path class="cls-4" d="M261.82,324.38c0,.15.63.4,1.15,1s.68,1.32.83,1.32.24-.87-.42-1.66S261.82,324.24,261.82,324.38Z"/><path class="cls-4" d="M260,328.31c.14,0,.35-.73-.05-1.56s-1.11-1.16-1.18-1,.38.57.7,1.26S259.84,328.3,260,328.31Z"/><path class="cls-4" d="M265.33,319.33c.06.13.76-.08,1.62,0s1.53.32,1.61.19-.57-.67-1.58-.72S265.25,319.21,265.33,319.33Z"/><path class="cls-4" d="M259.46,191.77c0,.93,3.62,129.29,3.62,129.29h19.28l3.91-109.8s4.56,57.41,4.56,58.65,4,51.77,4,51.77l17.88-1.46-1.18-115.61-2.18-17Z"/><path class="cls-8" d="M288.27,207.19a2.89,2.89,0,0,1-.78.33c-.51.19-1.26.45-2.18.76l-.17.06,0-.18c-.1-1.55-.23-3.61-.34-5.87-.12-2.46-.21-4.68-.26-6.29,0-.8,0-1.46,0-1.91a2.29,2.29,0,0,1,0-.7,3.23,3.23,0,0,1,.11.7c0,.45.1,1.1.15,1.9.12,1.6.25,3.82.37,6.28.12,2.26.2,4.33.25,5.87l-.19-.12c.93-.28,1.69-.5,2.22-.64A4.68,4.68,0,0,1,288.27,207.19Z"/><path class="cls-8" d="M286.81,193.84s.06-.1.25-.16a1.14,1.14,0,0,1,.85.07,1.05,1.05,0,0,1,.65,1.06,1.29,1.29,0,0,1-1,1.13,1.41,1.41,0,0,1-1.42-.64,1.15,1.15,0,0,1,0-1.22,1.21,1.21,0,0,1,.64-.53c.19-.07.3-.06.3,0s-.43.15-.7.69a.92.92,0,0,0,0,.93,1.11,1.11,0,0,0,1,.46,1,1,0,0,0,.75-.82.79.79,0,0,0-.43-.79A1.57,1.57,0,0,0,286.81,193.84Z"/><path class="cls-8" d="M295.66,195.16c-.11,0-.25-.54-.33-1.24s-.05-1.27.05-1.28.26.54.33,1.24S295.76,195.15,295.66,195.16Z"/><path class="cls-8" d="M297,195c-.1,0-.19-.59-.19-1.32s.08-1.33.18-1.33.2.59.2,1.33S297.1,195,297,195Z"/><path class="cls-8" d="M273.75,195.92a3.39,3.39,0,0,1-.36-1.49,3.23,3.23,0,0,1,0-1.53c.11,0,.27.65.37,1.49S273.86,195.91,273.75,195.92Z"/><path class="cls-8" d="M275.37,196a2.37,2.37,0,0,1-.47-1.56,2.28,2.28,0,0,1,.34-1.59,7.71,7.71,0,0,1,0,1.58C275.32,195.32,275.48,196,275.37,196Z"/><path class="cls-8" d="M269.28,194.33a1.82,1.82,0,0,1-.07.56,11.69,11.69,0,0,1-.39,1.51,15.84,15.84,0,0,1-2.38,4.57,16.68,16.68,0,0,1-3.77,3.65,13.2,13.2,0,0,1-1.37.84,2.27,2.27,0,0,1-.54.24s.7-.46,1.76-1.27a18.64,18.64,0,0,0,3.64-3.65,17.94,17.94,0,0,0,2.43-4.46C269.05,195.11,269.22,194.31,269.28,194.33Z"/><path class="cls-8" d="M311,203a1.75,1.75,0,0,1-.58.09,9,9,0,0,1-1.61,0,10.59,10.59,0,0,1-4.94-1.83,9.77,9.77,0,0,1-3.29-4,7.77,7.77,0,0,1-.51-1.45,1.7,1.7,0,0,1-.08-.56c.06,0,.23.77.81,1.92A10.41,10.41,0,0,0,304,201a11.15,11.15,0,0,0,4.77,1.86C310.12,203,311,202.92,311,203Z"/><path class="cls-8" d="M279.55,268c0,.09-3.22-.65-7.13-1.64s-7.08-1.87-7.05-2,3.22.65,7.14,1.64S279.58,267.89,279.55,268Z"/><path class="cls-8" d="M310.62,263.31c0,.08-2.74,1.62-6.21,3.45s-6.33,3.24-6.38,3.17,2.74-1.63,6.21-3.46S310.57,263.23,310.62,263.31Z"/><polygon class="cls-10" points="269.04 110.76 277.8 107.32 293.93 106.41 301.51 109.29 291.12 115.06 282.16 114.73 269.04 110.76"/><path class="cls-12" d="M258.71,193.17c.79.14,53.65,2.38,53.65,2.38L310.51,148l-.16-9.34-3-28.27s-7.9-2.71-11.93-4c0,0-4.24,4.42-12.31,4.3-7.89-.12-9.54-1.89-9.54-1.89l-11,4.22s-7.84,2.82-9.19,6.28S249.64,142,249.64,142h11.43l-.22,34.07Z"/><g class="cls-6"><polyline points="291.95 129.74 293.58 141.72 301.51 145.26 307.38 140.27 307.38 129.14 291.95 129.74"/></g><path class="cls-4" d="M307.17,133.14c0,.1-3.3.18-7.36.18s-7.36-.08-7.36-.18,3.29-.18,7.36-.18S307.17,133,307.17,133.14Z"/><path class="cls-4" d="M255.15,124.28a1.11,1.11,0,0,1,.08.31c.06.24.13.54.21.92a28.85,28.85,0,0,0,1.06,3.37c.52,1.42,1.27,3.09,2.18,5s1.64,4.1,2.45,6.48v.05c0,2.84,0,6-.06,9.22-.08,7.26-.15,13.84-.2,18.64,0,2.36-.08,4.29-.1,5.65,0,.65,0,1.16,0,1.54a4.36,4.36,0,0,1,0,.53,3.6,3.6,0,0,1,0-.53c0-.39,0-.9,0-1.54,0-1.37,0-3.29,0-5.65,0-4.8.06-11.38.09-18.65,0-3.25.06-6.37.09-9.22v.06c-.79-2.38-1.56-4.58-2.39-6.47a52.22,52.22,0,0,1-2.12-5,26.14,26.14,0,0,1-1-3.42c-.08-.4-.13-.72-.16-.93A1.29,1.29,0,0,1,255.15,124.28Z"/><path class="cls-4" d="M311.19,118.72a6,6,0,0,1,0,1c0,.71-.06,1.64-.1,2.76-.1,2.39-.22,5.58-.36,9.1s-.31,6.72-.41,9.11c-.07,1.11-.12,2-.16,2.75a5.11,5.11,0,0,1-.11,1,6.66,6.66,0,0,1,0-1c0-.71,0-1.64.05-2.76.06-2.33.17-5.55.31-9.11s.31-6.78.47-9.1c.07-1.17.14-2.11.21-2.76A5,5,0,0,1,311.19,118.72Z"/><g class="cls-13"><path d="M255.18,126a19.84,19.84,0,0,0,5.19,14.16C259.29,135.26,256.61,130.7,255.18,126Z"/></g><g class="cls-13"><path d="M278.4,173.06a9.92,9.92,0,0,0,6.34-3.53,30.41,30.41,0,0,0,4.26-6.17,24.49,24.49,0,0,0,2.5-9.7C288.42,161.91,283.9,168.44,278.4,173.06Z"/></g><path class="cls-4" d="M292.47,150.06a1,1,0,0,1,0,.3c-.05.24-.12.52-.19.86s-.2.83-.36,1.35-.32,1.11-.55,1.75a40.61,40.61,0,0,1-1.83,4.44,44.6,44.6,0,0,1-2.91,5.11,45.08,45.08,0,0,1-3.58,4.66,38.27,38.27,0,0,1-3.41,3.38c-.5.47-1,.84-1.42,1.18s-.8.62-1.11.83l-.73.5q-.25.17-.27.15a1.3,1.3,0,0,1,.23-.21l.69-.55c.3-.22.66-.51,1.07-.87s.89-.74,1.38-1.21a42.22,42.22,0,0,0,3.33-3.41,45,45,0,0,0,6.45-9.7,46,46,0,0,0,1.88-4.38c.25-.63.43-1.22.6-1.73s.31-1,.41-1.32l.25-.84A1.21,1.21,0,0,1,292.47,150.06Z"/><path class="cls-4" d="M290.94,135.18a2,2,0,0,1-.06.49l-.24,1.38c-.1.6-.24,1.33-.46,2.17s-.41,1.8-.74,2.84c-.15.53-.31,1.07-.48,1.64s-.39,1.15-.6,1.76c-.4,1.22-.93,2.48-1.47,3.81a66.88,66.88,0,0,1-4.29,8.33,69.51,69.51,0,0,1-5.46,7.61c-.95,1.09-1.83,2.14-2.73,3-.45.46-.86.92-1.29,1.33l-1.24,1.17c-.78.77-1.55,1.39-2.2,2s-1.24,1-1.72,1.39l-1.12.85a2.08,2.08,0,0,1-.41.27,3.67,3.67,0,0,1,.37-.33l1.07-.89c.48-.38,1.05-.85,1.68-1.44s1.4-1.21,2.16-2l1.22-1.19c.42-.42.83-.88,1.27-1.34.89-.91,1.76-2,2.69-3.05a71.46,71.46,0,0,0,5.42-7.59,72.24,72.24,0,0,0,4.29-8.27c.54-1.33,1.09-2.58,1.49-3.79.21-.6.44-1.17.62-1.74l.5-1.63c.34-1,.56-2,.78-2.82s.4-1.55.52-2.15.23-1,.3-1.36A3.88,3.88,0,0,1,290.94,135.18Z"/><path class="cls-3" d="M249.18,120.4l20.35,30.94a.91.91,0,0,1-.88,1.41l-23.44-2.94a1,1,0,0,1-.63-.37L222.2,118.86a.91.91,0,0,1,.81-1.45l24.11,1.78A2.7,2.7,0,0,1,249.18,120.4Z"/><path class="cls-4" d="M249.18,120.4a1.44,1.44,0,0,0-.19-.28,2.48,2.48,0,0,0-.76-.64,3.26,3.26,0,0,0-1.56-.38l-2.18-.18-13.9-1.09-4.61-.35-2.45-.19c-.21,0-.4,0-.64,0a1,1,0,0,0-.68.28,1.09,1.09,0,0,0-.18,1.38l6.52,8.93,14.95,20.44c.34.46.64.89,1,1.37a1,1,0,0,0,.42.28,1.33,1.33,0,0,0,.45.09l.83.11,3.28.41,6.41.8L268,152.86c.25,0,.46.06.74.08a1.12,1.12,0,0,0,.78-.32,1.14,1.14,0,0,0,.32-.77,1.29,1.29,0,0,0-.28-.76L268,148.75l-2.95-4.47-5.32-8c-3.24-4.89-5.88-8.85-7.71-11.61l-2.11-3.15-.56-.81a3.21,3.21,0,0,0-.2-.27,1.73,1.73,0,0,0,.17.29l.52.83,2,3.19c1.81,2.78,4.41,6.76,7.61,11.69l5.28,8q1.41,2.18,2.94,4.49l1.53,2.35a1,1,0,0,1,.23.55.87.87,0,0,1-.22.53.74.74,0,0,1-.53.21c-.19,0-.47-.05-.7-.08L256,151l-6.42-.81-3.27-.41-.83-.1a1.43,1.43,0,0,1-.36-.07.64.64,0,0,1-.27-.18l-1-1.34-15-20.42-6.53-8.9a.76.76,0,0,1,.59-1.17c.17,0,.41,0,.61,0l2.45.18,4.61.32,13.91,1,2.18.14a2.92,2.92,0,0,1,2.52,1.19Z"/><path class="cls-4" d="M222.2,118.86a2,2,0,0,0,.49.08l1.42.14,5.3.47,18,1.47-.14-.08c1.12,1.67,2.29,3.41,3.45,5.21,4.76,7.3,8.91,14,12,18.8,1.56,2.39,2.86,4.31,3.76,5.63l1.06,1.5a3.51,3.51,0,0,0,.39.51,3.41,3.41,0,0,0-.33-.55c-.24-.39-.57-.9-1-1.55-.89-1.38-2.13-3.31-3.65-5.69-3.08-4.82-7.19-11.55-11.95-18.87q-1.76-2.69-3.47-5.21l-.05-.07h-.09l-18-1.34-5.31-.35-1.42-.08A2.7,2.7,0,0,0,222.2,118.86Z"/><polygon class="cls-7" points="236.73 123.23 236.73 123.23 236.72 123.23 236.73 123.23"/><path class="cls-7" d="M236.15,123.58a.47.47,0,0,1,.58-.34,1.2,1.2,0,0,1,.63.35.62.62,0,0,1,.11.8c-.23.29-.71.18-1-.06A.83.83,0,0,1,236.15,123.58Z"/><path class="cls-10" d="M247.1,140.93s.92-2.21-1.43-2.49a79.76,79.76,0,0,0-8.51,0s-3.37.35-2.65,2.77c0,0-2,1.78-.93,3.7s1.5,1.35,1.5,1.35-.29,2.35,1.49,2.71c0,0,1.93,2.27,3.7,2.13s9.32-3.77,9.81-4.48,1.21-1.12.79-1.91c0,0,.92-2.08-1.07-2.4C249.8,142.31,249.66,140.57,247.1,140.93Z"/><path class="cls-11" d="M236.4,141.72a5.92,5.92,0,0,0,1.59.12c1,0,2.33,0,3.82,0a22.31,22.31,0,0,0,3.84-.23c1-.24,1.41-.83,1.36-.84a4,4,0,0,1-1.41.57c-.94.15-2.3.06-3.79.11s-2.85.06-3.83.11A6.84,6.84,0,0,0,236.4,141.72Z"/><path class="cls-11" d="M238.08,145.28a1.36,1.36,0,0,0,.51.18,5.61,5.61,0,0,0,1.47.09,10.74,10.74,0,0,0,2.14-.39c.79-.22,1.62-.52,2.51-.79a10.68,10.68,0,0,1,2.52-.52,3.93,3.93,0,0,0,2.15-.44,1.27,1.27,0,0,0,.52-.73,1.09,1.09,0,0,0-.09-.67c-.19-.34-.44-.36-.44-.34a1.14,1.14,0,0,1,.3.41.91.91,0,0,1-.44,1.1,3.89,3.89,0,0,1-2,.31,10.68,10.68,0,0,0-2.62.5l-2.49.82a11.58,11.58,0,0,1-2.07.46A13.68,13.68,0,0,1,238.08,145.28Z"/><path class="cls-11" d="M240.6,148.29a6.76,6.76,0,0,0,1.59-.31c1-.24,2.28-.62,3.72-1.09s2.73-.95,3.65-1.32a6.37,6.37,0,0,0,1.46-.69,54.59,54.59,0,0,0-5.23,1.64C242.92,147.46,240.57,148.18,240.6,148.29Z"/><path class="cls-11" d="M240,151.08a3.33,3.33,0,0,0,1.31-.15,16,16,0,0,0,3-1.06c1.13-.51,2.11-1,2.83-1.42a4.72,4.72,0,0,0,1.12-.68,25.16,25.16,0,0,0-4.12,1.74C241.94,150.58,240,151,240,151.08Z"/><path class="cls-10" d="M314.94,129.87s-4.8,19.2-10.78,26.28c-5.8,6.87-14.89,3.71-18-5.17s-8.75-29.16-8.75-29.16l6.89-5.26,11.89,23.05,5.36-15.71Z"/><path class="cls-10" d="M277.69,122.35,272.64,115a12.87,12.87,0,0,1-2.15-.67c-.57-.34-1.14-3.24-1.12-3.81s-1-1.89-.58-2.27,1.75-.4,1.68-.94c0-.12-1-1.33-.22-2.22a4,4,0,0,1,1.42-.61l-.08-2.79s1.51-3.3,3.05-2.11c0,0,5.81,4.47,6.4,5.18s2.82,10,3.22,11.76"/><path class="cls-11" d="M284.26,116.56a3.31,3.31,0,0,0-.08-.5c-.08-.35-.18-.81-.3-1.39-.27-1.22-.68-3-1.23-5.13-.28-1.08-.59-2.26-1-3.52-.11-.31-.2-.63-.34-1a2.16,2.16,0,0,0-.68-.84c-.53-.46-1.09-.92-1.66-1.39-1.15-.93-2.38-1.89-3.65-2.88a4.43,4.43,0,0,0-1.06-.7,1.46,1.46,0,0,0-1.31.31,6,6,0,0,0-1.55,2.09l0,0v0c0,.27,0,.57,0,.86,0,.65,0,1.3.05,1.94l.14-.18a6.1,6.1,0,0,0-1,.34,1.5,1.5,0,0,0-.5.33,1.41,1.41,0,0,0-.28.51,1.67,1.67,0,0,0,.09,1.11,2.65,2.65,0,0,0,.23.48l.12.22,0,0s0,0,0,0,0,0,0,.05a.54.54,0,0,1-.29.2c-.14.06-.3.1-.45.15l-.48.16a.92.92,0,0,0-.48.34.81.81,0,0,0,0,.59,4.24,4.24,0,0,0,.17.47c.13.3.27.58.37.86a1,1,0,0,1,.09.39c0,.17,0,.32.05.47,0,.31.1.61.16.9a13.14,13.14,0,0,0,.47,1.69,2.19,2.19,0,0,0,.45.77,2.51,2.51,0,0,0,.78.35c.52.16,1,.28,1.5.4l-.08-.06,3.74,5.32,1,1.44a3.87,3.87,0,0,0,.38.48,4.56,4.56,0,0,0-.32-.53l-1-1.48L272.75,115l0,0-.05,0c-.48-.11-1-.24-1.47-.4a2.68,2.68,0,0,1-.68-.3,1.79,1.79,0,0,1-.35-.66,11.35,11.35,0,0,1-.45-1.65q-.09-.42-.15-.87a3.28,3.28,0,0,1,0-.43,1.41,1.41,0,0,0-.11-.51c-.11-.3-.25-.58-.37-.87a3.52,3.52,0,0,1-.15-.42.62.62,0,0,1,0-.35,1,1,0,0,1,.32-.18c.14-.06.29-.1.45-.15a4.5,4.5,0,0,0,.48-.16.83.83,0,0,0,.48-.39.46.46,0,0,0,0-.2.26.26,0,0,0,0-.13l0-.06-.13-.22a2.39,2.39,0,0,1-.2-.43,1.38,1.38,0,0,1-.08-.89.86.86,0,0,1,.58-.61,6.15,6.15,0,0,1,1-.33l.14,0v-.14c0-.64,0-1.29-.05-1.94l0-.86,0,.08a5.8,5.8,0,0,1,1.44-2,1.09,1.09,0,0,1,1-.26,4,4,0,0,1,.95.64c1.27,1,2.5,1.94,3.65,2.86.58.46,1.14.91,1.66,1.37a1.79,1.79,0,0,1,.61.72c.13.31.23.62.34.93.39,1.25.72,2.42,1,3.5.56,2.12,1,3.85,1.34,5.09l.36,1.38A1.71,1.71,0,0,0,284.26,116.56Z"/><path class="cls-11" d="M271.67,104.52c0,.06.59,0,1.51.1a11.26,11.26,0,0,1,1.59.37,7.38,7.38,0,0,0,2.05,0,3.83,3.83,0,0,1,3.24,1,3.91,3.91,0,0,1,.78,1.24,1.93,1.93,0,0,0-.59-1.42,3.82,3.82,0,0,0-1.39-1,4.26,4.26,0,0,0-2.06-.26,7.65,7.65,0,0,1-2,0,9.07,9.07,0,0,0-1.63-.29A4.08,4.08,0,0,0,271.67,104.52Z"/><path class="cls-11" d="M273.73,104.37c.08,0,.32-.3.29-.78s-.3-.79-.38-.74,0,.37,0,.76S273.64,104.33,273.73,104.37Z"/><path class="cls-11" d="M270.29,107.45a12.7,12.7,0,0,0,4.38-.34,4.35,4.35,0,0,1,1.61-.21,1.82,1.82,0,0,1,1,.69,9.11,9.11,0,0,1,.57,1.11,2.14,2.14,0,0,0-1.55-2.12,4.18,4.18,0,0,0-1.75.18C272.24,107.27,270.29,107.34,270.29,107.45Z"/><path class="cls-11" d="M269.52,110.09a2.24,2.24,0,0,0,1.07,0c.66-.08,1.55-.3,2.52-.49a5.58,5.58,0,0,1,1.35-.14,1.67,1.67,0,0,1,1,.35,1.49,1.49,0,0,1,.47.86s.07-.1.06-.3a1.18,1.18,0,0,0-.36-.74,1.77,1.77,0,0,0-1.12-.5,5.18,5.18,0,0,0-1.45.11c-1,.2-1.85.46-2.49.6A5.39,5.39,0,0,0,269.52,110.09Z"/><path class="cls-11" d="M271.25,112.19c-.06,0,.43.56,1.34.56l-.18-.16c0,.16,0,.31,0,.47a4.89,4.89,0,0,0,.42,1.84,5.29,5.29,0,0,0-.06-1.88l-.07-.47,0-.16h-.16A6,6,0,0,1,271.25,112.19Z"/><path class="cls-12" d="M307.35,110.42s9.82,2.38,9.8,15.4-3,19.44-3,19.44l-18.09-9.85,4-10.13Z"/><path class="cls-4" d="M314.18,145.26a1.68,1.68,0,0,1-.37-.16l-1.05-.54-3.86-2L296,135.58l-.15-.08.06-.15,1-2.54c1.16-3,2.26-5.86,3.26-8.47l1.44-3.69a21.67,21.67,0,0,1,1.43-3.16,9.88,9.88,0,0,1,3.26-3.78,4,4,0,0,1,1.28-.51,1.85,1.85,0,0,1,.35,0H308a5.08,5.08,0,0,0-1.67.68,9.88,9.88,0,0,0-3.1,3.78,21.43,21.43,0,0,0-1.38,3.14l-1.4,3.7c-1,2.61-2.08,5.48-3.23,8.48l-1,2.54-.09-.23L309,142.31l3.8,2.13,1,.59A1.59,1.59,0,0,1,314.18,145.26Z"/><path class="cls-5" d="M74.24,293.52l-17,15.54L76.48,330.3c1.92-2-4-16.63-4-16.63L83.14,303.4Z"/><path class="cls-7" d="M67.5,306.26a1.18,1.18,0,0,0-1.54.3,1.12,1.12,0,0,0,.28,1.52,1.24,1.24,0,0,0,1.63-.32,1.17,1.17,0,0,0-.47-1.55"/><path class="cls-4" d="M57.25,309.06,59,307.42l17.72,21.13s.43,1.32-.33,1.81Z"/><path class="cls-7" d="M72.94,313.91c-.11.09-.62-.38-1.42-.59s-1.47-.09-1.52-.22.69-.52,1.65-.25S73.06,313.85,72.94,313.91Z"/><path class="cls-7" d="M74,317c-.08.12-.67-.17-1.42-.13s-1.32.37-1.41.26.39-.7,1.34-.74S74.13,316.88,74,317Z"/><path class="cls-7" d="M72.52,320.65c-.14-.09.17-.65,1.09-.93s1.47,0,1.42.15-.62.1-1.28.31S72.62,320.75,72.52,320.65Z"/><path class="cls-7" d="M75.28,311.46c-.14,0-.43-.56-1-1.12s-1.17-.84-1.13-1,.81,0,1.47.63S75.4,311.44,75.28,311.46Z"/><path class="cls-7" d="M77.34,308.67s-.48-.31-1-1.07a6.5,6.5,0,0,1-.67-1.42,6.23,6.23,0,0,1-.22-.9,1.58,1.58,0,0,1,0-.55.6.6,0,0,1,.5-.55.76.76,0,0,1,.65.24,1.92,1.92,0,0,1,.31.45,4.64,4.64,0,0,1,.37.87,4.91,4.91,0,0,1,.24,1.56,2.48,2.48,0,0,1-.29,1.41c-.08,0,0-.55,0-1.39a5.81,5.81,0,0,0-.32-1.44,5.51,5.51,0,0,0-.37-.78c-.14-.28-.31-.47-.47-.44s-.07,0-.09.13a1.22,1.22,0,0,0,0,.41,7.52,7.52,0,0,0,.18.85,8.46,8.46,0,0,0,.54,1.38A10.48,10.48,0,0,1,77.34,308.67Z"/><path class="cls-7" d="M77.07,308.67s.13-.56.77-1.21a4.65,4.65,0,0,1,1.3-.91,4.06,4.06,0,0,1,.89-.31,1.17,1.17,0,0,1,1.15.19.65.65,0,0,1,.1.71,1.82,1.82,0,0,1-.29.46,3.08,3.08,0,0,1-.71.65,3.19,3.19,0,0,1-1.51.54,1.86,1.86,0,0,1-1.42-.27c0-.09.55.09,1.37-.07a3.26,3.26,0,0,0,1.3-.57,2.68,2.68,0,0,0,.6-.57c.19-.24.3-.49.2-.55s-.43-.13-.69-.06a4.26,4.26,0,0,0-.81.26,5.44,5.44,0,0,0-1.25.75C77.42,308.25,77.13,308.71,77.07,308.67Z"/><path class="cls-5" d="M70.14,308.5l.22,23L99,331.41c-.18-2.74-15-8.17-15-8.17l.47-14.76Z"/><path class="cls-7" d="M75.12,322a1.17,1.17,0,0,0-.81,1.34,1.14,1.14,0,0,0,1.32.81,1.23,1.23,0,0,0,.85-1.42,1.18,1.18,0,0,0-1.47-.69"/><path class="cls-4" d="M70.35,331.58l0-2.47,27.56.93s1.27.56,1.12,1.46Z"/><path class="cls-7" d="M84.45,323.09c0,.14-.71.21-1.39.66s-1,1-1.18,1,.07-.87.91-1.4S84.48,323,84.45,323.09Z"/><path class="cls-7" d="M87.46,324.32c0,.13-.58.38-1,1s-.61,1.22-.74,1.21-.24-.79.37-1.52S87.45,324.19,87.46,324.32Z"/><path class="cls-7" d="M89.18,327.91c-.13,0-.33-.67,0-1.44s1-1.07,1.07-1-.34.53-.63,1.17S89.32,327.89,89.18,327.91Z"/><path class="cls-7" d="M84.18,319.71c-.06.13-.7-.06-1.49,0s-1.41.31-1.48.19.52-.62,1.45-.68S84.25,319.6,84.18,319.71Z"/><path class="cls-14" d="M71.58,177.14a41,41,0,0,0-6,8.41c-2,4.12-5,12.9-5,12.9s-3.77,13.41-2.93,19.72,6.49,49.54,6.49,49.54S63,302,67.87,317.21l.89,4,16.15-2.87h0l3.58-84.8,9.86-56.07Z"/><path class="cls-8" d="M92.21,180.75c-.07,0,0-.53-.62-.93a1.19,1.19,0,0,0-1.11-.11,1.15,1.15,0,0,0-.72,1.08,1.17,1.17,0,0,0,.76,1.06,1.19,1.19,0,0,0,1.1-.15c.56-.42.52-1,.59-.95s.06.12,0,.34a1.35,1.35,0,0,1-.46.83,1.45,1.45,0,0,1-1.39.27,1.5,1.5,0,0,1-1-1.39,1.52,1.52,0,0,1,1-1.43,1.43,1.43,0,0,1,1.4.23,1.28,1.28,0,0,1,.49.81C92.27,180.63,92.23,180.75,92.21,180.75Z"/><path class="cls-14" d="M111,188.79s5.92,53.76,6.78,63-32.66,58.46-32.66,58.46l-14.14-16.7,21.57-40.1L85.25,213.5l9.56-36,14.87.18Z"/><path class="cls-8" d="M65.4,304.27a9.28,9.28,0,0,0,.11,1.17c.1.77.29,1.9.56,3.37.53,2.92,1.41,7.17,2.58,12.47l0,.11.11,0,16.16-2.83.12,0v-.13c.45-11.09,1-24.34,1.56-38.55.6-15.29,1.15-29.46,1.6-41.1v0l2.91-22.48c.34-2.69.61-4.79.79-6.25.09-.71.15-1.25.2-1.64s.05-.56.05-.56,0,.18-.1.55-.14.93-.24,1.64c-.2,1.45-.49,3.56-.87,6.24-.73,5.4-1.77,13.12-3,22.46h0c-.47,11.63-1.05,25.81-1.67,41.1-.55,14.21-1.07,27.46-1.5,38.55l.13-.15-16.15,2.91.14.09c-1.2-5.3-2.11-9.53-2.69-12.45-.28-1.45-.49-2.58-.61-3.35-.07-.38-.11-.67-.13-.87S65.4,304.27,65.4,304.27Z"/><path class="cls-8" d="M89.86,199a5.79,5.79,0,0,1,.88,0,4.06,4.06,0,0,0,2.28-.39,2.11,2.11,0,0,0,.91-1.22,8.46,8.46,0,0,0,.28-1.85c.11-1.34.23-2.82.33-4.36.21-3.11.32-5.92.39-7.95,0-1,.07-1.76.09-2.41a4.6,4.6,0,0,1,.07-.89,4,4,0,0,1,.08.89c0,.57,0,1.39,0,2.41,0,2-.07,4.86-.28,8-.1,1.55-.23,3-.36,4.37a8.37,8.37,0,0,1-.33,1.92,2.37,2.37,0,0,1-1.08,1.36,3.11,3.11,0,0,1-1.37.36,6.39,6.39,0,0,1-1-.06A3.25,3.25,0,0,1,89.86,199Z"/><path class="cls-8" d="M110.31,188.83a5.65,5.65,0,0,1-1.54-.82,15.8,15.8,0,0,1-3.18-2.77,16.35,16.35,0,0,1-2.34-3.51,5.64,5.64,0,0,1-.61-1.64,28.53,28.53,0,0,0,3.24,4.9A27.92,27.92,0,0,0,110.31,188.83Z"/><path class="cls-5" d="M59.45,128.68l6.44,23.38,2.85,12.44c0,10.71-2.85,15.6-2.85,15.6l43.82-2.19s.72-29.65,0-35.26l-5.33-19.42-13.9-3.41-17.35.33Z"/><path class="cls-4" d="M119.66,161.55a2.83,2.83,0,0,1-.17-1.15,8.1,8.1,0,0,1,.49-2.78,7.8,7.8,0,0,1,1.43-2.42c.48-.55.85-.81.88-.78a13.81,13.81,0,0,0-2,3.32A13.43,13.43,0,0,0,119.66,161.55Z"/><path class="cls-5" d="M133,146.16,121.61,153l-6.45-16.54a80,80,0,0,0-3.73-7.09c-3.79-6.64-8.59-6.29-8.59-6.29l-5.79,8.6,6.15,13.17s3.74,24.42,11,26.32c11.07,2.89,18.8-25,18.8-25Z"/><g class="cls-13"><path d="M61.92,194.72c5.16-.2,10.52-2.39,15-5s8.46-5.9,12.65-8.92c10-7.24,29.92-23.1,39.21-31.25l-2.69.6-62.58,40.5Z"/></g><path class="cls-4" d="M109.85,171.34a1.84,1.84,0,0,1,0-.43c0-.33,0-.74,0-1.24,0-1.13,0-2.67,0-4.55,0-3.89,0-9.18.07-15,0-1.47.06-2.9,0-4.27a24.06,24.06,0,0,0-.54-3.92,20.25,20.25,0,0,0-2.69-6.1c-1-1.65-1.76-3-2.22-4-.24-.49-.4-.87-.5-1.14a2.1,2.1,0,0,1-.14-.41,1.49,1.49,0,0,1,.21.38c.12.26.31.63.56,1.1.5,1,1.31,2.27,2.32,3.91a20,20,0,0,1,2.81,6.16,24.8,24.8,0,0,1,.57,4c.1,1.4,0,2.84,0,4.3-.07,5.84-.13,11.13-.18,15,0,1.88-.08,3.42-.1,4.55l0,1.24A1.84,1.84,0,0,1,109.85,171.34Z"/><path class="cls-4" d="M105.61,103.1a3,3,0,0,1-2.75-1.23,3.47,3.47,0,0,0,2.12-.12c.64-.33,1-1.27.5-1.78s-1-.33-1.6-.37A3.45,3.45,0,0,1,101,97.34c-.48-1.36,0-2.84.13-4.27a11.76,11.76,0,0,0-4.93-10.85l-9-5.17C84,81.2,82.94,86.8,83.62,92s2.89,10.14,5.56,14.69a17.09,17.09,0,0,0,2.7,3.72,6.92,6.92,0,0,0,4,2.06,4.15,4.15,0,0,0-.66-3.74,9,9,0,0,0,6.65-2.39L100,104.9A7,7,0,0,0,105.61,103.1Z"/><path class="cls-15" d="M71.14,88.5a8.39,8.39,0,0,1,6.09-7.9l11.22-3.21c4.87-.67,8.3,5.25,8.76,10.14.51,5.44.9,11.18.38,15.27-1,8.21-7.28,9.44-7.28,9.44s.1,3.73.17,6.11l-.11,18.24L73.81,118.7,71.12,88.6C71.11,88.46,71.13,88.68,71.14,88.5Z"/><path class="cls-4" d="M95.79,93.78a1,1,0,0,1-1,1.09A1,1,0,0,1,93.71,94a1,1,0,0,1,1-1.09A1,1,0,0,1,95.79,93.78Z"/><path class="cls-4" d="M96.08,90.77c-.13.14-.94-.42-2.07-.38s-1.94.62-2.06.49.06-.31.41-.59A2.93,2.93,0,0,1,94,89.73a2.72,2.72,0,0,1,1.65.48C96,90.46,96.14,90.71,96.08,90.77Z"/><path class="cls-4" d="M85.92,93.79a1.06,1.06,0,0,1-1,1.09A1,1,0,0,1,83.83,94a1,1,0,0,1,1-1.09A1,1,0,0,1,85.92,93.79Z"/><path class="cls-4" d="M85.37,91.08c-.13.14-.94-.43-2.07-.39s-1.94.63-2.06.49.06-.31.41-.58A2.9,2.9,0,0,1,83.3,90a2.79,2.79,0,0,1,1.65.47C85.3,90.77,85.43,91,85.37,91.08Z"/><path class="cls-4" d="M89.14,99.83A8.09,8.09,0,0,1,91,99.45c.28,0,.55-.11.6-.3a1.49,1.49,0,0,0-.22-.85l-.92-2.17a37.07,37.07,0,0,1-2.09-5.68A38.59,38.59,0,0,1,90.88,96l.88,2.18A1.69,1.69,0,0,1,92,99.26a.72.72,0,0,1-.46.43,2.57,2.57,0,0,1-.49.09A7.08,7.08,0,0,1,89.14,99.83Z"/><path class="cls-16" d="M79.38,109.64s2.82,5.54,11,4.53l0-1.93A20.59,20.59,0,0,1,79.38,109.64Z"/><path class="cls-4" d="M84.89,87.44c-.1.31-1.23.2-2.55.4s-2.37.59-2.56.32.1-.42.52-.73a4.37,4.37,0,0,1,1.88-.73,4.29,4.29,0,0,1,2,.18C84.69,87.06,84.94,87.29,84.89,87.44Z"/><path class="cls-4" d="M95.61,87.33c-.19.26-1,0-1.91,0s-1.72.22-1.91,0,0-.39.37-.64a2.76,2.76,0,0,1,3.08,0C95.58,86.94,95.7,87.2,95.61,87.33Z"/><path class="cls-16" d="M84.91,102a1.47,1.47,0,0,1,1.49-1.16,1.52,1.52,0,0,1,1.21.8,1.88,1.88,0,0,1,.11,1.47l0,.11a1.69,1.69,0,0,1-1.88.46A1.58,1.58,0,0,1,84.91,102Z"/><path class="cls-4" d="M88.52,103.26c0-.17-1.15-.08-2-1s-.86-2.14-1-2.13-.2.28-.17.8a2.84,2.84,0,0,0,.78,1.78,2.47,2.47,0,0,0,1.7.76C88.26,103.49,88.53,103.34,88.52,103.26Z"/><path class="cls-4" d="M74.91,75.48A11.41,11.41,0,0,1,81.49,71c2.67-.47,4.27,0,6,1.59a6.64,6.64,0,0,0,2.64,1.56c1.27.25,2.34,0,3.86.82,2.08,1.06,3,3.84,4,6,1.2,2.64,2.9,5.08,3.68,7.87s.37,6.23-2,7.93c.45-2.39.82-5-.49-7.09-1-1.55-2.78-2.42-4.06-3.75-1.55-1.62-1.75-3.77-3.37-5.31C88,77,81.53,83.22,74.91,75.48"/><path class="cls-4" d="M98.42,86.65a24.16,24.16,0,0,0-3.65-6.6,12.85,12.85,0,0,0-17.08-2.19l-.64,0A10.8,10.8,0,0,0,85.47,82c1.93,0,4-.5,5.66.49s2.18,2.94,3.49,4.25c.89.89,2.08,1.44,2.94,2.35a9.73,9.73,0,0,1,1.82,3.53C100,90.63,99.2,88.54,98.42,86.65Z"/><path class="cls-4" d="M81.22,79.46,76,74.85c-4.08-.22-6.7,3.64-8.11,6.62-1,2.22-1.36,4.7-2.15,7s-2.09,4.58-2.83,7-.83,5.2.62,7.25l.91-1.68a10.13,10.13,0,0,0,2.75,6.28c.12-.59.23-1.17.35-1.75a9.84,9.84,0,0,0,3.94,4.24l2.46,6.56C77.54,105.33,68.21,104.49,81.22,79.46Z"/><path class="cls-4" d="M80.47,80.42a23.53,23.53,0,0,1-1.23,4.38,8.43,8.43,0,0,1-2.7,3.61c-1.79,1.3-4.1,1.57-6.25,2.09S65.84,92,65,94a50.66,50.66,0,0,1,1.83-8.79c1-3.17,2.35-6.39,5-8.38a9.15,9.15,0,0,1,8.61-1.29"/><path class="cls-15" d="M74.9,94.86c-.11-.28-5.2-2-5.11,3.4.08,5.2,5.3,4,5.3,3.88S74.9,94.86,74.9,94.86Z"/><path class="cls-16" d="M73.45,100.2s-.09.06-.24.14a.9.9,0,0,1-.68,0,2.23,2.23,0,0,1-1.07-2,3,3,0,0,1,.23-1.3,1.07,1.07,0,0,1,.66-.71.47.47,0,0,1,.54.24.93.93,0,0,1,.07.26s.11-.09.07-.3a.64.64,0,0,0-.21-.33.71.71,0,0,0-.51-.12,1.28,1.28,0,0,0-.93.83,3,3,0,0,0-.28,1.45,2.35,2.35,0,0,0,1.36,2.22,1,1,0,0,0,.83-.15C73.44,100.33,73.47,100.21,73.45,100.2Z"/><path class="cls-7" d="M72.89,101.13a1,1,0,1,0,.24.07"/><path class="cls-4" d="M73.13,101.2a1.5,1.5,0,0,1,.49.69.88.88,0,0,1-.18.82,1,1,0,0,1-1,.31,1,1,0,0,1-.65-.77.86.86,0,0,1,.28-.79,1.53,1.53,0,0,1,.78-.33s-.08,0-.25,0a1.09,1.09,0,0,0-1,1.2,1.15,1.15,0,0,0,.8,1,1.18,1.18,0,0,0,1.2-.39,1,1,0,0,0,.17-1,1.14,1.14,0,0,0-.41-.55C73.23,101.2,73.14,101.19,73.13,101.2Z"/><path class="cls-8" d="M80.81,80.76a15.79,15.79,0,0,0-2-3.36,14.74,14.74,0,0,0-3-2.46,2.66,2.66,0,0,1,1.1.44A8.12,8.12,0,0,1,79,77.18a8.29,8.29,0,0,1,1.49,2.43A3,3,0,0,1,80.81,80.76Z"/><path class="cls-4" d="M211.51,97a5.43,5.43,0,0,1,.15.63c.08.42.24,1,.35,1.83a44,44,0,0,1,.54,6.85,46.83,46.83,0,0,1-1.05,10.13,42.23,42.23,0,0,1-1.64,5.79,39.53,39.53,0,0,1-2.66,5.9,40,40,0,0,1-3.62,5.37,46,46,0,0,1-4.14,4.39,42.11,42.11,0,0,1-8.3,5.89,33.39,33.39,0,0,1-6.35,2.63c-.77.25-1.39.36-1.81.46a3.19,3.19,0,0,1-.64.12,5,5,0,0,1,.62-.19c.41-.13,1-.26,1.79-.54a35,35,0,0,0,6.26-2.72,42.27,42.27,0,0,0,8.19-5.91,45.37,45.37,0,0,0,4.09-4.37,39.1,39.1,0,0,0,3.58-5.31,39.62,39.62,0,0,0,2.63-5.84,43.35,43.35,0,0,0,1.66-5.75,47.78,47.78,0,0,0,1.12-10,46.47,46.47,0,0,0-.42-6.82c-.08-.81-.22-1.42-.27-1.85A3.84,3.84,0,0,1,211.51,97Z"/><path class="cls-4" d="M215.34,89.24a46.73,46.73,0,1,0,4.29,35.45A46.4,46.4,0,0,0,215.34,89.24ZM186,71.45a42.11,42.11,0,1,1-11.4-1.56A42.8,42.8,0,0,1,186,71.45Z"/><path class="cls-4" d="M138.84,126.88a1.29,1.29,0,0,1-.19-.34l-.47-1a15,15,0,0,1-.66-1.64c-.23-.66-.53-1.39-.74-2.23-.12-.43-.24-.87-.37-1.32s-.2-1-.31-1.45c-.24-1-.37-2.09-.53-3.23a40.43,40.43,0,0,1-.09-7.5,39.57,39.57,0,0,1,1.4-7.36A32.63,32.63,0,0,1,138,97.7c.19-.48.36-.94.56-1.37s.4-.84.59-1.24c.36-.79.78-1.46,1.12-2.07a15,15,0,0,1,.94-1.5l.64-.92a2.21,2.21,0,0,1,.24-.31,1.41,1.41,0,0,1-.18.35c-.15.26-.34.57-.58,1s-.56.91-.88,1.53-.72,1.28-1,2.08c-.18.39-.37.81-.57,1.23s-.35.9-.54,1.37c-.39.94-.69,2-1,3.08a41.57,41.57,0,0,0-1.36,7.3,42.43,42.43,0,0,0,.06,7.42c.15,1.13.26,2.21.49,3.21.1.49.17,1,.29,1.44s.23.89.34,1.31c.19.85.47,1.58.68,2.24a16.65,16.65,0,0,0,.6,1.66l.4,1A1.8,1.8,0,0,1,138.84,126.88Z"/><path class="cls-4" d="M145.24,134.86c-.05.09-.8-.22-1.52-.89s-1.1-1.39-1-1.44.58.53,1.27,1.16S145.29,134.77,145.24,134.86Z"/><path class="cls-8" d="M132.36,88.87a46,46,0,1,1,64.3,59.49h0a46,46,0,0,1-64.3-59.49ZM213,126.41a42.87,42.87,0,1,0-17.8,19.27A42.91,42.91,0,0,0,213,126.41Z"/><path class="cls-17" d="M174.12,155.05a47,47,0,0,1-12.61-1.73,46.43,46.43,0,0,1-28.17-22.06,46.93,46.93,0,0,1-1.65-42.7,46.72,46.72,0,1,1,42.43,66.49ZM174,63a45.33,45.33,0,0,0-41,26.19A45.27,45.27,0,1,0,213.48,86,45,45,0,0,0,186.2,64.67,45.69,45.69,0,0,0,174,63Zm.14,89a44,44,0,0,1-11.78-1.62,43.67,43.67,0,1,1,51.28-23.64h0A43.7,43.7,0,0,1,174.12,152ZM174,66.07a42.22,42.22,0,1,0,38.3,60h0a42.36,42.36,0,0,0-1.49-38.55A42.36,42.36,0,0,0,174,66.07Z"/><path class="cls-17" d="M45.62,194.86l-.83-1.31c-1.77-2.81.24-7.26,2.2-8.5l86.81-54.79c.44-.27,1.11,0,1.51.64l5.81,9.21a1.21,1.21,0,0,1-.07,1.64L54.74,196.22C52.78,197.45,47.39,197.67,45.62,194.86Z"/><path class="cls-15" d="M126.5,151.28l2.63-2.79s-.31-6.35.78-7.9l.56-.93s-.56-3.09,1.1-3.8c.47-1.17,1.07-1.65,1.9-1,0,0-.47-2.32,1.7-2.63s2.79,9.53,2.79,9.53,1.08,4.41-1.4,4.41a5.52,5.52,0,0,1-2.94,1.7s-.46,2.64-2.63,2.48Z"/><path class="cls-16" d="M133.29,146.73s.13.08.25.31a1.79,1.79,0,0,1,.13,1.09,2.5,2.5,0,0,1-.82,1.41,5,5,0,0,1-1.73,1,12.25,12.25,0,0,1-3.45.68,4.51,4.51,0,0,1-1.45-.07,22.71,22.71,0,0,0,4.79-.94,4.94,4.94,0,0,0,1.63-.86,2.26,2.26,0,0,0,.79-1.22A2.08,2.08,0,0,0,133.29,146.73Z"/><path class="cls-16" d="M135.22,143.23c-.1,0-.11-2-.59-4.34s-1.2-4.21-1.1-4.25a4,4,0,0,1,.57,1.17,17.24,17.24,0,0,1,.87,3,17.48,17.48,0,0,1,.34,3.12A4.19,4.19,0,0,1,135.22,143.23Z"/><path class="cls-16" d="M133.35,144.32c-.1,0-.29-1.93-.78-4.26s-1.1-4.17-1-4.2A15.11,15.11,0,0,1,132.9,140,14.89,14.89,0,0,1,133.35,144.32Z"/><path class="cls-16" d="M136.81,144.24c.08-.05.41.56.19,1.33s-.79,1.13-.83,1,.34-.48.5-1.13S136.72,144.27,136.81,144.24Z"/><path class="cls-16" d="M130.76,144.68a12.63,12.63,0,0,1-.2-2.41,13,13,0,0,1-.1-2.42,6.47,6.47,0,0,1,.44,2.4A6.41,6.41,0,0,1,130.76,144.68Z"/><path class="cls-15" d="M72.86,167.58a8,8,0,0,1,2.54-2.33c1.73-1,5.19-1.42,5.84-2.58s1.72,0,1.14,1.52c-.36.95-2.86,3.16-2.86,3.16a6.37,6.37,0,0,0,4,.41c1.75-.63,7.59-1.25,8-.36s-1,1-1.68,1.26c-.52.18-4.54,1.33-4.54,1.33s7.38,1.1,8.23,1.62-.25,1.26-.72,1.19a12.27,12.27,0,0,0-2.8,1.52,3.37,3.37,0,0,1-2.38.48L86,174.52,91.06,176s.74,1-.58,1.18c-.59.09-16.7-.53-17.93-.68-2.13-.27-5.55-.36-5.55-.36l2.64-9.61Z"/><path class="cls-16" d="M93,172.92a11.49,11.49,0,0,1-3.68.42,11.33,11.33,0,0,1-3.68-.46c0-.1,1.65.11,3.68.11S93,172.82,93,172.92Z"/><path class="cls-5" d="M60.13,162.68l7.38-15.21L61,127.72A13.3,13.3,0,0,0,56.08,132c-2.32,3.16-4.83,9.86-4.83,9.86s-8,18.39-9.36,21.14-3.46,7.83,0,10.68,26.59,2.94,26.59,2.94l2.46-10.23Z"/><path class="cls-4" d="M61,138.05c.1,0,1.82,5.11,3.84,11.49s3.59,11.56,3.49,11.6-1.82-5.11-3.85-11.49S60.9,138.08,61,138.05Z"/><path class="cls-4" d="M70.94,166.37a3.91,3.91,0,0,1-.86-.19l-2.3-.64c-1.94-.56-4.6-1.36-7.57-2.13a30.65,30.65,0,0,0-7.7-1.29,10,10,0,0,0-3.15.62,3.29,3.29,0,0,1,.78-.41,7.5,7.5,0,0,1,2.36-.48A27.51,27.51,0,0,1,60.3,163c3,.78,5.64,1.62,7.56,2.24,1,.31,1.73.57,2.26.76A4.13,4.13,0,0,1,70.94,166.37Z"/><g class="cls-13"><path d="M62.67,143.08A75.92,75.92,0,0,0,63.34,156l2.07-4.16a63.31,63.31,0,0,0-2.62-8.44"/></g><rect class="cls-12" x="182.34" y="93.14" width="9.58" height="34.53"/><rect class="cls-12" x="152.33" y="113.46" width="9.58" height="15.67"/><rect class="cls-12" x="167.13" y="104.93" width="9.58" height="24.2"/><path class="cls-4" d="M188.38,81.73a1.44,1.44,0,0,1-.23.3l-.71.84-2.7,3.1-9.4,10.59-.1.12-.14-.09-5.87-3.84.25,0-.23.26-12.43,14.59-.08.09-.1-.07L152,104.12l-1.26-1a2.68,2.68,0,0,1-.42-.36,2.69,2.69,0,0,1,.47.3l1.3.9,4.75,3.37-.19,0L169,92.74l.22-.27.11-.13.14.09,5.88,3.86-.24,0,9.49-10.5,2.79-3,.75-.8C188.28,81.81,188.37,81.72,188.38,81.73Z"/><path class="cls-4" d="M188.69,89a12,12,0,0,1-.14-2.2c0-1.37-.05-3.25-.05-5.35l.22.19-.19,0c-2.11.35-4,.64-5.41.84a12.45,12.45,0,0,1-2.26.23,13.55,13.55,0,0,1,2.21-.5c1.38-.26,3.29-.6,5.39-1l.19,0,.23,0v.22c0,2.1,0,4-.06,5.35A12.74,12.74,0,0,1,188.69,89Z"/></g></svg>