<svg xmlns="http://www.w3.org/2000/svg" viewBox="0 0 360 360"><defs><style>.cls-1{fill:#e6e6e6;}.cls-2{fill:#fff;}.cls-3{fill:#054641;}.cls-4{fill:#f2f2f2;}.cls-5{fill:#d15b66;}.cls-6{fill:#9f616a;}.cls-7{fill:#161616;}.cls-8{fill:#02dfdf;}.cls-9{fill:#2f2e41;}.cls-10{fill:#00dfdf;}.cls-11{fill:#0c0c0c;}.cls-12{fill:#3f3d56;}.cls-13{opacity:0.1;isolation:isolate;}.cls-14{fill:#cbcbcb;}.cls-15{fill:#f1f1f1;}</style></defs><title>process-illustration</title><g id="Layer_5" data-name="Layer 5"><rect id="e81a7c33-c795-457d-8abc-c4a3c260cd56" class="cls-1" x="144.6" y="45.6" width="212.9" height="101.02"/><rect id="be98c830-918a-42d1-b1b0-0085d5874e90" class="cls-2" x="150.69" y="54.26" width="200.72" height="84.29"/><rect id="ea07d9fd-7a34-4098-acd7-056fd1871281" class="cls-3" x="144.51" y="39.77" width="212.9" height="9.04"/><circle id="b9ed5a45-8896-4ed9-86b4-15f853c9a185" class="cls-2" cx="151.23" cy="45.08" r="1.68"/><circle id="a9233a38-f8ba-48e0-88f3-496fd4836d40" class="cls-2" cx="157.6" cy="45.08" r="1.68"/><circle id="aa82180f-a6a9-4f5f-82fc-e73106f4ad92" class="cls-2" cx="163.96" cy="45.08" r="1.68"/><rect class="cls-4" x="270.79" y="67.9" width="33.37" height="57.01"/><rect class="cls-5" x="197.95" y="67.9" width="67.31" height="15.69"/><rect class="cls-4" x="197.95" y="87.97" width="67.31" height="16.88"/><rect class="cls-4" x="197.95" y="109.22" width="67.31" height="15.69"/><path class="cls-6" d="M104.07,208.33a8.2,8.2,0,0,0-8.16-8.25c-.31,0-.62,0-.92,0a7.62,7.62,0,0,0-1.08.2l-27.77-23.8,1.66-8.94-13.68-4.44L50,177.48a8.31,8.31,0,0,0,3.53,9.28l34.15,21.6a7.34,7.34,0,0,0,0,.81,8.2,8.2,0,0,0,9,7.27c.31,0,.61-.09.92-.15s.65-.17,1-.28A8.22,8.22,0,0,0,104.07,208.33Z"/><path class="cls-7" d="M35.05,235.93H70.84c0,1,36.9,1.87,36.9,1.87a9.31,9.31,0,0,1,3.73,7.45v1.49a9.32,9.32,0,0,1-9.32,9.32H35.05a9.32,9.32,0,0,1-9.32-9.32v-1.49A9.33,9.33,0,0,1,35.05,235.93Z"/><rect class="cls-7" x="64.29" y="255.69" width="9.69" height="62.63"/><path class="cls-7" d="M101.57,319.1c0,1.18-14.68.46-32.8.46S36,320.28,36,319.1s14.69-10.47,32.81-10.47S101.57,317.93,101.57,319.1Z"/><polygon class="cls-6" points="92.82 310.64 101.97 310.64 106.31 286.93 92.82 286.94 92.82 310.64"/><path class="cls-8" d="M90.49,319.5H120v-.37a11.47,11.47,0,0,0-11.47-11.47h-18Z"/><path class="cls-9" d="M106.5,295.94l18.22-40.86a15,15,0,0,0-6.58-19.23l-39.52-21.2-18-1.53-16.64-1.51-.12.2c-.15.26-3.73,6.44-1.31,13.21,1.83,5.14,6.6,9.16,14.18,11.94,17.68,6.48,38.11,12,46.07,14.1a2.59,2.59,0,0,1,1.65,1.31,2.63,2.63,0,0,1,.14,2.09l-16.93,38a3.36,3.36,0,0,0,2,4.3,3,3,0,0,0,.84.19l12.65.92a1.77,1.77,0,0,0,.32,0A3.36,3.36,0,0,0,106.5,295.94Z"/><polygon class="cls-6" points="86.86 310.64 96 310.64 100.35 286.93 86.86 286.94 86.86 310.64"/><path class="cls-8" d="M84.53,319.5H114v-.37a11.46,11.46,0,0,0-11.47-11.47h-18Z"/><path class="cls-9" d="M99.79,298.18,118,257.31a15,15,0,0,0-6.58-19.22l-39.52-21.2-18-1.53-13-1.13v-.18c-.15.26-3.73,6.44-1.31,13.21,1.83,5.14,2.87,9.16,10.45,11.93,17.68,6.49,38.11,12,46.07,14.11a2.59,2.59,0,0,1,1.65,1.31,2.62,2.62,0,0,1,.14,2.09l-16.93,38a3.35,3.35,0,0,0,2,4.3,3.41,3.41,0,0,0,.84.19l12.65.92.32,0A3.36,3.36,0,0,0,99.79,298.18Z"/><path class="cls-10" d="M65.44,215c.88-.62,13.42,6,15.66.75-10.44-26.1-3.25-37.37-9.64-52.33a18.64,18.64,0,0,0-12.35-10.58L42.52,152l-.09,0a19.4,19.4,0,0,0-10.6,20.57c.06,16.29,9.8,28.71,6.4,40.52a3.81,3.81,0,0,0,.36,3,3.63,3.63,0,0,0,2.32,1.72l21.91-2.92a3.66,3.66,0,0,0,3-.58Z"/><circle class="cls-6" cx="48.05" cy="127.47" r="18.31"/><path class="cls-11" d="M42.22,144.28c1,.42,3-7.33,2.07-8.88-1.32-2.31-1.24-2.29-2.13-3.82a4.42,4.42,0,0,1,.07-5c1.14-1.35,3.78-1.17,4.3.52-.34-3.2,2.83-5.77,6-6.49s6.44-.28,9.59-.92c3.65-.75,7.45-3.81,6-7.83A5.63,5.63,0,0,0,67,110.1c-1.68-1.9-4-2.71-6.35-3.49-4.79-1.63-9.72-3.28-14.77-3.1a21.49,21.49,0,0,0-19,13.88,19.55,19.55,0,0,0-.81,3,20.14,20.14,0,0,0,12.5,22.11Z"/><path class="cls-12" d="M138.26,173.73l2.1,12.47a.73.73,0,0,1-.05.41l-16.47,41.17a.77.77,0,0,1-1,.42.76.76,0,0,1-.48-.68l-.7-16.54a.87.87,0,0,1,.06-.32l15.07-37.1a.77.77,0,0,1,1.47.17Z"/><polygon class="cls-8" points="137.09 174.68 139.09 185.4 124.47 222.96 122.57 210.88 137.09 174.68"/><path class="cls-12" d="M73.12,227.58c.36,1.41,47.59,2.93,48.08,2.5a10.11,10.11,0,0,0,1.14-1.75c.49-.89,1-1.77,1-1.77l-.77-14.94-46.53-5s-2.06,12.46-2.7,18.19A14,14,0,0,0,73.12,227.58Z"/><polygon class="cls-13" points="116.43 213.2 116.43 226.07 95.86 224.6 96.77 211.8 116.43 213.2"/><polygon class="cls-13" points="89.61 215.43 89.74 215.41 88.77 220.88 77.33 220.07 77.72 214.58 89.61 215.43"/><path class="cls-13" d="M73.12,227.58c.36,1.41,47.59,2.93,48.08,2.5a10.11,10.11,0,0,0,1.14-1.75l-49-3.49A14,14,0,0,0,73.12,227.58Z"/><path class="cls-6" d="M54.16,205.28,94,212.71a7,7,0,0,0,.34.74,8.26,8.26,0,0,0,5.27,4.12,8.2,8.2,0,1,0-1.87-15.21,9,9,0,0,0-.93.58l-34.6-11.82-1.77-8.92-14.36,1,1.49,14.95A8.16,8.16,0,0,0,54.16,205.28Z"/><path class="cls-10" d="M45.6,189.82,66.46,183l-4.87-14a8.31,8.31,0,0,0-9.23-5.47h0a8.32,8.32,0,0,0-7,8.3Z"/><path class="cls-14" d="M177.91,320.23H3a.46.46,0,1,1,0-.91h175a.46.46,0,1,1,0,.91Z"/><path class="cls-15" d="M246,305.77c8.39,4.34,12.12,13.8,12.12,13.8s-9.87,2.41-18.26-1.93-12.12-13.8-12.12-13.8S237.57,301.43,246,305.77Z"/><path class="cls-15" d="M243.28,308.9c5,8,14.73,11,14.73,11s1.61-10-3.4-18.05-14.73-11-14.73-11S238.27,300.88,243.28,308.9Z"/><path class="cls-14" d="M273.42,320.05H221.07a.46.46,0,0,1-.46-.46.47.47,0,0,1,.46-.46h52.35a.47.47,0,0,1,.46.46A.46.46,0,0,1,273.42,320.05Z"/></g></svg>