<svg xmlns="http://www.w3.org/2000/svg" viewBox="0 0 360 360"><defs><style>.cls-1{fill:#ececec;}.cls-2{fill:#f0f0f0;}.cls-3{fill:#e1e1e1;}.cls-4{fill:#fafafa;}.cls-5{fill:#f5f5f5;}.cls-6{fill:#e7e7e7;}.cls-7{fill:#fff;}.cls-18,.cls-8{fill:#00dfdf;}.cls-9{fill:#1a2e35;}.cls-10{fill:#d15b66;}.cls-11{fill:#eaeaea;}.cls-12{fill:#d69369;}.cls-13{fill:#bf7c56;}.cls-14,.cls-18{opacity:0.2;}.cls-15{fill:#aa3f4c;}.cls-16{fill:#e27985;}.cls-17{opacity:0.3;}</style></defs><title>process-illustration</title><g id="Layer_9" data-name="Layer 9"><rect class="cls-1" x="249.67" y="305.13" width="82.54" height="0.21"/><rect class="cls-1" x="213.2" y="310.02" width="39.47" height="0.21"/><rect class="cls-1" x="333.06" y="312.99" width="16.23" height="0.21"/><rect class="cls-1" x="75.75" y="310.12" width="78.26" height="0.21"/><rect class="cls-1" x="51.38" y="310.12" width="16.83" height="0.21"/><rect class="cls-1" x="17.66" y="306.55" width="27.79" height="0.21"/><path class="cls-1" d="M169.24,261.65H5.92a4.83,4.83,0,0,1-4.83-4.83V27.26a4.84,4.84,0,0,1,4.83-4.83H169.24a4.83,4.83,0,0,1,4.82,4.83V256.82A4.82,4.82,0,0,1,169.24,261.65ZM5.92,22.64a4.62,4.62,0,0,0-4.61,4.62V256.82a4.62,4.62,0,0,0,4.61,4.62H169.24a4.62,4.62,0,0,0,4.61-4.62V27.26a4.62,4.62,0,0,0-4.61-4.62Z"/><path class="cls-1" d="M352.17,261.65H188.86a4.83,4.83,0,0,1-4.83-4.83V27.26a4.84,4.84,0,0,1,4.83-4.83H352.17A4.84,4.84,0,0,1,357,27.26V256.82A4.83,4.83,0,0,1,352.17,261.65Zm-163.31-239a4.62,4.62,0,0,0-4.62,4.62V256.82a4.62,4.62,0,0,0,4.62,4.62H352.17a4.62,4.62,0,0,0,4.62-4.62V27.26a4.62,4.62,0,0,0-4.62-4.62Z"/><polygon class="cls-2" points="299.54 291.59 44.08 291.59 28.85 118.3 284.3 118.3 299.54 291.59"/><polygon class="cls-3" points="39.57 297.11 44.08 291.59 28.85 118.3 24.34 123.91 39.57 297.11"/><path class="cls-4" d="M47.46,285l-14-159.62a2.87,2.87,0,0,1,2.86-3.13H278.06a2.89,2.89,0,0,1,2.87,2.62L295,284.5a2.87,2.87,0,0,1-2.87,3.13H50.32A2.87,2.87,0,0,1,47.46,285Z"/><polygon class="cls-3" points="79.99 291.59 41.5 291.59 38.78 299.37 77.26 299.37 79.99 291.59"/><polygon class="cls-5" points="79.99 291.59 333.06 291.59 330.33 299.37 77.26 299.37 79.99 291.59"/><polygon class="cls-3" points="184.2 291.59 232.71 291.59 232.19 296.68 183.68 296.68 184.2 291.59"/><path class="cls-3" d="M257.71,106.93H319c5.08,33.63-18.41,61.29-52,61.29A68.33,68.33,0,0,1,235.08,160Z"/><path class="cls-1" d="M257.71,106.93,290,60A76.15,76.15,0,0,1,309.34,81a69.1,69.1,0,0,1,9.66,25.9Z"/><path class="cls-6" d="M257.71,106.93l-9.26-61.29A66,66,0,0,1,270,49.34,73.8,73.8,0,0,1,290,60Z"/><path class="cls-2" d="M257.71,106.93,235.08,160c-20.59-10.93-35.36-31.21-38.67-53.08-5.07-33.62,18.41-61.29,52-61.29Z"/><path class="cls-1" d="M182,216.31h54.37a53.19,53.19,0,0,1,.28,14.07,47.46,47.46,0,0,1-3.46,13.12Z"/><path class="cls-3" d="M182,216.31l1.36-53.54a65.4,65.4,0,0,1,35,18.59,63.78,63.78,0,0,1,18,34.95Z"/><path class="cls-2" d="M182,216.31l-48.28,18.6a60.52,60.52,0,0,1-6.09-18.6c-4.5-29.83,16.33-54.37,46.16-54.37a56.5,56.5,0,0,1,9.57.83Z"/><path class="cls-7" d="M182,216.31l51.19,27.19c-7.16,16.8-23.57,27.18-43,27.18-22.81,0-45.46-14.35-56.5-35.77Z"/><ellipse id="_Path_" data-name="&lt;Path&gt;" class="cls-5" cx="180.22" cy="327.99" rx="163.98" ry="9.58"/><path class="cls-7" d="M172.26,178.42H96.08a9.74,9.74,0,0,1-9.51-8.79l-3.81-46.84A8,8,0,0,1,90.83,114H167a9.74,9.74,0,0,1,9.51,8.79l3.81,46.84A8,8,0,0,1,172.26,178.42Z"/><path class="cls-8" d="M172.26,178.78H96.08a10.1,10.1,0,0,1-9.88-9.12l-3.81-46.84a8.47,8.47,0,0,1,2.18-6.5,8.38,8.38,0,0,1,6.26-2.69H167a10.09,10.09,0,0,1,9.87,9.13l3.82,46.84a8.37,8.37,0,0,1-8.44,9.18ZM90.83,114.36a7.68,7.68,0,0,0-5.72,2.45,7.78,7.78,0,0,0-2,6l3.81,46.84a9.35,9.35,0,0,0,9.15,8.45h76.18a7.63,7.63,0,0,0,7.71-8.39l-3.82-46.84a9.35,9.35,0,0,0-9.14-8.46Z"/><path class="cls-3" d="M151.58,164.74a23.6,23.6,0,0,1-11.19,6.78l-1.27-3.61A20.36,20.36,0,0,0,154,146.21a24.51,24.51,0,0,0-7.87-15.89l2.43-2.64C159.56,137.84,160.92,154.57,151.58,164.74Z"/><path class="cls-9" d="M148.57,127.68l-2.43,2.64a24.34,24.34,0,0,0-16.43-6.58,20.56,20.56,0,0,0-15.34,6.59l-2.87-2.65A24.11,24.11,0,0,1,129.41,120,28.42,28.42,0,0,1,148.57,127.68Z"/><path class="cls-8" d="M140.39,171.52c-8.84,2.42-18.72-.17-25.87-6.78-11-10.17-12.35-26.9-3-37.06l2.87,2.65a20.72,20.72,0,0,0-5.29,15.88,24.82,24.82,0,0,0,24.29,22.46,22,22,0,0,0,5.75-.76Z"/><rect class="cls-10" x="62.38" y="38.28" width="6.11" height="0.73"/><rect class="cls-10" x="42.55" y="38.28" width="13.91" height="0.73"/><path class="cls-7" d="M121.14,105.6H45a9.74,9.74,0,0,1-9.51-8.79L31.64,50a8,8,0,0,1,8.07-8.79h76.18A9.74,9.74,0,0,1,125.4,50l3.81,46.84A8,8,0,0,1,121.14,105.6Z"/><path class="cls-10" d="M121.14,106H45a10.09,10.09,0,0,1-9.87-9.13L31.27,50a8.37,8.37,0,0,1,8.44-9.19h76.18a10.1,10.1,0,0,1,9.87,9.13l3.82,46.84a8.37,8.37,0,0,1-8.44,9.19ZM39.71,41.55A7.63,7.63,0,0,0,32,49.94l3.82,46.84A9.35,9.35,0,0,0,45,105.24h76.18a7.65,7.65,0,0,0,5.72-2.46,7.76,7.76,0,0,0,2-5.94L125,50a9.35,9.35,0,0,0-9.14-8.45Z"/><polygon class="cls-11" points="38.53 54.62 78.9 54.62 78.57 50.63 38.2 50.63 38.53 54.62"/><polygon class="cls-10" points="119.27 54.62 78.9 54.62 78.57 50.63 118.94 50.63 119.27 54.62"/><polygon class="cls-11" points="39.37 65 50.89 65 50.56 61.02 39.05 61.02 39.37 65"/><polygon class="cls-10" points="120.11 65 50.89 65 50.56 61.02 119.79 61.02 120.11 65"/><polygon class="cls-11" points="40.22 75.39 76.15 75.39 75.83 71.4 39.89 71.4 40.22 75.39"/><polygon class="cls-10" points="120.96 75.39 76.15 75.39 75.83 71.4 120.63 71.4 120.96 75.39"/><polygon class="cls-11" points="41.06 85.77 102.39 85.77 102.07 81.78 40.74 81.78 41.06 85.77"/><polygon class="cls-10" points="121.8 85.77 102.39 85.77 102.07 81.78 121.48 81.78 121.8 85.77"/><polygon class="cls-11" points="41.91 96.15 70.27 96.15 69.95 92.16 41.58 92.16 41.91 96.15"/><polygon class="cls-10" points="122.65 96.15 70.27 96.15 69.95 92.16 122.32 92.16 122.65 96.15"/><path class="cls-7" d="M225.28,105.6H149.1a9.73,9.73,0,0,1-9.5-8.79L135.78,50a8,8,0,0,1,8.08-8.79H220a9.74,9.74,0,0,1,9.5,8.79l3.82,46.84A8,8,0,0,1,225.28,105.6Z"/><path class="cls-8" d="M225.28,106H149.1a10.1,10.1,0,0,1-9.87-9.13L135.42,50a8.37,8.37,0,0,1,8.44-9.19H220a10.1,10.1,0,0,1,9.87,9.13l3.81,46.84a8.37,8.37,0,0,1-8.44,9.19ZM143.86,41.55a7.63,7.63,0,0,0-7.71,8.39L140,96.78a9.35,9.35,0,0,0,9.14,8.46h76.18a7.65,7.65,0,0,0,7.71-8.4L229.18,50A9.35,9.35,0,0,0,220,41.55Z"/><polygon class="cls-3" points="187.09 96.15 185.75 96.15 182.04 50.63 183.39 50.63 187.09 96.15"/><polygon class="cls-8" points="189.13 77.24 180.64 77.24 179.19 59.45 187.68 59.45 189.13 77.24"/><polygon class="cls-3" points="170.4 96.15 169.05 96.15 165.35 50.63 166.69 50.63 170.4 96.15"/><polygon class="cls-8" points="172.75 81.19 164.26 81.19 163 65.6 171.48 65.6 172.75 81.19"/><polygon class="cls-3" points="153.7 96.15 152.35 96.15 148.65 50.63 149.99 50.63 153.7 96.15"/><polygon class="cls-9" points="155.01 68.36 146.52 68.36 145.65 57.66 154.13 57.66 155.01 68.36"/><polygon class="cls-3" points="203.79 96.15 202.45 96.15 198.74 50.63 200.09 50.63 203.79 96.15"/><polygon class="cls-9" points="206.65 87.33 198.16 87.33 195.89 59.45 204.38 59.45 206.65 87.33"/><polygon class="cls-3" points="220.49 96.15 219.15 96.15 215.44 50.63 216.79 50.63 220.49 96.15"/><polygon class="cls-8" points="223.62 90.67 215.13 90.67 213.31 68.34 221.8 68.34 223.62 90.67"/><path class="cls-7" d="M143.76,250.63H67.58a9.74,9.74,0,0,1-9.51-8.79L54.26,195a8,8,0,0,1,8.07-8.79h76.18A9.74,9.74,0,0,1,148,195l3.81,46.84A8,8,0,0,1,143.76,250.63Z"/><path class="cls-8" d="M143.76,251H67.58a10.09,10.09,0,0,1-9.87-9.13L53.89,195a8.37,8.37,0,0,1,8.44-9.19h76.18a10.09,10.09,0,0,1,9.87,9.13l3.82,46.84a8.37,8.37,0,0,1-8.44,9.19ZM62.33,186.58A7.63,7.63,0,0,0,54.62,195l3.82,46.84a9.36,9.36,0,0,0,9.14,8.46h76.18a7.65,7.65,0,0,0,5.72-2.46,7.76,7.76,0,0,0,2-5.94L147.65,195a9.34,9.34,0,0,0-9.14-8.45Z"/><polygon class="cls-8" points="72.64 217.3 89.06 236.28 107.89 207.23 119.53 222.24 122.37 217.86 141.41 240.67 68.3 240.64 72.64 217.3"/><polygon class="cls-3" points="127.45 218.48 119.82 234.82 95.48 196.18 84.02 220.72 80.35 214.89 68.31 240.67 141.4 240.63 127.45 218.48"/><path class="cls-8" d="M284.15,110.48c2,3.83,3.79,7.6,5.43,11.54a106.56,106.56,0,0,1,4.26,12.17c.29,1,.55,2.13.8,3.21a12.43,12.43,0,0,1,.33,2.3,11.22,11.22,0,0,1-.13,2.29,22.11,22.11,0,0,1-2.51,7,46.92,46.92,0,0,1-7.91,10.53,2.39,2.39,0,0,1-3.84-2.76l.06-.12a83.38,83.38,0,0,0,4.82-10.7,16.64,16.64,0,0,0,1.05-4.82,4.32,4.32,0,0,0-.07-.8,1,1,0,0,0-.07-.25l-.16-.5c-.28-.91-.57-1.82-.91-2.74-1.28-3.67-2.86-7.36-4.51-11s-3.4-7.36-5.14-10.89l0-.07a4.8,4.8,0,0,1,8.54-4.38Z"/><path class="cls-12" d="M281.5,156.28l-4,1.27,4.75,5.56a9.23,9.23,0,0,0,2.49-4,2,2,0,0,0-.77-2.11l-.67-.48A2,2,0,0,0,281.5,156.28Z"/><polygon class="cls-12" points="271.9 160.98 277 165.02 282.22 163.12 277.46 157.55 271.9 160.98"/><path class="cls-9" d="M254.52,82.19c-.1.5-.45.86-.78.79s-.51-.53-.4-1,.45-.85.77-.78S254.62,81.69,254.52,82.19Z"/><path class="cls-13" d="M254.12,83.05a18.49,18.49,0,0,1-3.26,3.8,3,3,0,0,0,2.3.93Z"/><path class="cls-9" d="M256.92,79.79a.32.32,0,0,0,.2-.08.31.31,0,0,0,0-.43,3,3,0,0,0-2.55-1,.3.3,0,0,0-.25.35.3.3,0,0,0,.35.24h0a2.42,2.42,0,0,1,2,.81A.32.32,0,0,0,256.92,79.79Z"/><path class="cls-12" d="M268.42,91.3c-.91,4.63-1.46,11,1.78,14.14,0,0-1.27,4.7-9.87,4.7-9.46,0-4.55-4.13-4.55-4.13,3.93-1.22,3.9-5.7,3-9.3Z"/><path class="cls-8" d="M254.12,105.29s1.38-3.27,2.79-3.83,10.38-2,12.45-.74,3.46,5.48,3.46,5.48Z"/><path class="cls-8" d="M263.6,321.85c-.81,0-1.59-.11-1.86-.47a.59.59,0,0,1,0-.66.77.77,0,0,1,.48-.35c1-.29,3.27,1,3.36,1a.15.15,0,0,1,.07.15.14.14,0,0,1-.12.12A10.13,10.13,0,0,1,263.6,321.85Zm-1-1.23a1.27,1.27,0,0,0-.29,0,.49.49,0,0,0-.3.21c-.1.18-.06.28,0,.33.29.41,1.89.42,3.07.25A6.82,6.82,0,0,0,262.6,320.62Z"/><path class="cls-8" d="M265.51,321.68l-.06,0c-.76-.34-2.27-1.71-2.16-2.42,0-.17.15-.38.56-.42a1.09,1.09,0,0,1,.83.25,4.21,4.21,0,0,1,1,2.44.13.13,0,0,1-.06.14A.12.12,0,0,1,265.51,321.68ZM264,319.11h-.09c-.27,0-.29.13-.29.16-.07.43,1,1.51,1.74,2a3.56,3.56,0,0,0-.84-1.95A.81.81,0,0,0,264,319.11Z"/><polygon class="cls-12" points="272.48 321.53 266.14 321.53 265.51 306.87 271.85 306.87 272.48 321.53"/><path class="cls-9" d="M266.19,320.79h6.91a.55.55,0,0,1,.54.44l1.25,5.62A.92.92,0,0,1,274,328c-2.49,0-6.1-.19-9.23-.19-3.67,0-4.11.2-8.41.2-2.6,0-3.32-2.63-2.23-2.86,4.95-1.09,6.27-1.2,10.55-3.84A2.93,2.93,0,0,1,266.19,320.79Z"/><path class="cls-9" d="M281.54,105.46c5.93,1.36,9.84,17.37,9.84,17.37l-9.9,7.44a18.88,18.88,0,0,1-7.35-10.92C272.09,111.41,275.47,104.07,281.54,105.46Z"/><path class="cls-14" d="M276.45,116.6A20.59,20.59,0,0,1,282,129.87l-.53.4a18.91,18.91,0,0,1-7.36-10.92c-.12-.48-.22-.95-.31-1.42Z"/><rect class="cls-15" x="260.1" y="137.51" width="51.76" height="38.49" transform="translate(-37.75 117.32) rotate(-21.78)"/><rect class="cls-10" x="260.12" y="137.65" width="51" height="38.49" transform="translate(-37.83 117.2) rotate(-21.78)"/><rect class="cls-16" x="259.46" y="149.46" width="4.83" height="3.42" transform="translate(-37.4 107.98) rotate(-21.78)"/><rect class="cls-16" x="266.86" y="146.51" width="4.83" height="3.42" transform="translate(-35.78 110.51) rotate(-21.78)"/><rect class="cls-16" x="274.26" y="143.55" width="4.83" height="3.42" transform="translate(-34.15 113.05) rotate(-21.78)"/><rect class="cls-16" x="281.67" y="140.59" width="4.83" height="3.42" transform="translate(-32.52 115.58) rotate(-21.78)"/><rect class="cls-16" x="289.07" y="137.63" width="4.83" height="3.42" transform="translate(-30.9 118.12) rotate(-21.78)"/><rect class="cls-16" x="296.47" y="134.67" width="4.83" height="3.42" transform="translate(-29.27 120.66) rotate(-21.78)"/><rect class="cls-16" x="261.55" y="154.71" width="4.83" height="3.42" transform="translate(-39.2 109.13) rotate(-21.78)"/><rect class="cls-16" x="268.96" y="151.75" width="4.83" height="3.42" transform="translate(-37.57 111.67) rotate(-21.78)"/><rect class="cls-16" x="276.36" y="148.79" width="4.83" height="3.42" transform="translate(-35.95 114.2) rotate(-21.78)"/><rect class="cls-16" x="283.76" y="145.84" width="4.83" height="3.42" transform="translate(-34.32 116.74) rotate(-21.78)"/><rect class="cls-16" x="291.17" y="142.88" width="4.83" height="3.42" transform="translate(-32.69 119.27) rotate(-21.78)"/><rect class="cls-16" x="298.57" y="139.92" width="4.83" height="3.42" transform="translate(-31.07 121.81) rotate(-21.78)"/><rect class="cls-16" x="263.65" y="159.96" width="4.83" height="3.42" transform="translate(-41 110.28) rotate(-21.78)"/><rect class="cls-16" x="271.05" y="157" width="4.83" height="3.42" transform="translate(-39.37 112.82) rotate(-21.78)"/><rect class="cls-16" x="278.46" y="154.04" width="4.83" height="3.42" transform="translate(-37.74 115.35) rotate(-21.78)"/><rect class="cls-16" x="285.86" y="151.08" width="4.83" height="3.42" transform="translate(-36.12 117.89) rotate(-21.78)"/><rect class="cls-16" x="293.26" y="148.13" width="4.83" height="3.42" transform="translate(-34.49 120.43) rotate(-21.78)"/><rect class="cls-16" x="300.67" y="145.17" width="4.83" height="3.42" transform="translate(-32.86 122.97) rotate(-21.78)"/><rect class="cls-16" x="265.75" y="165.21" width="4.83" height="3.42" transform="translate(-42.79 111.44) rotate(-21.78)"/><rect class="cls-16" x="273.15" y="162.25" width="4.83" height="3.42" transform="translate(-41.17 113.97) rotate(-21.78)"/><rect class="cls-16" x="280.55" y="159.29" width="4.83" height="3.42" transform="translate(-39.54 116.51) rotate(-21.78)"/><rect class="cls-16" x="287.96" y="156.33" width="4.83" height="3.42" transform="translate(-37.92 119.04) rotate(-21.78)"/><rect class="cls-16" x="295.36" y="153.37" width="4.83" height="3.42" transform="translate(-36.29 121.58) rotate(-21.78)"/><rect class="cls-16" x="302.76" y="150.41" width="4.83" height="3.42" transform="translate(-34.66 124.12) rotate(-21.78)"/><rect class="cls-16" x="267.85" y="170.45" width="4.83" height="3.42" transform="translate(-44.59 112.59) rotate(-21.78)"/><rect class="cls-16" x="275.25" y="167.5" width="4.83" height="3.42" transform="translate(-42.97 115.12) rotate(-21.78)"/><rect class="cls-16" x="282.65" y="164.54" width="4.83" height="3.42" transform="translate(-41.34 117.66) rotate(-21.78)"/><rect class="cls-16" x="290.05" y="161.58" width="4.83" height="3.42" transform="translate(-39.71 120.2) rotate(-21.78)"/><rect class="cls-16" x="297.46" y="158.62" width="4.83" height="3.42" transform="translate(-38.09 122.74) rotate(-21.78)"/><rect class="cls-16" x="304.86" y="155.66" width="4.83" height="3.42" transform="translate(-36.46 125.27) rotate(-21.78)"/><rect class="cls-16" x="269.94" y="175.7" width="4.83" height="3.42" transform="translate(-46.39 113.74) rotate(-21.78)"/><rect class="cls-16" x="277.35" y="172.74" width="4.83" height="3.42" transform="translate(-44.76 116.28) rotate(-21.78)"/><rect class="cls-16" x="284.75" y="169.78" width="4.83" height="3.42" transform="translate(-43.14 118.81) rotate(-21.78)"/><rect class="cls-16" x="292.15" y="166.83" width="4.83" height="3.42" transform="translate(-41.51 121.35) rotate(-21.78)"/><rect class="cls-16" x="299.55" y="163.87" width="4.83" height="3.42" transform="translate(-39.88 123.88) rotate(-21.78)"/><rect class="cls-16" x="306.96" y="160.91" width="4.83" height="3.42" transform="translate(-38.26 126.42) rotate(-21.78)"/><path class="cls-7" d="M298.89,140.62a1.34,1.34,0,1,1,1.74.75A1.34,1.34,0,0,1,298.89,140.62Z"/><path class="cls-7" d="M297.78,159.33a1.34,1.34,0,1,1,1.74.74A1.33,1.33,0,0,1,297.78,159.33Z"/><path class="cls-7" d="M280.87,160a1.35,1.35,0,1,1,2.5-1,1.35,1.35,0,0,1-2.5,1Z"/><path class="cls-7" d="M270.26,176.41a1.35,1.35,0,0,1,.75-1.75,1.35,1.35,0,0,1,1,2.5A1.35,1.35,0,0,1,270.26,176.41Z"/><path class="cls-7" d="M271.51,176.41a.5.5,0,0,1-.42-.77l10.61-16.41a.51.51,0,0,1,.4-.23l16.45-.65,1.09-18.25a.5.5,0,1,1,1,.06l-1.11,18.7a.5.5,0,0,1-.48.46L282.4,160l-10.47,16.2A.51.51,0,0,1,271.51,176.41Z"/><path class="cls-9" d="M244,111.81c-1.29,6.84-2.1,20.88,1.66,48.69h33.85c-.61-4.82-3-30.55,2-55A87.3,87.3,0,0,0,270.2,104a123.27,123.27,0,0,0-14.39,0c-1.59.14-3.15.37-4.54.62A9,9,0,0,0,244,111.81Z"/><path class="cls-14" d="M249.37,122.34l-6.36.51c-.23,8.23.34,20.23,2.69,37.65h.3C249.82,148,254.87,130,249.37,122.34Z"/><polygon class="cls-14" points="265.52 306.87 265.84 314.43 272.17 314.43 271.85 306.87 265.52 306.87"/><path class="cls-12" d="M271.43,84.52c-1.63,6.07-2.27,9.71-6,12.23-5.63,3.8-12.65-.56-12.87-7-.19-5.79,2.5-14.74,9-16A8.58,8.58,0,0,1,271.43,84.52Z"/><path class="cls-9" d="M257.22,84.56l-3.29.86L257,77.48a9,9,0,0,1-.28-6.12,1.8,1.8,0,0,1,1.67-1.24c6.82-.13,13.95,3.7,17.54,6.59a1.78,1.78,0,0,1,.4,2.3,20.84,20.84,0,0,1-3.09,3.58c-.07,2.22-3.7,12.26-5.7,13.39s-5.85.67-6.88-1.16S256.18,90.55,257.22,84.56Z"/><path class="cls-12" d="M260.26,84.69a7.16,7.16,0,0,1-2.45,3.85c-1.61,1.27-2.88.09-2.81-1.77.06-1.68,1-4.37,2.77-4.92S260.68,82.86,260.26,84.69Z"/><path class="cls-8" d="M318.15,319.67c0-.82.1-1.6.46-1.87a.59.59,0,0,1,.66,0,.77.77,0,0,1,.35.48c.3,1-.95,3.27-1,3.36a.15.15,0,0,1-.16.08.15.15,0,0,1-.12-.12A11.07,11.07,0,0,1,318.15,319.67Zm1.22-1a.85.85,0,0,0,0-.29.42.42,0,0,0-.21-.3c-.18-.1-.28-.06-.33,0-.41.29-.41,1.89-.23,3.07A6.8,6.8,0,0,0,319.37,318.66Z"/><path class="cls-8" d="M318.34,321.58a.13.13,0,0,1,0-.06c.34-.77,1.7-2.29,2.41-2.18.17,0,.38.14.42.56a1.07,1.07,0,0,1-.25.83,4.29,4.29,0,0,1-2.43,1,.2.2,0,0,1-.14-.06A.29.29,0,0,1,318.34,321.58Zm2.55-1.56v-.09c0-.27-.14-.29-.17-.29-.43-.07-1.5,1-2,1.75a3.57,3.57,0,0,0,1.95-.85A.8.8,0,0,0,320.89,320Z"/><polygon class="cls-12" points="318.43 321.62 312.25 322.06 308.78 307.28 314.96 306.84 318.43 321.62"/><path class="cls-9" d="M318.41,320.2l-6.89-.61a.56.56,0,0,0-.57.39l-1.74,5.49a.92.92,0,0,0,.81,1.2c2.48.18,6.09.35,9.21.63,3.65.32,1.28.31,5.57.69,2.58.23,3.53-2.32,2.47-2.66-4.84-1.51-5.71-2.56-7.38-4.5A2.18,2.18,0,0,0,318.41,320.2Z"/><polygon class="cls-14" points="308.79 307.28 310.57 314.9 316.75 314.46 314.97 306.85 308.79 307.28"/><path class="cls-8" d="M257.71,160.5s14.56,48.63,20.08,66.68c6,19.76,29.07,85.34,29.07,85.34L318,310.06s-15.77-56.34-22.31-83.9c-5-21.18-16.17-65.66-16.17-65.66Z"/><path class="cls-9" d="M304.9,309.07s1.1,4.36,1.1,4.36L319.43,312l-.06-4Z"/><path class="cls-17" d="M265.77,183c8.06,1.06,11.27,29.14,12.47,45.62-.15-.52-.31-1-.45-1.49-3-9.85-8.72-28.84-13.29-44A2.8,2.8,0,0,1,265.77,183Z"/><path class="cls-8" d="M245.7,160.5s4.88,47.36,7,66.64c2.19,20.05,10.41,85.82,10.41,85.82h10.72s-1.3-64.57-1.73-84.29c-.47-21.5-4.13-68.17-4.13-68.17Z"/><path class="cls-9" d="M261.42,308.69c-.05,0,.6,4.46.6,4.46h13.05l.35-4Z"/><path class="cls-9" d="M199.9,205.06a19,19,0,1,0,5.93-26.18A19,19,0,0,0,199.9,205.06Zm29.56-18.64a16,16,0,1,1-22-5A16,16,0,0,1,229.46,186.42Z"/><path class="cls-18" d="M230.23,198.17a14.64,14.64,0,1,1-11-17.51A14.63,14.63,0,0,1,230.23,198.17Z"/><path class="cls-9" d="M232.53,182.51l1.78,2.83a.91.91,0,0,1-.29,1.26h0a.92.92,0,0,1-1.27-.29L231,183.49a.91.91,0,0,1,.29-1.26h0A.92.92,0,0,1,232.53,182.51Z"/><path class="cls-9" d="M244,174.49c-2.06,1.41-4.1,2.84-6.12,4.31s-4,3-5.95,4.56a1.26,1.26,0,0,0,1.34,2.11c2.27-1.06,4.48-2.22,6.68-3.4s4.36-2.41,6.52-3.66q2.75-1.6,5.45-3.26a1.1,1.1,0,0,0,.36-1.52l-1.47-2.32a1.09,1.09,0,0,0-1.52-.34Q246.66,172.71,244,174.49Z"/><path class="cls-8" d="M253.47,114.18q-1.56,7.6-3.3,15.18l-3.51,15.1c-1.14,4.92-2.11,9.92-3,15L241,174.67v0a2.38,2.38,0,0,1-4.73-.33c-.19-5.28-.1-10.51.19-15.77a154.24,154.24,0,0,1,1.67-15.8c.82-5.18,1.75-10.29,2.74-15.4s2.06-10.2,3.23-15.27a4.8,4.8,0,0,1,9.38,2.05Z"/><path class="cls-12" d="M240.27,173.29a1.73,1.73,0,0,0-1.67-.49l-1.38.32a1.75,1.75,0,0,0-1.32,1.48l-.4,3.05a3.86,3.86,0,0,0,.53,2.52l1.88,3.12a2.13,2.13,0,0,0,2.14.8l2-.42a2.12,2.12,0,0,0,1.58-2.73l-.52-1.6A9.76,9.76,0,0,0,240.27,173.29Z"/><path class="cls-9" d="M260.05,111.24c3.08,8.17-7.56,19.81-7.56,19.81L239,126.59s1-11.14,5.7-17.42C250.5,101.41,257.71,105,260.05,111.24Z"/></g></svg>