<svg xmlns="http://www.w3.org/2000/svg" viewBox="0 0 360 360"><defs><style>.cls-1{fill:#e1e1e1;}.cls-2{fill:#fafafa;}.cls-3{fill:#d15b66;}.cls-4{fill:#1a2e35;}.cls-5{fill:#375a64;}.cls-6{fill:#fff;}.cls-7{fill:#f5f5f5;}.cls-8{fill:#00dfdf;}.cls-9{fill:#ececec;}.cls-10{opacity:0.3;}.cls-11{opacity:0.2;}.cls-12{fill:#ffbf9d;}.cls-13{fill:#ff9a6c;}</style></defs><title>process-illustration</title><g id="Layer_8" data-name="Layer 8"><path class="cls-1" d="M291.13,267.32a24.72,24.72,0,0,0-10.61-3.65,7.07,7.07,0,0,0-5,.92,1,1,0,0,0-.51.91,1.09,1.09,0,0,0,.49.63,15.17,15.17,0,0,0,15.65,1.19"/><path class="cls-1" d="M290.86,267a51.15,51.15,0,0,1-6.85-6,17.33,17.33,0,0,1-4.3-7.94,3.23,3.23,0,0,1,.34-2.66c5.46,4.26,9.75,9.78,10.81,16.63"/><path class="cls-1" d="M291.07,267.28a24.74,24.74,0,0,1,.13-9,12.1,12.1,0,0,1,4.79-7.42c.94,2.2.54,4.75-.13,7.05a34.06,34.06,0,0,1-4.75,10"/><path class="cls-1" d="M296.42,276.87a15.71,15.71,0,0,0-8.5,4.3,16.13,16.13,0,0,0-4.87,8.35c3.19-.19,5.89-2.44,7.86-5s3.32-5.29,5.47-7.64"/><path class="cls-1" d="M297.59,278.4A21,21,0,0,1,300,258.56a25.28,25.28,0,0,1-2.42,19.84"/><path class="cls-1" d="M304.66,286.82a15.18,15.18,0,0,0-14.5,8.35c-.18.36-.34.82-.1,1.14a1.05,1.05,0,0,0,1,.28c2.86-.18,5.39-1.9,7.48-3.86s3.91-4.22,6.22-5.91"/><path class="cls-1" d="M304.43,286.36a27,27,0,0,1-.26-15.09c.53-1.94,1.42-4,3.22-4.89a.62.62,0,0,1,.49-.09.65.65,0,0,1,.31.36A9,9,0,0,1,309,271a27.13,27.13,0,0,1-.68,4.38c-.56,2.68-.87,5.56-2.34,7.87A17.93,17.93,0,0,0,305,285c-.28.59-.28.79-.53,1.26"/><path class="cls-1" d="M323.16,289.15a19.41,19.41,0,0,1,3.41-16c.24-.32.57-.66,1-.63.61.06.77.88.74,1.49a28.9,28.9,0,0,1-5.12,15.13"/><path class="cls-1" d="M324.85,290.31a23.25,23.25,0,0,0,19.09-3.89,15.47,15.47,0,0,0-10.34-1.26,14.72,14.72,0,0,0-8.75,5.15"/><path class="cls-1" d="M326.27,286.8a22.06,22.06,0,0,1,17.33-10,10.67,10.67,0,0,1-5.67,6.27,31.25,31.25,0,0,1-8.32,2.43c-1.1.22-2.62.46-3.34,1.33"/><path class="cls-1" d="M323.51,269.75a50,50,0,0,0,2.22-10.15,16.92,16.92,0,0,0-2-10,22.14,22.14,0,0,0-.3,20.54"/><path class="cls-1" d="M334.81,264c3.92-7.13,11.92-12.82,20-13.62-3.12,7.78-11.64,13.79-20,13.62"/><path class="cls-1" d="M332.34,265.44c5.85.89,10.83,4.62,16.3,6.89a7.26,7.26,0,0,0,3.68.7,2.89,2.89,0,0,0,1.81-5.1,7.89,7.89,0,0,0-2.68-1.62c-5.95-2.48-12.34-2.54-18.61-1"/><path class="cls-1" d="M329,269.54c1.33.38,1.78,1.06,2.83,2a30.51,30.51,0,0,0,12.36,6.35c.47.11,1.09.16,1.32-.27s0-.82-.32-1.15a17,17,0,0,0-7.46-5.07c-2.85-1.06-5.32-2.34-8.73-2.07"/><path class="cls-1" d="M325.13,244.76a23.4,23.4,0,0,0,17.94,6.1,1.17,1.17,0,0,0,.81-.29c.45-.49-.09-1.25-.61-1.66-5.28-4.11-11.66-5.81-18.14-4.15"/><path class="cls-1" d="M329.66,243.11a25,25,0,0,1,22.38-3.7,17.77,17.77,0,0,1-10.66,4.69,34.07,34.07,0,0,1-11.72-1"/><path class="cls-1" d="M327.86,231.72c-.52-5.26-.18-9.42-.54-14.7,0-.42-.12-.93-.52-1.08-.55-.22-1,.46-1.19,1a16.87,16.87,0,0,0,2.24,14.65"/><path class="cls-1" d="M327.48,232.3a30.71,30.71,0,0,0,8.72-8.47c1.72-2.36,3.17-5.18,2.78-8.07a8.37,8.37,0,0,0-6.29,3.12,17.67,17.67,0,0,0-3.2,6.45c-.7,2.32-1.19,4.7-2,7"/><path class="cls-1" d="M336.05,229.92a70.11,70.11,0,0,0,21.45-12.65c-2.56-1-5.5-.41-8.06.62a25.42,25.42,0,0,0-13.5,12"/><path class="cls-1" d="M329.89,235.18a43.59,43.59,0,0,0,11.91.06,50.44,50.44,0,0,0,11.12-3.7,1.27,1.27,0,0,0,.76-.57.88.88,0,0,0-.27-.95,2.32,2.32,0,0,0-1-.45,20.68,20.68,0,0,0-12,.72,55.78,55.78,0,0,0-10.55,4.89"/><path class="cls-1" d="M307.28,244.94a21.06,21.06,0,0,1-.19-17.44c1.64,2.51,1.84,5.7,1.54,8.68s-1.21,6-1.27,9"/><path class="cls-1" d="M296.49,239.5a24.34,24.34,0,0,0-18.08,7.7,16.85,16.85,0,0,0,9.9-1.84,50.36,50.36,0,0,0,8.48-5.67"/><path class="cls-1" d="M289.23,237.07c-3.3-.26-6.47-.67-9.65.3a11.57,11.57,0,0,0-7.35,6.23,17.42,17.42,0,0,0,9-1.7,52.11,52.11,0,0,0,8-4.83"/><path class="cls-1" d="M300,237.18c-3-1.94-6-3.92-9.47-4.73s-7.46-.21-9.87,2.4c2.8,1.64,6.19,1.83,9.44,1.83s7.22,0,10.28,1"/><path class="cls-1" d="M300,237.34c-5.07-5-7-13.94-5-20.75a31.61,31.61,0,0,1,5,20.75"/><path class="cls-1" d="M314,223.22c.95-2.23,1.63-4.56,2.49-6.83A19.56,19.56,0,0,1,320,210.1a9.32,9.32,0,0,1,6.28-3.26,25.32,25.32,0,0,1-12.2,16.42"/><path class="cls-1" d="M311.42,226.16c-1.58-2.18-3.41-5.14-5.56-6.76a9.28,9.28,0,0,0-7.57-2,17.66,17.66,0,0,0,13.13,8.75"/><path class="cls-1" d="M311.93,223.4a37.51,37.51,0,0,1-2.51-8.11,12.66,12.66,0,0,1,1.27-8.24c2.79,5.27,3.69,10.92,1.38,16.41"/><path class="cls-1" d="M314,207.05c1.58-5.22,6.36-9.07,11.52-10.83a4.26,4.26,0,0,1,2-.3,1.74,1.74,0,0,1,1.49,1.24c.19.89-.54,1.68-1.23,2.27a39.2,39.2,0,0,1-13.8,7.62"/><path class="cls-1" d="M314,202.78a37.14,37.14,0,0,1,1.51-10,12.6,12.6,0,0,1,6.27-7.58c.52,3.4-1,6.78-2.79,9.71s-4,5.69-5.07,8.95"/><path class="cls-1" d="M314,205.1c-1.31-3.81-1.44-8.64-3.72-12-1.59-2.31-4.14-3.89-5.51-6.34A9.57,9.57,0,0,0,305,194a20.66,20.66,0,0,0,4.21,6c1.69,1.8,3.13,3.15,4.7,5.06"/><path class="cls-1" d="M314,317.14c-.1,0-.19-25.38-.19-56.68s.07-56.69.17-56.69.19,25.38.19,56.69S314.07,317.14,314,317.14Z"/><path class="cls-1" d="M336.15,241.11a4.82,4.82,0,0,1-.95.36l-2.63.89c-2.21.75-5.25,1.84-8.56,3.2s-6.35,2.54-8.1,4.06a6,6,0,0,0-1.63,2.15c-.25.6-.3,1-.33,1a.79.79,0,0,1,0-.27,4.46,4.46,0,0,1,.18-.74,5.86,5.86,0,0,1,1.59-2.29,14.45,14.45,0,0,1,3.52-2.19c1.41-.66,3-1.34,4.63-2,3.31-1.36,6.37-2.42,8.61-3.11,1.12-.35,2-.61,2.67-.78A6.74,6.74,0,0,1,336.15,241.11Z"/><path class="cls-1" d="M343.42,223.26s-.08.1-.26.28l-.82.77-3,2.76-10.12,9c-3.95,3.52-7.36,6.87-9.73,9.4-1.18,1.27-2.12,2.31-2.75,3.05l-.74.83c-.17.2-.26.29-.27.28a1.53,1.53,0,0,1,.21-.32c.16-.21.38-.51.69-.89.6-.76,1.51-1.83,2.67-3.12a127.1,127.1,0,0,1,9.68-9.5c4-3.51,7.57-6.66,10.19-8.94l3.12-2.67.86-.71A1.62,1.62,0,0,1,343.42,223.26Z"/><path class="cls-1" d="M324.92,239.65c-.11,0,.72-2,1.54-4.36s1.22-4.44,1.33-4.42a15.12,15.12,0,0,1-1,4.54,30.67,30.67,0,0,1-1.23,3.05A5,5,0,0,1,324.92,239.65Z"/><path class="cls-1" d="M314,255a4.8,4.8,0,0,1-.61-.71l-1.56-2c-1.31-1.69-3.12-4-5.15-6.59s-3.9-4.85-5.25-6.51l-1.59-2a3.77,3.77,0,0,1-.55-.76,4.93,4.93,0,0,1,.65.66c.41.44,1,1.09,1.69,1.9,1.4,1.62,3.3,3.89,5.33,6.45s3.82,4.93,5.08,6.66c.62.87,1.13,1.58,1.46,2.08A4.3,4.3,0,0,1,314,255Z"/><path class="cls-1" d="M309.13,248.77a8.89,8.89,0,0,1-2-3.81,10.81,10.81,0,0,1-.47-3.85l.17,0c-.08.29-.13.45-.16.44s0-.17,0-.47h.17a17.33,17.33,0,0,0,.65,3.74A27.91,27.91,0,0,0,309.13,248.77Z"/><path class="cls-1" d="M302.85,240.88a6.05,6.05,0,0,0-1.42-.83,9.54,9.54,0,0,0-3.95-.32,24.27,24.27,0,0,0-4,.65,11.91,11.91,0,0,1-1.64.39,5.62,5.62,0,0,1,1.57-.64,17.88,17.88,0,0,1,4-.76,8.5,8.5,0,0,1,4.07.44A2.47,2.47,0,0,1,302.85,240.88Z"/><path class="cls-1" d="M301.37,239c0,.06-.83-.33-2.18-.79a22.26,22.26,0,0,0-5.44-1.12,22.85,22.85,0,0,0-5.55.28c-1.4.25-2.25.51-2.27.45a2.14,2.14,0,0,1,.58-.24,14.14,14.14,0,0,1,1.64-.46,19.34,19.34,0,0,1,11.13.84,13.65,13.65,0,0,1,1.55.71A2.16,2.16,0,0,1,301.37,239Z"/><path class="cls-1" d="M314,230.87a45.29,45.29,0,0,1-1.59-5.52,48.25,48.25,0,0,1-1.24-5.61,44,44,0,0,1,1.59,5.52A45,45,0,0,1,314,230.87Z"/><path class="cls-1" d="M314.05,230.87a26.84,26.84,0,0,0-1.76-3.31,14.36,14.36,0,0,0-2.6-2.67,2.43,2.43,0,0,1,1,.51,8.21,8.21,0,0,1,1.89,1.95A7.3,7.3,0,0,1,314.05,230.87Z"/><path class="cls-1" d="M314,303.61s-.11-.61-.4-1.69a24.05,24.05,0,0,0-1.69-4.39,61.32,61.32,0,0,0-9-12.68c-2-2.29-4-4.46-5.61-6.53a46.64,46.64,0,0,1-4-5.79,26.69,26.69,0,0,1-2-4.3c-.19-.53-.33-.94-.4-1.23a2.79,2.79,0,0,1-.11-.43s.22.58.64,1.61a31.62,31.62,0,0,0,2.12,4.22,48,48,0,0,0,4,5.7c1.66,2.06,3.61,4.21,5.62,6.51a57.36,57.36,0,0,1,9,12.81,21.46,21.46,0,0,1,1.6,4.47,12.83,12.83,0,0,1,.23,1.27A1.7,1.7,0,0,1,314,303.61Z"/><path class="cls-1" d="M334,281a10.24,10.24,0,0,1-1,.59,22.9,22.9,0,0,0-2.73,1.8,31.6,31.6,0,0,0-3.58,3.27c-1.25,1.32-2.55,2.86-3.87,4.52-2.64,3.31-5.11,6.24-6.58,8.58-.76,1.16-1.3,2.14-1.66,2.82a8.07,8.07,0,0,1-.58,1.06,1.61,1.61,0,0,1,.1-.3c.08-.19.18-.47.35-.82a26.94,26.94,0,0,1,1.57-2.9,91.21,91.21,0,0,1,6.52-8.67c1.32-1.66,2.63-3.2,3.91-4.53a28.76,28.76,0,0,1,3.67-3.23,17.9,17.9,0,0,1,2.81-1.72c.35-.18.63-.29.82-.37A1.38,1.38,0,0,1,334,281Z"/><path class="cls-1" d="M334.41,288.32a17.28,17.28,0,0,1-2.22.32,29,29,0,0,0-5.27,1,15.68,15.68,0,0,0-4.71,2.47c-1.09.84-1.6,1.54-1.65,1.49a1.72,1.72,0,0,1,.33-.51A8.07,8.07,0,0,1,322,292a14.27,14.27,0,0,1,4.77-2.62,23.47,23.47,0,0,1,5.35-.95A11.78,11.78,0,0,1,334.41,288.32Z"/><path class="cls-1" d="M321.21,292.84c-.12-.07.88-1.6,1.66-3.65s.9-3.89,1-3.87a3.92,3.92,0,0,1,0,1.19,12.57,12.57,0,0,1-.65,2.8,13.67,13.67,0,0,1-1.29,2.58A3.64,3.64,0,0,1,321.21,292.84Z"/><path class="cls-1" d="M340.51,261.26l-.36.19-1,.47c-.46.2-1,.44-1.64.77s-1.36.66-2.12,1.12l-1.21.69c-.42.24-.84.53-1.28.8-.89.54-1.79,1.21-2.74,1.89a51.4,51.4,0,0,0-5.72,5,49.63,49.63,0,0,0-4.84,5.89c-.65,1-1.29,1.89-1.8,2.81-.26.45-.53.87-.76,1.3l-.64,1.23c-.44.78-.74,1.52-1.05,2.16s-.53,1.2-.71,1.66-.33.78-.44,1.06a1.82,1.82,0,0,1-.18.36,2.31,2.31,0,0,1,.11-.38l.37-1.09a17.14,17.14,0,0,1,.67-1.69c.28-.65.57-1.4,1-2.19l.63-1.26c.23-.43.49-.86.75-1.32.5-.92,1.13-1.85,1.78-2.84a45.12,45.12,0,0,1,10.64-11c1-.68,1.87-1.34,2.78-1.87.45-.28.87-.56,1.3-.8l1.23-.67c.77-.44,1.51-.76,2.15-1.07a17.87,17.87,0,0,1,1.67-.72l1.07-.41C340.37,261.29,340.5,261.24,340.51,261.26Z"/><path class="cls-1" d="M324.64,271.88a2.6,2.6,0,0,1,.88-1.29,5.44,5.44,0,0,1,3.51-1.35,9.66,9.66,0,0,1,3.7.72,5.63,5.63,0,0,1,1.4.68,8.61,8.61,0,0,1-1.49-.44,11.55,11.55,0,0,0-3.6-.6,5.72,5.72,0,0,0-3.35,1.18A12.36,12.36,0,0,0,324.64,271.88Z"/><path class="cls-1" d="M322.27,274.33a9.41,9.41,0,0,0,.78-6.64,2.21,2.21,0,0,1,.41.95,6.65,6.65,0,0,1-.57,4.87C322.58,274.07,322.31,274.36,322.27,274.33Z"/><path class="cls-1" d="M296.44,307.25c.55,9.7,3.47,19.56,8,29.54H324c4.29-9.88,7-19.73,7.49-29.54Z"/><path class="cls-2" d="M328.28,322.94c0,.1-6.43.19-14.37.19s-14.38-.09-14.38-.19,6.44-.18,14.38-.18S328.28,322.84,328.28,322.94Z"/><path class="cls-2" d="M327.85,326.46c0,.1-6,.18-13.48.18s-13.48-.08-13.48-.18,6-.19,13.48-.19S327.85,326.36,327.85,326.46Z"/><path class="cls-2" d="M304.72,313.62a53.38,53.38,0,0,1,0,9,56.34,56.34,0,0,1,0-9Z"/><path class="cls-2" d="M315.2,313.62a60.41,60.41,0,0,1,0,9.32,60.41,60.41,0,0,1,0-9.32Z"/><path class="cls-2" d="M325,313.54a59.6,59.6,0,0,1,0,9.51,62.9,62.9,0,0,1,0-9.51Z"/><path class="cls-2" d="M330.83,313.62c0,.1-7.55.18-16.86.18s-16.86-.08-16.86-.18,7.55-.19,16.86-.19S330.83,313.51,330.83,313.62Z"/><path class="cls-3" d="M41.44,277.11a16.84,16.84,0,0,1,10.44-1.27,8.72,8.72,0,0,1,5.15,2.3c1.29,1.43,1.53,3.93,0,5.15a4.87,4.87,0,0,1-3.25.82c-2.75,0-5.81-.51-8,1.15-1.25.94-2.09,2.52-3.59,3a3.55,3.55,0,0,1-3.91-1.74,6.08,6.08,0,0,1-.45-4.48A6.87,6.87,0,0,1,41.44,277.11Z"/><path class="cls-3" d="M34.17,263.07c1.94,2.78,5.71,1.86,7.46.17s2.49-4.15,3.16-6.48c1.54-5.35,3.09-10.95,2-16.39a9.13,9.13,0,0,0-2.09-4.46,4.79,4.79,0,0,0-4.51-1.5c-1.9.5-3.09,2.37-3.94,4.14a39.08,39.08,0,0,0-3.86,16.76c0,2.7.31,5.54,1.83,7.76"/><path class="cls-3" d="M28.84,267.05a10.07,10.07,0,0,0,1.57-9.28,17.79,17.79,0,0,0-5.49-8A29.66,29.66,0,0,0,15.07,244a10.36,10.36,0,0,0-4.42-.75,4.63,4.63,0,0,0-3.72,2.25c-1,2,0,4.37,1,6.32a74.63,74.63,0,0,0,6.47,9.85c1.94,2.5,4.15,5,7.11,6.09s6,1,7.58-1.05"/><path class="cls-4" d="M34,304.88a5.28,5.28,0,0,0,.18-1.25c.09-.92.2-2.07.33-3.44a49.66,49.66,0,0,1,.77-5,38.21,38.21,0,0,1,1.84-5.95,21.76,21.76,0,0,1,3-5.39A11.22,11.22,0,0,1,44,280.62a10.68,10.68,0,0,1,3.23-1,5.6,5.6,0,0,0,1.26-.18,5.74,5.74,0,0,0-1.28,0,9.57,9.57,0,0,0-3.37.88,11.35,11.35,0,0,0-4.06,3.22A21.73,21.73,0,0,0,36.67,289a36.91,36.91,0,0,0-1.81,6.05,42.48,42.48,0,0,0-.68,5.1c-.1,1.46-.15,2.65-.17,3.46A7,7,0,0,0,34,304.88Z"/><path class="cls-4" d="M34.28,302.24a2.17,2.17,0,0,0,0-.58V300c0-1.45,0-3.54.07-6.14.13-5.18.58-10.76,1.44-18.62.81-7.4,1.91-16,3.07-21.6.24-1.27.49-2.42.73-3.42s.41-1.87.6-2.57.29-1.2.39-1.63a2.45,2.45,0,0,0,.1-.57,2.41,2.41,0,0,0-.2.54L40,247.58c-.21.69-.43,1.55-.68,2.55s-.54,2.14-.81,3.41a188,188,0,0,0-3.23,20c-.86,7.88-1.25,15.06-1.29,20.26,0,2.59,0,4.7.09,6.15,0,.68.08,1.23.11,1.67A2.45,2.45,0,0,0,34.28,302.24Z"/><path class="cls-4" d="M34.31,288.4a10.65,10.65,0,0,0,0-1.75c-.06-1.12-.22-2.74-.53-4.73A65.12,65.12,0,0,0,32.23,275a56.86,56.86,0,0,0-2.88-8.15,43.34,43.34,0,0,0-8.47-13.18,21.64,21.64,0,0,0-2-1.85c-.3-.26-.57-.51-.85-.72l-.77-.53a10.48,10.48,0,0,0-1.47-.94,51.71,51.71,0,0,1,4.82,4.3,45.68,45.68,0,0,1,8.25,13.13,65.82,65.82,0,0,1,2.9,8.08C32.52,277.7,33,280,33.4,282s.57,3.57.7,4.68A12.17,12.17,0,0,0,34.31,288.4Z"/><polygon class="cls-4" points="20.93 312.81 22.32 331.81 46.73 331.81 48.12 312.81 20.93 312.81"/><rect class="cls-4" x="18.58" y="305.33" width="32.45" height="7.49"/><polygon class="cls-5" points="18.58 331.09 18.58 333.16 20.1 333.16 50.49 333.16 50.49 331.09 18.58 331.09"/><polygon class="cls-5" points="21.6 336.82 20.1 333.16 49.33 333.16 47.59 336.82 21.6 336.82"/><path class="cls-1" d="M47.66,319s0,.07-.11.18l-.36.48-1.43,1.82-.06.08-.06-.08-3.49-4.83h.2l-3.44,4.87-.11.15-.12-.14-4.08-4.86h.24l-.23.28c-1.26,1.59-2.49,3.12-3.65,4.57l-.12.16-.11-.16-3.44-4.87h.2l-4.24,4.83-.07.08-.06-.09-1.33-2.23-.34-.6c-.07-.13-.11-.2-.1-.21l.14.19.38.57,1.39,2.19h-.13l4.17-4.89.1-.12.1.13L31,321.37h-.24l3.64-4.58.23-.28.11-.15.12.15,4.07,4.86h-.23l3.48-4.85.1-.14.1.14c1.37,2,2.54,3.64,3.42,4.89h-.13c.63-.74,1.12-1.34,1.48-1.77l.4-.46Z"/><path class="cls-5" d="M48.46,312.69c0,.08-6.12.15-13.66.15s-13.66-.07-13.66-.15,6.11-.15,13.66-.15S48.46,312.6,48.46,312.69Z"/><path class="cls-4" d="M49.69,333.37c0,.08-6.65.15-14.84.15S20,333.45,20,333.37s6.65-.15,14.85-.15S49.69,333.28,49.69,333.37Z"/><path class="cls-6" d="M112.09,22.94l-13.75.11A3.41,3.41,0,0,0,95,26.57l0,2.49a3.41,3.41,0,0,1-3.31,3.52l-26.8.22a3.42,3.42,0,0,1-3.37-3.46l0-2.5a3.42,3.42,0,0,0-3.37-3.46l-4.84,0-12,.1A10.81,10.81,0,0,0,30.58,34.43L32.07,208A10.82,10.82,0,0,0,43,218.71l70.78-.58a10.81,10.81,0,0,0,10.73-10.91L123,33.66A10.82,10.82,0,0,0,112.09,22.94Z"/><path class="cls-4" d="M112.09,22.94h.37a9.3,9.3,0,0,1,1.1.08,10,10,0,0,1,4.07,1.37,10.59,10.59,0,0,1,2.49,2,10.91,10.91,0,0,1,2.08,3.22,11.14,11.14,0,0,1,.85,4.38c0,1.6,0,3.3,0,5.1.14,14.42.34,35.28.58,61.05s.51,56.47.81,90.54q.06,6.39.12,12.94l0,3.28a11.88,11.88,0,0,1-.39,3.3,11,11,0,0,1-1.35,3.06,11.72,11.72,0,0,1-2.24,2.53,11,11,0,0,1-6.22,2.48c-2.27.08-4.53,0-6.8.09l-13.78.11-28.28.24-14.47.12-7.3.06A11.45,11.45,0,0,1,36.74,217a11.07,11.07,0,0,1-4.34-5.88,12,12,0,0,1-.48-3.66c0-1.22,0-2.43,0-3.65q-.06-7.28-.12-14.47Q31.64,175,31.52,161c-.16-18.55-.31-36.44-.45-53.48s-.28-33.24-.41-48.39q-.09-11.37-.18-21.93c0-.88,0-1.76,0-2.63,0-.43,0-.87.05-1.31s.1-.87.21-1.29A11,11,0,0,1,33,27.39a11,11,0,0,1,8.79-4l9.43-.08,4.53,0,2.23,0a3.49,3.49,0,0,1,2.13.58,3.53,3.53,0,0,1,1.34,1.73,5.56,5.56,0,0,1,.24,2.13c0,.35,0,.71,0,1.05a7.13,7.13,0,0,0,0,1,3.4,3.4,0,0,0,.83,1.8,3.16,3.16,0,0,0,1.66,1,3.51,3.51,0,0,0,1,.09h1l3.91,0,14.26-.1,6.29,0c.5,0,1,0,1.48,0A3.23,3.23,0,0,0,93.42,32a3.43,3.43,0,0,0,1.5-2.19A6.36,6.36,0,0,0,95,28.51c0-.44,0-.87,0-1.3A6.65,6.65,0,0,1,95,26a3.53,3.53,0,0,1,.39-1.16,3.49,3.49,0,0,1,1.72-1.55A5.48,5.48,0,0,1,99.28,23l7-.05,4.32,0h1.47l-1.47,0L106.3,23l-7,.08a5.28,5.28,0,0,0-2.11.25,3.24,3.24,0,0,0-1.65,1.5A3.61,3.61,0,0,0,95.13,26a7.24,7.24,0,0,0,0,1.24c0,.43,0,.86,0,1.3A5.45,5.45,0,0,1,95,29.84a3.53,3.53,0,0,1-1.54,2.28,3.32,3.32,0,0,1-1.38.5c-.5.05-1,0-1.48,0l-6.3.05-14.26.13-3.91,0h-1a3.92,3.92,0,0,1-1-.09,3.37,3.37,0,0,1-1.76-1.07,3.51,3.51,0,0,1-.87-1.9,9.34,9.34,0,0,1-.05-1c0-.35,0-.7,0-1.06a5.53,5.53,0,0,0-.23-2.07A3.39,3.39,0,0,0,60,24a3.23,3.23,0,0,0-2-.54l-2.22,0-4.54,0-9.43.08a10.75,10.75,0,0,0-8.62,3.92A10.84,10.84,0,0,0,31,32.05c-.11.41-.14.84-.21,1.26s0,.86,0,1.29c0,.87,0,1.75,0,2.63q.09,10.55.2,21.93c.13,15.15.28,31.34.43,48.39s.31,34.93.47,53.47q.12,13.92.24,28.29.07,7.19.13,14.47l0,3.65a11.61,11.61,0,0,0,.47,3.57,10.8,10.8,0,0,0,4.22,5.72,11.12,11.12,0,0,0,6.89,1.83l7.31-.06,14.46-.12,28.28-.23,13.78-.11c2.27,0,4.55,0,6.79-.09a10.66,10.66,0,0,0,6.06-2.41,11.49,11.49,0,0,0,2.17-2.45,10.73,10.73,0,0,0,1.32-3,11.34,11.34,0,0,0,.38-3.23l0-3.28q-.06-6.54-.11-12.94c-.28-34.07-.53-64.76-.75-90.54s-.36-46.63-.47-61c0-1.8,0-3.5,0-5.1a11.2,11.2,0,0,0-.83-4.35,10.71,10.71,0,0,0-2.06-3.19,10.54,10.54,0,0,0-2.46-2,10.16,10.16,0,0,0-4-1.39,9.51,9.51,0,0,0-1.09-.09Z"/><path class="cls-4" d="M114.34,40.44c0,.05-1.79.12-4,.15s-4,0-4,0,1.78-.12,4-.15S114.34,40.4,114.34,40.44Z"/><path class="cls-4" d="M114.37,42.49s-1.79.11-4,.15-4,0-4,0,1.79-.11,4-.15S114.37,42.44,114.37,42.49Z"/><path class="cls-4" d="M114.41,44.53s-1.79.11-4,.15-4,0-4,0,1.78-.12,4-.16S114.4,44.48,114.41,44.53Z"/><path class="cls-4" d="M41.73,47.5h.17l.46,0,1.71,0,0,0c0-.37,0-.79,0-1.23,0-.23,0-.45,0-.71a.64.64,0,0,1,.56-.53c.28,0,.52,0,.82,0a.66.66,0,0,1,.56.66c0,.57,0,1.18,0,1.8l-.08-.08,2.15,0L48,47.4c0-.87,0-1.77-.05-2.68V44a.66.66,0,0,0-.31-.5l-.94-.92-.92-.89-.44-.43a1.21,1.21,0,0,0-.45-.33.6.6,0,0,0-.49.1c-.13.11-.27.27-.4.4l-.77.78c-.48.51-1,1-1.34,1.42a1.36,1.36,0,0,0-.1.8v2.76a1.23,1.23,0,0,1,0,.28,2.06,2.06,0,0,1,0-.25c0-.21,0-.47,0-.77s0-.77,0-1.23c0-.25,0-.51,0-.78v-.42a.91.91,0,0,1,.11-.45c.4-.49.87-.93,1.35-1.45l.76-.79c.14-.14.25-.28.41-.42a.77.77,0,0,1,.63-.13,1.18,1.18,0,0,1,.52.37l.44.43.92.88,1,.92a1.21,1.21,0,0,1,.24.26.74.74,0,0,1,.12.36c0,.22,0,.45,0,.68,0,.92,0,1.82.05,2.68v.09H48l-2.15,0h-.08v-.08c0-.62,0-1.22,0-1.8a.53.53,0,0,0-.44-.52c-.25,0-.54,0-.78,0a.52.52,0,0,0-.46.42c0,.22,0,.47,0,.69,0,.44,0,.86,0,1.23v0H41.73Z"/><rect class="cls-7" x="38.68" y="58" width="75.45" height="13.72" rx="5.79" transform="translate(-0.57 0.68) rotate(-0.51)"/><path class="cls-4" d="M108.4,71.45l.44,0a7.06,7.06,0,0,0,1.24-.26,6,6,0,0,0,1.81-1,5.74,5.74,0,0,0,2.14-3.8,14.07,14.07,0,0,0,0-1.85,12.48,12.48,0,0,0-.1-2,5.92,5.92,0,0,0-.77-2,5.7,5.7,0,0,0-3.83-2.61,15.17,15.17,0,0,0-2.63-.08l-2.78,0-59.54.56a5.66,5.66,0,0,0-5.58,5.23c0,.69,0,1.41,0,2.11a6.85,6.85,0,0,0,.23,2A5.72,5.72,0,0,0,41.42,71a5.2,5.2,0,0,0,1.84.76,8.12,8.12,0,0,0,2,.14l4,0L57,71.77l26.77-.21,18.05-.11,4.9,0H108l.43,0H108l-1.28,0-4.9.07-18.05.2L57,72l-7.74.07-4,0a8.32,8.32,0,0,1-2-.14,5.53,5.53,0,0,1-1.93-.8,5.91,5.91,0,0,1-2.48-3.33,6.89,6.89,0,0,1-.25-2.11c0-.71,0-1.4,0-2.13a5.95,5.95,0,0,1,5.86-5.49l59.53-.48,2.79,0a15.67,15.67,0,0,1,2.66.09,5.87,5.87,0,0,1,3.93,2.7,6,6,0,0,1,.78,2.07,12.89,12.89,0,0,1,.1,2,14.36,14.36,0,0,1,0,1.87,5.8,5.8,0,0,1-2.21,3.85,6.41,6.41,0,0,1-1.84,1,5.71,5.71,0,0,1-1.26.22Z"/><path class="cls-4" d="M109.5,64.25s0-.23-.13-.6a2.49,2.49,0,0,0-.93-1.29,2.37,2.37,0,0,0-3.77,1.93,2.37,2.37,0,0,0,3.81,1.86,2.44,2.44,0,0,0,.9-1.31c.1-.37.1-.6.12-.59s0,0,0,.16a2.4,2.4,0,0,1,0,.46,2.44,2.44,0,0,1-.88,1.44,2.56,2.56,0,0,1-2.45.42,2.6,2.6,0,0,1,0-4.91,2.54,2.54,0,0,1,2.45.38,2.43,2.43,0,0,1,.91,1.43,1.35,1.35,0,0,1,0,.45C109.52,64.19,109.51,64.25,109.5,64.25Z"/><path class="cls-4" d="M110.91,68.52a4.91,4.91,0,0,1-1.23-1.1,5.14,5.14,0,0,1-1-1.29,9.58,9.58,0,0,1,2.25,2.39Z"/><path class="cls-1" d="M48.85,63.73l-1.34,0V63.4l3.1,0v.35H49.26l0,3.48h-.41Z"/><path class="cls-1" d="M53.39,65.86l-2.41,0a1.16,1.16,0,0,0,2,.6l.22.25a1.39,1.39,0,0,1-1.1.48,1.43,1.43,0,0,1-1.53-1.45A1.39,1.39,0,0,1,52,64.29a1.37,1.37,0,0,1,1.41,1.45S53.39,65.81,53.39,65.86ZM51,65.59l2,0a1,1,0,0,0-2,0Z"/><path class="cls-1" d="M56,67.15,55,66l-.91,1.21h-.44l1.13-1.49-1.1-1.39h.44L55,65.41l.86-1.14h.42l-1.07,1.41,1.17,1.47Z"/><path class="cls-1" d="M58.55,67a.9.9,0,0,1-.6.21.76.76,0,0,1-.85-.83l0-1.74h-.51v-.33h.51v-.63h.38v.63h.87v.33h-.88l0,1.72a.46.46,0,0,0,.5.52.64.64,0,0,0,.43-.15Z"/><rect class="cls-8" x="42.09" y="83.36" width="16.52" height="16.52" transform="translate(-0.81 0.45) rotate(-0.51)"/><path class="cls-8" d="M90.32,84.68c0,.07-5.52.18-12.33.24s-12.33,0-12.33,0,5.52-.19,12.33-.25S90.32,84.6,90.32,84.68Z"/><path class="cls-4" d="M110,89.56c0,.08-9.93.23-22.17.34S65.7,90,65.7,90s9.92-.23,22.17-.34S110,89.49,110,89.56Z"/><path class="cls-4" d="M109.55,93.18c0,.08-9.81.23-21.91.34s-21.91.13-21.91,0,9.81-.23,21.91-.33S109.54,93.11,109.55,93.18Z"/><path class="cls-4" d="M91.63,96.79c0,.08-5.79.19-12.93.26s-12.94,0-12.94,0,5.79-.19,12.94-.26S91.63,96.71,91.63,96.79Z"/><rect class="cls-8" x="42.34" y="110.77" width="16.52" height="16.52" transform="matrix(1, -0.01, 0.01, 1, -1.05, 0.45)"/><path class="cls-8" d="M90.56,112.19c0,.08-5.52.19-12.33.25s-12.33,0-12.33,0,5.52-.19,12.33-.25S90.56,112.11,90.56,112.19Z"/><path class="cls-4" d="M110.28,117.08c0,.08-9.93.23-22.17.33s-22.17.14-22.17.06,9.92-.23,22.17-.34S110.28,117,110.28,117.08Z"/><path class="cls-4" d="M109.79,120.7c0,.08-9.81.23-21.91.33s-21.9.13-21.91.06,9.81-.23,21.91-.34S109.79,120.62,109.79,120.7Z"/><path class="cls-4" d="M91.87,124.31c0,.07-5.79.19-12.93.25s-12.93,0-12.94,0,5.79-.19,12.94-.25S91.87,124.23,91.87,124.31Z"/><rect class="cls-5" x="42.58" y="138.28" width="16.52" height="16.52" transform="matrix(1, -0.01, 0.01, 1, -1.29, 0.45)"/><path class="cls-8" d="M90.81,139.7c0,.08-5.52.19-12.33.25s-12.34.05-12.34,0,5.52-.19,12.33-.25S90.81,139.63,90.81,139.7Z"/><path class="cls-4" d="M110.52,144.59c0,.08-9.92.23-22.16.34s-22.17.13-22.17,0,9.92-.22,22.16-.33S110.52,144.52,110.52,144.59Z"/><path class="cls-4" d="M110,148.21c0,.08-9.81.23-21.9.34s-21.91.13-21.91,0,9.8-.23,21.9-.33S110,148.14,110,148.21Z"/><path class="cls-4" d="M92.12,151.82c0,.08-5.79.19-12.94.26s-12.93,0-12.93,0,5.79-.19,12.93-.26S92.12,151.74,92.12,151.82Z"/><rect class="cls-8" x="42.82" y="165.8" width="16.52" height="16.52" transform="translate(-1.53 0.46) rotate(-0.51)"/><path class="cls-5" d="M91.05,167.22c0,.08-5.52.19-12.33.25s-12.34,0-12.34,0,5.52-.19,12.34-.25S91.05,167.14,91.05,167.22Z"/><path class="cls-4" d="M110.76,172.11c0,.08-9.92.23-22.16.33s-22.17.14-22.17.06,9.92-.23,22.17-.34S110.76,172,110.76,172.11Z"/><path class="cls-4" d="M110.27,175.73c0,.08-9.8.23-21.9.33s-21.91.13-21.91.05,9.81-.22,21.91-.33S110.27,175.65,110.27,175.73Z"/><path class="cls-4" d="M92.36,179.34c0,.07-5.79.19-12.93.25s-12.94,0-12.94,0,5.79-.19,12.93-.25S92.36,179.26,92.36,179.34Z"/><rect class="cls-1" x="43.06" y="193.31" width="16.52" height="16.52" transform="translate(-1.78 0.46) rotate(-0.51)"/><path class="cls-1" d="M91.29,194.73c0,.08-5.52.19-12.33.25s-12.33.05-12.33,0,5.52-.19,12.33-.25S91.29,194.66,91.29,194.73Z"/><path class="cls-9" d="M111,199.62c0,.08-9.93.23-22.17.34s-22.17.13-22.17,0,9.92-.22,22.17-.33S111,199.55,111,199.62Z"/><path class="cls-9" d="M110.52,203.24c0,.08-9.81.23-21.91.34s-21.91.13-21.91,0,9.81-.23,21.91-.33S110.52,203.17,110.52,203.24Z"/><path class="cls-9" d="M92.6,206.85c0,.08-5.79.19-12.93.25s-12.94.06-12.94,0,5.79-.19,12.94-.26S92.6,206.77,92.6,206.85Z"/><g class="cls-10"><rect x="42.82" y="165.8" width="16.52" height="16.52" transform="translate(-1.53 0.46) rotate(-0.51)"/></g><path class="cls-6" d="M305.37,211.65l-9.18-.07a2.28,2.28,0,0,0-2.24,2.31v1.66a2.28,2.28,0,0,1-2.25,2.31l-17.89-.12a2.28,2.28,0,0,1-2.21-2.34v-1.66a2.27,2.27,0,0,0-2.22-2.34l-3.22,0-8-.05a7.21,7.21,0,0,0-7.27,7.15l-.67,74.46a7.22,7.22,0,0,0,7.17,7.25l47.25.33a7.22,7.22,0,0,0,7.27-7.16l.67-74.45A7.21,7.21,0,0,0,305.37,211.65Z"/><path class="cls-4" d="M305.37,211.65l.77,0a7.49,7.49,0,0,1,2.17.59,7.17,7.17,0,0,1,2.83,2.28,7.26,7.26,0,0,1,1.43,4.7c-.06,7.54-.15,18.42-.26,31.87-.06,6.73-.12,14.1-.19,22q0,5.94-.1,12.26c0,2.11,0,4.24-.06,6.41a13.36,13.36,0,0,1-.24,3.27A7.3,7.3,0,0,1,310.2,298a7.55,7.55,0,0,1-2.72,2,8,8,0,0,1-3.35.57l-6.91-.05-14.25-.1-14.76-.1-7.55-.05c-1.27,0-2.54,0-3.82,0a7.26,7.26,0,0,1-6.07-4.23,7.81,7.81,0,0,1-.66-3.75c0-2.54,0-5.05.06-7.55q.08-7.5.14-14.77c.09-9.68.17-19,.25-27.92q.06-6.67.12-13c0-2.11,0-4.18.06-6.23l0-3a12,12,0,0,1,.24-3,7.31,7.31,0,0,1,3.47-4.55,7.21,7.21,0,0,1,2.7-.88,25.88,25.88,0,0,1,2.78,0l5.4,0,2.61,0h1.28a2.28,2.28,0,0,1,1.25.31,2.42,2.42,0,0,1,1.15,2.14c0,.41,0,.82,0,1.22a3.09,3.09,0,0,0,.13,1.18,2.2,2.2,0,0,0,1.66,1.45c.76.08,1.54,0,2.3.06l8.56.06,7.44.06a2.24,2.24,0,0,0,2.16-2c0-.52,0-1,0-1.53a3,3,0,0,1,.25-1.42,2.25,2.25,0,0,1,2.19-1.29l2.34,0,3.66,0,3,0h-6.68l-2.34,0a2.21,2.21,0,0,0-2.13,1.26,2.86,2.86,0,0,0-.24,1.4c0,.5,0,1,0,1.53a2.32,2.32,0,0,1-2.23,2.1l-7.45-.05-8.56,0c-.76,0-1.51,0-2.31-.05a2.31,2.31,0,0,1-1.74-1.53,3.1,3.1,0,0,1-.14-1.21c0-.4,0-.81,0-1.22a2.28,2.28,0,0,0-1.1-2,2.24,2.24,0,0,0-1.19-.3H268l-2.61,0-5.4,0c-.91,0-1.85,0-2.77.05a7,7,0,0,0-2.65.88,7.12,7.12,0,0,0-3.4,4.47,11.58,11.58,0,0,0-.23,3c0,1,0,2,0,3,0,2,0,4.12,0,6.22q-.06,6.33-.12,13c-.08,8.9-.16,18.24-.24,27.92q-.08,7.26-.13,14.77c0,2.5-.05,5-.07,7.55a7.61,7.61,0,0,0,.65,3.68,7,7,0,0,0,2.4,2.88,7.18,7.18,0,0,0,3.53,1.26c1.26.06,2.55,0,3.81.05l7.55.05,14.76.11,14.25.1,6.91.05a7.87,7.87,0,0,0,3.3-.56,7.4,7.4,0,0,0,2.65-1.94,7.11,7.11,0,0,0,1.5-2.88,13.54,13.54,0,0,0,.24-3.24c0-2.17,0-4.3.05-6.41q.06-6.33.12-12.26c.07-7.91.14-15.28.21-22,.13-13.45.23-24.33.31-31.87a7.29,7.29,0,0,0-1.41-4.68,7.2,7.2,0,0,0-2.81-2.27,7.93,7.93,0,0,0-2.15-.61Z"/><rect class="cls-8" x="256.41" y="232.88" width="49.92" height="34.67" transform="translate(0.6 -0.67) rotate(0.14)"/><circle class="cls-6" cx="281.38" cy="250.15" r="7.25" transform="translate(-43.66 60.15) rotate(-11.33)"/><polygon class="cls-8" points="279.59 250.14 279.6 246.88 282.42 248.52 285.25 250.16 282.42 251.78 279.58 253.41 279.59 250.14"/><path class="cls-4" d="M261.76,272.68v-.55a.07.07,0,0,1,.1-.06l.48.28.49.28a.07.07,0,0,1,0,.11l-.49.28-.48.28a.07.07,0,0,1-.1-.06Z"/><path class="cls-4" d="M266.3,272.26h-.42a.07.07,0,0,0-.07.06v.75a.06.06,0,0,0,.06.06h.42l.65.65v-2.17Z"/><path class="cls-4" d="M263.22,273.36h0a.11.11,0,0,1-.11-.11v-1.12a.11.11,0,0,1,.11-.11h0a.11.11,0,0,1,.11.11v1.12A.11.11,0,0,1,263.22,273.36Z"/><path class="cls-4" d="M267.21,272v1.36a.73.73,0,0,0,0-1.36Z"/><path class="cls-4" d="M267.21,271.5v.28a1,1,0,0,1,.68.92.94.94,0,0,1-.69.91v.28a1.22,1.22,0,0,0,0-2.39Z"/><path class="cls-4" d="M270.71,272.26v1.31h-.18v-1.15h-.3v-.16Z"/><path class="cls-4" d="M271,272.7a.13.13,0,0,1,.13-.13.12.12,0,0,1,.12.13.13.13,0,0,1-.12.13A.13.13,0,0,1,271,272.7Zm0,.76a.13.13,0,0,1,.13-.13.12.12,0,0,1,.12.13.13.13,0,0,1-.12.13A.13.13,0,0,1,271,273.46Z"/><path class="cls-4" d="M271.42,272.92c0-.43.23-.67.54-.67s.53.24.53.67-.23.67-.53.67S271.42,273.35,271.42,272.92Zm.88,0c0-.34-.14-.51-.34-.51s-.35.17-.35.51.14.5.35.51S272.3,273.26,272.3,272.92Z"/><path class="cls-4" d="M273.08,272.26v1.32h-.18v-1.15h-.3v-.17Z"/><path class="cls-4" d="M274.35,272h.16l-.63,1.77h-.16Z"/><path class="cls-4" d="M276.07,273.22c0,.23-.21.38-.53.38s-.52-.15-.52-.39a.32.32,0,0,1,.24-.31.31.31,0,0,1-.19-.29c0-.22.19-.35.48-.35s.47.13.47.35a.31.31,0,0,1-.18.29A.33.33,0,0,1,276.07,273.22Zm-.19,0c0-.15-.13-.24-.34-.24s-.33.09-.33.24.13.24.33.24S275.88,273.36,275.88,273.21Zm-.62-.59c0,.13.1.21.29.21s.29-.08.29-.21-.12-.21-.29-.21S275.26,272.49,275.26,272.62Z"/><path class="cls-4" d="M276.24,272.71a.13.13,0,0,1,.13-.13.13.13,0,0,1,.12.13.12.12,0,0,1-.12.13A.13.13,0,0,1,276.24,272.71Zm0,.76a.12.12,0,0,1,.12-.13.13.13,0,1,1,0,.26A.12.12,0,0,1,276.24,273.47Z"/><path class="cls-4" d="M276.67,272.93c0-.43.23-.67.54-.67s.53.25.53.67-.23.68-.54.68S276.67,273.36,276.67,272.93Zm.88,0c0-.33-.14-.5-.34-.5s-.35.17-.35.5.14.51.34.51S277.55,273.27,277.55,272.93Z"/><path class="cls-4" d="M277.92,272.93c0-.42.23-.67.54-.67s.53.25.53.68-.23.67-.53.67S277.92,273.36,277.92,272.93Zm.89,0c0-.34-.15-.51-.35-.51s-.35.17-.35.5.14.51.35.51S278.8,273.27,278.81,272.94Z"/><path class="cls-4" d="M257,273.35h0a.22.22,0,0,1-.23-.22V272a.22.22,0,0,1,.22-.22h0a.22.22,0,0,1,.22.22v1.16A.22.22,0,0,1,257,273.35Z"/><path class="cls-4" d="M258,273.35h0a.22.22,0,0,1-.22-.22V272a.22.22,0,0,1,.22-.22h0a.23.23,0,0,1,.23.23v1.15A.22.22,0,0,1,258,273.35Z"/><path class="cls-1" d="M306.05,270.69l-49.21-.12a.46.46,0,0,1-.47-.47h0a.47.47,0,0,1,.47-.48l49.21.12a.47.47,0,0,1,.48.48h0A.48.48,0,0,1,306.05,270.69Z"/><path class="cls-8" d="M274.92,270.61l-18.08,0a.46.46,0,0,1-.47-.47h0a.47.47,0,0,1,.47-.48l18.09.05a.41.41,0,0,1,.41.41v.12A.41.41,0,0,1,274.92,270.61Z"/><path class="cls-8" d="M275.82,270.14a.91.91,0,0,1-.91.9.9.9,0,1,1,.91-.9Z"/><path class="cls-4" d="M306.14,279.41c0,.11-11,.18-24.57.14S257,279.4,257,279.29s11-.17,24.57-.14S306.14,279.3,306.14,279.41Z"/><path class="cls-4" d="M306.12,284.27c0,.11-11,.17-24.56.14s-24.56-.15-24.56-.26,11-.18,24.56-.15S306.12,284.15,306.12,284.27Z"/><path class="cls-4" d="M306.11,289.12c0,.11-11,.18-24.56.14S257,289.12,257,289s11-.17,24.56-.14S306.11,289,306.11,289.12Z"/><path class="cls-6" d="M305.68,77.61l-9.18,0a2.29,2.29,0,0,0-2.24,2.32v1.66A2.28,2.28,0,0,1,292,83.86l-17.89-.08a2.28,2.28,0,0,1-2.22-2.34V79.78a2.26,2.26,0,0,0-2.21-2.33l-3.23,0-8,0a7.2,7.2,0,0,0-7.25,7.17l-.49,115.53a7.21,7.21,0,0,0,7.19,7.23l47.25.22a7.21,7.21,0,0,0,7.25-7.17l.49-115.53A7.21,7.21,0,0,0,305.68,77.61Z"/><path class="cls-4" d="M305.68,77.61h.25a6.5,6.5,0,0,1,.73.06,6.76,6.76,0,0,1,2.7.95,7.28,7.28,0,0,1,3,3.48A7.61,7.61,0,0,1,312.9,85c0,1.06,0,2.2,0,3.4,0,9.61-.09,23.5-.15,40.67s-.15,37.62-.24,60.32q0,4.26,0,8.62a16.19,16.19,0,0,1-.32,4.38,7.11,7.11,0,0,1-2.49,3.64,7.25,7.25,0,0,1-4.17,1.54c-1.51,0-3,0-4.53,0l-9.18-.05-18.85-.08-9.63,0-4.87,0a7.59,7.59,0,0,1-4.68-1.3,7.34,7.34,0,0,1-2.85-3.94,8,8,0,0,1-.29-2.43c0-.81,0-1.62,0-2.43,0-3.24,0-6.45,0-9.64q0-9.57.08-18.85c0-12.35.11-24.27.16-35.63s.1-22.14.14-32.24c0-5,.05-9.92.07-14.61a14.38,14.38,0,0,1,.22-3.47,7.06,7.06,0,0,1,1.57-3,7.42,7.42,0,0,1,2.7-1.95,7.87,7.87,0,0,1,3.2-.56l6.29,0,3,0h1.48a2.18,2.18,0,0,1,1.4.43,2.36,2.36,0,0,1,.85,1.17,4,4,0,0,1,.12,1.42,12.73,12.73,0,0,0,0,1.39,2.23,2.23,0,0,0,.56,1.2,2.16,2.16,0,0,0,1.13.67,8.24,8.24,0,0,0,1.32,0l2.6,0,9.5,0,4.19,0c.34,0,.67,0,1,0a2.12,2.12,0,0,0,.88-.32,2.28,2.28,0,0,0,1-1.46,12.71,12.71,0,0,0,.06-1.74,2.81,2.81,0,0,1,.33-1.6,2.3,2.3,0,0,1,1.16-1,3.73,3.73,0,0,1,1.43-.14l4.68,0,3.85,0h-8.53a3.77,3.77,0,0,0-1.41.14,2.19,2.19,0,0,0-1.13,1,2.77,2.77,0,0,0-.32,1.57,13.16,13.16,0,0,1-.06,1.76,2.35,2.35,0,0,1-1,1.5,2.26,2.26,0,0,1-.92.33c-.33,0-.65,0-1,0l-4.19,0-9.5,0H275a8.64,8.64,0,0,1-1.34-.06,2.23,2.23,0,0,1-1.18-.69,2.46,2.46,0,0,1-.59-1.25,13.33,13.33,0,0,1,0-1.41,4.06,4.06,0,0,0-.12-1.39,2.26,2.26,0,0,0-.81-1.12c-.78-.61-1.85-.35-2.82-.42h-3l-6.29,0a7.66,7.66,0,0,0-3.16.54A7.4,7.4,0,0,0,253,79.93a7.1,7.1,0,0,0-1.54,3,14.59,14.59,0,0,0-.22,3.45c0,4.68,0,9.56-.06,14.61,0,10.09-.08,20.88-.12,32.23s-.1,23.28-.15,35.63q0,9.27-.08,18.85c0,3.19,0,6.4,0,9.64,0,.81,0,1.62,0,2.43a7.72,7.72,0,0,0,.29,2.39,7.24,7.24,0,0,0,2.78,3.85,7.54,7.54,0,0,0,4.59,1.27l4.87,0,9.63,0,18.85.09,9.18,0c1.51,0,3,0,4.52,0a7.07,7.07,0,0,0,4.09-1.5,7.85,7.85,0,0,0,1.5-1.6,7.56,7.56,0,0,0,.93-2,16,16,0,0,0,.32-4.33q0-4.37,0-8.62c.11-22.7.2-43.15.28-60.32s.15-31.06.19-40.67c-.05-2.39.28-4.58-.5-6.31a7.23,7.23,0,0,0-3-3.48,6.86,6.86,0,0,0-2.68-1,7.11,7.11,0,0,0-.73-.07Z"/><path class="cls-4" d="M304.79,94.35c0,.12-10,.21-22.28.21s-22.29-.09-22.29-.21,10-.2,22.29-.2S304.79,94.24,304.79,94.35Z"/><rect class="cls-8" x="262.29" y="168.74" width="40.51" height="28.13"/><path class="cls-6" d="M221.46,105.87H207.71a3.42,3.42,0,0,0-3.34,3.49v2.49a3.41,3.41,0,0,1-3.34,3.49h-26.8a3.42,3.42,0,0,1-3.34-3.5v-2.49a3.42,3.42,0,0,0-3.34-3.49H150.68a10.82,10.82,0,0,0-10.83,10.82l0,173.55A10.83,10.83,0,0,0,150.63,301l70.79,0a10.82,10.82,0,0,0,10.82-10.82l0-173.56A10.82,10.82,0,0,0,221.46,105.87Z"/><path class="cls-4" d="M221.46,105.87h.37a7.45,7.45,0,0,1,1.1.08,10.85,10.85,0,0,1,6.53,3.41,10.93,10.93,0,0,1,2.06,3.23,11.37,11.37,0,0,1,.81,4.39v5.1c0,14.42,0,35.28,0,61s0,56.47,0,90.55V289.9a12,12,0,0,1-.42,3.31,10.7,10.7,0,0,1-1.38,3,11.67,11.67,0,0,1-2.25,2.51,11,11,0,0,1-6.25,2.42c-2.27.07-4.52,0-6.8,0H201.51l-28.29,0H151.45a11.35,11.35,0,0,1-7-1.95,11.07,11.07,0,0,1-4.29-5.92,12,12,0,0,1-.45-3.66V271.53q0-14.37,0-28.29c0-18.54,0-36.43,0-53.48s0-33.23,0-48.39q0-11.37,0-21.93v-2.62c0-.44,0-.88.07-1.32s.11-.87.22-1.29a11,11,0,0,1,2.27-4.58,11,11,0,0,1,8.83-3.91h16.19a3.5,3.5,0,0,1,2.13.59,3.6,3.6,0,0,1,1.32,1.74,5.61,5.61,0,0,1,.22,2.14v1.05a7,7,0,0,0,0,1,3.32,3.32,0,0,0,.8,1.81,3.19,3.19,0,0,0,1.66,1,4,4,0,0,0,1,.1h4.9l14.27,0h6.29c.5,0,1,0,1.48,0a3.22,3.22,0,0,0,1.32-.47,3.38,3.38,0,0,0,1.52-2.18,5.74,5.74,0,0,0,.08-1.31V110a6.65,6.65,0,0,1,.05-1.26,3.65,3.65,0,0,1,.41-1.16,3.36,3.36,0,0,1,1.73-1.52,5.32,5.32,0,0,1,2.15-.23h7l4.31,0,1.47,0H220l-4.31,0h-7a5.14,5.14,0,0,0-2.12.23,3.33,3.33,0,0,0-1.67,1.48,3.7,3.7,0,0,0-.39,1.13,7.27,7.27,0,0,0,0,1.24v1.3a5.56,5.56,0,0,1-.09,1.34,3.55,3.55,0,0,1-1.56,2.26,3.31,3.31,0,0,1-1.38.49c-.5,0-1,0-1.49,0H174.45a4.47,4.47,0,0,1-1-.1,3.35,3.35,0,0,1-1.74-1.09,3.53,3.53,0,0,1-.86-1.9,9.48,9.48,0,0,1,0-1.06v-1.05a5.3,5.3,0,0,0-.21-2.07,3.4,3.4,0,0,0-1.25-1.65,3.24,3.24,0,0,0-2-.55H151.12a11.14,11.14,0,0,0-4.72.89,11,11,0,0,0-3.93,2.94,10.83,10.83,0,0,0-2.23,4.5c-.11.41-.14.84-.21,1.26s-.06.85-.06,1.29v24.55c0,15.16,0,31.35,0,48.39v53.48q0,13.92,0,28.29v18.12a11.58,11.58,0,0,0,.44,3.57,10.76,10.76,0,0,0,4.17,5.76,11,11,0,0,0,6.87,1.89h21.77l28.29,0h13.78c2.27,0,4.55,0,6.78,0a10.69,10.69,0,0,0,6.08-2.36,11.53,11.53,0,0,0,2.2-2.43,10.59,10.59,0,0,0,1.34-3,11,11,0,0,0,.41-3.23V273.69c0-34.08,0-64.77.06-90.55s0-46.63.06-61V117a11.07,11.07,0,0,0-.79-4.36,10.69,10.69,0,0,0-2-3.21,10.38,10.38,0,0,0-2.44-2,10.24,10.24,0,0,0-4-1.42,6.74,6.74,0,0,0-1.1-.1Z"/><path class="cls-4" d="M223.66,124.55s-1.78.1-4,.12-4,0-4,0,1.78-.1,4-.12S223.66,124.51,223.66,124.55Z"/><path class="cls-4" d="M223.68,126.6s-1.79.1-4,.11-4,0-4,0,1.79-.1,4-.11S223.68,126.55,223.68,126.6Z"/><path class="cls-4" d="M223.7,128.64c0,.05-1.79.1-4,.12s-4,0-4,0,1.79-.1,4-.12S223.7,128.59,223.7,128.64Z"/><path class="cls-4" d="M147.65,130h.17l.46,0,1.71,0-.05.05c0-.38,0-.79,0-1.23,0-.23,0-.45,0-.72a.66.66,0,0,1,.58-.52c.27,0,.51,0,.81,0a.67.67,0,0,1,.56.66l0,1.81-.08-.08,2.15,0-.08.08c0-.87,0-1.76,0-2.68v-.68a.67.67,0,0,0-.3-.51l-.94-.93-.91-.9-.44-.43c-.15-.15-.27-.3-.44-.33a.59.59,0,0,0-.5.09c-.13.11-.27.27-.4.4l-.77.77c-.49.51-1,1-1.36,1.41a1.55,1.55,0,0,0-.11.8v.76c0,.46,0,.87,0,1.22s0,.57,0,.78a1.23,1.23,0,0,1,0,.28s0-.08,0-.26l0-.77q0-.53,0-1.23c0-.24,0-.5,0-.77s0-.28,0-.42a.89.89,0,0,1,.12-.45c.4-.49.87-.92,1.36-1.44l.77-.79c.13-.13.25-.27.41-.41a.74.74,0,0,1,.63-.12,1.2,1.2,0,0,1,.51.37l.44.43.91.89.95.93a3.2,3.2,0,0,1,.24.26.66.66,0,0,1,.11.36c0,.23,0,.46,0,.69,0,.92,0,1.81,0,2.68V130H154l-2.15,0h-.08v-.08c0-.63,0-1.23,0-1.81a.51.51,0,0,0-.43-.52c-.25,0-.54,0-.78,0a.53.53,0,0,0-.47.42c0,.21,0,.47,0,.68V130h-2.39Z"/><rect class="cls-8" x="152.07" y="240.71" width="16.52" height="16.52"/><path class="cls-8" d="M200.36,242.49c0,.07-5.53.14-12.34.14s-12.33-.07-12.33-.14,5.52-.14,12.33-.14S200.36,242.41,200.36,242.49Z"/><path class="cls-4" d="M220,247.55c0,.08-9.93.14-22.17.14s-22.17-.06-22.17-.14,9.92-.14,22.17-.14S220,247.47,220,247.55Z"/><path class="cls-4" d="M219.5,251.17c0,.07-9.8.14-21.9.14s-21.91-.07-21.91-.14,9.81-.15,21.91-.15S219.5,251.09,219.5,251.17Z"/><path class="cls-4" d="M201.56,254.61c0,.08-5.79.14-12.94.14s-12.93-.06-12.93-.14,5.79-.14,12.93-.14S201.56,254.54,201.56,254.61Z"/><g class="cls-10"><rect x="152.07" y="240.71" width="16.52" height="16.52"/></g><rect class="cls-8" x="152.07" y="267.59" width="16.52" height="16.52"/><path class="cls-8" d="M200.36,269.37c0,.07-5.53.14-12.34.14s-12.33-.07-12.33-.14,5.52-.14,12.33-.14S200.36,269.29,200.36,269.37Z"/><path class="cls-4" d="M220,274.43c0,.08-9.93.14-22.17.14s-22.17-.06-22.17-.14,9.92-.14,22.17-.14S220,274.35,220,274.43Z"/><path class="cls-4" d="M219.5,278.05c0,.07-9.8.14-21.9.14s-21.91-.07-21.91-.14,9.81-.15,21.91-.15S219.5,278,219.5,278.05Z"/><path class="cls-4" d="M201.56,281.49c0,.08-5.79.14-12.94.14s-12.93-.06-12.93-.14,5.79-.14,12.93-.14S201.56,281.42,201.56,281.49Z"/><g class="cls-10"><rect x="152.07" y="267.59" width="16.52" height="16.52"/></g><rect class="cls-8" x="167.57" y="147.19" width="38.24" height="50.87" transform="translate(13.02 358.34) rotate(-89.68)"/><polygon class="cls-8" points="160.48 191.6 178.38 167.93 189.31 182.87 196.82 174.96 211.35 191.88 160.48 191.6"/><path class="cls-8" d="M194.08,165.11a4,4,0,1,1-4-4A4,4,0,0,1,194.08,165.11Z"/><g class="cls-11"><polygon points="160.48 191.6 178.38 167.93 189.31 182.87 196.82 174.96 211.35 191.88 160.48 191.6"/></g><g class="cls-11"><path d="M194.08,165.11a4,4,0,1,1-4-4A4,4,0,0,1,194.08,165.11Z"/></g><path class="cls-4" d="M219,199.15c0,.11-14.77.2-33,.2s-33-.09-33-.2,14.77-.2,33-.2S219,199,219,199.15Z"/><path class="cls-4" d="M219,203.45c0,.11-14.77.2-33,.2s-33-.09-33-.2,14.77-.2,33-.2S219,203.34,219,203.45Z"/><path class="cls-8" d="M196.78,224H175.27a5.64,5.64,0,0,1-5.64-5.64h0a5.63,5.63,0,0,1,5.64-5.64h21.51a5.63,5.63,0,0,1,5.64,5.64h0A5.64,5.64,0,0,1,196.78,224Z"/><path class="cls-1" d="M231.35,229.64c0,.11-20.34.2-45.43.2s-45.43-.09-45.43-.2,20.34-.2,45.43-.2S231.35,229.53,231.35,229.64Z"/><path class="cls-8" d="M204.75,144.06c0,.11-8.38.2-18.72.2s-18.73-.09-18.73-.2,8.39-.21,18.73-.21S204.75,143.94,204.75,144.06Z"/><path class="cls-8" d="M208.49,218.4a1.23,1.23,0,1,1-1.22-1.23A1.22,1.22,0,0,1,208.49,218.4Z"/><path class="cls-8" d="M258.13,137.54l-.29,0-.89,0-3.4,0-12.69.06.13-.13c0,11.88,0,29.22,0,48.5,0,11.83-.06,22.92-.09,32.36v.17h-.17l-24.23-.07-6.8-.05-1.79,0-.46,0h-.15s0,0,.15,0h.46l1.79,0,6.8-.05,24.23-.07-.18.18c0-9.44,0-20.53,0-32.36.07-19.28.12-36.62.16-48.5v-.14h.14l12.69.06,3.4,0,.89,0A.94.94,0,0,1,258.13,137.54Z"/><circle class="cls-6" cx="282.54" cy="182.75" r="5.88"/><polygon class="cls-8" points="281.1 182.75 281.1 180.1 283.39 181.42 285.69 182.75 283.39 184.07 281.1 185.4 281.1 182.75"/><rect class="cls-5" x="266.77" y="96.07" width="30.19" height="40.16" transform="translate(164.14 397.36) rotate(-89.68)"/><polygon class="cls-4" points="261.18 131.13 275.31 112.45 283.93 124.24 289.86 117.99 301.34 131.36 261.18 131.13"/><path class="cls-4" d="M287.7,110.22a3.16,3.16,0,1,1-3.14-3.18A3.15,3.15,0,0,1,287.7,110.22Z"/><rect class="cls-5" x="266.38" y="137.12" width="31.09" height="2.08"/><path class="cls-4" d="M304.21,145.17c0,.12-10,.21-22.28.21s-22.29-.09-22.29-.21,10-.2,22.29-.2S304.21,145.06,304.21,145.17Z"/><path class="cls-4" d="M304.21,150.87c0,.11-10,.2-22.28.2s-22.29-.09-22.29-.2,10-.21,22.29-.21S304.21,150.75,304.21,150.87Z"/><path class="cls-4" d="M304.21,156.56c0,.11-10,.2-22.28.2s-22.29-.09-22.29-.2,10-.2,22.29-.2S304.21,156.45,304.21,156.56Z"/><path class="cls-4" d="M304.21,162.25c0,.12-10,.21-22.28.21s-22.29-.09-22.29-.21,10-.2,22.29-.2S304.21,162.14,304.21,162.25Z"/><path class="cls-8" d="M259.36,137.54a1.23,1.23,0,1,1-1.23-1.23A1.22,1.22,0,0,1,259.36,137.54Z"/><path class="cls-8" d="M283.73,200.69a1.19,1.19,0,1,1-1.19-1.05A1.12,1.12,0,0,1,283.73,200.69Z"/><path class="cls-8" d="M283.73,228.35a1.19,1.19,0,1,1-1.19-1A1.12,1.12,0,0,1,283.73,228.35Z"/><path class="cls-8" d="M282.55,228.35c-.12,0-.21-6.2-.21-13.83s.09-13.83.21-13.83.2,6.19.2,13.83S282.66,228.35,282.55,228.35Z"/><path class="cls-3" d="M185.92,134.34a.85.85,0,0,1,0-.21l0-.62c0-.56,0-1.36,0-2.39,0-2.11,0-5.13-.06-8.92,0-7.62,0-18.28-.07-30.54l.2.19H172.38l-39.75-.06-12-.06-3.27,0-.86,0a1.64,1.64,0,0,1-.29,0,.94.94,0,0,1,.29,0l.86,0,3.27,0,12-.06,39.75-.06h13.74v.2c0,12.26-.06,22.92-.08,30.54,0,3.79,0,6.81,0,8.92,0,1,0,1.83,0,2.39v.62A.85.85,0,0,1,185.92,134.34Z"/><path class="cls-3" d="M187.15,134.34a1.23,1.23,0,1,1-1.23-1.23A1.23,1.23,0,0,1,187.15,134.34Z"/><path class="cls-3" d="M117.39,91.66a1.23,1.23,0,1,1-1.23-1.23A1.23,1.23,0,0,1,117.39,91.66Z"/><path class="cls-12" d="M93.38,93.69l3.87,5s1.87,2.9.41,3.52c-1.29.54-2.12-1.08-2.12-1.08s-.82-3.7-2.42-2.79c-.23.12.16,2.75.38,4.08a1.9,1.9,0,0,0,.73,1.22l4.25,3.26a5.43,5.43,0,0,0,2.72,1.1l1.51.18,1.24,2.48,6.88-2.8-5.47-7.08-2.94-4.49a1.78,1.78,0,0,0-1.61-.39l-.68.18-.51-.51a1.17,1.17,0,0,0-1.15-.3l-.42.12L96.9,94.28c-.38-.38-3-2.82-3.49-2.61A1.37,1.37,0,0,0,93.38,93.69Z"/><path class="cls-13" d="M101.17,98.46a5.56,5.56,0,0,0-.4-.56,2.54,2.54,0,0,0-1.43-.79,7.16,7.16,0,0,1-1.14-1.26,2.78,2.78,0,0,1-.35-.61s.15.22.42.55A9.24,9.24,0,0,0,99.4,97l.45.13a3.13,3.13,0,0,1,.41.2,2.48,2.48,0,0,1,.58.51,1.93,1.93,0,0,1,.27.44A.94.94,0,0,1,101.17,98.46Z"/><path class="cls-13" d="M102,97.45a.76.76,0,0,0-.23-.27.87.87,0,0,0-.81-.14h0l0,0-.09-.09a7.75,7.75,0,0,1-.91-1.07,8.4,8.4,0,0,1,1,1l.09.09h-.06a.92.92,0,0,1,.9.19C102,97.28,102,97.45,102,97.45Z"/><polygon class="cls-8" points="94.1 313.07 91.67 335.31 103.64 336.87 106.13 314.58 94.1 313.07"/><path class="cls-4" d="M97.68,335.24c.1,0,.65-4.86,1.23-10.87s1-10.9.87-10.91-.65,4.86-1.23,10.87S97.58,335.23,97.68,335.24Z"/><polygon class="cls-4" points="91.84 333.78 103.82 335.29 103.64 336.87 91.67 335.31 91.84 333.78"/><path class="cls-4" d="M104.44,329.74a1.68,1.68,0,0,0-.26-.51,7.75,7.75,0,0,0-1-1.26,8.28,8.28,0,0,0-1.8-1.51,6.44,6.44,0,0,0-7.63.6,5.5,5.5,0,0,0-1,1.22,1.57,1.57,0,0,0-.25.52A12.07,12.07,0,0,1,94,327.26a6.4,6.4,0,0,1,4.69-1.38,7.38,7.38,0,0,1,4.38,2.27C104,329.07,104.38,329.78,104.44,329.74Z"/><g class="cls-10"><polygon points="105.42 320.92 105.15 323.37 93.15 321.76 93.35 319.92 105.42 320.92"/></g><polygon class="cls-8" points="76.86 314.54 77.81 336.9 89.88 336.63 88.97 314.22 76.86 314.54"/><path class="cls-4" d="M83.73,335.92c.11,0-.08-4.9-.41-10.93s-.69-10.93-.79-10.92S82.62,319,83,325,83.63,335.93,83.73,335.92Z"/><polygon class="cls-4" points="77.74 335.36 89.82 335.05 89.88 336.63 77.81 336.9 77.74 335.36"/><path class="cls-4" d="M89.59,329.47s-.09-.19-.33-.48a9.26,9.26,0,0,0-1.13-1.1,8,8,0,0,0-2-1.21,6.32,6.32,0,0,0-2.84-.52,6.39,6.39,0,0,0-4.61,2.26,5.61,5.61,0,0,0-.82,1.35,1.64,1.64,0,0,0-.17.56,13.48,13.48,0,0,1,1.19-1.74,6.43,6.43,0,0,1,4.43-2.07A7.39,7.39,0,0,1,88,328.1C89,328.87,89.54,329.51,89.59,329.47Z"/><g class="cls-10"><polygon points="89.23 320.6 89.33 323.06 77.23 323.28 77.15 321.43 89.23 320.6"/></g><path class="cls-4" d="M90.38,265.37l-.47-61.21H66.13s-1.88,15.19-1,21.32,7.23,40,7.23,40,2,44.94,3.06,56.49l14.85-1.34Z"/><path class="cls-4" d="M104.94,191.25a30.17,30.17,0,0,1,9.06,17c1.65,10.65-3.35,53.28-3.35,53.28l-4.21,59.1H91.76l.47-56.9-2.54-42.38L88,207.92Z"/><path class="cls-5" d="M91.91,260.64s0-.12-.06-.36-.06-.64-.1-1.06c-.07-1-.17-2.3-.28-3.89-.22-3.29-.48-7.83-.71-12.86s-.39-9.57-.45-12.87c0-1.64,0-3,0-3.9l0-1.06c0-.24,0-.37,0-.37a2.24,2.24,0,0,1,0,.37l0,1.06c0,1,.08,2.3.14,3.9.15,3.35.34,7.86.56,12.86s.44,9.5.59,12.85c.07,1.6.12,2.92.16,3.9,0,.42,0,.77,0,1.06A1.46,1.46,0,0,1,91.91,260.64Z"/><path class="cls-5" d="M109.86,264.1a20.15,20.15,0,0,1-2.15-.13,31.18,31.18,0,0,0-10.24.95,17.94,17.94,0,0,1-2.09.53,8.4,8.4,0,0,1,2-.8,24.93,24.93,0,0,1,10.35-1A8.6,8.6,0,0,1,109.86,264.1Z"/><path class="cls-5" d="M86.34,264.67c0,.07-.71-.15-1.85-.32a14.2,14.2,0,0,0-8.71,1.47c-1,.53-1.6,1-1.64.91a5.34,5.34,0,0,1,1.5-1.16A12.33,12.33,0,0,1,80,264a12.5,12.5,0,0,1,4.59.08A5.68,5.68,0,0,1,86.34,264.67Z"/><path class="cls-5" d="M86.49,265.44a15.33,15.33,0,0,1-4.37,1.63,14.93,14.93,0,0,1-4.63.61c0-.11,2.05-.38,4.53-1S86.45,265.33,86.49,265.44Z"/><path class="cls-5" d="M91.14,223.69a3.36,3.36,0,0,1-.55.62c-.18.19-.42.41-.7.66s-.6.54-1,.83a19.37,19.37,0,0,1-2.8,1.87,12.79,12.79,0,0,1-3.92,1.46h0l-.71.17a18.58,18.58,0,0,1-8,0,16.47,16.47,0,0,1-2.32-.7,3.36,3.36,0,0,1-.8-.38c0-.07,1.19.42,3.18.8a19.85,19.85,0,0,0,7.83-.08l.7-.17h0a13.2,13.2,0,0,0,3.79-1.38,21.43,21.43,0,0,0,2.8-1.77C90.26,224.46,91.09,223.64,91.14,223.69Z"/><path class="cls-5" d="M96.14,208.6a4.64,4.64,0,0,1,.16.67l.35,1.85c.3,1.61.72,3.84,1.21,6.52l-.1-.13,6.38,2.42-.22.06,3.22-4.18.77-1,0,.15c-.36-3.17-.69-6.14-1-8.74l.27.13a16.72,16.72,0,0,1-4.4,1.42c-1.35.27-2.53.44-3.51.57s-1.75.2-2.28.24a3.68,3.68,0,0,1-.82,0,6.92,6.92,0,0,1,.81-.13l2.26-.34c1-.15,2.15-.35,3.48-.65A16.87,16.87,0,0,0,107,206l.24-.12,0,.26c.31,2.6.66,5.57,1,8.73V215l0,.07-.77,1-3.23,4.17-.09.12-.14-.06-6.36-2.47-.09,0v-.09c-.44-2.73-.8-5-1.06-6.66l-.27-1.81C96.16,208.81,96.13,208.59,96.14,208.6Z"/><path class="cls-5" d="M83.07,210.73a3.07,3.07,0,0,1,0,.62c0,.47,0,1.08-.07,1.83-.07,1.67-.18,4-.31,6.73v.1l-.08,0-6.06,3.16-.13.06-.1-.1-3.66-3.79-.89-.91-.05-.06v-.09c0-3.18.05-6.17.07-8.79v-.26l.25.1a16.94,16.94,0,0,0,4.42,1c1.35.15,2.54.22,3.53.26l2.28.09a3.93,3.93,0,0,1,.81,0,5.74,5.74,0,0,1-.81.06c-.53,0-1.3,0-2.29,0s-2.18-.06-3.55-.18a16.62,16.62,0,0,1-4.53-.93l.25-.16c0,2.62,0,5.61,0,8.8l0-.14.88.91,3.65,3.8-.23,0,6.08-3.11-.08.14c.19-2.71.36-5,.48-6.61.07-.77.12-1.39.16-1.87S83.06,210.74,83.07,210.73Z"/><path class="cls-5" d="M90,221.16a7.11,7.11,0,0,1-.46-1.72,31.54,31.54,0,0,1-.52-4.25,33.11,33.11,0,0,1,0-4.28,7,7,0,0,1,.26-1.76c.12,0-.08,2.71.12,6S90.1,221.13,90,221.16Z"/><path class="cls-5" d="M109.86,224.83s-.2.13-.59.29a14.42,14.42,0,0,1-1.68.57,21.56,21.56,0,0,1-5.82.79,21.84,21.84,0,0,1-5.82-.79,15.09,15.09,0,0,1-1.69-.58,2.21,2.21,0,0,1-.58-.28c0-.07.89.24,2.34.58a25.64,25.64,0,0,0,5.75.67,25,25,0,0,0,5.74-.67C109,225.08,109.84,224.77,109.86,224.83Z"/><path class="cls-8" d="M72.82,127.92s-10.7,5.85-13.84,7.22l4.28,20.46L70,180.13,65.47,206s15.87,2.81,23.66,1.8c10.64-1.38,24.22-5.3,24.22-5.3L102.78,171l2.7-21.78-4.54-18.36-11-1.31Z"/><g class="cls-10"><path d="M67.79,148.37c.73,1.44,2.37,2.13,3.92,2.56s3.22.73,4.43,1.79c2.16,1.88,2.1,5.4,4.09,7.46a5,5,0,0,0,5.07,1.22c1.1-.38,2.07-1.15,3.22-1.26.81-.07,1.61.18,2.41.12,2.26-.16,3.58-2.55,4.49-4.63s1.89-4.43,1.66-6.77c-.35-3.5-3.26-6.32-3.7-9.8-.17-1.3,0-2.61-.12-3.9a3.89,3.89,0,0,0-1.9-3.22"/></g><path class="cls-8" d="M110.44,125.43l-8.28-16.58,6.65-4.27s8.32,8.59,9.9,10.25c0,0,9.57,8.83,7.08,13.09a28.13,28.13,0,0,1-5.5,6.42Z"/><path class="cls-8" d="M59,135.14c-.15.44-22.28,31-23.46,34.3-.07.18-.13.36-.19.55a12.66,12.66,0,0,0,2.78,12.16l18.25,20.36,8-9.22L51.64,170.93l12.12-13.39Z"/><path class="cls-12" d="M72.85,194.66a7,7,0,0,0-2.68,1.55,1,1,0,0,1-.7.22h0a1,1,0,0,1-.9-.72l-.8-2.66a2.5,2.5,0,0,0-1.92,1.21l-.88,1.5-1.51-1.46-7.1,8.11s2.79,3,4.57,3.06,10.1-6.8,10.1-6.8l2.21-1.94S75,194.52,72.85,194.66Z"/><path class="cls-8" d="M95.85,130.21l6.28.29,8.94-6.85,12.66,6.95s-5.69,6.09-11.06,12.34c-4.34,5.05-7.43,8.2-7.43,8.2Z"/><path class="cls-4" d="M101.74,184.11a8.3,8.3,0,0,1-.89,1c-.6.6-1.49,1.43-2.63,2.42a67.86,67.86,0,0,1-20.16,12c-1.41.54-2.57.93-3.38,1.17a9.71,9.71,0,0,1-1.26.34,7.37,7.37,0,0,1,1.21-.49c.8-.28,1.93-.72,3.33-1.28A80.11,80.11,0,0,0,88.46,194,78.77,78.77,0,0,0,98,187.27c1.16-1,2.08-1.76,2.71-2.32A8.44,8.44,0,0,1,101.74,184.11Z"/><path class="cls-4" d="M79.77,180.49c.09.06-2.14,3.68-5,8.08s-5.23,7.92-5.32,7.86,2.13-3.68,5-8.08S79.67,180.43,79.77,180.49Z"/><path class="cls-4" d="M104.49,149.46a21.43,21.43,0,0,1-.11-2.35c0-1.44-.17-3.44-.37-5.65s-.47-4.18-.74-5.6-.55-2.27-.49-2.3a7.5,7.5,0,0,1,.77,2.24,41.34,41.34,0,0,1,.86,5.63c.2,2.21.28,4.22.26,5.68A10.24,10.24,0,0,1,104.49,149.46Z"/><path class="cls-4" d="M119.73,124.29a12.64,12.64,0,0,1-1.46-.6,10.68,10.68,0,0,0-3.64-.8,6.7,6.7,0,0,0-3.57.84c-.82.49-1.22,1-1.27.91a3,3,0,0,1,1.12-1.15,6.2,6.2,0,0,1,3.73-1,9.08,9.08,0,0,1,3.74.94A4.48,4.48,0,0,1,119.73,124.29Z"/><path class="cls-4" d="M115.69,120.75a9.19,9.19,0,0,0-3.48,1.07,10,10,0,0,0-2.42,2.73,2.38,2.38,0,0,1,.37-1.06,5.55,5.55,0,0,1,1.82-2,5.49,5.49,0,0,1,2.59-.84A2.45,2.45,0,0,1,115.69,120.75Z"/><g class="cls-10"><path d="M80.46,176.77c-.11-.72-.59-1.5-1.32-1.54s-1.36.87-1.69,1.65l-7.71,18.35-.27,1.2c3.11-5,6.2-9.69,9.32-14.63C79.75,180.27,80.76,178.56,80.46,176.77Z"/></g><g class="cls-10"><path d="M109.79,124.32c1-1.4,1.79-3,3.45-3.35a6.77,6.77,0,0,1,4.91.87c.31.2.65.54.54.89a.86.86,0,0,1-.66.46,12.16,12.16,0,0,1-4.48-.26,4,4,0,0,0-3.65,1.58"/></g><path class="cls-4" d="M62.47,154.28a10.49,10.49,0,0,1-.92-2.13,47.51,47.51,0,0,1-1.61-5.36,46.78,46.78,0,0,1-1-5.5,11.46,11.46,0,0,1-.14-2.32,16.06,16.06,0,0,1,.42,2.28c.24,1.4.6,3.34,1.1,5.45s1.06,4,1.49,5.36A18.89,18.89,0,0,1,62.47,154.28Z"/><path class="cls-12" d="M74.06,134.11l15.7.23-1.47-14.2s1.16.59,1.39-5.23.77-15.68.77-15.68h0a20.2,20.2,0,0,0-20.37,2l-.88.64Z"/><path class="cls-12" d="M70.82,109.07c-.09,0-4-1.29-3.94,2.69s4,3.14,4,3S70.82,109.07,70.82,109.07Z"/><path class="cls-12" d="M89.52,108.75c.1,0,3.67-.9,3.43,3.07s-4.17,2.92-4.17,2.8S89.52,108.75,89.52,108.75Z"/><path class="cls-4" d="M80.19,92.26s-5.42-.2-7.36.79c-3.22,1.65-5.72,6.23-5.77,11.9s2.52,13.35,6.68,17.15,7.45,4.49,7.45,4.49,8.8-4.8,9.79-11.82,1.65-13.79-1.1-17.2A16.11,16.11,0,0,0,80.19,92.26Z"/><path class="cls-4" d="M67.79,108.6c-.31-3.6-.62-7.32.51-10.75s4.08-6.54,7.7-6.67a26.8,26.8,0,0,0,3.47,0,14.6,14.6,0,0,0,2.81-1,7.29,7.29,0,0,1,5-.31,4.38,4.38,0,0,1,3,3.76,6.63,6.63,0,0,0,.08,2.09c.26.68.9,1.11,1.35,1.68a4.43,4.43,0,0,1,.79,3.23,13.13,13.13,0,0,1-.91,3.28c-1,2.64-2,5.28-3,7.91"/><path class="cls-4" d="M76.87,110.62a7.17,7.17,0,0,1,10.26,5.67c.25,2.35.26,2.73,1.78,4.54.94,1.12,1.84,1,2.94,2a4.4,4.4,0,0,1,1,5.17c2.85-.14,5.51-.32,6.48,2.36-4.25-.88-8.51,3.09-12.76,2.22a9.33,9.33,0,0,1-3.83-1.41,9.34,9.34,0,0,1-2.58-3.9l-3.42-7.77A13.23,13.23,0,0,1,75.24,114c0-1.91,1.13-3.94,3-4.42"/><path class="cls-8" d="M75.15,113.22a6,6,0,0,1,2.07-6.63,6.09,6.09,0,0,1,7,.28,5.79,5.79,0,0,1,2.38,4.93,3.77,3.77,0,0,1-3.5,3.49"/><path class="cls-4" d="M84.48,109.36a6.34,6.34,0,0,0-8.27.42c-2,2-2.23,6.21-1.62,9,.67,3,2.51,5.94,1.9,9-.37,1.84-1.64,3.71-.91,5.45.6,1.4,2.26,2,3.16,3.24,1.32,1.81.67,4.35-.22,6.4s-2,4.28-1.37,6.43c.49,1.67,1.89,2.87,3,4.2s2,3.19,1.27,4.76a4.44,4.44,0,0,0,7-4.47,5.27,5.27,0,0,1,1.49,3.41,7.15,7.15,0,0,0,5.41-11c-1-1.51-2.51-2.73-2.84-4.48-.39-2.09,1.13-4.14.93-6.26-.17-1.9-1.67-3.4-3.21-4.53S87,128.81,86,127.18c-1.61-2.64-.86-6-.24-9s.92-6.59-1.25-8.79"/><path class="cls-4" d="M75.31,111.21c-2.15,1.45-2.29,4.53-2,7.11s.72,5.47-.87,7.52c-1.06,1.38-2.93,2.18-3.48,3.84-.66,2,1,4,1.19,6.18a7.86,7.86,0,0,1-1.25,4.37,17.33,17.33,0,0,0-2,4.16A4.22,4.22,0,0,0,68,148.63a5.54,5.54,0,0,0,2.7,1,33.57,33.57,0,0,0,10.35,0c1-4.21,2.06-8.47,2-12.8,0-8.6-4.07-16.81-4.17-25.41"/><path class="cls-5" d="M81.34,155.35A2.51,2.51,0,0,1,81,155l-1-1.16a49.93,49.93,0,0,1-3.38-4.38A13.25,13.25,0,0,1,75,146a6.92,6.92,0,0,1,.09-4.4,28.49,28.49,0,0,1,2.19-4.34,8.33,8.33,0,0,0,1.36-4.8c-.15-1.72-1.31-3.14-1.82-4.79a4.59,4.59,0,0,1-.23-1.27,3.69,3.69,0,0,1,.2-1.28,6.34,6.34,0,0,1,1.35-2,12,12,0,0,0,1.38-1.73,4,4,0,0,0,.56-1.94,10.94,10.94,0,0,0-.69-3.67,13.09,13.09,0,0,1-.66-3.1,4.77,4.77,0,0,1,.49-2.35,3.13,3.13,0,0,1,1-1.16,1.9,1.9,0,0,1,.47-.24,3.4,3.4,0,0,0-1.3,1.47,4.63,4.63,0,0,0-.4,2.26,12,12,0,0,0,.71,3,11.13,11.13,0,0,1,.74,3.77,4.26,4.26,0,0,1-.59,2.11,11.45,11.45,0,0,1-1.4,1.8,6.16,6.16,0,0,0-1.27,1.89,3.6,3.6,0,0,0-.17,1.13,4.37,4.37,0,0,0,.21,1.17c.48,1.55,1.67,3,1.86,4.87a6.29,6.29,0,0,1-.34,2.67,15.88,15.88,0,0,1-1.08,2.36,28.83,28.83,0,0,0-2.19,4.27,6.56,6.56,0,0,0-.11,4.19,12.84,12.84,0,0,0,1.58,3.4c1.25,1.95,2.48,3.39,3.26,4.43.4.52.7.93.9,1.21A2.65,2.65,0,0,1,81.34,155.35Z"/><path class="cls-5" d="M72.88,125.43a12.69,12.69,0,0,0,.83-2.91,19.61,19.61,0,0,0,.13-3.28c0-1.24-.12-2.62,0-4.08a9.48,9.48,0,0,1,1-4,6,6,0,0,1,2.36-2.4,4.09,4.09,0,0,1,2.2-.55,2.47,2.47,0,0,1,.61.1c.13,0,.2.06.2.08s-.3,0-.81,0a4.31,4.31,0,0,0-2.06.64,5.89,5.89,0,0,0-2.18,2.33,9.56,9.56,0,0,0-.92,3.84c-.08,1.42,0,2.79,0,4a17.76,17.76,0,0,1-.21,3.34,8,8,0,0,1-.68,2.15A2.29,2.29,0,0,1,72.88,125.43Z"/><path class="cls-5" d="M95.71,153.23a3.61,3.61,0,0,1,.05-.5,7.37,7.37,0,0,0,0-1.41,17.88,17.88,0,0,0-1.23-5.06c-.44-1-1.14-2-1.66-3.23a7.92,7.92,0,0,1-.6-2,7.07,7.07,0,0,1,0-2.2c.11-.73.28-1.47.37-2.22a7.28,7.28,0,0,0,0-2.28,7.67,7.67,0,0,0-2.25-4.17c-1.18-1.16-2.83-1.68-4-2.83a7.47,7.47,0,0,1-2.11-4.15,15.37,15.37,0,0,1-.14-4.2c.11-1.31.26-2.51.33-3.62a15.16,15.16,0,0,0,0-3,4,4,0,0,0-.83-2,2.67,2.67,0,0,0-1.59-1,1.27,1.27,0,0,1,.5.06,2.68,2.68,0,0,1,1.21.79,4.18,4.18,0,0,1,.93,2.09,14.69,14.69,0,0,1,.1,3c-.06,1.12-.2,2.33-.28,3.63a15.06,15.06,0,0,0,.17,4.1,7.13,7.13,0,0,0,2,3.93c1.12,1.07,2.78,1.6,4.05,2.82a8,8,0,0,1,2.36,4.4,7.75,7.75,0,0,1,0,2.4c-.11.78-.28,1.51-.39,2.23a6.64,6.64,0,0,0,0,2.08,7.58,7.58,0,0,0,.56,1.9c.49,1.19,1.17,2.2,1.62,3.25a17.2,17.2,0,0,1,1.12,5.16,6.4,6.4,0,0,1-.07,1.43,2.21,2.21,0,0,1-.09.37A.64.64,0,0,1,95.71,153.23Z"/><path class="cls-5" d="M92.63,131.3a7.19,7.19,0,0,0,.34-1,5.28,5.28,0,0,0-.16-2.73,5.4,5.4,0,0,0-2.68-2.92A5.53,5.53,0,0,1,88,123.3a11.58,11.58,0,0,1-1.33-2.36,13.19,13.19,0,0,1-.63-5.13,11.42,11.42,0,0,0-.49-4.08A5,5,0,0,0,84,109.5a9.32,9.32,0,0,0-.87-.55.85.85,0,0,1,.27.06,3.88,3.88,0,0,1,.69.36,4.88,4.88,0,0,1,1.74,2.26,11.49,11.49,0,0,1,.6,4.18,13.09,13.09,0,0,0,.63,5,11.18,11.18,0,0,0,1.25,2.27,4.23,4.23,0,0,0,.92.77c.33.21.7.34,1.06.54a5.56,5.56,0,0,1,2.78,3.17,5.09,5.09,0,0,1,0,2.85,3.26,3.26,0,0,1-.32.71C92.7,131.24,92.64,131.31,92.63,131.3Z"/><path class="cls-5" d="M74.06,110.3a4.89,4.89,0,0,1-1.59-1,10.77,10.77,0,0,1-4-7.83,5.11,5.11,0,0,1,.16-1.86c.08,0,0,.71.12,1.83a11.94,11.94,0,0,0,3.89,7.64C73.49,109.87,74.1,110.24,74.06,110.3Z"/><path class="cls-5" d="M73.34,111.36A8,8,0,0,1,70.61,110a7.89,7.89,0,0,1-2.28-2.07,22.85,22.85,0,0,1,2.51,1.73A23.62,23.62,0,0,1,73.34,111.36Z"/><path class="cls-5" d="M90.33,101.18a9.84,9.84,0,0,1-1.4,4.59,9.63,9.63,0,0,1-3.14,3.62,28.14,28.14,0,0,0,2.79-3.82A31.07,31.07,0,0,0,90.33,101.18Z"/><path class="cls-5" d="M91.59,104.26A10.93,10.93,0,0,1,90.4,108a11.15,11.15,0,0,1-2.09,3.32c-.1-.07.83-1.55,1.73-3.49S91.48,104.23,91.59,104.26Z"/><path class="cls-5" d="M89.76,94.21A13.52,13.52,0,0,1,89,92.73a4.92,4.92,0,0,0-1-1.37,2.74,2.74,0,0,0-1.89-.71,5.17,5.17,0,0,0-3.38,1.66,8.09,8.09,0,0,1-1.2,1.14,5.39,5.39,0,0,1,1-1.34,6.63,6.63,0,0,1,1.4-1.19,4.23,4.23,0,0,1,2.18-.68,3,3,0,0,1,2.13.84,4.58,4.58,0,0,1,1.06,1.52A4.52,4.52,0,0,1,89.76,94.21Z"/><path class="cls-5" d="M88.2,154.83a2,2,0,0,1-.37-.32c-.23-.22-.57-.55-1-1a12.65,12.65,0,0,1-1.35-1.76,6.12,6.12,0,0,1-1-2.78,4.75,4.75,0,0,1,.23-1.73,9,9,0,0,1,.8-1.69A8,8,0,0,0,87,141.89a7.69,7.69,0,0,0-1.22-4.14C85,136.43,84,135.2,83,133.81a10.89,10.89,0,0,1-1.84-4.5,17.64,17.64,0,0,1-.08-4.52c.29-2.87.85-5.38.94-7.54a14.12,14.12,0,0,0-.49-5c-.37-1.14-.73-1.72-.69-1.74a4.17,4.17,0,0,1,.27.41,8.86,8.86,0,0,1,.57,1.28,13.77,13.77,0,0,1,.63,5.1c-.06,2.18-.59,4.72-.86,7.55a17.86,17.86,0,0,0,.1,4.43,10.45,10.45,0,0,0,1.79,4.34c.91,1.36,2,2.59,2.76,4a8.1,8.1,0,0,1,1.24,4.36,8.19,8.19,0,0,1-1.53,3.81,8.34,8.34,0,0,0-.79,1.62,4.35,4.35,0,0,0-.24,1.61,6,6,0,0,0,.88,2.69A14.42,14.42,0,0,0,87,153.41c.39.46.71.8.92,1A2.45,2.45,0,0,1,88.2,154.83Z"/><path class="cls-4" d="M351.69,336.87c0,.11-78.17.2-174.59.2S2.5,337,2.5,336.87s78.16-.21,174.6-.21S351.69,336.75,351.69,336.87Z"/></g></svg>