<svg xmlns="http://www.w3.org/2000/svg" viewBox="0 0 360 360"><defs><style>.cls-1{fill:#f0f0f0;}.cls-2{fill:#e1e1e1;}.cls-3{fill:#1a2e35;}.cls-4{fill:#00dfdf;}.cls-5{fill:#d15b66;}.cls-6{fill:#375a64;}.cls-7{fill:#054641;}.cls-8{fill:#fafafa;}.cls-9{fill:#ffbf9d;}.cls-10{fill:#ff9a6c;}.cls-11{fill:#2f2e41;}</style></defs><title>process-illustration</title><g id="Layer_7" data-name="Layer 7"><circle class="cls-1" cx="42.9" cy="54.36" r="18.58"/><path class="cls-2" d="M51.44,54.93a14.88,14.88,0,0,1-2.46.14c-1.53,0-3.67.07-6.08.07h-.21V53.73c0-2.7,0-5.13.06-6.9A20.87,20.87,0,0,1,42.9,44a17.48,17.48,0,0,1,.15,2.85c0,1.77.07,4.2.07,6.9,0,.41,0,.82,0,1.2l-.21-.21c2.41,0,4.55,0,6.08.07A16.4,16.4,0,0,1,51.44,54.93Z"/><path class="cls-2" d="M43,38.83c.12,0,.21.7.21,1.56S43.08,42,43,42s-.21-.7-.21-1.56S42.84,38.83,43,38.83Z"/><path class="cls-2" d="M51.43,41.34c.08.08-.34.63-.94,1.24s-1.16,1-1.24.93.34-.63.94-1.23S51.34,41.26,51.43,41.34Z"/><path class="cls-2" d="M56.38,46.75c0,.1-.52.49-1.24.93s-1.32.76-1.39.66.44-.58,1.17-1S56.33,46.64,56.38,46.75Z"/><path class="cls-2" d="M59.28,54.77a5.48,5.48,0,0,1-2.13.21A5.48,5.48,0,0,1,55,54.77a5.48,5.48,0,0,1,2.13-.21A5.48,5.48,0,0,1,59.28,54.77Z"/><path class="cls-2" d="M29.77,54.49a5.12,5.12,0,0,1-2,.21,5.08,5.08,0,0,1-2-.21,4.77,4.77,0,0,1,2-.22A4.81,4.81,0,0,1,29.77,54.49Z"/><path class="cls-2" d="M31.85,60.46c.08.09-.57.74-1.46,1.45A5.17,5.17,0,0,1,28.66,63c-.07-.09.59-.74,1.47-1.45A5.08,5.08,0,0,1,31.85,60.46Z"/><path class="cls-2" d="M37,65.08a6.31,6.31,0,0,1-1,1.84c-.59,1-1.07,1.76-1.18,1.71a4.55,4.55,0,0,1,.81-1.93C36.28,65.71,36.91,65,37,65.08Z"/><path class="cls-2" d="M43,71a5.48,5.48,0,0,1-.21-2.13A5.52,5.52,0,0,1,43,66.78a5.52,5.52,0,0,1,.21,2.13A5.48,5.48,0,0,1,43,71Z"/><path class="cls-2" d="M52.14,68.2a4.14,4.14,0,0,1-1.82-1.13c-.9-.78-1.46-1.57-1.37-1.64s.78.57,1.65,1.32S52.2,68.1,52.14,68.2Z"/><path class="cls-2" d="M56.44,63.57c-.08.08-.74-.45-1.47-1.18S53.71,61,53.79,60.92s.74.44,1.48,1.17S56.52,63.48,56.44,63.57Z"/><path class="cls-2" d="M31.66,48.76c-.09.09-.67-.37-1.31-1s-1.09-1.22-1-1.3.67.36,1.31,1S31.74,48.68,31.66,48.76Z"/><path class="cls-2" d="M37,43.17c-.08.08-.66-.36-1.29-1s-1.07-1.2-1-1.28.65.36,1.28,1S37.05,43.08,37,43.17Z"/><path class="cls-1" d="M81.59,339.27c11.17-6.51,14.69-20,15.28-32.35.1-2.06.5-4.21-.33-6.09s-3-3.3-4.92-2.59c-1.58.59-2.39,2.31-3.37,3.71a12,12,0,0,1-5.19,4.21,4.59,4.59,0,0,1-4.25,0c-1.69-1.12-1.7-3.58-1.52-5.63q.49-5.7,1-11.42a19,19,0,0,0-.12-6.12,6.35,6.35,0,0,0-3.63-4.61c-1.9-.7-4.4.22-5,2.19a19.16,19.16,0,0,0-.27,2.54,2.17,2.17,0,0,1-1.42,1.92,2.49,2.49,0,0,1-2.17-1.13,27.16,27.16,0,0,1-4.27-7.76,38.44,38.44,0,0,0-3.93-8,11.13,11.13,0,0,0-7.14-4.81c-2.92-.41-6.18,1.15-7.16,4s.46,5.88,2.1,8.36a45.6,45.6,0,0,0,8.76,9.83,3.75,3.75,0,0,1,1.44,1.84c.34,1.4-1.07,2.65-2.45,3-1.56.39-3.2.09-4.81.15s-3.39.62-4.12,2.07c-1,2,.56,4.36,2.16,5.93a39.13,39.13,0,0,0,11,7.63,13.07,13.07,0,0,1,4.12,2.44c1.13,1.15-1.06,4.74-1.91,6.12s0,0-1.55-.42a27.91,27.91,0,0,1-4.34-2.09c-2.73-1.29-6.37-1.39-8.37.89a6.47,6.47,0,0,0-1.15,5.66A15,15,0,0,0,46.8,324,39.39,39.39,0,0,0,62.61,337.2c6.33,2.8,12.31,3.9,19,2.07"/><path class="cls-2" d="M81,348.41a89.85,89.85,0,0,0-2-17.12A184.26,184.26,0,0,0,73.4,311q-.89-2.66-1.76-5.25c-.58-1.72-1.15-3.42-1.82-5.06a89.68,89.68,0,0,0-4.36-9.17c-1.53-2.85-3.08-5.5-4.55-8s-2.9-4.74-4.28-6.75a73.64,73.64,0,0,0-7.23-9c-.93-1-1.68-1.74-2.2-2.24l-.59-.56q-.2-.19-.21-.18l.19.21.56.59c.5.52,1.23,1.28,2.14,2.29a75.6,75.6,0,0,1,7.12,9.06c1.36,2,2.77,4.29,4.23,6.76s3,5.13,4.52,8a93.54,93.54,0,0,1,4.32,9.15c.66,1.63,1.23,3.32,1.81,5.05s1.16,3.47,1.75,5.24a189.68,189.68,0,0,1,5.67,20.26,91.62,91.62,0,0,1,2,17.05"/><path class="cls-2" d="M69.72,300.65a4.8,4.8,0,0,0,.27-.86c.15-.55.35-1.37.58-2.37.45-2,1-4.81,1.56-7.9s1.16-5.87,1.64-7.87c.24-1,.44-1.81.59-2.36a5.19,5.19,0,0,0,.19-.88,3.75,3.75,0,0,0-.33.84c-.19.54-.43,1.34-.71,2.33-.55,2-1.17,4.78-1.75,7.87s-1.07,5.81-1.46,7.91l-.45,2.4A3.57,3.57,0,0,0,69.72,300.65Z"/><path class="cls-2" d="M43.85,293.58a5.14,5.14,0,0,0,1,.21c.66.12,1.63.28,2.82.52,2.39.45,5.66,1.2,9.24,2.18s6.77,2,9.06,2.84c1.14.4,2.07.74,2.7,1a6.44,6.44,0,0,0,1,.34,5.61,5.61,0,0,0-1-.48c-.62-.28-1.53-.66-2.67-1.1-2.28-.88-5.47-1.95-9-2.95A94.12,94.12,0,0,0,47.76,294c-1.2-.2-2.18-.33-2.86-.4A5.51,5.51,0,0,0,43.85,293.58Z"/><path class="cls-2" d="M78.76,330.78s.09-.1.21-.3l.53-.92c.45-.79,1.08-2,1.84-3.41,1.51-2.91,3.48-7,5.59-11.52s4-8.63,5.48-11.56l1.73-3.47.47-.94a1.54,1.54,0,0,0,.14-.35,2,2,0,0,0-.21.31l-.53.91c-.45.8-1.08,2-1.83,3.42-1.52,2.9-3.48,7-5.59,11.52s-4,8.62-5.49,11.55l-1.73,3.47-.47.95A1.89,1.89,0,0,0,78.76,330.78Z"/><path class="cls-2" d="M44.78,316.66s.11.07.33.17l1,.43,3.64,1.52c3.07,1.28,7.29,3.1,12,5.12s8.91,3.8,12,5c1.55.61,2.8,1.09,3.68,1.41l1,.35a1.53,1.53,0,0,0,.36.1,1.37,1.37,0,0,0-.33-.17l-1-.42-3.63-1.52c-3.08-1.28-7.3-3.1-12-5.12s-8.9-3.8-12-5c-1.55-.61-2.81-1.1-3.69-1.41l-1-.36A2.29,2.29,0,0,0,44.78,316.66Z"/><path class="cls-3" d="M327.59,348.08c0,.12-66.86.22-149.32.22s-149.33-.1-149.33-.22,66.85-.21,149.33-.21S327.59,348,327.59,348.08Z"/><path class="cls-3" d="M120.44,193.93c0,.12-5.3.21-11.85.21s-11.86-.09-11.86-.21,5.31-.21,11.86-.21S120.44,193.81,120.44,193.93Z"/><path class="cls-3" d="M120,197c0,.12-5.21.21-11.64.21s-11.64-.09-11.64-.21,5.21-.21,11.64-.21S120,196.87,120,197Z"/><path class="cls-3" d="M120,200c0,.12-5.21.22-11.64.22s-11.64-.1-11.64-.22,5.21-.21,11.64-.21S120,199.92,120,200Z"/><path class="cls-3" d="M120,203.09c0,.11-5.21.21-11.64.21s-11.64-.1-11.64-.21,5.21-.22,11.64-.22S120,203,120,203.09Z"/><path class="cls-3" d="M120,206.14c0,.11-5.21.21-11.64.21s-11.64-.1-11.64-.21,5.21-.21,11.64-.21S120,206,120,206.14Z"/><path class="cls-3" d="M108.09,209.19a38,38,0,0,1-5.68.21,37.9,37.9,0,0,1-5.68-.21,37.9,37.9,0,0,1,5.68-.21A38,38,0,0,1,108.09,209.19Z"/><path class="cls-4" d="M114.72,190.59c0,.12-4,.22-9,.22s-9-.1-9-.22,4-.21,9-.21S114.72,190.48,114.72,190.59Z"/><path class="cls-3" d="M126.73,216.8s0-.23,0-.65,0-1.06,0-1.85c0-1.63,0-4,0-7,0-6-.06-14.54-.1-24.82l.19.19-37.48,0,.21-.21h0v2.31c0,.78,0,1.55,0,2.32v13.41c0,5.75,0,11.2,0,16.23l-.19-.19,27.09.09,7.65.05,2,0,.53,0h-.49l-2,0-7.61,0L89.24,217h-.18v-.18c0-5,0-10.48,0-16.23,0-2.88,0-5.83,0-8.85v-9.19h0l.22-.22,37.48,0h.18v.18c0,10.32-.07,18.91-.1,24.93,0,3,0,5.32,0,6.94,0,.77,0,1.38,0,1.81S126.73,216.8,126.73,216.8Z"/><path class="cls-5" d="M103.54,89.79l18-.11a23,23,0,0,0-5.79-14.87A21.34,21.34,0,0,0,97.1,67.65a25,25,0,0,0-2.62.42h-.06l4.88,21.7Z"/><path class="cls-6" d="M109.08,112.17a21.39,21.39,0,0,0,12.27-17.52l.06-.69,0-.44c0-.43,0-.86,0-1.31v-.06h0V92.1h0l-18,.11-4.23,0L94.49,114v0h0a21.4,21.4,0,0,0,4.67.49A23.5,23.5,0,0,0,109.08,112.17Z"/><path class="cls-3" d="M97.05,91,92.17,69.25a22.25,22.25,0,0,0,.14,43.45L97.05,91"/><rect class="cls-4" x="43.34" y="186.77" width="4.87" height="36.8"/><rect class="cls-7" x="35.82" y="202.25" width="4.87" height="21.31"/><rect class="cls-4" x="28.31" y="198.93" width="4.87" height="24.64"/><rect class="cls-7" x="20.8" y="213.63" width="4.87" height="9.93"/><rect class="cls-4" x="58.36" y="178.73" width="4.87" height="44.84"/><rect class="cls-7" x="50.85" y="182.83" width="4.87" height="40.74"/><rect class="cls-4" x="73.38" y="174.29" width="4.87" height="49.28"/><rect class="cls-7" x="65.87" y="164.56" width="4.87" height="59.01"/><path class="cls-3" d="M25.55,228.18a5.54,5.54,0,0,1-2.16.22,5.47,5.47,0,0,1-2.15-.22,5.82,5.82,0,0,1,2.15-.21A5.9,5.9,0,0,1,25.55,228.18Z"/><path class="cls-3" d="M33,228.18a5.47,5.47,0,0,1-2.15.22,5.54,5.54,0,0,1-2.16-.22A5.9,5.9,0,0,1,30.8,228,5.82,5.82,0,0,1,33,228.18Z"/><path class="cls-3" d="M40.36,228.18a5.54,5.54,0,0,1-2.16.22,5.47,5.47,0,0,1-2.15-.22A5.82,5.82,0,0,1,38.2,228,5.9,5.9,0,0,1,40.36,228.18Z"/><path class="cls-3" d="M47.76,228.18a5.47,5.47,0,0,1-2.15.22,5.54,5.54,0,0,1-2.16-.22,5.9,5.9,0,0,1,2.16-.21A5.82,5.82,0,0,1,47.76,228.18Z"/><path class="cls-3" d="M55.17,228.18a5.54,5.54,0,0,1-2.16.22,5.47,5.47,0,0,1-2.15-.22A5.82,5.82,0,0,1,53,228,5.9,5.9,0,0,1,55.17,228.18Z"/><path class="cls-3" d="M62.57,228.18a5.47,5.47,0,0,1-2.15.22,5.54,5.54,0,0,1-2.16-.22,5.9,5.9,0,0,1,2.16-.21A5.82,5.82,0,0,1,62.57,228.18Z"/><path class="cls-3" d="M70,228.18a5.54,5.54,0,0,1-2.16.22,5.47,5.47,0,0,1-2.15-.22,5.82,5.82,0,0,1,2.15-.21A5.9,5.9,0,0,1,70,228.18Z"/><path class="cls-3" d="M77.38,228.18a5.47,5.47,0,0,1-2.15.22,5.54,5.54,0,0,1-2.16-.22,5.9,5.9,0,0,1,2.16-.21A5.82,5.82,0,0,1,77.38,228.18Z"/><path class="cls-3" d="M80,232.52c0,.12-5.3.21-11.83.21s-11.82-.09-11.82-.21,5.29-.21,11.82-.21S80,232.4,80,232.52Z"/><path class="cls-3" d="M65.87,235a20.35,20.35,0,0,1-4.15.21,20.35,20.35,0,0,1-4.15-.21,20.35,20.35,0,0,1,4.15-.21A20.35,20.35,0,0,1,65.87,235Z"/><path class="cls-3" d="M66.44,162.42a1.14,1.14,0,0,1,.67.13,2.65,2.65,0,0,1,1.52,2.66A2.33,2.33,0,0,1,68,166.6a2.86,2.86,0,0,1-3.31.58,3,3,0,0,1-1.45-3,2.75,2.75,0,0,1,.64-1.4,3.18,3.18,0,0,1,1.09-.76,3,3,0,0,1,1.87-.16,1.22,1.22,0,0,1,.62.28s-.23-.06-.65-.12a3.13,3.13,0,0,0-1.72.28,2.46,2.46,0,0,0-1.46,1.93,2.63,2.63,0,0,0,1.26,2.62,2.52,2.52,0,0,0,2.83-.48,2.11,2.11,0,0,0,.46-2.32A2.52,2.52,0,0,0,67,162.7C66.67,162.49,66.43,162.46,66.44,162.42Z"/><path class="cls-3" d="M70.29,95.37l-.29,0-.83,0-3.25,0,.1-.1c.07,5.77.11,17.26.11,30.46,0,9.61,0,18.3-.06,24.64,0,3.12,0,5.66-.07,7.46,0,.85,0,1.53,0,2a5,5,0,0,1,0,.71,3.61,3.61,0,0,1,0-.71c0-.5,0-1.18,0-2,0-1.8,0-4.34-.07-7.46,0-6.34,0-15-.06-24.64,0-13.2,0-24.69.11-30.46v-.1h.1l3.25,0,.83,0A.94.94,0,0,1,70.29,95.37Z"/><path class="cls-3" d="M34.72,134.38c0,.11-5.31.21-11.85.21S11,134.49,11,134.38s5.31-.22,11.86-.22S34.72,134.26,34.72,134.38Z"/><path class="cls-3" d="M34.29,137.43c0,.11-5.21.21-11.64.21S11,137.54,11,137.43s5.21-.21,11.64-.21S34.29,137.31,34.29,137.43Z"/><path class="cls-3" d="M34.29,140.48c0,.12-5.21.21-11.64.21S11,140.6,11,140.48s5.21-.21,11.64-.21S34.29,140.36,34.29,140.48Z"/><path class="cls-3" d="M34.29,143.53c0,.12-5.21.21-11.64.21S11,143.65,11,143.53s5.21-.21,11.64-.21S34.29,143.41,34.29,143.53Z"/><path class="cls-3" d="M34.29,146.58c0,.12-5.21.21-11.64.21S11,146.7,11,146.58s5.21-.21,11.64-.21S34.29,146.46,34.29,146.58Z"/><path class="cls-3" d="M22.36,149.63a37.82,37.82,0,0,1-5.67.21,37.9,37.9,0,0,1-5.68-.21,39.57,39.57,0,0,1,5.68-.21A39.49,39.49,0,0,1,22.36,149.63Z"/><path class="cls-4" d="M29,131c0,.12-4,.21-9,.21s-9-.09-9-.21,4-.21,9-.21S29,130.92,29,131Z"/><path class="cls-3" d="M40.24,156.85s0-.23,0-.65,0-1,0-1.84c0-1.63,0-4-.05-7,0-6,0-14.55-.09-24.82l.18.18-37.48,0s.4-.4.21-.2H3v9.18c0,3,0,6,0,8.84,0,5.76,0,11.21,0,16.23l-.18-.18,27.08.09,7.66.05,2,0h.71s-.05,0-.16,0h-.51l-2,0-7.61.05-27.2.1H2.57v-.19c0-5,0-10.47,0-16.23v-18h0c-.19.18.25-.27.21-.22l37.48,0h.18v.18c0,10.32-.07,18.9-.09,24.93,0,3,0,5.31,0,6.93,0,.78,0,1.38,0,1.81S40.24,156.85,40.24,156.85Z"/><path class="cls-3" d="M29,171.18a57,57,0,0,1-.21-6.82,56.87,56.87,0,0,1,.21-6.81,53.23,53.23,0,0,1,.22,6.81A53.33,53.33,0,0,1,29,171.18Z"/><path class="cls-3" d="M30.57,168.07a13.28,13.28,0,0,0-.86,3.37v.09l0,.61-.35-.5A6.44,6.44,0,0,1,28,168.42c.12,0,.6,1.43,1.69,3l-.38.11v-.09A5,5,0,0,1,30.57,168.07Z"/><rect class="cls-6" x="162.11" y="11.1" width="130.61" height="55.51" rx="3.22"/><path class="cls-8" d="M200.5,31.72A14.14,14.14,0,0,0,189,23.46l-.46,0-.29,0c-.28,0-.57,0-.86,0h-.08l-.06,11.92,0,2.81,14.34,3.3h0a13.88,13.88,0,0,0,.35-3.09A15.33,15.33,0,0,0,200.5,31.72Z"/><path class="cls-2" d="M185.05,39.64l0-2.64.07-11.93a15.26,15.26,0,0,0-9.89,3.72,14.12,14.12,0,0,0-4.89,12.3c0,.51.13,1,.23,1.56l-.11,0c1.91,6.87,8.11,12.06,14.23,11.67,7.05-.45,13-4.81,14.54-11.43Z"/><path class="cls-3" d="M236.53,29.64c0,.11-5.75.21-12.85.21s-12.86-.1-12.86-.21,5.76-.22,12.86-.22S236.53,29.52,236.53,29.64Z"/><path class="cls-3" d="M236.53,34.57c0,.12-5.75.22-12.85.22s-12.86-.1-12.86-.22,5.76-.21,12.86-.21S236.53,34.46,236.53,34.57Z"/><path class="cls-3" d="M236.53,39.51c0,.12-5.75.22-12.85.22s-12.86-.1-12.86-.22,5.76-.21,12.86-.21S236.53,39.4,236.53,39.51Z"/><path class="cls-3" d="M236.53,44.45c0,.12-5.75.21-12.85.21s-12.86-.09-12.86-.21,5.76-.21,12.86-.21S236.53,44.34,236.53,44.45Z"/><path class="cls-3" d="M225.89,49.8a12.54,12.54,0,0,1-2.21.15c-1.36,0-3.24.06-5.32.06s-4,0-5.33-.06a12.67,12.67,0,0,1-2.21-.15,10.62,10.62,0,0,1,2.21-.15c1.36,0,3.25-.07,5.33-.07s4,0,5.32.07A10.52,10.52,0,0,1,225.89,49.8Z"/><path class="cls-2" d="M254.85,25.1a1.4,1.4,0,0,1,.55-.3,4.86,4.86,0,0,1,1.7-.31,4,4,0,0,1,.59,0l.31,0h0l.12.19h0l0,.08,0,.16-.29,1.34-.69,3.09,0,.17h-1.24l-3.74,0h-.2v-.19a5.12,5.12,0,0,1,.53-2.19,4.47,4.47,0,0,1,1.07-1.37,4.22,4.22,0,0,1,.94-.62c.24-.11.38-.15.39-.13a14.88,14.88,0,0,0-1.17.92,4.67,4.67,0,0,0-1.37,3.39l-.2-.19h4.82l-.21.16.74-3.09.32-1.33,0-.15,0-.08v0h0l.12.19h0l-.29-.06-.54-.06A7.9,7.9,0,0,0,254.85,25.1Z"/><path class="cls-8" d="M257.43,30.15h-.86l-3.9,0a5,5,0,0,0,1.22,3.23,4.61,4.61,0,0,0,4,1.59c.16,0,.33,0,.51-.07v0c2.25-.63,3.94-2.65,3.81-4.65a5,5,0,0,0-3.73-4.75Z"/><path class="cls-8" d="M254.85,42.61a4.61,4.61,0,0,0-2.7,3.76c0,.05,0,.1,0,.15a.28.28,0,0,1,0,.09c0,.1,0,.19,0,.29h0l3.9,0h.92L258,42.26h0a4.29,4.29,0,0,0-1-.12A5.17,5.17,0,0,0,254.85,42.61Z"/><path class="cls-2" d="M257.43,47.66a11.58,11.58,0,0,1,.23-1.3l.69-3.37,0-.15.16,0a4.94,4.94,0,0,1,3.55,3.24,4.81,4.81,0,0,1,.2,2.92,5,5,0,0,1-1.8,2.57,5.8,5.8,0,0,1-2,1l-.22.06,0-.22v0l.24.16a5.18,5.18,0,0,1-2.48-.12,4.7,4.7,0,0,1-2-1.22,5.13,5.13,0,0,1-1.48-3.62v-.16h.15l3.49.08a8.35,8.35,0,0,1,1.27.1,8.57,8.57,0,0,1-1.28.07l-3.48.05.16-.15A4.84,4.84,0,0,0,254.27,51a4.51,4.51,0,0,0,4.11,1.19l.2,0,0,.21v0l-.26-.15a5.76,5.76,0,0,0,1.86-.95,4.69,4.69,0,0,0,1.66-2.35,4.52,4.52,0,0,0-.16-2.68,4.68,4.68,0,0,0-3.26-3.07l.18-.12c-.36,1.46-.66,2.63-.87,3.42A8.3,8.3,0,0,1,257.43,47.66Z"/><path class="cls-3" d="M283.36,45.12a81.25,81.25,0,0,1-8.14.21,81.08,81.08,0,0,1-8.14-.21,75.89,75.89,0,0,1,8.14-.22A76,76,0,0,1,283.36,45.12Z"/><path class="cls-3" d="M275.22,47.29a39.55,39.55,0,0,1-8.14,0,39.55,39.55,0,0,1,8.14,0Z"/><path class="cls-3" d="M283.36,27.62a81.25,81.25,0,0,1-8.14.21,81.08,81.08,0,0,1-8.14-.21,75.89,75.89,0,0,1,8.14-.22A76,76,0,0,1,283.36,27.62Z"/><path class="cls-3" d="M275.22,29.79a39.55,39.55,0,0,1-8.14,0,39.55,39.55,0,0,1,8.14,0Z"/><path class="cls-3" d="M244.58,59c-.12,0-.21-9.8-.21-21.88s.09-21.88.21-21.88.21,9.8.21,21.88S244.7,59,244.58,59Z"/><rect class="cls-4" x="237.68" y="202.4" width="5.04" height="45.51"/><rect class="cls-5" x="247.41" y="217.85" width="5.04" height="30.05"/><rect class="cls-4" x="257.14" y="208.05" width="5.04" height="40.09"/><rect class="cls-5" x="266.87" y="204.15" width="5.04" height="43.75"/><rect class="cls-4" x="276.6" y="218.78" width="5.04" height="29.13"/><rect class="cls-5" x="286.33" y="224.49" width="5.04" height="23.42"/><rect class="cls-4" x="296.07" y="207.07" width="5.04" height="40.84"/><rect class="cls-5" x="305.8" y="214.43" width="5.04" height="33.48"/><rect class="cls-4" x="315.53" y="208.55" width="5.04" height="39.36"/><rect class="cls-5" x="325.26" y="221.09" width="5.04" height="26.82"/><rect class="cls-4" x="334.99" y="215.99" width="5.04" height="31.92"/><path class="cls-3" d="M336.91,212.71l-.3,0-.88-.14a13.1,13.1,0,0,0-1.44-.19l-.92-.09-1.05,0a27.93,27.93,0,0,0-5.4.29,30,30,0,0,0-6.9,1.88,28.38,28.38,0,0,0-7.44,4.4,39.2,39.2,0,0,0-6.65,7.38c-2.12,2.8-4.28,5.88-7.27,8.37a18.27,18.27,0,0,1-5.05,3,12,12,0,0,1-6,.75,14.27,14.27,0,0,1-5.67-2.16,24.09,24.09,0,0,1-4.51-3.8,78.67,78.67,0,0,1-6.63-8.88,32.81,32.81,0,0,0-6.63-7.38,17.46,17.46,0,0,0-3.89-2.21,18.46,18.46,0,0,0-4-1.08,19.2,19.2,0,0,0-12.12,2.26,18.27,18.27,0,0,0-2.77,2l-.67.6a1.76,1.76,0,0,1-.23.19,1.29,1.29,0,0,1,.2-.22l.64-.63a17.4,17.4,0,0,1,2.75-2.08,19.2,19.2,0,0,1,12.24-2.4,18.66,18.66,0,0,1,4.08,1.07,17.51,17.51,0,0,1,4,2.23,33,33,0,0,1,6.74,7.44,78.35,78.35,0,0,0,6.62,8.82,23.8,23.8,0,0,0,4.42,3.73,14,14,0,0,0,5.51,2.09,11.7,11.7,0,0,0,5.81-.72,18.1,18.1,0,0,0,4.93-3c2.95-2.43,5.1-5.48,7.22-8.29,1.07-1.41,2.12-2.77,3.23-4,.56-.62,1.12-1.24,1.72-1.79l.88-.83c.31-.27.62-.51.92-.77a28.48,28.48,0,0,1,7.55-4.4,29.9,29.9,0,0,1,7-1.83,27,27,0,0,1,5.44-.23l1.05.07.92.12a11.49,11.49,0,0,1,1.44.23l.88.18Z"/><path class="cls-3" d="M232.13,251.08c-.12,0-.21-13-.21-29s.09-29,.21-29,.21,13,.21,29S232.24,251.08,232.13,251.08Z"/><path class="cls-3" d="M342.09,251.08c0,.11-23.91.21-53.4.21s-53.4-.1-53.4-.21,23.9-.21,53.4-.21S342.09,251,342.09,251.08Z"/><path class="cls-3" d="M244.87,254.66a33.5,33.5,0,0,1-7.49,0,33.5,33.5,0,0,1,7.49,0Z"/><path class="cls-3" d="M257.27,254.84a47.68,47.68,0,0,1-8.94,0,47.68,47.68,0,0,1,8.94,0Z"/><path class="cls-3" d="M267.86,254.84a47.68,47.68,0,0,1-8.94,0,47.68,47.68,0,0,1,8.94,0Z"/><path class="cls-3" d="M278.44,254.84a47.68,47.68,0,0,1-8.94,0,47.68,47.68,0,0,1,8.94,0Z"/><path class="cls-3" d="M289,254.84a47.79,47.79,0,0,1-8.95,0,47.79,47.79,0,0,1,8.95,0Z"/><path class="cls-3" d="M299.61,254.84a47.68,47.68,0,0,1-8.94,0,47.68,47.68,0,0,1,8.94,0Z"/><path class="cls-3" d="M310.19,254.84a47.68,47.68,0,0,1-8.94,0,47.68,47.68,0,0,1,8.94,0Z"/><path class="cls-3" d="M320.78,254.84a47.68,47.68,0,0,1-8.94,0,47.68,47.68,0,0,1,8.94,0Z"/><path class="cls-3" d="M331.36,254.84a47.68,47.68,0,0,1-8.94,0,47.68,47.68,0,0,1,8.94,0Z"/><path class="cls-3" d="M341.94,254.84a47.68,47.68,0,0,1-8.94,0,47.68,47.68,0,0,1,8.94,0Z"/><path class="cls-3" d="M272.13,224s.43,0,.6.59a1.09,1.09,0,0,1-.2,1,1.09,1.09,0,0,1-1.85-.84,1.07,1.07,0,0,1,.59-.79c.55-.26.9,0,.85.06s-.33-.06-.7.2a.79.79,0,0,0-.35.57.72.72,0,0,0,1.17.53.8.8,0,0,0,.2-.65C272.39,224.22,272.09,224.07,272.13,224Z"/><path class="cls-3" d="M320.85,213s.1-.06.28,0a1.15,1.15,0,0,1,.67.42,1.18,1.18,0,0,1,.17,1.19,1.34,1.34,0,0,1-1.23.79,1.23,1.23,0,0,1-1.15-.91,1.18,1.18,0,0,1,.24-1.17c.49-.5,1-.42.95-.38s-.39.13-.72.57a.91.91,0,0,0-.1.86.87.87,0,0,0,.78.61,1,1,0,0,0,.88-.53.92.92,0,0,0-.07-.86C321.26,213.12,320.83,213.09,320.85,213Z"/><ellipse class="cls-3" cx="321.64" cy="191.17" rx="0.21" ry="0.61"/><path class="cls-3" d="M321.64,197.07c-.12,0-.22-.59-.22-1.32s.1-1.32.22-1.32.21.59.21,1.32S321.75,197.07,321.64,197.07Z"/><path class="cls-3" d="M321.64,202.37c-.12,0-.22-.59-.22-1.32s.1-1.33.22-1.33.21.59.21,1.33S321.75,202.37,321.64,202.37Z"/><path class="cls-3" d="M321.64,207.67c-.12,0-.22-.6-.22-1.33s.1-1.32.22-1.32.21.59.21,1.32S321.75,207.67,321.64,207.67Z"/><path class="cls-3" d="M321.64,211.53c-.12,0-.22-.27-.22-.61s.1-.61.22-.61.21.28.21.61S321.75,211.53,321.64,211.53Z"/><path class="cls-3" d="M357.5,183.38c0,.12-8.27.21-18.47.21s-18.47-.09-18.47-.21,8.27-.21,18.47-.21S357.5,183.26,357.5,183.38Z"/><path class="cls-3" d="M344.89,179.2c0,.12-5.32.21-11.89.21s-11.88-.09-11.88-.21S326.44,179,333,179,344.89,179.08,344.89,179.2Z"/><path class="cls-3" d="M102.79,65.39c.12,0,.22.28.22.61s-.1.61-.22.61-.21-.27-.21-.61S102.68,65.39,102.79,65.39Z"/><path class="cls-3" d="M102.79,60.68c.12,0,.22.53.22,1.18s-.1,1.18-.22,1.18-.21-.53-.21-1.18S102.68,60.68,102.79,60.68Z"/><path class="cls-3" d="M102.79,56c.12,0,.22.53.22,1.18s-.1,1.17-.22,1.17-.21-.52-.21-1.17S102.68,56,102.79,56Z"/><path class="cls-3" d="M102.79,51.26c.12,0,.22.53.22,1.18s-.1,1.18-.22,1.18-.21-.53-.21-1.18S102.68,51.26,102.79,51.26Z"/><ellipse class="cls-3" cx="102.79" cy="47.73" rx="0.21" ry="1.18"/><path class="cls-3" d="M102.79,41.85c.12,0,.22.52.22,1.18s-.1,1.17-.22,1.17-.21-.52-.21-1.17S102.68,41.85,102.79,41.85Z"/><path class="cls-3" d="M102.79,38.27c.12,0,.22.27.22.61s-.1.61-.22.61-.21-.28-.21-.61S102.68,38.27,102.79,38.27Z"/><path class="cls-3" d="M104,37.12c0,.12-.28.21-.61.21s-.62-.09-.62-.21.28-.21.62-.21S104,37,104,37.12Z"/><path class="cls-3" d="M109,37.12c0,.12-.56.21-1.26.21s-1.25-.09-1.25-.21.56-.21,1.25-.21S109,37,109,37.12Z"/><path class="cls-3" d="M114,37.12c0,.12-.56.21-1.25.21s-1.26-.09-1.26-.21.56-.21,1.26-.21S114,37,114,37.12Z"/><path class="cls-3" d="M119.05,37.12c0,.12-.56.21-1.25.21s-1.25-.09-1.25-.21.56-.21,1.25-.21S119.05,37,119.05,37.12Z"/><path class="cls-3" d="M124.05,37.12c0,.12-.56.21-1.25.21s-1.25-.09-1.25-.21.56-.21,1.25-.21S124.05,37,124.05,37.12Z"/><path class="cls-3" d="M129.06,37.12c0,.12-.56.21-1.25.21s-1.25-.09-1.25-.21.56-.21,1.25-.21S129.06,37,129.06,37.12Z"/><path class="cls-3" d="M134.06,37.12c0,.12-.56.21-1.25.21s-1.25-.09-1.25-.21.56-.21,1.25-.21S134.06,37,134.06,37.12Z"/><path class="cls-3" d="M139.07,37.12c0,.12-.56.21-1.25.21s-1.25-.09-1.25-.21.56-.21,1.25-.21S139.07,37,139.07,37.12Z"/><path class="cls-3" d="M144.08,37.12c0,.12-.56.21-1.25.21s-1.26-.09-1.26-.21.56-.21,1.26-.21S144.08,37,144.08,37.12Z"/><path class="cls-3" d="M149.08,37.12c0,.12-.56.21-1.25.21s-1.25-.09-1.25-.21.56-.21,1.25-.21S149.08,37,149.08,37.12Z"/><path class="cls-3" d="M154.09,37.12c0,.12-.56.21-1.25.21s-1.25-.09-1.25-.21.56-.21,1.25-.21S154.09,37,154.09,37.12Z"/><path class="cls-3" d="M157.84,37.12c0,.12-.27.21-.61.21s-.61-.09-.61-.21.28-.21.61-.21S157.84,37,157.84,37.12Z"/><path class="cls-3" d="M218,82.63H186.67a3.15,3.15,0,0,0-3.15,3.16v18.36a3.15,3.15,0,0,0,3.15,3.16h5v7.53l6.75-7.53H218a3.15,3.15,0,0,0,3.16-3.16V85.79A3.15,3.15,0,0,0,218,82.63Z"/><path class="cls-8" d="M198.58,95.37a1.31,1.31,0,1,1-2.61,0,1.31,1.31,0,0,1,2.61,0Z"/><path class="cls-8" d="M203.71,95.37a1.31,1.31,0,1,1-1.31-1.3A1.31,1.31,0,0,1,203.71,95.37Z"/><path class="cls-8" d="M208.69,95.37a1.31,1.31,0,1,1-1.31-1.3A1.31,1.31,0,0,1,208.69,95.37Z"/><path class="cls-3" d="M148.75,105.49c-1.54-.38-1.29-4.61-1.45-5.9a4.25,4.25,0,0,1,.15-2.35A3.2,3.2,0,0,1,150,95.68c1-.15,2.06-.06,3.07-.2,2.05-.3,3.88-1.57,5.94-1.75a5.86,5.86,0,0,1,4.61,1.68,11.26,11.26,0,0,0,2.12,2.13,11.57,11.57,0,0,0,2.55.77,5.86,5.86,0,0,1,4.05,4.79A16.75,16.75,0,0,1,172,107a6,6,0,0,0,.54,3.82c.72,1.16,2.05,1.84,2.71,3a3.26,3.26,0,0,1-3.32,4.81c-.38-.05-.82-.16-1.11.08s-.28.59-.35.92a2.48,2.48,0,0,1-4.88-.89"/><path class="cls-9" d="M166.57,132.59l-13.48-1.08c-.08-1.57,0-7.66,0-7.66s-5.6-.87-5.67-6.47.9-18.47.9-18.47h0a19.46,19.46,0,0,1,19.57,2.46l.83.64Z"/><path class="cls-3" d="M149.64,108a.82.82,0,0,0,.06-1.15.81.81,0,1,0-1.21,1.09A.82.82,0,0,0,149.64,108Z"/><path class="cls-3" d="M148.28,107.26c.09.1.64-.33,1.41-.33s1.33.39,1.42.29-.05-.22-.29-.4a1.87,1.87,0,0,0-1.13-.36,1.92,1.92,0,0,0-1.13.39C148.32,107,148.24,107.22,148.28,107.26Z"/><path class="cls-3" d="M157,107.53a.81.81,0,0,0-.26,1.12.79.79,0,0,0,1.11.27.81.81,0,0,0,.27-1.12A.82.82,0,0,0,157,107.53Z"/><path class="cls-3" d="M156.67,107.94c.08.09.63-.33,1.4-.33s1.34.39,1.42.29,0-.22-.29-.4a1.88,1.88,0,0,0-2.25,0C156.71,107.72,156.62,107.89,156.67,107.94Z"/><path class="cls-3" d="M153.57,114.31a3.68,3.68,0,0,0-1.25-.27c-.2,0-.36-.07-.37-.18a1.05,1.05,0,0,1,.14-.57l.61-1.57A20.53,20.53,0,0,0,154,107.6a21.23,21.23,0,0,0-1.73,4l-.58,1.58a1.36,1.36,0,0,0-.11.84.57.57,0,0,0,.35.33,1.11,1.11,0,0,0,.34,0A3.82,3.82,0,0,0,153.57,114.31Z"/><path class="cls-8" d="M156.08,115.16c.8-.48-2.22,1.17-3.79,1.1a2.14,2.14,0,0,0,2.52.85C156.49,116.49,156.08,115.16,156.08,115.16Z"/><path class="cls-10" d="M153.11,123.77a13.05,13.05,0,0,0,7.31-2.07s-1.73,4-7.32,3.53Z"/><path class="cls-9" d="M167.89,107.77c.11-.07,4-1.32,4.48,3.42s-4.46,3.68-4.49,3.55S167.89,107.77,167.89,107.77Z"/><path class="cls-10" d="M169.16,112.92s.09,0,.24.1a.87.87,0,0,0,.62,0,2.06,2.06,0,0,0,.75-1.94,2.87,2.87,0,0,0-.35-1.16,1,1,0,0,0-.69-.57.44.44,0,0,0-.47.28c0,.14,0,.23,0,.24s-.11-.07-.09-.27a.52.52,0,0,1,.15-.31.63.63,0,0,1,.45-.17,1.16,1.16,0,0,1,.94.64,2.74,2.74,0,0,1,.42,1.3,2.15,2.15,0,0,1-1,2.17.89.89,0,0,1-.77-.05C169.18,113,169.15,112.93,169.16,112.92Z"/><path class="cls-3" d="M148.38,98.63a6.67,6.67,0,0,0,5.68,3.08,21.93,21.93,0,0,0,6.64-1.17c1.18-.33,2.61-.58,3.48.29a3.28,3.28,0,0,1,.74,2,20.87,20.87,0,0,1,.06,4.74,5.45,5.45,0,0,0,0,1.89,1.6,1.6,0,0,0,1.27,1.25c1,.08,1.59-1,1.93-2a18.41,18.41,0,0,0,1.09-4,6.09,6.09,0,0,0-.72-4,8.19,8.19,0,0,0-3.63-2.81,21.25,21.25,0,0,0-9-2.35,11.88,11.88,0,0,0-8.51,3.22"/><path class="cls-4" d="M146.74,344.92l0-7.48,14-.17.18,10.94-.87.07c-3.86.26-19.66,1.06-22.26.31C134.87,347.75,146.74,344.92,146.74,344.92Z"/><path class="cls-4" d="M155.81,348.17a4.86,4.86,0,0,1,1.75-3,4.73,4.73,0,0,1,3.26-1.06l.05,3.91Z"/><path class="cls-4" d="M140.94,346.51s-4.15,1.25-3.62,1.93,16.52.48,23.57-.23l0-.31-18.66.4S141.76,346.53,140.94,346.51Z"/><path class="cls-3" d="M161.09,347.89l-.25,0-.69.05-2.54.14c-2.15.11-5.12.21-8.41.26s-6.26,0-8.41,0l-2.55-.08-.69,0a1.1,1.1,0,0,1-.24,0h.93l2.55,0c2.15,0,5.13,0,8.41,0s6.25-.13,8.4-.21l2.55-.09.69,0Z"/><path class="cls-3" d="M142.21,348.51a3.75,3.75,0,0,0-1.37-2.17,2,2,0,0,1,1,.87A1.86,1.86,0,0,1,142.21,348.51Z"/><path class="cls-3" d="M146.32,346.36s-.24-.21-.45-.53-.34-.6-.3-.62.24.21.44.53S146.36,346.34,146.32,346.36Z"/><path class="cls-3" d="M147.45,345.75s-.26-.11-.5-.32-.42-.42-.39-.45.26.11.5.32S147.48,345.72,147.45,345.75Z"/><path class="cls-3" d="M148.15,344.42a1.65,1.65,0,0,1-.73.1,1.62,1.62,0,0,1-.74-.07,1.83,1.83,0,0,1,.73-.1A1.59,1.59,0,0,1,148.15,344.42Z"/><path class="cls-3" d="M148.38,343.48a1.41,1.41,0,0,1-.81.25,1.49,1.49,0,0,1-.84-.1,3.91,3.91,0,0,1,.82-.07A5.3,5.3,0,0,1,148.38,343.48Z"/><path class="cls-3" d="M145.83,345.15a2.66,2.66,0,0,1-.9,0,5.78,5.78,0,0,1-1-.19,3.5,3.5,0,0,1-.55-.22.5.5,0,0,1-.23-.28.34.34,0,0,1,.13-.36,1.65,1.65,0,0,1,2.35,1c0,.16,0,.24,0,.24a2.77,2.77,0,0,0-.42-.76,1.69,1.69,0,0,0-.78-.49,1.38,1.38,0,0,0-1.07.09c-.14.11-.08.27.08.37a2.87,2.87,0,0,0,.51.21,7.36,7.36,0,0,0,.93.23C145.49,345.12,145.83,345.12,145.83,345.15Z"/><path class="cls-3" d="M145.6,345.2a.84.84,0,0,1-.11-.63,1.35,1.35,0,0,1,.23-.66.92.92,0,0,1,.75-.47.36.36,0,0,1,.28.41.88.88,0,0,1-.15.41,2.55,2.55,0,0,1-.42.55c-.28.28-.5.39-.51.37s.18-.16.42-.45a2.63,2.63,0,0,0,.37-.55c.13-.19.21-.53,0-.57s-.45.21-.59.39a1.63,1.63,0,0,0-.25.59A3.33,3.33,0,0,0,145.6,345.2Z"/><path class="cls-3" d="M160.75,344.06s-.4,0-1,.05a4.4,4.4,0,0,0-3.64,3c-.2.6-.22,1-.25,1a.68.68,0,0,1,0-.28A3.66,3.66,0,0,1,156,347a4.3,4.3,0,0,1,1.39-2.1,4.35,4.35,0,0,1,2.34-.95,3.74,3.74,0,0,1,.77,0A.77.77,0,0,1,160.75,344.06Z"/><path class="cls-3" d="M159.22,338.25a23.2,23.2,0,0,1,.16,2.87,24,24,0,0,1,0,2.88,23,23,0,0,1-.16-2.87A26.81,26.81,0,0,1,159.22,338.25Z"/><path class="cls-3" d="M154,346.82a7.44,7.44,0,0,1-2,.23,7.56,7.56,0,0,1-2.06-.14c0-.05.92,0,2,0S154,346.77,154,346.82Z"/><path class="cls-3" d="M156.78,346.78s-.08.2-.17.41-.14.4-.19.39-.07-.22,0-.46S156.74,346.75,156.78,346.78Z"/><path class="cls-3" d="M157.79,345.48s0,.18-.19.33-.29.24-.32.21.05-.18.19-.33S157.76,345.45,157.79,345.48Z"/><path class="cls-3" d="M159.27,344.87c0,.05-.2.05-.4.13s-.36.18-.39.15.08-.22.33-.31S159.28,344.83,159.27,344.87Z"/><path class="cls-3" d="M160.32,344.58c0,.05-.06.12-.18.17s-.22,0-.24,0,.06-.12.18-.16S160.3,344.54,160.32,344.58Z"/><path class="cls-4" d="M218.35,341.05l-2.28-7.12-13.37,4.19,3.22,10.46.85-.21c3.75-.95,19-5.1,21.25-6.62C230.51,340.05,218.35,341.05,218.35,341.05Z"/><path class="cls-4" d="M210.74,347a4.83,4.83,0,0,0-2.6-2.31,4.72,4.72,0,0,0-3.43,0l1.17,3.74Z"/><path class="cls-4" d="M224.36,340.76s4.34-.09,4,.72-15.57,5.58-22.49,7.1l-.07-.31,17.86-5.41S223.59,341,224.36,340.76Z"/><path class="cls-3" d="M205.64,348.33l.24-.05.67-.17,2.46-.65c2.08-.57,4.94-1.39,8.07-2.37s6-1.92,8-2.64c1-.33,1.75-.62,2.4-.86l.65-.24.22-.1-.23.07-.66.21-2.42.81c-2,.68-4.86,1.61-8,2.59s-6,1.82-8.05,2.41l-2.45.71-.66.2A.74.74,0,0,0,205.64,348.33Z"/><path class="cls-3" d="M223.77,343.06a5.83,5.83,0,0,1,.09-1.3,6.64,6.64,0,0,1,.54-1.19,2,2,0,0,0-.7,1.15A2,2,0,0,0,223.77,343.06Z"/><path class="cls-3" d="M219.2,342.3c.05,0,.16-.28.26-.65s.15-.68.1-.69-.16.28-.26.65A1.56,1.56,0,0,0,219.2,342.3Z"/><path class="cls-3" d="M217.94,342.06s.21-.18.37-.46.27-.53.23-.55-.21.18-.37.46S217.9,342,217.94,342.06Z"/><path class="cls-3" d="M216.86,341c0,.05.34,0,.73-.13s.69-.24.67-.29a1.65,1.65,0,0,0-.72.13A1.85,1.85,0,0,0,216.86,341Z"/><path class="cls-3" d="M216.35,340.2a2.07,2.07,0,0,0,1.62-.38,4.82,4.82,0,0,0-.81.19A4.62,4.62,0,0,0,216.35,340.2Z"/><path class="cls-3" d="M219.29,341a2.62,2.62,0,0,0,.86-.28,5.07,5.07,0,0,0,.85-.48,3.85,3.85,0,0,0,.46-.38.61.61,0,0,0,.13-.34.36.36,0,0,0-.24-.3,1.66,1.66,0,0,0-1.81,1.07,1.6,1.6,0,0,0-.1.66.48.48,0,0,0,.05.24,2.71,2.71,0,0,1,.16-.86,1.67,1.67,0,0,1,.59-.7,1.36,1.36,0,0,1,1-.25c.16.06.16.23,0,.37a2.86,2.86,0,0,1-.42.36,7.41,7.41,0,0,1-.81.51C219.61,340.86,219.28,341,219.29,341Z"/><path class="cls-3" d="M219.53,341a1,1,0,0,0-.09-.63,1.51,1.51,0,0,0-.43-.55.89.89,0,0,0-.85-.22.36.36,0,0,0-.15.48,1.07,1.07,0,0,0,.27.34,2.52,2.52,0,0,0,.57.39,1.34,1.34,0,0,0,.6.2s-.22-.1-.54-.3a3.31,3.31,0,0,1-.52-.4c-.18-.15-.36-.45-.16-.56a.83.83,0,0,1,.68.19,1.45,1.45,0,0,1,.42.49A2.78,2.78,0,0,1,219.53,341Z"/><path class="cls-3" d="M204.77,344.58s.37-.15,1-.27a4.35,4.35,0,0,1,4.37,1.7c.39.51.53.89.56.87a.93.93,0,0,0-.09-.27,4,4,0,0,0-.37-.67,4.24,4.24,0,0,0-2-1.57,4.33,4.33,0,0,0-2.52-.18,4,4,0,0,0-.73.25C204.85,344.52,204.76,344.57,204.77,344.58Z"/><path class="cls-3" d="M204.42,338.58a21.79,21.79,0,0,0,.74,2.79,24.6,24.6,0,0,0,.9,2.73,21.9,21.9,0,0,0-.74-2.78A25.26,25.26,0,0,0,204.42,338.58Z"/><path class="cls-3" d="M212,345.12a7.53,7.53,0,0,0,2-.41,8.29,8.29,0,0,0,1.91-.77c0-.05-.88.28-2,.6S212,345.07,212,345.12Z"/><path class="cls-3" d="M209.39,345.94s.13.16.28.33.26.34.31.32,0-.23-.18-.43S209.41,345.9,209.39,345.94Z"/><path class="cls-3" d="M208,345s.11.15.29.25.35.14.37.1-.11-.16-.29-.25S208,345,208,345Z"/><path class="cls-3" d="M206.43,344.9s.2,0,.42,0,.39.07.42,0-.15-.19-.42-.2S206.41,344.86,206.43,344.9Z"/><path class="cls-3" d="M205.34,345s.1.09.22.1.23,0,.23-.07-.09-.1-.22-.1S205.35,344.9,205.34,345Z"/><polyline class="cls-11" points="137.21 196.35 143.75 341.7 165.57 342.15 161.95 220.48 201.49 343.61 219.32 338.72 179.53 196.35"/><polygon class="cls-6" points="200.55 342.78 201.57 344.74 220.47 339.23 219.32 336.06 200.55 342.78"/><path class="cls-6" d="M217.14,335.33c.11,0,.28.2.38.52s.08.61,0,.65-.28-.2-.38-.53S217,335.36,217.14,335.33Z"/><path class="cls-6" d="M215.73,330.61c.11,0,.36.47.55,1.12s.27,1.21.15,1.24-.36-.47-.55-1.12S215.61,330.64,215.73,330.61Z"/><path class="cls-6" d="M214.31,325.89c.11,0,.36.47.56,1.12s.26,1.21.15,1.24-.36-.47-.56-1.12S214.2,325.92,214.31,325.89Z"/><path class="cls-6" d="M212.9,321.17c.11,0,.36.47.55,1.12s.26,1.21.15,1.24-.36-.47-.55-1.12S212.78,321.2,212.9,321.17Z"/><path class="cls-6" d="M211.48,316.45c.11,0,.36.47.56,1.12s.26,1.21.15,1.24-.36-.47-.56-1.12S211.37,316.49,211.48,316.45Z"/><path class="cls-6" d="M210.06,311.73c.12,0,.37.47.56,1.12s.26,1.21.15,1.24-.36-.47-.55-1.12S210,311.77,210.06,311.73Z"/><path class="cls-6" d="M208.65,307c.11,0,.36.47.56,1.12s.26,1.21.15,1.24-.36-.46-.56-1.12S208.54,307.05,208.65,307Z"/><path class="cls-6" d="M207.23,302.29c.12,0,.37.47.56,1.12s.26,1.21.15,1.24-.36-.46-.56-1.12S207.12,302.33,207.23,302.29Z"/><path class="cls-6" d="M205.82,297.57c.11,0,.36.47.56,1.12s.26,1.21.15,1.24-.36-.46-.56-1.12S205.71,297.61,205.82,297.57Z"/><path class="cls-6" d="M204.4,292.85c.12,0,.36.47.56,1.12s.26,1.21.15,1.24-.36-.46-.56-1.11S204.29,292.89,204.4,292.85Z"/><path class="cls-6" d="M203,288.14c.11,0,.36.46.56,1.11s.26,1.21.15,1.25-.37-.47-.56-1.12S202.88,288.17,203,288.14Z"/><path class="cls-6" d="M201.57,283.42c.12,0,.36.46.56,1.11s.26,1.21.15,1.25-.36-.47-.56-1.12S201.46,283.45,201.57,283.42Z"/><path class="cls-6" d="M200.16,278.7c.11,0,.36.46.55,1.12s.27,1.2.16,1.24-.37-.47-.56-1.12S200.05,278.73,200.16,278.7Z"/><path class="cls-6" d="M198.74,274c.11,0,.36.46.56,1.12s.26,1.2.15,1.24-.36-.47-.56-1.12S198.63,274,198.74,274Z"/><path class="cls-6" d="M197.33,269.26c.11,0,.36.47.55,1.12s.27,1.2.15,1.24-.36-.47-.55-1.12S197.22,269.29,197.33,269.26Z"/><path class="cls-6" d="M195.91,264.54c.11,0,.36.47.56,1.12s.26,1.2.15,1.24-.36-.47-.56-1.12S195.8,264.57,195.91,264.54Z"/><path class="cls-6" d="M194.5,259.82c.11,0,.36.47.55,1.12s.27,1.21.15,1.24-.36-.47-.55-1.12S194.38,259.85,194.5,259.82Z"/><path class="cls-6" d="M193.08,255.1c.11,0,.36.47.56,1.12s.26,1.21.15,1.24-.36-.47-.56-1.12S193,255.13,193.08,255.1Z"/><path class="cls-6" d="M191.67,250.38c.11,0,.36.47.55,1.12s.27,1.21.15,1.24-.36-.47-.55-1.12S191.55,250.41,191.67,250.38Z"/><path class="cls-6" d="M190.25,245.66c.11,0,.36.47.56,1.12s.26,1.21.15,1.24-.36-.47-.56-1.12S190.14,245.69,190.25,245.66Z"/><path class="cls-6" d="M188.84,240.94c.11,0,.36.47.55,1.12s.27,1.21.15,1.24-.36-.47-.55-1.12S188.72,241,188.84,240.94Z"/><path class="cls-6" d="M187.42,236.22c.11,0,.36.47.56,1.12s.26,1.21.15,1.24-.36-.47-.56-1.12S187.31,236.26,187.42,236.22Z"/><path class="cls-6" d="M186,231.5c.11,0,.36.47.55,1.12s.26,1.21.15,1.24-.36-.46-.55-1.12S185.89,231.54,186,231.5Z"/><path class="cls-6" d="M184.59,226.78c.11,0,.36.47.56,1.12s.26,1.21.15,1.24-.36-.46-.56-1.12S184.48,226.82,184.59,226.78Z"/><path class="cls-6" d="M183.17,222.06c.12,0,.37.47.56,1.12s.26,1.21.15,1.24-.36-.46-.55-1.12S183.06,222.1,183.17,222.06Z"/><path class="cls-6" d="M181.76,217.34c.11,0,.36.47.56,1.12s.26,1.21.15,1.24-.36-.46-.56-1.11S181.65,217.38,181.76,217.34Z"/><path class="cls-6" d="M180.34,212.63c.12,0,.37.46.56,1.11s.26,1.21.15,1.25-.36-.47-.55-1.12S180.23,212.66,180.34,212.63Z"/><path class="cls-6" d="M178.93,207.91c.11,0,.36.46.56,1.12s.26,1.2.15,1.24-.36-.47-.56-1.12S178.82,207.94,178.93,207.91Z"/><path class="cls-6" d="M177.51,203.19c.12,0,.36.46.56,1.12s.26,1.2.15,1.24-.36-.47-.56-1.12S177.4,203.22,177.51,203.19Z"/><path class="cls-6" d="M176.46,199.66c.11,0,.28.2.37.52s.09.61,0,.65-.29-.2-.38-.53S176.34,199.69,176.46,199.66Z"/><path class="cls-6" d="M161.81,341c.11,0,.22.26.24.59s-.06.62-.18.62-.23-.26-.24-.59S161.69,341,161.81,341Z"/><path class="cls-6" d="M161.61,336.12c.11,0,.23.54.25,1.21s0,1.21-.16,1.22-.23-.54-.26-1.21S161.49,336.13,161.61,336.12Z"/><path class="cls-6" d="M161.46,331.28c.11,0,.22.54.24,1.21s-.06,1.21-.17,1.21-.23-.53-.25-1.2S161.34,331.29,161.46,331.28Z"/><path class="cls-6" d="M161.33,326.44c.12,0,.23.53.25,1.2s-.07,1.22-.19,1.22-.22-.54-.24-1.21S161.22,326.44,161.33,326.44Z"/><path class="cls-6" d="M161.22,321.59c.12,0,.22.54.24,1.21s-.07,1.21-.18,1.21-.23-.53-.24-1.2S161.1,321.59,161.22,321.59Z"/><path class="cls-6" d="M161.09,316.74c.12,0,.23.54.25,1.21s-.06,1.21-.18,1.22-.23-.54-.25-1.21S161,316.75,161.09,316.74Z"/><path class="cls-6" d="M160.93,311.9c.12,0,.23.53.26,1.2s-.05,1.22-.17,1.22-.23-.54-.26-1.2S160.82,311.9,160.93,311.9Z"/><path class="cls-6" d="M160.73,307.05c.12,0,.23.54.26,1.21s0,1.21-.16,1.22-.23-.54-.26-1.21S160.61,307.06,160.73,307.05Z"/><path class="cls-6" d="M160.54,302.21c.12,0,.23.54.26,1.2s-.05,1.22-.17,1.22-.23-.53-.25-1.2S160.42,302.22,160.54,302.21Z"/><path class="cls-6" d="M160.37,297.37c.12,0,.23.53.25,1.2s-.05,1.22-.17,1.22-.23-.53-.25-1.2S160.25,297.37,160.37,297.37Z"/><path class="cls-6" d="M160.22,292.52c.12,0,.23.54.25,1.21s-.06,1.21-.18,1.21-.22-.53-.24-1.2S160.11,292.52,160.22,292.52Z"/><path class="cls-6" d="M160.1,287.68c.11,0,.22.53.24,1.2s-.07,1.22-.18,1.22-.23-.54-.24-1.21S160,287.68,160.1,287.68Z"/><path class="cls-6" d="M160,282.83c.12,0,.23.54.24,1.21s-.07,1.21-.19,1.21-.22-.53-.23-1.2S159.88,282.83,160,282.83Z"/><path class="cls-6" d="M159.91,278c.12,0,.22.54.23,1.2s-.07,1.22-.19,1.22-.22-.54-.23-1.21S159.79,278,159.91,278Z"/><path class="cls-6" d="M159.85,273.14c.12,0,.22.54.23,1.21s-.08,1.21-.2,1.21-.22-.54-.23-1.21S159.74,273.14,159.85,273.14Z"/><path class="cls-6" d="M159.82,268.29c.11,0,.21.55.22,1.21s-.09,1.22-.21,1.22-.21-.54-.22-1.21S159.7,268.3,159.82,268.29Z"/><path class="cls-6" d="M159.81,263.45c.11,0,.21.54.21,1.21s-.09,1.21-.21,1.21-.21-.54-.21-1.21S159.69,263.45,159.81,263.45Z"/><path class="cls-6" d="M159.82,258.6c.12,0,.21.55.21,1.21s-.1,1.22-.22,1.22-.21-.55-.21-1.22S159.7,258.6,159.82,258.6Z"/><path class="cls-6" d="M159.86,253.76c.12,0,.21.54.2,1.21s-.11,1.21-.22,1.21-.21-.54-.2-1.21S159.74,253.76,159.86,253.76Z"/><path class="cls-6" d="M159.92,248.91c.12,0,.21.55.2,1.22s-.12,1.21-.23,1.2-.21-.54-.2-1.21S159.81,248.91,159.92,248.91Z"/><path class="cls-6" d="M160,244.07c.12,0,.2.54.19,1.21s-.12,1.21-.24,1.21-.2-.55-.19-1.22S159.89,244.06,160,244.07Z"/><path class="cls-6" d="M160.12,239.22c.11,0,.2.55.18,1.22s-.12,1.21-.24,1.2-.2-.54-.18-1.21S160,239.22,160.12,239.22Z"/><path class="cls-6" d="M160.29,234.37c.12,0,.19.55.16,1.22s-.14,1.21-.26,1.2-.19-.55-.16-1.22S160.17,234.37,160.29,234.37Z"/><path class="cls-6" d="M160.57,229.53c.12,0,.18.56.13,1.22s-.17,1.21-.29,1.2-.17-.56-.13-1.22S160.45,229.52,160.57,229.53Z"/><path class="cls-6" d="M161,224.7c.12,0,.16.57.09,1.23s-.21,1.2-.33,1.18-.16-.56-.09-1.22S160.9,224.69,161,224.7Z"/><path class="cls-6" d="M161.48,221.1c.12,0,.17.3.13.64s-.18.59-.3.57-.17-.3-.12-.63S161.37,221.08,161.48,221.1Z"/><polygon class="cls-6" points="143.18 342.4 166.25 342.78 166.07 338.94 143.18 339.06 143.18 342.4"/><path class="cls-6" d="M158.31,198.2a3.46,3.46,0,0,1,.14.89c.06.57.13,1.4.22,2.43.16,2,.36,4.89.56,8,.09,1.57.17,3.06.25,4.43a13.33,13.33,0,0,0,.43,3.54,3,3,0,0,0,1.47,1.75,6.07,6.07,0,0,0,.84.24s-.08,0-.24,0a1.78,1.78,0,0,1-.67-.12,3.13,3.13,0,0,1-1.69-1.8,13.23,13.23,0,0,1-.53-3.62c-.09-1.37-.18-2.86-.29-4.42-.19-3.14-.34-6-.43-8-.05-1-.08-1.87-.09-2.44A3.52,3.52,0,0,1,158.31,198.2Z"/><path class="cls-6" d="M160.55,200.13c0,.05-.18.2-.2.54a.64.64,0,0,0,.17.5.52.52,0,0,0,.57.07.53.53,0,0,0,.35-.45.64.64,0,0,0-.22-.47c-.26-.24-.51-.19-.53-.25s.27-.25.7,0a.91.91,0,1,1-1.34.55C160.19,200.14,160.55,200.07,160.55,200.13Z"/><path class="cls-6" d="M181.08,203.57a4,4,0,0,1-1.81.69,7.64,7.64,0,0,1-8.13-3.63,4.32,4.32,0,0,1-.7-1.81c.07,0,.3.68.95,1.65a8,8,0,0,0,7.83,3.5C180.38,203.81,181.06,203.5,181.08,203.57Z"/><path class="cls-6" d="M144.8,198.2a3.12,3.12,0,0,1-.08,1.57,6.19,6.19,0,0,1-5.45,4.78,3.1,3.1,0,0,1-1.57-.13c0-.07.6,0,1.53-.17a6.48,6.48,0,0,0,5.2-4.56C144.71,198.8,144.73,198.2,144.8,198.2Z"/><path class="cls-9" d="M206.59,182.66a13.62,13.62,0,0,0-.07-17.95L184.77,140l-5.83,16.28c.4.26,16.94,18,16.94,18L181.67,192a10.19,10.19,0,0,0-1.69,9.7l3.8,9.3,10.4-4.67-.79-1.21h-7.81l-.46-1.87h0Z"/><path class="cls-6" d="M116.76,97.91s3.41,4,6.94-.76c2.77-3.75,3.36-8.4,1.14-10.36l.73-.49s3.71,2.41,2,7.66-5.28,8-7.85,7.54a4.31,4.31,0,0,1-3.24-3.09l.25-.76"/><path class="cls-9" d="M139.09,136.89s-21.83,9-21.33,8.41l-.55-26.78h-8.55s-6.07,35.33.44,39.49c8.91,5.68,30.48-6.15,30.48-6.15Z"/><polyline class="cls-9" points="115.47 107.64 115.43 107.92 113.8 119.59 108.66 118.52 109.32 111.81"/><path class="cls-9" d="M117.07,106.48l-3.55,12.64,3.16.63s.45-.93,1.48-3.67A8.17,8.17,0,0,0,118,110s2.87-6.48,1.76-6.77S117.07,106.48,117.07,106.48Z"/><path class="cls-3" d="M119.84,101.26c-.19.55-7.8,19.37-7.8,19.37l-1.9-1.07,7.65-20Z"/><path class="cls-9" d="M108.9,117.53s-.93-5.54.09-7.25c.36-.62,5.6-7.84,6-7.61s2.65,6.63,1.44,6.84a1.6,1.6,0,0,1-1.68-1.06s1.57,3.94.47,4-2-2.37-2-2.37,2.33,4.64.87,4.88-3.46-3.57-3.46-3.57Z"/><path class="cls-10" d="M113.71,105.25a9.67,9.67,0,0,1,1.17,2.57,6.24,6.24,0,0,0,.39,1,1.33,1.33,0,0,0,.54.56c.41.23.74.2.74.27s-.33.2-.87,0a1.52,1.52,0,0,1-.75-.63,5.1,5.1,0,0,1-.45-1A9.73,9.73,0,0,1,113.71,105.25Z"/><path class="cls-10" d="M112.1,107c.12,0,.87,2.12,2.14,4.62.15.32.3.6.52.68s.4,0,.47-.26a2.64,2.64,0,0,0,0-.8c0-.26,0-.51-.07-.74-.12-.9-.31-1.44-.25-1.46a3.17,3.17,0,0,1,.55,1.41,7.59,7.59,0,0,1,.12.76,2.91,2.91,0,0,1,0,.93.8.8,0,0,1-.35.5.71.71,0,0,1-.65,0,1.57,1.57,0,0,1-.75-.87A16.46,16.46,0,0,1,112.1,107Z"/><path class="cls-10" d="M110.7,109.72a6.82,6.82,0,0,1,.87,1.39l.85,1.56.49.92a4.55,4.55,0,0,0,.54.92.54.54,0,0,0,.72.17.83.83,0,0,0,.27-.75,14,14,0,0,0-.53-1.65,6,6,0,0,1-.44-1.58,6.53,6.53,0,0,1,.72,1.48c.11.24.22.5.33.76a4.16,4.16,0,0,1,.3.94,1.2,1.2,0,0,1-.4,1.13.84.84,0,0,1-.7.15,1.2,1.2,0,0,1-.59-.36,5.21,5.21,0,0,1-.59-1l-.47-.94c-.26-.56-.52-1.09-.76-1.59A5.72,5.72,0,0,1,110.7,109.72Z"/><path class="cls-3" d="M120.25,102.1a4.54,4.54,0,0,1-1.84-.39,5.47,5.47,0,0,1-3-4.32,11.13,11.13,0,0,1,.92-6.34,11.27,11.27,0,0,1,4.07-5,5.09,5.09,0,0,1,8.25,3.64,11.25,11.25,0,0,1-.93,6.35C126.1,99.74,123,102.1,120.25,102.1Zm3.49-15.44a4.75,4.75,0,0,0-2.47.81A10.33,10.33,0,0,0,117,97.11a4,4,0,0,0,2.07,3.12c2.28,1,5.56-1.19,7.16-4.8A9.56,9.56,0,0,0,127,90,3.92,3.92,0,0,0,125,86.91,3,3,0,0,0,123.74,86.66Z"/><path class="cls-4" d="M196.28,150.47l-13.74-13.85h0a24.42,24.42,0,0,0-9.49-6.14,19.3,19.3,0,0,0-6-1.14h0a23.85,23.85,0,0,1-14.36,0,34.24,34.24,0,0,0-11.33,3.24h0l-20.52,8.32,6.57,18.14,11-3.7.66,17.06-2.18,25.52,42.59.44L179,175.22l0-16.74,6.14,6Z"/><path class="cls-3" d="M184.72,140.25a7.46,7.46,0,0,1-.6.93,13.58,13.58,0,0,1-2.19,2.3,13.87,13.87,0,0,1-4.41,2.44,13.13,13.13,0,0,1-6.63.42,13.56,13.56,0,0,1-7.12-3.74,7.12,7.12,0,0,1-1.27-1.86,3.93,3.93,0,0,1-.37-2.33,2.54,2.54,0,0,1,1.51-1.9,3.38,3.38,0,0,1,2.5,0,3.76,3.76,0,0,1,2,1.65,4.87,4.87,0,0,1,.53,2.55,8.93,8.93,0,0,1-2,4.87,13.3,13.3,0,0,1-9.6,5,12.38,12.38,0,0,1-5.54-.91,8.56,8.56,0,0,1-4.2-3.48,5.49,5.49,0,0,1-.23-5.2,4.11,4.11,0,0,1,4.47-2,3.23,3.23,0,0,1,2,1.52,4.2,4.2,0,0,1,.55,2.36,4.8,4.8,0,0,1-2.41,3.77,7.75,7.75,0,0,1-4.09,1.1,16.91,16.91,0,0,1-3.86-.5,18.54,18.54,0,0,1-6.23-2.38,8.2,8.2,0,0,1-3.21-3.83,6,6,0,0,1-.39-3.15,3.57,3.57,0,0,1,.31-1.06s-.13.36-.23,1.07a6.23,6.23,0,0,0,.46,3.07,8.17,8.17,0,0,0,3.19,3.71,18.44,18.44,0,0,0,6.16,2.27,16.68,16.68,0,0,0,3.8.47,7.44,7.44,0,0,0,3.9-1.06,4.47,4.47,0,0,0,2.23-3.5,3.87,3.87,0,0,0-.51-2.15,2.84,2.84,0,0,0-1.75-1.33,3.71,3.71,0,0,0-4,1.85,5.11,5.11,0,0,0,.23,4.81,8.26,8.26,0,0,0,4,3.3,12,12,0,0,0,5.35.87,13,13,0,0,0,9.31-4.83,8.52,8.52,0,0,0,1.91-4.64,4.35,4.35,0,0,0-.47-2.34A3.37,3.37,0,0,0,166,136.9a3,3,0,0,0-2.21,0,2.18,2.18,0,0,0-1.29,1.62,3.52,3.52,0,0,0,.33,2.11,6.74,6.74,0,0,0,1.2,1.77,13.31,13.31,0,0,0,6.92,3.69,12.9,12.9,0,0,0,6.5-.36,13.72,13.72,0,0,0,4.37-2.34,13.52,13.52,0,0,0,2.23-2.23C184.5,140.56,184.7,140.23,184.72,140.25Z"/><path class="cls-3" d="M177.76,176.38a4.25,4.25,0,0,1-.84.41,6.53,6.53,0,0,1-2.67.35,9.16,9.16,0,0,1-4-1.33,22.15,22.15,0,0,1-4.33-3.61,6.26,6.26,0,0,1-1.72-2.83,3.56,3.56,0,0,1,.09-1.8,2.57,2.57,0,0,1,1.19-1.47,2.37,2.37,0,0,1,2-.09,4,4,0,0,1,1.63,1.15,5.64,5.64,0,0,1,1.26,3.86,7,7,0,0,1-1.45,4,8,8,0,0,1-3.67,2.54,10.05,10.05,0,0,1-4.6.42,13.35,13.35,0,0,1-4.49-1.56,16.93,16.93,0,0,1-3.79-2.86,6.28,6.28,0,0,1-2-4.17,4.1,4.1,0,0,1,.57-2.24,3.59,3.59,0,0,1,1.76-1.44,4.38,4.38,0,0,1,4.19.66,5,5,0,0,1,1.71,3.68,5.77,5.77,0,0,1-1.15,3.66A8.74,8.74,0,0,1,151.5,177c-4.18.46-7.64-.48-9.56-1.84a5.58,5.58,0,0,1-1.82-2,3,3,0,0,1-.28-.64c-.06-.15-.08-.22-.07-.22s.11.3.42.82A5.78,5.78,0,0,0,142,175c1.9,1.28,5.34,2.16,9.43,1.67a8.37,8.37,0,0,0,5.66-3.18,5.44,5.44,0,0,0,1.07-3.44,4.61,4.61,0,0,0-1.58-3.39,4,4,0,0,0-3.8-.58,3.14,3.14,0,0,0-1.56,1.27,3.7,3.7,0,0,0-.5,2,5.88,5.88,0,0,0,1.85,3.89,16.7,16.7,0,0,0,3.69,2.78,12.84,12.84,0,0,0,4.34,1.51,9.38,9.38,0,0,0,4.41-.4,7.53,7.53,0,0,0,3.48-2.39A6.61,6.61,0,0,0,169.9,171a5.29,5.29,0,0,0-1.15-3.61,3.67,3.67,0,0,0-1.47-1.05,2.06,2.06,0,0,0-1.67.06,2.67,2.67,0,0,0-1.12,2.9,6,6,0,0,0,1.62,2.68,22.07,22.07,0,0,0,4.23,3.61,8.88,8.88,0,0,0,3.93,1.37,6.61,6.61,0,0,0,2.62-.26C177.47,176.52,177.75,176.36,177.76,176.38Z"/></g></svg>