<svg xmlns="http://www.w3.org/2000/svg" viewBox="0 0 360 360"><defs><style>.cls-1{isolation:isolate;}.cls-2{fill:#f5f5f5;}.cls-3{fill:#e1e1e1;}.cls-4{fill:#054641;}.cls-13,.cls-14,.cls-5,.cls-9{fill:#fff;}.cls-6{fill:#376b67;}.cls-7{fill:#00dfdf;}.cls-14,.cls-8{opacity:0.2;}.cls-28,.cls-9{opacity:0.5;}.cls-10{fill:#fafafa;}.cls-11{opacity:0.15;}.cls-12{opacity:0.07;}.cls-13{opacity:0.35;}.cls-15{fill:#ffa8a7;}.cls-16{fill:#455a64;}.cls-17{fill:#37474f;}.cls-18{opacity:0.3;}.cls-19{fill:#02dfdf;}.cls-20{opacity:0.6;}.cls-21{fill:#263238;}.cls-22{fill:#f28f8f;}.cls-23{fill:#191919;}.cls-24{fill:#d15b66;}.cls-25{fill:#ffbda7;}.cls-26{opacity:0.8;}.cls-27{opacity:0.1;}.cls-28{mix-blend-mode:multiply;}.cls-29{fill:#f0997a;}</style></defs><title>process-illustration</title><g class="cls-1"><g id="Layer_12" data-name="Layer 12"><ellipse id="Floor" class="cls-2" cx="180" cy="249.91" rx="176.94" ry="106.09"/><path id="Shadow" class="cls-3" d="M61.65,288.91l50.07,28.91a7,7,0,0,0,6.33,0l97.58-56.34c1.75-1,1.75-2.64,0-3.65l-50.08-28.91a7,7,0,0,0-6.33,0L61.65,285.25C59.9,286.26,59.9,287.9,61.65,288.91Z"/><ellipse id="Shadow-2" data-name="Shadow" class="cls-3" cx="280.03" cy="289.49" rx="42.67" ry="24.63"/><ellipse id="Shadow-3" data-name="Shadow" class="cls-3" cx="69.25" cy="235.44" rx="41.81" ry="24.14"/><g id="Plants"><path class="cls-4" d="M201.6,232.22s1.4-14.82,8.53-26.43,17.11-19,26.52-19.89,17.19,7.6,7.22,13.75-27.78,12.57-35.6,35Z"/><path class="cls-5" d="M204.29,228.32l-.1,0a.5.5,0,0,1-.29-.65c9.48-24.69,28.23-35.29,36.81-37.44a.51.51,0,1,1,.25,1c-8.41,2.11-26.79,12.51-36.12,36.82A.5.5,0,0,1,204.29,228.32Z"/><path class="cls-6" d="M203.93,240.65c0-1.2.1-2.4.12-3.6,0-.86-.19-1.66-.16-2.54a9.22,9.22,0,0,1,1.57-5.48,14.35,14.35,0,0,1,3.63-3,14.43,14.43,0,0,0,3.63-3c.63-.81,1.08-1.76,1.66-2.61a10.76,10.76,0,0,1,8.72-4.59,12.63,12.63,0,0,1,5.05.94,15,15,0,0,0,5.64,1.58c2.92,0,5.8-.71,8.77-.4a10.39,10.39,0,0,1,7.9,4.49,5.47,5.47,0,0,1,.57,5.15c-.87,1.79-2.88,2.66-4.75,3.34s-3.9,1.4-5,3.08c-2.12,3.4,1,8.38-1.28,11.68a6.18,6.18,0,0,1-4.32,2.31,38.75,38.75,0,0,1-4.18.22,15.83,15.83,0,0,1-2-.22,9,9,0,0,0-5.76.41c-2.81,1.45-3.78,4.9-5.55,7.52a13.08,13.08,0,0,1-9.48,5.49c-3.14.3-7.8-.56-8.55-2-.58-1.07,1.36-4.17,1.44-5.38a50.5,50.5,0,0,1,1.51-9.23A17.64,17.64,0,0,0,203.93,240.65Z"/><path class="cls-5" d="M203.07,251.81h0a.44.44,0,0,1-.29-.56c8.19-26.89,36.93-29.79,43.61-29.07a.44.44,0,0,1,.39.49.45.45,0,0,1-.49.4c-6.53-.71-34.64,2.14-42.66,28.44A.44.44,0,0,1,203.07,251.81Z"/><path class="cls-5" d="M235.33,239.18a.49.49,0,0,1-.23-.13,23.75,23.75,0,0,0-19.27-6.17.45.45,0,0,1-.49-.4.45.45,0,0,1,.39-.49,24.72,24.72,0,0,1,20,6.45.44.44,0,0,1,0,.63A.43.43,0,0,1,235.33,239.18Z"/></g><g id="Plants-2" data-name="Plants"><path class="cls-4" d="M160.65,218.45c-.28-17.41-11.34-52.75-33.92-47-4.9,1.26-9.13,7.21-2.46,13.35,5.4,5,11,9.9,15.67,15.63,4.94,6,6.14,13.89,8.85,21.15,1.14,3.06,3,6.66,6.28,6.69a5.47,5.47,0,0,0,4.68-3.4,14.2,14.2,0,0,0,.91-6C160.66,218.75,160.66,218.6,160.65,218.45Z"/><path class="cls-5" d="M152.83,220a.57.57,0,0,1-.51-.63c3.33-21.9-17.1-40.88-21.78-43.35a.57.57,0,0,1,.53-1c4.83,2.55,25.34,21.22,22.4,44.48a.59.59,0,0,1-.63.52Z"/><path class="cls-6" d="M148.57,212.85c0-.31,0-.63,0-.95,0-3.28-.81-6.88-3.44-8.84-2.23-1.66-5.23-1.72-7.94-2.35-3.77-.87-7.14-2.9-10.69-4.43s-7.58-2.58-11.25-1.36c-2,.66-3.87,2.24-3.94,4.32a5,5,0,0,0,.63,2.41c1.42,2.81,4.17,4.68,6.86,6.35a12.62,12.62,0,0,1,2.78,2.08,4.15,4.15,0,0,1,1.23,3.15,6.68,6.68,0,0,1-1.2,2.68,8.43,8.43,0,0,0-1.64,4.32c0,2.76,2.39,4.94,4.89,6.12s5.29,1.77,7.52,3.4A4.91,4.91,0,0,1,134,231.6a8.19,8.19,0,0,1,.4,3.63c0,2.46.68,5.15,2.69,6.57a10,10,0,0,0,5.18,1.33c3.7.27,6.85-3.12,8.82-6.06a23.4,23.4,0,0,0,3.11-8c.73-3.25,1.27-7.94-1.41-10.48-1.25-1.18-3-1.89-3.8-3.44A5.43,5.43,0,0,1,148.57,212.85Z"/><path class="cls-5" d="M146,234.55a.45.45,0,0,1-.33-.41c-.76-14.75-19.46-32.86-27.15-36.55a.46.46,0,0,1-.22-.61.47.47,0,0,1,.62-.22c7.83,3.76,26.89,22.24,27.67,37.33a.45.45,0,0,1-.43.48A.41.41,0,0,1,146,234.55Z"/><path class="cls-5" d="M128.27,221.43a.49.49,0,0,1-.3-.28.46.46,0,0,1,.26-.59,23.23,23.23,0,0,1,13.43-.36h0a.46.46,0,1,1-.25.88,22.55,22.55,0,0,0-12.85.34A.51.51,0,0,1,128.27,221.43Z"/></g><g id="Speach_Bubble" data-name="Speach Bubble"><path class="cls-7" d="M288.93,62.58l4.12-7.75-3.32-9.57V39.4l10.16,5.86v5.86l-4.37,7.56a.58.58,0,0,1-.3.26h0Z"/><path class="cls-8" d="M288.93,62.58l4.12-7.75-3.32-9.57V39.4l10.16,5.86v5.86l-4.37,7.56a.58.58,0,0,1-.3.26h0Z"/><path class="cls-7" d="M267,10.74a6.72,6.72,0,0,1,3-5.27l1.12-.67a6.72,6.72,0,0,1,6.08,0l38,22a6.73,6.73,0,0,1,3,5.28V57.24a6.72,6.72,0,0,1-3,5.27l-1.12.66a6.65,6.65,0,0,1-6.08,0l-14.49-8.36-4.35,7.54a.65.65,0,0,1-1.18-.11L283.38,49,270,41.19a6.72,6.72,0,0,1-3-5.27Z"/><path class="cls-8" d="M318.24,57.24a6.72,6.72,0,0,1-3,5.27l-1.12.66a6.77,6.77,0,0,1-5.56.25c1.43.54,2.52-.27,2.52-2V36.24a6.19,6.19,0,0,0-.89-3l7.2-4.18a6.22,6.22,0,0,1,.89,3Z"/><path class="cls-9" d="M267.05,9.87c.35-1.29,1.53-1.7,2.94-.89l38,22a6,6,0,0,1,2.14,2.27l7.2-4.18a6.1,6.1,0,0,0-2.14-2.27l-38-22a6.8,6.8,0,0,0-6.09,0L270,5.47A6.68,6.68,0,0,0,267.05,9.87Z"/><path class="cls-10" d="M277,22.56a7.27,7.27,0,0,1,2.72,2.71,7.6,7.6,0,0,1,.74,1.88,9.25,9.25,0,0,1,.26,2.22,5.06,5.06,0,0,1-.41,2.29,1.5,1.5,0,0,1-1.16.87l1.64,5.78a1.41,1.41,0,0,1,0,.25.37.37,0,0,1-.09.27.15.15,0,0,1-.2,0l-1.8-1a.86.86,0,0,1-.38-.4c-.07-.16-.13-.32-.18-.47l-1.46-5.2-1.22-.7v4.35a.45.45,0,0,1-.1.33.2.2,0,0,1-.25,0l-1.73-1a.68.68,0,0,1-.26-.31A1,1,0,0,1,273,34V20.84a.45.45,0,0,1,.1-.33.21.21,0,0,1,.26,0Zm-1.5,5.3,1.5.86a1.17,1.17,0,0,0,.91.21c.25-.08.37-.4.37-1a2.36,2.36,0,0,0-.37-1.39,2.67,2.67,0,0,0-.91-.86l-1.5-.86Z"/><path class="cls-10" d="M285.1,29.24a.45.45,0,0,1-.11.33.19.19,0,0,1-.25,0l-1.66-1a.67.67,0,0,1-.25-.31,1.06,1.06,0,0,1-.11-.45V25.82a.45.45,0,0,1,.11-.33.19.19,0,0,1,.25,0l1.66,1a.67.67,0,0,1,.25.31,1.06,1.06,0,0,1,.11.45Zm0,11.7a.43.43,0,0,1-.11.32.18.18,0,0,1-.25,0l-1.66-1a.67.67,0,0,1-.25-.31,1.06,1.06,0,0,1-.11-.45V30.09a.45.45,0,0,1,.11-.33.19.19,0,0,1,.25,0l1.66,1A.67.67,0,0,1,285,31a1.06,1.06,0,0,1,.11.45Z"/><path class="cls-10" d="M291.18,41.82a.88.88,0,0,0-.1-.4,1.85,1.85,0,0,0-.34-.4c-.16-.14-.37-.32-.63-.52l-1-.81a6,6,0,0,1-2.09-4.58,2.62,2.62,0,0,1,.23-1.15,1.49,1.49,0,0,1,.63-.68,1.6,1.6,0,0,1,1-.14,3.54,3.54,0,0,1,1.27.48,5.61,5.61,0,0,1,1.26,1,7.67,7.67,0,0,1,1,1.23,6.12,6.12,0,0,1,.66,1.3,3.92,3.92,0,0,1,.28,1.18.42.42,0,0,1-.1.33.2.2,0,0,1-.26,0l-1.57-.9a.59.59,0,0,1-.23-.24l-.21-.34a2.55,2.55,0,0,0-.31-.4,2.38,2.38,0,0,0-.53-.41,1.08,1.08,0,0,0-.51-.17c-.14,0-.21.12-.21.32a.94.94,0,0,0,.07.39,1,1,0,0,0,.26.34c.13.13.32.28.56.48l.94.76A6.21,6.21,0,0,1,293,40.75a6.29,6.29,0,0,1,.54,2.49,2.7,2.7,0,0,1-.22,1.16,1.35,1.35,0,0,1-.66.67,1.74,1.74,0,0,1-1.06.11,4,4,0,0,1-1.41-.55,6,6,0,0,1-1.39-1.08,7.44,7.44,0,0,1-1-1.28,6.37,6.37,0,0,1-.62-1.3,4.13,4.13,0,0,1-.25-1.14.41.41,0,0,1,.1-.33.21.21,0,0,1,.26,0l1.64.95a.52.52,0,0,1,.21.23,3.57,3.57,0,0,0,.17.34,2.15,2.15,0,0,0,.9.88,1.44,1.44,0,0,0,.69.23C291.08,42.13,291.18,42,291.18,41.82Z"/><path class="cls-10" d="M297.44,44.48a2.76,2.76,0,0,0,.11.84,3,3,0,0,0,.28.65,2.4,2.4,0,0,0,.39.48,2.14,2.14,0,0,0,.41.3,1.32,1.32,0,0,0,.62.24.51.51,0,0,0,.39-.12,1.08,1.08,0,0,1,.21-.11s.12,0,.23.08l1.72,1a.66.66,0,0,1,.29.62,1.46,1.46,0,0,1-.2.62,1.79,1.79,0,0,1-.62.67,1.91,1.91,0,0,1-1.07.28,3.24,3.24,0,0,1-1.57-.52,6,6,0,0,1-1.53-1.26A7.35,7.35,0,0,1,296,46.51a8.86,8.86,0,0,1-.69-2.13,12.68,12.68,0,0,1-.23-2.43,8.22,8.22,0,0,1,.23-2.05,2.92,2.92,0,0,1,.69-1.35,1.62,1.62,0,0,1,1.12-.5,2.91,2.91,0,0,1,1.53.47A5.52,5.52,0,0,1,300.27,40a8.87,8.87,0,0,1,1.11,1.94A10,10,0,0,1,302,44a12,12,0,0,1,.19,2.08v.57a.42.42,0,0,1-.1.32.18.18,0,0,1-.25,0Zm1.19-3.22c-.37-.21-.66-.2-.85,0a1.63,1.63,0,0,0-.34.94l2.38,1.38a4.51,4.51,0,0,0-.35-1.34A2,2,0,0,0,298.63,41.26Z"/><path class="cls-10" d="M306.47,48.9a.45.45,0,0,1-.1.33.2.2,0,0,1-.25,0l-1.67-1a.67.67,0,0,1-.25-.31,1,1,0,0,1-.1-.45V38.77a.45.45,0,0,1,.1-.33.19.19,0,0,1,.25,0l1.67,1a.74.74,0,0,1,.25.31,1,1,0,0,1,.1.45Zm0,4.38a.42.42,0,0,1-.1.32.18.18,0,0,1-.25,0l-1.67-1a.67.67,0,0,1-.25-.31,1,1,0,0,1-.1-.45v-2a.45.45,0,0,1,.1-.33.19.19,0,0,1,.25,0l1.67,1a.68.68,0,0,1,.25.31,1,1,0,0,1,.1.44Z"/></g><g id="Arrow"><path class="cls-7" d="M204,108.83V222c0,21.35-8.91,39.42-29.69,51.42l-59.37,34.28v6.85l65.31-37.7C204,263.08,209.89,243.3,209.89,222V112.88Z"/><path class="cls-11" d="M204,108.83V222c0,21.35-8.91,39.42-29.69,51.42l-59.37,34.28v6.85l65.31-37.7C204,263.08,209.89,243.3,209.89,222V112.88Z"/><polygon class="cls-7" points="67.39 280.22 114.89 307.65 114.89 314.5 67.39 287.08 67.39 280.22"/><polygon class="cls-12" points="67.39 280.22 114.89 307.65 114.89 314.5 67.39 287.08 67.39 280.22"/><path class="cls-7" d="M156.45,81.4V200.46A49.1,49.1,0,0,1,131.9,243L67.39,280.22l47.5,27.43L179.4,270.4A49.1,49.1,0,0,0,204,227.88v-119Z"/><polygon class="cls-7" points="135.67 72.83 227.7 125.97 180.2 26.56 135.67 72.83"/><polygon class="cls-7" points="227.7 125.97 233.63 122.54 186.13 23.13 180.2 26.56 227.7 125.97"/><polygon class="cls-9" points="227.7 125.97 233.63 122.54 186.13 23.13 180.2 26.56 227.7 125.97"/><path class="cls-13" d="M185.56,266.18l-47.5-27.42A50,50,0,0,1,131.9,243L67.39,280.22l47.5,27.43L179.4,270.4A48.91,48.91,0,0,0,185.56,266.18Z"/><path class="cls-14" d="M155.06,212a49.15,49.15,0,0,1-17,26.73l47.5,27.42a49.1,49.1,0,0,0,17.65-29.82Z"/></g><g id="Character"><polygon class="cls-15" points="304.42 285.06 296.56 285.06 295.6 270.76 304.42 271.05 304.42 285.06"/><polygon class="cls-15" points="280.32 272.65 272.15 272.94 271.02 257.54 280.32 257.23 280.32 272.65"/><path class="cls-16" d="M304.88,160.25c1.58,18.39,0,63.41,0,63.41.17,2,2.34,10.1,1.95,17.73-.53,10.37-2.28,35.83-2.28,35.83s-4.62,2.08-9,.19c0,0-5.09-38.12-6.33-48.4-1.09-9-3.15-34.67-3.15-34.67l-3.78,27.71a42.68,42.68,0,0,1,.86,11.49c-.32,4.75-2.67,32.79-2.67,32.79a12.27,12.27,0,0,1-9.13.72s-4.48-40.74-4.56-45.1c-.09-5,1.75-51.21,1.75-51.21Z"/><path class="cls-17" d="M296.31,281.37l-.11-1.66c-1,0-2.13,5.93-6.86,11-2.33,2.5-6.46,6.16-7.32,8.78s3.49,4.16,8,3.57c2.71-.36,7.58-2.84,8.75-4.67s1.72-4.53,2.67-5.87,4.12-3.92,4.64-5.47c.28-.86-.05-2.72-.45-4.3s-.76-3-1.24-2.9v.89a6,6,0,0,1-3.92,1.38C299.34,282.17,296.3,282.28,296.31,281.37Z"/><path class="cls-17" d="M272,270.19c-.42,0-.65.76-1.59,1.82-1.13,1.27-4.78,3.47-6.61,4.42-3.06,1.6-9,4.05-11.7,5.32-1.68.79-1.6,2.9.13,4.11s5.94,2.07,11,.89c2.75-.63,6.17-2.61,8.58-3.13,2.22-.49,8.3-.72,10-1.92s1-3.76.53-6c-.51-2.4-1.16-6.14-1.92-6v.83c-1,1.55-6.1,2.18-8.26,1Z"/><path class="cls-17" d="M285.33,187.85a23,23,0,0,1-8.92-5.53s.71,3.52,7.39,7l-1.16,30.2,3.45-25.2Z"/><path class="cls-15" d="M261.75,111.76c1.09,2.72,12.32,25.65,15.53,30.25,8.9-3.93,4.93-20.58,4.93-20.58-6-8.54-9.29-13.4-10.61-16a11.92,11.92,0,0,1-.83-3.68c-.18-1.36-1.49-18-.74-23.09a3.71,3.71,0,0,1,1.3-2.28c1.86-1.55,2.5-3,3.81-4.78,1-1.42,2-1.88,1.79-2.25a2,2,0,0,0-2.65-.55,14.31,14.31,0,0,0-2.67,2,18.69,18.69,0,0,1,2.25-5.48c2.37-3.89,2.2-6.06-3.56-5.31-3.61.46-7.11,3.32-8.72,11.64a72.78,72.78,0,0,0-.67,9.1c-.32,7-1,18.26-.77,23.13A23.84,23.84,0,0,0,261.75,111.76Z"/><path class="cls-7" d="M284.16,121.69c-3-.87-11.13-14-11.13-14-2.78-.54-10.72,5.83-9.76,9,3.18,7.37,7.54,14.41,8.36,19,.85,2.64,4.28,1,6.33-4C280.83,124.63,286.61,122.39,284.16,121.69Z"/><path class="cls-18" d="M284.16,121.69c-3-.87-11.13-14-11.13-14-2.78-.54-10.72,5.83-9.76,9,3.18,7.37,7.54,14.41,8.36,19,.85,2.64,4.28,1,6.33-4C280.83,124.63,286.61,122.39,284.16,121.69Z"/><path class="cls-19" d="M307.66,134.81l-2.72,17.6L306,173.93c-10.19,4.77-27.35,5.34-37.59-2.9,0,0,0-29,3-39.44,2.14-7.44,7.06-12.46,12.33-12.3,5.57.18,12.72,1,12.72,1l6.09,1.63S307.78,132.17,307.66,134.81Z"/><path class="cls-7" d="M311.21,111.16c.7-.35,3.89,1.24,5.83,4s2.09,6.6,1.46,7.39-8.42-2.76-8.42-2.76Z"/><path class="cls-20" d="M311.21,111.16c.7-.35,3.89,1.24,5.83,4s2.09,6.6,1.46,7.39-8.42-2.76-8.42-2.76Z"/><path class="cls-15" d="M324,112.7c-1.16,2.69-15.35,21-18.66,25.57a14.63,14.63,0,0,1-2.5-14.83s10.36-13.93,12-16.44a5.79,5.79,0,0,0,.74-2.09c.23-1.36,1.61-10.53,1-15.59a3.73,3.73,0,0,0-1.26-2.3c-1.82-1.59-2.43-3-3.7-4.87-1-1.44-2-1.92-1.74-2.29a2,2,0,0,1,2.67-.49,13.6,13.6,0,0,1,2.62,2A18.28,18.28,0,0,0,313,75.86c-2.28-3.94-2.06-6.1,3.69-5.23,3.6.55,7,3.48,8.45,11.84a71.88,71.88,0,0,1,.47,9.11,155.68,155.68,0,0,1-.41,15.61A11.58,11.58,0,0,1,324,112.7Z"/><path class="cls-7" d="M300.51,121.44l10.7-10.28s-1,8.82,7.29,11.37L306.2,138.1c-1.42,2.37-5.32-.72-6.19-6.06C298.79,124.59,300.51,121.44,300.51,121.44Z"/><path class="cls-18" d="M300.51,121.44l10.7-10.28s-1,8.82,7.29,11.37L306.2,138.1c-1.42,2.37-5.32-.72-6.19-6.06C298.79,124.59,300.51,121.44,300.51,121.44Z"/><path class="cls-21" d="M292.33,93.43a9.1,9.1,0,1,1-8.65-9.51A9.08,9.08,0,0,1,292.33,93.43Z"/><path class="cls-21" d="M303.72,92.28a2.86,2.86,0,0,0-1.18-1.08c-.6-.28-1.41-.85-1.84-.14-.28.45-.14,1.23-.21,1.73-.24,1.75-.48,3.5-.73,5.25a6.78,6.78,0,0,0-.23,1.68l-1.72-1.56-.37,14.52a1.87,1.87,0,0,0,1.63-1.31c.67-1.61,1-3.31,1.51-4.77s1.32-3.53,1.88-5.07c.86-2.33,2-4,1.94-6.51a5.86,5.86,0,0,0-.4-2.19A4.07,4.07,0,0,0,303.72,92.28Z"/><path class="cls-15" d="M298.23,102.38c.6.41,1.55-.75,2.36-1.52s3.37-1.75,4.49,1-1.4,6.19-3.4,6.72c-3.46.91-3.87-1.3-3.87-1.3L297,120.75h0c-4.49,5.24-16.23,4.22-11.06-1.22l.19-4.61a21.8,21.8,0,0,1-4.61,0c-2.49-.51-4-2.56-4.6-5.31-1-4.41-1.32-7.95.12-16.47,1.58-9.34,12.51-8.92,18.23-4.93S298.23,102.38,298.23,102.38Z"/><path class="cls-21" d="M278.79,90.67a.52.52,0,0,1,.25.07.5.5,0,0,1,.16.22c.77,1.49,2.71,2,4.26,1.72a5.05,5.05,0,0,0,1.67-.59,3,3,0,0,0,1.14-1.31,3.77,3.77,0,0,0,3.32,1.76,5.71,5.71,0,0,0,3.56-1.48A2.73,2.73,0,0,0,294.79,94a5.41,5.41,0,0,0,1.88.25,2.4,2.4,0,0,0-.52,2.21A2.36,2.36,0,0,0,297.76,98a2.55,2.55,0,0,0-.52,1.57,9.86,9.86,0,0,0-.1,1.62c.08.5.32,2.2,1,2.24.31,0,1.6-1.9,2.41-2.57.41-.35.43-1.19.47-1.68a24.37,24.37,0,0,0,.05-3,5.67,5.67,0,0,1,.07-1.93c.22-.56.91-1,1.35-1.4a3.49,3.49,0,0,0,1.07-1.7,6.1,6.1,0,0,0-.45-4.28,5.4,5.4,0,0,0-2.26-2.46,3.51,3.51,0,0,0-3.26,0,5.38,5.38,0,0,0-2.75-4.6c-2-1.07-3.81-.48-5.73.28A5.91,5.91,0,0,0,284.5,78a5.58,5.58,0,0,0-4.13,2.8,5.48,5.48,0,0,0-5,.6,5,5,0,0,0-2,2.78,6.78,6.78,0,0,0-.19,1.55,5.24,5.24,0,0,0,.48,2.4,4.28,4.28,0,0,0,1.79,1.66A6.08,6.08,0,0,0,278.79,90.67Z"/><path class="cls-22" d="M286.09,114.92s5.64-.86,7.65-1.81a6.53,6.53,0,0,0,2.83-2.55,8.89,8.89,0,0,1-1.69,3.08c-1.51,1.77-8.86,2.77-8.86,2.77Z"/><path class="cls-21" d="M288.11,100.5a1.13,1.13,0,1,0,1.18-1.11A1.15,1.15,0,0,0,288.11,100.5Z"/><path class="cls-21" d="M289.5,96.33l2.34,1.43a1.44,1.44,0,0,0-.47-1.93A1.34,1.34,0,0,0,289.5,96.33Z"/><path class="cls-22" d="M286.91,108.21l-2.6.84A1.34,1.34,0,0,0,286,110,1.44,1.44,0,0,0,286.91,108.21Z"/><path class="cls-21" d="M278.27,96.73l2.27-1.58a1.33,1.33,0,0,0-1.89-.38A1.44,1.44,0,0,0,278.27,96.73Z"/><path class="cls-21" d="M278.8,99.75A1.13,1.13,0,1,0,280,98.63,1.14,1.14,0,0,0,278.8,99.75Z"/><polygon class="cls-22" points="284.57 98.95 283.88 105.68 280.42 104.31 284.57 98.95"/></g><g id="Character-2" data-name="Character"><path class="cls-23" d="M65.56,96.62H54.5v-49A16.42,16.42,0,0,1,70.92,31.16h0A16.42,16.42,0,0,1,87.33,47.58V74.85A21.77,21.77,0,0,1,65.56,96.62Z"/><path class="cls-24" d="M73.46,218.24a4.56,4.56,0,0,0,.67,2.63,33.53,33.53,0,0,0,4.34,5.7c2.33,2.49,5.8,5.44,8.29,7.61,1.38,1.21.38,3.22-1.6,3.86s-5.49,1.21-10-1.34c-3.75-2.15-5.74-7-8-8.34s-3.61-1.91-4.53-2.9c-1.35-1.46-1.36-3.06-.34-5,1.11-2.07,2.79-5.27,3.48-4.91l-.22.66c.55,1.69,5.16,3.66,7.52,3.19Z"/><path class="cls-25" d="M75.52,209.75c-.78,2.73-1.32,4.89-1.63,6.41a11.28,11.28,0,0,0-.25,3A4.85,4.85,0,0,0,74.3,221a32.82,32.82,0,0,0,4.35,5.51c1.13,1.21,2.36,2.64,3.79,3.92a1.2,1.2,0,0,1,.21.61c0,1.29-3.15,1.64-5,1.1a11.69,11.69,0,0,1-5.7-4.38c-1.06-1.41-3.45-4.14-5-6.18a10.32,10.32,0,0,1-1.33-2.05,4.25,4.25,0,0,1-.19-2.93l.1-.3a53.18,53.18,0,0,0,1.58-8.39"/><path class="cls-24" d="M62.19,229.7v-1.13a21.77,21.77,0,0,0,5.65,9.91c2.5,2.28,5.91,4.91,6.77,7.45s-4,3.68-7.25,3.36A13,13,0,0,1,59.24,245c-2.06-2.36-2-4-3-5.26s-3.17-2.75-3.69-4.25c-.28-.82.06-2.63.46-4.15s.76-2.94,1.24-2.81v.87a6.29,6.29,0,0,0,4,1.33C59.39,230.82,62.2,230.59,62.19,229.7Z"/><path class="cls-25" d="M69.74,240.17c-.65-.57-1.3-1.14-1.9-1.69a18.44,18.44,0,0,1-3.21-4.1A17.1,17.1,0,0,1,62.31,225c.08-2,.19-4.27.3-5.66l-9,1.32a60.28,60.28,0,0,1,.63,7.66v1.17s.83,1.95,2,4.17a31.08,31.08,0,0,0,3.1,5.08c2.37,2.91,5.11,4.79,8.23,4.52S71.07,241.65,69.74,240.17Z"/><path class="cls-7" d="M75.09,211.29c4.17-13.48,13.53-38.62,14.8-42.85,1.35-4.52-.32-45.9-3.13-57.9L55.08,110c-7,9.66-7,18.58-4.93,40.6,1,10.5,1.64,22.88,1.64,22.88a40.11,40.11,0,0,0-2.31,18.78c.58,5.35,3.1,22.09,4.25,29a11.42,11.42,0,0,0,8.8-.79c.47-6.09,1.73-18.06,2.59-25.31,1.3-10.88,1.73-18.82,2.85-25.17,1.4-7.93,1.89-36.35,1.89-36.35l3.72,32.24a26.88,26.88,0,0,0-4.89,12.21c-.68,5.13-1.22,23.31-1.77,31.45C68.23,211,72.5,211.91,75.09,211.29Z"/><g class="cls-26"><path d="M75.09,211.29c4.17-13.48,13.53-38.62,14.8-42.85,1.35-4.52-.32-45.9-3.13-57.9L55.08,110c-7,9.66-7,18.58-4.93,40.6,1,10.5,1.64,22.88,1.64,22.88a40.11,40.11,0,0,0-2.31,18.78c.58,5.35,3.1,22.09,4.25,29a11.42,11.42,0,0,0,8.8-.79c.47-6.09,1.73-18.06,2.59-25.31,1.3-10.88,1.73-18.82,2.85-25.17,1.4-7.93,1.89-36.35,1.89-36.35l3.72,32.24a26.88,26.88,0,0,0-4.89,12.21c-.68,5.13-1.22,23.31-1.77,31.45C68.23,211,72.5,211.91,75.09,211.29Z"/></g><path class="cls-11" d="M69.86,133.68a22.45,22.45,0,0,0,12.37-6.88s-1.38,5.1-10.27,8.14l.37,20.16-2.47-21.42"/><path class="cls-25" d="M103,52.55C97.76,65,92.11,71.93,88.87,81.73c-5.05.5-12.46-8.27-9.61-14,5.94-2.22,16.06-22.3,16.06-24,0-5.72-.6-15.78-1.21-20.57a6.7,6.7,0,0,0-1.6-3.43c-1.72-1.5-1.9-2.82-3.19-4.48-1-1.29-2.07-1.81-1.88-2.17a1.92,1.92,0,0,1,2.5-.49,17.12,17.12,0,0,1,2.76,2,24.44,24.44,0,0,0-2.61-5.41c-2.34-3.55-2.25-5.58,3.16-5.07,3.38.31,6.19,2.76,8,10.48.52,2.22,1.17,7.32,1.61,10.18,1.19,7.76,1.86,13.4,2.31,19C105.38,46.65,104.92,48,103,52.55Z"/><path class="cls-24" d="M85.83,102.87c.45-2.12,1-6.12,1.3-9C92.47,88.85,91,83.4,89,79.4c-3.88-8-8-11.71-9.77-11.71h-11c-5.24.62-8.83,1.21-10.1,1.49-3.23.71-3.13,3-3.32,6.47a36.89,36.89,0,0,0,.35,10.59l4.42,9.54.39,5.88S51.63,112,49.69,120c0,0,5.37.18,8.43-3.39,0,0,4.17,6.28,14.49,6.8S88,114.78,88,114.78Z"/><path class="cls-27" d="M65.18,90.91a8.57,8.57,0,0,0,8.08,4.61A9,9,0,0,0,81,90.8s-.3,6.3-7.75,6.23S65.18,90.91,65.18,90.91Z"/><path class="cls-25" d="M80.73,37.78c1.82,1,4.15,5.48,4.16,14.94,0,8-2.55,10.07-3.84,10.67s-3.82.32-6.27,0l.11,4.81s6.94,7.23,1.34,8.08c-2.8.43-6.39-1.26-8.82-3.09a9.81,9.81,0,0,1-3.23-5L64,57.71s-1.41,1.44-3.9-.64c-2.06-1.72-2.81-4.67-1.28-6.3a3.52,3.52,0,0,1,5.62,1s1.44.09,2.81-2.61a17.57,17.57,0,0,0,7.58-1.41C81.24,44.91,81.43,39.87,80.73,37.78Z"/><path class="cls-21" d="M74.46,50.45a1,1,0,0,1-.92,1.12,1,1,0,0,1-1.09-1,1,1,0,1,1,2-.14Z"/><g class="cls-28"><path class="cls-29" d="M75.86,57.51l2.62.76a1.34,1.34,0,0,1-1.66,1A1.43,1.43,0,0,1,75.86,57.51Z"/></g><path class="cls-21" d="M83.51,47.09l-2.08-1.36a1.2,1.2,0,0,1,1.69-.39A1.3,1.3,0,0,1,83.51,47.09Z"/><path class="cls-23" d="M73.33,46.32l-2.3,1a1.18,1.18,0,0,1,.63-1.61A1.31,1.31,0,0,1,73.33,46.32Z"/><path class="cls-21" d="M83,50a1,1,0,1,1-1.08-1A1,1,0,0,1,83,50Z"/><g class="cls-28"><polygon class="cls-29" points="78.17 49.56 78.47 55.63 81.64 54.56 78.17 49.56"/></g><g class="cls-28"><path class="cls-29" d="M74.78,63.36c-2.59-.28-7.93-1.67-8.81-3.75a5.46,5.46,0,0,0,1.92,2.63C69.51,63.56,74.81,65,74.81,65Z"/></g><path class="cls-23" d="M64.42,51.74l.1,4.22h0A2.86,2.86,0,0,0,67.32,53l-.09-3.89Z"/><path class="cls-25" d="M37.06,53.51C43,68,50.42,76.93,55.23,86.23c8.2.48,9-12.21,5.26-17.47,0,0-14.27-17.25-15.53-23.57C43.84,39.58,42.22,31.91,41.84,27c-.05-.79.11-2.56.66-3.13,1.57-1.66,2.16-3.49,3.18-5.32.8-1.43,1.35-1.92,1.11-2.25s-1.55-.52-2.78.24a9.24,9.24,0,0,0-1.94,1.81,19,19,0,0,1,1.58-5.08c1.77-3.87,1.7-7.39-3.56-6.07-3.3.83-6,4.63-6.59,12.53A89.82,89.82,0,0,0,33.6,30c.5,6.09,1,11.92,1.74,17A26.33,26.33,0,0,0,37.06,53.51Z"/></g></g></g></svg>