<svg xmlns="http://www.w3.org/2000/svg" viewBox="0 0 360 360"><defs><style>.cls-1{fill:#18272b;}.cls-2{fill:#2b454e;}.cls-3{fill:#fff;}.cls-4{fill:#375a64;}.cls-5{fill:#263d42;}.cls-6{fill:#f4f4f4;}.cls-7{fill:#02dfdf;}.cls-8{fill:#ffb8b8;}.cls-9{fill:#2f2e41;}</style></defs><title>process-illustration</title><g id="Layer_3" data-name="Layer 3"><path class="cls-1" d="M259.2,276.56H22.53a7.93,7.93,0,0,1-7.94-7.93h0q128.7-15,252.55,0h0a7.93,7.93,0,0,1-7.94,7.93Z"/><path class="cls-2" d="M267.14,269.09l-252.55-.46,29.27-49.25.14-.24V110.6a10,10,0,0,1,10-10H226.3a10,10,0,0,1,10,10h0V219.89Z"/><path class="cls-3" d="M53.8,107.58a3.26,3.26,0,0,0-3.26,3.26v99a3.28,3.28,0,0,0,3.26,3.27H227.93a3.29,3.29,0,0,0,3.27-3.27v-99a3.28,3.28,0,0,0-3.27-3.26Z"/><path class="cls-4" d="M54.53,226.15a1.41,1.41,0,0,0-1.27.81l-9,19.61a1.41,1.41,0,0,0,.69,1.86,1.43,1.43,0,0,0,.58.12H235.18a1.4,1.4,0,0,0,1.4-1.4,1.35,1.35,0,0,0-.15-.62l-9.8-19.61a1.42,1.42,0,0,0-1.26-.77Z"/><circle class="cls-3" cx="140.17" cy="103.84" r="2.1"/><path class="cls-4" d="M121.52,252.29a1.4,1.4,0,0,0-1.35,1l-2.26,8.4a1.4,1.4,0,0,0,1,1.71,1.12,1.12,0,0,0,.36.05h43a1.39,1.39,0,0,0,1.4-1.4,1.47,1.47,0,0,0-.07-.46l-2.91-8.4a1.41,1.41,0,0,0-1.32-.94Z"/><polygon class="cls-5" points="236.33 217.51 236.33 219.38 43.86 219.38 44.01 219.15 44.01 217.51 236.33 217.51"/><path class="cls-6" d="M75.19,128.12a2.58,2.58,0,0,0-2.53,2.61v59.09a2.57,2.57,0,0,0,2.53,2.6H206.54a2.57,2.57,0,0,0,2.53-2.6V130.73a2.58,2.58,0,0,0-2.53-2.61Z"/><path class="cls-7" d="M150.65,192.53h47.81a1.54,1.54,0,0,0,1.09-2.63L169,159.3a1.55,1.55,0,0,0-2.18,0l-7.61,7.61a3.22,3.22,0,0,1-4.56,0h0l-23.84-23.83a1.53,1.53,0,0,0-2.17,0L82,189.69a1.55,1.55,0,0,0,0,2.18,1.58,1.58,0,0,0,1.09.45h67.65Z"/><circle class="cls-7" cx="93.78" cy="142.06" r="5.91"/><path class="cls-2" d="M78.35,149.51a.42.42,0,0,1-.43-.42v-28.3a.42.42,0,0,1,.43-.42h32.52a.43.43,0,0,1,0,.85H78.77v27.87A.42.42,0,0,1,78.35,149.51Z"/><path class="cls-2" d="M203.35,149.93a.42.42,0,0,1-.42-.42h0V121.64H170.84a.43.43,0,0,1,0-.85h32.52a.43.43,0,0,1,.43.43h0v28.29a.42.42,0,0,1-.43.42Z"/><path class="cls-2" d="M110.87,199.77H78.35a.42.42,0,0,1-.43-.42h0v-28.3a.43.43,0,0,1,.85,0v27.87h32.1a.43.43,0,0,1,0,.85Z"/><path class="cls-2" d="M203.35,200.19H170.84a.42.42,0,1,1,0-.84h32.1V171.47a.43.43,0,0,1,.85,0h0v28.3a.42.42,0,0,1-.43.42Z"/><path class="cls-8" d="M339.91,193.84h0a4.77,4.77,0,0,0,5.21-4.28c0-.15,0-.3,0-.46V179l-6.64-.8-2.71,9.66a4.76,4.76,0,0,0,3.3,5.88A4.55,4.55,0,0,0,339.91,193.84Z"/><path class="cls-8" d="M282.49,198.56h0a4.76,4.76,0,0,0,4.27-5.21c0-.15,0-.3-.07-.46l-2-9.95-6.67.51-.78,10a4.76,4.76,0,0,0,5.22,5.11Z"/><path class="cls-9" d="M301.32,273.76l7.76.33c-1.66-31.36-1.14-57.89,3.39-75.49,5.65,20.1,7.59,46.47,7.74,75.88l8.46-.72c3.62-34.82,5.45-67,1.6-90.83-12.11-7-25.51-7.05-40.37.8C289.57,210.4,294.14,241,301.32,273.76Z"/><path class="cls-9" d="M302.74,272.15l-3.3,1.1s-6.95-1.83-5.12,2.92,6.95,4,6.95,4,6.22,4.75,8.78,1.09l-1.46-7.68Z"/><path class="cls-9" d="M325.93,272.15l3.29,1.1s6.95-1.83,5.12,2.92-6.95,4-6.95,4-6.22,4.75-8.78,1.09l1.47-7.68Z"/><circle class="cls-8" cx="299.46" cy="91.04" r="10.89"/><path class="cls-8" d="M298.13,112.82l16.47-4.51A21.46,21.46,0,0,1,309.82,91H298.13Z"/><path class="cls-7" d="M288.84,186.12c14.71-5.42,29.12-6.43,43,0-4-26.43-5.29-50.28-1-66.86a7,7,0,0,0-3.93-8.17l-14.73-6.5-14.08,2.12-11.88,8.63a7,7,0,0,0-2.39,8.21C290.12,139.32,291.27,160.74,288.84,186.12Z"/><path class="cls-7" d="M338.23,179l7.71.8-7.86-55.42A16.35,16.35,0,0,0,326.84,111l-1.09-.34,1.6,29.74Z"/><path class="cls-7" d="M285.18,184.21l-7.47,2-1-56a16.39,16.39,0,0,1,9-14.91l1-.51,3.14,29.63Z"/><path class="cls-9" d="M310.18,99.28s8.93-10.83.63-18.74c-5.76-5.49-13.93-2.75-18.39-.56a8.24,8.24,0,0,0-4.6,6.13c-.3,2,.19,3.89,3.34,3,6.31-1.68,4.42,3.89,4.42,3.89s4.48-.08,4.41,3.88S310.18,99.28,310.18,99.28Z"/></g></svg>