<svg xmlns="http://www.w3.org/2000/svg" viewBox="0 0 360 360"><defs><style>.cls-1{fill:#ffb6b6;}.cls-2{fill:#0a2223;}.cls-3{fill:#e6e6e6;}.cls-4{fill:#363846;}.cls-5{fill:#02dfdf;}.cls-6{fill:#1f3238;}.cls-7{fill:#fff;}.cls-8{fill:#19191c;}.cls-9{fill:#d15b66;}.cls-10{fill:#cacaca;}.cls-11{opacity:0.2;isolation:isolate;}</style></defs><title>process-illustration</title><g id="Layer_2" data-name="Layer 2"><polygon class="cls-1" points="178.62 271.32 185.34 268.32 176.92 240.34 167.01 244.78 178.62 271.32"/><path class="cls-2" d="M173.81,263.73l10.05-7.1,2.77,4.47,14.17.7a3.29,3.29,0,0,1,1.57,6.08L190,275.58l-4.88-3.09,1.9,4.94-4.68,2.91Z"/><path class="cls-3" d="M351.18,218.37c0-2.81-.94-5.09-2.1-5.1H32.83c-1.16,0-2.1,2.29-2.11,5.1V334.19a1,1,0,0,1-.95,1c-.84.09-1.69.16-2.54.23h-.06l-1.39.11h0c-.23-.44-.47-.88-.7-1.33a1,1,0,0,1-.12-.49v-122c0-.78,0-1.56.08-2.33a30.31,30.31,0,0,1,.4-3.16c.88-4.88,2.89-8.18,5.17-8.19H351.31a2.43,2.43,0,0,1,1,.2,3.68,3.68,0,0,1,1.19.84,7.08,7.08,0,0,1,1.17,1.6,20.91,20.91,0,0,1,2.21,8.36s0,.06,0,.09c.07.85.11,1.72.1,2.59L357,223l0,6.71.15,21,0,7.48L357.5,335h0a1,1,0,0,1-1.05,1h-4.22a1,1,0,0,1-1.05-1Z"/><path class="cls-2" d="M265.25,145.44H231.17a1.82,1.82,0,0,0-1.81,1.82v53.83h37.71V147.26a1.83,1.83,0,0,0-1.82-1.82ZM248.32,176a4,4,0,0,1-4-4V165.8a4,4,0,1,1,8,0V172a4,4,0,0,1-4,4Z"/><path class="cls-4" d="M229.24,199.37v5.19a1,1,0,0,0,1,1h35.92a1,1,0,0,0,1-1v-5.19Z"/><path class="cls-1" d="M185.46,70.48A7.27,7.27,0,0,1,176,74.55a7.58,7.58,0,0,1-1.14-.57l-48.1,33.5-1.33-13.35,47.29-30.64a7.31,7.31,0,0,1,12.72,7Z"/><path class="cls-5" d="M77.77,91.61s-5.21,7.69,3,14.5,41.3,5.46,46.64,5.4,29.88-25.43,29.88-25.43l-.16-14.65L127.47,89Z"/><path class="cls-1" d="M74.82,142.7l.52,10s-1.55,8.83-.27,10.74,36,4.71,36,4.71-1.09-14.87.87-25.63Z"/><path class="cls-6" d="M181.39,244.24,168,256l-26.2-53.59c-26,4.47-50.49,5.9-71.69.5a13.71,13.71,0,0,1-9.8-16.56c.08-.34.18-.68.28-1,2.54-7.74,9.18-13.22,14.42-21.74l38.22.58L109,178.86l37.13-4.8a13.69,13.69,0,0,1,15.23,12.07c.05.4.08.81.1,1.21Z"/><circle class="cls-1" cx="89.74" cy="60.07" r="15.52"/><path class="cls-5" d="M80.64,81.19l14.23,1.68a2.89,2.89,0,0,1,2.5,2.26l2.26,10.35,14.11,16.62s5.07,9.5,3.17,20.26A76.2,76.2,0,0,1,111,151.12s-34.69,14.19-36,12.29-1.67-10.52-1.67-10.52l-4.47-49.66A17.81,17.81,0,0,1,74,88.91c1.13-1.1,2.24-1.88,3.14-1.88C79.23,87,79,82.36,80.64,81.19Z"/><polygon class="cls-1" points="111.18 292.13 117.78 295.36 133.68 270.86 123.93 266.09 111.18 292.13"/><path class="cls-6" d="M127,286.59l-13.57-5.15,18.62-55.92c-25.3-7.42-44.38-19.37-61-33.55-5.65-4.78-9.89-10.91-5.08-16.72.23-.28.46-.54.71-.79,5.68-5.84,20.11-4.72,28.55-10.06l18.89,20.16L112.9,190l35.45,12a13.7,13.7,0,0,1,8.37,17.55,12.08,12.08,0,0,1-.45,1.13Z"/><path class="cls-2" d="M111,288.23,122.3,293,120,297.69l6.94,12.38a3.29,3.29,0,0,1-4.32,4.56l-13.13-6.43,0-5.78-3.17,4.24-5-2.43Z"/><path class="cls-1" d="M88.76,202.6a7.27,7.27,0,0,1-2.13-10.06,7.71,7.71,0,0,1,.8-1L64.11,137.75l13.35,1.34,20.67,52.43a7.31,7.31,0,0,1-9.37,11.08Z"/><path class="cls-5" d="M89.37,92.85s-6.51-6.63-14.8,0S61,132.29,60,137.54s19,34.32,19,34.32l14.4,2.74L82.09,142.09Z"/><path class="cls-4" d="M321.67,61.44H176a4.73,4.73,0,0,0-4.72,4.72v98.29a4.73,4.73,0,0,0,4.72,4.72H321.67a4.72,4.72,0,0,0,4.72-4.72V66.16A4.72,4.72,0,0,0,321.67,61.44Z"/><path class="cls-7" d="M320.46,64.85H177.23a2.52,2.52,0,0,0-2.52,2.53v95.85a2.53,2.53,0,0,0,2.52,2.53H320.46a2.53,2.53,0,0,0,2.52-2.53V67.38A2.52,2.52,0,0,0,320.46,64.85Z"/><path class="cls-2" d="M292.56,207.39H207.35a1.57,1.57,0,0,1-1.57-1.57,1.66,1.66,0,0,1,0-.32l1.33-6.28a1.57,1.57,0,0,1,1.53-1.25h82.57a1.57,1.57,0,0,1,1.53,1.25l1.32,6.28a1.56,1.56,0,0,1-1.21,1.85,1.12,1.12,0,0,1-.32,0Z"/><rect class="cls-4" x="209.27" y="199.1" width="2.62" height="1.57" rx="0.26"/><rect class="cls-4" x="214.52" y="199.1" width="2.62" height="1.57" rx="0.26"/><rect class="cls-4" x="219.77" y="199.1" width="2.62" height="1.57" rx="0.26"/><rect class="cls-4" x="225.02" y="199.1" width="2.62" height="1.57" rx="0.26"/><rect class="cls-4" x="230.27" y="199.1" width="2.62" height="1.57" rx="0.26"/><rect class="cls-4" x="235.52" y="199.1" width="2.62" height="1.57" rx="0.26"/><rect class="cls-4" x="240.77" y="199.1" width="2.62" height="1.57" rx="0.26"/><rect class="cls-4" x="246.02" y="199.1" width="2.62" height="1.57" rx="0.26"/><rect class="cls-4" x="251.27" y="199.1" width="2.62" height="1.57" rx="0.26"/><rect class="cls-4" x="256.51" y="199.1" width="2.62" height="1.57" rx="0.26"/><rect class="cls-4" x="261.76" y="199.1" width="2.62" height="1.57" rx="0.26"/><rect class="cls-4" x="267.01" y="199.1" width="2.62" height="1.57" rx="0.26"/><rect class="cls-4" x="272.26" y="199.1" width="2.62" height="1.57" rx="0.26"/><rect class="cls-4" x="277.51" y="199.1" width="2.62" height="1.57" rx="0.26"/><rect class="cls-4" x="282.76" y="199.1" width="2.62" height="1.57" rx="0.26"/><rect class="cls-4" x="288.01" y="199.1" width="2.62" height="1.57" rx="0.26"/><rect class="cls-4" x="209.21" y="201.73" width="2.62" height="1.57" rx="0.26"/><rect class="cls-4" x="214.46" y="201.73" width="2.62" height="1.57" rx="0.26"/><rect class="cls-4" x="219.71" y="201.73" width="2.62" height="1.57" rx="0.26"/><rect class="cls-4" x="224.96" y="201.73" width="2.62" height="1.57" rx="0.26"/><rect class="cls-4" x="230.21" y="201.73" width="2.62" height="1.57" rx="0.26"/><rect class="cls-4" x="235.46" y="201.73" width="2.62" height="1.57" rx="0.26"/><rect class="cls-4" x="240.71" y="201.73" width="2.62" height="1.57" rx="0.26"/><rect class="cls-4" x="245.95" y="201.73" width="2.62" height="1.57" rx="0.26"/><rect class="cls-4" x="251.2" y="201.73" width="2.62" height="1.57" rx="0.26"/><rect class="cls-4" x="256.45" y="201.73" width="2.62" height="1.57" rx="0.26"/><rect class="cls-4" x="261.7" y="201.73" width="2.62" height="1.57" rx="0.26"/><rect class="cls-4" x="266.95" y="201.73" width="2.62" height="1.57" rx="0.26"/><rect class="cls-4" x="272.2" y="201.73" width="2.62" height="1.57" rx="0.26"/><rect class="cls-4" x="277.45" y="201.73" width="2.62" height="1.57" rx="0.26"/><rect class="cls-4" x="282.7" y="201.73" width="2.62" height="1.57" rx="0.26"/><rect class="cls-4" x="287.95" y="201.73" width="2.62" height="1.57" rx="0.26"/><rect class="cls-4" x="234.41" y="204.88" width="21" height="1.57" rx="0.26"/><path class="cls-8" d="M73.33,46.23c-2.51.75-4.84-1.34-6.58-3.33l.62.74c-4.1,2.88-6.55,7.59-8.15,12.35S56.75,65.72,55,70.41,50.26,79.62,45.82,82c-5.94,3.13-13.22,1.7-19.54-.55L26,81.32a40.22,40.22,0,0,0,4.6-15.43A36.63,36.63,0,0,1,19.7,78.73a85.56,85.56,0,0,1-11.88-6.6c-2.44-1.64-5-3.75-5.29-6.67S4.4,59.91,7,58.51s5.5-1.87,8.29-2.71,5.63-2.2,7.1-4.72c3.37-5.8-2.31-14,1.31-19.62,1.79-2.77,5.25-3.89,8.46-4.66A112.21,112.21,0,0,1,47,24.29c4.4-.44,9-.61,13.14.81s8,4.71,8.89,9c2.45,1.28,5,2.7,6.35,5.15S76,45.45,73.33,46.23Z"/><path class="cls-8" d="M69.59,45.26c-2.4,3-3.7,6.25-3.7,8.19-5,9.11,2.14,16.93,11.24,21.91a18.71,18.71,0,0,0,11.92,2.07l.38-1.62L90,77.27S95.87,96.85,97.83,98c-.75-3.48-1.59-19.61-2-23-.57-4.63,1.42-11.51,2.86-15.7a24.7,24.7,0,0,0,1.35-8v-.12l1.4,4.5,5.1-2.18c-1-5.43,0-11.61-11.37-11.07C89,38.15,83.6,37.5,79.15,38.7c-.57-.88-3.88.78-4.83.31"/><path class="cls-9" d="M323,67.38v95.85a2.53,2.53,0,0,1-2.52,2.53H270a62,62,0,0,1-13.52-18.2c-.22-.44-.43-.88-.63-1.33a61.57,61.57,0,0,1-5.46-21c0-.44-.07-.89-.09-1.34-.06-1.15-.1-2.32-.1-3.5a61.8,61.8,0,0,1,4.35-22.84c.18-.45.36-.9.55-1.34a62.16,62.16,0,0,1,29.58-31.34h35.83A2.52,2.52,0,0,1,323,67.38Z"/><path class="cls-10" d="M313.26,78.05h-134a.53.53,0,0,1,0-1.06h134a.53.53,0,0,1,0,1.06Z"/><ellipse class="cls-4" cx="188.36" cy="71.07" rx="3.12" ry="3.19"/><ellipse class="cls-4" cx="199.15" cy="71.07" rx="3.12" ry="3.19"/><ellipse class="cls-4" cx="209.94" cy="71.07" rx="3.12" ry="3.19"/><path class="cls-4" d="M306.76,68.67H299.1a.58.58,0,0,0-.57.59.57.57,0,0,0,.57.57h7.66a.57.57,0,0,0,.57-.59A.59.59,0,0,0,306.76,68.67Z"/><path class="cls-4" d="M306.76,70.85H299.1a.58.58,0,0,0,0,1.16h7.66a.58.58,0,0,0,.57-.59A.59.59,0,0,0,306.76,70.85Z"/><path class="cls-4" d="M306.76,73H299.1a.57.57,0,0,0-.57.59.58.58,0,0,0,.57.57h7.66a.58.58,0,0,0,.57-.6A.57.57,0,0,0,306.76,73Z"/><rect class="cls-9" x="200.25" y="109.19" width="21.3" height="4.55" rx="2.28"/><rect class="cls-3" x="189.44" y="118.3" width="42.94" height="4.55" rx="2.28"/><rect class="cls-3" x="189.44" y="127.41" width="42.94" height="4.55" rx="2.28"/><path class="cls-9" d="M192.94,160.26a15.64,15.64,0,0,1-1,5.5H177.23a2.53,2.53,0,0,1-2.52-2.53V144.71a15.73,15.73,0,0,1,18.23,15.55Z"/><path class="cls-11" d="M323.11,97.53V96.19H300.59V80.61h-1.34V96.19H273.44V80.61H272.1V96.19H255.05c-.19.44-.37.89-.55,1.34h17.6v26.34H250.25c0,.45.06.9.09,1.34H272.1v21H255.8c.2.45.41.89.63,1.33H272.1v17.67h1.34V147.56h25.81v17.67h1.34V147.56h22.52v-1.33H300.59v-21h22.52v-1.34H300.59V97.53Zm-23.86,48.7H273.44v-21h25.81Zm0-22.36H273.44V97.53h25.81Z"/><path class="cls-2" d="M305,155.81a1.4,1.4,0,0,1-1-2.43l.1-.38,0-.09a3.77,3.77,0,0,0-6.95,0c-1.13,2.74-2.58,5.48-2.94,8.38a11.23,11.23,0,0,0,.2,3.83,44.68,44.68,0,0,1-4.07-18.56,43.08,43.08,0,0,1,.27-4.81c.15-1.31.35-2.61.62-3.9a45.16,45.16,0,0,1,9-19.15,12,12,0,0,0,5-5.19A9.28,9.28,0,0,0,306,111l-.74.07H305a1.38,1.38,0,0,1-1.45-1.32,1.34,1.34,0,0,1,.31-.94l.31-.39.49-.6s0,0,.05-.06l.55-.67a4,4,0,0,0-1.32-1.28,4.63,4.63,0,0,0-5.71,1.34,7.28,7.28,0,0,0-1.12,6.08,16.08,16.08,0,0,0,2.23,5l-.3.38a45.35,45.35,0,0,0-4.75,7.52,18.92,18.92,0,0,0-1.13-8.78c-1.08-2.61-3.11-4.8-4.89-7.06a3.88,3.88,0,0,0-6.91,1.91v.1q.39.22.78.48a1.91,1.91,0,0,1-.77,3.46h0a17.83,17.83,0,0,0,.5,2.83,19.48,19.48,0,0,0,9.7,12.22l.47.24a46.37,46.37,0,0,0-2.5,11.76,44.42,44.42,0,0,0,0,7.11v-.09a11.69,11.69,0,0,0-4-6.72c-3.06-2.51-7.38-3.43-10.68-5.45a2.18,2.18,0,0,0-3.34,2.12v.09a12.54,12.54,0,0,1,1.43.69q.4.22.78.48a1.9,1.9,0,0,1,.53,2.64,1.93,1.93,0,0,1-1.29.82h-.12a19.08,19.08,0,0,0,3.48,5.46,19.48,19.48,0,0,0,14.15,6.2h0a47.11,47.11,0,0,0,3.12,9.11H304.7c0-.13.08-.25.11-.38a12.73,12.73,0,0,1-3.08-.18c.83-1,1.65-2,2.48-3l.05-.06,1.26-1.55h0a18.79,18.79,0,0,0-.54-4.72Zm-12.76-25.09h0v0ZM289.76,153l-.1-.21a3.69,3.69,0,0,0,0-.47c0-.05,0-.09,0-.14,0,.28.07.55.11.83Z"/></g></svg>