<svg xmlns="http://www.w3.org/2000/svg" viewBox="0 0 360 360"><defs><style>.cls-1{fill:#eeecec;}.cls-2{fill:#bfbdbd;}.cls-3{fill:#c7f2eb;}.cls-4{fill:none;}.cls-5{fill:#2b454e;}.cls-6{fill:#375a64;}.cls-7{fill:#c9e8ea;}.cls-8{fill:#fff;}.cls-9{fill:#ce293d;}.cls-10{fill:#ffc950;}.cls-11{fill:#ffe1a4;}.cls-12{fill:#1f3238;}.cls-13{fill:#02dfdf;}.cls-14{fill:#a5dbe2;}.cls-15{fill:#e93859;}.cls-16{fill:#d15b66;}</style></defs><title>process-illustration</title><g id="Layer_6" data-name="Layer 6"><polygon class="cls-1" points="41.9 261.16 45.49 266.31 46.66 265.5 46.66 257.85 41.9 261.16"/><polygon class="cls-1" points="318.1 217.86 314.46 212.74 313.25 213.6 313.25 221.3 318.1 217.86"/><path class="cls-2" d="M184.7,157.84a4.75,4.75,0,1,1-4.75-4.75A4.75,4.75,0,0,1,184.7,157.84Z"/><polygon class="cls-3" points="311.06 164.14 46.66 164.14 46.66 320.54 46.66 320.63 313.25 320.63 313.25 164.14 311.06 164.14"/><rect class="cls-4" x="46.7" y="164.14" width="133.3" height="156.49"/><rect class="cls-4" x="180" y="164.14" width="133.3" height="156.49"/><path class="cls-5" d="M180,337.14H15.84v.12c0,11.18,5.73,20.24,12.78,20.24H331.39c7.05,0,12.77-9.06,12.77-20.24v-.12Zm43.22,14.92H136.79a4.75,4.75,0,1,1,0-9.49h86.43a4.75,4.75,0,0,1,0,9.49Z"/><path class="cls-6" d="M310.58,151.61H49.42c-9.41,0-17,8.44-17,18.84V314.32c0,10.4,7.62,18.84,17,18.84H310.58c9.41,0,17-8.44,17-18.84V170.45C327.61,160.05,320,151.61,310.58,151.61Zm2.72,169H46.7V164.14H313.3Z"/><path class="cls-7" d="M196.79,190.35H165s17.68,25.54-15.22,129.18l24.92.43,10.06.23L210,320C177.1,216.35,196.79,190.35,196.79,190.35Z"/><path class="cls-8" d="M184.85,185.61l-5.82.46v-.55l-5.37-.73s8.9,113.58-13.52,131l1,3.77,16.36.94,3-.47,15.76.16,3.59-.53C177.44,302.24,184.85,185.61,184.85,185.61Z"/><path class="cls-9" d="M206,204.43c0,18.28-25.89,57-25.89,57s-25.89-38.68-25.89-57,11.59-23.29,25.89-23.29S206,186.16,206,204.43Z"/><path class="cls-10" d="M198,200.82c0,12.61-17.87,43.66-17.87,43.66s-17.87-31-17.87-43.66,8-16.08,17.87-16.08S198,188.2,198,200.82Z"/><path class="cls-11" d="M190.44,194.78c0,7.31-10.35,31.21-10.35,31.21s-10.35-23.9-10.35-31.21,4.63-9.31,10.35-9.31S190.44,187.47,190.44,194.78Z"/><path class="cls-12" d="M159,139s-35.66,18.71-35.66,59.27c0,0,2.23,4.46,5.8-.89s6.68-20.06,29.41-20.06Z"/><path class="cls-12" d="M201,139s35.66,18.71,35.66,59.27c0,0-2.23,4.46-5.8-.89s-6.68-20.06-29.41-20.06Z"/><path class="cls-13" d="M212.6,53.73H147.4a157.77,157.77,0,0,0-7,45.9c0,34.37,7.27,64.57,18.24,81.83h42.68c11-17.26,18.24-47.46,18.24-81.83A157.77,157.77,0,0,0,212.6,53.73ZM180,111.28a21.84,21.84,0,1,1,21.84-21.84A21.84,21.84,0,0,1,180,111.28Z"/><path class="cls-12" d="M201,181.53H159a1,1,0,0,0-1,1v4.66a1,1,0,0,0,1,1h42a1,1,0,0,0,1-1v-4.66A1,1,0,0,0,201,181.53Z"/><path class="cls-12" d="M180,67.6a21.84,21.84,0,1,0,21.84,21.84A21.84,21.84,0,0,0,180,67.6Zm0,36.8a15,15,0,1,1,15-15A15,15,0,0,1,180,104.4Z"/><path class="cls-14" d="M180,74.47a15,15,0,1,0,15,15A15,15,0,0,0,180,74.47Z"/><path class="cls-12" d="M180,2.5c-7.12,0-23.28,20.73-32.6,51.23h65.2C203.28,23.23,187.12,2.5,180,2.5Z"/><path class="cls-15" d="M181.37,150.13a1.27,1.27,0,0,0-.34,0h-2.18a1.34,1.34,0,0,0-.35,0,2.44,2.44,0,0,0-.64.27,4.56,4.56,0,0,0-3.35,4.69l3.16,40.26,0,2v1.52A1.3,1.3,0,0,0,179,200.1h2.18a1.14,1.14,0,0,0,1.14-1.13v-1.52l0-2.2L185.49,155A4.76,4.76,0,0,0,181.37,150.13Z"/><path class="cls-7" d="M280.83,251.79a25.21,25.21,0,0,0-13.79-.06c-15.1,4.12-25.15,20.7-22.44,37,.07.44.16.86.24,1.28l-.09,0a26.48,26.48,0,0,0-16.2,13.54,29.06,29.06,0,0,0-3.17,16.48l28.83-7.87L313.59,296V220.13c-.82.17-1.65.36-2.48.59C296.47,224.72,285.2,237,280.83,251.79Z"/><path class="cls-8" d="M265.79,284.88a26.24,26.24,0,0,0-13.48-3.74c-15.44,0-28,13.53-28,30.22v.22a46,46,0,0,1,8.15,8.89h81.09V265a36.71,36.71,0,0,0-13.14-2.42C285.48,262.58,272.46,271.6,265.79,284.88Z"/><path class="cls-7" d="M224.35,311.58a41.31,41.31,0,0,0-13.63-7.66,34.49,34.49,0,0,0-37.9,10.53,30,30,0,0,0-12.32-7.93,26,26,0,0,0-7.24-1.32A26.73,26.73,0,0,1,159,320.47H232.5A46,46,0,0,0,224.35,311.58Z"/><path class="cls-8" d="M153.26,305.2a23.11,23.11,0,0,0-18-8.92h-.1c0-.43,0-.87,0-1.31,0-16.69-12.52-30.22-28-30.22a26.21,26.21,0,0,0-13.48,3.74c-6.67-13.28-19.69-22.3-34.66-22.3a36.76,36.76,0,0,0-12.65,2.24v72H159A26.73,26.73,0,0,0,153.26,305.2Z"/><path class="cls-7" d="M125.92,312.39a21.09,21.09,0,0,0-19.13-3.71l-.08,0c-.06-.43-.12-.86-.2-1.29-2.81-16.3-17.31-26-32.38-21.77A29.45,29.45,0,0,0,61.6,293a35.63,35.63,0,0,0-15.19-11.31v38.74H132.3A22.78,22.78,0,0,0,125.92,312.39Z"/><path class="cls-16" d="M203,295.5H157.68a5.64,5.64,0,0,0-5.64,5.64v12a5.65,5.65,0,0,0,5.64,5.64H203a5.65,5.65,0,0,0,5.65-5.64v-12A5.64,5.64,0,0,0,203,295.5Z"/><path class="cls-8" d="M159.15,310a6.21,6.21,0,0,0,2.68.67c1.11,0,1.7-.46,1.7-1.16s-.51-1-1.79-1.51c-1.78-.62-2.94-1.6-2.94-3.15,0-1.83,1.52-3.23,4-3.23a6.69,6.69,0,0,1,2.73.54l-.54,2a5,5,0,0,0-2.24-.51c-1.05,0-1.56.47-1.56,1s.61,1,2,1.51c1.88.69,2.77,1.68,2.77,3.19,0,1.79-1.38,3.31-4.31,3.31a7,7,0,0,1-3-.65Z"/><path class="cls-8" d="M169.7,303.84h-2.87v-2h8.22v2h-2.92v8.66H169.7Z"/><path class="cls-8" d="M177.68,309.76l-.76,2.74h-2.51l3.27-10.69h3.17l3.32,10.69h-2.6l-.83-2.74Zm2.71-1.81-.66-2.27c-.19-.63-.38-1.43-.54-2.06h0c-.16.63-.32,1.44-.5,2.06L178,308Z"/><path class="cls-8" d="M185.6,302a20.86,20.86,0,0,1,3.22-.22,5.47,5.47,0,0,1,3.46.84,2.73,2.73,0,0,1,1,2.24,2.84,2.84,0,0,1-1.89,2.63v.05a2.68,2.68,0,0,1,1.43,2c.34,1.2.67,2.6.87,3H191.2a13.71,13.71,0,0,1-.75-2.49c-.28-1.33-.74-1.7-1.73-1.71H188v4.2H185.6Zm2.39,4.6h1c1.2,0,1.92-.6,1.92-1.54s-.67-1.47-1.78-1.49a6.29,6.29,0,0,0-1.1.08Z"/><path class="cls-8" d="M197.07,303.84H194.2v-2h8.22v2H199.5v8.66h-2.43Z"/></g></svg>