<svg xmlns="http://www.w3.org/2000/svg" viewBox="0 0 360 360"><defs><style>.cls-1{fill:#f5f5f5;}.cls-2{fill:#ea8883;}.cls-3{fill:#1a2e35;}.cls-14,.cls-16,.cls-4,.cls-9{fill:#00dfdf;}.cls-5,.cls-9{opacity:0.2;}.cls-10,.cls-13,.cls-17,.cls-6{fill:#fff;}.cls-7{fill:#c45b58;}.cls-8{fill:#376b67;}.cls-10,.cls-14{opacity:0.5;}.cls-11{fill:#d15b66;}.cls-12{fill:#054641;}.cls-13,.cls-15,.cls-17{opacity:0.8;}.cls-16{opacity:0.3;}.cls-17{fill-rule:evenodd;}</style></defs><title>process-illustration</title><g id="Layer_11" data-name="Layer 11"><ellipse id="_Path_" data-name="&lt;Path&gt;" class="cls-1" cx="177.01" cy="315.05" rx="170.3" ry="9.95"/><polygon class="cls-2" points="83.34 307.41 90.22 304.8 86.01 288.18 79.13 290.79 83.34 307.41"/><polygon class="cls-2" points="31.67 307.54 39.02 307.54 40.13 290.51 32.77 290.51 31.67 307.54"/><path class="cls-3" d="M39.76,306.69h-9a.6.6,0,0,0-.6.5l-1.13,6.54A1.15,1.15,0,0,0,30.2,315c2.89-.05,5-.22,8.62-.22,2.23,0,9,.23,12.07.23S54.23,312,53,311.72c-5.72-1.24-10.08-3-12-4.58A1.87,1.87,0,0,0,39.76,306.69Z"/><path class="cls-3" d="M89.87,304l-7.51,2.85a.64.64,0,0,0-.41.69l1,6.63a1.07,1.07,0,0,0,1.45.85c2.69-1.08,5-2.44,8.41-3.67a57.63,57.63,0,0,0,11.22-5c2.55-1.62,1.48-4.7.28-4.21-5.47,2.19-6.81,2.91-12.54,1.81A3.45,3.45,0,0,0,89.87,304Z"/><path class="cls-2" d="M70.46,83.4c2.32,4.09,4.76,8.3,7.21,12.38s5,8.15,7.66,11.94c.65,1,1.37,1.89,2,2.78a2.54,2.54,0,0,0,.57.66,2.11,2.11,0,0,0,1.33.21,9.14,9.14,0,0,0,2.46-.59,29.8,29.8,0,0,0,5.67-3c1-.62,1.91-1.26,2.85-1.94s1.89-1.43,2.75-2.09l4.12,3.67a39.33,39.33,0,0,1-2.41,3.14c-.84,1-1.71,2-2.66,2.91a35.69,35.69,0,0,1-3,2.69,25.56,25.56,0,0,1-3.54,2.41A18,18,0,0,1,91,120.42a12,12,0,0,1-5.93,0A11.1,11.1,0,0,1,79.66,117c-.88-1-1.75-2-2.55-3a139.33,139.33,0,0,1-8.87-12.34c-2.72-4.24-5.22-8.48-7.6-13Z"/><path class="cls-4" d="M57.42,83.73c-2,6.75,12,25.14,12,25.14l14.07-9.05a89.21,89.21,0,0,0-9.75-16.54C68,75.93,59.59,76.33,57.42,83.73Z"/><path class="cls-5" d="M57.42,83.73c-2,6.75,12,25.14,12,25.14l14.07-9.05a89.21,89.21,0,0,0-9.75-16.54C68,75.93,59.59,76.33,57.42,83.73Z"/><path class="cls-5" d="M66,91.65c2.89,1.24,7.16,8.21,9.37,13.38l-6,3.84a112.26,112.26,0,0,1-9-14.07C62.31,92.73,64.47,91,66,91.65Z"/><path class="cls-2" d="M102.11,106.07l2.58-7.22,7.32,3.49s-1.52,6.44-6.87,6.43Z"/><polygon class="cls-2" points="111.21 94.09 114.3 97.51 112.01 102.34 104.69 98.85 111.21 94.09"/><polygon class="cls-5" points="86 288.19 88.18 296.75 81.3 299.36 79.13 290.79 86 288.19"/><polygon class="cls-5" points="32.77 290.51 40.13 290.51 39.55 299.29 32.2 299.29 32.77 290.51"/><path class="cls-4" d="M24.63,80.75c7.92,27.94,6.63,57.58,7.12,63.61l39.32-1.48c6.67-41.64-5.32-64.82-5.32-64.82s-2.52-.49-6-.84c-1.08-.11-2.24-.21-3.45-.27-.66,0-1.34-.07-2-.08a146.33,146.33,0,0,0-16.68,1.24c-1,.13-2.11.29-3.14.46s-1.89.33-2.77.51C27.72,79.88,24.63,80.75,24.63,80.75Z"/><path class="cls-5" d="M24.63,80.75c7.92,27.94,6.63,57.58,7.12,63.61l39.32-1.48c6.67-41.64-5.32-64.82-5.32-64.82s-2.52-.49-6-.84c-1.08-.11-2.24-.21-3.45-.27-.66,0-1.34-.07-2-.08a146.33,146.33,0,0,0-16.68,1.24c-1,.13-2.11.29-3.14.46s-1.89.33-2.77.51C27.72,79.88,24.63,80.75,24.63,80.75Z"/><path class="cls-5" d="M33,92.74c.71,2.7-.1,15-2.92,18.08-.39-3.95-.9-8.08-1.58-12.29Z"/><path class="cls-2" d="M37.9,59.21c1.45,5.29,3.23,15-.26,18.9,3.14,2.68,7.2,5.75,13.59,5.5s5-4.55,3.09-6.74c-6.09-1-6.27-5.43-5.53-9.68Z"/><polygon class="cls-4" points="51.39 82.7 52.55 83.48 48.32 84.72 49.41 82.76 51.39 82.7"/><polygon class="cls-4" points="52.99 82.29 52.55 83.48 56.8 84.72 56.51 82.44 52.99 82.29"/><path class="cls-6" d="M35.1,77.71l1.68-.84a1.6,1.6,0,0,1,1.68.14A33.47,33.47,0,0,0,51.39,82.7c-3.36,1.6-2.53,5.9-2.53,5.9s-10.67-3.51-14.1-9.89A.74.74,0,0,1,35.1,77.71Z"/><path class="cls-6" d="M56.19,76.6l-2.46-.37a.32.32,0,0,0-.31.51c.86,1.21,2.28,3.9-.43,5.55,3.36,1.6,4.4,5.53,4.4,5.53s4.38-4.72-.72-10.95A.78.78,0,0,0,56.19,76.6Z"/><path class="cls-5" d="M42.34,62.47l6.44,4.71a16.38,16.38,0,0,0-.29,3c-2.31-.16-5.64-2.43-6.06-4.81A7.86,7.86,0,0,1,42.34,62.47Z"/><path class="cls-3" d="M56.56,48.37a7.26,7.26,0,0,1-4.33,5.3l-2-11.12C54.69,39.42,57,44.78,56.56,48.37Z"/><path class="cls-2" d="M35.68,51.43c1.27,7.19,1.66,11.46,5.74,14.75,6.14,5,14.7.62,15.59-6.81.81-6.68-1.42-17.31-8.84-19.38A10,10,0,0,0,35.68,51.43Z"/><path class="cls-3" d="M37,56.28c3.33,1.77,4.8-2.21,4.83-3.82,0-2.57-1.07-5.38-2.4-6.41,6.43,0,19.14-.32,15.94-6.44s-9.63-5.42-14.47-2.08c-2.56,1.77-10.84.23-8.79,5C27.84,44.82,31.58,53.38,37,56.28Z"/><path class="cls-3" d="M32.86,42.14a5.25,5.25,0,0,1-3.17-1.08,3,3,0,0,0,2.81,2.33Z"/><path class="cls-2" d="M33,57.34a7,7,0,0,0,4,3.47c2.32.75,2.85-1.38,2.29-3.61-.51-2-1.6-4.75-4-4.53A3.12,3.12,0,0,0,33,57.34Z"/><path class="cls-3" d="M79.63,220.64c-3-22.24-8.56-77.75-8.56-77.75l-25.85,1s12.19,55.47,16.6,78S78.51,298.6,78.51,298.6l11.64-4.41S82.74,243.78,79.63,220.64Z"/><path class="cls-5" d="M54.87,158.81a13.52,13.52,0,0,0-5.74,2.94c2.43,11.22,5.62,26,8.36,39C59.36,189.47,59.42,168.2,54.87,158.81Z"/><path class="cls-3" d="M57.12,143.41s-5.48,60.22-8,81.62c-2.75,23.44-6.19,72.56-6.19,72.56H29.47s-.56-43.44,1.19-66.39c2-26.13,1.1-86.84,1.1-86.84Z"/><polygon class="cls-4" points="44.73 297.88 28.87 297.88 28.54 293.14 46.24 292.84 44.73 297.88"/><polygon class="cls-4" points="91.72 293.9 77.84 299.17 76.14 294.68 91.56 288.56 91.72 293.9"/><path class="cls-3" d="M46.89,52.19c.07.59.43,1,.82,1s.64-.56.57-1.15-.43-1-.82-1S46.82,51.6,46.89,52.19Z"/><path class="cls-3" d="M53.55,51.42c.07.59.43,1,.82,1s.64-.56.57-1.15-.43-1-.82-1S53.48,50.83,53.55,51.42Z"/><path class="cls-7" d="M51.47,52a21.26,21.26,0,0,0,3.39,4.72,3.42,3.42,0,0,1-2.75.85Z"/><path class="cls-3" d="M49.8,59.39a4.88,4.88,0,0,1-3.55-1.55.17.17,0,0,1,0-.24.17.17,0,0,1,.24,0,4.69,4.69,0,0,0,4,1.39.18.18,0,0,1,.19.15.17.17,0,0,1-.15.19A4.16,4.16,0,0,1,49.8,59.39Z"/><path class="cls-3" d="M44.59,50.28a.34.34,0,0,1-.17-.05.36.36,0,0,1-.13-.48A3.44,3.44,0,0,1,47,48a.35.35,0,1,1,0,.69h0a2.8,2.8,0,0,0-2.09,1.41A.33.33,0,0,1,44.59,50.28Z"/><path class="cls-3" d="M56.16,48.8a.34.34,0,0,1-.29-.16,2.76,2.76,0,0,0-2.13-1.34.35.35,0,0,1-.35-.35.36.36,0,0,1,.35-.35,3.51,3.51,0,0,1,2.72,1.67.36.36,0,0,1-.11.48A.34.34,0,0,1,56.16,48.8Z"/><path class="cls-4" d="M42.26,308a8.89,8.89,0,0,1-1.94-.27.18.18,0,0,1-.14-.14.16.16,0,0,1,.07-.18c.26-.16,2.56-1.62,3.39-1.2a.59.59,0,0,1,.33.49,1,1,0,0,1-.32.92A2.14,2.14,0,0,1,42.26,308Zm-1.45-.51a3.51,3.51,0,0,0,2.61-.14.69.69,0,0,0,.2-.63.21.21,0,0,0-.12-.2C43.07,306.28,41.75,306.91,40.81,307.47Z"/><path class="cls-4" d="M40.36,307.72a.19.19,0,0,1-.1,0,.18.18,0,0,1-.08-.16c0-.09.07-2.21.89-2.91a.94.94,0,0,1,.73-.23h0a.61.61,0,0,1,.58.46c.19.82-1.2,2.43-1.94,2.84A.11.11,0,0,1,40.36,307.72Zm1.33-3a.56.56,0,0,0-.39.16,4,4,0,0,0-.75,2.3c.73-.57,1.6-1.79,1.49-2.27,0-.05,0-.15-.27-.18h-.08Z"/><path class="cls-4" d="M90.9,304.72a.19.19,0,0,1-.15-.09.18.18,0,0,1,0-.21c.25-.27,2.48-2.73,3.49-2.58a.57.57,0,0,1,.44.34h0a1,1,0,0,1,0,.9c-.5,1-2.57,1.43-3.76,1.63Zm3.24-2.54c-.58,0-1.86,1.16-2.76,2.1,1.62-.33,2.72-.82,3-1.36a.64.64,0,0,0,0-.6.21.21,0,0,0-.17-.13Z"/><path class="cls-4" d="M90.9,304.72h-.05a.18.18,0,0,1-.12-.12c0-.08-.54-2,.06-3.06a1.27,1.27,0,0,1,.8-.62h0c.47-.12.68.06.78.23.42.73-.66,2.84-1.35,3.52A.17.17,0,0,1,90.9,304.72Zm1-3.5-.18,0h0a.89.89,0,0,0-.58.46,4,4,0,0,0-.11,2.46c.66-.83,1.33-2.42,1.08-2.86A.2.2,0,0,0,91.86,301.22Zm-.22-.14Z"/><path class="cls-2" d="M32.72,91.15c-2.21,4.54-4.46,9.24-6.64,13.85-1.08,2.33-2.16,4.64-3.19,7l-1.52,3.49-.73,1.74-.18.44-.13.32c-.09.21-.15.42-.22.63a10.52,10.52,0,0,0-.29,5.34,18.42,18.42,0,0,0,2.31,5.85,36.56,36.56,0,0,0,4.19,5.66c.79.91,1.63,1.81,2.51,2.66.44.43.89.85,1.34,1.26s.94.85,1.33,1.19l-2.93,4.68a34.41,34.41,0,0,1-3.69-2.16c-1.16-.77-2.31-1.58-3.42-2.46a37.28,37.28,0,0,1-6.13-6.11,25.47,25.47,0,0,1-4.44-8.22,19.85,19.85,0,0,1-.43-10.17c.11-.41.2-.84.33-1.25l.34-1.09.62-1.93c.44-1.28.86-2.56,1.34-3.82q1.38-3.78,2.92-7.47c2.06-4.94,4.28-9.7,6.79-14.49Z"/><path class="cls-4" d="M24.63,80.75c-6.71,2.1-13.31,24.86-13.31,24.86l15.53,6.79s5-11,7.91-19.61C37.91,83.4,32.76,78.21,24.63,80.75Z"/><path class="cls-5" d="M24.63,80.75c-6.71,2.1-13.31,24.86-13.31,24.86l15.53,6.79s5-11,7.91-19.61C37.91,83.4,32.76,78.21,24.63,80.75Z"/><path class="cls-2" d="M29.85,139.1l6.43,3.82L30,149.14s-5.42-4.17-3.81-7.44Z"/><polygon class="cls-2" points="40.56 149.01 34.12 153.52 30.03 149.14 36.28 142.92 40.56 149.01"/><rect class="cls-4" x="349.43" y="139.17" width="4.24" height="0.88" transform="translate(186.91 480.16) rotate(-85.86)"/><rect class="cls-4" x="346.26" y="127.18" width="12.31" height="0.88" transform="translate(199.67 469.89) rotate(-85.86)"/><path class="cls-4" d="M328.37,259.47H113.23a11,11,0,0,1-11.1-12l11.39-158.8a13.08,13.08,0,0,1,12.81-12H341.46a11,11,0,0,1,11.1,12l-11.38,158.8A13.09,13.09,0,0,1,328.37,259.47Z"/><polygon class="cls-4" points="278.32 315.05 208.49 315.05 196.04 228.76 265.88 228.76 278.32 315.05"/><polygon class="cls-4" points="267.24 309.91 191.69 309.91 190.19 315.05 265.74 315.05 267.24 309.91"/><polygon class="cls-3" points="269.56 270.3 201.5 266.59 196.04 228.76 263.57 228.76 269.56 270.3"/><path class="cls-8" d="M325.94,259.47H110.8a11,11,0,0,1-11.09-12l11.38-158.8a13.08,13.08,0,0,1,12.81-12H339a11,11,0,0,1,11.1,12l-11.38,158.8A13.08,13.08,0,0,1,325.94,259.47Z"/><rect class="cls-6" x="301.09" y="135.42" width="91.33" height="0.84" transform="translate(186.44 471.98) rotate(-85.9)"/><rect class="cls-6" x="325.98" y="204.66" width="31.62" height="0.84" transform="matrix(0.07, -1, 1, 0.07, 112.81, 531.34)"/><path class="cls-6" d="M325.48,256.5H111.68a8.56,8.56,0,0,1-8.63-9.3L114.38,89a10.2,10.2,0,0,1,10-9.3h213.8a8.57,8.57,0,0,1,8.64,9.3L335.45,247.2A10.17,10.17,0,0,1,325.48,256.5Z"/><path class="cls-9" d="M325.48,256.5H111.68a8.56,8.56,0,0,1-8.63-9.3L114.38,89a10.2,10.2,0,0,1,10-9.3h213.8a8.57,8.57,0,0,1,8.64,9.3L335.45,247.2A10.17,10.17,0,0,1,325.48,256.5Z"/><path class="cls-10" d="M166.52,249.49H116.59a4.13,4.13,0,0,1-4.17-4.49l11-153.75a4.93,4.93,0,0,1,4.82-4.5h49.93a4.14,4.14,0,0,1,4.17,4.5L171.34,245A4.92,4.92,0,0,1,166.52,249.49Z"/><path class="cls-11" d="M164.59,108.43H138.75a3.73,3.73,0,0,1-3.76-4.05l.28-4a4.44,4.44,0,0,1,4.34-4h25.85a3.73,3.73,0,0,1,3.75,4l-.28,4A4.44,4.44,0,0,1,164.59,108.43Z"/><path class="cls-12" d="M148.16,170.62H108.71a6.5,6.5,0,0,1-6.56-7.06L105,124.1a7.73,7.73,0,0,1,7.57-7.06H152a6.51,6.51,0,0,1,6.56,7.06l-2.83,39.46A7.74,7.74,0,0,1,148.16,170.62Z"/><path class="cls-8" d="M153.82,138.27a3,3,0,0,0-2.89,2.7l-.41,5.72a2.48,2.48,0,0,0,2.5,2.7h4a.74.74,0,0,0,.72-.67l.7-9.78a.61.61,0,0,0-.62-.67Z"/><path class="cls-6" d="M138.59,127.08H113.73a1,1,0,0,1-1-1.08h0a1.2,1.2,0,0,1,1.16-1.08h24.87a1,1,0,0,1,1,1.08h0A1.17,1.17,0,0,1,138.59,127.08Z"/><path class="cls-6" d="M138.2,132.57H113.33a1,1,0,0,1-1-1.07h0a1.17,1.17,0,0,1,1.16-1.08h24.86a1,1,0,0,1,1,1.08h0A1.19,1.19,0,0,1,138.2,132.57Z"/><path class="cls-6" d="M129.21,138.07H112.94a1,1,0,0,1-1-1.08h0a1.18,1.18,0,0,1,1.15-1.08h16.28a1,1,0,0,1,1,1.08h0A1.18,1.18,0,0,1,129.21,138.07Z"/><path class="cls-10" d="M138.66,164.25H114.6a4.26,4.26,0,0,1-4.29-4.62l.91-12.64a5.06,5.06,0,0,1,5-4.62h24.06a4.25,4.25,0,0,1,4.28,4.62l-.9,12.64A5.07,5.07,0,0,1,138.66,164.25Z"/><path class="cls-11" d="M161.12,185.4H131.18a1.84,1.84,0,0,1-1.85-2h0a2.19,2.19,0,0,1,2.14-2h29.94a1.85,1.85,0,0,1,1.86,2h0A2.2,2.2,0,0,1,161.12,185.4Z"/><path class="cls-13" d="M155.09,193.25h-19a1.84,1.84,0,0,1-1.86-2h0a2.2,2.2,0,0,1,2.15-2h19a1.84,1.84,0,0,1,1.86,2h0A2.19,2.19,0,0,1,155.09,193.25Z"/><path class="cls-11" d="M159.57,207.08H129.63a1.84,1.84,0,0,1-1.86-2h0a2.2,2.2,0,0,1,2.15-2h29.93a1.84,1.84,0,0,1,1.86,2h0A2.19,2.19,0,0,1,159.57,207.08Z"/><path class="cls-13" d="M153.53,214.94h-19a1.84,1.84,0,0,1-1.86-2h0a2.2,2.2,0,0,1,2.14-2h19a1.85,1.85,0,0,1,1.86,2h0A2.2,2.2,0,0,1,153.53,214.94Z"/><path class="cls-11" d="M158,228.76H128.08a1.84,1.84,0,0,1-1.86-2h0a2.19,2.19,0,0,1,2.14-2H158.3a1.84,1.84,0,0,1,1.86,2h0A2.2,2.2,0,0,1,158,228.76Z"/><rect class="cls-13" x="131.12" y="232.62" width="23" height="4" rx="2"/><path class="cls-14" d="M327.8,204.41a2.19,2.19,0,0,1,4.11,1.15L329,245.74a3.84,3.84,0,0,1-3.48,3.75H180.76c-1.77,0-3.09-1.68-2.94-3.75l1.71-23.87a5.18,5.18,0,0,1,6.52-4.6c8.16,2.54,15.15,1,21.65-2.17,13.9-6.9,25.52-21.71,41.5-21.71.61,0,1.22,0,1.8.05,23.77,1.44,31,31,49.43,31,5.44,0,10.41-2.35,14.73-5.7A59.55,59.55,0,0,0,327.8,204.41Z"/><path class="cls-14" d="M330.81,221,329,245.74a3.84,3.84,0,0,1-3.48,3.75H180.76c-1.77,0-3.09-1.68-2.94-3.75l3.52-49.24c.25-3.37,4.67-4.79,6.46-2.06,4.61,7.05,11.72,16.15,19.9,20.66a20.32,20.32,0,0,0,9.78,2.76c11.69,0,21.64-13.87,33.52-24.42,7.29-6.46,15.3-11.68,24.88-11.68,20,0,23,32.5,39.28,36.94,3.15.86,6.79.68,11.15-1A3.25,3.25,0,0,1,330.81,221Z"/><g class="cls-15"><path class="cls-6" d="M331.52,211.36a.33.33,0,0,1-.21-.09.18.18,0,0,1-.07-.1.36.36,0,0,1,0-.11.26.26,0,0,1,.09-.21.3.3,0,0,1,.42,0,.27.27,0,0,1,.09.21.36.36,0,0,1,0,.11.43.43,0,0,1-.07.1A.33.33,0,0,1,331.52,211.36Z"/><path class="cls-6" d="M190.75,231.94a.29.29,0,0,1-.3-.3h0a.29.29,0,0,1,.3-.29h0a.3.3,0,0,1,.29.3h0a.3.3,0,0,1-.29.31h0Zm-3-.17h0a.29.29,0,0,1-.27-.32h0a.31.31,0,0,1,.33-.27h0a.31.31,0,0,1,.27.33h0a.3.3,0,0,1-.3.27h0Zm5.69-.26a.3.3,0,0,1,.26-.34h0a.3.3,0,0,1,.33.27h0a.29.29,0,0,1-.26.33h0A.28.28,0,0,1,193.42,231.51Zm-8.66-.2a.31.31,0,0,1-.23-.35h0a.31.31,0,0,1,.36-.24h0a.31.31,0,0,1,.23.36h0a.29.29,0,0,1-.29.23h-.07Zm11.59-.29a.3.3,0,0,1,.22-.37h0a.3.3,0,0,1,.36.22h0a.32.32,0,0,1-.22.37h-.07A.29.29,0,0,1,196.35,231Zm96.06.12a.3.3,0,0,1-.3-.3h0a.31.31,0,0,1,.3-.3h0a.29.29,0,0,1,.3.3h0a.29.29,0,0,1-.3.3Zm2.68-.42a.3.3,0,0,1,.27-.33h0a.3.3,0,0,1,.33.27h0a.31.31,0,0,1-.27.33h0A.3.3,0,0,1,295.09,230.72Zm-5.68.24a.3.3,0,0,1-.26-.34h0a.3.3,0,0,1,.34-.26h0a.29.29,0,0,1,.26.33h0a.3.3,0,0,1-.3.27h0Zm-107.56-.36a.3.3,0,0,1-.21-.37h0A.31.31,0,0,1,182,230h0a.31.31,0,0,1,.2.37h0a.3.3,0,0,1-.29.21h-.08ZM298,230.31a.3.3,0,0,1,.24-.36h0a.3.3,0,0,1,.35.24h0a.29.29,0,0,1-.23.35h-.06A.31.31,0,0,1,298,230.31Zm-11.58.1a.28.28,0,0,1-.22-.36h0a.3.3,0,0,1,.36-.22h0a.31.31,0,0,1,.22.36h0a.31.31,0,0,1-.29.23h-.07Zm-87.26-.25a.28.28,0,0,1,.17-.38h0a.31.31,0,0,1,.39.16h0a.3.3,0,0,1-.18.39h0a.19.19,0,0,1-.1,0h0A.29.29,0,0,1,199.2,230.16ZM301,229.65a.3.3,0,0,1,.21-.38h0a.29.29,0,0,1,.37.21h0a.31.31,0,0,1-.21.37h0l-.08,0h0A.31.31,0,0,1,301,229.65Zm-17.37-.11h0a.3.3,0,0,1-.19-.38h0a.31.31,0,0,1,.39-.18h0a.3.3,0,0,1,.18.39h0a.3.3,0,0,1-.29.19h0A.13.13,0,0,1,283.58,229.54ZM201.93,229a.3.3,0,0,1,.13-.41h0a.31.31,0,0,1,.4.15h0a.29.29,0,0,1-.13.39h0a.23.23,0,0,1-.14,0h0A.31.31,0,0,1,201.93,229Zm101.87-.21a.29.29,0,0,1,.18-.38h0a.32.32,0,0,1,.38.19h0a.3.3,0,0,1-.19.38h0l-.09,0h0A.31.31,0,0,1,303.8,228.77Zm-23-.37h0a.3.3,0,0,1-.15-.4h0a.31.31,0,0,1,.4-.15h0a.3.3,0,0,1,.15.41h0a.33.33,0,0,1-.28.17h0A.18.18,0,0,1,280.8,228.4Zm25.79-.69a.29.29,0,0,1,.17-.38h0a.28.28,0,0,1,.38.16h0a.29.29,0,0,1-.16.39h0a.2.2,0,0,1-.11,0h0A.3.3,0,0,1,306.59,227.71Zm-102.06-.17a.3.3,0,0,1,.09-.42h0a.31.31,0,0,1,.42.09h0a.32.32,0,0,1-.1.42h0a.3.3,0,0,1-.16.05h0A.3.3,0,0,1,204.53,227.54Zm73.59-.48h0a.31.31,0,0,1-.12-.42h0a.3.3,0,0,1,.41-.11h0a.3.3,0,0,1,.12.4h0a.32.32,0,0,1-.27.16h0Zm31.2-.55a.29.29,0,0,1,.14-.39h0a.3.3,0,0,1,.41.14h0a.29.29,0,0,1-.15.39h0a.35.35,0,0,1-.14,0h0A.3.3,0,0,1,309.32,226.51ZM207,225.89a.31.31,0,0,1,.07-.42h0a.31.31,0,0,1,.43.06h0a.31.31,0,0,1-.07.42h0a.43.43,0,0,1-.18.06h0A.32.32,0,0,1,207,225.89Zm68.53-.34h0a.29.29,0,0,1-.1-.4h0a.29.29,0,0,1,.41-.1h0a.29.29,0,0,1,.1.41h0a.31.31,0,0,1-.25.15h0A.33.33,0,0,1,275.53,225.55Zm36.46-.37a.3.3,0,0,1,.12-.41h0a.31.31,0,0,1,.41.12h0a.32.32,0,0,1-.12.42h0a.4.4,0,0,1-.15,0h0A.3.3,0,0,1,312,225.18Zm-102.6-1.09a.3.3,0,0,1,.05-.43h0a.31.31,0,0,1,.42.05h0a.31.31,0,0,1-.05.43h0a.33.33,0,0,1-.19.06h0A.27.27,0,0,1,209.39,224.09ZM273,224h0a.31.31,0,0,1-.09-.42h0a.33.33,0,0,1,.43-.09h0a.31.31,0,0,1,.08.42h0a.3.3,0,0,1-.25.14h0A.34.34,0,0,1,273,224Zm41.6-.22a.29.29,0,0,1,.11-.41h0a.31.31,0,0,1,.41.11h0a.31.31,0,0,1-.11.41h0a.29.29,0,0,1-.16,0h0A.29.29,0,0,1,314.6,223.73Zm-44.08-1.44a.29.29,0,0,1-.08-.42h0a.32.32,0,0,1,.42-.08h0a.33.33,0,0,1,.08.43h0a.33.33,0,0,1-.26.13h0A.27.27,0,0,1,270.52,222.29Zm46.63-.1a.31.31,0,0,1,.09-.42h0a.31.31,0,0,1,.42.09h0a.32.32,0,0,1-.1.42h0a.28.28,0,0,1-.16.05h0A.31.31,0,0,1,317.15,222.19Zm-105.45,0a.3.3,0,0,1,0-.42h0a.31.31,0,0,1,.43,0h0a.29.29,0,0,1,0,.42h0a.26.26,0,0,1-.19.07h0A.3.3,0,0,1,211.7,222.21Zm108-1.65a.31.31,0,0,1,.07-.43h0a.3.3,0,0,1,.42.08h0a.3.3,0,0,1-.08.42h0a.33.33,0,0,1-.16.05h0A.32.32,0,0,1,319.65,220.56Zm-51.6.07a.3.3,0,0,1-.08-.42h0a.29.29,0,0,1,.41-.08h0a.29.29,0,0,1,.08.42h0a.29.29,0,0,1-.24.13h0A.34.34,0,0,1,268.05,220.63ZM214,220.29a.29.29,0,0,1,0-.42h0a.3.3,0,0,1,.42,0h0a.3.3,0,0,1,0,.42h0a.31.31,0,0,1-.2.07h0A.31.31,0,0,1,214,220.29ZM265.57,219a.3.3,0,0,1-.09-.41h0a.31.31,0,0,1,.42-.09h0a.3.3,0,0,1,.08.42h0a.29.29,0,0,1-.24.13h0A.26.26,0,0,1,265.57,219Zm56.52-.14a.29.29,0,0,1,.06-.41h0a.31.31,0,0,1,.43.06h0a.3.3,0,0,1-.08.42h0a.27.27,0,0,1-.17.06h0A.28.28,0,0,1,322.09,218.83Zm-105.8-.44a.3.3,0,0,1,0-.43h0a.31.31,0,0,1,.42,0h0a.29.29,0,0,1,0,.42h0a.26.26,0,0,1-.19.07h0A.31.31,0,0,1,216.29,218.39Zm46.78-1a.31.31,0,0,1-.1-.42h0a.29.29,0,0,1,.41-.09h0a.3.3,0,0,1,.1.41h0a.3.3,0,0,1-.25.15h0A.28.28,0,0,1,263.07,217.37Zm61.41-.32a.3.3,0,0,1,0-.42h0a.3.3,0,0,1,.43.05h0a.31.31,0,0,1-.06.42h0a.23.23,0,0,1-.17.07h0A.3.3,0,0,1,324.48,217.05Zm-105.86-.51a.3.3,0,0,1,.07-.42h0a.3.3,0,0,1,.42.06h0a.31.31,0,0,1-.06.42h0a.32.32,0,0,1-.18.06h0A.32.32,0,0,1,218.62,216.54Zm41.89-.69a.3.3,0,0,1-.1-.42h0a.28.28,0,0,1,.4-.1h0a.29.29,0,0,1,.12.4h0a.32.32,0,0,1-.27.16h0A.48.48,0,0,1,260.51,215.85Zm66.3-.66a.29.29,0,0,1,0-.42h0a.29.29,0,0,1,.42,0h0a.3.3,0,0,1,0,.42h0a.3.3,0,0,1-.19.07h0A.29.29,0,0,1,326.81,215.19Zm-105.76-.39a.3.3,0,0,1,.08-.42h0a.31.31,0,0,1,.42.09h0a.3.3,0,0,1-.09.41h0a.25.25,0,0,1-.17.05h0A.29.29,0,0,1,221.05,214.8Zm36.85-.37a.29.29,0,0,1-.12-.4h0a.3.3,0,0,1,.4-.13h0a.31.31,0,0,1,.14.41h0a.33.33,0,0,1-.28.16h0A.27.27,0,0,1,257.9,214.43Zm71.19-1.16a.32.32,0,0,1,0-.43h0a.31.31,0,0,1,.42,0h0a.3.3,0,0,1,0,.42h0a.27.27,0,0,1-.19.08h0A.29.29,0,0,1,329.09,213.27Zm-105.52-.06a.29.29,0,0,1,.11-.41h0a.31.31,0,0,1,.41.11h0a.31.31,0,0,1-.12.42h0l-.15,0h0A.29.29,0,0,1,223.57,213.21Zm31.66-.05h0a.3.3,0,0,1-.15-.4h0a.3.3,0,0,1,.4-.14h0a.29.29,0,0,1,.15.39h0a.3.3,0,0,1-.27.18h0A.31.31,0,0,1,255.23,213.16ZM252.49,212a.28.28,0,0,1-.17-.38h0a.31.31,0,0,1,.38-.18h0a.32.32,0,0,1,.18.39h0a.29.29,0,0,1-.28.19h0A.22.22,0,0,1,252.49,212Zm-26.29-.21a.3.3,0,0,1,.15-.39h0a.31.31,0,0,1,.41.15h0a.3.3,0,0,1-.16.39h0a.27.27,0,0,1-.12,0h0A.3.3,0,0,1,226.2,211.83Zm23.48-.71a.31.31,0,0,1-.2-.38h0a.32.32,0,0,1,.38-.2h0a.31.31,0,0,1,.2.38h0a.31.31,0,0,1-.29.21h-.09ZM229,210.71a.3.3,0,0,1,.2-.38h0a.3.3,0,0,1,.37.19h0a.29.29,0,0,1-.19.38h0l-.1,0h0A.31.31,0,0,1,229,210.71Zm17.86-.32a.3.3,0,0,1-.23-.35h0a.3.3,0,0,1,.36-.23h0a.3.3,0,0,1,.23.35h0a.3.3,0,0,1-.3.24h-.06Zm-15-.5a.3.3,0,0,1,.23-.36h0a.3.3,0,0,1,.35.23h0a.29.29,0,0,1-.22.36h-.06A.31.31,0,0,1,231.82,209.89Zm12.09,0h0a.29.29,0,0,1-.25-.34h0a.28.28,0,0,1,.33-.25h0a.29.29,0,0,1,.25.34h0a.3.3,0,0,1-.29.25h-.05Zm-9.16-.5a.3.3,0,0,1,.26-.32h0a.29.29,0,0,1,.34.26h0a.33.33,0,0,1-.27.34h0A.31.31,0,0,1,234.75,209.38Zm6.22.2h0a.29.29,0,0,1-.28-.32h0A.29.29,0,0,1,241,209h0a.3.3,0,0,1,.28.32h0a.3.3,0,0,1-.29.29h0Zm-3.25-.39a.29.29,0,0,1,.3-.3h0a.29.29,0,0,1,.3.3h0a.3.3,0,0,1-.3.3h0A.29.29,0,0,1,237.72,209.19Z"/><path class="cls-6" d="M179,229.66l-.11,0-.1-.07a.24.24,0,0,1-.06-.1.36.36,0,0,1,0-.11.32.32,0,0,1,.08-.21.18.18,0,0,1,.1-.06.24.24,0,0,1,.23,0,.15.15,0,0,1,.1.06.28.28,0,0,1,.08.21.37.37,0,0,1,0,.11.26.26,0,0,1-.07.1l-.1.07A.24.24,0,0,1,179,229.66Z"/></g><path class="cls-6" d="M227.15,139.71h0l-2.05-2.21a20.11,20.11,0,0,1-13.67,5.5,17.18,17.18,0,0,1-17.14-13.91l-3.08.8h0l-2.81.74a22.73,22.73,0,0,0,5.61,11.1c8.92,9.6,24.72,9.6,35,0Z"/><path class="cls-3" d="M231.53,106.72l-2.68,2.5h0L227,111a17.49,17.49,0,0,1,4.56,13.28,20.25,20.25,0,0,1-6.45,13.27l1.6,1.73h0l2.32,2.5a26.7,26.7,0,0,0,8.51-17.51A23.15,23.15,0,0,0,231.53,106.72Z"/><path class="cls-4" d="M231.53,106.72c-8.91-9.6-24.72-9.6-35,0a26.19,26.19,0,0,0-8.12,23.91l3.48-.91h0l2.41-.63a18.61,18.61,0,0,1-.28-4.86,20.48,20.48,0,0,1,20.11-18.77A17.39,17.39,0,0,1,227,111l2.38-2.21h0Z"/><path class="cls-6" d="M256.76,139.71h0l2.37-2.21a17.47,17.47,0,0,1-4.55-13.27,20.58,20.58,0,0,1,15.21-18.14l-.59-3h0l-.54-2.76a27.22,27.22,0,0,0-11.56,6.41c-10.29,9.6-11.42,25.41-2.5,35Z"/><path class="cls-3" d="M289.6,141.73l-2.32-2.5h0l-1.61-1.73A20.11,20.11,0,0,1,272,143a17.37,17.37,0,0,1-12.88-5.5l-1.86,1.73h0l-2.67,2.5a23,23,0,0,0,17,7.25A26.59,26.59,0,0,0,289.6,141.73Z"/><path class="cls-4" d="M289.6,141.73c10.29-9.6,11.42-25.41,2.51-35a23.61,23.61,0,0,0-23.45-6.41l.67,3.42h0l.46,2.37a19.55,19.55,0,0,1,4.91-.63,17.24,17.24,0,0,1,17.42,18.77,20.21,20.21,0,0,1-6.45,13.27l2.06,2.21h0Z"/><path class="cls-16" d="M331.09,101.68a1.7,1.7,0,0,1,1.74,1.88l-1.08,15.15a2.21,2.21,0,0,1-2.14,2H314.46a1.7,1.7,0,0,1-1.74-1.88l1.08-15.15a2.21,2.21,0,0,1,2.14-2h15.15m0-.78H315.94a3,3,0,0,0-2.91,2.71L312,118.77a2.49,2.49,0,0,0,2.51,2.71h15.15a3,3,0,0,0,2.91-2.71l1.09-15.16a2.5,2.5,0,0,0-2.52-2.71Z"/><path class="cls-16" d="M329.22,127.75a1.7,1.7,0,0,1,1.74,1.88l-1.08,15.15a2.21,2.21,0,0,1-2.13,2H312.59a1.69,1.69,0,0,1-1.28-.55,1.72,1.72,0,0,1-.46-1.33l1.09-15.15a2.19,2.19,0,0,1,2.13-2h15.15m0-.78H314.07a3,3,0,0,0-2.91,2.71l-1.08,15.15a2.49,2.49,0,0,0,2.51,2.72h15.16a3,3,0,0,0,2.9-2.72l1.09-15.15a2.5,2.5,0,0,0-2.52-2.71Z"/><path class="cls-4" d="M307,211.58a1.46,1.46,0,0,1,1.09.46,1.48,1.48,0,0,1,.38,1.12,1.85,1.85,0,0,1-1.82,1.69,1.44,1.44,0,0,1-1.46-1.58,1.85,1.85,0,0,1,1.81-1.69m0-.78a2.64,2.64,0,0,0-2.59,2.41,2.22,2.22,0,0,0,2.24,2.42,2.64,2.64,0,0,0,2.59-2.42A2.22,2.22,0,0,0,307,210.8Z"/><polygon class="cls-4" points="307.23 210.82 306.85 210.79 306.9 210.02 307.29 210.04 307.23 210.82"/><path class="cls-4" d="M307.4,208.46l-.38,0,.11-1.59.39,0Zm.23-3.18-.39,0,.12-1.59.38,0Zm.23-3.17-.39,0,.11-1.58.39,0Zm.22-3.17-.38,0,.11-1.58.39,0Zm.23-3.17-.39,0,.12-1.59.38,0Zm.23-3.17-.39,0,.12-1.59.38,0Zm.23-3.18-.39,0,.11-1.58.39,0Zm.22-3.17-.38,0,.11-1.58.39,0Zm.23-3.17-.39,0,.12-1.59.38,0Zm.23-3.17-.39,0,.12-1.59.38,0Zm.23-3.18-.39,0,.11-1.59.39,0Z"/><rect class="cls-4" x="309.35" y="172.97" width="0.77" height="0.39" transform="translate(115.07 469.86) rotate(-85.94)"/><path class="cls-4" d="M326.14,173.19H187.05a2.74,2.74,0,0,1-2.75-3l.69-9.57a3.18,3.18,0,0,1,3.11-2.91H327.18a2.73,2.73,0,0,1,2.75,3l-.68,9.57A3.17,3.17,0,0,1,326.14,173.19Zm-138-14.6a2.32,2.32,0,0,0-2.27,2.13l-.69,9.57a1.93,1.93,0,0,0,.5,1.46,1.89,1.89,0,0,0,1.41.6H326.14a2.31,2.31,0,0,0,2.27-2.12l.69-9.57a1.9,1.9,0,0,0-.51-1.47,1.92,1.92,0,0,0-1.41-.6Z"/><path class="cls-17" d="M323.15,163.93H191.31a1.2,1.2,0,0,1-1.21-1.31h0a1.43,1.43,0,0,1,1.4-1.3H323.34a1.21,1.21,0,0,1,1.21,1.3h0A1.43,1.43,0,0,1,323.15,163.93Z"/><path class="cls-17" d="M301.18,169.42H190.91a1.19,1.19,0,0,1-1.2-1.3h0a1.43,1.43,0,0,1,1.39-1.31H301.36a1.2,1.2,0,0,1,1.21,1.31h0A1.43,1.43,0,0,1,301.18,169.42Z"/></g></svg>