<svg id="Layer_1" data-name="Layer 1" xmlns="http://www.w3.org/2000/svg" viewBox="0 0 360 360"><defs><style>.cls-1{fill:#f5f5f5;}.cls-2{fill:#e1e1e1;}.cls-3{fill:#fff;}.cls-4{fill:#ececec;}.cls-5{fill:#d15b66;}.cls-6{opacity:0.8;}.cls-7{fill:#1a2e35;}.cls-8{opacity:0.2;}.cls-9{fill:#375a64;}.cls-10{fill:none;}.cls-11{fill:#fafafa;}.cls-12{fill:#00dfdf;}.cls-13{opacity:0.3;}.cls-14{fill:#ffbf9d;}.cls-15{fill:#ff9a6c;}.cls-16{opacity:0.78;}.cls-17{opacity:0.5;}.cls-18{fill:#054641;}.cls-19{fill:#376b67;}</style></defs><title>process-illustration</title><polygon class="cls-1" points="81.12 320.92 81.12 355.46 131.63 355.46 187.35 355.46 187.35 320.92 81.12 320.92"/><polygon class="cls-2" points="76.66 311.26 76.66 320.92 191.06 320.92 191.06 311.26 131.63 311.26 76.66 311.26"/><polygon class="cls-2" points="133.86 355.46 187.35 355.46 187.35 320.92 191.06 320.92 191.06 311.26 131.63 311.26 131.63 320.02 133.86 355.46"/><rect class="cls-2" x="95.97" y="326.49" width="21.54" height="5.2"/><rect class="cls-3" x="93.2" y="338.19" width="27.66" height="10.98"/><polygon class="cls-1" points="93.31 284.73 93.31 311.26 132.12 311.26 174.92 311.26 174.92 284.73 93.31 284.73"/><polygon class="cls-2" points="89.89 277.31 89.89 284.73 177.77 284.73 177.77 277.31 132.12 277.31 89.89 277.31"/><polygon class="cls-4" points="133.83 311.26 174.92 311.26 174.92 284.73 177.77 284.73 177.77 277.31 132.12 277.31 132.12 284.04 133.83 311.26"/><rect class="cls-2" x="104.73" y="289.01" width="16.55" height="3.99"/><rect class="cls-3" x="102.6" y="297.99" width="21.25" height="8.43"/><path class="cls-1" d="M254.81,354.59c-17.86-12.21-22.12-35.16-21.64-55.84.08-3.45-.33-7.09,1.28-10.13s5.41-5.16,8.52-3.73c2.57,1.18,3.72,4.15,5.18,6.6a20.17,20.17,0,0,0,8.17,7.64c2.21,1.12,4.94,1.79,7.1.57,2.95-1.68,3.26-5.79,3.21-9.22q-.17-9.6-.32-19.19c-.06-3.43-.11-6.94.93-10.2s3.36-6.32,6.61-7.27,7.31.89,8,4.24a32.06,32.06,0,0,1,.14,4.28c.11,1.42.79,3,2.15,3.37s2.73-.6,3.75-1.61c3.51-3.5,5.86-8,8.06-12.46s4.34-9,7.51-12.84,7.59-6.85,12.5-7.18,10.18,2.65,11.48,7.46S326,248.84,323,252.79a76.93,76.93,0,0,1-15.79,15.37,6.26,6.26,0,0,0-2.64,2.9c-.72,2.29,1.47,4.54,3.74,5.27,2.56.83,5.34.53,8,.82s5.59,1.44,6.63,4c1.45,3.49-1.45,7.2-4.31,9.63a65.61,65.61,0,0,1-19.31,11.42c-2.51.95-5.16,1.79-7.18,3.58s-3.21,4.89-2,7.3,4.42,3.14,7.06,2.63,5-2,7.5-3c4.7-1.83,10.8-1.57,13.86,2.48,2,2.66,2.23,6.39,1.26,9.59a25.05,25.05,0,0,1-5.12,8.54,66.09,66.09,0,0,1-28,20.09c-10.9,3.91-21,5-31.94,1.18"/><path class="cls-2" d="M260,341.57a307.16,307.16,0,0,1,11.86-33.23l3.56-8.55c1.17-2.81,2.34-5.59,3.64-8.24a156.13,156.13,0,0,1,8.38-14.79c2.9-4.58,5.81-8.82,8.56-12.76s5.41-7.56,8-10.76a122.36,122.36,0,0,1,13.14-14.19c1.68-1.54,3-2.7,3.94-3.47l1.05-.88.37-.28a2.61,2.61,0,0,1-.33.33l-1,.92c-.89.81-2.2,2-3.85,3.57a127.92,127.92,0,0,0-13,14.28c-2.53,3.21-5.14,6.84-7.88,10.78s-5.62,8.2-8.5,12.77a155.64,155.64,0,0,0-8.31,14.76c-1.3,2.63-2.45,5.39-3.62,8.2s-2.35,5.67-3.55,8.55a315.57,315.57,0,0,0-11.89,33.15"/><path class="cls-2" d="M279.25,291.52a7.41,7.41,0,0,1-.35-1.46c-.19-.94-.42-2.32-.67-4-.53-3.41-1.08-8.15-1.68-13.37s-1.22-9.94-1.79-13.34c-.28-1.69-.52-3.07-.7-4a7.6,7.6,0,0,1-.21-1.49,7.07,7.07,0,0,1,.45,1.43c.25.94.56,2.3.9,4,.68,3.39,1.38,8.11,2,13.35s1.09,9.82,1.49,13.38l.48,4.06A6,6,0,0,1,279.25,291.52Z"/><path class="cls-2" d="M323.29,282.82a10.33,10.33,0,0,1-1.76.23c-1.13.11-2.76.27-4.78.52-4,.48-9.59,1.33-15.68,2.55s-11.54,2.56-15.46,3.65c-2,.52-3.54,1-4.64,1.31a7.91,7.91,0,0,1-1.72.44,10,10,0,0,1,1.65-.67c1.07-.39,2.63-.93,4.59-1.52,3.9-1.2,9.36-2.61,15.46-3.84a153.55,153.55,0,0,1,15.75-2.37c2-.2,3.68-.28,4.82-.32A8.65,8.65,0,0,1,323.29,282.82Z"/><path class="cls-2" d="M260.54,340.75a2.19,2.19,0,0,1-.3-.53c-.21-.43-.47-1-.77-1.59-.67-1.38-1.58-3.41-2.66-5.92-2.19-5-5-12.08-8-19.9s-5.7-14.88-7.78-19.95c-1-2.47-1.85-4.5-2.47-6-.27-.66-.48-1.2-.66-1.64a2.35,2.35,0,0,1-.2-.59,2.2,2.2,0,0,1,.31.54c.21.43.47.95.77,1.59.67,1.38,1.57,3.4,2.66,5.92,2.19,5,5,12.08,8,19.9s5.7,14.88,7.78,19.95l2.47,6,.66,1.64A2,2,0,0,1,260.54,340.75Z"/><path class="cls-2" d="M319,321.25a2.37,2.37,0,0,1-.58.24l-1.7.59-6.25,2.1c-5.29,1.78-12.56,4.31-20.58,7.12s-15.33,5.29-20.66,6.95c-2.66.83-4.82,1.49-6.32,1.91l-1.73.47c-.4.1-.61.15-.62.12a3,3,0,0,1,.58-.24l1.7-.59,6.26-2.1c5.28-1.77,12.55-4.31,20.58-7.12s15.33-5.28,20.65-6.95c2.66-.83,4.82-1.48,6.32-1.9l1.73-.48A2.35,2.35,0,0,1,319,321.25Z"/><path class="cls-2" d="M337.18,50.39a8.28,8.28,0,0,0,4.93-7.66,7.78,7.78,0,1,0-15.52-.07,8.26,8.26,0,0,0,4.94,7.73c-11.94,1.8-11.4,14.78-11.4,14.78l28.25.13S349,52.18,337.18,50.39Z"/><path class="cls-2" d="M333,150.32a12.82,12.82,0,0,1,3.12-1.35l.64-3.09,5.22-.09.75,3.06a12.81,12.81,0,0,1,3.17,1.24l2.63-1.72,3.76,3.62-1.64,2.7a12.52,12.52,0,0,1,1.36,3.12l3.09.64.09,5.21-3.07.76a12.51,12.51,0,0,1-1.24,3.16l1.73,2.64L349,174l-2.69-1.63a13.21,13.21,0,0,1-3.12,1.35l-.64,3.09-5.22.09-.75-3.06a13,13,0,0,1-3.17-1.25l-2.63,1.73L327,170.67l1.64-2.7a12.85,12.85,0,0,1-1.36-3.12l-3.08-.64-.1-5.22,3.07-.75a12.74,12.74,0,0,1,1.24-3.16l-1.73-2.64,3.63-3.75,2.69,1.63Zm2.78,7a5.6,5.6,0,1,0,7.92-.14A5.6,5.6,0,0,0,335.82,157.27Z"/><path class="cls-2" d="M335.82,157.27a4.39,4.39,0,0,1,1.05-.91,5.57,5.57,0,0,1,3.65-.87,5.63,5.63,0,0,1,2.48.88,5.79,5.79,0,0,1,2,2.27,5.44,5.44,0,0,1,.5,1.57,5.21,5.21,0,0,1,0,1.72,5.84,5.84,0,0,1-1.56,3.23,5.7,5.7,0,0,1-3.17,1.66,5.24,5.24,0,0,1-1.72,0,5.29,5.29,0,0,1-1.59-.45,5.71,5.71,0,0,1-2.33-1.93,5.63,5.63,0,0,1-1-2.45,5.55,5.55,0,0,1,.74-3.68,4.27,4.27,0,0,1,.87-1.07s-.33.37-.77,1.14a5.56,5.56,0,0,0-.61,3.58,5.41,5.41,0,0,0,1,2.33,5.46,5.46,0,0,0,3.74,2.23,5.26,5.26,0,0,0,1.63,0,5.42,5.42,0,0,0,4.46-4.62,4.69,4.69,0,0,0,0-1.63,4.9,4.9,0,0,0-.47-1.49,5.48,5.48,0,0,0-4.25-3.05,5.54,5.54,0,0,0-3.56.74C336.18,156.92,335.85,157.3,335.82,157.27Z"/><path class="cls-2" d="M333,150.32s-.06,0-.17-.09l-.52-.3-2-1.2h.06l-3.6,3.78v-.1c.53.79,1.11,1.68,1.74,2.63l0,0,0,.05a12.83,12.83,0,0,0-1.22,3.15l0,.06h-.06l-3.06.76.09-.11c0,1.64.07,3.39.1,5.22l-.1-.12,3.09.63.08,0,0,.08a12.68,12.68,0,0,0,1.35,3.08l0,.07,0,.07c-.51.84-1.07,1.76-1.63,2.7l0-.18,3.76,3.62h-.18l2.63-1.74.08-.05.08.05a12.85,12.85,0,0,0,3.13,1.23l.09,0,0,.09c.24,1,.49,2,.75,3.06l-.15-.12,5.21-.09-.15.13c.2-1,.42-2,.64-3.09l0-.1.09,0a12.42,12.42,0,0,0,3.08-1.34h0l.08,0,.08,0,2.7,1.63-.2,0,3.62-3.75,0,.19-1.72-2.63-.05-.08,0-.09a12.07,12.07,0,0,0,1.23-3.12l0-.09.09,0,3.06-.74-.12.15c0-1.78-.05-3.52-.08-5.22l.12.14L352,158l-.09,0,0-.09a12.5,12.5,0,0,0-1.34-3.08l0-.07,0-.08c.57-.92,1.11-1.81,1.64-2.69l0,.17-3.74-3.63h.15L346,150.19l-.06,0-.06,0a12.71,12.71,0,0,0-3.13-1.25h-.07v-.07l-.74-3.06.09.07-5.21.07.07-.06c-.27,1.23-.49,2.24-.67,3.09v0h0a12.73,12.73,0,0,0-2.39.91l-.56.3c-.13.07-.19.1-.19.09l.18-.12c.12-.07.3-.18.55-.31a11.66,11.66,0,0,1,2.38-1l0,0c.17-.85.38-1.86.62-3.1l0-.05h.05l5.22-.12h.08v.07c.24,1,.49,2,.76,3.06l-.07-.07A12.66,12.66,0,0,1,346,150h-.12l2.64-1.74.08,0,.07.07,3.76,3.61.08.08-.06.09-1.63,2.7v-.15a13.57,13.57,0,0,1,1.38,3.16l-.11-.11,3.09.64.11,0v.12c0,1.69.07,3.43.1,5.21v.12l-.12,0-3.06.76.12-.12a13.56,13.56,0,0,1-1.26,3.21v-.17l1.73,2.64.07.11-.09.09-3.62,3.75-.09.09-.11-.06-2.69-1.64h.16a12.71,12.71,0,0,1-3.16,1.38l.12-.13c-.23,1.06-.44,2.12-.65,3.09l0,.13h-.13l-5.22.09h-.12l0-.12c-.26-1.06-.52-2.11-.75-3.07l.11.12a13.43,13.43,0,0,1-3.2-1.26h.16l-2.64,1.73-.1.06-.09-.08-3.75-3.63-.08-.08.06-.1,1.64-2.69V168a12.62,12.62,0,0,1-1.36-3.15l.1.09-3.09-.65-.1,0v-.1c0-1.83-.06-3.57-.08-5.22v-.09l.09,0,3.06-.74-.08.08a13,13,0,0,1,1.27-3.19v.1l-1.71-2.64,0-.06.05-.05,3.64-3.73,0,0,0,0,2,1.24.51.32Z"/><path class="cls-2" d="M57.77,36a6.1,6.1,0,0,0,5.76-1.24c1,1.44,2.26,3.15,3.7,5,.79,1,1.55,1.94,2.28,2.81a6.24,6.24,0,0,0-3.21,7.34c-1.35.42-2.87.94-4.5,1.54-1.45.52-2.78,1-4,1.55a6.25,6.25,0,1,0,0,3.67,6,6,0,0,0,.27-2.13c1.3-.42,2.76-.91,4.32-1.48s3.2-1.22,4.52-1.79A6.16,6.16,0,0,0,70.41,54,6.25,6.25,0,1,0,71.12,42c-.76-1-1.62-2.17-2.54-3.34-1.48-1.89-2.89-3.57-4.07-4.9a7.38,7.38,0,0,0,1.26-2.37A6.27,6.27,0,1,0,53.86,27.6,6.54,6.54,0,0,0,57.77,36Z"/><path class="cls-2" d="M20.93,182.78l6.3,7.78a1.17,1.17,0,0,0,1,.42l10-.79A1.15,1.15,0,0,1,39.26,192l-5.45,8.41a1.14,1.14,0,0,0-.09,1.06l3.83,9.25a1.15,1.15,0,0,1-1.36,1.55l-9.67-2.58a1.14,1.14,0,0,0-1.05.24l-7.61,6.5a1.15,1.15,0,0,1-1.9-.81l-.53-10a1.16,1.16,0,0,0-.55-.92l-8.54-5.23a1.15,1.15,0,0,1,.19-2.05l9.34-3.6a1.16,1.16,0,0,0,.71-.81l2.33-9.73A1.16,1.16,0,0,1,20.93,182.78Z"/><path class="cls-2" d="M257.25,212.57a11.29,11.29,0,1,0-21,5.7h0l0,0c.43.73,1,1.25,1.52,2l6.56,8.69a2,2,0,0,0,3.26,0l6.44-8.54a23.18,23.18,0,0,0,1.64-2.18l0,0h0A11.15,11.15,0,0,0,257.25,212.57ZM246,217.49a5,5,0,1,1,5-5A5,5,0,0,1,246,217.49Z"/><path class="cls-5" d="M171.65,158.2a2.73,2.73,0,0,1-.3.49l-.92,1.37c-.82,1.17-2,2.87-3.49,4.95-3,4.16-7.14,9.88-11.88,16.09s-9.14,11.74-12.47,15.64c-1.67,1.94-3,3.5-4,4.54l-1.14,1.2a2.64,2.64,0,0,1-.41.39,3.23,3.23,0,0,1,.35-.45l1.07-1.25c1-1.07,2.27-2.66,3.92-4.62,3.26-3.94,7.63-9.49,12.36-15.71s8.93-11.89,12-16l3.59-4.88,1-1.32A2.68,2.68,0,0,1,171.65,158.2Z"/><path class="cls-5" d="M194.68,61.21c.12,0-.39,4.35-1.14,9.67S192.1,80.52,192,80.5s.39-4.34,1.14-9.67S194.57,61.19,194.68,61.21Z"/><path class="cls-5" d="M275.66,55.59a4.43,4.43,0,0,1-.53.47l-1.6,1.29L267.63,62l-19.57,15.3L228.42,92.54l-6,4.57-1.64,1.23a4.4,4.4,0,0,1-.59.4s.18-.17.54-.47L222.33,97l5.91-4.68L247.81,77l19.65-15.2,6-4.57L275.08,56A4.34,4.34,0,0,1,275.66,55.59Z"/><path class="cls-5" d="M314.8,108.83c0,.11-19.81,1.76-44.26,3.67s-44.28,3.37-44.29,3.25,19.8-1.76,44.26-3.67S314.79,108.71,314.8,108.83Z"/><path class="cls-5" d="M260.05,157.51c-.05.1-8.45-4.08-18.76-9.35s-18.63-9.61-18.58-9.71,8.45,4.07,18.77,9.34S260.11,157.4,260.05,157.51Z"/><path class="cls-5" d="M159.82,90.23a3.21,3.21,0,0,1-.42-.5l-1.12-1.48c-1-1.28-2.35-3.16-4-5.49-3.39-4.66-8-11.15-13-18.4s-9.35-13.9-12.47-18.74c-1.56-2.42-2.81-4.39-3.66-5.76l-1-1.58a3.1,3.1,0,0,1-.31-.57,6.41,6.41,0,0,1,.38.53l1,1.53c.92,1.38,2.2,3.31,3.77,5.69,3.18,4.8,7.6,11.41,12.57,18.66s9.53,13.76,12.86,18.47l3.93,5.57,1.06,1.52A3.83,3.83,0,0,1,159.82,90.23Z"/><path class="cls-5" d="M149.15,105.52c-.05.11-5.56-2.38-12.3-5.56S124.68,94.13,124.73,94s5.56,2.38,12.3,5.56S149.2,105.42,149.15,105.52Z"/><path class="cls-5" d="M146,120.53c0,.11-18.57-1.46-41.46-3.51s-41.44-3.81-41.43-3.92,18.57,1.45,41.47,3.5S146,120.41,146,120.53Z"/><path class="cls-5" d="M152.64,142.71c.05.11-11,4.9-24.61,10.72s-24.74,10.43-24.79,10.33,11-4.91,24.62-10.72S152.6,142.6,152.64,142.71Z"/><circle class="cls-5" cx="186.42" cy="120.53" r="40.41"/><g class="cls-6"><circle class="cls-3" cx="186.42" cy="120.53" r="40.41"/></g><path class="cls-5" d="M200,110.24a16.05,16.05,0,1,0-17.54,20.67l1.21,3.87,13.43-4.19s-.6-2.19-1.17-4.14A16.07,16.07,0,0,0,200,110.24Z"/><path class="cls-7" d="M192.23,132a1.3,1.3,0,0,1,0-.19c0-.14-.07-.33-.11-.58-.1-.5-.23-1.24-.38-2.2s-.32-2.14-.43-3.52a24.09,24.09,0,0,1,.06-4.7,15.13,15.13,0,0,1,.55-2.69,2.93,2.93,0,0,1,.75-1.26,1.64,1.64,0,0,1,1.47-.41,1.11,1.11,0,0,1,.86,1.26,2.32,2.32,0,0,1-.87,1.39,4.43,4.43,0,0,1-3.26.77,4.48,4.48,0,0,1-3-1.89,3.41,3.41,0,0,1-.64-1.73,1.45,1.45,0,0,1,1.06-1.5,1,1,0,0,1,1,.29,1.43,1.43,0,0,1,.42.91,3.15,3.15,0,0,1-.6,1.86,4.81,4.81,0,0,1-3.25,2.15,4.18,4.18,0,0,1-3.65-1.29,2.42,2.42,0,0,1-.69-1.82,1.23,1.23,0,0,1,.47-.89,1.2,1.2,0,0,1,1-.21,1.63,1.63,0,0,1,.85.47,2.57,2.57,0,0,1,.51.81,4.61,4.61,0,0,1,.31,1.83,4.73,4.73,0,0,1-1.36,3.24,4.83,4.83,0,0,1-3,1.42,2.51,2.51,0,0,1-1.61-.3,1.24,1.24,0,0,1-.54-1.45,1,1,0,0,1,.58-.55,1.49,1.49,0,0,1,.78-.08,2.25,2.25,0,0,1,1.26.76c.65.71,1.21,1.42,1.76,2.09,2.19,2.71,3.85,5,5,6.56.57.8,1,1.42,1.28,1.84l.33.48.11.17a1.47,1.47,0,0,1-.13-.16l-.34-.47-1.31-1.81c-1.15-1.57-2.83-3.83-5-6.52-.55-.67-1.12-1.39-1.76-2.08a2.16,2.16,0,0,0-1.18-.71,1,1,0,0,0-.7,1.79,2.4,2.4,0,0,0,1.5.27,4.62,4.62,0,0,0,4.23-4.5,4.5,4.5,0,0,0-.31-1.74,1.75,1.75,0,0,0-1.22-1.17,1,1,0,0,0-.82.18,1,1,0,0,0-.38.75,2.21,2.21,0,0,0,.63,1.67,4,4,0,0,0,3.48,1.22,4.56,4.56,0,0,0,3.11-2.06,3,3,0,0,0,.58-1.73,1.34,1.34,0,0,0-.36-.79.85.85,0,0,0-.78-.24,1.1,1.1,0,0,0-.68.48,1.4,1.4,0,0,0-.23.82,3.2,3.2,0,0,0,.61,1.64A4.23,4.23,0,0,0,194,119a2.17,2.17,0,0,0,.81-1.28.94.94,0,0,0-.73-1.08,1.51,1.51,0,0,0-1.32.36,2.84,2.84,0,0,0-.72,1.2,15.55,15.55,0,0,0-.55,2.66,24,24,0,0,0-.09,4.67c.1,1.37.25,2.55.39,3.52s.27,1.69.35,2.21c0,.24.06.44.09.57S192.23,132,192.23,132Z"/><path class="cls-7" d="M196.85,133.4,185.32,137a.91.91,0,0,1-1.14-.59h0a.91.91,0,0,1,.6-1.14l11.53-3.59a.9.9,0,0,1,1.13.6h0A.91.91,0,0,1,196.85,133.4Z"/><path class="cls-7" d="M197.08,134.16l-11.53,3.59a.91.91,0,0,0,.54,1.73l1.27-.4,2.67,2.68a1.2,1.2,0,0,0,1.17.29l4.12-1.29a1.15,1.15,0,0,0,.8-.91l.64-3.7.86-.26a.91.91,0,1,0-.54-1.73Z"/><g class="cls-8"><path class="cls-3" d="M171.8,108.31a11.68,11.68,0,0,1,2.43-3,8.66,8.66,0,0,1,2.15-1.42c.56-.24.91-.29,1-.18.16.26-.88,1-2.12,2.57a13.23,13.23,0,0,0-1.89,14.16c.8,1.8,1.59,2.82,1.38,3s-.42,0-.9-.42a8.47,8.47,0,0,1-1.7-1.94,11.68,11.68,0,0,1-1.56-3.53,12.38,12.38,0,0,1-.31-4.76"/></g><g class="cls-8"><path class="cls-3" d="M181.24,103.24c-1,.29-1.91.29-2.17-.19a.83.83,0,0,1,.26-.89,3,3,0,0,1,1.34-.81,2.92,2.92,0,0,1,1.56-.08c.41.11.68.33.71.59"/></g><path class="cls-9" d="M196,140.19s-.33,0-.87,0a6.9,6.9,0,0,0-2,.36,7,7,0,0,0-1.83,1c-.42.32-.66.55-.68.53a2.29,2.29,0,0,1,.6-.64,5.66,5.66,0,0,1,1.85-1,6,6,0,0,1,2.09-.32A2.57,2.57,0,0,1,196,140.19Z"/><path class="cls-9" d="M196.8,136.19c0,.05-2.06.74-4.63,1.54s-4.67,1.41-4.68,1.36,2-.75,4.62-1.55S196.78,136.13,196.8,136.19Z"/><path class="cls-9" d="M196.5,137.78a8.29,8.29,0,0,1-1.1.47c-.69.26-1.65.6-2.72.95s-2,.64-2.76.84a6.72,6.72,0,0,1-1.16.27,6.21,6.21,0,0,1,1.12-.4l2.74-.89,2.74-.9A7.14,7.14,0,0,1,196.5,137.78Z"/><path class="cls-5" d="M132.49,22a1.64,1.64,0,0,1,0-.32c0-.23,0-.54-.07-.94l0-.69c0-.26-.09-.53-.13-.83a15.28,15.28,0,0,0-.42-2.05,19.33,19.33,0,0,0-2.21-5.25,19.63,19.63,0,0,0-5-5.58,19.43,19.43,0,0,0-8.29-3.67,19.77,19.77,0,0,0-10.33.86,21.44,21.44,0,0,0-2.56,1.13A20.54,20.54,0,0,0,101,6.2a22.18,22.18,0,0,0-2.23,1.9,22.34,22.34,0,0,0-1.93,2.28A19.06,19.06,0,0,0,94,15.79,21.07,21.07,0,0,0,93,22a21.07,21.07,0,0,0,1,6.2,19.12,19.12,0,0,0,2.81,5.42,22.25,22.25,0,0,0,1.92,2.28A24.52,24.52,0,0,0,101,37.78a19.66,19.66,0,0,0,2.41,1.55,20.7,20.7,0,0,0,2.57,1.13,19.74,19.74,0,0,0,23.65-8.39,19.2,19.2,0,0,0,2.21-5.25,15.16,15.16,0,0,0,.42-2c0-.3.1-.58.13-.83l0-.69c0-.4.05-.71.07-1a1.64,1.64,0,0,1,0-.32,2.59,2.59,0,0,1,0,.32c0,.24,0,.55,0,1,0,.21,0,.44,0,.7s-.07.53-.11.83a13.32,13.32,0,0,1-.38,2.07,19,19,0,0,1-2.17,5.33,20,20,0,0,1-13.45,9.48,20.09,20.09,0,0,1-10.53-.84,20.84,20.84,0,0,1-2.62-1.15,19.31,19.31,0,0,1-2.46-1.57,22,22,0,0,1-2.28-1.93,22,22,0,0,1-2-2.33,19.53,19.53,0,0,1-2.88-5.53,21.57,21.57,0,0,1-1-6.33,21.57,21.57,0,0,1,1-6.33,19.53,19.53,0,0,1,2.88-5.53,21.93,21.93,0,0,1,2-2.32,23,23,0,0,1,2.28-1.93,20.55,20.55,0,0,1,2.46-1.58,20.77,20.77,0,0,1,2.62-1.14,20.16,20.16,0,0,1,10.52-.85,20,20,0,0,1,13.46,9.48A19,19,0,0,1,132,17.12a13.75,13.75,0,0,1,.38,2.07c0,.3.09.58.11.84s0,.48,0,.69c0,.4,0,.72,0,1A2.59,2.59,0,0,1,132.49,22Z"/><path class="cls-7" d="M116.91,19.92a9.33,9.33,0,0,0-.23-1.51,6.17,6.17,0,0,0-4.85-4.52,6.19,6.19,0,0,0-3.22.27,5.44,5.44,0,0,0-1.55.84,6.43,6.43,0,0,0-.7.59,5.85,5.85,0,0,0-.59.71,6.08,6.08,0,0,0-1.19,3.61,6.15,6.15,0,0,0,1.18,3.62,7,7,0,0,0,.6.71,7.92,7.92,0,0,0,.7.6,5.67,5.67,0,0,0,1.55.83,6.15,6.15,0,0,0,5.81-.87A6,6,0,0,0,116,23.06a5.9,5.9,0,0,0,.69-1.64,9.48,9.48,0,0,0,.23-1.5s0,0,0,.1v.29a3,3,0,0,1,0,.48,3.62,3.62,0,0,1-.12.65,5.91,5.91,0,0,1-.67,1.68,6.28,6.28,0,0,1-4.22,3,6.42,6.42,0,0,1-3.31-.26A6.21,6.21,0,0,1,107,25a5.82,5.82,0,0,1-.72-.61,7.44,7.44,0,0,1-.62-.73,6.43,6.43,0,0,1-1.23-3.73,6.36,6.36,0,0,1,1.24-3.72,6.21,6.21,0,0,1,.61-.73,5.82,5.82,0,0,1,.72-.61,6.21,6.21,0,0,1,1.6-.86,6.42,6.42,0,0,1,3.31-.26,6.22,6.22,0,0,1,2.64,1.19,6.33,6.33,0,0,1,1.58,1.79,5.91,5.91,0,0,1,.67,1.68,3.62,3.62,0,0,1,.12.65,3.08,3.08,0,0,1,0,.48v.29C116.92,19.88,116.92,19.92,116.91,19.92Z"/><path class="cls-7" d="M115,24.44s1.4,1.26,3,2.9,2.93,3,2.89,3-1.39-1.26-3-2.89S114.92,24.48,115,24.44Z"/><circle class="cls-3" cx="36.56" cy="109.89" r="26.56"/><path class="cls-5" d="M63.12,109.9s0-.15,0-.43,0-.72-.09-1.26c0-.28,0-.59-.06-.93s-.1-.71-.16-1.11a19.36,19.36,0,0,0-.56-2.74,25.26,25.26,0,0,0-3-7A26.48,26.48,0,0,0,41.43,84a24.23,24.23,0,0,0-3.33-.38c-.57,0-1.15-.08-1.72-.07l-1.75.09c-.29,0-.59,0-.88.06l-.88.13c-.59.1-1.18.17-1.77.29a30,30,0,0,0-3.52,1,27.37,27.37,0,0,0-3.43,1.52c-.56.3-1.09.65-1.65,1a14,14,0,0,0-1.59,1.09,32.4,32.4,0,0,0-3,2.54,33.11,33.11,0,0,0-2.58,3.06,25.29,25.29,0,0,0-3.76,7.26,27.81,27.81,0,0,0-1.36,8.31,28.25,28.25,0,0,0,1.35,8.32,25.57,25.57,0,0,0,3.77,7.26,31.71,31.71,0,0,0,2.58,3.05,29.87,29.87,0,0,0,3,2.55,14,14,0,0,0,1.59,1.09c.55.33,1.09.68,1.64,1a28.16,28.16,0,0,0,3.44,1.52,30,30,0,0,0,3.52,1c.59.12,1.19.19,1.77.29l.88.13c.29,0,.59,0,.88.06l1.75.09c.58,0,1.15,0,1.72-.07a24.23,24.23,0,0,0,3.33-.38,26.59,26.59,0,0,0,17.84-12.42,25.33,25.33,0,0,0,2.94-7,19.36,19.36,0,0,0,.56-2.74c.06-.4.13-.77.16-1.11s0-.65.06-.93c0-.54.07-1,.09-1.26s0-.42,0-.42,0,.14,0,.43,0,.72,0,1.26c0,.28,0,.59,0,.93s-.1.71-.15,1.12a19.25,19.25,0,0,1-.52,2.76,25.28,25.28,0,0,1-2.9,7.12,26.75,26.75,0,0,1-18,12.63,25,25,0,0,1-3.38.4c-.58,0-1.16.08-1.74.08l-1.77-.09c-.3,0-.6,0-.9-.06l-.89-.13c-.6-.1-1.2-.17-1.8-.29a29,29,0,0,1-3.57-1A26.79,26.79,0,0,1,24,133.49c-.57-.3-1.11-.66-1.67-1a14.52,14.52,0,0,1-1.62-1.11,30.73,30.73,0,0,1-3-2.58,30.2,30.2,0,0,1-2.62-3.1,25.71,25.71,0,0,1-3.83-7.37,26.53,26.53,0,0,1,0-16.89A25.45,25.45,0,0,1,15,94.08,29.08,29.08,0,0,1,17.64,91a30.63,30.63,0,0,1,3-2.58,14.52,14.52,0,0,1,1.62-1.11c.56-.33,1.1-.69,1.67-1a26.79,26.79,0,0,1,3.49-1.53,29,29,0,0,1,3.57-1c.6-.12,1.2-.19,1.8-.29l.89-.13c.3,0,.6,0,.89-.06l1.77-.09c.59,0,1.17,0,1.75.08a25.16,25.16,0,0,1,3.38.4,26.75,26.75,0,0,1,18,12.63,25.16,25.16,0,0,1,2.9,7.12,20.75,20.75,0,0,1,.52,2.76c0,.4.12.78.15,1.12s0,.65,0,.93c0,.54,0,1,0,1.26S63.12,109.9,63.12,109.9Z"/><circle class="cls-1" cx="36.64" cy="110.55" r="14.16" transform="translate(-40.49 23.29) rotate(-23.14)"/><path class="cls-7" d="M50.8,110.55s0-.31-.06-.9a7.19,7.19,0,0,0-.12-1.09,11,11,0,0,0-.29-1.46,13.51,13.51,0,0,0-1.57-3.76,14.08,14.08,0,0,0-3.59-4,13.89,13.89,0,0,0-5.93-2.63,14.15,14.15,0,0,0-7.4.61,13.39,13.39,0,0,0-3.56,1.92,12.95,12.95,0,0,0-3,3,14,14,0,0,0,0,16.64,12.95,12.95,0,0,0,3,3,13.39,13.39,0,0,0,3.56,1.92,14.15,14.15,0,0,0,7.4.61,13.89,13.89,0,0,0,5.93-2.63,14.08,14.08,0,0,0,3.59-4A13.51,13.51,0,0,0,50.33,114a11.34,11.34,0,0,0,.29-1.46,7.19,7.19,0,0,0,.12-1.09c0-.59.06-.9.06-.9s0,.31,0,.9a5.78,5.78,0,0,1-.1,1.09,9.93,9.93,0,0,1-.28,1.48,13.35,13.35,0,0,1-1.55,3.79,14.17,14.17,0,0,1-17.05,6.11A13.29,13.29,0,0,1,28.18,122a13.21,13.21,0,0,1-3-3,14.14,14.14,0,0,1,0-16.84,13.21,13.21,0,0,1,3-3,13.29,13.29,0,0,1,3.61-1.93,14.24,14.24,0,0,1,7.48-.61,14.31,14.31,0,0,1,9.57,6.72,13.35,13.35,0,0,1,1.55,3.79,10.06,10.06,0,0,1,.28,1.47,6,6,0,0,1,.1,1.1C50.8,110.24,50.8,110.55,50.8,110.55Z"/><path class="cls-10" d="M36.64,101.3a9.25,9.25,0,1,0,9.25,9.25A9.26,9.26,0,0,0,36.64,101.3Z"/><path class="cls-5" d="M36.64,101.3a7.28,7.28,0,0,1,2.28.21,9.36,9.36,0,0,1,7,7.3,9.36,9.36,0,0,1-.39,5,9.07,9.07,0,0,1-1.28,2.39,8.83,8.83,0,0,1-2,2,9.37,9.37,0,0,1-11.18,0,9.46,9.46,0,0,1-3.28-4.39,9.56,9.56,0,0,1-.39-5,9.39,9.39,0,0,1,1.79-4,9.28,9.28,0,0,1,5.19-3.35,7.28,7.28,0,0,1,2.28-.21,18.12,18.12,0,0,0-2.24.37,9.21,9.21,0,0,0-5,3.38,9,9,0,0,0-1.27,8.58,8.47,8.47,0,0,0,1.23,2.29,8.75,8.75,0,0,0,1.93,1.91,9,9,0,0,0,10.68,0,9,9,0,0,0,3.16-4.2,9,9,0,0,0,.42-4.75,9.25,9.25,0,0,0-6.68-7.21A17.49,17.49,0,0,0,36.64,101.3Z"/><path class="cls-10" d="M36.64,107.61a2.94,2.94,0,1,0,2.94,2.94A2.94,2.94,0,0,0,36.64,107.61Z"/><path class="cls-5" d="M36.64,107.61a1.46,1.46,0,0,1,.74,0,2.87,2.87,0,0,1,1.71,1.05,3.07,3.07,0,0,1,.49,2.94,3.12,3.12,0,0,1-5.88,0,3.07,3.07,0,0,1,.49-2.94,2.87,2.87,0,0,1,1.71-1.05,1.46,1.46,0,0,1,.74,0s-.26,0-.7.18a2.91,2.91,0,0,0-1.51,1.07,2.78,2.78,0,0,0,2.21,4.42,2.78,2.78,0,0,0,2.22-4.42,3,3,0,0,0-1.52-1.07C36.9,107.65,36.64,107.65,36.64,107.61Z"/><path class="cls-1" d="M21.55,120.76c4.89-3.42,10.2-6.8,15.09-10.21"/><path class="cls-7" d="M36.64,110.55s-3.33,2.36-7.5,5.17-7.56,5.07-7.59,5,3.33-2.36,7.5-5.18S36.61,110.51,36.64,110.55Z"/><path class="cls-7" d="M23.21,119.77a10.44,10.44,0,0,1-1.75,0,9.17,9.17,0,0,1-1.74-.15,9.3,9.3,0,0,1,1.75,0A9.17,9.17,0,0,1,23.21,119.77Z"/><path class="cls-7" d="M22.62,122.07a4.17,4.17,0,0,1,.17-1.2,4.11,4.11,0,0,1,.34-1.16A4.59,4.59,0,0,1,23,120.9,5.06,5.06,0,0,1,22.62,122.07Z"/><path class="cls-7" d="M23.47,121.8a5.23,5.23,0,0,1,.14-1.25,4.63,4.63,0,0,1,.31-1.22,5.31,5.31,0,0,1-.14,1.25A4.47,4.47,0,0,1,23.47,121.8Z"/><path class="cls-7" d="M21.47,118.76a5.14,5.14,0,0,1,1.21.2,4.48,4.48,0,0,1,1.18.37,5.18,5.18,0,0,1-1.22-.2A4.17,4.17,0,0,1,21.47,118.76Z"/><circle class="cls-3" cx="113.2" cy="83.91" r="15.39" transform="translate(-23.33 49.05) rotate(-22.23)"/><path class="cls-5" d="M128.59,83.91a.87.87,0,0,1,0-.25c0-.19,0-.43-.06-.73a8.81,8.81,0,0,0-.14-1.18,11.8,11.8,0,0,0-.33-1.58,14.85,14.85,0,0,0-1.72-4.06A15.31,15.31,0,0,0,116,69a15.24,15.24,0,0,0-8,.67,14.32,14.32,0,0,0-3.84,2.07,18.42,18.42,0,0,0-1.73,1.47A17.89,17.89,0,0,0,101,74.93a15.11,15.11,0,0,0,0,17.95,17,17,0,0,0,1.49,1.77,18,18,0,0,0,1.72,1.46A14.28,14.28,0,0,0,108,98.19a15.35,15.35,0,0,0,8,.67A15.16,15.16,0,0,0,122.42,96a15.34,15.34,0,0,0,3.89-4.32A14.85,14.85,0,0,0,128,87.65a11.92,11.92,0,0,0,.33-1.59,8.69,8.69,0,0,0,.14-1.17l.06-.73a.79.79,0,0,1,0-.25.93.93,0,0,1,0,.25l0,.73a6.87,6.87,0,0,1-.1,1.19,10.44,10.44,0,0,1-.29,1.61,14.86,14.86,0,0,1-1.67,4.14,15.56,15.56,0,0,1-10.45,7.37,15.54,15.54,0,0,1-8.18-.65,14.64,14.64,0,0,1-4-2.11,18.11,18.11,0,0,1-1.78-1.5,19.23,19.23,0,0,1-1.53-1.81,15.5,15.5,0,0,1,0-18.44,19.23,19.23,0,0,1,1.53-1.81,17.89,17.89,0,0,1,1.78-1.5,14.36,14.36,0,0,1,4-2.11A15.49,15.49,0,0,1,126.52,76a14.75,14.75,0,0,1,1.67,4.14,10.33,10.33,0,0,1,.29,1.6,7,7,0,0,1,.1,1.19l0,.74A1,1,0,0,1,128.59,83.91Z"/><path class="cls-1" d="M114.47,84.14a3.59,3.59,0,0,0,2.14-3.33,3.38,3.38,0,1,0-6.75,0A3.61,3.61,0,0,0,112,84.14c-5.19.78-5,6.42-5,6.42l12.27.06S119.61,84.92,114.47,84.14Z"/><path class="cls-7" d="M114.47,84.14a6,6,0,0,1,2.27.79A5.37,5.37,0,0,1,118.6,87a8,8,0,0,1,.8,3.6v.07h-.07l-12.27,0H107v-.08a8.15,8.15,0,0,1,.77-3.48A5.32,5.32,0,0,1,109.52,85a6.27,6.27,0,0,1,2.48-.94l0,.15A3.67,3.67,0,0,1,109.79,81a3.77,3.77,0,0,1,1.55-3.26,3.28,3.28,0,0,1,3.2-.32,3.56,3.56,0,0,1,1.89,2.07,3.87,3.87,0,0,1,.09,2.32,3.71,3.71,0,0,1-.84,1.52,3.35,3.35,0,0,1-.87.66,3.62,3.62,0,0,1-.34.16,3.85,3.85,0,0,0,1.16-.86,3.54,3.54,0,0,0,.81-1.51,3.74,3.74,0,0,0-.11-2.25,3.48,3.48,0,0,0-1.84-2,3.16,3.16,0,0,0-3.07.33A3.63,3.63,0,0,0,110,81a3.51,3.51,0,0,0,2.1,3.07l.25.11-.27,0a6.13,6.13,0,0,0-2.41.92,5.1,5.1,0,0,0-1.73,2,7.88,7.88,0,0,0-.75,3.39l-.08-.08,12.27.08-.06.06a8,8,0,0,0-.76-3.56A5.36,5.36,0,0,0,116.7,85a4.58,4.58,0,0,0-.91-.46,3.55,3.55,0,0,0-.72-.24Z"/><circle class="cls-3" cx="78.26" cy="173.52" r="26.82" transform="translate(-105.23 224.2) rotate(-81.17)"/><path class="cls-5" d="M105.08,173.52s0-.15,0-.43-.05-.73-.09-1.28l-.06-.93c0-.35-.11-.72-.17-1.12a19.69,19.69,0,0,0-.56-2.77,25.53,25.53,0,0,0-3-7.11,26.79,26.79,0,0,0-6.8-7.56,26.4,26.4,0,0,0-11.22-5A24.64,24.64,0,0,0,79.8,147c-.57,0-1.15-.08-1.73-.07L76.3,147c-.29,0-.59,0-.89.06l-.88.14c-.6.09-1.2.16-1.8.29a29.2,29.2,0,0,0-3.55,1A27.15,27.15,0,0,0,65.71,150c-.56.3-1.1.66-1.66,1a13.08,13.08,0,0,0-1.6,1.11,29.21,29.21,0,0,0-3,2.56,28.79,28.79,0,0,0-2.61,3.09A25.68,25.68,0,0,0,53,165.12a26.44,26.44,0,0,0,0,16.8,25.68,25.68,0,0,0,3.81,7.33,28.79,28.79,0,0,0,2.61,3.09,30.61,30.61,0,0,0,3,2.57,14.29,14.29,0,0,0,1.6,1.11c.56.33,1.1.68,1.66,1a28.55,28.55,0,0,0,3.47,1.52,27.25,27.25,0,0,0,3.56,1.05c.59.12,1.19.19,1.79.29l.89.13c.29,0,.59,0,.89.06l1.76.09c.58,0,1.16,0,1.74-.06a26.73,26.73,0,0,0,21.38-12.93,25.41,25.41,0,0,0,3-7.11,19.86,19.86,0,0,0,.56-2.76c.06-.41.14-.78.17-1.12s0-.66.06-.94L105,174c0-.29,0-.44,0-.44s0,.15,0,.44,0,.73,0,1.27c0,.29,0,.6,0,1s-.1.72-.15,1.12a19.48,19.48,0,0,1-.53,2.79,25.48,25.48,0,0,1-2.93,7.19A27,27,0,0,1,83.24,200a25.41,25.41,0,0,1-3.41.41c-.59,0-1.17.08-1.76.07l-1.79-.09c-.3,0-.6,0-.9-.05l-.91-.14c-.6-.1-1.21-.17-1.81-.29a29.15,29.15,0,0,1-7.14-2.6c-.57-.3-1.12-.66-1.68-1a13.85,13.85,0,0,1-1.63-1.12,28.93,28.93,0,0,1-3.07-2.6,30.63,30.63,0,0,1-2.65-3.13,26,26,0,0,1-3.87-7.45,26.69,26.69,0,0,1,0-17.06,26.26,26.26,0,0,1,3.87-7.45,30.63,30.63,0,0,1,2.65-3.13,32.73,32.73,0,0,1,3.07-2.6,13.85,13.85,0,0,1,1.63-1.12c.57-.33,1.11-.69,1.68-1a29.68,29.68,0,0,1,7.14-2.59c.6-.13,1.21-.2,1.81-.3l.91-.13c.3,0,.6,0,.9-.06l1.78-.09c.6,0,1.18,0,1.76.08a25.56,25.56,0,0,1,3.42.4,27,27,0,0,1,18.15,12.76,25.48,25.48,0,0,1,2.93,7.19,19.74,19.74,0,0,1,.53,2.79c.05.41.12.78.15,1.13s0,.66,0,.94c0,.55,0,1,0,1.28S105.08,173.52,105.08,173.52Z"/><circle class="cls-1" cx="78.19" cy="173.38" r="14.25" transform="translate(-95.68 96.27) rotate(-41.81)"/><path class="cls-7" d="M64,172.45a2.07,2.07,0,0,1,0,.23v1.18c0,.18,0,.38.05.6a10.28,10.28,0,0,0,.21,1.48,13.3,13.3,0,0,0,1.34,3.86,14.1,14.1,0,0,0,16.53,7.11,14.59,14.59,0,0,0,1.88-.68,13.75,13.75,0,0,0,1.8-1A15.34,15.34,0,0,0,87.49,184,16.64,16.64,0,0,0,89,182.44a13.63,13.63,0,0,0,2.26-3.74,14,14,0,0,0,.59-8.87,13.75,13.75,0,0,0-1.76-4,15.58,15.58,0,0,0-1.27-1.72,15.86,15.86,0,0,0-1.5-1.46,14,14,0,0,0-1.66-1.23,15.87,15.87,0,0,0-1.78-.93,14.16,14.16,0,0,0-17.32,4.89A13.84,13.84,0,0,0,64.7,169a11.09,11.09,0,0,0-.4,1.44c0,.21-.1.41-.13.59l-.06.49-.1.67a2.32,2.32,0,0,1,0,.23,1,1,0,0,1,0-.23l.06-.68,0-.5c0-.18.07-.37.12-.59a10.42,10.42,0,0,1,.37-1.46,13.33,13.33,0,0,1,1.8-3.72,14.06,14.06,0,0,1,3.88-3.85,14.24,14.24,0,0,1,6.21-2.32A14.46,14.46,0,0,1,84,160.2a15,15,0,0,1,1.82,1,14.36,14.36,0,0,1,1.69,1.24A18.12,18.12,0,0,1,89,163.88a17.37,17.37,0,0,1,1.3,1.76,14.1,14.1,0,0,1,1.8,4.1,15.31,15.31,0,0,1,.44,4.59,15.08,15.08,0,0,1-1,4.49,13.76,13.76,0,0,1-2.32,3.83,16.14,16.14,0,0,1-1.52,1.57A15.14,15.14,0,0,1,86,185.5a13.76,13.76,0,0,1-1.84,1,14,14,0,0,1-1.93.7,14.32,14.32,0,0,1-16.78-7.32,13.52,13.52,0,0,1-1.3-3.93,11.51,11.51,0,0,1-.18-1.49c0-.22,0-.42,0-.61s0-.35,0-.5l0-.68A1,1,0,0,1,64,172.45Z"/><path class="cls-7" d="M84.66,173.82a1.77,1.77,0,0,1-.5,0l-1.38,0c-1.18,0-2.82,0-4.67,0H78v-1c0-2.07,0-3.94,0-5.29,0-.65,0-1.19,0-1.6a4.63,4.63,0,0,1,0-.59,2.52,2.52,0,0,1,0,.59c0,.41,0,1,0,1.6,0,1.35,0,3.22,0,5.29,0,.32,0,.63,0,.92l-.09-.09c1.85,0,3.49,0,4.67,0l1.38,0Z"/><path class="cls-7" d="M78.16,161.47a8,8,0,0,1,0,2.4,7.25,7.25,0,0,1,0-2.4Z"/><path class="cls-7" d="M84.65,163.39a3.68,3.68,0,0,1-.77.9,3.42,3.42,0,0,1-.9.77,7.63,7.63,0,0,1,1.67-1.67Z"/><path class="cls-7" d="M88.45,167.54a13,13,0,0,1-2,1.23,3.18,3.18,0,0,1,.94-.73A3.36,3.36,0,0,1,88.45,167.54Z"/><path class="cls-7" d="M90.68,173.7a7.57,7.57,0,0,1-1.64.09,7.44,7.44,0,0,1-1.63-.09,7.44,7.44,0,0,1,1.63-.09A7.57,7.57,0,0,1,90.68,173.7Z"/><path class="cls-7" d="M68,173.48a6.65,6.65,0,0,1-1.54.09,6.65,6.65,0,0,1-1.54-.09,6.65,6.65,0,0,1,1.54-.09A6.65,6.65,0,0,1,68,173.48Z"/><path class="cls-7" d="M69.63,178.07a6.42,6.42,0,0,1-1.16,1.05,6.9,6.9,0,0,1-1.28.92A6.68,6.68,0,0,1,68.35,179,7.12,7.12,0,0,1,69.63,178.07Z"/><path class="cls-7" d="M73.58,181.61a8.86,8.86,0,0,1-.79,1.37,10.47,10.47,0,0,1-.84,1.35,8.09,8.09,0,0,1,1.63-2.72Z"/><path class="cls-7" d="M78.16,186.18a13.33,13.33,0,0,1,0-3.26,14.81,14.81,0,0,1,0,3.26Z"/><path class="cls-7" d="M85.2,184a4.74,4.74,0,0,1-1.35-.93,4.84,4.84,0,0,1-1.1-1.2A12.54,12.54,0,0,1,84,183,15.07,15.07,0,0,1,85.2,184Z"/><path class="cls-7" d="M88.5,180.45a5.81,5.81,0,0,1-1.08-.95,5.71,5.71,0,0,1-1-1.08,5.71,5.71,0,0,1,1.08,1A5.81,5.81,0,0,1,88.5,180.45Z"/><path class="cls-7" d="M69.48,169.09a4.34,4.34,0,0,1-1-.82,4,4,0,0,1-.82-1,5,5,0,0,1,1,.83A4.34,4.34,0,0,1,69.48,169.09Z"/><path class="cls-7" d="M73.56,164.8a5,5,0,0,1-.94-.81,3.91,3.91,0,0,1-.8-.93,4.14,4.14,0,0,1,.93.8A3.76,3.76,0,0,1,73.56,164.8Z"/><path class="cls-5" d="M142.37,212.91a21.18,21.18,0,0,0-.46-2.93,11.63,11.63,0,0,0-1.35-3.19,12.09,12.09,0,0,0-3.06-3.38,11.8,11.8,0,0,0-5-2.21,12,12,0,0,0-6.25.53,11.85,11.85,0,0,0-5.52,4.15,11.85,11.85,0,0,0,0,14.06,11.12,11.12,0,0,0,2.51,2.52,11.31,11.31,0,0,0,3,1.63,12,12,0,0,0,6.25.53,11.82,11.82,0,0,0,5-2.22,12,12,0,0,0,3.06-3.38,11.46,11.46,0,0,0,1.35-3.18,21.18,21.18,0,0,0,.46-2.93.63.63,0,0,1,0,.2c0,.15,0,.34,0,.57a5.69,5.69,0,0,1-.07.94,8.72,8.72,0,0,1-.23,1.26,11.41,11.41,0,0,1-1.31,3.27,12.19,12.19,0,0,1-14.67,5.3,11.32,11.32,0,0,1-3.12-1.66,11.5,11.5,0,0,1-2.6-2.61,12.21,12.21,0,0,1,0-14.54,12.14,12.14,0,0,1,5.72-4.27,12.17,12.17,0,0,1,11.59,1.81,12,12,0,0,1,3.08,3.49,11.41,11.41,0,0,1,1.31,3.27,8.72,8.72,0,0,1,.23,1.26,5.69,5.69,0,0,1,.07.94c0,.23,0,.42,0,.57A.63.63,0,0,1,142.37,212.91Z"/><path class="cls-1" d="M132.65,215.7a1.91,1.91,0,0,0-1.61.92c-.43-.34-1-.73-1.58-1.14-.33-.23-.65-.44-1-.63a2,2,0,0,0,.6-1.41,2,2,0,0,0-.34-1.1c.37-.25.78-.55,1.21-.88s.73-.59,1-.85a2,2,0,1,0-.34-1.1,2,2,0,0,0,.12.66c-.35.25-.74.54-1.15.86s-.85.67-1.19,1a2,2,0,0,0-1.32-.51,2,2,0,1,0,0,3.93,1.92,1.92,0,0,0,.92-.25c.33.24.7.5,1.09.76.62.43,1.2.8,1.68,1.08a2.32,2.32,0,0,0-.15.84,2,2,0,1,0,2-2.14Z"/><path class="cls-7" d="M132.65,215.7a1.38,1.38,0,0,1,.74.13,2.11,2.11,0,0,1,1.24,1.65,2.34,2.34,0,0,1-.26,1.5,2,2,0,0,1-1.45,1,2,2,0,0,1-1.85-.8,2.37,2.37,0,0,1-.29-2.23l0,.08c-.88-.55-1.83-1.15-2.78-1.84h.08a2,2,0,1,1,.41-3.3h-.11l1.15-.94,1.19-.88,0,.09a2,2,0,0,1,2.93-2.47,2,2,0,0,1,.95,1.2,2,2,0,0,1-3.64,1.72l.11,0c-.79.65-1.54,1.21-2.26,1.72v-.08a2,2,0,0,1-.27,2.58v-.08c1.06.68,1.87,1.31,2.52,1.78h0a2,2,0,0,1,1.13-.85,1.36,1.36,0,0,1,.5-.05,2.27,2.27,0,0,0-.49.08,2,2,0,0,0-1.09.85l0,0,0,0c-.65-.45-1.47-1.07-2.54-1.75l-.06,0,.05-.05a1.9,1.9,0,0,0,.25-2.43l0,0,.05,0c.71-.51,1.46-1.08,2.24-1.73l.06-.05,0,.06a1.9,1.9,0,0,0,2.28.68,1.88,1.88,0,0,0-1.23-3.55,1.81,1.81,0,0,0-1.15.93,1.87,1.87,0,0,0-.1,1.52l0,0-.05,0-1.18.88-1.15.94-.06.05-.06-.05a1.86,1.86,0,0,0-2-.34,1.88,1.88,0,0,0-.21,3.34,1.87,1.87,0,0,0,1.86,0l0,0,0,0c.94.69,1.89,1.28,2.76,1.84l.05,0,0,.05a2.22,2.22,0,0,0,.27,2.1,1.83,1.83,0,0,0,1.72.77,1.91,1.91,0,0,0,1.38-1,2.23,2.23,0,0,0,.27-1.44,2.08,2.08,0,0,0-1.18-1.62A2,2,0,0,0,132.65,215.7Z"/><path class="cls-5" d="M312.21,171.64s0-.15,0-.45-.05-.75-.08-1.32l-.06-1c0-.35-.12-.74-.18-1.16a21.45,21.45,0,0,0-.58-2.87,26.78,26.78,0,0,0-3.09-7.39,27.82,27.82,0,0,0-7.06-7.86,27.49,27.49,0,0,0-11.66-5.17A25.16,25.16,0,0,0,286,144c-.6,0-1.2-.08-1.81-.07l-1.83.1c-.31,0-.62,0-.93.06l-.92.14c-.62.1-1.24.18-1.86.3a29.28,29.28,0,0,0-3.69,1.09,28.64,28.64,0,0,0-3.61,1.58c-.59.32-1.15.69-1.72,1a14.56,14.56,0,0,0-1.67,1.15,31.66,31.66,0,0,0-3.14,2.67,31.05,31.05,0,0,0-2.71,3.21,26.81,26.81,0,0,0-4,7.62,29.66,29.66,0,0,0-1.42,8.73,29.33,29.33,0,0,0,1.42,8.73,26.81,26.81,0,0,0,4,7.62,31.05,31.05,0,0,0,2.71,3.21,30.37,30.37,0,0,0,3.14,2.67,14.56,14.56,0,0,0,1.67,1.15c.57.34,1.13.71,1.72,1a28.71,28.71,0,0,0,3.61,1.59,29.23,29.23,0,0,0,3.69,1.08c.62.13,1.25.2,1.86.3l.92.15c.31,0,.62,0,.93.06l1.83.09c.61,0,1.21,0,1.81-.07a25.15,25.15,0,0,0,3.5-.4,27.83,27.83,0,0,0,18.72-13,26.73,26.73,0,0,0,3.09-7.38,21.56,21.56,0,0,0,.58-2.88c.06-.42.14-.8.18-1.16s0-.68.06-1c0-.57.06-1,.08-1.33s0-.45,0-.45v.45c0,.32,0,.76,0,1.33,0,.29,0,.62,0,1s-.1.75-.16,1.17a19.74,19.74,0,0,1-.54,2.9,26.68,26.68,0,0,1-3.05,7.46,28,28,0,0,1-18.86,13.26,25.74,25.74,0,0,1-3.54.42c-.61,0-1.22.08-1.83.08l-1.86-.09c-.31,0-.62,0-.93-.06l-.94-.14c-.63-.11-1.26-.18-1.89-.31a28.39,28.39,0,0,1-3.74-1.09,29.55,29.55,0,0,1-3.67-1.6c-.59-.32-1.16-.7-1.75-1a15,15,0,0,1-1.69-1.17,30.17,30.17,0,0,1-3.19-2.7,32,32,0,0,1-2.76-3.25,27.38,27.38,0,0,1-4-7.74,30.16,30.16,0,0,1-1.45-8.86,29.84,29.84,0,0,1,1.46-8.86,26.91,26.91,0,0,1,4-7.73,25.5,25.5,0,0,1,5.95-6,13.68,13.68,0,0,1,1.69-1.16c.59-.35,1.16-.72,1.75-1a28.2,28.2,0,0,1,3.67-1.61,31.8,31.8,0,0,1,3.74-1.09c.63-.13,1.26-.2,1.89-.3l.93-.14c.32,0,.63,0,.94-.06l1.86-.09c.61,0,1.22.05,1.83.07a25.74,25.74,0,0,1,3.54.42,28,28,0,0,1,18.86,13.26,26.85,26.85,0,0,1,3.05,7.47,19.88,19.88,0,0,1,.54,2.89c.06.43.13.82.16,1.17s0,.69,0,1c0,.57,0,1,0,1.33Z"/><path class="cls-7" d="M301.45,185.89a5.85,5.85,0,0,1-.61,0l-1.77,0-6.49.07-21.41.06h-1.72v-.2c0-8,0-15.17.06-20.39,0-2.57.05-4.65.06-6.13,0-.69,0-1.25,0-1.66a2.39,2.39,0,0,1,0-.58,3.29,3.29,0,0,1,0,.58c0,.41,0,1,0,1.66,0,1.48,0,3.56.07,6.13,0,5.22,0,12.39.06,20.39l-.2-.21h1.52l21.41.06,6.49.07,1.77,0A2.63,2.63,0,0,1,301.45,185.89Z"/><path class="cls-7" d="M297.92,164.11a8,8,0,0,1-.95.9c-.68.61-1.59,1.4-2.68,2.36-2.28,2-5.45,4.69-9,7.66l-.53.45-.14.12-.13-.12-4-3.71h.24l-5.85,4.83-1.7,1.35a4.57,4.57,0,0,1-.63.46,3.53,3.53,0,0,1,.56-.55l1.62-1.44,5.76-4.94.13-.11.12.12c1.25,1.14,2.59,2.38,4,3.68h-.26l.53-.45c3.51-3,6.71-5.65,9-7.57l2.77-2.26A8.49,8.49,0,0,1,297.92,164.11Z"/><path class="cls-7" d="M297.92,170.77a10.69,10.69,0,0,1-.14-2c0-1.23-.06-2.94-.06-4.84l.2.2h-.34c-2,0-3.77,0-5.07-.06a10,10,0,0,1-2.1-.14,10,10,0,0,1,2.1-.14c1.3,0,3.09-.06,5.07-.06h.54v.2c0,1.9,0,3.61-.06,4.84A10.69,10.69,0,0,1,297.92,170.77Z"/><path class="cls-5" d="M356.92,108.2a3.18,3.18,0,0,1,0-.34c0-.25-.05-.58-.08-1l0-.73c0-.27-.09-.56-.14-.88a15.64,15.64,0,0,0-.44-2.16,20.11,20.11,0,0,0-2.34-5.55,20.54,20.54,0,0,0-5.31-5.91,20.78,20.78,0,0,0-8.77-3.89,21,21,0,0,0-10.93.92,21.46,21.46,0,0,0-7.62,4.84,23.8,23.8,0,0,0-2,2.41,20.52,20.52,0,0,0-3,5.73,20.64,20.64,0,0,0,0,13.12,20.07,20.07,0,0,0,3,5.72,25.08,25.08,0,0,0,2,2.42,22.29,22.29,0,0,0,2.36,2,19.72,19.72,0,0,0,2.55,1.64,20.9,20.9,0,0,0,27.73-7.68,20.54,20.54,0,0,0,2.33-5.56,15.35,15.35,0,0,0,.44-2.16c.05-.32.11-.61.14-.87l0-.74c0-.42.06-.75.08-1a2.82,2.82,0,0,1,0-.34,1.72,1.72,0,0,1,0,.34c0,.24,0,.57,0,1l0,.74c0,.27-.07.56-.12.88a15,15,0,0,1-.4,2.18,20.18,20.18,0,0,1-2.29,5.64,21.09,21.09,0,0,1-25.35,9.12,21.73,21.73,0,0,1-2.77-1.21,22.39,22.39,0,0,1-2.6-1.66,23.14,23.14,0,0,1-2.41-2,24.65,24.65,0,0,1-2.08-2.45,20.67,20.67,0,0,1-3-5.84,22.7,22.7,0,0,1-1.09-6.7,22.38,22.38,0,0,1,1.1-6.69,20.39,20.39,0,0,1,3-5.84,25.85,25.85,0,0,1,2.08-2.45,24.31,24.31,0,0,1,2.41-2,22.47,22.47,0,0,1,2.6-1.67,23.25,23.25,0,0,1,2.77-1.21,21.29,21.29,0,0,1,11.12-.89,21.18,21.18,0,0,1,14.23,10,20.18,20.18,0,0,1,2.29,5.64,15.37,15.37,0,0,1,.4,2.19c.05.32.1.61.12.88s0,.51,0,.74c0,.42,0,.75,0,1A1.8,1.8,0,0,1,356.92,108.2Z"/><path class="cls-11" d="M336.58,97l2.81,5.68a.71.71,0,0,0,.55.4l6.28.92a.72.72,0,0,1,.4,1.24l-4.54,4.43a.74.74,0,0,0-.21.65l1.07,6.25a.73.73,0,0,1-1.06.77l-5.61-2.95a.74.74,0,0,0-.68,0L330,117.32a.73.73,0,0,1-1.06-.77L330,110.3a.74.74,0,0,0-.21-.65l-4.55-4.43a.73.73,0,0,1,.41-1.24l6.28-.92a.73.73,0,0,0,.55-.4l2.8-5.68A.73.73,0,0,1,336.58,97Z"/><path class="cls-7" d="M336.58,97a1.54,1.54,0,0,0-.12-.15.68.68,0,0,0-.48-.23.7.7,0,0,0-.69.45l-.55,1.14-1.51,3.12-.46.94-.24.5a.84.84,0,0,1-.49.39c-.78.13-1.56.24-2.41.37l-2.63.39-1.4.21a.61.61,0,0,0-.33,1l4.57,4.43a.92.92,0,0,1,.27.9c-.05.28-.09.56-.14.84-.1.57-.2,1.14-.29,1.72-.2,1.16-.4,2.34-.61,3.55a.57.57,0,0,0,.26.64.53.53,0,0,0,.35.09,1,1,0,0,0,.37-.14l1.66-.88,3.4-1.78.43-.23a.89.89,0,0,1,.58-.07,2.62,2.62,0,0,1,.47.21l.43.23,1.68.89,3.3,1.72a.57.57,0,0,0,.66-.14.58.58,0,0,0,.14-.32,1.27,1.27,0,0,0-.05-.41c-.1-.59-.2-1.18-.29-1.76-.2-1.16-.39-2.29-.58-3.4-.05-.28-.1-.55-.14-.82a.88.88,0,0,1,.31-.86c.39-.39.78-.76,1.16-1.13l2.23-2.16,1.05-1a.61.61,0,0,0-.08-1,1.83,1.83,0,0,0-.62-.14l-.67-.1-1.29-.19-2.4-.36-1.1-.17c-.18,0-.34,0-.54-.09a.85.85,0,0,1-.44-.35c-.59-1.21-1.1-2.26-1.51-3.12l-.95-2c-.1-.21-.17-.38-.24-.51l-.07-.18s0,0,.1.16l.27.51,1,1.94,1.56,3.09a.59.59,0,0,0,.35.27c.14,0,.34,0,.51.08l1.1.16,2.4.33,1.29.19.67.09a2.55,2.55,0,0,1,.71.16.85.85,0,0,1,.43.66.84.84,0,0,1-.3.73l-1.05,1-2.21,2.17-1.16,1.13a.65.65,0,0,0-.23.62l.15.82c.19,1.11.38,2.24.58,3.4.1.58.21,1.17.31,1.76a2.24,2.24,0,0,1,.05.49.91.91,0,0,1-.22.49.87.87,0,0,1-1,.22l-3.32-1.73-1.69-.89-.42-.22a1.75,1.75,0,0,0-.4-.19.59.59,0,0,0-.37,0l-.43.23-3.4,1.78-1.66.88a1.28,1.28,0,0,1-.49.17.81.81,0,0,1-.53-.13.88.88,0,0,1-.39-1c.2-1.21.41-2.39.61-3.55.1-.58.2-1.15.29-1.72l.15-.84a.63.63,0,0,0-.19-.65l-4.56-4.47a.86.86,0,0,1-.14-.83.83.83,0,0,1,.61-.54l1.41-.21,2.64-.37L332,103a.65.65,0,0,0,.37-.3l.25-.48.47-.94,1.55-3.09c.22-.42.41-.8.57-1.13a.79.79,0,0,1,.78-.47.73.73,0,0,1,.51.26A.46.46,0,0,1,336.58,97Z"/><path class="cls-5" d="M300.84,43.7l0-.25c0-.18,0-.42-.06-.73a6.32,6.32,0,0,0-.14-1.17,10.52,10.52,0,0,0-.33-1.59,14.49,14.49,0,0,0-1.71-4.06,15.38,15.38,0,0,0-3.9-4.32,15.1,15.1,0,0,0-6.41-2.83,15.36,15.36,0,0,0-8,.68,14,14,0,0,0-3.84,2.07A15.81,15.81,0,0,0,274.71,33a17,17,0,0,0-1.49,1.77,15.13,15.13,0,0,0,0,18,16.7,16.7,0,0,0,1.49,1.76,17.12,17.12,0,0,0,1.72,1.47A14.32,14.32,0,0,0,280.27,58a15.27,15.27,0,0,0,18.3-6.48,14.49,14.49,0,0,0,1.71-4.06,10.42,10.42,0,0,0,.33-1.58,6.41,6.41,0,0,0,.14-1.18c0-.3.05-.54.06-.73l0-.25a.62.62,0,0,1,0,.25v.74a7,7,0,0,1-.1,1.19,11.84,11.84,0,0,1-.3,1.6,14.45,14.45,0,0,1-1.67,4.14,15.46,15.46,0,0,1-18.63,6.72,14.38,14.38,0,0,1-3.95-2.11,14.14,14.14,0,0,1-3.3-3.31,15.67,15.67,0,0,1,1.53-20.24,17.9,17.9,0,0,1,1.77-1.51,14.94,14.94,0,0,1,3.95-2.11,15.64,15.64,0,0,1,8.18-.65,15.56,15.56,0,0,1,10.45,7.37,14.56,14.56,0,0,1,1.67,4.14,12,12,0,0,1,.3,1.61,7,7,0,0,1,.1,1.19v.73C300.86,43.62,300.85,43.7,300.84,43.7Z"/><path class="cls-1" d="M292.29,41.85a7,7,0,1,0-13.08,3.54h0l0,0c.27.45.61.78.95,1.26l4.07,5.4a1.28,1.28,0,0,0,2,0l4-5.32a16.72,16.72,0,0,0,1-1.35v0h0A7,7,0,0,0,292.29,41.85Zm-7,3a3.09,3.09,0,1,1,3.09-3.09A3.09,3.09,0,0,1,285.27,44.9Z"/><path class="cls-10" d="M292.29,41.85a7,7,0,1,0-13.08,3.54h0l0,0c.27.45.61.78.95,1.26l4.07,5.4a1.28,1.28,0,0,0,2,0l4-5.32a16.72,16.72,0,0,0,1-1.35v0h0A7,7,0,0,0,292.29,41.85Zm-7,3a3.09,3.09,0,1,1,3.09-3.09A3.09,3.09,0,0,1,285.27,44.9Z"/><path class="cls-7" d="M285.27,44.9a6.51,6.51,0,0,0,.74-.12,3.16,3.16,0,0,0,1.66-1.13,3,3,0,1,0-4.81,0,3.16,3.16,0,0,0,1.66,1.13,6.1,6.1,0,0,0,.75.12,2.5,2.5,0,0,1-.77-.06,3.12,3.12,0,0,1-2.21-4.1,3.16,3.16,0,0,1,5.95,0,3.12,3.12,0,0,1-2.21,4.1A2.43,2.43,0,0,1,285.27,44.9Z"/><path class="cls-7" d="M292.29,41.85a5.06,5.06,0,0,1-.05,1,7,7,0,0,1-.88,2.6l0-.07h.09l-.05.07,0,0h0l-4.8,6.41a1.61,1.61,0,0,1-1,.77,1.32,1.32,0,0,1-1.24-.38c-.56-.69-1.08-1.41-1.64-2.15-1.12-1.47-2.29-3-3.5-4.63h0l0,0-.1-.13h.17l-.07.13a7.8,7.8,0,0,1-.62-1.37A7.07,7.07,0,0,1,289,35.84,7,7,0,0,1,292.05,40a4.91,4.91,0,0,1,.17.81,5.11,5.11,0,0,1,.06.59c0,.33,0,.5,0,.5A10.34,10.34,0,0,0,292,40a7,7,0,0,0-3.05-4,7.16,7.16,0,0,0-3.37-1A6.95,6.95,0,0,0,278.68,44a6.75,6.75,0,0,0,.61,1.33l.07.13h-.15l.07-.14,0,0h0L282.79,50l1.62,2.14a1.19,1.19,0,0,0,1.1.34,1.45,1.45,0,0,0,.91-.72c1.95-2.55,3.6-4.73,4.85-6.37h0v0l0,.07h-.08l0-.07a7.13,7.13,0,0,0,.92-2.56c0-.31.06-.55.07-.71S292.29,41.85,292.29,41.85Z"/><path class="cls-5" d="M226.06,34.34s0-.14-.05-.43,0-.74-.08-1.29c0-.29,0-.61-.06-.95s-.11-.73-.17-1.14a20.18,20.18,0,0,0-.57-2.8,26,26,0,0,0-3-7.21A27.21,27.21,0,0,0,203.86,7.81a27.31,27.31,0,0,0-3.42-.39c-.58,0-1.16-.08-1.76-.07l-1.78.1c-.3,0-.6,0-.9.06l-.9.13c-.61.1-1.22.17-1.82.3A27.85,27.85,0,0,0,189.68,9a27.23,27.23,0,0,0-3.52,1.54c-.57.31-1.11.67-1.68,1a14.73,14.73,0,0,0-1.63,1.12,31,31,0,0,0-3.06,2.6,31.87,31.87,0,0,0-2.64,3.13,26.12,26.12,0,0,0-3.86,7.43,28.83,28.83,0,0,0-1.39,8.51,28.78,28.78,0,0,0,1.39,8.51,26,26,0,0,0,3.86,7.44,30.54,30.54,0,0,0,2.64,3.13,32.39,32.39,0,0,0,3.06,2.6,14.73,14.73,0,0,0,1.63,1.12c.56.34,1.11.7,1.68,1a27.23,27.23,0,0,0,3.52,1.54,27.85,27.85,0,0,0,3.6,1.06c.6.13,1.22.2,1.82.3l.9.13c.3,0,.6,0,.9.06l1.79.1c.59,0,1.17-.05,1.76-.07a25.41,25.41,0,0,0,3.41-.4,26.74,26.74,0,0,0,11.37-5,27.08,27.08,0,0,0,6.89-7.67,26.07,26.07,0,0,0,3-7.2,20.18,20.18,0,0,0,.57-2.8c.06-.41.13-.79.17-1.14s0-.66.06-1c0-.55.06-1,.08-1.29s.05-.44.05-.44v.45c0,.3,0,.73-.05,1.29,0,.29,0,.6,0,1s-.09.73-.15,1.15a20.08,20.08,0,0,1-.53,2.82,26,26,0,0,1-3,7.29,27.38,27.38,0,0,1-18.4,12.93,26,26,0,0,1-3.45.41c-.59,0-1.19.08-1.79.07l-1.81-.09c-.3,0-.61,0-.91,0l-.92-.14c-.61-.1-1.23-.17-1.84-.3a28.55,28.55,0,0,1-3.65-1.06A28.19,28.19,0,0,1,186,58.49c-.57-.31-1.13-.67-1.7-1a14.36,14.36,0,0,1-1.66-1.14,29.56,29.56,0,0,1-3.11-2.64,29.32,29.32,0,0,1-2.68-3.17A26.54,26.54,0,0,1,172.89,43a29.45,29.45,0,0,1-1.41-8.65,29.06,29.06,0,0,1,1.42-8.64,26.32,26.32,0,0,1,3.92-7.55A31.39,31.39,0,0,1,179.5,15a30.7,30.7,0,0,1,3.11-2.63,14.36,14.36,0,0,1,1.66-1.14c.57-.34,1.13-.7,1.71-1a27.45,27.45,0,0,1,3.57-1.57,28.55,28.55,0,0,1,3.65-1.06c.61-.13,1.23-.2,1.84-.3l.92-.14c.3,0,.61,0,.91,0L198.68,7c.6,0,1.2,0,1.79.07a26,26,0,0,1,3.45.41,27.38,27.38,0,0,1,18.4,12.93,25.89,25.89,0,0,1,3,7.29,20.08,20.08,0,0,1,.53,2.82c.06.42.12.8.15,1.15s0,.66,0,.95c0,.56,0,1,.05,1.29Z"/><path class="cls-10" d="M199.83,21.79a12.53,12.53,0,0,1,3.22.85l2.36-2,4.06,3.09-1.28,2.81a12.42,12.42,0,0,1,1.68,2.87l3.07.27.68,5.05-2.88,1.08a12.53,12.53,0,0,1-.85,3.22l2,2.36-3.09,4.06L206,44.19a12.6,12.6,0,0,1-2.87,1.67l-.27,3.07-5.05.69-1.08-2.89a12.53,12.53,0,0,1-3.22-.85l-2.36,2-4.06-3.09,1.28-2.8a12.64,12.64,0,0,1-1.68-2.87l-3.06-.27-.69-5.06,2.89-1.08a12.17,12.17,0,0,1,.85-3.21l-2-2.36,3.09-4.06,2.81,1.28a12.28,12.28,0,0,1,2.87-1.68l.27-3.07,5.06-.68,1.07,2.88Zm-2.07,7a5.47,5.47,0,1,0,6.16,4.69A5.48,5.48,0,0,0,197.76,28.81Z"/><path class="cls-7" d="M197.76,28.81s.12,0,.34-.07a4.47,4.47,0,0,1,1,0,5.48,5.48,0,0,1,3.35,1.55A5.6,5.6,0,0,1,204,35.43a5.67,5.67,0,0,1-10.57,1.43,5.62,5.62,0,0,1,.13-5.4,5.47,5.47,0,0,1,2.83-2.38,4.1,4.1,0,0,1,1-.25c.23,0,.35,0,.35,0s-.48.09-1.27.43a5.49,5.49,0,0,0-2.61,2.37,5.33,5.33,0,0,0,0,5.06,5.3,5.3,0,0,0,5.37,2.76A5.29,5.29,0,0,0,202.14,38a5.24,5.24,0,0,0,1.5-2.67,5.33,5.33,0,0,0-1.39-4.86,5.54,5.54,0,0,0-3.15-1.6C198.25,28.77,197.76,28.86,197.76,28.81Z"/><path class="cls-7" d="M199.83,21.79a.81.81,0,0,1-.08-.17c-.05-.14-.13-.32-.22-.54l-.84-2.15.07.05-5,.72.09-.1c-.07.93-.16,2-.25,3.07v.08l-.07,0a12.21,12.21,0,0,0-2.83,1.67l-.07.05-.08,0-2.81-1.27.19-.05-3.08,4.07V27c.61.73,1.29,1.54,2,2.36l.07.09-.05.1a12.7,12.7,0,0,0-.83,3.17v.11l-.11,0L183,34l.12-.21c.22,1.58.46,3.29.7,5l-.19-.18,3.07.27h.13l.05.12a12.41,12.41,0,0,0,1.65,2.82l.08.1-.06.12c-.4.88-.83,1.84-1.27,2.8l-.07-.26,4.06,3.09H191l2.36-2,.1-.08.13,0a12.26,12.26,0,0,0,3.15.83h0l.18.14h0v0l0,0,0,.09L197,47l.13.36.27.72.54,1.44-.23-.14,5.05-.68-.19.19.27-3.07,0-.13.12-.05A12.16,12.16,0,0,0,205.84,44l.1-.08.12.05,2.8,1.29-.25.06,3.09-4.05v.25l-2-2.37-.07-.09,0-.11a12.45,12.45,0,0,0,.85-3.16v-.12l.11,0,2.89-1.07-.12.2c-.24-1.78-.46-3.46-.67-5.06l.15.15-3.07-.28h-.09l0-.09a12.44,12.44,0,0,0-1.64-2.85l-.06-.07,0-.08,1.29-2.79,0,.15-4-3.11h.13l-2.39,2,0,0h0a12.8,12.8,0,0,0-2.38-.75l-.61-.12c-.14,0-.2,0-.2-.05H200l.62.09a11.57,11.57,0,0,1,2.42.69H203c.65-.55,1.41-1.21,2.35-2l.06-.06.06,0,4.08,3.07.08.06,0,.09-1.27,2.82v-.15a12.37,12.37,0,0,1,1.7,2.9l-.13-.1,3.07.26h.14v.14c.23,1.59.46,3.27.7,5l0,.14-.13.05L210.8,36l.12-.16a12.43,12.43,0,0,1-.85,3.27l0-.2,2,2.36.11.12-.1.13L209,45.59l-.11.14-.15-.07-2.81-1.28.22,0a12.83,12.83,0,0,1-2.92,1.7l.14-.18c-.09,1-.18,2-.27,3.07l0,.18-.17,0-5.05.69-.18,0-.06-.16L197,48.26l-.27-.73-.14-.36-.06-.18,0-.09v-.07h0l.18.14h0a12.57,12.57,0,0,1-3.27-.86l.22,0-2.36,2-.13.11L191,48,186.93,45l-.14-.11.07-.16c.45-1,.88-1.92,1.29-2.8l0,.22a13,13,0,0,1-1.7-2.92l.18.13L183.58,39h-.17l0-.17c-.23-1.75-.46-3.46-.68-5.05l0-.16.15,0,2.89-1.07-.12.15a12.2,12.2,0,0,1,.87-3.26l0,.19-2-2.37-.09-.11.09-.11,3.1-4.05.07-.1.12.05,2.8,1.29-.15,0a12.56,12.56,0,0,1,2.91-1.68l-.08.11c.11-1.1.2-2.14.29-3.07v-.09h.09l5.06-.64h.05l0,.05c.33.93.58,1.64.77,2.15.07.23.14.42.19.56S199.84,21.79,199.83,21.79Z"/><path class="cls-12" d="M165.74,235.84l-1.13.39c-5.05,1.7-20.06,6.66-24.6,8.52,0,0,8,71.09,9,77.7s1.18,33,1.18,33h85.5s-.23-71.24,0-82.29c.32-14.3,2.09-28.44,2.09-28.44l-14.93-5.84-17.46-9.2Z"/><g class="cls-13"><path d="M184.76,251.23q-10.47,38.88-22.06,77.45c-.91,3-1.81,6.36-.58,9.27a8.32,8.32,0,0,0,6.59,4.7,13.35,13.35,0,0,0,8.13-1.84c5.78-3.22,9.53-9.3,11.37-15.65s2-13.06,2.16-19.68q.62-26.48,1.21-52.94Z"/></g><path class="cls-12" d="M140,244.75s-12.54,5.56-11.56,27.85a273.5,273.5,0,0,0,3,29l35.26-10.16-9-38.7Z"/><path class="cls-12" d="M223.64,280.62l-1.89,25.72,35.45-11.48s-7.6-45.4-19.64-50.11l-13,22.18Z"/><path class="cls-7" d="M227.67,273.19a2,2,0,0,1,.07.52c0,.39.06.89.1,1.51.08,1.36.18,3.24.31,5.53.23,4.68.48,11.15.71,18.29s.44,13.56.59,18.28c.07,2.31.13,4.19.17,5.55q0,.93,0,1.5a3.06,3.06,0,0,1,0,.53,2,2,0,0,1-.07-.52c0-.39-.06-.89-.11-1.51-.07-1.36-.17-3.23-.3-5.53-.23-4.68-.48-11.15-.71-18.29s-.44-13.56-.59-18.28c-.07-2.3-.13-4.18-.17-5.55q0-.92,0-1.5A3.06,3.06,0,0,1,227.67,273.19Z"/><path class="cls-7" d="M157.55,262.36a4.46,4.46,0,0,1-.46-.82L156,259.26a37.88,37.88,0,0,0-4.42-7.1,17.21,17.21,0,0,0-6.56-5,21.42,21.42,0,0,0-3.33-.94,3.53,3.53,0,0,1,.94,0,10.83,10.83,0,0,1,2.49.62,16.51,16.51,0,0,1,6.78,5,33.24,33.24,0,0,1,4.36,7.24c.46,1,.8,1.79,1,2.35A3.56,3.56,0,0,1,157.55,262.36Z"/><path class="cls-7" d="M231.82,243.67a50.45,50.45,0,0,0-2.24,6,54,54,0,0,0-1.05,6.27,6.54,6.54,0,0,1-.07-1.88,21.88,21.88,0,0,1,2.35-8.74A6.26,6.26,0,0,1,231.82,243.67Z"/><path class="cls-11" d="M153,254.75s-.13,0-.35,0a1.43,1.43,0,0,0-.78.57,3.45,3.45,0,0,0-.54,1.47,6.09,6.09,0,0,1-.25,1,2,2,0,0,1-.72,1,2.38,2.38,0,0,1-2.62-.29,9.2,9.2,0,0,1-1.88-2.38,4.19,4.19,0,0,0-1.05-1.13,2.38,2.38,0,0,0-1.43-.49,1.56,1.56,0,0,0-1.24.8,4,4,0,0,0-.37,1.65c0,.6-.05,1.21-.12,1.81a3.89,3.89,0,0,1-.57,1.74,2.59,2.59,0,0,1-.68.64,2.26,2.26,0,0,1-.87.27,3.17,3.17,0,0,1-1.68-.32,6.87,6.87,0,0,1-2.23-2.07,8.1,8.1,0,0,0-1.79-1.81,2.67,2.67,0,0,0-1.92-.51,2,2,0,0,0-1.25.84,1.47,1.47,0,0,0-.27.93c0,.22.07.34,0,.35a.71.71,0,0,1-.13-.34,1.43,1.43,0,0,1,.21-1,2.18,2.18,0,0,1,1.34-1A2.88,2.88,0,0,1,134,257a8.4,8.4,0,0,1,1.89,1.84,6.52,6.52,0,0,0,2.13,1.94,2.73,2.73,0,0,0,1.46.27,1.7,1.7,0,0,0,1.26-.75c.59-.88.52-2.13.61-3.34a4.52,4.52,0,0,1,.42-1.82,2,2,0,0,1,1.58-1,3.5,3.5,0,0,1,2.83,1.81,9.42,9.42,0,0,0,1.76,2.32,2.11,2.11,0,0,0,2.26.32,2.67,2.67,0,0,0,.9-1.77,3.28,3.28,0,0,1,.65-1.52,1.39,1.39,0,0,1,.88-.55A.68.68,0,0,1,153,254.75Z"/><path class="cls-11" d="M160.13,266.68a1.19,1.19,0,0,1,0,.46,2.82,2.82,0,0,1-.44,1.26,3.69,3.69,0,0,1-1.59,1.39,3.16,3.16,0,0,1-2.78,0c-.94-.46-1.73-1.36-2.83-1.67a2.93,2.93,0,0,0-3,1.51c-.73,1.09-1,2.51-1.77,3.83a4.54,4.54,0,0,1-1.61,1.68,2.6,2.6,0,0,1-2.41.19,4.25,4.25,0,0,1-1.68-1.71c-.4-.66-.73-1.33-1.14-1.92a2.81,2.81,0,0,0-1.53-1.25,2.13,2.13,0,0,0-1.81.36,6.75,6.75,0,0,0-2.18,3,26.16,26.16,0,0,1-1.52,3,5.17,5.17,0,0,1-4,2.62,2.81,2.81,0,0,1-1.32-.23,1.51,1.51,0,0,1-.3-.17l-.1-.07a3.53,3.53,0,0,0,1.7.3,5,5,0,0,0,3.74-2.61,23.68,23.68,0,0,0,1.46-3,7.08,7.08,0,0,1,2.28-3.15,2.53,2.53,0,0,1,2.13-.42,3.15,3.15,0,0,1,1.77,1.39c.43.63.77,1.3,1.16,1.94a3.8,3.8,0,0,0,1.5,1.55,2.2,2.2,0,0,0,2-.17,4.09,4.09,0,0,0,1.46-1.52c.71-1.24,1-2.68,1.81-3.85a4.43,4.43,0,0,1,1.5-1.39,2.6,2.6,0,0,1,1.94-.24,5,5,0,0,1,1.57.85,10.48,10.48,0,0,0,1.31.89,2.87,2.87,0,0,0,2.55.09,3.39,3.39,0,0,0,2.1-2.89Z"/><path class="cls-11" d="M156,283.94s-.11,0-.3,0a1.16,1.16,0,0,0-.78.25,2.4,2.4,0,0,0-.75,1.1,4.12,4.12,0,0,0-.07,1.81,4.61,4.61,0,0,1-.18,2.35,2.47,2.47,0,0,1-2.35,1.34,3.74,3.74,0,0,1-2.78-1.29,11.33,11.33,0,0,1-1.76-2.83l.15.12a2.37,2.37,0,0,0-2.2,1.09,5.57,5.57,0,0,0-.93,2.66,18.27,18.27,0,0,1-.39,2.19,4.81,4.81,0,0,1-1.05,1.95,2.65,2.65,0,0,1-2,.9,3.08,3.08,0,0,1-1.91-.81,18.73,18.73,0,0,1-2.25-2.91,3.4,3.4,0,0,0-2.55-1.46,3.21,3.21,0,0,0-2.33.77,3.4,3.4,0,0,0-1,1.62,4.11,4.11,0,0,0-.07,1.66s0,0-.05-.11a1.81,1.81,0,0,1-.08-.32,3.28,3.28,0,0,1,0-1.27,3.46,3.46,0,0,1,1-1.75,3.56,3.56,0,0,1,4-.49,4.61,4.61,0,0,1,1.29,1.13,18.61,18.61,0,0,0,2.23,2.83,2.71,2.71,0,0,0,1.66.71,2.25,2.25,0,0,0,1.65-.78,4.26,4.26,0,0,0,1-1.78,19.82,19.82,0,0,0,.39-2.14,6,6,0,0,1,1-2.86,2.78,2.78,0,0,1,2.6-1.23h.1l0,.1a11.41,11.41,0,0,0,1.68,2.74,3.38,3.38,0,0,0,2.5,1.2,2.15,2.15,0,0,0,2.07-1.12,4.4,4.4,0,0,0,.2-2.2,4.08,4.08,0,0,1,.15-1.9,2.36,2.36,0,0,1,.85-1.14,1.13,1.13,0,0,1,.87-.21A.74.74,0,0,1,156,283.94Z"/><path class="cls-11" d="M254.18,280.52s-.15,0-.41.12a2,2,0,0,0-.91.73,5,5,0,0,0-.72,1.75,10.24,10.24,0,0,1-.68,2.5,2.64,2.64,0,0,1-1,1.18,1.87,1.87,0,0,1-1.71.06,3.44,3.44,0,0,1-1.31-1.26,11.78,11.78,0,0,1-.85-1.66,5.1,5.1,0,0,0-1.05-1.53,1.82,1.82,0,0,0-1.61-.63,1.56,1.56,0,0,0-1.1,1.36,11.12,11.12,0,0,0-.11,2.11,5.83,5.83,0,0,1-1.48,4,3.53,3.53,0,0,1-3.83.92,11.27,11.27,0,0,1-2.8-2.3,2.92,2.92,0,0,0-2.68-.93,3.44,3.44,0,0,0-1.93,1.46,6.25,6.25,0,0,0-.75,1.74c-.28,1-.37,1.61-.41,1.61a1.18,1.18,0,0,1,0-.43c0-.28.1-.69.22-1.22a5.93,5.93,0,0,1,.71-1.83,3.59,3.59,0,0,1,2-1.61,2.64,2.64,0,0,1,1.57.06,4.52,4.52,0,0,1,1.42.89,11.57,11.57,0,0,0,2.71,2.2,3.15,3.15,0,0,0,3.4-.85,5.47,5.47,0,0,0,1.35-3.76,11.48,11.48,0,0,1,.12-2.18,2.43,2.43,0,0,1,.44-1.05,1.79,1.79,0,0,1,1-.63,2.21,2.21,0,0,1,2,.74,5.62,5.62,0,0,1,1.11,1.66,11.66,11.66,0,0,0,.81,1.62,3.14,3.14,0,0,0,1.15,1.14,1.5,1.5,0,0,0,1.4,0,2.3,2.3,0,0,0,.92-1,9.89,9.89,0,0,0,.72-2.43,5.14,5.14,0,0,1,.82-1.79,1.92,1.92,0,0,1,1-.71A.89.89,0,0,1,254.18,280.52Z"/><path class="cls-11" d="M250,261.52a1.08,1.08,0,0,1-.15.3c-.11.19-.28.46-.52.8a8.43,8.43,0,0,1-1,1.16,4.24,4.24,0,0,1-1.72,1.06,3,3,0,0,1-2.46-.22c-.81-.5-1.19-1.44-1.92-1.95a1.25,1.25,0,0,0-1.22-.13,2.2,2.2,0,0,0-.95,1,4,4,0,0,0-.38,1.47c0,.53,0,1.08,0,1.65a4.49,4.49,0,0,1-.32,1.69,2.4,2.4,0,0,1-1.17,1.26,3.87,3.87,0,0,1-3.12-.18,13.74,13.74,0,0,1-2.32-1.54,7.07,7.07,0,0,0-2.05-1.12,2.75,2.75,0,0,0-1.85.1,2.48,2.48,0,0,0-1.12.85,2,2,0,0,0-.28,1.18,1.13,1.13,0,0,1-.08-.32,1.49,1.49,0,0,1,.22-.94,2.55,2.55,0,0,1,1.17-1,2.91,2.91,0,0,1,2-.16,6.92,6.92,0,0,1,2.17,1.12,13.87,13.87,0,0,0,2.28,1.46,3.46,3.46,0,0,0,2.78.16,2,2,0,0,0,1-1,4.32,4.32,0,0,0,.28-1.55c0-.55,0-1.1,0-1.66a4.12,4.12,0,0,1,.44-1.62,2.5,2.5,0,0,1,1.14-1.2,1.65,1.65,0,0,1,1.61.17c.85.64,1.2,1.56,1.89,2a2.71,2.71,0,0,0,2.18.22,4.09,4.09,0,0,0,1.65-.94,9.12,9.12,0,0,0,1-1.09A9.37,9.37,0,0,1,250,261.52Z"/><path class="cls-11" d="M229.31,308.05a1.24,1.24,0,0,1-.42.48,2.33,2.33,0,0,1-1.77.29,4.43,4.43,0,0,1-1.25-.43,11.61,11.61,0,0,1-1.31-.85,7.94,7.94,0,0,0-1.51-.87,2.56,2.56,0,0,0-1.85,0,3.27,3.27,0,0,0-1.51,1.4,18.68,18.68,0,0,0-1.05,2.1,11.47,11.47,0,0,1-1.23,2.27,3.58,3.58,0,0,1-1,.93,2.15,2.15,0,0,1-.68.25,2.2,2.2,0,0,1-.37.07H215a2.55,2.55,0,0,1-1.4-.49,5.23,5.23,0,0,1-1.07-1c-.62-.77-1.13-1.62-1.74-2.4a4.56,4.56,0,0,0-2.27-1.76,3.65,3.65,0,0,0-2.84.6,6.6,6.6,0,0,0-2.1,2.2c-.55.86-1,1.78-1.51,2.65a9,9,0,0,1-1.86,2.37,4.87,4.87,0,0,1-2.63,1.26,3.6,3.6,0,0,1-2.65-.8,8.87,8.87,0,0,1-1.72-1.93,11.8,11.8,0,0,0-2.92-3.4,3.27,3.27,0,0,0-1.8-.55,4.27,4.27,0,0,0-1.67.39,4.54,4.54,0,0,0-2.06,1.81,3.63,3.63,0,0,0-.53,1.66,6,6,0,0,1,0,.62s0-.05,0-.15a3.54,3.54,0,0,1,0-.47,3.61,3.61,0,0,1,.48-1.75,4.76,4.76,0,0,1,2.1-1.94,4.35,4.35,0,0,1,1.77-.43,3.49,3.49,0,0,1,2,.56,11.75,11.75,0,0,1,3,3.44A9.1,9.1,0,0,0,195.1,316a3.28,3.28,0,0,0,2.39.7,4.44,4.44,0,0,0,2.41-1.17,8.67,8.67,0,0,0,1.76-2.27c.5-.86,1-1.79,1.52-2.68a7.15,7.15,0,0,1,2.22-2.33,4.1,4.1,0,0,1,3.17-.64,4.87,4.87,0,0,1,2.5,1.91c.62.81,1.13,1.66,1.72,2.4a3.14,3.14,0,0,0,2.18,1.39,2.55,2.55,0,0,0,2.15-1.1,11.12,11.12,0,0,0,1.2-2.19,19.38,19.38,0,0,1,1.1-2.13,3.53,3.53,0,0,1,1.68-1.5,2.8,2.8,0,0,1,2,.07,7.66,7.66,0,0,1,1.55.93,14.3,14.3,0,0,0,1.27.86,4.18,4.18,0,0,0,1.19.45,2.24,2.24,0,0,0,1.69-.2A3.39,3.39,0,0,0,229.31,308.05Z"/><path class="cls-11" d="M227.77,281.14s0,.05-.07.13a.76.76,0,0,1-.32.28,1.85,1.85,0,0,1-1.61-.14c-.67-.31-1.2-1.07-2.08-1.43a1.33,1.33,0,0,0-1.37.24,3.39,3.39,0,0,0-.74,1.52,10.6,10.6,0,0,1-.66,1.88,2.61,2.61,0,0,1-.7.86,2.25,2.25,0,0,1-1.09.42,5.08,5.08,0,0,1-4.15-2.17,12.41,12.41,0,0,0-1.79-1.76,3.63,3.63,0,0,0-2.35-.75,6.43,6.43,0,0,0-4.51,2.66c-1.16,1.49-1.93,3.21-3,4.72a7.91,7.91,0,0,1-4,3.35,4.51,4.51,0,0,1-2.49.15,4.18,4.18,0,0,1-2-1.22c-1-1.08-1.73-2.32-2.77-3a2.72,2.72,0,0,0-1.61-.41,2.85,2.85,0,0,0-1.42.53,6.26,6.26,0,0,0-1.67,1.85c-.74,1.18-1,1.92-1,1.9a2.92,2.92,0,0,1,.19-.54,11.09,11.09,0,0,1,.72-1.45,6.47,6.47,0,0,1,1.68-2,2.9,2.9,0,0,1,3.32-.17c1.14.69,1.85,1.95,2.86,3a3.92,3.92,0,0,0,1.85,1.1,4.25,4.25,0,0,0,2.28-.16,7.52,7.52,0,0,0,3.81-3.21c1-1.48,1.76-3.2,3-4.75a6.8,6.8,0,0,1,4.84-2.81,4,4,0,0,1,2.6.84,12.6,12.6,0,0,1,1.83,1.82A6.94,6.94,0,0,0,217,284a3.61,3.61,0,0,0,2.07.53,1.92,1.92,0,0,0,1.54-1.09,10.47,10.47,0,0,0,.66-1.82,3.6,3.6,0,0,1,.85-1.63,1.57,1.57,0,0,1,1.63-.26c1,.43,1.46,1.21,2.07,1.5a1.84,1.84,0,0,0,1.5.22A1.19,1.19,0,0,0,227.77,281.14Z"/><path class="cls-11" d="M228.19,253.24s-.13-.13-.42-.28a1.91,1.91,0,0,0-1.37-.1,2.68,2.68,0,0,0-1.66,1.36,14.11,14.11,0,0,0-1,2.84,6.35,6.35,0,0,1-.77,1.63,3.07,3.07,0,0,1-1.59,1.2,3.87,3.87,0,0,1-2.13-.06,8.05,8.05,0,0,1-2-1c-1.24-.81-2.45-1.9-4-2.17a3.72,3.72,0,0,0-2.28.37,6.78,6.78,0,0,0-1.91,1.53c-1.15,1.23-1.93,2.75-3,4a8.28,8.28,0,0,1-1.81,1.64A4.5,4.5,0,0,1,202,265a6.28,6.28,0,0,1-3.94-1.63c-1-.84-1.92-1.71-2.84-2.33a4.92,4.92,0,0,0-2.74-1,3.56,3.56,0,0,0-2.09.67,2.33,2.33,0,0,0-.84,1.1c-.11.31-.11.49-.13.49a1.17,1.17,0,0,1,0-.51,2.35,2.35,0,0,1,.82-1.21,3.72,3.72,0,0,1,2.19-.78,5.27,5.27,0,0,1,2.91,1c1,.62,1.86,1.5,2.88,2.3a5.92,5.92,0,0,0,3.72,1.52,5.36,5.36,0,0,0,3.75-2.24c1.05-1.2,1.82-2.72,3-4a6.8,6.8,0,0,1,2-1.61,4,4,0,0,1,2.52-.41c1.71.32,2.93,1.46,4.15,2.25a4.89,4.89,0,0,0,3.82,1,2.69,2.69,0,0,0,1.42-1.05,6,6,0,0,0,.76-1.54,14,14,0,0,1,1.08-2.86,3.47,3.47,0,0,1,.85-1,3,3,0,0,1,1-.44,1.93,1.93,0,0,1,1.45.19A1.08,1.08,0,0,1,228.19,253.24Z"/><path class="cls-11" d="M224,240.11a.89.89,0,0,1-.05.31,4.71,4.71,0,0,1-.28.83,2.81,2.81,0,0,1-.86,1.12,1.47,1.47,0,0,1-1.84-.12,8.52,8.52,0,0,1-1.25-1.86,2.72,2.72,0,0,0-.77-.85,2.28,2.28,0,0,0-1.13-.35,3.23,3.23,0,0,0-2.41.9,7.82,7.82,0,0,0-1.67,2.38,6.19,6.19,0,0,1-.85,1.32,1.79,1.79,0,0,1-1.47.66,2,2,0,0,1-1.34-.77,4,4,0,0,1-.67-1.27,5.08,5.08,0,0,0-1-2.19,1.8,1.8,0,0,0-.91-.48,1.11,1.11,0,0,0-.86.27,3.56,3.56,0,0,0-.84,1.51,3.7,3.7,0,0,1-.7,1.22,1.32,1.32,0,0,1-.77.44c-.21,0-.31,0-.31,0a1.41,1.41,0,0,0,1-.53,3.38,3.38,0,0,0,.59-1.19,3.82,3.82,0,0,1,.87-1.66,1.41,1.41,0,0,1,1.1-.36,2.11,2.11,0,0,1,1.11.54,5.41,5.41,0,0,1,1.16,2.32,3.49,3.49,0,0,0,.61,1.14,1.63,1.63,0,0,0,1.06.62,1.37,1.37,0,0,0,1.13-.53,5.45,5.45,0,0,0,.78-1.24,8.26,8.26,0,0,1,1.78-2.49,3.62,3.62,0,0,1,2.7-1,2.63,2.63,0,0,1,1.32.44,3,3,0,0,1,.86,1A8.94,8.94,0,0,0,221.2,242a1.22,1.22,0,0,0,1.51.15,2.76,2.76,0,0,0,.84-1C223.89,240.51,224,240.1,224,240.11Z"/><path class="cls-11" d="M171.3,240.18s0,.13.08.38a8,8,0,0,1,.1,1.12,5.16,5.16,0,0,1-.21,1.77,3,3,0,0,1-1.53,1.81,2.1,2.1,0,0,1-1.43.18,2.25,2.25,0,0,1-1.26-.91c-.32-.42-.55-.9-.84-1.34a2.42,2.42,0,0,0-1.12-1,2.38,2.38,0,0,0-2.78,1.24,4.31,4.31,0,0,0-.51,1.72,12.44,12.44,0,0,0,0,1.92,6,6,0,0,1-.15,2,2.81,2.81,0,0,1-1.13,1.65,2.22,2.22,0,0,1-1.94.15,4.28,4.28,0,0,1-1.53-1c-.82-.86-1.33-1.83-2-2.52a3.09,3.09,0,0,0-2.42-1,3,3,0,0,0-2,.86,3.23,3.23,0,0,0-.83,1.46,4.35,4.35,0,0,0-.08,1.47.83.83,0,0,1-.11-.37,3.13,3.13,0,0,1,0-1.13,3.36,3.36,0,0,1,.82-1.6,3.3,3.3,0,0,1,2.16-1,3.38,3.38,0,0,1,2.68,1c.77.72,1.3,1.71,2.07,2.49a3.88,3.88,0,0,0,1.39.9,1.82,1.82,0,0,0,1.59-.12,2.43,2.43,0,0,0,.95-1.42,5.77,5.77,0,0,0,.13-1.87,6.52,6.52,0,0,1,.53-3.87,2.51,2.51,0,0,1,4.57-.2c.3.47.52.94.81,1.34a2,2,0,0,0,1.06.8,1.82,1.82,0,0,0,1.22-.14,2.74,2.74,0,0,0,1.44-1.61,5.41,5.41,0,0,0,.27-1.7C171.32,240.72,171.27,240.18,171.3,240.18Z"/><path class="cls-7" d="M214.62,147.07c-5.47-1.18-10.63,4.07-16.2,3.46-3.38-.37-6.12-2.82-9.22-4.22-4.63-2.09-10.92-2-15.24.71s-7,5.38-7.22,10.46c-4.32-2-10.74,3.74-12.65,8.94s-.89,10.31.89,15.55a73,73,0,0,0,14.2,24.59c.56.64,1.42,1.32,2.15.9a1.84,1.84,0,0,0,.66-1.54c.38-5-.67-9.91-1.51-14.81s-1.48-10-.32-14.82,4.48-9.45,9.26-10.82c3.54-1,7.37-.16,10.71,1.36s6.36,3.69,9.57,5.47,6.78,3.21,10.45,3.06,7.45-2.2,8.73-5.65-.87-8-4.52-8.46a7.23,7.23,0,0,0,.26-14.18Z"/><path class="cls-14" d="M205.43,234.29,204,223.74s13.74-3.86,12.23-17.87c-.73-6.77-3.36-20.58-5.89-33.06A26.27,26.27,0,0,0,181.48,152l-1.35.16c-14.46,2.6-20.33,16.33-17.33,30.71l8.14,56.28a17.42,17.42,0,0,0,19.62,14.75h0A17.42,17.42,0,0,0,205.43,234.29Z"/><path class="cls-15" d="M204,223.73a32.82,32.82,0,0,1-18.87-3s5.52,9.55,19.34,6.61Z"/><path class="cls-7" d="M206.05,181.31a2.05,2.05,0,0,1-1.67,2.33,2,2,0,0,1-2.29-1.63,2,2,0,0,1,1.67-2.33A2,2,0,0,1,206.05,181.31Z"/><path class="cls-7" d="M208.16,181c-.21.29-1.86-.65-4-.39s-3.6,1.53-3.86,1.3.06-.61.69-1.19a5.56,5.56,0,0,1,3.05-1.36,5.4,5.4,0,0,1,3.24.63C208,180.37,208.27,180.82,208.16,181Z"/><path class="cls-7" d="M185.57,183a2.07,2.07,0,0,1-1.66,2.37,2,2,0,0,1-2.3-1.67,2.08,2.08,0,0,1,1.67-2.37A2,2,0,0,1,185.57,183Z"/><path class="cls-7" d="M187.52,182.62c-.22.29-1.87-.64-4-.38s-3.59,1.53-3.86,1.29.07-.6.7-1.18a5.45,5.45,0,0,1,3-1.36,5.28,5.28,0,0,1,3.23.63C187.35,182.05,187.63,182.49,187.52,182.62Z"/><path class="cls-7" d="M196.79,198a14.2,14.2,0,0,1,3.42-1.05c.54-.13,1-.3,1.1-.68a2.8,2.8,0,0,0-.57-1.59l-2.12-4c-3-5.69-5.19-10.39-5-10.5s2.82,4.39,5.79,10.07c.72,1.41,1.41,2.74,2.06,4a3.24,3.24,0,0,1,.55,2.12,1.42,1.42,0,0,1-.81.92,4.33,4.33,0,0,1-.92.24A14.06,14.06,0,0,1,196.79,198Z"/><path class="cls-7" d="M190.64,200.21c.35-.06.63,2.28,2.83,3.69s4.65.86,4.71,1.19c0,.14-.5.52-1.55.67a5.87,5.87,0,0,1-3.91-.85,5.09,5.09,0,0,1-2.22-3.12C190.29,200.83,190.48,200.22,190.64,200.21Z"/><path class="cls-7" d="M186.44,172.79c-.15.61-2.33.59-4.81,1.2s-4.45,1.54-4.85,1c-.17-.23.11-.82.87-1.49a8.26,8.26,0,0,1,3.48-1.71,8.37,8.37,0,0,1,3.87,0C186,172.1,186.49,172.5,186.44,172.79Z"/><path class="cls-7" d="M206.63,173.89c-.32.53-1.87.2-3.65.39s-3.25.72-3.66.25c-.18-.22,0-.74.6-1.28a5.07,5.07,0,0,1,2.86-1.16,5.13,5.13,0,0,1,3,.63C206.5,173.15,206.76,173.63,206.63,173.89Z"/><path class="cls-14" d="M165.18,193.05c-.25-.08-10-1.69-8.5,7.84s10.72,6.1,10.7,5.83S165.18,193.05,165.18,193.05Z"/><path class="cls-15" d="M163.92,203.55s-.15.14-.41.31a1.68,1.68,0,0,1-1.24.22c-1.06-.22-2.16-1.69-2.46-3.4a5.56,5.56,0,0,1,.1-2.45,1.93,1.93,0,0,1,1.05-1.46.85.85,0,0,1,1,.31c.17.24.14.44.19.45s.18-.19,0-.57a1,1,0,0,0-.46-.54,1.25,1.25,0,0,0-1-.1,2.38,2.38,0,0,0-1.51,1.74,5.8,5.8,0,0,0-.17,2.74c.36,1.91,1.62,3.56,3.05,3.75a1.79,1.79,0,0,0,1.48-.49C163.93,203.78,164,203.56,163.92,203.55Z"/><path class="cls-7" d="M213,169.52a20.33,20.33,0,0,1-18.44-1.88c-3.75-2.48-6.88-6.32-11.3-7.12a11.44,11.44,0,0,0-8.55,2.24,22,22,0,0,0-5.86,6.84c3.55,6.79,2.69,15,1.74,22.55a3.89,3.89,0,0,1-.85,2.34c-1,1-2.81.53-3.92-.38-1.77-1.46-2.67-3.73-3.34-5.93a39.53,39.53,0,0,1-1.77-15.53,26.92,26.92,0,0,1,5.74-14.41,25.53,25.53,0,0,1,17-8.86,31.32,31.32,0,0,1,18.86,4.29,18.41,18.41,0,0,1,6.69,6.06"/><path class="cls-9" d="M219,150a2,2,0,0,1,0,.84,4,4,0,0,1-1.1,2.13,6.17,6.17,0,0,1-3.44,1.63,10.24,10.24,0,0,1-2.39.13,5.07,5.07,0,0,1-2.57-.83A3.4,3.4,0,0,1,208,151.3a3,3,0,0,1,1.74-2.69,3.74,3.74,0,0,1,1.69-.42,3.1,3.1,0,0,1,1.73.54A4.36,4.36,0,0,1,215,151.9a5.08,5.08,0,0,1-1.09,3.69,7.74,7.74,0,0,1-3.23,2.39,12.75,12.75,0,0,1-8.28.09,36.61,36.61,0,0,1-7.59-3.41,45.84,45.84,0,0,0-6.91-3.33,14.33,14.33,0,0,0-6.76-.81,13.68,13.68,0,0,0-5.55,2.16,17,17,0,0,0-5.65,6.53,21.32,21.32,0,0,0-1,2.18,4.77,4.77,0,0,1-.31.77.87.87,0,0,1,0-.21c0-.13.09-.33.18-.59a17.76,17.76,0,0,1,.9-2.23,16.88,16.88,0,0,1,5.63-6.73,14,14,0,0,1,5.68-2.27,14.62,14.62,0,0,1,7,.78,45.8,45.8,0,0,1,7,3.34,36.24,36.24,0,0,0,7.49,3.36,12.31,12.31,0,0,0,8-.07,7.24,7.24,0,0,0,3-2.22,4.63,4.63,0,0,0,1-3.37,3.94,3.94,0,0,0-1.62-2.87,2.87,2.87,0,0,0-3-.11,2.59,2.59,0,0,0-1.55,2.32,3.05,3.05,0,0,0,1.34,2.29,4.85,4.85,0,0,0,2.41.81,9.81,9.81,0,0,0,2.32-.1,6,6,0,0,0,3.35-1.49,3.9,3.9,0,0,0,1.13-2A6.14,6.14,0,0,0,219,150Z"/><path class="cls-9" d="M153.37,174.86a15.44,15.44,0,0,0,3,.41,8.35,8.35,0,0,0,3.16-.72,14,14,0,0,0,3.38-2.15,11.34,11.34,0,0,0,3.58-6.22,22.26,22.26,0,0,0,.28-3,2.43,2.43,0,0,1,.15.83,9.34,9.34,0,0,1-.1,2.27,11,11,0,0,1-3.6,6.52,13.51,13.51,0,0,1-3.52,2.2,8.12,8.12,0,0,1-3.34.65,7.86,7.86,0,0,1-2.25-.4A2.38,2.38,0,0,1,153.37,174.86Z"/><path class="cls-9" d="M154.62,181.74c0-.09,1.15,0,2.94-.3a13.19,13.19,0,0,0,10.28-8.72c.61-1.71.68-2.86.77-2.85a2.26,2.26,0,0,1,0,.8,10.51,10.51,0,0,1-.44,2.16,12.74,12.74,0,0,1-10.54,8.95,11,11,0,0,1-2.2.08A2.52,2.52,0,0,1,154.62,181.74Z"/><path class="cls-15" d="M181,193a.24.24,0,0,1-.3-.18.25.25,0,0,1,.14-.32.26.26,0,0,1,.16.5Z"/><path class="cls-15" d="M185,191.53a.27.27,0,0,1-.32-.21.28.28,0,0,1,.13-.36.27.27,0,0,1,.32.21A.26.26,0,0,1,185,191.53Z"/><path class="cls-15" d="M187.78,191.13c-.13,0-.27-.11-.33-.32s0-.41.14-.44.27.11.33.32S187.91,191.1,187.78,191.13Z"/><path class="cls-15" d="M183.35,195.29c-.13,0-.24,0-.25-.12s.09-.16.22-.18.24,0,.25.12S183.48,195.28,183.35,195.29Z"/><path class="cls-15" d="M187,194a.28.28,0,0,1-.11-.54.27.27,0,0,1,.29.22A.26.26,0,0,1,187,194Z"/><path class="cls-15" d="M206.35,189.27a.25.25,0,0,1-.31-.18.25.25,0,0,1,.14-.33.27.27,0,0,1,.17.51Z"/><path class="cls-15" d="M209.12,188.68a.27.27,0,0,1-.3-.25.27.27,0,0,1,.17-.34.28.28,0,0,1,.3.24A.29.29,0,0,1,209.12,188.68Z"/><path class="cls-15" d="M203.88,189.64a.23.23,0,0,1-.29-.13.22.22,0,0,1,.16-.27.22.22,0,0,1,.29.12A.22.22,0,0,1,203.88,189.64Z"/><path class="cls-15" d="M206.3,192.19a.27.27,0,0,1-.35-.12.24.24,0,1,1,.35.12Z"/><path class="cls-15" d="M208.63,191.42a.23.23,0,0,1-.21-.23.24.24,0,0,1,.27-.17.22.22,0,0,1,.2.24A.21.21,0,0,1,208.63,191.42Z"/><path class="cls-7" d="M156.17,198.09s-.53,0-1-.58a1.72,1.72,0,0,1-.25-1.25,2.13,2.13,0,0,1,.87-1.28,2.22,2.22,0,0,1,1.5-.38,2.36,2.36,0,0,1,1.16.45c.59.43.69.91.65.91s-.26-.35-.81-.66a2.15,2.15,0,0,0-2.26,0,1.79,1.79,0,0,0-.73,1,1.47,1.47,0,0,0,.13,1C155.76,197.91,156.2,198,156.17,198.09Z"/><path class="cls-14" d="M228.55,302.55l.72,20.88s-60.54,12-68.32,16-11,4.63-10.5,16.2l96.74-.17S259.11,351,258.87,338s-3.48-44.17-3.48-44.17Z"/><path class="cls-14" d="M160.46,356l8-.74,7.67-18.33c-1.24-.21-27.13-4-28.65-3.62l-6.21,22.06S159.91,356,160.46,356Z"/><path class="cls-14" d="M142.76,355.67s.17.07.43.1c2.14.23,12-.37,12-.37.46-1.28-.4-5.11-1.63-5.33s-11.74.48-11.74.48-1.65.22-2.06,3C139.51,355.27,142.76,355.67,142.76,355.67Z"/><path class="cls-14" d="M139.42,350.06a1.1,1.1,0,0,0,.44.1c2.13.23,11.47.13,11.87-1s-.26-4.47-1.49-4.69-11.74.48-11.74.48-1.66.22-2.07,3C136.18,349.66,139.42,350.06,139.42,350.06Z"/><path class="cls-14" d="M137.77,344.57s.17.07.43.1c2.14.24,11.47.13,11.88-1,.45-1.28-.27-4.47-1.5-4.7s-11.74.49-11.74.49-1.65.22-2.06,3C134.52,344.18,137.77,344.57,137.77,344.57Z"/><path class="cls-14" d="M136.22,339.12s.17.07.43.1c2.13.23,11.47.13,11.87-1s-.26-4.47-1.49-4.69-11.74.48-11.74.48-1.66.22-2.07,3C133,338.72,136.22,339.12,136.22,339.12Z"/><path class="cls-15" d="M150.84,350a18.3,18.3,0,0,1-4.54.42c-2.5.07-4.51,0-4.5-.17a19,19,0,0,1,4.55-.42A17.2,17.2,0,0,1,150.84,350Z"/><path class="cls-15" d="M150.89,344.51c0,.17-2.88.39-6.46.5s-6.47.08-6.48-.09a36.94,36.94,0,0,1,6.46-.5A36.38,36.38,0,0,1,150.89,344.51Z"/><g class="cls-16"><path class="cls-15" d="M150.45,338.92a35.69,35.69,0,0,1-6.46.5,36.49,36.49,0,0,1-6.48-.09,36.94,36.94,0,0,1,6.46-.5A36.43,36.43,0,0,1,150.45,338.92Z"/></g><path class="cls-14" d="M165.43,335.46s-17.62-7.83-18.72-6.7a26,26,0,0,0-2.8,4.77Z"/><path class="cls-15" d="M242.8,341.65c-.08,0-.44-1.26-1.27-3.23a32,32,0,0,0-4.23-7.17,36.16,36.16,0,0,0-3.07-3.41,33.63,33.63,0,0,0-2.85-2.44c-1.7-1.29-2.86-1.95-2.82-2a5.06,5.06,0,0,1,.84.42,19.79,19.79,0,0,1,2.16,1.37,28.74,28.74,0,0,1,2.94,2.39,33.22,33.22,0,0,1,3.13,3.43,32.71,32.71,0,0,1,2.56,3.88,27.41,27.41,0,0,1,1.61,3.44,19.57,19.57,0,0,1,.8,2.42A3.56,3.56,0,0,1,242.8,341.65Z"/><path class="cls-14" d="M171.93,243.34,153.7,295.22l-20.49,5.9s7.43,31.44,15,37.09c2.57,1.92,6.79,4,11.11,3.7,8.19-.58,17.38-6.35,20.88-14.42,3.11-7.16,11.42-81.26,11.42-81.26Z"/><path class="cls-14" d="M191.39,248.44l1.07-12.64-2.94-10.14-1.13-3.89,2.22,2.27,4-4.31s-1.31-7.66-2.4-7.66a20.08,20.08,0,0,0-4.1,1.21l-1.45.54-3.42,1.75,3.42-5.25s3.53,2.94,5.33.39c1.38-2-3.76-6.32-5.7-7.86a1.92,1.92,0,0,0-1.57-.38l-2,.41a2.92,2.92,0,0,0-2.93-2.67,4.52,4.52,0,0,0-3.83,2.3l-2.1.38a3.5,3.5,0,0,0-3.29,2.29L166,217.76l5.94,25.58"/><path class="cls-15" d="M171.93,243.34s-.05-.15-.13-.46-.19-.76-.34-1.34c-.29-1.19-.7-2.92-1.23-5.12-1.06-4.47-2.56-10.85-4.4-18.62v-.05l0-.05q1.36-3.73,2.89-7.91l1.55-4.25a4.12,4.12,0,0,1,1.3-2,3.71,3.71,0,0,1,2.33-.83h0l2.11-.38-.14.1a5.09,5.09,0,0,1,1.54-1.66,4.19,4.19,0,0,1,2.2-.73,3.25,3.25,0,0,1,2.27.71,2.78,2.78,0,0,1,1.12,2.16l-.25-.22,1.51-.3a6,6,0,0,1,.8-.14,2.16,2.16,0,0,1,1.57.57l.61.49c.41.34.81.69,1.2,1a27.25,27.25,0,0,1,2.28,2.28,7.62,7.62,0,0,1,1.72,2.83,1.91,1.91,0,0,1,0,1A2.49,2.49,0,0,1,190,212a6.28,6.28,0,0,1-3.4-1.47l.31-.05-3.43,5.25-.27-.3,3.43-1.75h0c1.15-.43,2.29-.87,3.44-1.23a17.39,17.39,0,0,1,1.75-.48,1.69,1.69,0,0,1,.52,0,.88.88,0,0,1,.45.35,3.81,3.81,0,0,1,.42.83,40.79,40.79,0,0,1,1.63,6.63v.09l-.06.07-4.06,4.3-.12.13-.13-.13c-.76-.78-1.5-1.53-2.21-2.27l.28-.16c1.56,5.43,2.91,10.15,4,14v0c-.36,4-.65,7.14-.84,9.32q-.15,1.59-.24,2.46c0,.27-.05.48-.07.64a.71.71,0,0,1,0,.21s0-.07,0-.21,0-.37,0-.64c0-.58.1-1.41.18-2.47.17-2.19.41-5.34.72-9.33v0l-4.11-14-.19-.64.47.48,2.22,2.26h-.25l4-4.32-.05.16a40.92,40.92,0,0,0-1.62-6.55,3.86,3.86,0,0,0-.38-.73.52.52,0,0,0-.21-.2,1.32,1.32,0,0,0-.37,0,15.22,15.22,0,0,0-1.69.47c-1.14.36-2.28.8-3.43,1.23h0l-3.42,1.75-.69.35.42-.65c1.12-1.72,2.27-3.47,3.42-5.25l.13-.19.18.14a5.94,5.94,0,0,0,3.15,1.38,2.09,2.09,0,0,0,1.53-.55,2.41,2.41,0,0,0,.48-.66,1.54,1.54,0,0,0,0-.8,7.1,7.1,0,0,0-1.63-2.64,28,28,0,0,0-2.24-2.25c-.39-.35-.79-.69-1.19-1a5,5,0,0,0-1.21-.87,2.27,2.27,0,0,0-1.41,0l-1.51.3-.26,0v-.27a2.37,2.37,0,0,0-1-1.81,2.87,2.87,0,0,0-2-.62,4.22,4.22,0,0,0-3.41,2.17l-.05.09h-.09l-2.11.38h0a3.32,3.32,0,0,0-2.08.74,3.68,3.68,0,0,0-1.19,1.85c-.53,1.45-1.06,2.87-1.57,4.25-1,2.77-2,5.41-2.92,7.9v-.1c1.77,7.79,3.23,14.18,4.25,18.65.49,2.22.88,3.95,1.15,5.15.12.58.22,1,.29,1.35S171.93,243.34,171.93,243.34Z"/><path class="cls-15" d="M186.53,220.13a24.47,24.47,0,0,1,3.55-1.9l1.31-.64-1.09,1a3.53,3.53,0,0,0-1.14,2.81,3.68,3.68,0,0,0,.48,1.51,8.85,8.85,0,0,0,1,1.16s-.63-.18-1.22-1a3.56,3.56,0,0,1-.19-3.74,3.44,3.44,0,0,1,.83-1l.22.34A22.39,22.39,0,0,1,186.53,220.13Z"/><path class="cls-15" d="M176.84,213.3a10.61,10.61,0,0,1,1-1.91c.66-1.15,1.59-2.72,2.65-4.45.53-.86,1-1.68,1.51-2.42a4.91,4.91,0,0,1,1.67-1.69,2.65,2.65,0,0,1,1.58-.35,1,1,0,0,1,.55.19s-.21,0-.56,0a2.71,2.71,0,0,0-1.42.44c-1.11.66-1.89,2.39-3,4.08s-2,3.28-2.75,4.39A11.14,11.14,0,0,1,176.84,213.3Z"/><path class="cls-15" d="M170.58,213.26a6.93,6.93,0,0,1,.59-1.72c.43-1,1.06-2.46,1.82-4s1.51-2.9,2.08-3.86a7.57,7.57,0,0,1,1-1.52,8.13,8.13,0,0,1-.74,1.66l-2,3.91-1.92,3.92A9.54,9.54,0,0,1,170.58,213.26Z"/><path class="cls-15" d="M155.93,290.15a4.48,4.48,0,0,1-.29.94c-.26.67-.57,1.51-.94,2.51-.8,2.11-1.89,5-3,8.28s-2.15,6.21-2.86,8.36l-.86,2.53a3.94,3.94,0,0,1-.36.92,4.34,4.34,0,0,1,.21-1c.15-.62.4-1.5.73-2.58.64-2.17,1.59-5.15,2.75-8.41s2.29-6.16,3.16-8.25c.44-1.05.8-1.89,1.06-2.46A5.42,5.42,0,0,1,155.93,290.15Z"/><path class="cls-15" d="M183,314.07a.8.8,0,0,1,0,.23c0,.19-.05.41-.09.7-.09.64-.22,1.54-.39,2.67s-.39,2.58-.71,4.22a34.22,34.22,0,0,1-1.53,5.46,18.1,18.1,0,0,1-3.56,5.88,26.63,26.63,0,0,1-6.15,5,32.86,32.86,0,0,1-8.06,3.35,17.42,17.42,0,0,1-4.59.64,13.7,13.7,0,0,1-4.71-.82,17.33,17.33,0,0,1-7.51-5.55,29.67,29.67,0,0,1-4.35-7.56c-1.06-2.59-1.68-5.16-2.41-7.51l-2-6.55c-1.25-4-2.2-7.26-2.8-9.53-.3-1.13-.52-2-.65-2.62q-.1-.42-.15-.69c0-.15-.05-.23,0-.23s0,.07.08.22l.19.68c.18.62.42,1.49.73,2.6.64,2.25,1.64,5.49,2.93,9.48.63,2,1.33,4.19,2.07,6.54s1.39,4.91,2.44,7.46a29.64,29.64,0,0,0,4.31,7.45,16.93,16.93,0,0,0,7.33,5.41,13.39,13.39,0,0,0,4.57.81,17.63,17.63,0,0,0,4.49-.63,32.55,32.55,0,0,0,8-3.28A27,27,0,0,0,176.4,333a18.26,18.26,0,0,0,3.55-5.75,37,37,0,0,0,1.57-5.41c.34-1.62.58-3,.78-4.19s.35-2,.47-2.66l.13-.69C182.93,314.14,183,314.06,183,314.07Z"/><path class="cls-12" d="M31.08,302.18a9.06,9.06,0,0,0-4.71-6c-2.51-1.09-5.42-.47-8,.46s-5.1,2.19-7.83,2.36-5.81-1.13-6.63-3.74c-.76-2.45.72-5.07,2.57-6.86a16.49,16.49,0,0,1,15-4.07A16.48,16.48,0,0,1,33,294.76"/><g class="cls-17"><path d="M31.08,302.18a9.06,9.06,0,0,0-4.71-6c-2.51-1.09-5.42-.47-8,.46s-5.1,2.19-7.83,2.36-5.81-1.13-6.63-3.74c-.76-2.45.72-5.07,2.57-6.86a16.49,16.49,0,0,1,15-4.07A16.48,16.48,0,0,1,33,294.76"/></g><path class="cls-18" d="M52.71,313.14c4-3.8,3.81-10.43,1.81-15.58s-6.36-9.1-11.23-11.71a35.55,35.55,0,0,0-31-1,14.67,14.67,0,0,1,11.89,7c2.2,3.65,2.69,8.07,4.5,11.92a18.77,18.77,0,0,0,24,9.39"/><path class="cls-19" d="M54.64,290.28c4.43-5.23,5-13.64,4.37-20.47s-2.24-13.7-1.16-20.48c.64-4,2.19-7.84,2.72-11.88s-.22-8.58-3.34-11.19c-3.59-3-9.24-2.28-13,.53s-5.9,7.22-7.48,11.61c-3.47,9.66-4.75,20.37-1.89,30.23s9.55,18.68,19.37,21.65"/><path class="cls-7" d="M56.76,333.23a2.72,2.72,0,0,0,0-.6c0-.39,0-1,0-1.73-.06-1.5-.2-3.67-.54-6.34a86.56,86.56,0,0,0-1.7-9.28,42.77,42.77,0,0,0-4.24-10.75,45.08,45.08,0,0,0-6.92-9.26,44.35,44.35,0,0,0-7.26-6c-1.11-.76-2.18-1.34-3.1-1.88s-1.78-.91-2.45-1.23l-1.6-.67a2.75,2.75,0,0,0-.56-.21,4.27,4.27,0,0,0,.53.27l1.57.74c.66.34,1.47.77,2.41,1.28s2,1.14,3,1.92a45.17,45.17,0,0,1,7.16,6.05A45.69,45.69,0,0,1,50,304.71c4.08,7.13,5.19,14.63,6,19.89.37,2.65.56,4.81.66,6.31,0,.72.07,1.3.1,1.72A3.92,3.92,0,0,0,56.76,333.23Z"/><path class="cls-12" d="M95,269.63c8.2,4.95,8.18,9.46,6.81,13.71s-6.41,7.21-10.58,5.62c-2.36-.9-4.07-3-5.53-5s-2.84-4.27-4.88-5.75-5-2-7.07-.58"/><g class="cls-17"><path d="M95,269.63c8.2,4.95,8.18,9.46,6.81,13.71s-6.41,7.21-10.58,5.62c-2.36-.9-4.07-3-5.53-5s-2.84-4.27-4.88-5.75-5-2-7.07-.58"/></g><path class="cls-18" d="M101.16,275.06c-2.14-3-7.44-3.83-10.79-2.35s-5.8,4.42-8,7.35-4.34,6-7.37,8.05-7.29,2.78-10.32.73a8.88,8.88,0,0,1-3.5-6.07,19.91,19.91,0,0,1,.48-7.16c.72-3.44,1.9-7,4.66-9.22,3.07-2.44,7.33-2.55,11.24-2.42,4.5.14,9.06.48,13.28,2s8.52,4.92,10.31,9.05"/><path class="cls-7" d="M63.58,326.66s0-.06,0-.18,0-.31,0-.53c0-.49,0-1.17.07-2l.22-7.49c.1-3.16.23-6.93.46-11.1s.54-8.77,1.17-13.54a44.57,44.57,0,0,1,1.36-6.88,35.87,35.87,0,0,1,2.52-6,34.85,34.85,0,0,1,3.17-5,32.61,32.61,0,0,1,3.46-3.8,25.44,25.44,0,0,1,6.15-4.19c.4-.18.75-.36,1.06-.49l.8-.31.49-.2a.48.48,0,0,0,.17-.08l-.18.05-.5.16-.82.28c-.32.12-.68.29-1.08.46a24.75,24.75,0,0,0-6.26,4.13,31.39,31.39,0,0,0-3.53,3.81,34.29,34.29,0,0,0-3.23,5,35.7,35.7,0,0,0-2.56,6.06,42.63,42.63,0,0,0-1.38,6.94c-.64,4.79-.94,9.39-1.15,13.57s-.31,7.95-.38,11.11-.09,5.72-.1,7.49v2c0,.22,0,.39,0,.53A1.23,1.23,0,0,0,63.58,326.66Z"/><path class="cls-7" d="M60.63,330.37a23.58,23.58,0,0,0,.9-3.52,37,37,0,0,0,.38-9.9,65.5,65.5,0,0,0-3.13-14.37c-1.68-5.28-4-10.92-5.92-17a77.11,77.11,0,0,1-2.36-9A80.59,80.59,0,0,1,49.34,268a124,124,0,0,1-.26-14.67c.14-4.18.36-7.56.5-9.89.07-1.15.12-2.05.16-2.69,0-.29,0-.52,0-.7v-.24a.92.92,0,0,0,0,.24c0,.17,0,.4-.07.69,0,.64-.13,1.54-.23,2.69-.18,2.33-.44,5.71-.61,9.89A121.09,121.09,0,0,0,49,268.05a79,79,0,0,0,1.15,8.62,76.68,76.68,0,0,0,2.36,9c2,6.09,4.25,11.73,6,17A66.57,66.57,0,0,1,61.65,317a38.44,38.44,0,0,1-.26,9.85c-.2,1.15-.39,2-.55,2.63-.07.29-.12.51-.16.69A1.93,1.93,0,0,0,60.63,330.37Z"/><polygon class="cls-9" points="40.29 334.08 78.82 334.08 79.7 326.66 40.29 326.66 40.29 334.08"/><polygon class="cls-9" points="74.68 333.24 69.87 355.48 48.93 355.48 44.42 333.24 74.68 333.24"/><path class="cls-9" d="M40.29,334.08c0,.1,8.47.16,18.92.13s18.92-.14,18.92-.24-8.47-.16-18.92-.13S40.29,334,40.29,334.08Z"/><path class="cls-7" d="M46.9,345.06a15.56,15.56,0,0,1,3.39-1.94,11.77,11.77,0,0,1,4.13-.83,14.37,14.37,0,0,1,5.07.93c1.76.59,3.4,1.28,5,1.66a11.78,11.78,0,0,0,4.31.13,8.82,8.82,0,0,0,2.78-.88,4.56,4.56,0,0,0,.66-.42q.23-.16.21-.18s-.33.19-.94.48a9.86,9.86,0,0,1-2.74.75,12.08,12.08,0,0,1-4.21-.21c-1.54-.38-3.18-1.08-5-1.68a14.44,14.44,0,0,0-5.2-.92,12,12,0,0,0-4.21.92,11,11,0,0,0-2.51,1.47,5.43,5.43,0,0,0-.6.52C47,345,46.89,345.05,46.9,345.06Z"/><path class="cls-3" d="M47.19,346.55a16.11,16.11,0,0,1,3.26-1.92,11,11,0,0,1,4-.82,14.06,14.06,0,0,1,4.91.88c1.7.57,3.29,1.23,4.81,1.63a12.13,12.13,0,0,0,4.15.47,6.94,6.94,0,0,0,2.72-.73,3.58,3.58,0,0,0,.64-.41,1.06,1.06,0,0,0,.21-.17s-.32.18-.92.45a7.43,7.43,0,0,1-2.67.6,12.76,12.76,0,0,1-4-.53c-1.49-.42-3.07-1.08-4.79-1.66a14.33,14.33,0,0,0-5-.87,10.85,10.85,0,0,0-4.07.92,10.74,10.74,0,0,0-2.4,1.45,7.56,7.56,0,0,0-.58.51A1.24,1.24,0,0,0,47.19,346.55Z"/><path class="cls-3" d="M46.52,343.58A18.81,18.81,0,0,1,50,341.53a13.07,13.07,0,0,1,4.23-1,13.81,13.81,0,0,1,5.24.93,48.42,48.42,0,0,0,5.17,1.69,13,13,0,0,0,4.45,0,9.81,9.81,0,0,0,2.87-.9,7,7,0,0,0,.69-.43c.15-.12.23-.18.22-.19s-.34.2-1,.49a11.25,11.25,0,0,1-2.85.78,13.4,13.4,0,0,1-4.35-.09,51.72,51.72,0,0,1-5.11-1.7,13.73,13.73,0,0,0-5.38-.91,12.87,12.87,0,0,0-6.88,2.66,7.45,7.45,0,0,0-.62.53A1.21,1.21,0,0,0,46.52,343.58Z"/><path class="cls-7" d="M40,334.11c0,.1,8.67.18,19.35.18s19.36-.08,19.36-.18-8.66-.18-19.36-.18S40,334,40,334.11Z"/><path class="cls-7" d="M356.33,355.48c0,.12-78.81.21-176,.21s-176-.09-176-.21,78.8-.21,176-.21S356.33,355.37,356.33,355.48Z"/></svg>