<?xml version="1.0" encoding="utf-8"?>
<!-- Generator: Adobe Illustrator 23.0.2, SVG Export Plug-In . SVG Version: 6.00 Build 0)  -->
<svg version="1.1" id="Layer_1" xmlns="http://www.w3.org/2000/svg" xmlns:xlink="http://www.w3.org/1999/xlink" x="0px" y="0px"
	 viewBox="0 0 80 80" style="enable-background:new 0 0 80 80;" xml:space="preserve">
<style type="text/css">
	.st0{fill:#FFFFFF;}
</style>
<g>
	<path class="st0" d="M49.1,49.1v4.6h4.6v-4.6H49.1z"/>
	<path class="st0" d="M22.6,8.5C23,8.2,23.5,8,24,8h32c0.5,0,1,0.2,1.4,0.5l11.4,9.1c0.8,0.6,0.9,1.6,0.9,2.5v8.4
		c0,2.6-0.9,4.9-2.3,6.9v34.3c0,1.3-1,2.3-2.3,2.3H40V46.9c0-1.3-1-2.3-2.3-2.3H24c-1.3,0-2.3,1-2.3,2.3V72h-6.9
		c-1.3,0-2.3-1-2.3-2.3V35.4c-1.4-1.9-2.3-4.3-2.3-6.9v-8.4c0-0.9,0.1-2,0.9-2.6L22.6,8.5z M14.9,28.6c0,3.8,3.1,6.9,6.9,6.9
		s6.9-3.1,6.9-6.9v-6.9H14.9V28.6z M33.1,28.6c0,3.8,3.1,6.9,6.9,6.9s6.9-3.1,6.9-6.9v-6.9H33.1V28.6z M51.4,28.6
		c0,3.8,3.1,6.9,6.9,6.9c3.8,0,6.9-3.1,6.9-6.9v-6.9H51.4V28.6z M19.1,17.1h10.2l1.7-4.6h-6.2L19.1,17.1z M34.2,17.1h11.4l-1.5-4.6
		h-8.2L34.2,17.1z M48.9,12.6l1.5,4.6h10.5l-5.7-4.6H48.9z M44.6,46.9V56c0,1.3,1,2.3,2.3,2.3H56c1.3,0,2.3-1,2.3-2.3v-9.1
		c0-1.3-1-2.3-2.3-2.3h-9.1C45.6,44.6,44.6,45.6,44.6,46.9z"/>
	<path class="st0" d="M26.3,72h9.1V49.1h-9.1V72z"/>
</g>
</svg>
