<?xml version="1.0" encoding="utf-8"?>
<!-- Generator: Adobe Illustrator 23.0.2, SVG Export Plug-In . SVG Version: 6.00 Build 0)  -->
<svg version="1.1" id="Layer_1" xmlns="http://www.w3.org/2000/svg" xmlns:xlink="http://www.w3.org/1999/xlink" x="0px" y="0px"
	 viewBox="0 0 80 80" style="enable-background:new 0 0 80 80;" xml:space="preserve">
<style type="text/css">
	.st0{fill:#FFFFFF;}
</style>
<g>
	<path class="st0" d="M40.2,30.1l-7,7.4c-1.4,1.6-1.4,4,0,5.6c1.4,1.4,3.7,1.5,5.1,0.1c0,0,0.1-0.1,0.1-0.1c0.1-0.1,0.2-0.2,0.3-0.3
		c0.3-0.2,0.7-0.2,1,0c0.3,0.1,0.4,0.4,0.4,0.8c-0.2,2.5-1.1,4.8-2.5,6.9h5.4c-1.4-2-2.3-4.4-2.5-6.9c0-0.3,0.1-0.6,0.4-0.8
		c0.3-0.2,0.6-0.2,0.9,0c0.1,0.1,0.3,0.2,0.4,0.3c1.4,1.4,3.7,1.5,5.1,0.1c0,0,0.1-0.1,0.1-0.1c1.5-1.6,1.5-4,0-5.6L40.2,30.1z"/>
	<path class="st0" d="M40.2,19.1c-11.6,0-21,9.4-21,20.9c0,11.6,9.4,21,20.9,21s21-9.4,21-20.9c0,0,0,0,0,0
		C61.1,28.5,51.7,19.2,40.2,19.1z M48.4,44.3c-1,1.1-2.4,1.6-3.8,1.6c-0.8,0-1.5-0.2-2.2-0.5c0.5,2,1.5,3.8,2.9,5.3
		c0.2,0.2,0.3,0.6,0.2,0.9c-0.1,0.3-0.4,0.5-0.8,0.5h-8.9c-0.3,0-0.6-0.2-0.8-0.5c-0.1-0.3-0.1-0.7,0.2-0.9c1.4-1.5,2.3-3.3,2.8-5.3
		c-2.1,0.9-4.5,0.5-6.1-1.1c-2.1-2.2-2.1-5.7,0-7.9l7.6-8c0.3-0.3,0.8-0.4,1.1-0.1c0,0,0,0,0.1,0.1l7.6,8
		C50.4,38.6,50.4,42,48.4,44.3z"/>
	<path class="st0" d="M65.9,20.9L65.9,20.9L65,19.7l-1-1.1c-0.4-0.4-0.8-0.9-1.2-1.3c-0.5-0.5-0.9-0.9-1.4-1.3L61,15.7
		c-0.5-0.4-1.1-0.9-1.6-1.3c-4.3-3.2-9.3-5.3-14.7-6.1c-3-0.4-6.1-0.4-9.1,0c-5.3,0.7-10.4,2.8-14.7,6l0,0c-0.4,0.4-0.9,0.7-1.3,1
		l-0.8,0.7c-0.9,0.8-1.8,1.7-2.6,2.6l-0.7,0.8c-0.4,0.4-0.7,0.9-1,1.3l0,0c-8.5,11.4-8.5,27,0,38.4l0,0c0.4,0.4,0.7,0.9,1,1.3
		l0.7,0.8c0.8,0.9,1.7,1.8,2.6,2.6l0.8,0.7c0.4,0.4,0.9,0.7,1.3,1l0,0c4.3,3.2,9.3,5.3,14.7,6.1c0.8,0,1.6,0.2,2.2,0.2
		c0.7,0,1.5,0,2.2,0c0.7,0,1.5,0,2.2,0c0.7,0,1.5-0.1,2.2-0.2c5.3-0.8,10.4-2.9,14.7-6.1c0.6-0.4,1.1-0.8,1.6-1.3l0.3-0.3
		c0.5-0.4,1-0.8,1.4-1.3c0.4-0.4,0.8-0.8,1.2-1.3l1-1.1l0.9-1.2l0,0c8.5-11.4,8.5-27,0-38.4L65.9,20.9z M40.2,65.5
		c-14,0-25.4-11.4-25.4-25.4c0-14,11.4-25.4,25.4-25.4c14,0,25.4,11.4,25.4,25.4c0,0,0,0,0,0C65.6,54.1,54.2,65.5,40.2,65.5z
		 M40.2,12.4c-1.6,0-3-1.1-3.5-2.6c2.3-0.3,4.6-0.3,6.9,0C43.2,11.4,41.8,12.4,40.2,12.4z M64,21.1c-1.4,0.8-3.2,0.5-4.3-0.6
		c-1.2-1.1-1.4-2.9-0.6-4.3C60.9,17.7,62.6,19.3,64,21.1z M21.2,16.2c1,1.8,0.3,3.9-1.5,4.9c-1.1,0.6-2.4,0.6-3.4,0
		C17.8,19.3,19.4,17.7,21.2,16.2z M16.3,59.1c1.8-1,3.9-0.3,4.9,1.5c0.6,1.1,0.6,2.4,0,3.4C19.4,62.5,17.8,60.9,16.3,59.1z
		 M36.7,70.4c0.5-1.9,2.5-3,4.4-2.5c1.2,0.3,2.2,1.3,2.5,2.5C41.3,70.6,39,70.6,36.7,70.4z M59.1,64c-0.8-1.4-0.5-3.2,0.6-4.3
		c0.7-0.7,1.6-1.1,2.6-1.1c0.6,0,1.2,0.1,1.8,0.4C62.6,60.9,60.9,62.5,59.1,64z"/>
</g>
</svg>
