<?xml version="1.0" encoding="utf-8"?>
<!-- Generator: Adobe Illustrator 23.0.2, SVG Export Plug-In . SVG Version: 6.00 Build 0)  -->
<svg version="1.1" id="Layer_1" xmlns="http://www.w3.org/2000/svg" xmlns:xlink="http://www.w3.org/1999/xlink" x="0px" y="0px"
	 viewBox="0 0 80 80" style="enable-background:new 0 0 80 80;" xml:space="preserve">
<style type="text/css">
	.st0{fill:#FFFFFF;}
</style>
<g>
	<path class="st0" d="M69,31.8c-0.2-1.7-1.7-2.9-3.4-2.7c-14.5,1.7-20.1-7.6-20.4-8c-0.5-0.7-1.2-1.1-2-1.2l0,0h-2.7
		c-1.5,2.1-4,3.5-6.9,3.5c-2.8,0-5.3-1.4-6.9-3.5h-4l0,0c-0.2,0-0.4,0-0.6,0c-4.1,0.8-11.1,2.8-11.3,7.4c-0.2,3.8,3.5,6.4,12.7,9.2
		l0.1,1.8h0v29.5c0,2.3,1.9,4.2,4.2,4.2s4.2-1.9,4.2-4.2V38.3h2v29.5c0,2.3,1.9,4.2,4.2,4.2c2.3,0,4.2-1.9,4.2-4.2V38.3h0l1.9-9.4
		c5.9,4.8,12,7.5,22,6.4C68,35,69.2,33.5,69,31.8z M17.9,27.7c1.2-0.6,3.3-1.3,5.2-1.6l0.2,3.9C20.4,29,18.8,28.2,17.9,27.7z
		 M33.7,26c0.8,0,1.5,0.7,1.5,1.5c0,0.8-0.7,1.5-1.5,1.5c-0.8,0-1.5-0.7-1.5-1.5C32.2,26.7,32.9,26,33.7,26z M33.7,33.8
		c-0.8,0-1.5-0.7-1.5-1.5c0-0.8,0.7-1.5,1.5-1.5c0.8,0,1.5,0.7,1.5,1.5C35.2,33.1,34.5,33.8,33.7,33.8z"/>
	<circle class="st0" cx="33.7" cy="14.9" r="6.9"/>
</g>
</svg>
