<?xml version="1.0" encoding="utf-8"?>
<!-- Generator: Adobe Illustrator 23.0.2, SVG Export Plug-In . SVG Version: 6.00 Build 0)  -->
<svg version="1.1" id="Layer_1" xmlns="http://www.w3.org/2000/svg" xmlns:xlink="http://www.w3.org/1999/xlink" x="0px" y="0px"
	 viewBox="0 0 80 80" style="enable-background:new 0 0 80 80;" xml:space="preserve">
<style type="text/css">
	.st0{fill:#FFFFFF;}
</style>
<path class="st0" d="M70.7,37.5L56,25.6v-8.1c0.2-3.4-2.4-6.2-5.8-6.4H13.7c-3.3,0.2-5.9,3.1-5.7,6.4v32c-0.1,2.6,1.5,5,3.8,6
	c-2,4.9,0.3,10.5,5.3,12.5c4.9,2,10.5-0.3,12.5-5.3c0.9-2.2,1-4.6,0.1-6.9h20.3c-1.8,5,0.8,10.5,5.7,12.3c5,1.8,10.5-0.8,12.3-5.7
	c0.8-2.1,0.8-4.4,0-6.5h0.6c1.8,0,3.2-1.4,3.2-3.2V40C72,39,71.5,38.1,70.7,37.5z M65.6,41.5v8.1H56V33.8L65.6,41.5z M24,59.2
	c0,1.8-1.4,3.2-3.2,3.2c-1.8,0-3.2-1.4-3.2-3.2c0-1.8,1.4-3.2,3.2-3.2C22.6,56,24,57.4,24,59.2z M62.4,59.2c0,1.8-1.4,3.2-3.2,3.2
	c-1.8,0-3.2-1.4-3.2-3.2c0-1.8,1.4-3.2,3.2-3.2C61,56,62.4,57.4,62.4,59.2z"/>
</svg>
