<?xml version="1.0" encoding="utf-8"?>
<!-- Generator: Adobe Illustrator 23.0.2, SVG Export Plug-In . SVG Version: 6.00 Build 0)  -->
<svg version="1.1" id="Layer_1" xmlns="http://www.w3.org/2000/svg" xmlns:xlink="http://www.w3.org/1999/xlink" x="0px" y="0px"
	 viewBox="0 0 80 80" style="enable-background:new 0 0 80 80;" xml:space="preserve">
<style type="text/css">
	.st0{fill:#FFFFFF;}
</style>
<g>
	<path class="st0" d="M8,49.4c0,3,2.5,5.5,5.5,5.5h53c3,0,5.5-2.5,5.5-5.5v-3.3H8V49.4z M40,49c0.9,0,1.7,0.7,1.7,1.7
		c0,0.9-0.7,1.7-1.7,1.7s-1.7-0.7-1.7-1.7C38.3,49.8,39.1,49,40,49z M32.3,57.1v4.4h-8.8c-0.6,0-1.1,0.5-1.1,1.1V67
		c0,0.6,0.5,1.1,1.1,1.1h33.1c0.6,0,1.1-0.5,1.1-1.1v-4.4c0-0.6-0.5-1.1-1.1-1.1h-8.8v-4.4H32.3z M66.5,16.3H61v19.9
		c0,1.8-1.5,3.3-3.3,3.3l0,0h-8.3c-2.7,0-5.5,0.7-7.9,1.9h-0.1h-0.1c-0.4,0.2-0.8,0.3-1.2,0.3c-0.5,0-1-0.1-1.5-0.4
		c-2.5-1.2-5.2-1.9-7.9-1.9h-8.3c-1.8,0-3.3-1.5-3.3-3.3l0,0V16.3h-5.5c-3,0-5.5,2.5-5.5,5.5v22.1h64V21.8
		C72,18.7,69.5,16.3,66.5,16.3z"/>
	<path class="st0" d="M57.7,11.9h-8.3c-2.8,0-5.6,0.6-8.2,1.6V39c2.6-1.2,5.4-1.8,8.2-1.8h8.3c0.6,0,1.1-0.5,1.1-1.1V13
		C58.8,12.4,58.3,11.9,57.7,11.9z M44.4,25.1h5.5v2.2h-5.5V25.1z M53.2,31.7h-8.8v-2.2h8.8V31.7z M53.2,22.9h-8.8v-2.2h8.8V22.9z
		 M38.9,13.5v25.6c-2.6-1.2-5.4-1.8-8.2-1.8h-8.3c-0.6,0-1.1-0.5-1.1-1.1V13c0-0.6,0.5-1.1,1.1-1.1h3.3v15.4c0,0.6,0.5,1.1,1.1,1.1
		c0.2,0,0.3,0,0.5-0.1l1.7-0.8l1.7,0.8c0.5,0.3,1.2,0.1,1.5-0.5c0.1-0.2,0.1-0.3,0.1-0.5V11.9C34.6,12.1,36.8,12.6,38.9,13.5z"/>
</g>
</svg>
