<?xml version="1.0" encoding="utf-8"?>
<!-- Generator: Adobe Illustrator 23.0.2, SVG Export Plug-In . SVG Version: 6.00 Build 0)  -->
<svg version="1.1" id="Layer_1" xmlns="http://www.w3.org/2000/svg" xmlns:xlink="http://www.w3.org/1999/xlink" x="0px" y="0px"
	 viewBox="0 0 80 80" style="enable-background:new 0 0 80 80;" xml:space="preserve">
<style type="text/css">
	.st0{fill:#FFFFFF;}
</style>
<path class="st0" d="M50.8,8c-1.5,0.2-3,0.8-4.4,1.5c-3.9,2.2-6.3,6.3-6.5,10.8h-0.3v4.4c-2-4.5-6.5-7.4-11.4-7.5
	c-1.5,0-2.9,0.3-4.3,0.8c0.7,6.4,6.1,11.2,12.4,11.2c1.1,0,2.2-0.2,3.3-0.5v14.3H25.7c-0.3,0-0.6,0.3-0.6,0.6v5
	c0,0.3,0.3,0.6,0.6,0.6h29.8c0.3,0,0.6-0.3,0.6-0.6v-5c0-0.3-0.3-0.6-0.6-0.6H41.7v-4.8c0.7,0.2,1.3,0.2,2,0.3
	c4.3,0,7.9-3.2,8.3-7.4c-0.9-0.3-1.9-0.5-2.9-0.5c-3.1,0-6,1.7-7.4,4.5v-8.8c1.3-0.3,2.6-0.7,3.7-1.4C51.2,21.5,53.5,14.3,50.8,8
	L50.8,8z M27.3,51.3L29.8,72h21.5l2.5-20.7H27.3z"/>
</svg>
