<?xml version="1.0" encoding="utf-8"?>
<!-- Generator: Adobe Illustrator 23.0.2, SVG Export Plug-In . SVG Version: 6.00 Build 0)  -->
<svg version="1.1" id="Layer_1" xmlns="http://www.w3.org/2000/svg" xmlns:xlink="http://www.w3.org/1999/xlink" x="0px" y="0px"
	 viewBox="0 0 80 80" style="enable-background:new 0 0 80 80;" xml:space="preserve">
<style type="text/css">
	.st0{fill:#FFFFFF;}
</style>
<g>
	<path class="st0" d="M40,27.6c2.6,0,5.3-4.6,5.3-8.9c0.3-2.7-1.6-5-4.3-5.3c-0.3,0-0.7,0-1.1,0c-2.7-0.3-5,1.6-5.3,4.3
		c0,0.3,0,0.7,0,1.1C34.7,23,37.4,27.6,40,27.6z"/>
	<path class="st0" d="M56,47.1c0-8.8-7.2-16-16-16s-16,7.2-16,16l0,0v1.8h32V47.1z"/>
	<polygon class="st0" points="8,52.5 8,58.8 15.8,66.7 64.2,66.7 72,58.8 72,52.5 	"/>
</g>
</svg>
