<?xml version="1.0" encoding="utf-8"?>
<!-- Generator: Adobe Illustrator 23.0.2, SVG Export Plug-In . SVG Version: 6.00 Build 0)  -->
<svg version="1.1" id="Layer_1" xmlns="http://www.w3.org/2000/svg" xmlns:xlink="http://www.w3.org/1999/xlink" x="0px" y="0px"
	 viewBox="0 0 80 80" style="enable-background:new 0 0 80 80;" xml:space="preserve">
<style type="text/css">
	.st0{fill:#FFFFFF;}
</style>
<g>
	<path class="st0" d="M40.7,65.5c-2.4,1.5-5.1,2.3-7.9,2.3c-8.1,0-14.7-6.6-14.7-14.7c0-8.1,6.6-14.7,14.7-14.7
		c2.8,0,5.5,0.8,7.8,2.2c0.4-6.2-1.3-9.3,2.6-13.2c-2.3-2.6-4.2-4.4-5.1-5.2H26.5c-0.7,1.7-1.9,6,2.4,8.5c0.7,0.4,0.9,1.2,0.5,1.9
		c-0.4,0.7-1.2,0.9-1.9,0.5c-2.4-1.4-3.7-3.3-4.2-5.2c-0.7,2.5-0.7,5.3,1.7,7.4c0.6,0.5,0.6,1.4,0.1,2c-0.5,0.6-1.4,0.6-2,0.1
		c-2.8-2.5-3.3-5.7-2.8-8.8C14.7,35.6,8,46.4,8,56.9C8,66.8,20.7,72,33.3,72c3.7,0,7.3-0.5,10.6-1.3C42.3,69.3,41.1,67.6,40.7,65.5z
		 M26.3,19.5h11.4l5.6-10c0.2-0.4,0-0.8-0.1-1C43.1,8.4,42.8,8,42.3,8H22c-0.5,0-0.8,0.4-0.9,0.5C21,8.7,20.8,9.1,21,9.6L26.3,19.5z
		 M43.3,33.9c0.8,10.2,28.6,10.1,28.7-0.4c0-4.6-6.2-8-14.3-8c-4.8,0-9.1,1.2-11.7,3.3c0,0,0,0,0,0c-1.5,1.2-2.6,2.8-2.6,4.7
		C43.3,33.6,43.3,33.7,43.3,33.9z"/>
	<path class="st0" d="M43.3,49.8V54c0.2,4.5,6.3,7.8,14.3,7.8c8.1,0,14.3-3.4,14.3-7.9v-4.1c-3,2.9-8.1,4.6-14.3,4.6
		C51.5,54.4,46.3,52.7,43.3,49.8z"/>
	<path class="st0" d="M43.3,60v2.8c0.2,0.5-1.1,4.3,4.4,7.1c2.6,1.4,6.1,2.1,9.9,2.1c8.2,0,14.3-3.4,14.3-8v-4
		c-3,2.9-8.1,4.6-14.3,4.6C51.5,64.6,46.3,62.8,43.3,60z"/>
	<path class="st0" d="M57.7,44.2c-4.9,0-10.6-1.2-14.2-4.5c0,0-0.1-0.1-0.1-0.1c0,0.4,0,4.4,0,4.2c0.2,4.5,6.3,7.8,14.3,7.8
		c8.1,0,14.3-3.4,14.3-7.9v-4.2C68.5,43,62.6,44.2,57.7,44.2z"/>
	<path class="st0" d="M40.6,44.1c-2.2-1.9-4.9-2.9-7.8-2.9c-6.6,0-11.9,5.3-11.9,11.9c0,6.6,5.3,11.9,11.9,11.9c2.9,0,5.6-1,7.8-2.9
		v-8.1c0-0.1,0-0.2,0-0.2c0,0,0-0.1,0-0.1V44.1z"/>
</g>
</svg>
