<?xml version="1.0" encoding="utf-8"?>
<!-- Generator: Adobe Illustrator 23.0.2, SVG Export Plug-In . SVG Version: 6.00 Build 0)  -->
<svg version="1.1" id="Layer_1" xmlns="http://www.w3.org/2000/svg" xmlns:xlink="http://www.w3.org/1999/xlink" x="0px" y="0px"
	 viewBox="0 0 80 80" style="enable-background:new 0 0 80 80;" xml:space="preserve">
<style type="text/css">
	.st0{fill:#FFFFFF;}
</style>
<g>
	<path class="st0" d="M68.5,48.8L40,31.3L11.5,48.8c-1.1,0.7-2.5,0.3-3.1-0.7C7.7,47,8,45.6,9.1,44.9l29.7-18.3
		c0.7-0.5,1.7-0.5,2.4,0l29.7,18.3c1.1,0.7,1.4,2.1,0.7,3.1C71,49.1,69.6,49.5,68.5,48.8z"/>
	<path class="st0" d="M45.7,53.7H34.3c-0.6,0-1.1,0.5-1.1,1.1V72h-16V49.3L40,35.3l22.9,14.1V72h-16V54.9
		C46.9,54.2,46.3,53.7,45.7,53.7z M67.4,8v14.2c0,0.6-0.8,1-1.2,0.5L61.4,18l-8,8c-0.9,0.9-2.4,1.1-3.5,0.4l-9.9-6L8,40.2v-6.7
		l30.5-18.8c0.9-0.6,2.1-0.6,3,0l9.5,5.7l6.4-6.4l-4.7-4.7C52.2,8.8,52.5,8,53.2,8H67.4z"/>
</g>
</svg>
