<?xml version="1.0" encoding="utf-8"?>
<!-- Generator: Adobe Illustrator 23.0.2, SVG Export Plug-In . SVG Version: 6.00 Build 0)  -->
<svg version="1.1" id="Layer_1" xmlns="http://www.w3.org/2000/svg" xmlns:xlink="http://www.w3.org/1999/xlink" x="0px" y="0px"
	 viewBox="0 0 80 80" style="enable-background:new 0 0 80 80;" xml:space="preserve">
<style type="text/css">
	.st0{fill:#FFFFFF;}
</style>
<path class="st0" d="M61.3,17.6H18.7C12.8,17.6,8,22.4,8,28.3v23c-0.1,4.5,2.7,8.6,6.8,10.4c4,1.6,8.5,0.6,11.4-2.6l9-9.5h9.5l9,9.5
	c2.9,3.1,7.4,4.2,11.4,2.6c4.2-1.7,6.9-5.8,6.8-10.4v-23C72,22.4,67.2,17.6,61.3,17.6z M31.5,36.8h-4.3v4.3c0,1.2-1,2.1-2.1,2.1
	c-1.2,0-2.1-1-2.1-2.1v-4.3h-4.3c-1.2,0-2.1-1-2.1-2.1c0-1.2,1-2.1,2.1-2.1h4.3v-4.3c0-1.2,1-2.1,2.1-2.1c1.2,0,2.1,1,2.1,2.1v4.3
	h4.3c1.2,0,2.1,1,2.1,2.1C33.6,35.8,32.6,36.8,31.5,36.8z M54.9,43.2c-4.7,0-8.5-3.8-8.5-8.5c0-4.7,3.8-8.5,8.5-8.5s8.5,3.8,8.5,8.5
	C63.5,39.4,59.6,43.2,54.9,43.2z M59.2,34.7c0,2.4-1.9,4.3-4.3,4.3c-2.4,0-4.3-1.9-4.3-4.3s1.9-4.3,4.3-4.3
	C57.3,30.4,59.2,32.3,59.2,34.7z"/>
</svg>
