<?xml version="1.0" encoding="utf-8"?>
<!-- Generator: Adobe Illustrator 23.0.2, SVG Export Plug-In . SVG Version: 6.00 Build 0)  -->
<svg version="1.1" id="Layer_1" xmlns="http://www.w3.org/2000/svg" xmlns:xlink="http://www.w3.org/1999/xlink" x="0px" y="0px"
	 viewBox="0 0 80 80" style="enable-background:new 0 0 80 80;" xml:space="preserve">
<style type="text/css">
	.st0{fill:#FFFFFF;}
</style>
<path class="st0" d="M39.4,8c-3.1,0-5.5,2.5-5.5,5.5c0,0.1,0,0.2,0,0.2l-13.3,7.7c-1-1.5-2.7-2.4-4.5-2.4c-3.1,0-5.5,2.5-5.5,5.5
	c0,0,0,0,0,0c0,2.7,1.9,4.9,4.5,5.4v16.2c-2.6,0.5-4.5,2.8-4.5,5.4c0,3.1,2.5,5.5,5.5,5.5c0,0,0,0,0,0c1.2,0,2.4-0.4,3.4-1.1l13.8,8
	c-0.4,0.7-0.5,1.6-0.5,2.4c0,3.1,2.5,5.5,5.5,5.5c3.1,0,5.5-2.5,5.5-5.5c0,0,0,0,0,0c0-0.2,0-0.4,0-0.6l17-9.8
	c1,0.8,2.2,1.2,3.4,1.2c3.1,0,5.5-2.5,5.5-5.5c0,0,0,0,0,0c0-2.7-1.9-5-4.6-5.4V30.1c2.6-0.5,4.6-2.8,4.6-5.5c0-3.1-2.5-5.5-5.5-5.5
	c0,0,0,0,0,0c-1.8,0-3.5,0.9-4.6,2.4l-14.5-8.4C44.7,10.2,42.3,8,39.4,8z M44.6,15.3l14,8.1c-0.1,0.4-0.2,0.9-0.2,1.3
	c0,2.7,1.9,4.9,4.5,5.4v16.2c-2.6,0.5-4.5,2.8-4.5,5.4c0,1,0.3,2,0.8,2.9l-16.2,9.4c-1-1.8-2.8-3-4.9-3c-1.4,0-2.8,0.5-3.8,1.5
	l-13.6-7.9c0.5-0.9,0.8-1.9,0.8-2.9c0-2.7-1.9-5-4.6-5.4V30.1c2.6-0.5,4.6-2.8,4.6-5.5c0-0.4-0.1-0.9-0.2-1.3l13-7.5
	c0.9,2,2.9,3.3,5,3.3C41.8,19.1,43.9,17.5,44.6,15.3z M33.1,22.8c-0.1,0-0.2,0-0.3,0c-0.3,0.1-0.5,0.4-0.5,0.7v4.7
	c0,0.9,0.5,1.7,1.2,2.2v0.9v2.7c0.1,2.1,1,3.6,2.1,4.5c-0.1,1.1-0.6,1.7-1.3,2.2c-0.9,0.7-2.2,1.2-3.6,1.8s-2.8,1.3-4,2.5
	c-1.1,1.2-1.8,3-1.8,5.5V51l0.4,0.2c9.5,5.5,18.2,6.1,28.8,0l0.4-0.2v-0.5c0-2.5-0.7-4.2-1.8-5.4c-1.1-1.2-2.6-1.8-3.9-2.4
	c-1.4-0.6-2.7-1.1-3.5-1.8c-0.9-0.7-1.4-1.4-1.4-2.9c1.2-1,2-2.4,2.1-4.1v-2.7v-1.1v-2.2c0-2.1-1.6-3.9-3.7-3.9h-1.8h-5.6
	c-0.4,0-0.8-0.1-0.9-0.2c-0.2-0.1-0.2-0.1-0.2-0.4C33.6,23.1,33.3,22.9,33.1,22.8z M39.6,40.7c1,0,1.8,0.8,1.8,1.8
	c0,0.5-0.2,1-0.5,1.3c0,0-0.4,0.2-0.3,0.9l1.5,8.2l-2.5,1.2l-2.4-1.2l1.5-8.1c0.2-0.6-0.2-0.9-0.3-0.9c-0.4-0.3-0.6-0.8-0.6-1.3
	C37.8,41.5,38.6,40.7,39.6,40.7z"/>
</svg>
