<?xml version="1.0" encoding="utf-8"?>
<!-- Generator: Adobe Illustrator 23.0.2, SVG Export Plug-In . SVG Version: 6.00 Build 0)  -->
<svg version="1.1" id="Layer_1" xmlns="http://www.w3.org/2000/svg" xmlns:xlink="http://www.w3.org/1999/xlink" x="0px" y="0px"
	 viewBox="0 0 80 80" style="enable-background:new 0 0 80 80;" xml:space="preserve">
<style type="text/css">
	.st0{fill:none;}
	.st1{fill:#FFFFFF;}
</style>
<rect x="-88" y="-88" class="st0" width="256" height="256"/>
<path class="st1" d="M52.6,60.8c0,1.2-1,2.2-2.2,2.2H11.7c-1.2,0-2.2-1-2.2-2.2s1-2.2,2.2-2.2h38.8C51.6,58.7,52.6,59.6,52.6,60.8z
	 M71.8,26.7l-5-6.1c-3-3.7-8.3-4.7-12.4-2.2l-11.5,6.8l-15.7-5.2c-0.3-0.1-0.5-0.1-0.8,0l-4.4,1.9c-1.6,0.7-2.4,2.6-1.7,4.2
	c0.2,0.4,0.5,0.8,0.8,1.1l7.2,6.4L22.4,37l-7-3c-0.3-0.1-0.6-0.1-0.8,0L10,35.9c-1.6,0.7-2.4,2.6-1.7,4.2c0.2,0.4,0.4,0.8,0.8,1.1h0
	l10.2,9.5c3.1,2.9,7.8,3.5,11.5,1.3l40.8-23.7c0.5-0.3,0.7-1,0.4-1.5C71.8,26.8,71.8,26.8,71.8,26.7L71.8,26.7z"/>
</svg>
