<?xml version="1.0" encoding="utf-8"?>
<!-- Generator: Adobe Illustrator 23.0.2, SVG Export Plug-In . SVG Version: 6.00 Build 0)  -->
<svg version="1.1" id="Layer_1" xmlns="http://www.w3.org/2000/svg" xmlns:xlink="http://www.w3.org/1999/xlink" x="0px" y="0px"
	 viewBox="0 0 80 80" style="enable-background:new 0 0 80 80;" xml:space="preserve">
<style type="text/css">
	.st0{fill:none;}
	.st1{fill:#FFFFFF;}
</style>
<rect x="-88" y="-88" class="st0" width="256" height="256"/>
<path class="st1" d="M54.2,11.6c-5.6,0-10.9,2.6-14.2,7.1c-5.9-7.9-17-9.4-24.9-3.5C10.6,18.5,8,23.7,8,29.3c0,2.8,0.5,5.6,1.5,8.3
	h12.7l4-6.1c0.7-1.1,2.2-1.4,3.3-0.7c0.3,0.2,0.5,0.4,0.7,0.7l7.5,11.3l2.8-4.2c0.4-0.7,1.2-1.1,2-1.1h7.1c1.3,0,2.4,1.1,2.4,2.4
	s-1.1,2.4-2.4,2.4h-5.8l-4,6.1c-0.7,1.1-2.2,1.4-3.3,0.7c-0.3-0.2-0.5-0.4-0.7-0.7l-7.5-11.3l-2.8,4.2c-0.4,0.7-1.2,1.1-2,1.1H11.6
	c7.9,14.8,26.3,25.2,27.3,25.8c0.7,0.4,1.6,0.4,2.3,0C46.6,65,51.7,61.2,56.4,57C66.8,47.7,72,38.4,72,29.3
	C72,19.5,64,11.6,54.2,11.6z"/>
</svg>
