<?xml version="1.0" encoding="utf-8"?>
<!-- Generator: Adobe Illustrator 23.0.2, SVG Export Plug-In . SVG Version: 6.00 Build 0)  -->
<svg version="1.1" id="Layer_1" xmlns="http://www.w3.org/2000/svg" xmlns:xlink="http://www.w3.org/1999/xlink" x="0px" y="0px"
	 viewBox="0 0 80 80" style="enable-background:new 0 0 80 80;" xml:space="preserve">
<style type="text/css">
	.st0{fill:#FFFFFF;}
</style>
<g>
	<path class="st0" d="M61.2,20.5c0-0.3-0.3-0.5-0.6-0.5c-0.2,0-5.2-0.4-5.2-0.4s-3.4-3.4-3.8-3.8c-0.4-0.4-1.1-0.3-1.4-0.2
		c0,0-0.7,0.2-1.9,0.6c-1.1-3.3-3.2-6.3-6.7-6.3c-0.1,0-0.2,0-0.3,0C40.3,8.6,39.1,8,38,8c-8.3,0-12.2,10.3-13.4,15.6
		c-3.2,1-5.5,1.7-5.8,1.8C17,25.9,17,26,16.7,27.7c-0.2,1.3-4.9,37.5-4.9,37.5L48.4,72l19.8-4.3C68.1,67.7,61.2,20.8,61.2,20.5z
		 M41,18.1c0,0.1,0,0.2,0,0.4c-2,0.6-4.2,1.3-6.4,2c1.3-4.8,3.6-7.1,5.6-8C40.7,13.8,41,15.6,41,18.1z M37.8,10.2
		c0.4,0,0.7,0.1,1.1,0.4c-2.6,1.2-5.5,4.4-6.7,10.6c-1.8,0.5-3.5,1.1-5,1.6C28.5,18,31.9,10.2,37.8,10.2z M39.2,38.2
		c0,0-2.1-1.1-4.8-1.1c-3.8,0-4,2.4-4,3c0,3.3,8.6,4.6,8.6,12.3c0,6.1-3.9,10-9.1,10c-6.3,0-9.5-3.9-9.5-3.9l1.7-5.5
		c0,0,3.3,2.8,6.1,2.8c1.8,0,2.6-1.4,2.6-2.5c0-4.3-7.1-4.5-7.1-11.6c0-6,4.3-11.8,12.9-11.8c3.4,0,5,1,5,1L39.2,38.2z M43.2,17.8
		c0-0.2,0-0.4,0-0.7c0-2-0.3-3.7-0.7-5c1.8,0.3,3,2.3,3.8,4.7C45.4,17.1,44.3,17.4,43.2,17.8z"/>
</g>
</svg>
