<?xml version="1.0" encoding="utf-8"?>
<!-- Generator: Adobe Illustrator 23.0.2, SVG Export Plug-In . SVG Version: 6.00 Build 0)  -->
<svg version="1.1" id="Layer_1" xmlns="http://www.w3.org/2000/svg" xmlns:xlink="http://www.w3.org/1999/xlink" x="0px" y="0px"
	 viewBox="0 0 80 80" style="enable-background:new 0 0 80 80;" xml:space="preserve">
<style type="text/css">
	.st0{fill:#FFFFFF;}
</style>
<path class="st0" d="M71.1,22.5c0,0.1,0,0.2,0,0.3v13.7c0,0.4-0.2,0.7-0.5,0.9L59.1,44v13.2c0,0.4-0.2,0.7-0.5,0.9L34.5,71.9
	c-0.1,0-0.1,0.1-0.2,0.1c0,0,0,0-0.1,0c-0.2,0-0.3,0-0.5,0c0,0,0,0-0.1,0c-0.1,0-0.1,0-0.2-0.1L9.4,58c-0.3-0.2-0.5-0.5-0.5-0.9
	V15.9c0-0.1,0-0.2,0-0.3c0,0,0-0.1,0-0.1c0-0.1,0-0.1,0.1-0.2c0,0,0.1-0.1,0.1-0.1c0,0,0.1-0.1,0.1-0.1c0,0,0.1-0.1,0.1-0.1
	c0,0,0.1-0.1,0.1-0.1l0,0l12-6.9c0.3-0.2,0.7-0.2,1,0l12,6.9l0,0c0,0,0.1,0.1,0.1,0.1c0,0,0.1,0.1,0.1,0.1c0,0,0.1,0.1,0.1,0.1
	c0,0,0,0.1,0.1,0.1c0,0.1,0,0.1,0.1,0.2c0,0,0,0.1,0,0.1c0,0.1,0,0.2,0,0.3v25.7l10-5.8V22.7c0-0.1,0-0.2,0-0.3c0,0,0-0.1,0-0.1
	c0,0,0-0.1,0.1-0.2c0,0,0-0.1,0.1-0.1c0,0,0.1-0.1,0.1-0.1c0,0,0.1,0,0.1-0.1c0,0,0.1-0.1,0.1-0.1l0,0l12-6.9c0.3-0.2,0.7-0.2,1,0
	l12,6.9c0,0,0.1,0.1,0.1,0.1s0.1,0,0.1,0.1c0,0,0.1,0.1,0.1,0.1c0,0,0.1,0.1,0.1,0.1C71,22.3,71,22.3,71.1,22.5
	C71,22.4,71,22.5,71.1,22.5L71.1,22.5z M69.1,35.9V24.5l-4.2,2.4l-5.8,3.4v11.4L69.1,35.9L69.1,35.9z M57,56.6V45.1l-5.7,3.3
	L35,57.7v11.5L57,56.6z M10.9,17.7v38.9L33,69.3V57.7l-11.5-6.5l0,0h0c0,0-0.1-0.1-0.1-0.1c0,0-0.1,0-0.1-0.1l0,0
	c0,0-0.1-0.1-0.1-0.1c0,0-0.1-0.1-0.1-0.1l0,0c0,0,0-0.1,0-0.1c0,0,0-0.1,0-0.1l0,0c0,0,0-0.1,0-0.2c0,0,0-0.1,0-0.1V23.4l-5.8-3.4
	L10.9,17.7L10.9,17.7z M22,10.2l-10,5.8l10,5.8l10-5.8L22,10.2L22,10.2z M27.2,46.2l5.8-3.3V17.7l-4.2,2.4L23,23.4v25.2L27.2,46.2z
	 M58,17l-10,5.8l10,5.8l10-5.8L58,17z M57,30.3l-5.8-3.4L47,24.5v11.4l5.8,3.3l4.2,2.4V30.3z M34,56l14.7-8.4l7.3-4.2l-10-5.8
	l-11.5,6.6l-10.5,6L34,56z"/>
</svg>
