<svg id="Layer_1" data-name="Layer 1" xmlns="http://www.w3.org/2000/svg" viewBox="0 0 80 80"><defs><style>.cls-1,.cls-2{fill:#fff;}.cls-2{fill-rule:evenodd;}</style></defs><title>nodejs</title><path class="cls-1" d="M39.63,59.6a1.25,1.25,0,0,1-.6-.16L37.1,58.29c-.29-.16-.15-.21-.06-.25a3.71,3.71,0,0,0,.88-.39.12.12,0,0,1,.14,0l1.48.88a.19.19,0,0,0,.18,0L45.5,55.2a.17.17,0,0,0,.09-.16V48.37a.16.16,0,0,0-.09-.15l-5.78-3.34a.19.19,0,0,0-.18,0l-5.77,3.34a.16.16,0,0,0-.09.15V55a.17.17,0,0,0,.09.16l1.58.91c.86.43,1.39-.07,1.39-.58V48.94a.16.16,0,0,1,.16-.16h.74a.17.17,0,0,1,.17.16v6.59a1.6,1.6,0,0,1-1.72,1.8A2.5,2.5,0,0,1,34.76,57l-1.51-.87A1.22,1.22,0,0,1,32.64,55V48.37a1.21,1.21,0,0,1,.61-1L39,44a1.24,1.24,0,0,1,1.21,0L46,47.32a1.24,1.24,0,0,1,.61,1V55A1.24,1.24,0,0,1,46,56.1l-5.78,3.34A1.26,1.26,0,0,1,39.63,59.6Z"/><path class="cls-1" d="M41.42,55c-2.53,0-3.06-1.16-3.06-2.13a.17.17,0,0,1,.17-.17h.74a.16.16,0,0,1,.17.14c.11.76.45,1.15,2,1.15,1.22,0,1.73-.28,1.73-.92,0-.38-.14-.65-2-.84-1.58-.15-2.55-.5-2.55-1.77s1-1.86,2.63-1.86c1.85,0,2.76.64,2.88,2a.2.2,0,0,1,0,.13.21.21,0,0,1-.13,0h-.75a.17.17,0,0,1-.16-.13c-.18-.8-.62-1.05-1.8-1.05s-1.49.46-1.49.81.18.54,2,.78,2.62.56,2.62,1.81S43.25,55,41.42,55Z"/><path class="cls-1" d="M49.75,48a1.12,1.12,0,1,1-1.11-1.12A1.11,1.11,0,0,1,49.75,48Zm-2,0a.94.94,0,1,0,.94-.93A.94.94,0,0,0,47.7,48Zm.52-.62h.43c.15,0,.44,0,.44.33a.29.29,0,0,1-.24.31c.17,0,.18.12.21.28a1.39,1.39,0,0,0,.06.33h-.26c0-.06,0-.37,0-.39s0-.11-.13-.11h-.22v.5h-.24Zm.24.55h.19a.17.17,0,0,0,.19-.18c0-.17-.12-.17-.18-.17h-.2Z"/><path class="cls-2" d="M21.73,33.5a.74.74,0,0,0-.37-.64l-6.12-3.53a.69.69,0,0,0-.34-.09h-.06a.67.67,0,0,0-.34.09L8.37,32.86A.74.74,0,0,0,8,33.5V43a.37.37,0,0,0,.19.32.35.35,0,0,0,.37,0l3.64-2.09a.74.74,0,0,0,.37-.64V36.15a.74.74,0,0,1,.37-.64l1.55-.89a.69.69,0,0,1,.37-.1.71.71,0,0,1,.37.1l1.55.89a.74.74,0,0,1,.37.64v4.44a.74.74,0,0,0,.37.64l3.64,2.09a.35.35,0,0,0,.37,0,.38.38,0,0,0,.18-.32Z"/><path class="cls-2" d="M51.22,20.45a.38.38,0,0,0-.37,0,.38.38,0,0,0-.18.32v9.41a.26.26,0,0,1-.13.22.24.24,0,0,1-.26,0l-1.53-.88a.7.7,0,0,0-.74,0l-6.13,3.53a.75.75,0,0,0-.37.64v7.08a.73.73,0,0,0,.37.64L48,45a.7.7,0,0,0,.74,0l6.13-3.54a.73.73,0,0,0,.37-.64V23.13a.75.75,0,0,0-.38-.65Zm-.57,18a.19.19,0,0,1-.09.16l-2.11,1.21a.19.19,0,0,1-.18,0l-2.11-1.21a.22.22,0,0,1-.09-.16V36a.19.19,0,0,1,.09-.16l2.11-1.22a.19.19,0,0,1,.18,0l2.11,1.22a.17.17,0,0,1,.09.16Z"/><path class="cls-2" d="M71.63,36a.73.73,0,0,0,.37-.64V33.6a.73.73,0,0,0-.37-.64l-6.09-3.54a.75.75,0,0,0-.74,0L58.67,33a.73.73,0,0,0-.37.64v7.07a.74.74,0,0,0,.37.65l6.09,3.47a.73.73,0,0,0,.73,0l3.68-2a.35.35,0,0,0,.19-.32.36.36,0,0,0-.18-.32L63,38.56a.38.38,0,0,1-.18-.32V36A.38.38,0,0,1,63,35.7l1.92-1.11a.4.4,0,0,1,.37,0l1.92,1.11a.39.39,0,0,1,.19.32v1.75a.38.38,0,0,0,.18.32.4.4,0,0,0,.37,0Z"/><path class="cls-2" d="M65.08,35.62a.17.17,0,0,1,.14,0l1.18.68a.15.15,0,0,1,.07.12v1.36a.14.14,0,0,1-.07.12l-1.18.68a.12.12,0,0,1-.14,0L63.9,37.9a.14.14,0,0,1-.07-.12V36.42a.15.15,0,0,1,.07-.12Z"/><path class="cls-2" d="M32,29.46a.75.75,0,0,0-.74,0L25.16,33a.75.75,0,0,0-.37.64v7a.73.73,0,0,0,.37.64l6.09,3.52a.75.75,0,0,0,.74,0l6.09-3.52a.73.73,0,0,0,.37-.64v-7a.75.75,0,0,0-.37-.64Z"/></svg>