<?xml version="1.0" encoding="utf-8"?>
<!-- Generator: Adobe Illustrator 23.0.2, SVG Export Plug-In . SVG Version: 6.00 Build 0)  -->
<svg version="1.1" id="svg2" xmlns="http://www.w3.org/2000/svg" xmlns:xlink="http://www.w3.org/1999/xlink" x="0px" y="0px"
	 viewBox="0 0 80 80" style="enable-background:new 0 0 80 80;" xml:space="preserve">
<style type="text/css">
	.st0{fill:#FFFFFF;}
</style>
<g>
	<path class="st0" d="M12.5,40c0,10.9,6.3,20.3,15.5,24.7L14.9,28.8C13.4,32.2,12.5,36,12.5,40z"/>
	<path class="st0" d="M58.5,38.6c0-3.4-1.2-5.7-2.3-7.6c-1.4-2.3-2.7-4.2-2.7-6.4c0-2.5,1.9-4.9,4.6-4.9c0.1,0,0.2,0,0.4,0
		c-4.9-4.5-11.4-7.2-18.5-7.2c-9.6,0-18,4.9-22.9,12.4c0.6,0,1.3,0,1.8,0c2.9,0,7.3-0.3,7.3-0.3c1.5-0.1,1.7,2.1,0.2,2.3
		c0,0-1.5,0.2-3.1,0.3l10,29.7l6-18l-4.3-11.7C33.4,27,32,26.9,32,26.9c-1.5-0.1-1.3-2.3,0.2-2.3c0,0,4.5,0.3,7.2,0.3
		c2.9,0,7.3-0.3,7.3-0.3c1.5-0.1,1.7,2.1,0.2,2.3c0,0-1.5,0.2-3.1,0.3l9.9,29.5l2.7-9.1C57.6,43.7,58.5,41,58.5,38.6z"/>
	<path class="st0" d="M40.5,42.4l-8.2,23.9c2.5,0.7,5.1,1.1,7.8,1.1c3.2,0,6.3-0.6,9.1-1.6c-0.1-0.1-0.1-0.2-0.2-0.4L40.5,42.4z"/>
	<path class="st0" d="M64.1,26.8c0.1,0.9,0.2,1.8,0.2,2.8c0,2.8-0.5,5.9-2.1,9.8l-8.4,24.2C62,59,67.4,50.1,67.4,40
		C67.4,35.2,66.2,30.7,64.1,26.8z"/>
	<path class="st0" d="M40,8C22.4,8,8,22.4,8,40c0,17.6,14.4,32,32,32c17.6,0,32-14.4,32-32C72,22.4,57.6,8,40,8z M40,70.5
		C23.2,70.5,9.5,56.8,9.5,40C9.5,23.2,23.2,9.5,40,9.5c16.8,0,30.5,13.7,30.5,30.5C70.5,56.8,56.8,70.5,40,70.5z"/>
</g>
</svg>
