<?xml version="1.0" encoding="utf-8"?>
<!-- Generator: Adobe Illustrator 23.0.2, SVG Export Plug-In . SVG Version: 6.00 Build 0)  -->
<svg version="1.1" id="Layer_1" xmlns="http://www.w3.org/2000/svg" xmlns:xlink="http://www.w3.org/1999/xlink" x="0px" y="0px"
	 viewBox="0 0 80 80" style="enable-background:new 0 0 80 80;" xml:space="preserve">
<style type="text/css">
	.st0{fill:#FFFFFF;}
</style>
<path class="st0" d="M30.5,72c-3.8-1.7-7.4-5.9-7.4-10.2c0-4.7,3-8.7,6.7-11.3c-0.4,1.7-0.7,3.2,0.4,4.7c1,1.4,2.8,2.1,4.5,1.7
	c4-0.9,4.2-5.2,1.8-7.8c-2.3-2.5-4.6-5.4-3.7-9c0.4-1.8,1.6-3.5,3-4.8c-1.1,2.9,2,5.7,4.1,7.1c3.6,2.5,7.4,4.3,10.7,7.2
	c3.4,3,6,7.1,5.5,11.8c-0.6,5.1-4.6,8.7-9.2,10.5c9.7-2.1,19.6-9.6,19.8-20.3c0.2-8.8-5.9-15.6-13.4-19.5L52.9,32
	c0.2,0.5,0.3,0.9,0.3,1.3c0.1-0.3,0.1-0.6,0.1-0.9c0,0.4-0.1,0.7-0.1,1l0-0.2c-0.1,0.5-0.3,0.9-0.6,1.3l0.1-0.1
	c-1.5,2.5-5.5,3-7.5,0.4c-3.2-4.1,0.1-8.6,0.5-12.9c0.6-5.5-2.9-10.8-7.1-14c2.3,3.8-0.7,8.8-3.2,11.6c-2.4,2.7-5.3,5-8,7.5
	c-2.8,2.7-5.6,5.4-7.9,8.6C14.8,41.9,12,49.7,14,57.5C16.1,65.3,22.9,70.2,30.5,72L30.5,72z"/>
</svg>
