<?xml version="1.0" encoding="utf-8"?>
<!-- Generator: Adobe Illustrator 23.0.2, SVG Export Plug-In . SVG Version: 6.00 Build 0)  -->
<svg version="1.1"
	 id="svg3430" xmlns:cc="http://creativecommons.org/ns#" xmlns:dc="http://purl.org/dc/elements/1.1/" xmlns:rdf="http://www.w3.org/1999/02/22-rdf-syntax-ns#" xmlns:svg="http://www.w3.org/2000/svg"
	 xmlns="http://www.w3.org/2000/svg" xmlns:xlink="http://www.w3.org/1999/xlink" x="0px" y="0px" viewBox="0 0 80 80"
	 style="enable-background:new 0 0 80 80;" xml:space="preserve">
<style type="text/css">
	.st0{fill:#FFFFFF;}
</style>
<g>
	<path class="st0" d="M40,57.1C22.4,57.1,8,49.4,8,40c0-9.4,14.4-17.1,32-17.1S72,30.6,72,40C72,49.4,57.6,57.1,40,57.1z M40,23.9
		C22.9,23.9,9,31.1,9,40s13.9,16.1,31,16.1S71,48.9,71,40S57.1,23.9,40,23.9z"/>
	<g>
		<path id="path3486" class="st0" d="M25.6,41.9c1.4,0,2.4-0.3,3-0.8c0.6-0.5,1.1-1.3,1.3-2.5c0.2-1.1,0.1-1.9-0.2-2.3
			c-0.4-0.4-1.2-0.7-2.5-0.7h-2.2l-1.2,6.3L25.6,41.9L25.6,41.9z M18.4,49.6c-0.1,0-0.2-0.1-0.3-0.1c-0.1-0.1-0.1-0.2-0.1-0.3
			l3.2-16.6c0-0.2,0.2-0.3,0.3-0.3h7c2.2,0,3.8,0.6,4.8,1.8c1,1.2,1.3,2.8,0.9,4.9c-0.2,0.8-0.4,1.6-0.8,2.3
			c-0.4,0.7-0.9,1.3-1.5,1.9c-0.8,0.7-1.6,1.2-2.5,1.5c-0.9,0.3-2.1,0.4-3.5,0.4h-2.8l-0.8,4.1c0,0.2-0.2,0.3-0.3,0.3L18.4,49.6
			L18.4,49.6z"/>
		<path id="path3494" class="st0" d="M42.7,45.2c-0.1,0-0.2-0.1-0.3-0.1c-0.1-0.1-0.1-0.2-0.1-0.3l1.4-7.3c0.1-0.7,0.1-1.2-0.1-1.4
			c-0.1-0.1-0.5-0.3-1.6-0.3h-2.6l-1.8,9.2c0,0.2-0.2,0.3-0.3,0.3h-3.6c-0.1,0-0.2-0.1-0.3-0.1c-0.1-0.1-0.1-0.2-0.1-0.3l3.2-16.6
			c0-0.2,0.2-0.3,0.3-0.3h3.6c0.1,0,0.2,0.1,0.3,0.1c0.1,0.1,0.1,0.2,0.1,0.3l-0.8,4H43c2.1,0,3.6,0.4,4.4,1.1
			c0.9,0.8,1.1,2,0.8,3.7l-1.5,7.7c0,0.2-0.2,0.3-0.3,0.3L42.7,45.2L42.7,45.2z"/>
		<path id="path3502" class="st0" d="M53.8,41.9c1.4,0,2.4-0.3,3-0.8c0.6-0.5,1.1-1.3,1.3-2.5c0.2-1.1,0.1-1.9-0.2-2.3
			c-0.4-0.4-1.2-0.7-2.5-0.7h-2.2l-1.2,6.3L53.8,41.9L53.8,41.9z M46.7,49.6c-0.1,0-0.2-0.1-0.3-0.1c-0.1-0.1-0.1-0.2-0.1-0.3
			l3.2-16.6c0-0.2,0.2-0.3,0.3-0.3h7c2.2,0,3.8,0.6,4.8,1.8c1,1.2,1.3,2.8,0.9,4.9c-0.2,0.8-0.4,1.6-0.8,2.3
			c-0.4,0.7-0.9,1.3-1.5,1.9c-0.8,0.7-1.6,1.2-2.5,1.5c-0.9,0.3-2.1,0.4-3.5,0.4h-2.8l-0.8,4.1c0,0.2-0.2,0.3-0.3,0.3L46.7,49.6
			L46.7,49.6z"/>
	</g>
</g>
</svg>
