<?xml version="1.0" encoding="utf-8"?>
<!-- Generator: Adobe Illustrator 23.0.2, SVG Export Plug-In . SVG Version: 6.00 Build 0)  -->
<svg version="1.1" id="Layer_1" xmlns="http://www.w3.org/2000/svg" xmlns:xlink="http://www.w3.org/1999/xlink" x="0px" y="0px"
	 viewBox="0 0 80 80" style="enable-background:new 0 0 80 80;" xml:space="preserve">
<style type="text/css">
	.st0{fill:#FFFFFF;}
</style>
<path class="st0" d="M57.4,41.8c0-5.3,2.9-9.9,7.2-12.3c-2.2-2.7-5.6-5.2-9.3-5.9c-5-1-7.9,0.7-9.8,1.3s-4.3,1.2-4.3,1.2
	s-2.5-0.6-4.3-1.2c-1.9-0.7-4.7-2.3-9.8-1.3s-9.5,5.2-11.3,9c-3.5,7.2-2,16.4,0.4,22.9c2.4,6.6,8.9,15.7,13.9,16.5
	c3.6,0.5,5.8-1.9,11.1-2.6c5.3,0.6,7.5,3.1,11.1,2.6c5-0.7,11.5-9.9,13.9-16.5c0.1-0.2,0.1-0.3,0.2-0.5
	C61.1,52.9,57.4,47.8,57.4,41.8z M39.9,22.4c0,0,4.9,0.7,9.4-4.4S52.5,8,52.5,8s-4.9-0.7-9.4,4.4S39.9,22.4,39.9,22.4z"/>
</svg>
