<?xml version="1.0" encoding="utf-8"?>
<!-- Generator: Adobe Illustrator 23.0.2, SVG Export Plug-In . SVG Version: 6.00 Build 0)  -->
<svg version="1.1" id="Layer_1" xmlns="http://www.w3.org/2000/svg" xmlns:xlink="http://www.w3.org/1999/xlink" x="0px" y="0px"
	 viewBox="0 0 80 80" style="enable-background:new 0 0 80 80;" xml:space="preserve">
<style type="text/css">
	.st0{fill:#FFFFFF;}
</style>
<g>
	<path class="st0" d="M72,15.6c-0.2,0.5-0.6,1-1,1.4c-0.9,0.9-1.8,1.8-2.6,2.7c-0.2,0.2-0.4,0.2-0.6,0c-2.4-2.5-4.9-4.9-7.4-7.4
		c-0.2-0.2-0.2-0.4,0-0.6c1-1,2.1-2,3.1-3.1c0.3-0.3,0.6-0.4,0.9-0.6c0.3,0,0.6,0,0.9,0c0.5,0.1,0.9,0.4,1.3,0.7
		c1.6,1.6,3.2,3.2,4.8,4.8c0.4,0.4,0.6,0.7,0.7,1.3C72,15,72,15.3,72,15.6z"/>
	<path class="st0" d="M8.1,70.6c0.3,0.6,0.8,1.1,1.4,1.4c-0.5,0-1.1,0.2-1.3-0.1C7.9,71.7,8.1,71,8.1,70.6z"/>
	<path class="st0" d="M57.5,14.6c2.5,2.5,5.1,5.1,7.6,7.6c0.4,0.4,0.1,0.5-0.1,0.7c-4.3,4.3-8.5,8.5-12.8,12.8
		c-2.3,2.3-4.6,4.6-6.9,6.9c-0.5-0.5-0.9-1-1.4-1.5c-2-2-4.1-4.1-6.1-6.1c-0.2-0.2-0.4-0.3-0.1-0.6c6.6-6.5,13.1-13.1,19.6-19.6
		C57.3,14.7,57.4,14.7,57.5,14.6z"/>
	<path class="st0" d="M32.7,49.2c-1.4,0-2.2-1.3-1.7-2.7c0.8-2.1,1.7-4.2,2.5-6.3c0.3-0.8,0.6-1.5,0.9-2.3c0.3-0.7,0.3-0.7,0.8-0.2
		c2.4,2.4,4.7,4.7,7.1,7c0.4,0.4,0.3,0.6-0.2,0.8c-2.2,0.9-4.4,1.7-6.6,2.6c-0.7,0.3-1.3,0.5-2,0.8C33.2,49.1,33,49.2,32.7,49.2z"/>
	<path class="st0" d="M57,37c0-0.2,0-0.4,0-0.7c-0.1,0-0.1-0.1-0.2-0.1c-0.1,0.2-0.2,0.4-0.4,0.5c-3.6,3.6-7.2,7.2-10.7,10.7
		c-0.7,0.7-1.5,1.3-2.5,1.6c-2.6,1-5.2,2.1-7.9,3.1c-1.1,0.5-2.2,0.7-3.5,0.7c-4.7,0-9.4,0-14.1,0c-1.3,0-2.2-0.8-2.2-1.9
		c0-1.1,0.9-1.8,2.1-1.9c3,0,6,0,8.9,0c0.2,0,0.4,0,0.7,0c-0.6-1.6-0.4-3,0.2-4.5c1-2.4,2-4.8,2.9-7.2c0.5-1.5,1.3-2.7,2.5-3.8
		c1.1-1,2.1-2.1,3.3-3.2c-0.4,0-0.6,0-0.9,0c-8.3,0-16.6,0-24.9,0c-1.2,0-2,0.3-2.5,1.4c0,12.9,0,25.8,0,38.7
		c0.1,0.8,0.6,1.2,1.4,1.4c15.4,0,30.8,0,46.2,0c1.1-0.5,1.4-1.3,1.4-2.5C57,58.6,57,47.8,57,37z M49.4,59.3
		c-0.3,0.8-0.9,1.2-1.8,1.2c-1.4,0-2.8,0-4.2,0c-8.5,0-17,0-25.5,0c-0.3,0-0.5,0-0.8,0c-0.9-0.2-1.6-1.1-1.5-2
		c0.1-1,0.9-1.7,1.9-1.7c4.6,0,9.2,0,13.8,0c0.4,0,0.8,0,1.2,0c5,0,9.9,0,14.9,0C49,56.7,49.9,58,49.4,59.3z"/>
</g>
</svg>
