<?xml version="1.0" encoding="utf-8"?>
<!-- Generator: Adobe Illustrator 23.0.2, SVG Export Plug-In . SVG Version: 6.00 Build 0)  -->
<svg version="1.1" id="Layer_1" xmlns="http://www.w3.org/2000/svg" xmlns:xlink="http://www.w3.org/1999/xlink" x="0px" y="0px"
	 viewBox="0 0 80 80" style="enable-background:new 0 0 80 80;" xml:space="preserve">
<style type="text/css">
	.st0{fill:#FFFFFF;}
</style>
<g>
	<path class="st0" d="M47.3,8C33.7,8,22.6,19.1,22.6,32.7c0,13.6,11.1,24.7,24.7,24.7C60.9,57.4,72,46.3,72,32.7
		C72,19.1,60.9,8,47.3,8z M47.3,50.9C37.2,50.9,29,42.7,29,32.7c0-10.1,8.2-18.3,18.3-18.3c10.1,0,18.2,8.2,18.2,18.3
		S57.4,50.9,47.3,50.9z"/>
	<path class="st0" d="M25.7,48.3l-2.6,2.6l-1.2-1.2c-0.4-0.4-1-0.4-1.4,0L10,60.1c-2.7,2.7-2.7,7.1,0,9.8c2.7,2.7,7.1,2.7,9.9,0
		l10.4-10.4c0.4-0.4,0.4-1,0-1.4l-1.2-1.2l2.6-2.6C29.4,52.6,27.4,50.6,25.7,48.3z"/>
	<path class="st0" d="M61,35.9L59.5,35c0-0.4-0.1-0.9-0.2-1.3l1.1-1.4c0.1-0.2,0.2-0.4,0-0.6l-1-1.5c-0.1-0.2-0.3-0.3-0.5-0.2
		l-1.7,0.4c-0.3-0.3-0.7-0.6-1.1-0.8l-0.2-1.7c0-0.2-0.2-0.4-0.4-0.4L53.8,27c-0.2,0-0.4,0-0.5,0.2l-0.9,1.5c-0.5,0-0.9,0.1-1.4,0.2
		l-1.4-1.1c-0.2-0.1-0.4-0.1-0.6,0l-1.5,1c-0.2,0.1-0.3,0.3-0.2,0.5l0.4,1.7c-0.3,0.3-0.6,0.7-0.8,1.1l-1.7,0.2
		c-0.2,0-0.4,0.2-0.4,0.4l-0.4,1.7c0,0.2,0,0.4,0.2,0.5l1.5,0.9c0,0.5,0.1,0.9,0.2,1.3l-1.1,1.3c-0.1,0.2-0.1,0.4,0,0.6l1,1.5
		c0.1,0.2,0.3,0.3,0.5,0.2l1.7-0.4c0.4,0.3,0.7,0.6,1.1,0.8l0.2,1.7c0,0.2,0.2,0.4,0.4,0.4l1.8,0.4c0,0,0.1,0,0.1,0
		c0.2,0,0.3-0.1,0.4-0.2l0.9-1.5c0.5,0,0.9-0.1,1.3-0.2L56,43c0.2,0.1,0.4,0.1,0.6,0l1.5-1c0.2-0.1,0.3-0.3,0.2-0.5l-0.4-1.7
		c0.3-0.3,0.6-0.7,0.8-1.1l1.7-0.2c0.2,0,0.4-0.2,0.4-0.4l0.4-1.7C61.3,36.2,61.2,36,61,35.9z M54.7,38.5c-1.8,1.1-4,0.5-5-1.1
		c-1.1-1.7-0.6-3.9,1.1-5c1.7-1.1,3.9-0.6,5,1.1C56.9,35.2,56.4,37.5,54.7,38.5z"/>
	<path class="st0" d="M44.5,31.6c0.2,0,0.4-0.2,0.4-0.4l0.3-1.3c0-0.2-0.1-0.4-0.2-0.5l-1-0.6c0-0.3-0.1-0.6-0.2-0.9l0.8-1
		c0.1-0.2,0.1-0.4,0-0.6l-0.7-1.1c-0.1-0.2-0.3-0.3-0.5-0.2l-1.2,0.3c-0.2-0.2-0.5-0.4-0.7-0.5l-0.1-1.2c0-0.2-0.2-0.4-0.4-0.4
		l-1.3-0.3c-0.2,0-0.4,0.1-0.5,0.2l-0.6,1c-0.3,0-0.6,0.1-0.9,0.2l-1-0.7c-0.2-0.1-0.4-0.1-0.6,0l-1.1,0.7c-0.2,0.1-0.3,0.3-0.2,0.5
		l0.3,1.2c-0.2,0.2-0.4,0.5-0.5,0.7l-1.2,0.1c-0.2,0-0.4,0.2-0.4,0.4l-0.3,1.3c0,0.2,0,0.4,0.2,0.5l1,0.6c0,0.3,0.1,0.6,0.2,0.9
		l-0.8,0.9c-0.1,0.2-0.1,0.4,0,0.6l0.7,1.1c0.1,0.2,0.3,0.3,0.5,0.2l1.2-0.3c0.2,0.2,0.5,0.4,0.7,0.5l0.1,1.2c0,0.2,0.2,0.4,0.4,0.4
		l1.3,0.3c0,0,0.1,0,0.1,0c0.2,0,0.3-0.1,0.4-0.2l0.6-1c0.3,0,0.6-0.1,0.9-0.2l0.9,0.8c0.2,0.1,0.4,0.1,0.6,0l1.1-0.7
		c0.2-0.1,0.3-0.3,0.2-0.5l-0.3-1.2c0.2-0.2,0.4-0.5,0.5-0.7L44.5,31.6z M40.2,31.3c-1.1,0.7-2.6,0.4-3.3-0.7
		c-0.7-1.1-0.4-2.6,0.8-3.3c1.1-0.7,2.6-0.3,3.3,0.7C41.6,29,41.4,30.5,40.2,31.3z"/>
</g>
</svg>
