<?xml version="1.0" encoding="utf-8"?>
<!-- Generator: Adobe Illustrator 23.0.2, SVG Export Plug-In . SVG Version: 6.00 Build 0)  -->
<svg version="1.1" id="Layer_1" xmlns="http://www.w3.org/2000/svg" xmlns:xlink="http://www.w3.org/1999/xlink" x="0px" y="0px"
	 viewBox="0 0 80 80" style="enable-background:new 0 0 80 80;" xml:space="preserve">
<style type="text/css">
	.st0{fill-rule:evenodd;clip-rule:evenodd;fill:#FFFFFF;}
</style>
<g>
	<path class="st0" d="M21.3,30.1c-2.3,2.3-6.8,6.8-8.8,8.8C9.6,41.8,8,45.8,8,49.9s1.6,8.1,4.5,11c0.7,0.7,1.5,1.5,2.2,2.2
		c2.9,2.9,6.9,4.5,11,4.5s8.1-1.6,11-4.5c2-2,6.4-6.4,8.8-8.8c1.2-1.2,1.2-3.2,0-4.4c-1.2-1.2-3.2-1.2-4.4,0
		c-2.3,2.3-6.8,6.8-8.8,8.8c-1.7,1.7-4.1,2.7-6.6,2.7s-4.8-1-6.6-2.7c-0.7-0.7-1.5-1.5-2.2-2.2c-1.7-1.7-2.7-4.1-2.7-6.6
		s1-4.8,2.7-6.6c2-2,6.4-6.4,8.8-8.8c1.2-1.2,1.2-3.2,0-4.4C24.5,28.9,22.6,28.9,21.3,30.1z M54.3,45.5c2.3-2.3,6.8-6.8,8.8-8.8
		c2.9-2.9,4.5-6.9,4.5-11s-1.6-8.1-4.5-11c-0.7-0.7-1.5-1.5-2.2-2.2C58,9.6,54,8,49.9,8s-8.1,1.6-11,4.5c-2,2-6.4,6.4-8.8,8.8
		c-1.2,1.2-1.2,3.2,0,4.4c1.2,1.2,3.2,1.2,4.4,0c2.3-2.3,6.8-6.8,8.8-8.8c1.7-1.7,4.1-2.7,6.6-2.7c2.5,0,4.8,1,6.6,2.7
		c0.7,0.7,1.5,1.5,2.2,2.2c1.7,1.7,2.7,4.1,2.7,6.6s-1,4.8-2.7,6.6c-2,2-6.4,6.4-8.8,8.8c-1.2,1.2-1.2,3.2,0,4.4
		C51.1,46.7,53.1,46.7,54.3,45.5z"/>
	<path class="st0" d="M29,51l22-22c1.2-1.2,1.2-3.2,0-4.4c-1.2-1.2-3.2-1.2-4.4,0l-22,22c-1.2,1.2-1.2,3.2,0,4.4
		C25.8,52.2,27.8,52.2,29,51z M58,53.4l0,15.5c0,1.7,1.4,3.1,3.1,3.1c1.7,0,3.1-1.4,3.1-3.1l0-15.5c0-1.7-1.4-3.1-3.1-3.1
		C59.4,50.2,58,51.6,58,53.4z"/>
	<path class="st0" d="M53.4,64.2l15.5,0c1.7,0,3.1-1.4,3.1-3.1c0-1.7-1.4-3.1-3.1-3.1l-15.5,0c-1.7,0-3.1,1.4-3.1,3.1
		C50.2,62.8,51.6,64.2,53.4,64.2z"/>
</g>
</svg>
