<svg id="Layer_1" data-name="Layer 1" xmlns="http://www.w3.org/2000/svg" viewBox="0 0 80 80"><defs><style>.cls-1{fill:#fff;}</style></defs><title>Off-page SEO</title><path class="cls-1" d="M71.05,64.55C70,63,68.94,61.48,67.84,60a.77.77,0,0,1,0-1.06,13,13,0,0,0-3.48-18,1.31,1.31,0,0,1-.66-1.25c0-5.56,0-11.13,0-16.7a6,6,0,0,0-4.78-6,9.9,9.9,0,0,0-2.37-.12c-.44,0-.6-.09-.58-.56,0-1.2,0-2.41,0-3.61a4.32,4.32,0,0,0-.6-2.28A4.69,4.69,0,0,0,51,8H24.49c-1.34,0-2.69,0-4,0a4.55,4.55,0,0,0-4.67,4.06,32.39,32.39,0,0,0,0,3.27c0,1.42,0,1.42-1.39,1.43A6,6,0,0,0,8,23.15v7.57Q8,43.36,8,56a6,6,0,0,0,6.36,6.35H28.85c-.79,2.47-1.57,4.84-2.31,7.21a.52.52,0,0,1-.62.44c-.73,0-1.45,0-2.18,0a1,1,0,0,0-.11,2,3.12,3.12,0,0,0,.61,0H47.49a3.94,3.94,0,0,0,.68,0A.92.92,0,0,0,49,71a1,1,0,0,0-1-1c-.32,0-.64,0-.95,0-.57,0-1.28.19-1.66-.08s-.43-1-.6-1.54l-1.91-6c1.72,0,3.37,0,5,0a4,4,0,0,1,2.8.74,5.5,5.5,0,0,0,1.33.66,13,13,0,0,0,7.29.7A.94.94,0,0,1,60.5,65c.91,1.57,1.88,3.1,2.84,4.64a4.62,4.62,0,1,0,7.71-5.06Zm-56-12.94c-1.5,0-3,0-4.5,0-.4,0-.58,0-.58-.54,0-9.42,0-18.85,0-28.27a4,4,0,0,1,4.06-4.05c1.66,0,1.66,0,1.66,1.62V35.16c0,5.26,0,10.53,0,15.8C15.76,51.52,15.6,51.62,15.09,51.61ZM56.68,18.74a16.11,16.11,0,0,1,2,.12,3.83,3.83,0,0,1,3,3.44c0,5.7,0,11.4,0,17.15a13.16,13.16,0,0,0-5.37-.81c-.29,0-.33-.13-.33-.37,0-.41,0-.82,0-1.23,0-5.86,0-11.72,0-17.58C56,18.92,56.09,18.69,56.68,18.74ZM35.83,58.54A1.61,1.61,0,0,1,34.29,57a1.57,1.57,0,0,1,1.6-1.58A1.55,1.55,0,0,1,37.45,57,1.57,1.57,0,0,1,35.83,58.54Zm9.23-22v9.4a2.1,2.1,0,0,1-.13.86,12.76,12.76,0,0,0-.94,4.3c0,.39-.13.49-.51.49q-12.6,0-25.21,0c-.61,0-.52-.32-.52-.68v-31q0-3.51,0-7A2.57,2.57,0,0,1,20.61,10H51.14A2.6,2.6,0,0,1,54,12.87c0,8.5,0,17,0,25.49,0,.48-.15.67-.6.77a14.26,14.26,0,0,0-2.78,1.11c0-1.35,0-2.58,0-3.8a1.41,1.41,0,0,0-1.55-1.58c-.79,0-1.59,0-2.38,0C45.59,34.87,45.06,35.39,45.06,36.53Zm12,26.17a11.07,11.07,0,1,1,11-11A11,11,0,0,1,57.05,62.7Zm11.76,6.86a2.55,2.55,0,0,1-3.59-.74c-1-1.57-2-3.19-3-4.79-.17-.26-.12-.36.16-.48A12.64,12.64,0,0,0,66.16,61c1.17,1.7,2.33,3.32,3.43,5A2.55,2.55,0,0,1,68.81,69.56Z"/><path class="cls-1" d="M29.54,39.67V33.41c0-1.26.48-1.75,1.72-1.76.79,0,1.58,0,2.38,0,1,0,1.51.5,1.51,1.45q0,6.57,0,13.13a1.34,1.34,0,0,1-1.45,1.45c-.86,0-1.73,0-2.59,0a1.43,1.43,0,0,1-1.57-1.62C29.53,43.93,29.54,41.8,29.54,39.67Z"/><path class="cls-1" d="M21.78,43.2c0-1,0-2,0-3a1.41,1.41,0,0,1,1.61-1.58c.84,0,1.68,0,2.52,0A1.33,1.33,0,0,1,27.39,40q.06,3.17,0,6.33a1.33,1.33,0,0,1-1.45,1.38c-.86,0-1.73,0-2.59,0a1.41,1.41,0,0,1-1.56-1.56C21.77,45.15,21.78,44.17,21.78,43.2Z"/><path class="cls-1" d="M42.91,44.05c0,.71,0,1.41,0,2.12a1.36,1.36,0,0,1-1.45,1.52q-1.37,0-2.73,0a1.37,1.37,0,0,1-1.43-1.48c0-1.48,0-3,0-4.43a1.41,1.41,0,0,1,1.5-1.5c.88,0,1.77,0,2.65,0a1.39,1.39,0,0,1,1.46,1.46v2.31Z"/><path class="cls-1" d="M44.29,27H40.13c-.81,0-1.26-.37-1.26-1s.45-1,1.26-1h8.38c.81,0,1.28.38,1.28,1s-.48,1-1.28,1Z"/><path class="cls-1" d="M44.24,22H40.09c-.78,0-1.21-.35-1.22-1s.41-1,1.17-1q4.29,0,8.58,0a1,1,0,0,1,1.17,1c0,.6-.45,1-1.19,1Z"/><path class="cls-1" d="M44.32,17H40.1c-.81,0-1.25-.37-1.23-1s.43-1,1.23-1h8.44c.78,0,1.23.36,1.25,1s-.46,1-1.25,1Z"/><path class="cls-1" d="M27.22,13.85A7.15,7.15,0,1,0,34.39,21,7.16,7.16,0,0,0,27.22,13.85Zm1.8,12A5.14,5.14,0,1,1,26,16c0,1.49,0,2.94,0,4.39A2.22,2.22,0,0,0,26.56,22c.91,1,1.75,2.08,2.65,3.1C29.58,25.55,29.48,25.67,29,25.84Z"/><path class="cls-1" d="M56.93,42.88a8.78,8.78,0,0,0,.19,17.56,8.63,8.63,0,0,0,8.67-8.79A8.76,8.76,0,0,0,56.93,42.88Zm3.55,7.45c-1.23,1.25-2.47,2.48-3.7,3.72a1.17,1.17,0,0,1-.77.35,1.25,1.25,0,0,1-.8-.37c-.54-.55-1.09-1.08-1.62-1.64a1,1,0,0,1-.08-1.46A1,1,0,0,1,55,51c.35.31.63.94,1,.87s.69-.6,1-.93c.66-.66,1.31-1.32,2-2a1,1,0,0,1,1.49-.08A1,1,0,0,1,60.48,50.33Z"/></svg>