<svg id="Layer_1" data-name="Layer 1" xmlns="http://www.w3.org/2000/svg" viewBox="0 0 80 80"><defs><style>.cls-1{fill:#fff;}</style></defs><title>Reliability Check</title><path class="cls-1" d="M67.29,23.09a7.09,7.09,0,0,0-6.05-6.51A41.59,41.59,0,0,1,54,15.42,24.83,24.83,0,0,1,43.9,9.86,5.56,5.56,0,0,0,40.74,8h-1.5a5.52,5.52,0,0,0-1.41.45,11.86,11.86,0,0,0-1.74,1.42A25,25,0,0,1,26,15.42a41.83,41.83,0,0,1-7.21,1.16,7,7,0,0,0-6.08,6.33c-.06,1.12-.12,2.24-.13,3.36,0,3.67-.09,7.33.21,11a69.45,69.45,0,0,0,.88,7.06,37.34,37.34,0,0,0,4,11.26,32,32,0,0,0,7.53,9.09A38.23,38.23,0,0,0,34,70.1,18.26,18.26,0,0,0,39.37,72h1.25a8.51,8.51,0,0,0,1.86-.43c.78-.32,1.56-.61,2.32-.94a37.3,37.3,0,0,0,13.53-9.41,33.19,33.19,0,0,0,6.82-12.3A49.1,49.1,0,0,0,67,39.86c.25-2.19.39-4.39.44-6.59C67.46,29.88,67.42,26.48,67.29,23.09ZM40,55.93A15.93,15.93,0,1,1,55.94,40,15.9,15.9,0,0,1,40,55.93Z"/><path class="cls-1" d="M40.07,27.81A12.19,12.19,0,1,0,52.18,40.08,12.15,12.15,0,0,0,40.07,27.81Zm7.22,9.81c-.51.58-1.08,1.1-1.62,1.64l-6.89,6.9c-1.13,1.12-2.09,1.12-3.22,0-1-1-2-2-3-3A1.89,1.89,0,0,1,32,41.75a1.81,1.81,0,0,1,1.09-1.68,1.74,1.74,0,0,1,2,.29A19,19,0,0,1,36.72,42c.37.41.56.33.91,0,2.24-2.28,4.5-4.52,6.75-6.78a2,2,0,0,1,1.95-.68A1.86,1.86,0,0,1,47.29,37.62Z"/></svg>