<svg id="Layer_1" data-name="Layer 1" xmlns="http://www.w3.org/2000/svg" viewBox="0 0 80 80"><defs><style>.cls-1{fill:#fff;}</style></defs><title>social media marketing</title><path class="cls-1" d="M42.5,72.13a7.27,7.27,0,0,1-2.89-2.07q-3.55-3.47-7.14-6.9c-.32-.31-.31-.45,0-.75,1.53-1.5,3.05-3,4.54-4.55.35-.36.51-.29.81,0,1,1,2,2,3,3,.25.24.39.34.68,0,.71-.76,1.48-1.47,2.2-2.22a1.85,1.85,0,0,0,0-2.77c-.62-.65-1.25-1.28-1.89-1.91-.22-.2-.3-.34,0-.56.82-.6,1.63-1.21,2.44-1.84a.32.32,0,0,1,.51,0c.63.66,1.32,1.28,1.92,2A5.55,5.55,0,0,1,46.64,61c-.77.84-1.6,1.64-2.42,2.43-.25.25-.28.39,0,.63.53.47,1,1,1.53,1.48a3.65,3.65,0,0,1,1.11,3.8A3.54,3.54,0,0,1,44,72s-.05.06-.07.09Z"/><path class="cls-1" d="M52,8.13a2.35,2.35,0,0,1,1.38,2.56c-.06,1,0,2,0,2.93a1.89,1.89,0,0,1-1.92,2,1.86,1.86,0,0,1-1.82-2c0-1,.05-2,0-3A2.23,2.23,0,0,1,51,8.13Z"/><path class="cls-1" d="M34.39,18.61,57.64,41.87c-1.18.26-2.39.51-3.58.85A40.46,40.46,0,0,0,39.6,50.44c-.7.57-.7.58-1.33,0Q32,44.12,25.72,37.85c-.29-.29-.4-.45-.08-.84a39.73,39.73,0,0,0,8.64-18A2.34,2.34,0,0,1,34.39,18.61Z"/><path class="cls-1" d="M67.62,37.43a3.67,3.67,0,0,1-2.13,3.28,3.6,3.6,0,0,1-3.93-.41,5.22,5.22,0,0,1-.6-.55L36.44,15.24a3.75,3.75,0,0,1,4.9-5.69,2.9,2.9,0,0,1,.36.34L66.35,34.53A4.06,4.06,0,0,1,67.62,37.43Z"/><path class="cls-1" d="M57.12,17.61a1.93,1.93,0,0,1,.56-1.46c1.24-1.24,2.46-2.49,3.71-3.7a1.87,1.87,0,1,1,2.66,2.62Q62.21,17,60.3,18.82a1.86,1.86,0,0,1-3.18-1.21Z"/><path class="cls-1" d="M64.62,23.13c.63,0,1.25,0,1.87,0a1.87,1.87,0,0,1,0,3.74q-1.91,0-3.81,0a1.87,1.87,0,0,1,0-3.74C63.33,23.11,64,23.13,64.62,23.13Z"/><path class="cls-1" d="M35.81,53.22Q29.43,46.88,23.09,40.5c-.21-.2-.32-.21-.53,0-3,3.06-6.12,6.07-9.12,9.16a5.49,5.49,0,0,0,0,7.68c1.81,1.89,3.69,3.73,5.56,5.56a5.31,5.31,0,0,0,3.86,1.52,5.38,5.38,0,0,0,3.88-1.57c3-3,6-6,9.06-9C36,53.59,36.06,53.47,35.81,53.22Zm-9-1c-.86.89-1.75,1.78-2.64,2.64a1.77,1.77,0,0,1-2.07.37A1.71,1.71,0,0,1,21,53.77a2,2,0,0,1,.57-1.63l2.56-2.56a1.88,1.88,0,0,1,2.68-.06A1.85,1.85,0,0,1,26.77,52.2Z"/></svg>