<svg id="Layer_1" data-name="Layer 1" xmlns="http://www.w3.org/2000/svg" viewBox="0 0 80 80"><defs><style>.cls-1{fill:#fff;}</style></defs><title>api</title><path class="cls-1" d="M28.31,61.17a1.25,1.25,0,0,0-.5-1.07A21.63,21.63,0,0,1,22.66,55a1.11,1.11,0,0,0-1.55-.34c-1.41.57-2.81,1.14-4.2,1.74-.35.15-.49.1-.63-.25-.82-2-1.66-4-2.49-6-.11-.26-.14-.41.2-.54,1-.37,1.92-.79,2.88-1.18a.78.78,0,0,1,.48-.08,27.5,27.5,0,0,0,6.41.37.75.75,0,0,1,.79.49c3.22,6.29,8.37,9.73,15.42,9.75s12.22-3.42,15.45-9.69a.85.85,0,0,1,.89-.55c2.41,0,4.83,0,7.25,0a8.82,8.82,0,0,1,2.66,1c.22.08.08.24,0,.36-.85,2.07-1.72,4.14-2.56,6.22-.15.34-.31.28-.57.17l-4.19-1.73a1.17,1.17,0,0,0-1.72.49A21.13,21.13,0,0,1,52.32,60a1.17,1.17,0,0,0-.47,1.67c.57,1.4,1.15,2.8,1.74,4.19.15.35.11.48-.25.63-2,.8-4,1.63-6,2.47-.35.15-.49.12-.63-.25C46.17,67.33,45.59,66,45,64.58c-.34-.82-.67-1-1.54-.9a22.1,22.1,0,0,1-6.84,0c-1-.16-1.28,0-1.67,1-.57,1.36-1.15,2.72-1.69,4.09-.14.34-.26.37-.58.23-2-.85-4-1.68-6-2.48-.43-.17-.42-.33-.25-.71.57-1.31,1.1-2.64,1.65-4C28.2,61.59,28.26,61.33,28.31,61.17Z"/><path class="cls-1" d="M26.94,48.68H53.06a14.7,14.7,0,0,1-26.12,0Z"/><path class="cls-1" d="M72,37.33a8.57,8.57,0,0,0-8.34-8.11,1.48,1.48,0,0,1-1.54-1.06A10.7,10.7,0,0,0,52,21.23,1.71,1.71,0,0,1,50.24,20c-2.44-5.44-6.66-8.55-12.59-9a14.69,14.69,0,0,0-14.88,9.29c-.35.84-.6,1-1.52.94A12.6,12.6,0,0,0,8.47,30.36,9.45,9.45,0,0,1,8,32.19v3.13a3.7,3.7,0,0,1,.3,1.23,12.52,12.52,0,0,0,12.28,9.79h42.8a9.39,9.39,0,0,0,1.06,0A8.59,8.59,0,0,0,72,37.33ZM34.47,41.76a1.13,1.13,0,0,1-1.29-.83c-.48-1.4-1-2.79-1.39-4.2a.78.78,0,0,0-.94-.68c-.85.06-1.71,0-2.56,0-.33,0-.46.1-.56.42-.46,1.44-.95,2.87-1.44,4.3-.28.82-.82,1.15-1.49.94s-.94-.85-.66-1.68l4.38-13.17c.2-.58.49-1.07,1.21-1.06s1,.5,1.18,1.09c1.44,4.35,2.9,8.7,4.35,13.05.07.22.12.44.15.56A1.15,1.15,0,0,1,34.47,41.76Zm7.78-6.83c-.94,0-1.88,0-2.81,0-.45,0-.6.08-.59.57,0,1.66,0,3.33,0,5a1.15,1.15,0,0,1-1.67,1.16,1.26,1.26,0,0,1-.62-1.27c0-2.2,0-4.41,0-6.61v-6.5c0-1.1.36-1.46,1.45-1.46,1.39,0,2.79,0,4.18,0a4.57,4.57,0,1,1,0,9.13Zm12.52,6.86q-3.35,0-6.69,0a1.15,1.15,0,1,1,0-2.3c.58,0,1.17,0,1.75,0,.37,0,.44-.12.44-.46q0-5.28,0-10.56c0-.33-.1-.42-.42-.41-.6,0-1.21,0-1.81,0a1.12,1.12,0,0,1-1.18-1.17,1.1,1.1,0,0,1,1.19-1.09q3.38,0,6.75,0A1.11,1.11,0,0,1,56,26.9a1.14,1.14,0,0,1-1.21,1.16,17,17,0,0,1-1.75,0c-.39,0-.47.11-.47.49,0,1.74,0,3.49,0,5.24s0,3.46,0,5.19c0,.42.12.54.52.51.56,0,1.13,0,1.69,0A1.16,1.16,0,0,1,56,40.65,1.15,1.15,0,0,1,54.77,41.79Z"/><path class="cls-1" d="M38.86,30.37c0-.63,0-1.25,0-1.87,0-.3,0-.45.39-.44,1,0,2.08,0,3.12,0a2.27,2.27,0,0,1,2.2,2.2,2.23,2.23,0,0,1-1.93,2.31,33.63,33.63,0,0,1-3.48.06c-.34,0-.29-.21-.3-.41Z"/><path class="cls-1" d="M30.8,33.78H28.64l1.07-3.23Z"/></svg>