<svg width="80" height="80" viewBox="0 0 80 80" fill="none" xmlns="http://www.w3.org/2000/svg">
<path d="M64.0346 50.7341H48.7965C48.6053 50.7341 48.4502 50.8892 48.4502 51.0804V53.851C48.4502 54.0423 48.6053 54.1973 48.7965 54.1973H64.0346C64.2259 54.1973 64.381 54.0423 64.381 53.851V51.0804C64.381 50.8892 64.2259 50.7341 64.0346 50.7341Z" fill="white"/>
<path d="M72 59.3921V27.1843H8V59.3921C8.00073 60.0348 8.25638 60.651 8.71085 61.1055C9.16533 61.56 9.78152 61.8156 10.4242 61.8164H69.5758C70.2185 61.8156 70.8347 61.56 71.2892 61.1055C71.7436 60.651 71.9993 60.0348 72 59.3921ZM45.0563 30.6475H46.9264C47.202 30.6475 47.4662 30.757 47.6611 30.9518C47.8559 31.1467 47.9654 31.4109 47.9654 31.6865C47.9654 31.962 47.8559 32.2263 47.6611 32.4211C47.4662 32.616 47.202 32.7254 46.9264 32.7254H45.0563C44.7807 32.7254 44.5165 32.616 44.3216 32.4211C44.1268 32.2263 44.0173 31.962 44.0173 31.6865C44.0173 31.4109 44.1268 31.1467 44.3216 30.9518C44.5165 30.757 44.7807 30.6475 45.0563 30.6475ZM33.6277 35.0596C33.5336 34.9607 33.4598 34.8441 33.4107 34.7167C33.3616 34.5892 33.3381 34.4534 33.3415 34.3168C33.3449 34.1803 33.3752 34.0457 33.4306 33.9209C33.486 33.796 33.5655 33.6833 33.6644 33.5892C33.7634 33.495 33.8799 33.4213 34.0074 33.3722C34.1348 33.3231 34.2707 33.2996 34.4073 33.303C34.5438 33.3064 34.6783 33.3367 34.8032 33.3921C34.928 33.4475 35.0408 33.5269 35.1349 33.6259L38.8821 37.5504C39.0661 37.744 39.1686 38.0009 39.1686 38.268C39.1686 38.535 39.0661 38.7919 38.8821 38.9855L35.1349 42.9073C35.0408 43.0062 34.928 43.0857 34.8032 43.1411C34.6783 43.1965 34.5438 43.2268 34.4073 43.2302C34.2707 43.2336 34.1348 43.2101 34.0074 43.161C33.8799 43.1118 33.7634 43.0381 33.6644 42.944C33.5655 42.8498 33.486 42.7371 33.4306 42.6123C33.3752 42.4874 33.3449 42.3529 33.3415 42.2163C33.3381 42.0798 33.3616 41.9439 33.4107 41.8165C33.4598 41.689 33.5336 41.5725 33.6277 41.4735L36.6892 38.2666L33.6277 35.0596ZM24.1621 31.3887C24.2921 31.3473 24.4291 31.332 24.5651 31.3436C24.7011 31.3552 24.8334 31.3935 24.9546 31.4563C25.0758 31.5191 25.1834 31.6051 25.2713 31.7095C25.3592 31.8139 25.4257 31.9346 25.467 32.0647L29.2073 43.8396C29.2531 43.9707 29.2722 44.1097 29.2634 44.2484C29.2545 44.3871 29.218 44.5225 29.1559 44.6468C29.0937 44.7711 29.0073 44.8817 28.9017 44.972C28.7961 45.0623 28.6735 45.1305 28.5411 45.1725C28.4087 45.2146 28.2692 45.2297 28.1308 45.2169C27.9925 45.2041 27.8581 45.1637 27.7356 45.098C27.6132 45.0324 27.5051 44.9429 27.4179 44.8347C27.3306 44.7266 27.266 44.602 27.2277 44.4685L23.4874 32.6936C23.4462 32.5633 23.431 32.4262 23.4428 32.2901C23.4546 32.154 23.4931 32.0215 23.5562 31.9003C23.6192 31.7791 23.7056 31.6715 23.8102 31.5837C23.9149 31.4959 24.0359 31.4296 24.1662 31.3887H24.1621ZM13.8279 37.549L17.5751 33.6259C17.6692 33.5269 17.7819 33.4475 17.9068 33.3921C18.0316 33.3367 18.1662 33.3064 18.3027 33.303C18.4392 33.2996 18.5751 33.3231 18.7026 33.3722C18.83 33.4213 18.9466 33.495 19.0455 33.5892C19.1445 33.6833 19.224 33.796 19.2794 33.9209C19.3348 34.0457 19.365 34.1803 19.3684 34.3168C19.3719 34.4534 19.3483 34.5892 19.2992 34.7167C19.2501 34.8441 19.1764 34.9607 19.0823 35.0596L16.0166 38.2666L19.0823 41.4735C19.2724 41.6734 19.3753 41.9406 19.3684 42.2163C19.3616 42.4921 19.2454 42.7538 19.0455 42.944C18.8457 43.1341 18.5785 43.2371 18.3027 43.2302C18.0269 43.2233 17.7652 43.1071 17.5751 42.9073L13.8279 38.9841C13.6439 38.7905 13.5413 38.5337 13.5413 38.2666C13.5413 37.9995 13.6439 37.7426 13.8279 37.549ZM14.5801 48.6562H15.5498C15.8253 48.6562 16.0896 48.7656 16.2844 48.9605C16.4793 49.1553 16.5887 49.4196 16.5887 49.6951C16.5887 49.9707 16.4793 50.235 16.2844 50.4298C16.0896 50.6246 15.8253 50.7341 15.5498 50.7341H14.5801C14.3045 50.7341 14.0403 50.6246 13.8454 50.4298C13.6506 50.235 13.5411 49.9707 13.5411 49.6951C13.5411 49.4196 13.6506 49.1553 13.8454 48.9605C14.0403 48.7656 14.3045 48.6562 14.5801 48.6562ZM41.8701 56.2752H14.5801C14.3045 56.2752 14.0403 56.1658 13.8454 55.9709C13.6506 55.7761 13.5411 55.5118 13.5411 55.2363C13.5411 54.9607 13.6506 54.6965 13.8454 54.5016C14.0403 54.3068 14.3045 54.1973 14.5801 54.1973H41.8701C42.1457 54.1973 42.4099 54.3068 42.6048 54.5016C42.7996 54.6965 42.9091 54.9607 42.9091 55.2363C42.9091 55.5118 42.7996 55.7761 42.6048 55.9709C42.4099 56.1658 42.1457 56.2752 41.8701 56.2752ZM41.8701 50.7341H20.8831C20.6076 50.7341 20.3433 50.6246 20.1485 50.4298C19.9536 50.235 19.8442 49.9707 19.8442 49.6951C19.8442 49.4196 19.9536 49.1553 20.1485 48.9605C20.3433 48.7656 20.6076 48.6562 20.8831 48.6562H41.8701C42.1457 48.6562 42.4099 48.7656 42.6048 48.9605C42.7996 49.1553 42.9091 49.4196 42.9091 49.6951C42.9091 49.9707 42.7996 50.235 42.6048 50.4298C42.4099 50.6246 42.1457 50.7341 41.8701 50.7341ZM66.4589 53.851C66.4581 54.4937 66.2025 55.1099 65.748 55.5644C65.2936 56.0189 64.6774 56.2745 64.0346 56.2752H48.7965C48.1538 56.2745 47.5376 56.0189 47.0831 55.5644C46.6287 55.1099 46.373 54.4937 46.3723 53.851V51.0804C46.373 50.4377 46.6287 49.8215 47.0831 49.367C47.5376 48.9126 48.1538 48.6569 48.7965 48.6562H64.0346C64.6774 48.6569 65.2936 48.9126 65.748 49.367C66.2025 49.8215 66.4581 50.4377 66.4589 51.0804V53.851ZM65.4199 44.5003H45.0563C44.7807 44.5003 44.5165 44.3909 44.3216 44.196C44.1268 44.0012 44.0173 43.7369 44.0173 43.4614C44.0173 43.1858 44.1268 42.9216 44.3216 42.7267C44.5165 42.5319 44.7807 42.4224 45.0563 42.4224H65.4199C65.6955 42.4224 65.9597 42.5319 66.1546 42.7267C66.3494 42.9216 66.4589 43.1858 66.4589 43.4614C66.4589 43.7369 66.3494 44.0012 66.1546 44.196C65.9597 44.3909 65.6955 44.5003 65.4199 44.5003ZM65.4199 38.2666H45.0563C44.7807 38.2666 44.5165 38.1571 44.3216 37.9623C44.1268 37.7674 44.0173 37.5032 44.0173 37.2276C44.0173 36.9521 44.1268 36.6878 44.3216 36.493C44.5165 36.2981 44.7807 36.1887 45.0563 36.1887H65.4199C65.6955 36.1887 65.9597 36.2981 66.1546 36.493C66.3494 36.6878 66.4589 36.9521 66.4589 37.2276C66.4589 37.5032 66.3494 37.7674 66.1546 37.9623C65.9597 38.1571 65.6955 38.2666 65.4199 38.2666ZM65.4199 32.7254H51.7749C51.4993 32.7254 51.2351 32.616 51.0402 32.4211C50.8454 32.2263 50.7359 31.962 50.7359 31.6865C50.7359 31.4109 50.8454 31.1467 51.0402 30.9518C51.2351 30.757 51.4993 30.6475 51.7749 30.6475H65.4199C65.6955 30.6475 65.9597 30.757 66.1546 30.9518C66.3494 31.1467 66.4589 31.4109 66.4589 31.6865C66.4589 31.962 66.3494 32.2263 66.1546 32.4211C65.9597 32.616 65.6955 32.7254 65.4199 32.7254Z" fill="white"/>
<path d="M72 20.6042C71.9993 19.9615 71.7436 19.3453 71.2892 18.8908C70.8347 18.4364 70.2185 18.1807 69.5758 18.18H10.4242C9.78152 18.1807 9.16533 18.4364 8.71085 18.8908C8.25638 19.3453 8.00073 19.9615 8 20.6042V25.1064H72V20.6042ZM61.2641 22.6822H59.8788C59.6032 22.6822 59.339 22.5727 59.1441 22.3779C58.9493 22.183 58.8398 21.9187 58.8398 21.6432C58.8398 21.3676 58.9493 21.1034 59.1441 20.9085C59.339 20.7137 59.6032 20.6042 59.8788 20.6042H61.2641C61.5396 20.6042 61.8039 20.7137 61.9987 20.9085C62.1936 21.1034 62.303 21.3676 62.303 21.6432C62.303 21.9187 62.1936 22.183 61.9987 22.3779C61.8039 22.5727 61.5396 22.6822 61.2641 22.6822ZM66.8052 22.6822H65.4199C65.1444 22.6822 64.8801 22.5727 64.6853 22.3779C64.4904 22.183 64.381 21.9187 64.381 21.6432C64.381 21.3676 64.4904 21.1034 64.6853 20.9085C64.8801 20.7137 65.1444 20.6042 65.4199 20.6042H66.8052C67.0807 20.6042 67.345 20.7137 67.5399 20.9085C67.7347 21.1034 67.8442 21.3676 67.8442 21.6432C67.8442 21.9187 67.7347 22.183 67.5399 22.3779C67.345 22.5727 67.0807 22.6822 66.8052 22.6822Z" fill="white"/>
</svg>
