<?xml version="1.0" encoding="utf-8"?>
<!-- Generator: Adobe Illustrator 23.0.2, SVG Export Plug-In . SVG Version: 6.00 Build 0)  -->
<svg version="1.1" id="Layer_1" xmlns="http://www.w3.org/2000/svg" xmlns:xlink="http://www.w3.org/1999/xlink" x="0px" y="0px"
	 viewBox="0 0 80 80" style="enable-background:new 0 0 80 80;" xml:space="preserve">
<style type="text/css">
	.st0{fill:#FFFFFF;}
</style>
<path class="st0" d="M12.4,42.9h55.3c1.6,0,2.9-1.3,2.9-2.9v-8.7c0-1.6-1.3-2.9-2.9-2.9h-8.7v-2.9h8.7c1.6,0,2.9-1.3,2.9-2.9v-8.7
	c0-1.6-1.3-2.9-2.9-2.9H12.4c-1.6,0-2.9,1.3-2.9,2.9v8.7c0,1.6,1.3,2.9,2.9,2.9h8.7v2.9h-8.7c-1.6,0-2.9,1.3-2.9,2.9V40
	C9.5,41.6,10.8,42.9,12.4,42.9z M29.8,37.1H24v-2.9h5.8V37.1z M64.7,37.1H50.2v-2.9h14.5V37.1z M50.2,16.7h14.5v2.9H50.2V16.7z
	 M24,16.7h5.8v2.9H24V16.7z M15.3,16.7h5.8v2.9h-5.8V16.7z M29.8,25.5h20.4v2.9H29.8V25.5z M15.3,34.2h5.8v2.9h-5.8V34.2z M72,51.6
	v8.7c0,1.6-1.3,2.9-2.9,2.9h-4.4v2.9h2.9v2.9h-8.7v-2.9h2.9v-2.9h-4.4c-1.6,0-2.9-1.3-2.9-2.9v-2.9h-5.8c0,1.6-1.3,2.9-2.9,2.9H34.2
	c-1.6,0-2.9-1.3-2.9-2.9h-5.8v2.9c0,1.6-1.3,2.9-2.9,2.9h-4.4v2.9h2.9v2.9h-8.7v-2.9h2.9v-2.9h-4.4C9.3,63.3,8,62,8,60.4v-8.7
	c0-1.6,1.3-2.9,2.9-2.9h11.6c1.6,0,2.9,1.3,2.9,2.9v2.9h5.8c0-1.6,1.3-2.9,2.9-2.9h1.5v-7.3h8.7v7.3h1.5c1.6,0,2.9,1.3,2.9,2.9h5.8
	v-2.9c0-1.6,1.3-2.9,2.9-2.9h11.6C70.7,48.7,72,50,72,51.6z"/>
</svg>
