<svg id="Layer_1" data-name="Layer 1" xmlns="http://www.w3.org/2000/svg" viewBox="0 0 80 80"><defs><style>.cls-1{fill:#fff;}</style></defs><title>E-commerce-Development</title><path class="cls-1" d="M8,53.21H71.23c.55,0,.75.1.71.69,0,1,0,2,0,3a3.74,3.74,0,0,1-3.84,3.81q-10,0-20,0c-.55,0-.7.12-.67.67.05.89,0,1.79,0,2.68,0,.34.09.42.41.42,1.07,0,2.13,0,3.19,0a1.88,1.88,0,1,1,0,3.74q-11.08,0-22.16,0a1.88,1.88,0,1,1,0-3.74c1,0,2.08,0,3.12,0,.35,0,.45-.1.44-.45,0-.94,0-1.87,0-2.81,0-.41-.11-.51-.51-.51-3.75,0-7.49,0-11.24,0H12.06a3.74,3.74,0,0,1-4-2.86A.45.45,0,0,0,8,57.71Z"/><path class="cls-1" d="M72,15.68a3.73,3.73,0,0,0-3.29-3.83,6.41,6.41,0,0,0-.88,0H12.09A3.74,3.74,0,0,0,8,15V49.47c.34.28.75.19,1.14.19H71.19c.75,0,.8-.08.8-.83V28.54C72,24.25,72,20,72,15.68ZM52.78,41.89a5.65,5.65,0,0,1-5,3.82,5.57,5.57,0,0,1-5.42-3.26.68.68,0,0,0-.78-.48c-1.1,0-2.21,0-3.31,0a.67.67,0,0,0-.72.48,5.6,5.6,0,0,1-10.69-2.57,5.39,5.39,0,0,1,1.64-3.73.68.68,0,0,0,.23-.79q-1.6-5.82-3.18-11.65c-.1-.38-.26-.47-.63-.46-1.18,0-2.37,0-3.56,0a1.88,1.88,0,1,1,0-3.74c.9,0,1.79,0,2.69,0s1.74,0,2.62,0a1.89,1.89,0,0,1,2,1.52c.17.56.33,1.12.45,1.69.08.41.25.56.7.55,1.93,0,3.87,0,5.8,0H50.88A1.9,1.9,0,0,1,53,25.84c-.72,3-1.45,6.05-2.2,9.07a.76.76,0,0,0,.3.89A5.57,5.57,0,0,1,52.78,41.89Z"/><path class="cls-1" d="M30.34,27H48.82c-.58,2.41-1.17,4.79-1.73,7.17-.06.26-.19.32-.41.36A5.57,5.57,0,0,0,42.26,38a.37.37,0,0,1-.42.26c-1.24,0-2.49,0-3.74,0-.29,0-.38-.14-.48-.36a5.55,5.55,0,0,0-4.91-3.39c-.2,0-.33,0-.4-.26C31.66,31.83,31,29.43,30.34,27Z"/><path class="cls-1" d="M32.5,42a1.87,1.87,0,1,1,1.84-1.88A1.88,1.88,0,0,1,32.5,42Z"/><path class="cls-1" d="M49.33,40.12a1.88,1.88,0,1,1-1.84-1.89A1.89,1.89,0,0,1,49.33,40.12Z"/></svg>