<svg id="Layer_1" data-name="Layer 1" xmlns="http://www.w3.org/2000/svg" viewBox="0 0 80 80"><defs><style>.cls-1{fill:#fff;}</style></defs><title>Front End Dev</title><path class="cls-1" d="M8.5,18A2.31,2.31,0,0,1,11,16.61c.93.07,1.87,0,2.81,0,.36,0,.48.1.43.45,0,.12,0,.25,0,.37V48.06c0,3.73,2.35,6.06,6.09,6.06q20.18,0,40.36,0a5.64,5.64,0,0,0,6-6q0-15.39,0-30.8c0-.56.13-.7.67-.67,1,.05,2,0,2.94,0a1.92,1.92,0,0,1,2.15,2.15V59.45a1.92,1.92,0,0,1-2.13,2.17H10.63A2.2,2.2,0,0,1,8.5,60.25Z"/><path class="cls-1" d="M25,73c0-.18-.23-.14-.35-.21a1.91,1.91,0,0,1-1-2,1.86,1.86,0,0,1,1.83-1.49c1.66,0,3.33,0,5,0,.58,0,.68-.17.66-.69,0-.91,0-1.83,0-2.75,0-.32,0-.47.42-.46H49.46c.38,0,.43.14.42.46,0,.94,0,1.88,0,2.81,0,.46.07.64.59.62,1.6,0,3.2,0,4.8,0a1.92,1.92,0,0,1,2.08,1.5,1.89,1.89,0,0,1-1.28,2.15S56,73,56,73Z"/><path class="cls-1" d="M63,28.49c0-.55-.17-.63-.66-.63-7.29,0-14.58,0-21.86,0s-14.58,0-21.87,0c-.52,0-.64.12-.64.64,0,6.54,0,13.08,0,19.62,0,1.55.7,2.25,2.23,2.25H60.78A1.94,1.94,0,0,0,63,48.17C63,41.61,63,35.05,63,28.49ZM36.53,42.87q-5.4,0-10.8,0a1.88,1.88,0,1,1,0-3.74H36.56a1.88,1.88,0,1,1,0,3.74Zm0-7.5c-1.79,0-3.58,0-5.37,0s-3.62,0-5.43,0a1.88,1.88,0,1,1,0-3.74h10.8a1.88,1.88,0,1,1,0,3.74ZM57.2,45.52a1.84,1.84,0,0,1-1.63,1.11A2.09,2.09,0,0,1,54.08,46c-.64-.65-1.31-1.29-1.93-2-.29-.31-.47-.36-.78,0-.62.67-1.28,1.31-1.93,1.95a1.88,1.88,0,0,1-3.27-.77c-1.23-3.66-2.44-7.32-3.66-11a1.84,1.84,0,0,1,.41-2A1.87,1.87,0,0,1,45,31.76c3.66,1.23,7.33,2.44,11,3.67a1.87,1.87,0,0,1,.77,3.23c-.66.69-1.33,1.37-2,2-.27.25-.24.39,0,.63.72.69,1.43,1.4,2.12,2.12A1.8,1.8,0,0,1,57.2,45.52Z"/><path class="cls-1" d="M63,11.17A1.93,1.93,0,0,0,60.81,9H20.2A1.93,1.93,0,0,0,18,11.17c0,4.12,0,8.25,0,12.37,0,.5.15.6.61.6q10.93,0,21.87,0t21.93,0c.47,0,.62-.09.61-.6C63,19.42,63,15.29,63,11.17ZM25.53,18.5a1.88,1.88,0,1,1,1.84-1.89A1.89,1.89,0,0,1,25.53,18.5Zm7.49,0a1.88,1.88,0,1,1,1.85-1.88A1.89,1.89,0,0,1,33,18.5Zm7.52,0a1.88,1.88,0,1,1,1.83-1.9A1.88,1.88,0,0,1,40.54,18.5Z"/><path class="cls-1" d="M47.22,36.47,51.86,38,48.77,41.1Z"/></svg>