<?xml version="1.0" encoding="utf-8"?>
<!-- Generator: Adobe Illustrator 23.0.2, SVG Export Plug-In . SVG Version: 6.00 Build 0)  -->
<svg version="1.1" id="Layer_1" xmlns="http://www.w3.org/2000/svg" xmlns:xlink="http://www.w3.org/1999/xlink" x="0px" y="0px"
	 viewBox="0 0 80 80" style="enable-background:new 0 0 80 80;" xml:space="preserve">
<style type="text/css">
	.st0{fill:#FFFFFF;}
</style>
<path class="st0" d="M67.1,45.5c-3-1.7-4.1-5.5-2.4-8.5c0.6-1,1.4-1.8,2.4-2.3c2-1.1,3.3-3.2,3.3-5.5c0-1.1-0.3-2.2-0.9-3.2
	l-2.2-3.7c-1.8-3-5.6-4-8.7-2.4c-1,0.5-2.1,0.9-3.2,0.9c-3.6,0-6.5-2.9-6.5-6.4c0-1.7-0.7-3.4-1.9-4.5C45.7,8.6,44,8,42.3,8h-4.4
	c-3.6,0-6.5,2.8-6.5,6.4c0,1.7-0.7,3.3-1.9,4.5c-1.2,1.2-2.9,1.9-4.6,1.9c-1.1,0-2.2-0.3-3.3-0.8c-1.5-0.9-3.3-1.1-5-0.7
	c-1.7,0.4-3.1,1.5-4,3l-2,3.6c-1.7,3-0.7,6.8,2.4,8.5c3,1.8,4.1,5.5,2.4,8.5c-0.6,1-1.4,1.8-2.4,2.3c-1.6,0.9-2.7,2.3-3.2,4
	c-0.5,1.7-0.2,3.5,0.8,5l2,3.6c0.9,1.4,2.3,2.5,4,3c1.7,0.4,3.5,0.2,5-0.6c1-0.6,2.1-0.9,3.3-0.9c3.6,0,6.5,2.8,6.5,6.4
	c0,1.7,0.6,3.3,1.9,4.5c1.2,1.2,2.8,1.9,4.5,1.9h4.4c3.6,0,6.5-2.8,6.5-6.3c0-1.7,0.7-3.3,1.9-4.5c1.2-1.2,2.9-1.9,4.6-1.9
	c1.1,0,2.2,0.3,3.3,0.9c1,0.6,2.1,0.9,3.3,0.9c2.3,0,4.4-1.2,5.6-3.2l2.2-3.6C71.3,51.1,70.2,47.3,67.1,45.5z M33.5,41
	c0.5-0.5,1.2-0.5,1.6,0c0.5,0.5,0.5,1.2,0,1.6l-4.3,4.3c-0.1,0.1-0.2,0.2-0.4,0.3c-0.1,0.1-0.3,0.1-0.4,0.1c-0.2,0-0.3,0-0.4-0.1
	c-0.1-0.1-0.3-0.1-0.4-0.3l-4.3-4.3c-0.5-0.5-0.5-1.2,0-1.6c0.5-0.5,1.2-0.5,1.6,0l2.3,2.3V40c0-6.2,5-11.2,11.2-11.2
	c0.6,0,1.2,0.5,1.2,1.2s-0.5,1.2-1.2,1.2c-4.9,0-8.8,4-8.8,8.8v3.3L33.5,41z M55.1,39c-0.5,0.5-1.2,0.5-1.6,0l-2.3-2.3V40
	c0,6.2-5,11.2-11.2,11.2c-0.6,0-1.2-0.5-1.2-1.2s0.5-1.2,1.2-1.2c4.9,0,8.8-4,8.8-8.8v-3.3L46.5,39c-0.2,0.2-0.5,0.3-0.8,0.3
	s-0.6-0.1-0.8-0.3c-0.5-0.5-0.5-1.2,0-1.6l4.3-4.3c0.1-0.1,0.2-0.2,0.4-0.3c0.3-0.1,0.6-0.1,0.9,0c0.1,0.1,0.3,0.1,0.4,0.3l4.3,4.3
	C55.6,37.9,55.6,38.6,55.1,39z"/>
</svg>
